<?xml version="1.0" encoding="UTF-8" standalone="no"?><svg xmlns="http://www.w3.org/2000/svg" xmlns:xlink="http://www.w3.org/1999/xlink" contentScriptType="application/ecmascript" contentStyleType="text/css" height="224px" preserveAspectRatio="none" style="width:332px;height:224px;" version="1.1" viewBox="0 0 332 224" width="332px" zoomAndPan="magnify"><defs><filter height="300%" id="f1qj0mmrdmyi5a" width="300%" x="-1" y="-1"><feGaussianBlur result="blurOut" stdDeviation="2.0"/><feColorMatrix in="blurOut" result="blurOut2" type="matrix" values="0 0 0 0 0 0 0 0 0 0 0 0 0 0 0 0 0 0 .4 0"/><feOffset dx="4.0" dy="4.0" in="blurOut2" result="blurOut3"/><feBlend in="SourceGraphic" in2="blurOut3" mode="normal"/></filter></defs><g><!--MD5=[fed5857d9643ca072fa0df818727ee46]
cluster gov.nasa.jpl.spice--><polygon fill="#FFFFFF" filter="url(#f1qj0mmrdmyi5a)" points="22,24.18,152,24.18,159,46.6683,310,46.6683,310,175,22,175,22,24.18" style="stroke: #000000; stroke-width: 1.5;"/><line style="stroke: #000000; stroke-width: 1.5;" x1="22" x2="159" y1="46.6683" y2="46.6683"/><text fill="#000000" font-family="sans-serif" font-size="14" font-weight="bold" lengthAdjust="spacingAndGlyphs" textLength="124" x="26" y="39.7152">gov.nasa.jpl.spice</text><!--MD5=[95039173ba4848d7664437d49cccb338]
class gov.nasa.jpl.spice.Spice--><a href="Spice.html" target="_top" title="Spice.html" xlink:actuate="onRequest" xlink:href="Spice.html" xlink:show="new" xlink:title="Spice.html" xlink:type="simple"><rect fill="#FEFECE" filter="url(#f1qj0mmrdmyi5a)" height="99.8203" id="gov.nasa.jpl.spice.Spice" style="stroke: #A80036; stroke-width: 1.5;" width="256" x="38" y="59.18"/><ellipse cx="146.75" cy="75.18" fill="#ADD1B2" rx="11" ry="11" style="stroke: #A80036; stroke-width: 1.0;"/><path d="M149.2231,81.3231 Q148.6421,81.6219 148.0029,81.7713 Q147.3638,81.9207 146.6582,81.9207 Q144.1514,81.9207 142.8315,80.2689 Q141.5117,78.617 141.5117,75.4959 Q141.5117,72.3665 142.8315,70.7147 Q144.1514,69.0628 146.6582,69.0628 Q147.3638,69.0628 148.0112,69.2122 Q148.6587,69.3616 149.2231,69.6605 L149.2231,72.3831 Q148.5923,71.8021 147.9988,71.5323 Q147.4053,71.2625 146.7744,71.2625 Q145.4297,71.2625 144.7449,72.3292 Q144.0601,73.3958 144.0601,75.4959 Q144.0601,77.5877 144.7449,78.6544 Q145.4297,79.721 146.7744,79.721 Q147.4053,79.721 147.9988,79.4512 Q148.5923,79.1815 149.2231,78.6004 Z "/><text fill="#000000" font-family="sans-serif" font-size="12" lengthAdjust="spacingAndGlyphs" textLength="30" x="167.25" y="79.7152">Spice</text><line style="stroke: #A80036; stroke-width: 1.5;" x1="39" x2="293" y1="91.18" y2="91.18"/><line style="stroke: #A80036; stroke-width: 1.5;" x1="39" x2="293" y1="99.18" y2="99.18"/><ellipse cx="49" cy="110.18" fill="#84BE84" rx="3" ry="3" style="stroke: #038048; stroke-width: 1.0;"/><text fill="#000000" font-family="sans-serif" font-size="11" lengthAdjust="spacingAndGlyphs" text-decoration="underline" textLength="126" x="58" y="113.8148">loadKernel(String): void</text><ellipse cx="49" cy="123.1351" fill="#84BE84" rx="3" ry="3" style="stroke: #038048; stroke-width: 1.0;"/><text fill="#000000" font-family="sans-serif" font-size="11" lengthAdjust="spacingAndGlyphs" text-decoration="underline" textLength="143" x="58" y="126.7698">unLoadKernel(String): void</text><ellipse cx="49" cy="136.0902" fill="#84BE84" rx="3" ry="3" style="stroke: #038048; stroke-width: 1.0;"/><text fill="#000000" font-family="sans-serif" font-size="11" lengthAdjust="spacingAndGlyphs" text-decoration="underline" textLength="230" x="58" y="139.7249">getLoadedKernelsInfo(): ArrayList&lt;String&gt;</text><ellipse cx="49" cy="149.0452" fill="#84BE84" rx="3" ry="3" style="stroke: #038048; stroke-width: 1.0;"/><text fill="#000000" font-family="sans-serif" font-size="11" lengthAdjust="spacingAndGlyphs" text-decoration="underline" textLength="140" x="58" y="152.68">getSpeedOfLight(): double</text></a><text fill="#888888" font-family="sans-serif" font-size="10" lengthAdjust="spacingAndGlyphs" textLength="182" x="81" y="210.668">UMLDoclet 2.0.8, PlantUML 1.2020.01</text><!--MD5=[aac5269a4142358249c39a0dd3294aa0]
@startuml
    namespace gov.nasa.jpl.spice {

        class Spice [[Spice.html]] {
            {static} +loadKernel(String): void
            {static} +unLoadKernel(String): void
            {static} +getLoadedKernelsInfo(): ArrayList<String>
            {static} +getSpeedOfLight(): double
        }

    }

    center footer UMLDoclet 2.0.8, PlantUML 1.2020.01
@enduml

PlantUML version 1.2020.01(Sun Feb 16 09:40:32 PST 2020)
(APACHE source distribution)
Java Runtime: OpenJDK Runtime Environment
JVM: OpenJDK 64-Bit Server VM
Java Version: 17.0.6+10
Operating System: Mac OS X
Default Encoding: UTF-8
Language: en
Country: US
--></g></svg>