<?xml version="1.0" encoding="UTF-8" standalone="no"?><svg xmlns="http://www.w3.org/2000/svg" xmlns:xlink="http://www.w3.org/1999/xlink" contentScriptType="application/ecmascript" contentStyleType="text/css" height="135px" preserveAspectRatio="none" style="width:274px;height:135px;" version="1.1" viewBox="0 0 274 135" width="274px" zoomAndPan="magnify"><defs><filter height="300%" id="f1at3cxqgl7jfz" width="300%" x="-1" y="-1"><feGaussianBlur result="blurOut" stdDeviation="2.0"/><feColorMatrix in="blurOut" result="blurOut2" type="matrix" values="0 0 0 0 0 0 0 0 0 0 0 0 0 0 0 0 0 0 .4 0"/><feOffset dx="4.0" dy="4.0" in="blurOut2" result="blurOut3"/><feBlend in="SourceGraphic" in2="blurOut3" mode="normal"/></filter></defs><g><!--MD5=[95039173ba4848d7664437d49cccb338]
class gov.nasa.jpl.spice.Spice--><a href="Spice.html" target="_top" title="Spice.html" xlink:actuate="onRequest" xlink:href="Spice.html" xlink:show="new" xlink:title="Spice.html" xlink:type="simple"><rect fill="#FEFECE" filter="url(#f1at3cxqgl7jfz)" height="98.0859" id="gov.nasa.jpl.spice.Spice" style="stroke: #A80036; stroke-width: 1.5;" width="256" x="7" y="7"/><ellipse cx="87.75" cy="26.1328" fill="#ADD1B2" rx="11" ry="11" style="stroke: #A80036; stroke-width: 1.0;"/><path d="M90.2231,32.2759 Q89.6421,32.5747 89.0029,32.7241 Q88.3638,32.8735 87.6582,32.8735 Q85.1514,32.8735 83.8315,31.2217 Q82.5117,29.5698 82.5117,26.4487 Q82.5117,23.3193 83.8315,21.6675 Q85.1514,20.0156 87.6582,20.0156 Q88.3638,20.0156 89.0112,20.165 Q89.6587,20.3145 90.2231,20.6133 L90.2231,23.3359 Q89.5923,22.7549 88.9988,22.4851 Q88.4053,22.2153 87.7744,22.2153 Q86.4297,22.2153 85.7449,23.282 Q85.0601,24.3486 85.0601,26.4487 Q85.0601,28.5405 85.7449,29.6072 Q86.4297,30.6738 87.7744,30.6738 Q88.4053,30.6738 88.9988,30.4041 Q89.5923,30.1343 90.2231,29.5532 Z "/><text fill="#000000" font-family="sans-serif" font-size="14" lengthAdjust="spacingAndGlyphs" textLength="36" x="133.25" y="25.5352">Spice</text><text fill="#000000" font-family="sans-serif" font-size="10" lengthAdjust="spacingAndGlyphs" textLength="86" x="108.25" y="38.1563">gov.nasa.jpl.spice</text><line style="stroke: #A80036; stroke-width: 1.5;" x1="8" x2="262" y1="45.2656" y2="45.2656"/><ellipse cx="18" cy="56.2656" fill="#84BE84" rx="3" ry="3" style="stroke: #038048; stroke-width: 1.0;"/><text fill="#000000" font-family="sans-serif" font-size="11" lengthAdjust="spacingAndGlyphs" text-decoration="underline" textLength="126" x="27" y="59.9004">loadKernel(String): void</text><ellipse cx="18" cy="69.2207" fill="#84BE84" rx="3" ry="3" style="stroke: #038048; stroke-width: 1.0;"/><text fill="#000000" font-family="sans-serif" font-size="11" lengthAdjust="spacingAndGlyphs" text-decoration="underline" textLength="143" x="27" y="72.8555">unLoadKernel(String): void</text><ellipse cx="18" cy="82.1758" fill="#84BE84" rx="3" ry="3" style="stroke: #038048; stroke-width: 1.0;"/><text fill="#000000" font-family="sans-serif" font-size="11" lengthAdjust="spacingAndGlyphs" text-decoration="underline" textLength="230" x="27" y="85.8105">getLoadedKernelsInfo(): ArrayList&lt;String&gt;</text><ellipse cx="18" cy="95.1309" fill="#84BE84" rx="3" ry="3" style="stroke: #038048; stroke-width: 1.0;"/><text fill="#000000" font-family="sans-serif" font-size="11" lengthAdjust="spacingAndGlyphs" text-decoration="underline" textLength="140" x="27" y="98.7656">getSpeedOfLight(): double</text></a><text fill="#888888" font-family="sans-serif" font-size="10" lengthAdjust="spacingAndGlyphs" textLength="182" x="44" y="121.7539">UMLDoclet 2.0.8, PlantUML 1.2020.01</text><!--MD5=[a3267d0e298036be05e9634f6d94cf94]
@startuml
    set namespaceSeparator none
    hide empty fields
    hide empty methods

    class "<size:14>Spice\n<size:10>gov.nasa.jpl.spice" as gov.nasa.jpl.spice.Spice [[Spice.html]] {
        {static} +loadKernel(String): void
        {static} +unLoadKernel(String): void
        {static} +getLoadedKernelsInfo(): ArrayList<String>
        {static} +getSpeedOfLight(): double
    }

    center footer UMLDoclet 2.0.8, PlantUML 1.2020.01
@enduml

PlantUML version 1.2020.01(Sun Feb 16 09:40:32 PST 2020)
(APACHE source distribution)
Java Runtime: OpenJDK Runtime Environment
JVM: OpenJDK 64-Bit Server VM
Java Version: 17.0.6+10
Operating System: Mac OS X
Default Encoding: UTF-8
Language: en
Country: US
--></g></svg>