<?xml version="1.0" encoding="UTF-8" standalone="no"?><svg xmlns="http://www.w3.org/2000/svg" xmlns:xlink="http://www.w3.org/1999/xlink" contentScriptType="application/ecmascript" contentStyleType="text/css" height="211px" preserveAspectRatio="none" style="width:255px;height:211px;" version="1.1" viewBox="0 0 255 211" width="255px" zoomAndPan="magnify"><defs><filter height="300%" id="f15yp5u4gpemjy" width="300%" x="-1" y="-1"><feGaussianBlur result="blurOut" stdDeviation="2.0"/><feColorMatrix in="blurOut" result="blurOut2" type="matrix" values="0 0 0 0 0 0 0 0 0 0 0 0 0 0 0 0 0 0 .4 0"/><feOffset dx="4.0" dy="4.0" in="blurOut2" result="blurOut3"/><feBlend in="SourceGraphic" in2="blurOut3" mode="normal"/></filter></defs><g><!--MD5=[36d6e5c0db548c8c0cf3391b0000c29c]
class gov.nasa.jpl.exampleAdaptation.ActivitySix--><a href="ActivitySix.html" target="_top" title="ActivitySix.html" xlink:actuate="onRequest" xlink:href="ActivitySix.html" xlink:show="new" xlink:title="ActivitySix.html" xlink:type="simple"><rect fill="#FEFECE" filter="url(#f15yp5u4gpemjy)" height="72.1758" id="gov.nasa.jpl.exampleAdaptation.ActivitySix" style="stroke: #A80036; stroke-width: 1.5;" width="238" x="6" y="105.82"/><ellipse cx="43.05" cy="124.9528" fill="#ADD1B2" rx="11" ry="11" style="stroke: #A80036; stroke-width: 1.0;"/><path d="M45.5231,131.0959 Q44.9421,131.3947 44.3029,131.5441 Q43.6638,131.6935 42.9582,131.6935 Q40.4514,131.6935 39.1315,130.0417 Q37.8117,128.3898 37.8117,125.2687 Q37.8117,122.1393 39.1315,120.4875 Q40.4514,118.8356 42.9582,118.8356 Q43.6638,118.8356 44.3112,118.985 Q44.9587,119.1345 45.5231,119.4333 L45.5231,122.1559 Q44.8923,121.5749 44.2988,121.3051 Q43.7053,121.0353 43.0744,121.0353 Q41.7297,121.0353 41.0449,122.102 Q40.3601,123.1686 40.3601,125.2687 Q40.3601,127.3605 41.0449,128.4272 Q41.7297,129.4938 43.0744,129.4938 Q43.7053,129.4938 44.2988,129.2241 Q44.8923,128.9543 45.5231,128.3732 Z "/><text fill="#000000" font-family="sans-serif" font-size="14" lengthAdjust="spacingAndGlyphs" textLength="70" x="105.45" y="124.3552">ActivitySix</text><text fill="#000000" font-family="sans-serif" font-size="10" lengthAdjust="spacingAndGlyphs" textLength="157" x="61.95" y="136.9763">gov.nasa.jpl.exampleAdaptation</text><line style="stroke: #A80036; stroke-width: 1.5;" x1="7" x2="243" y1="144.0856" y2="144.0856"/><ellipse cx="17" cy="155.0856" fill="#84BE84" rx="3" ry="3" style="stroke: #038048; stroke-width: 1.0;"/><text fill="#000000" font-family="sans-serif" font-size="11" lengthAdjust="spacingAndGlyphs" textLength="212" x="26" y="158.7204">ActivitySix(Time, Duration, List&lt;Time&gt;)</text><ellipse cx="17" cy="168.0407" fill="#84BE84" rx="3" ry="3" style="stroke: #038048; stroke-width: 1.0;"/><text fill="#000000" font-family="sans-serif" font-size="11" lengthAdjust="spacingAndGlyphs" textLength="70" x="26" y="171.6755">model(): void</text></a><!--MD5=[9fb577203c08bfd183ae1eb5c832aad4]
class gov.nasa.jpl.activity.Activity--><a href="../activity/Activity.html" target="_top" title="../activity/Activity.html" xlink:actuate="onRequest" xlink:href="../activity/Activity.html" xlink:show="new" xlink:title="../activity/Activity.html" xlink:type="simple"><rect fill="#FEFECE" filter="url(#f15yp5u4gpemjy)" height="38.2656" id="gov.nasa.jpl.activity.Activity" style="stroke: #A80036; stroke-width: 1.5;" width="128" x="61" y="7.56"/><ellipse cx="76" cy="26.6928" fill="#ADD1B2" rx="11" ry="11" style="stroke: #A80036; stroke-width: 1.0;"/><path d="M78.4731,32.8359 Q77.8921,33.1347 77.2529,33.2841 Q76.6138,33.4335 75.9082,33.4335 Q73.4014,33.4335 72.0815,31.7817 Q70.7617,30.1298 70.7617,27.0087 Q70.7617,23.8793 72.0815,22.2275 Q73.4014,20.5756 75.9082,20.5756 Q76.6138,20.5756 77.2612,20.725 Q77.9087,20.8745 78.4731,21.1733 L78.4731,23.8959 Q77.8423,23.3149 77.2488,23.0451 Q76.6553,22.7753 76.0244,22.7753 Q74.6797,22.7753 73.9949,23.842 Q73.3101,24.9086 73.3101,27.0087 Q73.3101,29.1005 73.9949,30.1672 Q74.6797,31.2338 76.0244,31.2338 Q76.6553,31.2338 77.2488,30.9641 Q77.8423,30.6943 78.4731,30.1132 Z "/><text fill="#000000" font-family="sans-serif" font-size="14" lengthAdjust="spacingAndGlyphs" textLength="49" x="113.5" y="26.0952">Activity</text><text fill="#000000" font-family="sans-serif" font-size="10" lengthAdjust="spacingAndGlyphs" textLength="96" x="90" y="38.7163">gov.nasa.jpl.activity</text></a><!--MD5=[023f7ac116769506f3d413f5d574d44c]
reverse link gov.nasa.jpl.activity.Activity to gov.nasa.jpl.exampleAdaptation.ActivitySix--><path d="M125,67.27 C125,79.73 125,93.41 125,105.55 " fill="none" id="gov.nasa.jpl.activity.Activity&lt;-gov.nasa.jpl.exampleAdaptation.ActivitySix" style="stroke: #A80036; stroke-width: 1.0;"/><polygon fill="none" points="118,67.65,125,47.65,132,67.65,118,67.65" style="stroke: #A80036; stroke-width: 1.0;"/><text fill="#888888" font-family="sans-serif" font-size="10" lengthAdjust="spacingAndGlyphs" textLength="182" x="40" y="197.668">UMLDoclet 2.0.8, PlantUML 1.2020.01</text><!--MD5=[d25b744e653f16e947e4aa401e06f73e]
@startuml
    set namespaceSeparator none
    hide empty fields
    hide empty methods

    class "<size:14>ActivitySix\n<size:10>gov.nasa.jpl.exampleAdaptation" as gov.nasa.jpl.exampleAdaptation.ActivitySix [[ActivitySix.html]] {
        +ActivitySix(Time, Duration, List<Time>)
        +model(): void
    }

    class "<size:14>Activity\n<size:10>gov.nasa.jpl.activity" as gov.nasa.jpl.activity.Activity [[../activity/Activity.html]]

    gov.nasa.jpl.activity.Activity <|- - gov.nasa.jpl.exampleAdaptation.ActivitySix

    center footer UMLDoclet 2.0.8, PlantUML 1.2020.01
@enduml

PlantUML version 1.2020.01(Sun Feb 16 09:40:32 PST 2020)
(APACHE source distribution)
Java Runtime: OpenJDK Runtime Environment
JVM: OpenJDK 64-Bit Server VM
Java Version: 17.0.6+10
Operating System: Mac OS X
Default Encoding: UTF-8
Language: en
Country: US
--></g></svg>