<?xml version="1.0" encoding="UTF-8" standalone="no"?><svg xmlns="http://www.w3.org/2000/svg" xmlns:xlink="http://www.w3.org/1999/xlink" contentScriptType="application/ecmascript" contentStyleType="text/css" height="198px" preserveAspectRatio="none" style="width:209px;height:198px;" version="1.1" viewBox="0 0 209 198" width="209px" zoomAndPan="magnify"><defs><filter height="300%" id="fzn7at5ovkb9o" width="300%" x="-1" y="-1"><feGaussianBlur result="blurOut" stdDeviation="2.0"/><feColorMatrix in="blurOut" result="blurOut2" type="matrix" values="0 0 0 0 0 0 0 0 0 0 0 0 0 0 0 0 0 0 .4 0"/><feOffset dx="4.0" dy="4.0" in="blurOut2" result="blurOut3"/><feBlend in="SourceGraphic" in2="blurOut3" mode="normal"/></filter></defs><g><!--MD5=[a71a6a207d9b81ee68f929cdd4bd3fcb]
class gov.nasa.jpl.exampleAdaptation.ActivityNine--><a href="ActivityNine.html" target="_top" title="ActivityNine.html" xlink:actuate="onRequest" xlink:href="ActivityNine.html" xlink:show="new" xlink:title="ActivityNine.html" xlink:type="simple"><rect fill="#FEFECE" filter="url(#fzn7at5ovkb9o)" height="59.2207" id="gov.nasa.jpl.exampleAdaptation.ActivityNine" style="stroke: #A80036; stroke-width: 1.5;" width="189" x="6" y="105.78"/><ellipse cx="21" cy="124.9128" fill="#ADD1B2" rx="11" ry="11" style="stroke: #A80036; stroke-width: 1.0;"/><path d="M23.4731,131.0559 Q22.8921,131.3547 22.2529,131.5041 Q21.6138,131.6535 20.9082,131.6535 Q18.4014,131.6535 17.0815,130.0017 Q15.7617,128.3498 15.7617,125.2287 Q15.7617,122.0993 17.0815,120.4475 Q18.4014,118.7956 20.9082,118.7956 Q21.6138,118.7956 22.2612,118.945 Q22.9087,119.0945 23.4731,119.3933 L23.4731,122.1159 Q22.8423,121.5349 22.2488,121.2651 Q21.6553,120.9953 21.0244,120.9953 Q19.6797,120.9953 18.9949,122.062 Q18.3101,123.1286 18.3101,125.2287 Q18.3101,127.3205 18.9949,128.3872 Q19.6797,129.4538 21.0244,129.4538 Q21.6553,129.4538 22.2488,129.1841 Q22.8423,128.9143 23.4731,128.3332 Z "/><text fill="#000000" font-family="sans-serif" font-size="14" lengthAdjust="spacingAndGlyphs" textLength="80" x="73.5" y="124.3152">ActivityNine</text><text fill="#000000" font-family="sans-serif" font-size="10" lengthAdjust="spacingAndGlyphs" textLength="157" x="35" y="136.9363">gov.nasa.jpl.exampleAdaptation</text><line style="stroke: #A80036; stroke-width: 1.5;" x1="7" x2="194" y1="144.0456" y2="144.0456"/><ellipse cx="17" cy="155.0456" fill="#84BE84" rx="3" ry="3" style="stroke: #038048; stroke-width: 1.0;"/><text fill="#000000" font-family="sans-serif" font-size="11" lengthAdjust="spacingAndGlyphs" textLength="130" x="26" y="158.6804">ActivityNine(Time, Time)</text></a><!--MD5=[9fb577203c08bfd183ae1eb5c832aad4]
class gov.nasa.jpl.activity.Activity--><a href="../activity/Activity.html" target="_top" title="../activity/Activity.html" xlink:actuate="onRequest" xlink:href="../activity/Activity.html" xlink:show="new" xlink:title="../activity/Activity.html" xlink:type="simple"><rect fill="#FEFECE" filter="url(#fzn7at5ovkb9o)" height="38.2656" id="gov.nasa.jpl.activity.Activity" style="stroke: #A80036; stroke-width: 1.5;" width="128" x="36.5" y="7.51"/><ellipse cx="51.5" cy="26.6428" fill="#ADD1B2" rx="11" ry="11" style="stroke: #A80036; stroke-width: 1.0;"/><path d="M53.9731,32.7859 Q53.3921,33.0847 52.7529,33.2341 Q52.1138,33.3835 51.4082,33.3835 Q48.9014,33.3835 47.5815,31.7317 Q46.2617,30.0798 46.2617,26.9587 Q46.2617,23.8293 47.5815,22.1775 Q48.9014,20.5256 51.4082,20.5256 Q52.1138,20.5256 52.7612,20.675 Q53.4087,20.8245 53.9731,21.1233 L53.9731,23.8459 Q53.3423,23.2649 52.7488,22.9951 Q52.1553,22.7253 51.5244,22.7253 Q50.1797,22.7253 49.4949,23.792 Q48.8101,24.8586 48.8101,26.9587 Q48.8101,29.0505 49.4949,30.1172 Q50.1797,31.1838 51.5244,31.1838 Q52.1553,31.1838 52.7488,30.9141 Q53.3423,30.6443 53.9731,30.0632 Z "/><text fill="#000000" font-family="sans-serif" font-size="14" lengthAdjust="spacingAndGlyphs" textLength="49" x="89" y="26.0452">Activity</text><text fill="#000000" font-family="sans-serif" font-size="10" lengthAdjust="spacingAndGlyphs" textLength="96" x="65.5" y="38.6662">gov.nasa.jpl.activity</text></a><!--MD5=[07847ac785662d286484c6777a571cc4]
reverse link gov.nasa.jpl.activity.Activity to gov.nasa.jpl.exampleAdaptation.ActivityNine--><path d="M100.5,67.71 C100.5,80.29 100.5,93.92 100.5,105.56 " fill="none" id="gov.nasa.jpl.activity.Activity&lt;-gov.nasa.jpl.exampleAdaptation.ActivityNine" style="stroke: #A80036; stroke-width: 1.0;"/><polygon fill="none" points="93.5,67.75,100.5,47.75,107.5,67.75,93.5,67.75" style="stroke: #A80036; stroke-width: 1.0;"/><text fill="#888888" font-family="sans-serif" font-size="10" lengthAdjust="spacingAndGlyphs" textLength="182" x="15.5" y="184.668">UMLDoclet 2.0.8, PlantUML 1.2020.01</text><!--MD5=[bbcba4bc4edb4a1932b56f89dfdd6310]
@startuml
    set namespaceSeparator none
    hide empty fields
    hide empty methods

    class "<size:14>ActivityNine\n<size:10>gov.nasa.jpl.exampleAdaptation" as gov.nasa.jpl.exampleAdaptation.ActivityNine [[ActivityNine.html]] {
        +ActivityNine(Time, Time)
    }

    class "<size:14>Activity\n<size:10>gov.nasa.jpl.activity" as gov.nasa.jpl.activity.Activity [[../activity/Activity.html]]

    gov.nasa.jpl.activity.Activity <|- - gov.nasa.jpl.exampleAdaptation.ActivityNine

    center footer UMLDoclet 2.0.8, PlantUML 1.2020.01
@enduml

PlantUML version 1.2020.01(Sun Feb 16 09:40:32 PST 2020)
(APACHE source distribution)
Java Runtime: OpenJDK Runtime Environment
JVM: OpenJDK 64-Bit Server VM
Java Version: 17.0.6+10
Operating System: Mac OS X
Default Encoding: UTF-8
Language: en
Country: US
--></g></svg>