<?xml version="1.0" encoding="UTF-8" standalone="no"?><svg xmlns="http://www.w3.org/2000/svg" xmlns:xlink="http://www.w3.org/1999/xlink" contentScriptType="application/ecmascript" contentStyleType="text/css" height="211px" preserveAspectRatio="none" style="width:344px;height:211px;" version="1.1" viewBox="0 0 344 211" width="344px" zoomAndPan="magnify"><defs><filter height="300%" id="f6nan5nbmj87x" width="300%" x="-1" y="-1"><feGaussianBlur result="blurOut" stdDeviation="2.0"/><feColorMatrix in="blurOut" result="blurOut2" type="matrix" values="0 0 0 0 0 0 0 0 0 0 0 0 0 0 0 0 0 0 .4 0"/><feOffset dx="4.0" dy="4.0" in="blurOut2" result="blurOut3"/><feBlend in="SourceGraphic" in2="blurOut3" mode="normal"/></filter></defs><g><!--MD5=[4f31314c0130e2a1223e33b814fd69ff]
class gov.nasa.jpl.exampleAdaptation.ActivityFive--><a href="ActivityFive.html" target="_top" title="ActivityFive.html" xlink:actuate="onRequest" xlink:href="ActivityFive.html" xlink:show="new" xlink:title="ActivityFive.html" xlink:type="simple"><rect fill="#FEFECE" filter="url(#f6nan5nbmj87x)" height="72.1758" id="gov.nasa.jpl.exampleAdaptation.ActivityFive" style="stroke: #A80036; stroke-width: 1.5;" width="327" x="6" y="105.82"/><ellipse cx="86.75" cy="124.9528" fill="#ADD1B2" rx="11" ry="11" style="stroke: #A80036; stroke-width: 1.0;"/><path d="M89.2231,131.0959 Q88.6421,131.3947 88.0029,131.5441 Q87.3638,131.6935 86.6582,131.6935 Q84.1514,131.6935 82.8315,130.0417 Q81.5117,128.3898 81.5117,125.2687 Q81.5117,122.1393 82.8315,120.4875 Q84.1514,118.8356 86.6582,118.8356 Q87.3638,118.8356 88.0112,118.985 Q88.6587,119.1345 89.2231,119.4333 L89.2231,122.1559 Q88.5923,121.5749 87.9988,121.3051 Q87.4053,121.0353 86.7744,121.0353 Q85.4297,121.0353 84.7449,122.102 Q84.0601,123.1686 84.0601,125.2687 Q84.0601,127.3605 84.7449,128.4272 Q85.4297,129.4938 86.7744,129.4938 Q87.4053,129.4938 87.9988,129.2241 Q88.5923,128.9543 89.2231,128.3732 Z "/><text fill="#000000" font-family="sans-serif" font-size="14" lengthAdjust="spacingAndGlyphs" textLength="76" x="147.75" y="124.3552">ActivityFive</text><text fill="#000000" font-family="sans-serif" font-size="10" lengthAdjust="spacingAndGlyphs" textLength="157" x="107.25" y="136.9763">gov.nasa.jpl.exampleAdaptation</text><line style="stroke: #A80036; stroke-width: 1.5;" x1="7" x2="332" y1="144.0856" y2="144.0856"/><ellipse cx="17" cy="155.0856" fill="#84BE84" rx="3" ry="3" style="stroke: #038048; stroke-width: 1.0;"/><text fill="#000000" font-family="sans-serif" font-size="11" lengthAdjust="spacingAndGlyphs" textLength="301" x="26" y="158.7204">ActivityFive(Time, Duration, Map&lt;String, List&lt;String&gt;&gt;)</text><ellipse cx="17" cy="168.0407" fill="#84BE84" rx="3" ry="3" style="stroke: #038048; stroke-width: 1.0;"/><text fill="#000000" font-family="sans-serif" font-size="11" lengthAdjust="spacingAndGlyphs" textLength="70" x="26" y="171.6755">model(): void</text></a><!--MD5=[9fb577203c08bfd183ae1eb5c832aad4]
class gov.nasa.jpl.activity.Activity--><a href="../activity/Activity.html" target="_top" title="../activity/Activity.html" xlink:actuate="onRequest" xlink:href="../activity/Activity.html" xlink:show="new" xlink:title="../activity/Activity.html" xlink:type="simple"><rect fill="#FEFECE" filter="url(#f6nan5nbmj87x)" height="38.2656" id="gov.nasa.jpl.activity.Activity" style="stroke: #A80036; stroke-width: 1.5;" width="128" x="105.5" y="7.56"/><ellipse cx="120.5" cy="26.6928" fill="#ADD1B2" rx="11" ry="11" style="stroke: #A80036; stroke-width: 1.0;"/><path d="M122.9731,32.8359 Q122.3921,33.1347 121.7529,33.2841 Q121.1138,33.4335 120.4082,33.4335 Q117.9014,33.4335 116.5815,31.7817 Q115.2617,30.1298 115.2617,27.0087 Q115.2617,23.8793 116.5815,22.2275 Q117.9014,20.5756 120.4082,20.5756 Q121.1138,20.5756 121.7612,20.725 Q122.4087,20.8745 122.9731,21.1733 L122.9731,23.8959 Q122.3423,23.3149 121.7488,23.0451 Q121.1553,22.7753 120.5244,22.7753 Q119.1797,22.7753 118.4949,23.842 Q117.8101,24.9086 117.8101,27.0087 Q117.8101,29.1005 118.4949,30.1672 Q119.1797,31.2338 120.5244,31.2338 Q121.1553,31.2338 121.7488,30.9641 Q122.3423,30.6943 122.9731,30.1132 Z "/><text fill="#000000" font-family="sans-serif" font-size="14" lengthAdjust="spacingAndGlyphs" textLength="49" x="158" y="26.0952">Activity</text><text fill="#000000" font-family="sans-serif" font-size="10" lengthAdjust="spacingAndGlyphs" textLength="96" x="134.5" y="38.7163">gov.nasa.jpl.activity</text></a><!--MD5=[fe439a5b9169b04b09e157020832a161]
reverse link gov.nasa.jpl.activity.Activity to gov.nasa.jpl.exampleAdaptation.ActivityFive--><path d="M169.5,67.27 C169.5,79.73 169.5,93.41 169.5,105.55 " fill="none" id="gov.nasa.jpl.activity.Activity&lt;-gov.nasa.jpl.exampleAdaptation.ActivityFive" style="stroke: #A80036; stroke-width: 1.0;"/><polygon fill="none" points="162.5,67.65,169.5,47.65,176.5,67.65,162.5,67.65" style="stroke: #A80036; stroke-width: 1.0;"/><text fill="#888888" font-family="sans-serif" font-size="10" lengthAdjust="spacingAndGlyphs" textLength="182" x="84.5" y="197.668">UMLDoclet 2.0.8, PlantUML 1.2020.01</text><!--MD5=[38c60d802a56f8d149f11df64ad1ed6f]
@startuml
    set namespaceSeparator none
    hide empty fields
    hide empty methods

    class "<size:14>ActivityFive\n<size:10>gov.nasa.jpl.exampleAdaptation" as gov.nasa.jpl.exampleAdaptation.ActivityFive [[ActivityFive.html]] {
        +ActivityFive(Time, Duration, Map<String, List<String>>)
        +model(): void
    }

    class "<size:14>Activity\n<size:10>gov.nasa.jpl.activity" as gov.nasa.jpl.activity.Activity [[../activity/Activity.html]]

    gov.nasa.jpl.activity.Activity <|- - gov.nasa.jpl.exampleAdaptation.ActivityFive

    center footer UMLDoclet 2.0.8, PlantUML 1.2020.01
@enduml

PlantUML version 1.2020.01(Sun Feb 16 09:40:32 PST 2020)
(APACHE source distribution)
Java Runtime: OpenJDK Runtime Environment
JVM: OpenJDK 64-Bit Server VM
Java Version: 17.0.6+10
Operating System: Mac OS X
Default Encoding: UTF-8
Language: en
Country: US
--></g></svg>