<?xml version="1.0" encoding="UTF-8" standalone="no"?><svg xmlns="http://www.w3.org/2000/svg" xmlns:xlink="http://www.w3.org/1999/xlink" contentScriptType="application/ecmascript" contentStyleType="text/css" height="224px" preserveAspectRatio="none" style="width:209px;height:224px;" version="1.1" viewBox="0 0 209 224" width="209px" zoomAndPan="magnify"><defs><filter height="300%" id="f188do3lpy2v4a" width="300%" x="-1" y="-1"><feGaussianBlur result="blurOut" stdDeviation="2.0"/><feColorMatrix in="blurOut" result="blurOut2" type="matrix" values="0 0 0 0 0 0 0 0 0 0 0 0 0 0 0 0 0 0 .4 0"/><feOffset dx="4.0" dy="4.0" in="blurOut2" result="blurOut3"/><feBlend in="SourceGraphic" in2="blurOut3" mode="normal"/></filter></defs><g><!--MD5=[e8a08df270e09434c726620219f81ae5]
class gov.nasa.jpl.exampleAdaptation.AdaptationGlobals--><a href="AdaptationGlobals.html" target="_top" title="AdaptationGlobals.html" xlink:actuate="onRequest" xlink:href="AdaptationGlobals.html" xlink:show="new" xlink:title="AdaptationGlobals.html" xlink:type="simple"><rect fill="#FEFECE" filter="url(#f188do3lpy2v4a)" height="85.1309" id="gov.nasa.jpl.exampleAdaptation.AdaptationGlobals" style="stroke: #A80036; stroke-width: 1.5;" width="189" x="6" y="105.87"/><ellipse cx="21" cy="125.0028" fill="#ADD1B2" rx="11" ry="11" style="stroke: #A80036; stroke-width: 1.0;"/><path d="M23.4731,131.1459 Q22.8921,131.4447 22.2529,131.5941 Q21.6138,131.7435 20.9082,131.7435 Q18.4014,131.7435 17.0815,130.0917 Q15.7617,128.4398 15.7617,125.3187 Q15.7617,122.1893 17.0815,120.5375 Q18.4014,118.8856 20.9082,118.8856 Q21.6138,118.8856 22.2612,119.035 Q22.9087,119.1845 23.4731,119.4833 L23.4731,122.2059 Q22.8423,121.6249 22.2488,121.3551 Q21.6553,121.0853 21.0244,121.0853 Q19.6797,121.0853 18.9949,122.152 Q18.3101,123.2186 18.3101,125.3187 Q18.3101,127.4105 18.9949,128.4772 Q19.6797,129.5438 21.0244,129.5438 Q21.6553,129.5438 22.2488,129.2741 Q22.8423,129.0043 23.4731,128.4232 Z "/><text fill="#000000" font-family="sans-serif" font-size="14" lengthAdjust="spacingAndGlyphs" textLength="127" x="50" y="124.4052">AdaptationGlobals</text><text fill="#000000" font-family="sans-serif" font-size="10" lengthAdjust="spacingAndGlyphs" textLength="157" x="35" y="137.0263">gov.nasa.jpl.exampleAdaptation</text><line style="stroke: #A80036; stroke-width: 1.5;" x1="7" x2="194" y1="144.1356" y2="144.1356"/><ellipse cx="17" cy="155.1356" fill="none" rx="3" ry="3" style="stroke: #038048; stroke-width: 1.0;"/><text fill="#000000" font-family="sans-serif" font-size="11" lengthAdjust="spacingAndGlyphs" text-decoration="underline" textLength="113" x="26" y="158.7704">NumStarTrackers: int</text><ellipse cx="17" cy="168.0907" fill="none" rx="3" ry="3" style="stroke: #038048; stroke-width: 1.0;"/><text fill="#000000" font-family="sans-serif" font-size="11" lengthAdjust="spacingAndGlyphs" text-decoration="underline" textLength="140" x="26" y="171.7255">compressionRatio: double</text><ellipse cx="17" cy="181.0458" fill="none" rx="3" ry="3" style="stroke: #038048; stroke-width: 1.0;"/><text fill="#000000" font-family="sans-serif" font-size="11" lengthAdjust="spacingAndGlyphs" text-decoration="underline" textLength="124" x="26" y="184.6805">LANDING_EPOCH: Time</text></a><!--MD5=[1eb8c507bc794a07bd84d71aada73af0]
class gov.nasa.jpl.engine.ParameterDeclaration--><a href="../engine/ParameterDeclaration.html" target="_top" title="../engine/ParameterDeclaration.html" xlink:actuate="onRequest" xlink:href="../engine/ParameterDeclaration.html" xlink:show="new" xlink:title="../engine/ParameterDeclaration.html" xlink:type="simple"><rect fill="#FEFECE" filter="url(#f188do3lpy2v4a)" height="38.2656" id="gov.nasa.jpl.engine.ParameterDeclaration" style="stroke: #A80036; stroke-width: 1.5;" width="180" x="10.5" y="7.6"/><ellipse cx="25.5" cy="26.7328" fill="#ADD1B2" rx="11" ry="11" style="stroke: #A80036; stroke-width: 1.0;"/><path d="M27.9731,32.8759 Q27.3921,33.1747 26.7529,33.3241 Q26.1138,33.4735 25.4082,33.4735 Q22.9014,33.4735 21.5815,31.8217 Q20.2617,30.1698 20.2617,27.0487 Q20.2617,23.9193 21.5815,22.2675 Q22.9014,20.6156 25.4082,20.6156 Q26.1138,20.6156 26.7612,20.765 Q27.4087,20.9145 27.9731,21.2133 L27.9731,23.9359 Q27.3423,23.3549 26.7488,23.0851 Q26.1553,22.8153 25.5244,22.8153 Q24.1797,22.8153 23.4949,23.882 Q22.8101,24.9486 22.8101,27.0487 Q22.8101,29.1405 23.4949,30.2072 Q24.1797,31.2738 25.5244,31.2738 Q26.1553,31.2738 26.7488,31.0041 Q27.3423,30.7343 27.9731,30.1532 Z "/><text fill="#000000" font-family="sans-serif" font-size="14" lengthAdjust="spacingAndGlyphs" textLength="148" x="39.5" y="26.1352">ParameterDeclaration</text><text fill="#000000" font-family="sans-serif" font-size="10" lengthAdjust="spacingAndGlyphs" textLength="94" x="66.5" y="38.7562">gov.nasa.jpl.engine</text></a><!--MD5=[12c7c59ce6f49d3982a9c412df182f3a]
reverse link gov.nasa.jpl.engine.ParameterDeclaration to gov.nasa.jpl.exampleAdaptation.AdaptationGlobals--><path d="M100.5,67.43 C100.5,79.61 100.5,93.06 100.5,105.39 " fill="none" id="gov.nasa.jpl.engine.ParameterDeclaration&lt;-gov.nasa.jpl.exampleAdaptation.AdaptationGlobals" style="stroke: #A80036; stroke-width: 1.0;"/><polygon fill="none" points="93.5,67.69,100.5,47.69,107.5,67.69,93.5,67.69" style="stroke: #A80036; stroke-width: 1.0;"/><text fill="#888888" font-family="sans-serif" font-size="10" lengthAdjust="spacingAndGlyphs" textLength="182" x="15.5" y="210.668">UMLDoclet 2.0.8, PlantUML 1.2020.01</text><!--MD5=[f7997eb3052fb73015e3ae0f518912f3]
@startuml
    set namespaceSeparator none
    hide empty fields
    hide empty methods

    class "<size:14>AdaptationGlobals\n<size:10>gov.nasa.jpl.exampleAdaptation" as gov.nasa.jpl.exampleAdaptation.AdaptationGlobals [[AdaptationGlobals.html]] {
        {static} +NumStarTrackers: int
        {static} +compressionRatio: double
        {static} +LANDING_EPOCH: Time
    }

    class "<size:14>ParameterDeclaration\n<size:10>gov.nasa.jpl.engine" as gov.nasa.jpl.engine.ParameterDeclaration [[../engine/ParameterDeclaration.html]]

    gov.nasa.jpl.engine.ParameterDeclaration <|- - gov.nasa.jpl.exampleAdaptation.AdaptationGlobals

    center footer UMLDoclet 2.0.8, PlantUML 1.2020.01
@enduml

PlantUML version 1.2020.01(Sun Feb 16 09:40:32 PST 2020)
(APACHE source distribution)
Java Runtime: OpenJDK Runtime Environment
JVM: OpenJDK 64-Bit Server VM
Java Version: 17.0.6+10
Operating System: Mac OS X
Default Encoding: UTF-8
Language: en
Country: US
--></g></svg>