<?xml version="1.0" encoding="UTF-8" standalone="no"?><svg xmlns="http://www.w3.org/2000/svg" xmlns:xlink="http://www.w3.org/1999/xlink" contentScriptType="application/ecmascript" contentStyleType="text/css" height="271px" preserveAspectRatio="none" style="width:358px;height:271px;" version="1.1" viewBox="0 0 358 271" width="358px" zoomAndPan="magnify"><defs><filter height="300%" id="fqt3zhcept7ik" width="300%" x="-1" y="-1"><feGaussianBlur result="blurOut" stdDeviation="2.0"/><feColorMatrix in="blurOut" result="blurOut2" type="matrix" values="0 0 0 0 0 0 0 0 0 0 0 0 0 0 0 0 0 0 .4 0"/><feOffset dx="4.0" dy="4.0" in="blurOut2" result="blurOut3"/><feBlend in="SourceGraphic" in2="blurOut3" mode="normal"/></filter></defs><g><!--MD5=[747e3293aa535316e8be5ba6c422a5b3]
class gov.nasa.jpl.exampleAdaptation.ConstraintScheduleTestAct--><a href="ConstraintScheduleTestAct.html" target="_top" title="ConstraintScheduleTestAct.html" xlink:actuate="onRequest" xlink:href="ConstraintScheduleTestAct.html" xlink:show="new" xlink:title="ConstraintScheduleTestAct.html" xlink:type="simple"><rect fill="#FEFECE" filter="url(#fqt3zhcept7ik)" height="98.0859" id="gov.nasa.jpl.exampleAdaptation.ConstraintScheduleTestAct" style="stroke: #A80036; stroke-width: 1.5;" width="217" x="55.5" y="139.91"/><ellipse cx="70.5" cy="159.0428" fill="#ADD1B2" rx="11" ry="11" style="stroke: #A80036; stroke-width: 1.0;"/><path d="M72.9731,165.1859 Q72.3921,165.4847 71.7529,165.6341 Q71.1138,165.7835 70.4082,165.7835 Q67.9014,165.7835 66.5815,164.1317 Q65.2617,162.4798 65.2617,159.3587 Q65.2617,156.2293 66.5815,154.5775 Q67.9014,152.9256 70.4082,152.9256 Q71.1138,152.9256 71.7612,153.075 Q72.4087,153.2245 72.9731,153.5233 L72.9731,156.2459 Q72.3423,155.6649 71.7488,155.3951 Q71.1553,155.1253 70.5244,155.1253 Q69.1797,155.1253 68.4949,156.192 Q67.8101,157.2586 67.8101,159.3587 Q67.8101,161.4505 68.4949,162.5172 Q69.1797,163.5838 70.5244,163.5838 Q71.1553,163.5838 71.7488,163.3141 Q72.3423,163.0443 72.9731,162.4632 Z "/><text fill="#000000" font-family="sans-serif" font-size="14" lengthAdjust="spacingAndGlyphs" textLength="185" x="84.5" y="158.4452">ConstraintScheduleTestAct</text><text fill="#000000" font-family="sans-serif" font-size="10" lengthAdjust="spacingAndGlyphs" textLength="157" x="98.5" y="171.0663">gov.nasa.jpl.exampleAdaptation</text><line style="stroke: #A80036; stroke-width: 1.5;" x1="56.5" x2="271.5" y1="178.1756" y2="178.1756"/><ellipse cx="66.5" cy="189.1756" fill="#84BE84" rx="3" ry="3" style="stroke: #038048; stroke-width: 1.0;"/><text fill="#000000" font-family="sans-serif" font-size="11" lengthAdjust="spacingAndGlyphs" textLength="180" x="75.5" y="192.8104">ConstraintScheduleTestAct(Time)</text><ellipse cx="66.5" cy="202.1307" fill="#84BE84" rx="3" ry="3" style="stroke: #038048; stroke-width: 1.0;"/><text fill="#000000" font-family="sans-serif" font-size="11" lengthAdjust="spacingAndGlyphs" textLength="136" x="75.5" y="205.7655">setCondition(): Condition</text><ellipse cx="66.5" cy="215.0858" fill="#84BE84" rx="3" ry="3" style="stroke: #038048; stroke-width: 1.0;"/><text fill="#000000" font-family="sans-serif" font-size="11" lengthAdjust="spacingAndGlyphs" textLength="152" x="75.5" y="218.7205">dispatchOnCondition(): void</text><ellipse cx="66.5" cy="228.0409" fill="#84BE84" rx="3" ry="3" style="stroke: #038048; stroke-width: 1.0;"/><text fill="#000000" font-family="sans-serif" font-size="11" lengthAdjust="spacingAndGlyphs" textLength="70" x="75.5" y="231.6756">model(): void</text></a><!--MD5=[9fb577203c08bfd183ae1eb5c832aad4]
class gov.nasa.jpl.activity.Activity--><a href="../activity/Activity.html" target="_top" title="../activity/Activity.html" xlink:actuate="onRequest" xlink:href="../activity/Activity.html" xlink:show="new" xlink:title="../activity/Activity.html" xlink:type="simple"><rect fill="#FEFECE" filter="url(#fqt3zhcept7ik)" height="38.2656" id="gov.nasa.jpl.activity.Activity" style="stroke: #A80036; stroke-width: 1.5;" width="128" x="6" y="24.69"/><ellipse cx="21" cy="43.8228" fill="#ADD1B2" rx="11" ry="11" style="stroke: #A80036; stroke-width: 1.0;"/><path d="M23.4731,49.9659 Q22.8921,50.2647 22.2529,50.4141 Q21.6138,50.5635 20.9082,50.5635 Q18.4014,50.5635 17.0815,48.9117 Q15.7617,47.2598 15.7617,44.1387 Q15.7617,41.0093 17.0815,39.3575 Q18.4014,37.7056 20.9082,37.7056 Q21.6138,37.7056 22.2612,37.855 Q22.9087,38.0045 23.4731,38.3033 L23.4731,41.0259 Q22.8423,40.4449 22.2488,40.1751 Q21.6553,39.9053 21.0244,39.9053 Q19.6797,39.9053 18.9949,40.972 Q18.3101,42.0386 18.3101,44.1387 Q18.3101,46.2305 18.9949,47.2972 Q19.6797,48.3638 21.0244,48.3638 Q21.6553,48.3638 22.2488,48.0941 Q22.8423,47.8243 23.4731,47.2432 Z "/><text fill="#000000" font-family="sans-serif" font-size="14" lengthAdjust="spacingAndGlyphs" textLength="49" x="58.5" y="43.2252">Activity</text><text fill="#000000" font-family="sans-serif" font-size="10" lengthAdjust="spacingAndGlyphs" textLength="96" x="35" y="55.8463">gov.nasa.jpl.activity</text></a><!--MD5=[55c9f49e9224aabdcd5ea9b15cef29f6]
class gov.nasa.jpl.scheduler.Scheduler--><a href="../scheduler/Scheduler.html" target="_top" title="../scheduler/Scheduler.html" xlink:actuate="onRequest" xlink:href="../scheduler/Scheduler.html" xlink:show="new" xlink:title="../scheduler/Scheduler.html" xlink:type="simple"><rect fill="#FEFECE" filter="url(#fqt3zhcept7ik)" height="72.1758" id="gov.nasa.jpl.scheduler.Scheduler" style="stroke: #A80036; stroke-width: 1.5;" width="178" x="169" y="7.74"/><ellipse cx="201.1" cy="26.8728" fill="#B4A7E5" rx="11" ry="11" style="stroke: #A80036; stroke-width: 1.0;"/><path d="M197.5277,23.1379 L197.5277,20.9797 L204.9071,20.9797 L204.9071,23.1379 L202.4418,23.1379 L202.4418,31.2146 L204.9071,31.2146 L204.9071,33.3728 L197.5277,33.3728 L197.5277,31.2146 L199.9931,31.2146 L199.9931,23.1379 Z "/><text fill="#000000" font-family="sans-serif" font-size="14" font-style="italic" lengthAdjust="spacingAndGlyphs" textLength="68" x="238.9" y="26.2752">Scheduler</text><text fill="#000000" font-family="sans-serif" font-size="10" font-style="italic" lengthAdjust="spacingAndGlyphs" textLength="108" x="218.9" y="38.8963">gov.nasa.jpl.scheduler</text><line style="stroke: #A80036; stroke-width: 1.5;" x1="170" x2="346" y1="46.0056" y2="46.0056"/><ellipse cx="180" cy="57.0056" fill="#84BE84" rx="3" ry="3" style="stroke: #038048; stroke-width: 1.0;"/><text fill="#000000" font-family="sans-serif" font-size="11" font-style="italic" lengthAdjust="spacingAndGlyphs" textLength="136" x="189" y="60.6404">setCondition(): Condition</text><ellipse cx="180" cy="69.9607" fill="#84BE84" rx="3" ry="3" style="stroke: #038048; stroke-width: 1.0;"/><text fill="#000000" font-family="sans-serif" font-size="11" font-style="italic" lengthAdjust="spacingAndGlyphs" textLength="152" x="189" y="73.5955">dispatchOnCondition(): void</text></a><!--MD5=[5f2ef2a0479481fe59588ebfb26ee525]
reverse link gov.nasa.jpl.activity.Activity to gov.nasa.jpl.exampleAdaptation.ConstraintScheduleTestAct--><path d="M93.74,80.98 C105.39,98.71 119.59,120.33 132.16,139.48 " fill="none" id="gov.nasa.jpl.activity.Activity&lt;-gov.nasa.jpl.exampleAdaptation.ConstraintScheduleTestAct" style="stroke: #A80036; stroke-width: 1.0;"/><polygon fill="none" points="88.06,85.07,82.93,64.51,99.76,77.38,88.06,85.07" style="stroke: #A80036; stroke-width: 1.0;"/><!--MD5=[c6c501a648d67b8d0c778bf2d251cd61]
reverse link gov.nasa.jpl.scheduler.Scheduler to gov.nasa.jpl.exampleAdaptation.ConstraintScheduleTestAct--><path d="M223.1,97.97 C214.17,111.57 204.6,126.13 195.83,139.49 " fill="none" id="gov.nasa.jpl.scheduler.Scheduler&lt;-gov.nasa.jpl.exampleAdaptation.ConstraintScheduleTestAct" style="stroke: #A80036; stroke-width: 1.0; stroke-dasharray: 7.0,7.0;"/><polygon fill="none" points="217.1,94.35,233.93,81.47,228.81,102.03,217.1,94.35" style="stroke: #A80036; stroke-width: 1.0;"/><text fill="#888888" font-family="sans-serif" font-size="10" lengthAdjust="spacingAndGlyphs" textLength="182" x="91.5" y="257.668">UMLDoclet 2.0.8, PlantUML 1.2020.01</text><!--MD5=[22efab0bb5c9a18d6815dc0a69d43cd7]
@startuml
    set namespaceSeparator none
    hide empty fields
    hide empty methods

    class "<size:14>ConstraintScheduleTestAct\n<size:10>gov.nasa.jpl.exampleAdaptation" as gov.nasa.jpl.exampleAdaptation.ConstraintScheduleTestAct [[ConstraintScheduleTestAct.html]] {
        +ConstraintScheduleTestAct(Time)
        +setCondition(): Condition
        +dispatchOnCondition(): void
        +model(): void
    }

    class "<size:14>Activity\n<size:10>gov.nasa.jpl.activity" as gov.nasa.jpl.activity.Activity [[../activity/Activity.html]]
    interface "<size:14>Scheduler\n<size:10>gov.nasa.jpl.scheduler" as gov.nasa.jpl.scheduler.Scheduler [[../scheduler/Scheduler.html]] {
        {abstract} +setCondition(): Condition
        {abstract} +dispatchOnCondition(): void
    }

    gov.nasa.jpl.activity.Activity <|- - gov.nasa.jpl.exampleAdaptation.ConstraintScheduleTestAct
    gov.nasa.jpl.scheduler.Scheduler <|.. gov.nasa.jpl.exampleAdaptation.ConstraintScheduleTestAct

    center footer UMLDoclet 2.0.8, PlantUML 1.2020.01
@enduml

PlantUML version 1.2020.01(Sun Feb 16 09:40:32 PST 2020)
(APACHE source distribution)
Java Runtime: OpenJDK Runtime Environment
JVM: OpenJDK 64-Bit Server VM
Java Version: 17.0.6+10
Operating System: Mac OS X
Default Encoding: UTF-8
Language: en
Country: US
--></g></svg>