<?xml version="1.0" encoding="UTF-8" standalone="no"?><svg xmlns="http://www.w3.org/2000/svg" xmlns:xlink="http://www.w3.org/1999/xlink" contentScriptType="application/ecmascript" contentStyleType="text/css" height="211px" preserveAspectRatio="none" style="width:279px;height:211px;" version="1.1" viewBox="0 0 279 211" width="279px" zoomAndPan="magnify"><defs><filter height="300%" id="f1mhho3ke3rblk" width="300%" x="-1" y="-1"><feGaussianBlur result="blurOut" stdDeviation="2.0"/><feColorMatrix in="blurOut" result="blurOut2" type="matrix" values="0 0 0 0 0 0 0 0 0 0 0 0 0 0 0 0 0 0 .4 0"/><feOffset dx="4.0" dy="4.0" in="blurOut2" result="blurOut3"/><feBlend in="SourceGraphic" in2="blurOut3" mode="normal"/></filter></defs><g><!--MD5=[c1d05bf35a4c37340cc16b3aa7e2ac05]
class gov.nasa.jpl.exampleAdaptation.ConstraintExamples--><a href="ConstraintExamples.html" target="_top" title="ConstraintExamples.html" xlink:actuate="onRequest" xlink:href="ConstraintExamples.html" xlink:show="new" xlink:title="ConstraintExamples.html" xlink:type="simple"><rect fill="#FEFECE" filter="url(#f1mhho3ke3rblk)" height="72.1758" id="gov.nasa.jpl.exampleAdaptation.ConstraintExamples" style="stroke: #A80036; stroke-width: 1.5;" width="262" x="6" y="105.82"/><ellipse cx="54.25" cy="124.9528" fill="#ADD1B2" rx="11" ry="11" style="stroke: #A80036; stroke-width: 1.0;"/><path d="M56.7231,131.0959 Q56.1421,131.3947 55.5029,131.5441 Q54.8638,131.6935 54.1582,131.6935 Q51.6514,131.6935 50.3315,130.0417 Q49.0117,128.3898 49.0117,125.2687 Q49.0117,122.1393 50.3315,120.4875 Q51.6514,118.8356 54.1582,118.8356 Q54.8638,118.8356 55.5112,118.985 Q56.1587,119.1345 56.7231,119.4333 L56.7231,122.1559 Q56.0923,121.5749 55.4988,121.3051 Q54.9053,121.0353 54.2744,121.0353 Q52.9297,121.0353 52.2449,122.102 Q51.5601,123.1686 51.5601,125.2687 Q51.5601,127.3605 52.2449,128.4272 Q52.9297,129.4938 54.2744,129.4938 Q54.9053,129.4938 55.4988,129.2241 Q56.0923,128.9543 56.7231,128.3732 Z "/><text fill="#000000" font-family="sans-serif" font-size="14" lengthAdjust="spacingAndGlyphs" textLength="138" x="84.25" y="124.3552">ConstraintExamples</text><text fill="#000000" font-family="sans-serif" font-size="10" lengthAdjust="spacingAndGlyphs" textLength="157" x="74.75" y="136.9763">gov.nasa.jpl.exampleAdaptation</text><line style="stroke: #A80036; stroke-width: 1.5;" x1="7" x2="267" y1="144.0856" y2="144.0856"/><ellipse cx="17" cy="155.0856" fill="none" rx="3" ry="3" style="stroke: #038048; stroke-width: 1.0;"/><text fill="#000000" font-family="sans-serif" font-size="11" lengthAdjust="spacingAndGlyphs" text-decoration="underline" textLength="221" x="26" y="158.7204">forbidden: ForbiddenResourceConstraint</text><ellipse cx="17" cy="168.0407" fill="none" rx="3" ry="3" style="stroke: #038048; stroke-width: 1.0;"/><text fill="#000000" font-family="sans-serif" font-size="11" lengthAdjust="spacingAndGlyphs" text-decoration="underline" textLength="236" x="26" y="171.6755">TwoBeforeOne: RequiredPrecederConstraint</text></a><!--MD5=[90216b5edcd6a97906c3bde4c5dac7be]
class gov.nasa.jpl.constraint.ConstraintDeclaration--><a href="../constraint/ConstraintDeclaration.html" target="_top" title="../constraint/ConstraintDeclaration.html" xlink:actuate="onRequest" xlink:href="../constraint/ConstraintDeclaration.html" xlink:show="new" xlink:title="../constraint/ConstraintDeclaration.html" xlink:type="simple"><rect fill="#FEFECE" filter="url(#f1mhho3ke3rblk)" height="38.2656" id="gov.nasa.jpl.constraint.ConstraintDeclaration" style="stroke: #A80036; stroke-width: 1.5;" width="182" x="46" y="7.56"/><ellipse cx="61" cy="26.6928" fill="#ADD1B2" rx="11" ry="11" style="stroke: #A80036; stroke-width: 1.0;"/><path d="M63.4731,32.8359 Q62.8921,33.1347 62.2529,33.2841 Q61.6138,33.4335 60.9082,33.4335 Q58.4014,33.4335 57.0815,31.7817 Q55.7617,30.1298 55.7617,27.0087 Q55.7617,23.8793 57.0815,22.2275 Q58.4014,20.5756 60.9082,20.5756 Q61.6138,20.5756 62.2612,20.725 Q62.9087,20.8745 63.4731,21.1733 L63.4731,23.8959 Q62.8423,23.3149 62.2488,23.0451 Q61.6553,22.7753 61.0244,22.7753 Q59.6797,22.7753 58.9949,23.842 Q58.3101,24.9086 58.3101,27.0087 Q58.3101,29.1005 58.9949,30.1672 Q59.6797,31.2338 61.0244,31.2338 Q61.6553,31.2338 62.2488,30.9641 Q62.8423,30.6943 63.4731,30.1132 Z "/><text fill="#000000" font-family="sans-serif" font-size="14" lengthAdjust="spacingAndGlyphs" textLength="150" x="75" y="26.0952">ConstraintDeclaration</text><text fill="#000000" font-family="sans-serif" font-size="10" lengthAdjust="spacingAndGlyphs" textLength="110" x="95" y="38.7163">gov.nasa.jpl.constraint</text></a><!--MD5=[52f8232952566bb42789673bcde2ae19]
reverse link gov.nasa.jpl.constraint.ConstraintDeclaration to gov.nasa.jpl.exampleAdaptation.ConstraintExamples--><path d="M137,67.27 C137,79.73 137,93.41 137,105.55 " fill="none" id="gov.nasa.jpl.constraint.ConstraintDeclaration&lt;-gov.nasa.jpl.exampleAdaptation.ConstraintExamples" style="stroke: #A80036; stroke-width: 1.0;"/><polygon fill="none" points="130,67.65,137,47.65,144,67.65,130,67.65" style="stroke: #A80036; stroke-width: 1.0;"/><text fill="#888888" font-family="sans-serif" font-size="10" lengthAdjust="spacingAndGlyphs" textLength="182" x="52" y="197.668">UMLDoclet 2.0.8, PlantUML 1.2020.01</text><!--MD5=[5671fe9f2caf95e93be93b260038e41f]
@startuml
    set namespaceSeparator none
    hide empty fields
    hide empty methods

    class "<size:14>ConstraintExamples\n<size:10>gov.nasa.jpl.exampleAdaptation" as gov.nasa.jpl.exampleAdaptation.ConstraintExamples [[ConstraintExamples.html]] {
        {static} +forbidden: ForbiddenResourceConstraint
        {static} +TwoBeforeOne: RequiredPrecederConstraint
    }

    class "<size:14>ConstraintDeclaration\n<size:10>gov.nasa.jpl.constraint" as gov.nasa.jpl.constraint.ConstraintDeclaration [[../constraint/ConstraintDeclaration.html]]

    gov.nasa.jpl.constraint.ConstraintDeclaration <|- - gov.nasa.jpl.exampleAdaptation.ConstraintExamples

    center footer UMLDoclet 2.0.8, PlantUML 1.2020.01
@enduml

PlantUML version 1.2020.01(Sun Feb 16 09:40:32 PST 2020)
(APACHE source distribution)
Java Runtime: OpenJDK Runtime Environment
JVM: OpenJDK 64-Bit Server VM
Java Version: 17.0.6+10
Operating System: Mac OS X
Default Encoding: UTF-8
Language: en
Country: US
--></g></svg>