<?xml version="1.0" encoding="UTF-8" standalone="no"?><svg xmlns="http://www.w3.org/2000/svg" xmlns:xlink="http://www.w3.org/1999/xlink" contentScriptType="application/ecmascript" contentStyleType="text/css" height="258px" preserveAspectRatio="none" style="width:358px;height:258px;" version="1.1" viewBox="0 0 358 258" width="358px" zoomAndPan="magnify"><defs><filter height="300%" id="fvr970yuk69ic" width="300%" x="-1" y="-1"><feGaussianBlur result="blurOut" stdDeviation="2.0"/><feColorMatrix in="blurOut" result="blurOut2" type="matrix" values="0 0 0 0 0 0 0 0 0 0 0 0 0 0 0 0 0 0 .4 0"/><feOffset dx="4.0" dy="4.0" in="blurOut2" result="blurOut3"/><feBlend in="SourceGraphic" in2="blurOut3" mode="normal"/></filter></defs><g><!--MD5=[54c0c67a28100a4c94021841da749588]
class gov.nasa.jpl.exampleAdaptation.ExampleScheduler--><a href="ExampleScheduler.html" target="_top" title="ExampleScheduler.html" xlink:actuate="onRequest" xlink:href="ExampleScheduler.html" xlink:show="new" xlink:title="ExampleScheduler.html" xlink:type="simple"><rect fill="#FEFECE" filter="url(#fvr970yuk69ic)" height="85.1309" id="gov.nasa.jpl.exampleAdaptation.ExampleScheduler" style="stroke: #A80036; stroke-width: 1.5;" width="189" x="69.5" y="139.87"/><ellipse cx="84.5" cy="159.0028" fill="#ADD1B2" rx="11" ry="11" style="stroke: #A80036; stroke-width: 1.0;"/><path d="M86.9731,165.1459 Q86.3921,165.4447 85.7529,165.5941 Q85.1138,165.7435 84.4082,165.7435 Q81.9014,165.7435 80.5815,164.0917 Q79.2617,162.4398 79.2617,159.3187 Q79.2617,156.1893 80.5815,154.5375 Q81.9014,152.8856 84.4082,152.8856 Q85.1138,152.8856 85.7612,153.035 Q86.4087,153.1845 86.9731,153.4833 L86.9731,156.2059 Q86.3423,155.6249 85.7488,155.3551 Q85.1553,155.0853 84.5244,155.0853 Q83.1797,155.0853 82.4949,156.152 Q81.8101,157.2186 81.8101,159.3187 Q81.8101,161.4105 82.4949,162.4772 Q83.1797,163.5438 84.5244,163.5438 Q85.1553,163.5438 85.7488,163.2741 Q86.3423,163.0043 86.9731,162.4232 Z "/><text fill="#000000" font-family="sans-serif" font-size="14" lengthAdjust="spacingAndGlyphs" textLength="127" x="113.5" y="158.4052">ExampleScheduler</text><text fill="#000000" font-family="sans-serif" font-size="10" lengthAdjust="spacingAndGlyphs" textLength="157" x="98.5" y="171.0263">gov.nasa.jpl.exampleAdaptation</text><line style="stroke: #A80036; stroke-width: 1.5;" x1="70.5" x2="257.5" y1="178.1356" y2="178.1356"/><ellipse cx="80.5" cy="189.1356" fill="#84BE84" rx="3" ry="3" style="stroke: #038048; stroke-width: 1.0;"/><text fill="#000000" font-family="sans-serif" font-size="11" lengthAdjust="spacingAndGlyphs" textLength="132" x="89.5" y="192.7704">ExampleScheduler(Time)</text><ellipse cx="80.5" cy="202.0907" fill="#84BE84" rx="3" ry="3" style="stroke: #038048; stroke-width: 1.0;"/><text fill="#000000" font-family="sans-serif" font-size="11" lengthAdjust="spacingAndGlyphs" textLength="136" x="89.5" y="205.7255">setCondition(): Condition</text><ellipse cx="80.5" cy="215.0458" fill="#84BE84" rx="3" ry="3" style="stroke: #038048; stroke-width: 1.0;"/><text fill="#000000" font-family="sans-serif" font-size="11" lengthAdjust="spacingAndGlyphs" textLength="152" x="89.5" y="218.6805">dispatchOnCondition(): void</text></a><!--MD5=[9fb577203c08bfd183ae1eb5c832aad4]
class gov.nasa.jpl.activity.Activity--><a href="../activity/Activity.html" target="_top" title="../activity/Activity.html" xlink:actuate="onRequest" xlink:href="../activity/Activity.html" xlink:show="new" xlink:title="../activity/Activity.html" xlink:type="simple"><rect fill="#FEFECE" filter="url(#fvr970yuk69ic)" height="38.2656" id="gov.nasa.jpl.activity.Activity" style="stroke: #A80036; stroke-width: 1.5;" width="128" x="6" y="24.65"/><ellipse cx="21" cy="43.7828" fill="#ADD1B2" rx="11" ry="11" style="stroke: #A80036; stroke-width: 1.0;"/><path d="M23.4731,49.9259 Q22.8921,50.2247 22.2529,50.3741 Q21.6138,50.5235 20.9082,50.5235 Q18.4014,50.5235 17.0815,48.8717 Q15.7617,47.2198 15.7617,44.0987 Q15.7617,40.9693 17.0815,39.3175 Q18.4014,37.6656 20.9082,37.6656 Q21.6138,37.6656 22.2612,37.815 Q22.9087,37.9645 23.4731,38.2633 L23.4731,40.9859 Q22.8423,40.4049 22.2488,40.1351 Q21.6553,39.8653 21.0244,39.8653 Q19.6797,39.8653 18.9949,40.932 Q18.3101,41.9986 18.3101,44.0987 Q18.3101,46.1905 18.9949,47.2572 Q19.6797,48.3238 21.0244,48.3238 Q21.6553,48.3238 22.2488,48.0541 Q22.8423,47.7843 23.4731,47.2032 Z "/><text fill="#000000" font-family="sans-serif" font-size="14" lengthAdjust="spacingAndGlyphs" textLength="49" x="58.5" y="43.1852">Activity</text><text fill="#000000" font-family="sans-serif" font-size="10" lengthAdjust="spacingAndGlyphs" textLength="96" x="35" y="55.8063">gov.nasa.jpl.activity</text></a><!--MD5=[55c9f49e9224aabdcd5ea9b15cef29f6]
class gov.nasa.jpl.scheduler.Scheduler--><a href="../scheduler/Scheduler.html" target="_top" title="../scheduler/Scheduler.html" xlink:actuate="onRequest" xlink:href="../scheduler/Scheduler.html" xlink:show="new" xlink:title="../scheduler/Scheduler.html" xlink:type="simple"><rect fill="#FEFECE" filter="url(#fvr970yuk69ic)" height="72.1758" id="gov.nasa.jpl.scheduler.Scheduler" style="stroke: #A80036; stroke-width: 1.5;" width="178" x="169" y="7.69"/><ellipse cx="201.1" cy="26.8228" fill="#B4A7E5" rx="11" ry="11" style="stroke: #A80036; stroke-width: 1.0;"/><path d="M197.5277,23.0879 L197.5277,20.9297 L204.9071,20.9297 L204.9071,23.0879 L202.4418,23.0879 L202.4418,31.1646 L204.9071,31.1646 L204.9071,33.3228 L197.5277,33.3228 L197.5277,31.1646 L199.9931,31.1646 L199.9931,23.0879 Z "/><text fill="#000000" font-family="sans-serif" font-size="14" font-style="italic" lengthAdjust="spacingAndGlyphs" textLength="68" x="238.9" y="26.2252">Scheduler</text><text fill="#000000" font-family="sans-serif" font-size="10" font-style="italic" lengthAdjust="spacingAndGlyphs" textLength="108" x="218.9" y="38.8463">gov.nasa.jpl.scheduler</text><line style="stroke: #A80036; stroke-width: 1.5;" x1="170" x2="346" y1="45.9556" y2="45.9556"/><ellipse cx="180" cy="56.9556" fill="#84BE84" rx="3" ry="3" style="stroke: #038048; stroke-width: 1.0;"/><text fill="#000000" font-family="sans-serif" font-size="11" font-style="italic" lengthAdjust="spacingAndGlyphs" textLength="136" x="189" y="60.5904">setCondition(): Condition</text><ellipse cx="180" cy="69.9107" fill="#84BE84" rx="3" ry="3" style="stroke: #038048; stroke-width: 1.0;"/><text fill="#000000" font-family="sans-serif" font-size="11" font-style="italic" lengthAdjust="spacingAndGlyphs" textLength="152" x="189" y="73.5455">dispatchOnCondition(): void</text></a><!--MD5=[3a1981bcc239db1aa02f7d0a156ef222]
reverse link gov.nasa.jpl.activity.Activity to gov.nasa.jpl.exampleAdaptation.ExampleScheduler--><path d="M94.84,80.89 C107.22,98.89 122.26,120.75 135.15,139.49 " fill="none" id="gov.nasa.jpl.activity.Activity&lt;-gov.nasa.jpl.exampleAdaptation.ExampleScheduler" style="stroke: #A80036; stroke-width: 1.0;"/><polygon fill="none" points="89.1,84.9,83.54,64.46,100.64,76.97,89.1,84.9" style="stroke: #A80036; stroke-width: 1.0;"/><!--MD5=[1e78a977e82a971f09066d9c19ad05b2]
reverse link gov.nasa.jpl.scheduler.Scheduler to gov.nasa.jpl.exampleAdaptation.ExampleScheduler--><path d="M221.48,97.88 C211.92,111.77 201.75,126.55 192.67,139.76 " fill="none" id="gov.nasa.jpl.scheduler.Scheduler&lt;-gov.nasa.jpl.exampleAdaptation.ExampleScheduler" style="stroke: #A80036; stroke-width: 1.0; stroke-dasharray: 7.0,7.0;"/><polygon fill="none" points="215.59,94.09,232.69,81.58,227.12,102.02,215.59,94.09" style="stroke: #A80036; stroke-width: 1.0;"/><text fill="#888888" font-family="sans-serif" font-size="10" lengthAdjust="spacingAndGlyphs" textLength="182" x="91.5" y="244.668">UMLDoclet 2.0.8, PlantUML 1.2020.01</text><!--MD5=[ae36205ece4b28962e68b33bad649583]
@startuml
    set namespaceSeparator none
    hide empty fields
    hide empty methods

    class "<size:14>ExampleScheduler\n<size:10>gov.nasa.jpl.exampleAdaptation" as gov.nasa.jpl.exampleAdaptation.ExampleScheduler [[ExampleScheduler.html]] {
        +ExampleScheduler(Time)
        +setCondition(): Condition
        +dispatchOnCondition(): void
    }

    class "<size:14>Activity\n<size:10>gov.nasa.jpl.activity" as gov.nasa.jpl.activity.Activity [[../activity/Activity.html]]
    interface "<size:14>Scheduler\n<size:10>gov.nasa.jpl.scheduler" as gov.nasa.jpl.scheduler.Scheduler [[../scheduler/Scheduler.html]] {
        {abstract} +setCondition(): Condition
        {abstract} +dispatchOnCondition(): void
    }

    gov.nasa.jpl.activity.Activity <|- - gov.nasa.jpl.exampleAdaptation.ExampleScheduler
    gov.nasa.jpl.scheduler.Scheduler <|.. gov.nasa.jpl.exampleAdaptation.ExampleScheduler

    center footer UMLDoclet 2.0.8, PlantUML 1.2020.01
@enduml

PlantUML version 1.2020.01(Sun Feb 16 09:40:32 PST 2020)
(APACHE source distribution)
Java Runtime: OpenJDK Runtime Environment
JVM: OpenJDK 64-Bit Server VM
Java Version: 17.0.6+10
Operating System: Mac OS X
Default Encoding: UTF-8
Language: en
Country: US
--></g></svg>