<?xml version="1.0" encoding="UTF-8" standalone="no"?><svg xmlns="http://www.w3.org/2000/svg" xmlns:xlink="http://www.w3.org/1999/xlink" contentScriptType="application/ecmascript" contentStyleType="text/css" height="245px" preserveAspectRatio="none" style="width:294px;height:245px;" version="1.1" viewBox="0 0 294 245" width="294px" zoomAndPan="magnify"><defs><filter height="300%" id="f1wq20tn5m9h5u" width="300%" x="-1" y="-1"><feGaussianBlur result="blurOut" stdDeviation="2.0"/><feColorMatrix in="blurOut" result="blurOut2" type="matrix" values="0 0 0 0 0 0 0 0 0 0 0 0 0 0 0 0 0 0 .4 0"/><feOffset dx="4.0" dy="4.0" in="blurOut2" result="blurOut3"/><feBlend in="SourceGraphic" in2="blurOut3" mode="normal"/></filter></defs><g><!--MD5=[ab7709123ffbcc7c27f4464f0310adb1]
class gov.nasa.jpl.exampleAdaptation.ExampleCustomResource--><a href="ExampleCustomResource.html" target="_top" title="ExampleCustomResource.html" xlink:actuate="onRequest" xlink:href="ExampleCustomResource.html" xlink:show="new" xlink:title="ExampleCustomResource.html" xlink:type="simple"><rect fill="#FEFECE" filter="url(#f1wq20tn5m9h5u)" height="85.1309" id="gov.nasa.jpl.exampleAdaptation.ExampleCustomResource" style="stroke: #A80036; stroke-width: 1.5;" width="277" x="6" y="126.87"/><ellipse cx="52.75" cy="146.0028" fill="#ADD1B2" rx="11" ry="11" style="stroke: #A80036; stroke-width: 1.0;"/><path d="M55.2231,152.1459 Q54.6421,152.4447 54.0029,152.5941 Q53.3638,152.7435 52.6582,152.7435 Q50.1514,152.7435 48.8315,151.0917 Q47.5117,149.4398 47.5117,146.3187 Q47.5117,143.1893 48.8315,141.5375 Q50.1514,139.8856 52.6582,139.8856 Q53.3638,139.8856 54.0112,140.035 Q54.6587,140.1845 55.2231,140.4833 L55.2231,143.2059 Q54.5923,142.6249 53.9988,142.3551 Q53.4053,142.0853 52.7744,142.0853 Q51.4297,142.0853 50.7449,143.152 Q50.0601,144.2186 50.0601,146.3187 Q50.0601,148.4105 50.7449,149.4772 Q51.4297,150.5438 52.7744,150.5438 Q53.4053,150.5438 53.9988,150.2741 Q54.5923,150.0043 55.2231,149.4232 Z "/><text fill="#000000" font-family="sans-serif" font-size="14" lengthAdjust="spacingAndGlyphs" textLength="175" x="73.25" y="145.4052">ExampleCustomResource</text><text fill="#000000" font-family="sans-serif" font-size="10" lengthAdjust="spacingAndGlyphs" textLength="157" x="82.25" y="158.0263">gov.nasa.jpl.exampleAdaptation</text><line style="stroke: #A80036; stroke-width: 1.5;" x1="7" x2="282" y1="165.1356" y2="165.1356"/><ellipse cx="17" cy="176.1356" fill="#84BE84" rx="3" ry="3" style="stroke: #038048; stroke-width: 1.0;"/><text fill="#000000" font-family="sans-serif" font-size="11" lengthAdjust="spacingAndGlyphs" textLength="251" x="26" y="179.7704">ExampleCustomResource(Resource, Resource)</text><ellipse cx="17" cy="189.0907" fill="#84BE84" rx="3" ry="3" style="stroke: #038048; stroke-width: 1.0;"/><text fill="#000000" font-family="sans-serif" font-size="11" lengthAdjust="spacingAndGlyphs" textLength="113" x="26" y="192.7255">profile(Time): Double</text><ellipse cx="17" cy="202.0458" fill="#84BE84" rx="3" ry="3" style="stroke: #038048; stroke-width: 1.0;"/><text fill="#000000" font-family="sans-serif" font-size="11" lengthAdjust="spacingAndGlyphs" textLength="74" x="26" y="205.6805">update(): void</text></a><!--MD5=[b18a17eef09647c609c16abbc0db11ab]
class gov.nasa.jpl.resource.Resource--><a href="../resource/Resource.html" target="_top" title="../resource/Resource.html" xlink:actuate="onRequest" xlink:href="../resource/Resource.html" xlink:show="new" xlink:title="../resource/Resource.html" xlink:type="simple"><rect fill="#FEFECE" filter="url(#f1wq20tn5m9h5u)" height="59.2207" id="gov.nasa.jpl.resource.Resource" style="stroke: #A80036; stroke-width: 1.5;" width="180" x="54.5" y="7.65"/><ellipse cx="69.5" cy="26.7828" fill="#A9DCDF" rx="11" ry="11" style="stroke: #A80036; stroke-width: 1.0;"/><path d="M69.3633,22.131 L68.2095,27.2027 L70.5254,27.2027 Z M67.8691,19.8897 L70.8657,19.8897 L74.2109,32.2828 L71.7622,32.2828 L70.9985,29.2198 L67.7197,29.2198 L66.9727,32.2828 L64.5239,32.2828 Z "/><text fill="#000000" font-family="sans-serif" font-size="14" font-style="italic" lengthAdjust="spacingAndGlyphs" textLength="63" x="103.5" y="26.1852">Resource</text><text fill="#000000" font-family="sans-serif" font-size="10" font-style="italic" lengthAdjust="spacingAndGlyphs" textLength="103" x="83.5" y="38.8063">gov.nasa.jpl.resource</text><rect fill="#FFFFFF" height="16.1328" style="stroke: #000000; stroke-width: 1.0; stroke-dasharray: 2.0,2.0;" width="43" x="194.5" y="4.65"/><text fill="#000000" font-family="sans-serif" font-size="12" font-style="italic" lengthAdjust="spacingAndGlyphs" textLength="41" x="195.5" y="17.2516">Double</text><line style="stroke: #A80036; stroke-width: 1.5;" x1="55.5" x2="233.5" y1="45.9156" y2="45.9156"/><ellipse cx="65.5" cy="56.9156" fill="#84BE84" rx="3" ry="3" style="stroke: #038048; stroke-width: 1.0;"/><text fill="#000000" font-family="sans-serif" font-size="11" font-style="italic" lengthAdjust="spacingAndGlyphs" textLength="113" x="74.5" y="60.5504">profile(Time): Double</text></a><!--MD5=[f4f49e7de61d99dc4e3afeb175a8d4b5]
reverse link gov.nasa.jpl.resource.Resource to gov.nasa.jpl.exampleAdaptation.ExampleCustomResource--><path d="M144.5,88.59 C144.5,101.22 144.5,114.63 144.5,126.78 " fill="none" id="gov.nasa.jpl.resource.Resource&lt;-gov.nasa.jpl.exampleAdaptation.ExampleCustomResource" style="stroke: #A80036; stroke-width: 1.0;"/><polygon fill="none" points="137.5,88.66,144.5,68.66,151.5,88.66,137.5,88.66" style="stroke: #A80036; stroke-width: 1.0;"/><text fill="#888888" font-family="sans-serif" font-size="10" lengthAdjust="spacingAndGlyphs" textLength="182" x="59.5" y="231.668">UMLDoclet 2.0.8, PlantUML 1.2020.01</text><!--MD5=[cf7da2d86a75c8d67bdbdc75c8a84e5d]
@startuml
    set namespaceSeparator none
    hide empty fields
    hide empty methods

    class "<size:14>ExampleCustomResource\n<size:10>gov.nasa.jpl.exampleAdaptation" as gov.nasa.jpl.exampleAdaptation.ExampleCustomResource [[ExampleCustomResource.html]] {
        +ExampleCustomResource(Resource, Resource)
        +profile(Time): Double
        +update(): void
    }

    abstract class "<size:14>Resource\n<size:10>gov.nasa.jpl.resource" as gov.nasa.jpl.resource.Resource<Double> [[../resource/Resource.html]] {
        {abstract} +profile(Time): Double
    }

    gov.nasa.jpl.resource.Resource <|- - gov.nasa.jpl.exampleAdaptation.ExampleCustomResource

    center footer UMLDoclet 2.0.8, PlantUML 1.2020.01
@enduml

PlantUML version 1.2020.01(Sun Feb 16 09:40:32 PST 2020)
(APACHE source distribution)
Java Runtime: OpenJDK Runtime Environment
JVM: OpenJDK 64-Bit Server VM
Java Version: 17.0.6+10
Operating System: Mac OS X
Default Encoding: UTF-8
Language: en
Country: US
--></g></svg>