<?xml version="1.0" encoding="UTF-8" standalone="no"?><svg xmlns="http://www.w3.org/2000/svg" xmlns:xlink="http://www.w3.org/1999/xlink" contentScriptType="application/ecmascript" contentStyleType="text/css" height="211px" preserveAspectRatio="none" style="width:209px;height:211px;" version="1.1" viewBox="0 0 209 211" width="209px" zoomAndPan="magnify"><defs><filter height="300%" id="fhvujzpa1tfdm" width="300%" x="-1" y="-1"><feGaussianBlur result="blurOut" stdDeviation="2.0"/><feColorMatrix in="blurOut" result="blurOut2" type="matrix" values="0 0 0 0 0 0 0 0 0 0 0 0 0 0 0 0 0 0 .4 0"/><feOffset dx="4.0" dy="4.0" in="blurOut2" result="blurOut3"/><feBlend in="SourceGraphic" in2="blurOut3" mode="normal"/></filter></defs><g><!--MD5=[5304fdbe287fa21f892767ac626a3559]
class gov.nasa.jpl.exampleAdaptation.GetWindowsActivity--><a href="GetWindowsActivity.html" target="_top" title="GetWindowsActivity.html" xlink:actuate="onRequest" xlink:href="GetWindowsActivity.html" xlink:show="new" xlink:title="GetWindowsActivity.html" xlink:type="simple"><rect fill="#FEFECE" filter="url(#fhvujzpa1tfdm)" height="72.1758" id="gov.nasa.jpl.exampleAdaptation.GetWindowsActivity" style="stroke: #A80036; stroke-width: 1.5;" width="189" x="6" y="105.82"/><ellipse cx="21" cy="124.9528" fill="#ADD1B2" rx="11" ry="11" style="stroke: #A80036; stroke-width: 1.0;"/><path d="M23.4731,131.0959 Q22.8921,131.3947 22.2529,131.5441 Q21.6138,131.6935 20.9082,131.6935 Q18.4014,131.6935 17.0815,130.0417 Q15.7617,128.3898 15.7617,125.2687 Q15.7617,122.1393 17.0815,120.4875 Q18.4014,118.8356 20.9082,118.8356 Q21.6138,118.8356 22.2612,118.985 Q22.9087,119.1345 23.4731,119.4333 L23.4731,122.1559 Q22.8423,121.5749 22.2488,121.3051 Q21.6553,121.0353 21.0244,121.0353 Q19.6797,121.0353 18.9949,122.102 Q18.3101,123.1686 18.3101,125.2687 Q18.3101,127.3605 18.9949,128.4272 Q19.6797,129.4938 21.0244,129.4938 Q21.6553,129.4938 22.2488,129.2241 Q22.8423,128.9543 23.4731,128.3732 Z "/><text fill="#000000" font-family="sans-serif" font-size="14" lengthAdjust="spacingAndGlyphs" textLength="133" x="47" y="124.3552">GetWindowsActivity</text><text fill="#000000" font-family="sans-serif" font-size="10" lengthAdjust="spacingAndGlyphs" textLength="157" x="35" y="136.9763">gov.nasa.jpl.exampleAdaptation</text><line style="stroke: #A80036; stroke-width: 1.5;" x1="7" x2="194" y1="144.0856" y2="144.0856"/><ellipse cx="17" cy="155.0856" fill="#84BE84" rx="3" ry="3" style="stroke: #038048; stroke-width: 1.0;"/><text fill="#000000" font-family="sans-serif" font-size="11" lengthAdjust="spacingAndGlyphs" textLength="139" x="26" y="158.7204">GetWindowsActivity(Time)</text><ellipse cx="17" cy="168.0407" fill="#84BE84" rx="3" ry="3" style="stroke: #038048; stroke-width: 1.0;"/><text fill="#000000" font-family="sans-serif" font-size="11" lengthAdjust="spacingAndGlyphs" textLength="99" x="26" y="171.6755">decompose(): void</text></a><!--MD5=[9fb577203c08bfd183ae1eb5c832aad4]
class gov.nasa.jpl.activity.Activity--><a href="../activity/Activity.html" target="_top" title="../activity/Activity.html" xlink:actuate="onRequest" xlink:href="../activity/Activity.html" xlink:show="new" xlink:title="../activity/Activity.html" xlink:type="simple"><rect fill="#FEFECE" filter="url(#fhvujzpa1tfdm)" height="38.2656" id="gov.nasa.jpl.activity.Activity" style="stroke: #A80036; stroke-width: 1.5;" width="128" x="36.5" y="7.56"/><ellipse cx="51.5" cy="26.6928" fill="#ADD1B2" rx="11" ry="11" style="stroke: #A80036; stroke-width: 1.0;"/><path d="M53.9731,32.8359 Q53.3921,33.1347 52.7529,33.2841 Q52.1138,33.4335 51.4082,33.4335 Q48.9014,33.4335 47.5815,31.7817 Q46.2617,30.1298 46.2617,27.0087 Q46.2617,23.8793 47.5815,22.2275 Q48.9014,20.5756 51.4082,20.5756 Q52.1138,20.5756 52.7612,20.725 Q53.4087,20.8745 53.9731,21.1733 L53.9731,23.8959 Q53.3423,23.3149 52.7488,23.0451 Q52.1553,22.7753 51.5244,22.7753 Q50.1797,22.7753 49.4949,23.842 Q48.8101,24.9086 48.8101,27.0087 Q48.8101,29.1005 49.4949,30.1672 Q50.1797,31.2338 51.5244,31.2338 Q52.1553,31.2338 52.7488,30.9641 Q53.3423,30.6943 53.9731,30.1132 Z "/><text fill="#000000" font-family="sans-serif" font-size="14" lengthAdjust="spacingAndGlyphs" textLength="49" x="89" y="26.0952">Activity</text><text fill="#000000" font-family="sans-serif" font-size="10" lengthAdjust="spacingAndGlyphs" textLength="96" x="65.5" y="38.7163">gov.nasa.jpl.activity</text></a><!--MD5=[1de7ed157c78be68db6ef4c9d567159a]
reverse link gov.nasa.jpl.activity.Activity to gov.nasa.jpl.exampleAdaptation.GetWindowsActivity--><path d="M100.5,67.27 C100.5,79.73 100.5,93.41 100.5,105.55 " fill="none" id="gov.nasa.jpl.activity.Activity&lt;-gov.nasa.jpl.exampleAdaptation.GetWindowsActivity" style="stroke: #A80036; stroke-width: 1.0;"/><polygon fill="none" points="93.5,67.65,100.5,47.65,107.5,67.65,93.5,67.65" style="stroke: #A80036; stroke-width: 1.0;"/><text fill="#888888" font-family="sans-serif" font-size="10" lengthAdjust="spacingAndGlyphs" textLength="182" x="15.5" y="197.668">UMLDoclet 2.0.8, PlantUML 1.2020.01</text><!--MD5=[732221e2a673a1069c571c615d009c96]
@startuml
    set namespaceSeparator none
    hide empty fields
    hide empty methods

    class "<size:14>GetWindowsActivity\n<size:10>gov.nasa.jpl.exampleAdaptation" as gov.nasa.jpl.exampleAdaptation.GetWindowsActivity [[GetWindowsActivity.html]] {
        +GetWindowsActivity(Time)
        +decompose(): void
    }

    class "<size:14>Activity\n<size:10>gov.nasa.jpl.activity" as gov.nasa.jpl.activity.Activity [[../activity/Activity.html]]

    gov.nasa.jpl.activity.Activity <|- - gov.nasa.jpl.exampleAdaptation.GetWindowsActivity

    center footer UMLDoclet 2.0.8, PlantUML 1.2020.01
@enduml

PlantUML version 1.2020.01(Sun Feb 16 09:40:32 PST 2020)
(APACHE source distribution)
Java Runtime: OpenJDK Runtime Environment
JVM: OpenJDK 64-Bit Server VM
Java Version: 17.0.6+10
Operating System: Mac OS X
Default Encoding: UTF-8
Language: en
Country: US
--></g></svg>