<?xml version="1.0" encoding="UTF-8" standalone="no"?><svg xmlns="http://www.w3.org/2000/svg" xmlns:xlink="http://www.w3.org/1999/xlink" contentScriptType="application/ecmascript" contentStyleType="text/css" height="406px" preserveAspectRatio="none" style="width:456px;height:406px;" version="1.1" viewBox="0 0 456 406" width="456px" zoomAndPan="magnify"><defs><filter height="300%" id="f1tu8mzz6nja1y" width="300%" x="-1" y="-1"><feGaussianBlur result="blurOut" stdDeviation="2.0"/><feColorMatrix in="blurOut" result="blurOut2" type="matrix" values="0 0 0 0 0 0 0 0 0 0 0 0 0 0 0 0 0 0 .4 0"/><feOffset dx="4.0" dy="4.0" in="blurOut2" result="blurOut3"/><feBlend in="SourceGraphic" in2="blurOut3" mode="normal"/></filter></defs><g><!--MD5=[eba3979856c8904ba8d20d25030831ad]
class gov.nasa.jpl.exampleAdaptation.Res--><a href="Res.html" target="_top" title="Res.html" xlink:actuate="onRequest" xlink:href="Res.html" xlink:show="new" xlink:title="Res.html" xlink:type="simple"><rect fill="#FEFECE" filter="url(#f1tu8mzz6nja1y)" height="266.502" id="gov.nasa.jpl.exampleAdaptation.Res" style="stroke: #A80036; stroke-width: 1.5;" width="439" x="6" y="106.5"/><ellipse cx="142.75" cy="125.6328" fill="#ADD1B2" rx="11" ry="11" style="stroke: #A80036; stroke-width: 1.0;"/><path d="M145.2231,131.7759 Q144.6421,132.0747 144.0029,132.2241 Q143.3638,132.3735 142.6582,132.3735 Q140.1514,132.3735 138.8315,130.7217 Q137.5117,129.0698 137.5117,125.9487 Q137.5117,122.8193 138.8315,121.1675 Q140.1514,119.5156 142.6582,119.5156 Q143.3638,119.5156 144.0112,119.665 Q144.6587,119.8145 145.2231,120.1133 L145.2231,122.8359 Q144.5923,122.2549 143.9988,121.9851 Q143.4053,121.7153 142.7744,121.7153 Q141.4297,121.7153 140.7449,122.782 Q140.0601,123.8486 140.0601,125.9487 Q140.0601,128.0405 140.7449,129.1072 Q141.4297,130.1738 142.7744,130.1738 Q143.4053,130.1738 143.9988,129.9041 Q144.5923,129.6343 145.2231,129.0532 Z "/><text fill="#000000" font-family="sans-serif" font-size="14" lengthAdjust="spacingAndGlyphs" textLength="24" x="229.75" y="125.0352">Res</text><text fill="#000000" font-family="sans-serif" font-size="10" lengthAdjust="spacingAndGlyphs" textLength="157" x="163.25" y="137.6563">gov.nasa.jpl.exampleAdaptation</text><line style="stroke: #A80036; stroke-width: 1.5;" x1="7" x2="444" y1="144.7656" y2="144.7656"/><ellipse cx="17" cy="155.7656" fill="none" rx="3" ry="3" style="stroke: #038048; stroke-width: 1.0;"/><text fill="#000000" font-family="sans-serif" font-size="11" lengthAdjust="spacingAndGlyphs" text-decoration="underline" textLength="124" x="26" y="159.4004">celestialBodies: String[]</text><ellipse cx="17" cy="168.7207" fill="none" rx="3" ry="3" style="stroke: #038048; stroke-width: 1.0;"/><text fill="#000000" font-family="sans-serif" font-size="11" lengthAdjust="spacingAndGlyphs" text-decoration="underline" textLength="149" x="26" y="172.3555">vectorComponents: String[]</text><ellipse cx="17" cy="181.6758" fill="none" rx="3" ry="3" style="stroke: #038048; stroke-width: 1.0;"/><text fill="#000000" font-family="sans-serif" font-size="11" lengthAdjust="spacingAndGlyphs" text-decoration="underline" textLength="152" x="26" y="185.3105">ResourceA: DoubleResource</text><ellipse cx="17" cy="194.6309" fill="none" rx="3" ry="3" style="stroke: #038048; stroke-width: 1.0;"/><text fill="#000000" font-family="sans-serif" font-size="11" lengthAdjust="spacingAndGlyphs" text-decoration="underline" textLength="150" x="26" y="198.2656">ResourceB: IntegerResource</text><ellipse cx="17" cy="207.5859" fill="none" rx="3" ry="3" style="stroke: #038048; stroke-width: 1.0;"/><text fill="#000000" font-family="sans-serif" font-size="11" lengthAdjust="spacingAndGlyphs" text-decoration="underline" textLength="72" x="26" y="211.2207">dur: Duration</text><ellipse cx="17" cy="220.541" fill="none" rx="3" ry="3" style="stroke: #038048; stroke-width: 1.0;"/><text fill="#000000" font-family="sans-serif" font-size="11" lengthAdjust="spacingAndGlyphs" text-decoration="underline" textLength="161" x="26" y="224.1758">ResourceC: DurationResource</text><ellipse cx="17" cy="233.4961" fill="none" rx="3" ry="3" style="stroke: #038048; stroke-width: 1.0;"/><text fill="#000000" font-family="sans-serif" font-size="11" lengthAdjust="spacingAndGlyphs" text-decoration="underline" textLength="283" x="26" y="237.1309">PositionVector: ArrayedResource&lt;DoubleResource&gt;</text><ellipse cx="17" cy="246.4512" fill="none" rx="3" ry="3" style="stroke: #038048; stroke-width: 1.0;"/><text fill="#000000" font-family="sans-serif" font-size="11" lengthAdjust="spacingAndGlyphs" text-decoration="underline" textLength="413" x="26" y="250.0859">ExampleBodyState: ArrayedResource&lt;ArrayedResource&lt;DoubleResource&gt;&gt;</text><ellipse cx="17" cy="259.4063" fill="none" rx="3" ry="3" style="stroke: #038048; stroke-width: 1.0;"/><text fill="#000000" font-family="sans-serif" font-size="11" lengthAdjust="spacingAndGlyphs" text-decoration="underline" textLength="341" x="26" y="263.041">ResourceWithSpacesInBin: ArrayedResource&lt;DoubleResource&gt;</text><ellipse cx="17" cy="272.3613" fill="none" rx="3" ry="3" style="stroke: #038048; stroke-width: 1.0;"/><text fill="#000000" font-family="sans-serif" font-size="11" lengthAdjust="spacingAndGlyphs" text-decoration="underline" textLength="177" x="26" y="275.9961">IntegratesA: IntegratingResource</text><ellipse cx="17" cy="285.3164" fill="none" rx="3" ry="3" style="stroke: #038048; stroke-width: 1.0;"/><text fill="#000000" font-family="sans-serif" font-size="11" lengthAdjust="spacingAndGlyphs" text-decoration="underline" textLength="323" x="26" y="288.9512">IntegratesPosition: ArrayedResource&lt;IntegratingResource&gt;</text><ellipse cx="17" cy="298.2715" fill="none" rx="3" ry="3" style="stroke: #038048; stroke-width: 1.0;"/><text fill="#000000" font-family="sans-serif" font-size="11" lengthAdjust="spacingAndGlyphs" text-decoration="underline" textLength="137" x="26" y="301.9063">TestState: StringResource</text><ellipse cx="17" cy="311.2266" fill="none" rx="3" ry="3" style="stroke: #038048; stroke-width: 1.0;"/><text fill="#000000" font-family="sans-serif" font-size="11" lengthAdjust="spacingAndGlyphs" text-decoration="underline" textLength="235" x="26" y="314.8613">ConstraintScheduleTestRes: StringResource</text><ellipse cx="17" cy="324.1816" fill="none" rx="3" ry="3" style="stroke: #038048; stroke-width: 1.0;"/><text fill="#000000" font-family="sans-serif" font-size="11" lengthAdjust="spacingAndGlyphs" text-decoration="underline" textLength="127" x="26" y="327.8164">TimeRes: TimeResource</text><ellipse cx="17" cy="337.1367" fill="none" rx="3" ry="3" style="stroke: #038048; stroke-width: 1.0;"/><text fill="#000000" font-family="sans-serif" font-size="11" lengthAdjust="spacingAndGlyphs" text-decoration="underline" textLength="168" x="26" y="340.7715">unitializedRes: DoubleResource</text><ellipse cx="17" cy="350.0918" fill="none" rx="3" ry="3" style="stroke: #038048; stroke-width: 1.0;"/><text fill="#000000" font-family="sans-serif" font-size="11" lengthAdjust="spacingAndGlyphs" text-decoration="underline" textLength="237" x="26" y="353.7266">TestSubclassing: ResourceSubclassSubclass</text><ellipse cx="17" cy="363.0469" fill="none" rx="3" ry="3" style="stroke: #038048; stroke-width: 1.0;"/><text fill="#000000" font-family="sans-serif" font-size="11" lengthAdjust="spacingAndGlyphs" text-decoration="underline" textLength="391" x="26" y="366.6816">TestArrayedSubclassing: ArrayedResource&lt;ResourceSubclassSubclass&gt;</text></a><!--MD5=[6479903053fc7f5d64d7d0722b727a6a]
class gov.nasa.jpl.resource.ResourceDeclaration--><a href="../resource/ResourceDeclaration.html" target="_top" title="../resource/ResourceDeclaration.html" xlink:actuate="onRequest" xlink:href="../resource/ResourceDeclaration.html" xlink:show="new" xlink:title="../resource/ResourceDeclaration.html" xlink:type="simple"><rect fill="#FEFECE" filter="url(#f1tu8mzz6nja1y)" height="38.2656" id="gov.nasa.jpl.resource.ResourceDeclaration" style="stroke: #A80036; stroke-width: 1.5;" width="173" x="139" y="8.23"/><ellipse cx="154" cy="27.3628" fill="#ADD1B2" rx="11" ry="11" style="stroke: #A80036; stroke-width: 1.0;"/><path d="M156.4731,33.5059 Q155.8921,33.8047 155.2529,33.9541 Q154.6138,34.1035 153.9082,34.1035 Q151.4014,34.1035 150.0815,32.4517 Q148.7617,30.7998 148.7617,27.6787 Q148.7617,24.5493 150.0815,22.8975 Q151.4014,21.2456 153.9082,21.2456 Q154.6138,21.2456 155.2612,21.395 Q155.9087,21.5445 156.4731,21.8433 L156.4731,24.5659 Q155.8423,23.9849 155.2488,23.7151 Q154.6553,23.4453 154.0244,23.4453 Q152.6797,23.4453 151.9949,24.512 Q151.3101,25.5786 151.3101,27.6787 Q151.3101,29.7705 151.9949,30.8372 Q152.6797,31.9038 154.0244,31.9038 Q154.6553,31.9038 155.2488,31.6341 Q155.8423,31.3643 156.4731,30.7832 Z "/><text fill="#000000" font-family="sans-serif" font-size="14" lengthAdjust="spacingAndGlyphs" textLength="141" x="168" y="26.7652">ResourceDeclaration</text><text fill="#000000" font-family="sans-serif" font-size="10" lengthAdjust="spacingAndGlyphs" textLength="103" x="187" y="39.3863">gov.nasa.jpl.resource</text></a><!--MD5=[d2916a7c249fd2b0a459d3c60ded162b]
reverse link gov.nasa.jpl.resource.ResourceDeclaration to gov.nasa.jpl.exampleAdaptation.Res--><path d="M225.5,67.84 C225.5,79.2 225.5,92.27 225.5,106.01 " fill="none" id="gov.nasa.jpl.resource.ResourceDeclaration&lt;-gov.nasa.jpl.exampleAdaptation.Res" style="stroke: #A80036; stroke-width: 1.0;"/><polygon fill="none" points="218.5,68.18,225.5,48.18,232.5,68.18,218.5,68.18" style="stroke: #A80036; stroke-width: 1.0;"/><text fill="#888888" font-family="sans-serif" font-size="10" lengthAdjust="spacingAndGlyphs" textLength="182" x="140.5" y="392.668">UMLDoclet 2.0.8, PlantUML 1.2020.01</text><!--MD5=[fee270a9690bba3a9317628a75ac89e0]
@startuml
    set namespaceSeparator none
    hide empty fields
    hide empty methods

    class "<size:14>Res\n<size:10>gov.nasa.jpl.exampleAdaptation" as gov.nasa.jpl.exampleAdaptation.Res [[Res.html]] {
        {static} +celestialBodies: String[]
        {static} +vectorComponents: String[]
        {static} +ResourceA: DoubleResource
        {static} +ResourceB: IntegerResource
        {static} +dur: Duration
        {static} +ResourceC: DurationResource
        {static} +PositionVector: ArrayedResource<DoubleResource>
        {static} +ExampleBodyState: ArrayedResource<ArrayedResource<DoubleResource>>
        {static} +ResourceWithSpacesInBin: ArrayedResource<DoubleResource>
        {static} +IntegratesA: IntegratingResource
        {static} +IntegratesPosition: ArrayedResource<IntegratingResource>
        {static} +TestState: StringResource
        {static} +ConstraintScheduleTestRes: StringResource
        {static} +TimeRes: TimeResource
        {static} +unitializedRes: DoubleResource
        {static} +TestSubclassing: ResourceSubclassSubclass
        {static} +TestArrayedSubclassing: ArrayedResource<ResourceSubclassSubclass>
    }

    class "<size:14>ResourceDeclaration\n<size:10>gov.nasa.jpl.resource" as gov.nasa.jpl.resource.ResourceDeclaration [[../resource/ResourceDeclaration.html]]

    gov.nasa.jpl.resource.ResourceDeclaration <|- - gov.nasa.jpl.exampleAdaptation.Res

    center footer UMLDoclet 2.0.8, PlantUML 1.2020.01
@enduml

PlantUML version 1.2020.01(Sun Feb 16 09:40:32 PST 2020)
(APACHE source distribution)
Java Runtime: OpenJDK Runtime Environment
JVM: OpenJDK 64-Bit Server VM
Java Version: 17.0.6+10
Operating System: Mac OS X
Default Encoding: UTF-8
Language: en
Country: US
--></g></svg>