<?xml version="1.0" encoding="UTF-8" standalone="no"?><svg xmlns="http://www.w3.org/2000/svg" xmlns:xlink="http://www.w3.org/1999/xlink" contentScriptType="application/ecmascript" contentStyleType="text/css" height="224px" preserveAspectRatio="none" style="width:245px;height:224px;" version="1.1" viewBox="0 0 245 224" width="245px" zoomAndPan="magnify"><defs><filter height="300%" id="fo7q6rl0e04ug" width="300%" x="-1" y="-1"><feGaussianBlur result="blurOut" stdDeviation="2.0"/><feColorMatrix in="blurOut" result="blurOut2" type="matrix" values="0 0 0 0 0 0 0 0 0 0 0 0 0 0 0 0 0 0 .4 0"/><feOffset dx="4.0" dy="4.0" in="blurOut2" result="blurOut3"/><feBlend in="SourceGraphic" in2="blurOut3" mode="normal"/></filter></defs><g><!--MD5=[d5d1232bc8c3448d6be8f17dfb95b6cd]
class gov.nasa.jpl.exampleAdaptation.SignalSendingActivity--><a href="SignalSendingActivity.html" target="_top" title="SignalSendingActivity.html" xlink:actuate="onRequest" xlink:href="SignalSendingActivity.html" xlink:show="new" xlink:title="SignalSendingActivity.html" xlink:type="simple"><rect fill="#FEFECE" filter="url(#fo7q6rl0e04ug)" height="85.1309" id="gov.nasa.jpl.exampleAdaptation.SignalSendingActivity" style="stroke: #A80036; stroke-width: 1.5;" width="228" x="6" y="105.87"/><ellipse cx="38.55" cy="125.0028" fill="#ADD1B2" rx="11" ry="11" style="stroke: #A80036; stroke-width: 1.0;"/><path d="M41.0231,131.1459 Q40.4421,131.4447 39.8029,131.5941 Q39.1638,131.7435 38.4582,131.7435 Q35.9514,131.7435 34.6315,130.0917 Q33.3117,128.4398 33.3117,125.3187 Q33.3117,122.1893 34.6315,120.5375 Q35.9514,118.8856 38.4582,118.8856 Q39.1638,118.8856 39.8112,119.035 Q40.4587,119.1845 41.0231,119.4833 L41.0231,122.2059 Q40.3923,121.6249 39.7988,121.3551 Q39.2053,121.0853 38.5744,121.0853 Q37.2297,121.0853 36.5449,122.152 Q35.8601,123.2186 35.8601,125.3187 Q35.8601,127.4105 36.5449,128.4772 Q37.2297,129.5438 38.5744,129.5438 Q39.2053,129.5438 39.7988,129.2741 Q40.3923,129.0043 41.0231,128.4232 Z "/><text fill="#000000" font-family="sans-serif" font-size="14" lengthAdjust="spacingAndGlyphs" textLength="147" x="61.45" y="124.4052">SignalSendingActivity</text><text fill="#000000" font-family="sans-serif" font-size="10" lengthAdjust="spacingAndGlyphs" textLength="157" x="56.45" y="137.0263">gov.nasa.jpl.exampleAdaptation</text><line style="stroke: #A80036; stroke-width: 1.5;" x1="7" x2="233" y1="144.1356" y2="144.1356"/><ellipse cx="17" cy="155.1356" fill="#84BE84" rx="3" ry="3" style="stroke: #038048; stroke-width: 1.0;"/><text fill="#000000" font-family="sans-serif" font-size="11" lengthAdjust="spacingAndGlyphs" textLength="202" x="26" y="158.7704">SignalSendingActivity(Time, Duration)</text><ellipse cx="17" cy="168.0907" fill="#84BE84" rx="3" ry="3" style="stroke: #038048; stroke-width: 1.0;"/><text fill="#000000" font-family="sans-serif" font-size="11" lengthAdjust="spacingAndGlyphs" textLength="70" x="26" y="171.7255">model(): void</text><ellipse cx="17" cy="181.0458" fill="#84BE84" rx="3" ry="3" style="stroke: #038048; stroke-width: 1.0;"/><text fill="#000000" font-family="sans-serif" font-size="11" lengthAdjust="spacingAndGlyphs" textLength="136" x="26" y="184.6805">setCondition(): Condition</text></a><!--MD5=[9fb577203c08bfd183ae1eb5c832aad4]
class gov.nasa.jpl.activity.Activity--><a href="../activity/Activity.html" target="_top" title="../activity/Activity.html" xlink:actuate="onRequest" xlink:href="../activity/Activity.html" xlink:show="new" xlink:title="../activity/Activity.html" xlink:type="simple"><rect fill="#FEFECE" filter="url(#fo7q6rl0e04ug)" height="38.2656" id="gov.nasa.jpl.activity.Activity" style="stroke: #A80036; stroke-width: 1.5;" width="128" x="56" y="7.6"/><ellipse cx="71" cy="26.7328" fill="#ADD1B2" rx="11" ry="11" style="stroke: #A80036; stroke-width: 1.0;"/><path d="M73.4731,32.8759 Q72.8921,33.1747 72.2529,33.3241 Q71.6138,33.4735 70.9082,33.4735 Q68.4014,33.4735 67.0815,31.8217 Q65.7617,30.1698 65.7617,27.0487 Q65.7617,23.9193 67.0815,22.2675 Q68.4014,20.6156 70.9082,20.6156 Q71.6138,20.6156 72.2612,20.765 Q72.9087,20.9145 73.4731,21.2133 L73.4731,23.9359 Q72.8423,23.3549 72.2488,23.0851 Q71.6553,22.8153 71.0244,22.8153 Q69.6797,22.8153 68.9949,23.882 Q68.3101,24.9486 68.3101,27.0487 Q68.3101,29.1405 68.9949,30.2072 Q69.6797,31.2738 71.0244,31.2738 Q71.6553,31.2738 72.2488,31.0041 Q72.8423,30.7343 73.4731,30.1532 Z "/><text fill="#000000" font-family="sans-serif" font-size="14" lengthAdjust="spacingAndGlyphs" textLength="49" x="108.5" y="26.1352">Activity</text><text fill="#000000" font-family="sans-serif" font-size="10" lengthAdjust="spacingAndGlyphs" textLength="96" x="85" y="38.7562">gov.nasa.jpl.activity</text></a><!--MD5=[6226d4a72a555f33e6fc2eeb1c14056f]
reverse link gov.nasa.jpl.activity.Activity to gov.nasa.jpl.exampleAdaptation.SignalSendingActivity--><path d="M120,67.43 C120,79.61 120,93.06 120,105.39 " fill="none" id="gov.nasa.jpl.activity.Activity&lt;-gov.nasa.jpl.exampleAdaptation.SignalSendingActivity" style="stroke: #A80036; stroke-width: 1.0;"/><polygon fill="none" points="113,67.69,120,47.69,127,67.69,113,67.69" style="stroke: #A80036; stroke-width: 1.0;"/><text fill="#888888" font-family="sans-serif" font-size="10" lengthAdjust="spacingAndGlyphs" textLength="182" x="35" y="210.668">UMLDoclet 2.0.8, PlantUML 1.2020.01</text><!--MD5=[3fa08a24ffbe8e988c39977c34221fd0]
@startuml
    set namespaceSeparator none
    hide empty fields
    hide empty methods

    class "<size:14>SignalSendingActivity\n<size:10>gov.nasa.jpl.exampleAdaptation" as gov.nasa.jpl.exampleAdaptation.SignalSendingActivity [[SignalSendingActivity.html]] {
        +SignalSendingActivity(Time, Duration)
        +model(): void
        +setCondition(): Condition
    }

    class "<size:14>Activity\n<size:10>gov.nasa.jpl.activity" as gov.nasa.jpl.activity.Activity [[../activity/Activity.html]]

    gov.nasa.jpl.activity.Activity <|- - gov.nasa.jpl.exampleAdaptation.SignalSendingActivity

    center footer UMLDoclet 2.0.8, PlantUML 1.2020.01
@enduml

PlantUML version 1.2020.01(Sun Feb 16 09:40:32 PST 2020)
(APACHE source distribution)
Java Runtime: OpenJDK Runtime Environment
JVM: OpenJDK 64-Bit Server VM
Java Version: 17.0.6+10
Operating System: Mac OS X
Default Encoding: UTF-8
Language: en
Country: US
--></g></svg>