<?xml version="1.0" encoding="UTF-8" standalone="no"?><svg xmlns="http://www.w3.org/2000/svg" xmlns:xlink="http://www.w3.org/1999/xlink" contentScriptType="application/ecmascript" contentStyleType="text/css" height="211px" preserveAspectRatio="none" style="width:212px;height:211px;" version="1.1" viewBox="0 0 212 211" width="212px" zoomAndPan="magnify"><defs><filter height="300%" id="f1r2xxzmmlpwt9" width="300%" x="-1" y="-1"><feGaussianBlur result="blurOut" stdDeviation="2.0"/><feColorMatrix in="blurOut" result="blurOut2" type="matrix" values="0 0 0 0 0 0 0 0 0 0 0 0 0 0 0 0 0 0 .4 0"/><feOffset dx="4.0" dy="4.0" in="blurOut2" result="blurOut3"/><feBlend in="SourceGraphic" in2="blurOut3" mode="normal"/></filter></defs><g><!--MD5=[15738b70c2cbb8e4f62712bd329843e6]
class gov.nasa.jpl.exampleAdaptation.WaitingOnSignalActivity--><a href="WaitingOnSignalActivity.html" target="_top" title="WaitingOnSignalActivity.html" xlink:actuate="onRequest" xlink:href="WaitingOnSignalActivity.html" xlink:show="new" xlink:title="WaitingOnSignalActivity.html" xlink:type="simple"><rect fill="#FEFECE" filter="url(#f1r2xxzmmlpwt9)" height="72.1758" id="gov.nasa.jpl.exampleAdaptation.WaitingOnSignalActivity" style="stroke: #A80036; stroke-width: 1.5;" width="194" x="6" y="105.82"/><ellipse cx="21" cy="124.9528" fill="#ADD1B2" rx="11" ry="11" style="stroke: #A80036; stroke-width: 1.0;"/><path d="M23.4731,131.0959 Q22.8921,131.3947 22.2529,131.5441 Q21.6138,131.6935 20.9082,131.6935 Q18.4014,131.6935 17.0815,130.0417 Q15.7617,128.3898 15.7617,125.2687 Q15.7617,122.1393 17.0815,120.4875 Q18.4014,118.8356 20.9082,118.8356 Q21.6138,118.8356 22.2612,118.985 Q22.9087,119.1345 23.4731,119.4333 L23.4731,122.1559 Q22.8423,121.5749 22.2488,121.3051 Q21.6553,121.0353 21.0244,121.0353 Q19.6797,121.0353 18.9949,122.102 Q18.3101,123.1686 18.3101,125.2687 Q18.3101,127.3605 18.9949,128.4272 Q19.6797,129.4938 21.0244,129.4938 Q21.6553,129.4938 22.2488,129.2241 Q22.8423,128.9543 23.4731,128.3732 Z "/><text fill="#000000" font-family="sans-serif" font-size="14" lengthAdjust="spacingAndGlyphs" textLength="162" x="35" y="124.3552">WaitingOnSignalActivity</text><text fill="#000000" font-family="sans-serif" font-size="10" lengthAdjust="spacingAndGlyphs" textLength="157" x="37.5" y="136.9763">gov.nasa.jpl.exampleAdaptation</text><line style="stroke: #A80036; stroke-width: 1.5;" x1="7" x2="199" y1="144.0856" y2="144.0856"/><ellipse cx="17" cy="155.0856" fill="#84BE84" rx="3" ry="3" style="stroke: #038048; stroke-width: 1.0;"/><text fill="#000000" font-family="sans-serif" font-size="11" lengthAdjust="spacingAndGlyphs" textLength="161" x="26" y="158.7204">WaitingOnSignalActivity(Time)</text><ellipse cx="17" cy="168.0407" fill="#84BE84" rx="3" ry="3" style="stroke: #038048; stroke-width: 1.0;"/><text fill="#000000" font-family="sans-serif" font-size="11" lengthAdjust="spacingAndGlyphs" textLength="106" x="26" y="171.6755">modelFunc(): Waiter</text></a><!--MD5=[9fb577203c08bfd183ae1eb5c832aad4]
class gov.nasa.jpl.activity.Activity--><a href="../activity/Activity.html" target="_top" title="../activity/Activity.html" xlink:actuate="onRequest" xlink:href="../activity/Activity.html" xlink:show="new" xlink:title="../activity/Activity.html" xlink:type="simple"><rect fill="#FEFECE" filter="url(#f1r2xxzmmlpwt9)" height="38.2656" id="gov.nasa.jpl.activity.Activity" style="stroke: #A80036; stroke-width: 1.5;" width="128" x="39" y="7.56"/><ellipse cx="54" cy="26.6928" fill="#ADD1B2" rx="11" ry="11" style="stroke: #A80036; stroke-width: 1.0;"/><path d="M56.4731,32.8359 Q55.8921,33.1347 55.2529,33.2841 Q54.6138,33.4335 53.9082,33.4335 Q51.4014,33.4335 50.0815,31.7817 Q48.7617,30.1298 48.7617,27.0087 Q48.7617,23.8793 50.0815,22.2275 Q51.4014,20.5756 53.9082,20.5756 Q54.6138,20.5756 55.2612,20.725 Q55.9087,20.8745 56.4731,21.1733 L56.4731,23.8959 Q55.8423,23.3149 55.2488,23.0451 Q54.6553,22.7753 54.0244,22.7753 Q52.6797,22.7753 51.9949,23.842 Q51.3101,24.9086 51.3101,27.0087 Q51.3101,29.1005 51.9949,30.1672 Q52.6797,31.2338 54.0244,31.2338 Q54.6553,31.2338 55.2488,30.9641 Q55.8423,30.6943 56.4731,30.1132 Z "/><text fill="#000000" font-family="sans-serif" font-size="14" lengthAdjust="spacingAndGlyphs" textLength="49" x="91.5" y="26.0952">Activity</text><text fill="#000000" font-family="sans-serif" font-size="10" lengthAdjust="spacingAndGlyphs" textLength="96" x="68" y="38.7163">gov.nasa.jpl.activity</text></a><!--MD5=[b30d6926acc0e994afd7b5ece5e75a7f]
reverse link gov.nasa.jpl.activity.Activity to gov.nasa.jpl.exampleAdaptation.WaitingOnSignalActivity--><path d="M103,67.27 C103,79.73 103,93.41 103,105.55 " fill="none" id="gov.nasa.jpl.activity.Activity&lt;-gov.nasa.jpl.exampleAdaptation.WaitingOnSignalActivity" style="stroke: #A80036; stroke-width: 1.0;"/><polygon fill="none" points="96,67.65,103,47.65,110,67.65,96,67.65" style="stroke: #A80036; stroke-width: 1.0;"/><text fill="#888888" font-family="sans-serif" font-size="10" lengthAdjust="spacingAndGlyphs" textLength="182" x="18" y="197.668">UMLDoclet 2.0.8, PlantUML 1.2020.01</text><!--MD5=[1089b6ae0b2009ec6162579bac8db074]
@startuml
    set namespaceSeparator none
    hide empty fields
    hide empty methods

    class "<size:14>WaitingOnSignalActivity\n<size:10>gov.nasa.jpl.exampleAdaptation" as gov.nasa.jpl.exampleAdaptation.WaitingOnSignalActivity [[WaitingOnSignalActivity.html]] {
        +WaitingOnSignalActivity(Time)
        +modelFunc(): Waiter
    }

    class "<size:14>Activity\n<size:10>gov.nasa.jpl.activity" as gov.nasa.jpl.activity.Activity [[../activity/Activity.html]]

    gov.nasa.jpl.activity.Activity <|- - gov.nasa.jpl.exampleAdaptation.WaitingOnSignalActivity

    center footer UMLDoclet 2.0.8, PlantUML 1.2020.01
@enduml

PlantUML version 1.2020.01(Sun Feb 16 09:40:32 PST 2020)
(APACHE source distribution)
Java Runtime: OpenJDK Runtime Environment
JVM: OpenJDK 64-Bit Server VM
Java Version: 17.0.6+10
Operating System: Mac OS X
Default Encoding: UTF-8
Language: en
Country: US
--></g></svg>