<?xml version="1.0" encoding="UTF-8" standalone="no"?><svg xmlns="http://www.w3.org/2000/svg" xmlns:xlink="http://www.w3.org/1999/xlink" contentScriptType="application/ecmascript" contentStyleType="text/css" height="232px" preserveAspectRatio="none" style="width:263px;height:232px;" version="1.1" viewBox="0 0 263 232" width="263px" zoomAndPan="magnify"><defs><filter height="300%" id="fm1ubvlv3adkl" width="300%" x="-1" y="-1"><feGaussianBlur result="blurOut" stdDeviation="2.0"/><feColorMatrix in="blurOut" result="blurOut2" type="matrix" values="0 0 0 0 0 0 0 0 0 0 0 0 0 0 0 0 0 0 .4 0"/><feOffset dx="4.0" dy="4.0" in="blurOut2" result="blurOut3"/><feBlend in="SourceGraphic" in2="blurOut3" mode="normal"/></filter></defs><g><!--MD5=[6c5e1a65957255132054d6400e3bf3ef]
class gov.nasa.jpl.input.JSONInconReader--><a href="JSONInconReader.html" target="_top" title="JSONInconReader.html" xlink:actuate="onRequest" xlink:href="JSONInconReader.html" xlink:show="new" xlink:title="JSONInconReader.html" xlink:type="simple"><rect fill="#FEFECE" filter="url(#fm1ubvlv3adkl)" height="72.1758" id="gov.nasa.jpl.input.JSONInconReader" style="stroke: #A80036; stroke-width: 1.5;" width="246" x="6" y="126.82"/><ellipse cx="65.25" cy="145.9528" fill="#ADD1B2" rx="11" ry="11" style="stroke: #A80036; stroke-width: 1.0;"/><path d="M67.7231,152.0959 Q67.1421,152.3947 66.5029,152.5441 Q65.8638,152.6935 65.1582,152.6935 Q62.6514,152.6935 61.3315,151.0417 Q60.0117,149.3898 60.0117,146.2687 Q60.0117,143.1393 61.3315,141.4875 Q62.6514,139.8356 65.1582,139.8356 Q65.8638,139.8356 66.5112,139.985 Q67.1587,140.1345 67.7231,140.4333 L67.7231,143.1559 Q67.0923,142.5749 66.4988,142.3051 Q65.9053,142.0353 65.2744,142.0353 Q63.9297,142.0353 63.2449,143.102 Q62.5601,144.1686 62.5601,146.2687 Q62.5601,148.3605 63.2449,149.4272 Q63.9297,150.4938 65.2744,150.4938 Q65.9053,150.4938 66.4988,150.2241 Q67.0923,149.9543 67.7231,149.3732 Z "/><text fill="#000000" font-family="sans-serif" font-size="14" lengthAdjust="spacingAndGlyphs" textLength="119" x="85.75" y="145.3552">JSONInconReader</text><text fill="#000000" font-family="sans-serif" font-size="10" lengthAdjust="spacingAndGlyphs" textLength="86" x="102.25" y="157.9763">gov.nasa.jpl.input</text><line style="stroke: #A80036; stroke-width: 1.5;" x1="7" x2="251" y1="165.0856" y2="165.0856"/><ellipse cx="17" cy="176.0856" fill="#84BE84" rx="3" ry="3" style="stroke: #038048; stroke-width: 1.0;"/><text fill="#000000" font-family="sans-serif" font-size="11" lengthAdjust="spacingAndGlyphs" textLength="133" x="26" y="179.7204">JSONInconReader(String)</text><ellipse cx="17" cy="189.0407" fill="#84BE84" rx="3" ry="3" style="stroke: #038048; stroke-width: 1.0;"/><text fill="#000000" font-family="sans-serif" font-size="11" lengthAdjust="spacingAndGlyphs" textLength="220" x="26" y="192.6755">getInitialConditions(): InitialConditionList</text></a><!--MD5=[fd23f30d64e3f6845fbd3da6b27515b1]
class gov.nasa.jpl.input.InconReader--><a href="InconReader.html" target="_top" title="InconReader.html" xlink:actuate="onRequest" xlink:href="InconReader.html" xlink:show="new" xlink:title="InconReader.html" xlink:type="simple"><rect fill="#FEFECE" filter="url(#fm1ubvlv3adkl)" height="59.2207" id="gov.nasa.jpl.input.InconReader" style="stroke: #A80036; stroke-width: 1.5;" width="246" x="6" y="7.6"/><ellipse cx="81.75" cy="26.7328" fill="#B4A7E5" rx="11" ry="11" style="stroke: #A80036; stroke-width: 1.0;"/><path d="M78.1777,22.9979 L78.1777,20.8397 L85.5571,20.8397 L85.5571,22.9979 L83.0918,22.9979 L83.0918,31.0746 L85.5571,31.0746 L85.5571,33.2328 L78.1777,33.2328 L78.1777,31.0746 L80.6431,31.0746 L80.6431,22.9979 Z "/><text fill="#000000" font-family="sans-serif" font-size="14" font-style="italic" lengthAdjust="spacingAndGlyphs" textLength="86" x="102.25" y="26.1352">InconReader</text><text fill="#000000" font-family="sans-serif" font-size="10" font-style="italic" lengthAdjust="spacingAndGlyphs" textLength="86" x="102.25" y="38.7562">gov.nasa.jpl.input</text><line style="stroke: #A80036; stroke-width: 1.5;" x1="7" x2="251" y1="45.8656" y2="45.8656"/><ellipse cx="17" cy="56.8656" fill="#84BE84" rx="3" ry="3" style="stroke: #038048; stroke-width: 1.0;"/><text fill="#000000" font-family="sans-serif" font-size="11" font-style="italic" lengthAdjust="spacingAndGlyphs" textLength="220" x="26" y="60.5004">getInitialConditions(): InitialConditionList</text></a><!--MD5=[51c393fe73dcba510f300387197a9cdc]
reverse link gov.nasa.jpl.input.InconReader to gov.nasa.jpl.input.JSONInconReader--><path d="M129,88.32 C129,101.11 129,114.59 129,126.47 " fill="none" id="gov.nasa.jpl.input.InconReader&lt;-gov.nasa.jpl.input.JSONInconReader" style="stroke: #A80036; stroke-width: 1.0; stroke-dasharray: 7.0,7.0;"/><polygon fill="none" points="122,88.73,129,68.73,136,88.73,122,88.73" style="stroke: #A80036; stroke-width: 1.0;"/><text fill="#888888" font-family="sans-serif" font-size="10" lengthAdjust="spacingAndGlyphs" textLength="182" x="44" y="218.668">UMLDoclet 2.0.8, PlantUML 1.2020.01</text><!--MD5=[6ba18ced908feb8691bab0a2f72fae09]
@startuml
    set namespaceSeparator none
    hide empty fields
    hide empty methods

    class "<size:14>JSONInconReader\n<size:10>gov.nasa.jpl.input" as gov.nasa.jpl.input.JSONInconReader [[JSONInconReader.html]] {
        +JSONInconReader(String)
        +getInitialConditions(): InitialConditionList
    }

    interface "<size:14>InconReader\n<size:10>gov.nasa.jpl.input" as gov.nasa.jpl.input.InconReader [[InconReader.html]] {
        {abstract} +getInitialConditions(): InitialConditionList
    }

    gov.nasa.jpl.input.InconReader <|.. gov.nasa.jpl.input.JSONInconReader

    center footer UMLDoclet 2.0.8, PlantUML 1.2020.01
@enduml

PlantUML version 1.2020.01(Sun Feb 16 09:40:32 PST 2020)
(APACHE source distribution)
Java Runtime: OpenJDK Runtime Environment
JVM: OpenJDK 64-Bit Server VM
Java Version: 17.0.6+10
Operating System: Mac OS X
Default Encoding: UTF-8
Language: en
Country: US
--></g></svg>