<?xml version="1.0" encoding="UTF-8" standalone="no"?><svg xmlns="http://www.w3.org/2000/svg" xmlns:xlink="http://www.w3.org/1999/xlink" contentScriptType="application/ecmascript" contentStyleType="text/css" height="211px" preserveAspectRatio="none" style="width:251px;height:211px;" version="1.1" viewBox="0 0 251 211" width="251px" zoomAndPan="magnify"><defs><filter height="300%" id="f14z46heeo0xby" width="300%" x="-1" y="-1"><feGaussianBlur result="blurOut" stdDeviation="2.0"/><feColorMatrix in="blurOut" result="blurOut2" type="matrix" values="0 0 0 0 0 0 0 0 0 0 0 0 0 0 0 0 0 0 .4 0"/><feOffset dx="4.0" dy="4.0" in="blurOut2" result="blurOut3"/><feBlend in="SourceGraphic" in2="blurOut3" mode="normal"/></filter></defs><g><!--MD5=[7ce76ab748e04ab830d054716d6640fc]
class gov.nasa.jpl.input.ReflectionException--><a href="ReflectionException.html" target="_top" title="ReflectionException.html" xlink:actuate="onRequest" xlink:href="ReflectionException.html" xlink:show="new" xlink:title="ReflectionException.html" xlink:type="simple"><rect fill="#FEFECE" filter="url(#f14z46heeo0xby)" height="72.1758" id="gov.nasa.jpl.input.ReflectionException" style="stroke: #A80036; stroke-width: 1.5;" width="234" x="6" y="105.82"/><ellipse cx="50.75" cy="124.9528" fill="#ADD1B2" rx="11" ry="11" style="stroke: #A80036; stroke-width: 1.0;"/><path d="M53.2231,131.0959 Q52.6421,131.3947 52.0029,131.5441 Q51.3638,131.6935 50.6582,131.6935 Q48.1514,131.6935 46.8315,130.0417 Q45.5117,128.3898 45.5117,125.2687 Q45.5117,122.1393 46.8315,120.4875 Q48.1514,118.8356 50.6582,118.8356 Q51.3638,118.8356 52.0112,118.985 Q52.6587,119.1345 53.2231,119.4333 L53.2231,122.1559 Q52.5923,121.5749 51.9988,121.3051 Q51.4053,121.0353 50.7744,121.0353 Q49.4297,121.0353 48.7449,122.102 Q48.0601,123.1686 48.0601,125.2687 Q48.0601,127.3605 48.7449,128.4272 Q49.4297,129.4938 50.7744,129.4938 Q51.4053,129.4938 51.9988,129.2241 Q52.5923,128.9543 53.2231,128.3732 Z "/><text fill="#000000" font-family="sans-serif" font-size="14" lengthAdjust="spacingAndGlyphs" textLength="136" x="71.25" y="124.3552">ReflectionException</text><text fill="#000000" font-family="sans-serif" font-size="10" lengthAdjust="spacingAndGlyphs" textLength="86" x="96.25" y="136.9763">gov.nasa.jpl.input</text><line style="stroke: #A80036; stroke-width: 1.5;" x1="7" x2="239" y1="144.0856" y2="144.0856"/><ellipse cx="17" cy="155.0856" fill="#84BE84" rx="3" ry="3" style="stroke: #038048; stroke-width: 1.0;"/><text fill="#000000" font-family="sans-serif" font-size="11" lengthAdjust="spacingAndGlyphs" textLength="146" x="26" y="158.7204">ReflectionException(String)</text><ellipse cx="17" cy="168.0407" fill="#84BE84" rx="3" ry="3" style="stroke: #038048; stroke-width: 1.0;"/><text fill="#000000" font-family="sans-serif" font-size="11" lengthAdjust="spacingAndGlyphs" textLength="208" x="26" y="171.6755">ReflectionException(String, Throwable)</text></a><!--MD5=[46c05dfe24a0851e179497c4631d3ff2]
class java.lang.Exception--><a href="https://docs.oracle.com/en/java/javase/13/docs/api/java.base/java/lang/Exception.html?is-external=true" target="_top" title="https://docs.oracle.com/en/java/javase/13/docs/api/java.base/java/lang/Exception.html?is-external=true" xlink:actuate="onRequest" xlink:href="https://docs.oracle.com/en/java/javase/13/docs/api/java.base/java/lang/Exception.html?is-external=true" xlink:show="new" xlink:title="https://docs.oracle.com/en/java/javase/13/docs/api/java.base/java/lang/Exception.html?is-external=true" xlink:type="simple"><rect fill="#FEFECE" filter="url(#f14z46heeo0xby)" height="38.2656" id="java.lang.Exception" style="stroke: #A80036; stroke-width: 1.5;" width="100" x="73" y="7.56"/><ellipse cx="88" cy="26.6928" fill="#ADD1B2" rx="11" ry="11" style="stroke: #A80036; stroke-width: 1.0;"/><path d="M90.4731,32.8359 Q89.8921,33.1347 89.2529,33.2841 Q88.6138,33.4335 87.9082,33.4335 Q85.4014,33.4335 84.0815,31.7817 Q82.7617,30.1298 82.7617,27.0087 Q82.7617,23.8793 84.0815,22.2275 Q85.4014,20.5756 87.9082,20.5756 Q88.6138,20.5756 89.2612,20.725 Q89.9087,20.8745 90.4731,21.1733 L90.4731,23.8959 Q89.8423,23.3149 89.2488,23.0451 Q88.6553,22.7753 88.0244,22.7753 Q86.6797,22.7753 85.9949,23.842 Q85.3101,24.9086 85.3101,27.0087 Q85.3101,29.1005 85.9949,30.1672 Q86.6797,31.2338 88.0244,31.2338 Q88.6553,31.2338 89.2488,30.9641 Q89.8423,30.6943 90.4731,30.1132 Z "/><text fill="#000000" font-family="sans-serif" font-size="14" lengthAdjust="spacingAndGlyphs" textLength="68" x="102" y="26.0952">Exception</text><text fill="#000000" font-family="sans-serif" font-size="10" lengthAdjust="spacingAndGlyphs" textLength="44" x="114" y="38.7163">java.lang</text></a><!--MD5=[b64080f05e23bd492dd447e52a74e400]
reverse link java.lang.Exception to gov.nasa.jpl.input.ReflectionException--><path d="M123,67.27 C123,79.73 123,93.41 123,105.55 " fill="none" id="java.lang.Exception&lt;-gov.nasa.jpl.input.ReflectionException" style="stroke: #A80036; stroke-width: 1.0;"/><polygon fill="none" points="116,67.65,123,47.65,130,67.65,116,67.65" style="stroke: #A80036; stroke-width: 1.0;"/><text fill="#888888" font-family="sans-serif" font-size="10" lengthAdjust="spacingAndGlyphs" textLength="182" x="38" y="197.668">UMLDoclet 2.0.8, PlantUML 1.2020.01</text><!--MD5=[13890180e04a7c0540ca5505a1b6fa0e]
@startuml
    set namespaceSeparator none
    hide empty fields
    hide empty methods

    class "<size:14>ReflectionException\n<size:10>gov.nasa.jpl.input" as gov.nasa.jpl.input.ReflectionException [[ReflectionException.html]] {
        +ReflectionException(String)
        +ReflectionException(String, Throwable)
    }

    class "<size:14>Exception\n<size:10>java.lang" as java.lang.Exception [[https://docs.oracle.com/en/java/javase/13/docs/api/java.base/java/lang/Exception.html?is-external=true]]

    java.lang.Exception <|- - gov.nasa.jpl.input.ReflectionException

    center footer UMLDoclet 2.0.8, PlantUML 1.2020.01
@enduml

PlantUML version 1.2020.01(Sun Feb 16 09:40:32 PST 2020)
(APACHE source distribution)
Java Runtime: OpenJDK Runtime Environment
JVM: OpenJDK 64-Bit Server VM
Java Version: 17.0.6+10
Operating System: Mac OS X
Default Encoding: UTF-8
Language: en
Country: US
--></g></svg>