<?xml version="1.0" encoding="UTF-8" standalone="no"?><svg xmlns="http://www.w3.org/2000/svg" xmlns:xlink="http://www.w3.org/1999/xlink" contentScriptType="application/ecmascript" contentStyleType="text/css" height="156px" preserveAspectRatio="none" style="width:338px;height:156px;" version="1.1" viewBox="0 0 338 156" width="338px" zoomAndPan="magnify"><defs><filter height="300%" id="f16ya31slfd88m" width="300%" x="-1" y="-1"><feGaussianBlur result="blurOut" stdDeviation="2.0"/><feColorMatrix in="blurOut" result="blurOut2" type="matrix" values="0 0 0 0 0 0 0 0 0 0 0 0 0 0 0 0 0 0 .4 0"/><feOffset dx="4.0" dy="4.0" in="blurOut2" result="blurOut3"/><feBlend in="SourceGraphic" in2="blurOut3" mode="normal"/></filter></defs><g><!--MD5=[c7321260648943b9c66ac56ba2091917]
class gov.nasa.jpl.input.TypeNameConverters--><a href="TypeNameConverters.html" target="_top" title="TypeNameConverters.html" xlink:actuate="onRequest" xlink:href="TypeNameConverters.html" xlink:show="new" xlink:title="TypeNameConverters.html" xlink:type="simple"><rect fill="#FEFECE" filter="url(#f16ya31slfd88m)" height="119.041" id="gov.nasa.jpl.input.TypeNameConverters" style="stroke: #A80036; stroke-width: 1.5;" width="320" x="7" y="7"/><ellipse cx="89.25" cy="26.1328" fill="#ADD1B2" rx="11" ry="11" style="stroke: #A80036; stroke-width: 1.0;"/><path d="M91.7231,32.2759 Q91.1421,32.5747 90.5029,32.7241 Q89.8638,32.8735 89.1582,32.8735 Q86.6514,32.8735 85.3315,31.2217 Q84.0117,29.5698 84.0117,26.4487 Q84.0117,23.3193 85.3315,21.6675 Q86.6514,20.0156 89.1582,20.0156 Q89.8638,20.0156 90.5112,20.165 Q91.1587,20.3145 91.7231,20.6133 L91.7231,23.3359 Q91.0923,22.7549 90.4988,22.4851 Q89.9053,22.2153 89.2744,22.2153 Q87.9297,22.2153 87.2449,23.282 Q86.5601,24.3486 86.5601,26.4487 Q86.5601,28.5405 87.2449,29.6072 Q87.9297,30.6738 89.2744,30.6738 Q89.9053,30.6738 90.4988,30.4041 Q91.0923,30.1343 91.7231,29.5532 Z "/><text fill="#000000" font-family="sans-serif" font-size="14" lengthAdjust="spacingAndGlyphs" textLength="147" x="109.75" y="25.5352">TypeNameConverters</text><text fill="#000000" font-family="sans-serif" font-size="10" lengthAdjust="spacingAndGlyphs" textLength="86" x="140.25" y="38.1563">gov.nasa.jpl.input</text><line style="stroke: #A80036; stroke-width: 1.5;" x1="8" x2="326" y1="45.2656" y2="45.2656"/><ellipse cx="18" cy="56.2656" fill="none" rx="3" ry="3" style="stroke: #038048; stroke-width: 1.0;"/><text fill="#000000" font-family="sans-serif" font-size="11" lengthAdjust="spacingAndGlyphs" text-decoration="underline" textLength="154" x="27" y="59.9004">bareJSONTypes: List&lt;Class&gt;</text><line style="stroke: #A80036; stroke-width: 1.5;" x1="8" x2="326" y1="66.2207" y2="66.2207"/><ellipse cx="18" cy="77.2207" fill="#84BE84" rx="3" ry="3" style="stroke: #038048; stroke-width: 1.0;"/><text fill="#000000" font-family="sans-serif" font-size="11" lengthAdjust="spacingAndGlyphs" text-decoration="underline" textLength="210" x="27" y="80.8555">primitiveToWrapperType(String): String</text><ellipse cx="18" cy="90.1758" fill="#84BE84" rx="3" ry="3" style="stroke: #038048; stroke-width: 1.0;"/><text fill="#000000" font-family="sans-serif" font-size="11" lengthAdjust="spacingAndGlyphs" text-decoration="underline" textLength="214" x="27" y="93.8105">typeEnumToWrapperName(Type): String</text><ellipse cx="18" cy="103.1309" fill="#84BE84" rx="3" ry="3" style="stroke: #038048; stroke-width: 1.0;"/><text fill="#000000" font-family="sans-serif" font-size="11" lengthAdjust="spacingAndGlyphs" text-decoration="underline" textLength="294" x="27" y="106.7656">convertDataTypeNameToLower(String, boolean): String</text><ellipse cx="18" cy="116.0859" fill="#84BE84" rx="3" ry="3" style="stroke: #038048; stroke-width: 1.0;"/><text fill="#000000" font-family="sans-serif" font-size="11" lengthAdjust="spacingAndGlyphs" text-decoration="underline" textLength="190" x="27" y="119.7207">getWrapperDataType(String): String</text></a><text fill="#888888" font-family="sans-serif" font-size="10" lengthAdjust="spacingAndGlyphs" textLength="182" x="76" y="142.709">UMLDoclet 2.0.8, PlantUML 1.2020.01</text><!--MD5=[4c94a2a31a4f088133598df61e4fe89a]
@startuml
    set namespaceSeparator none
    hide empty fields
    hide empty methods

    class "<size:14>TypeNameConverters\n<size:10>gov.nasa.jpl.input" as gov.nasa.jpl.input.TypeNameConverters [[TypeNameConverters.html]] {
        {static} +bareJSONTypes: List<Class>
        {static} +primitiveToWrapperType(String): String
        {static} +typeEnumToWrapperName(Type): String
        {static} +convertDataTypeNameToLower(String, boolean): String
        {static} +getWrapperDataType(String): String
    }

    center footer UMLDoclet 2.0.8, PlantUML 1.2020.01
@enduml

PlantUML version 1.2020.01(Sun Feb 16 09:40:32 PST 2020)
(APACHE source distribution)
Java Runtime: OpenJDK Runtime Environment
JVM: OpenJDK 64-Bit Server VM
Java Version: 17.0.6+10
Operating System: Mac OS X
Default Encoding: UTF-8
Language: en
Country: US
--></g></svg>