<?xml version="1.0" encoding="UTF-8" standalone="no"?><svg xmlns="http://www.w3.org/2000/svg" xmlns:xlink="http://www.w3.org/1999/xlink" contentScriptType="application/ecmascript" contentStyleType="text/css" height="245px" preserveAspectRatio="none" style="width:417px;height:245px;" version="1.1" viewBox="0 0 417 245" width="417px" zoomAndPan="magnify"><defs><filter height="300%" id="f8yt5aslyrxy1" width="300%" x="-1" y="-1"><feGaussianBlur result="blurOut" stdDeviation="2.0"/><feColorMatrix in="blurOut" result="blurOut2" type="matrix" values="0 0 0 0 0 0 0 0 0 0 0 0 0 0 0 0 0 0 .4 0"/><feOffset dx="4.0" dy="4.0" in="blurOut2" result="blurOut3"/><feBlend in="SourceGraphic" in2="blurOut3" mode="normal"/></filter></defs><g><!--MD5=[df7f751300359de3687dc51b16a1f730]
class gov.nasa.jpl.input.XMLTOLHistoryReader--><a href="XMLTOLHistoryReader.html" target="_top" title="XMLTOLHistoryReader.html" xlink:actuate="onRequest" xlink:href="XMLTOLHistoryReader.html" xlink:show="new" xlink:title="XMLTOLHistoryReader.html" xlink:type="simple"><rect fill="#FEFECE" filter="url(#f8yt5aslyrxy1)" height="85.1309" id="gov.nasa.jpl.input.XMLTOLHistoryReader" style="stroke: #A80036; stroke-width: 1.5;" width="400" x="6" y="126.87"/><ellipse cx="126.25" cy="146.0028" fill="#ADD1B2" rx="11" ry="11" style="stroke: #A80036; stroke-width: 1.0;"/><path d="M128.7231,152.1459 Q128.1421,152.4447 127.5029,152.5941 Q126.8638,152.7435 126.1582,152.7435 Q123.6514,152.7435 122.3315,151.0917 Q121.0117,149.4398 121.0117,146.3187 Q121.0117,143.1893 122.3315,141.5375 Q123.6514,139.8856 126.1582,139.8856 Q126.8638,139.8856 127.5112,140.035 Q128.1587,140.1845 128.7231,140.4833 L128.7231,143.2059 Q128.0923,142.6249 127.4988,142.3551 Q126.9053,142.0853 126.2744,142.0853 Q124.9297,142.0853 124.2449,143.152 Q123.5601,144.2186 123.5601,146.3187 Q123.5601,148.4105 124.2449,149.4772 Q124.9297,150.5438 126.2744,150.5438 Q126.9053,150.5438 127.4988,150.2741 Q128.0923,150.0043 128.7231,149.4232 Z "/><text fill="#000000" font-family="sans-serif" font-size="14" lengthAdjust="spacingAndGlyphs" textLength="151" x="146.75" y="145.4052">XMLTOLHistoryReader</text><text fill="#000000" font-family="sans-serif" font-size="10" lengthAdjust="spacingAndGlyphs" textLength="86" x="179.25" y="158.0263">gov.nasa.jpl.input</text><line style="stroke: #A80036; stroke-width: 1.5;" x1="7" x2="405" y1="165.1356" y2="165.1356"/><ellipse cx="17" cy="176.1356" fill="#84BE84" rx="3" ry="3" style="stroke: #038048; stroke-width: 1.0;"/><text fill="#000000" font-family="sans-serif" font-size="11" lengthAdjust="spacingAndGlyphs" textLength="160" x="26" y="179.7704">XMLTOLHistoryReader(String)</text><ellipse cx="17" cy="189.0907" fill="#84BE84" rx="3" ry="3" style="stroke: #038048; stroke-width: 1.0;"/><text fill="#000000" font-family="sans-serif" font-size="11" lengthAdjust="spacingAndGlyphs" textLength="336" x="26" y="192.7255">readInHistoryOfActivitiesAndResource(boolean, boolean): void</text><ellipse cx="17" cy="202.0458" fill="#84BE84" rx="3" ry="3" style="stroke: #038048; stroke-width: 1.0;"/><text fill="#000000" font-family="sans-serif" font-size="11" lengthAdjust="spacingAndGlyphs" text-decoration="underline" textLength="374" x="26" y="205.6805">rebuildInstanceHierarchy(Map&lt;String, Entry&lt;Activity, String&gt;&gt;): void</text></a><!--MD5=[77925f11b74d0d496fb7c39b922ce28e]
class gov.nasa.jpl.input.HistoryReader--><a href="HistoryReader.html" target="_top" title="HistoryReader.html" xlink:actuate="onRequest" xlink:href="HistoryReader.html" xlink:show="new" xlink:title="HistoryReader.html" xlink:type="simple"><rect fill="#FEFECE" filter="url(#f8yt5aslyrxy1)" height="59.2207" id="gov.nasa.jpl.input.HistoryReader" style="stroke: #A80036; stroke-width: 1.5;" width="362" x="25" y="7.65"/><ellipse cx="153.75" cy="26.7828" fill="#B4A7E5" rx="11" ry="11" style="stroke: #A80036; stroke-width: 1.0;"/><path d="M150.1777,23.0479 L150.1777,20.8897 L157.5571,20.8897 L157.5571,23.0479 L155.0918,23.0479 L155.0918,31.1246 L157.5571,31.1246 L157.5571,33.2828 L150.1777,33.2828 L150.1777,31.1246 L152.6431,31.1246 L152.6431,23.0479 Z "/><text fill="#000000" font-family="sans-serif" font-size="14" font-style="italic" lengthAdjust="spacingAndGlyphs" textLength="96" x="174.25" y="26.1852">HistoryReader</text><text fill="#000000" font-family="sans-serif" font-size="10" font-style="italic" lengthAdjust="spacingAndGlyphs" textLength="86" x="179.25" y="38.8063">gov.nasa.jpl.input</text><line style="stroke: #A80036; stroke-width: 1.5;" x1="26" x2="386" y1="45.9156" y2="45.9156"/><ellipse cx="36" cy="56.9156" fill="#84BE84" rx="3" ry="3" style="stroke: #038048; stroke-width: 1.0;"/><text fill="#000000" font-family="sans-serif" font-size="11" font-style="italic" lengthAdjust="spacingAndGlyphs" textLength="336" x="45" y="60.5504">readInHistoryOfActivitiesAndResource(boolean, boolean): void</text></a><!--MD5=[5f4081e5c640236cf4a6b297383d4424]
reverse link gov.nasa.jpl.input.HistoryReader to gov.nasa.jpl.input.XMLTOLHistoryReader--><path d="M206,88.59 C206,101.22 206,114.63 206,126.78 " fill="none" id="gov.nasa.jpl.input.HistoryReader&lt;-gov.nasa.jpl.input.XMLTOLHistoryReader" style="stroke: #A80036; stroke-width: 1.0; stroke-dasharray: 7.0,7.0;"/><polygon fill="none" points="199,88.66,206,68.66,213,88.66,199,88.66" style="stroke: #A80036; stroke-width: 1.0;"/><text fill="#888888" font-family="sans-serif" font-size="10" lengthAdjust="spacingAndGlyphs" textLength="182" x="121" y="231.668">UMLDoclet 2.0.8, PlantUML 1.2020.01</text><!--MD5=[2558aada37a2bd1b10adeee82fe4b496]
@startuml
    set namespaceSeparator none
    hide empty fields
    hide empty methods

    class "<size:14>XMLTOLHistoryReader\n<size:10>gov.nasa.jpl.input" as gov.nasa.jpl.input.XMLTOLHistoryReader [[XMLTOLHistoryReader.html]] {
        +XMLTOLHistoryReader(String)
        +readInHistoryOfActivitiesAndResource(boolean, boolean): void
        {static} +rebuildInstanceHierarchy(Map<String, Entry<Activity, String>>): void
    }

    interface "<size:14>HistoryReader\n<size:10>gov.nasa.jpl.input" as gov.nasa.jpl.input.HistoryReader [[HistoryReader.html]] {
        {abstract} +readInHistoryOfActivitiesAndResource(boolean, boolean): void
    }

    gov.nasa.jpl.input.HistoryReader <|.. gov.nasa.jpl.input.XMLTOLHistoryReader

    center footer UMLDoclet 2.0.8, PlantUML 1.2020.01
@enduml

PlantUML version 1.2020.01(Sun Feb 16 09:40:32 PST 2020)
(APACHE source distribution)
Java Runtime: OpenJDK Runtime Environment
JVM: OpenJDK 64-Bit Server VM
Java Version: 17.0.6+10
Operating System: Mac OS X
Default Encoding: UTF-8
Language: en
Country: US
--></g></svg>