<?xml version="1.0" encoding="UTF-8" standalone="no"?><svg xmlns="http://www.w3.org/2000/svg" xmlns:xlink="http://www.w3.org/1999/xlink" contentScriptType="application/ecmascript" contentStyleType="text/css" height="219px" preserveAspectRatio="none" style="width:543px;height:219px;" version="1.1" viewBox="0 0 543 219" width="543px" zoomAndPan="magnify"><defs><filter height="300%" id="f1j7metx3puymp" width="300%" x="-1" y="-1"><feGaussianBlur result="blurOut" stdDeviation="2.0"/><feColorMatrix in="blurOut" result="blurOut2" type="matrix" values="0 0 0 0 0 0 0 0 0 0 0 0 0 0 0 0 0 0 .4 0"/><feOffset dx="4.0" dy="4.0" in="blurOut2" result="blurOut3"/><feBlend in="SourceGraphic" in2="blurOut3" mode="normal"/></filter></defs><g><!--MD5=[d36c200e2e0804c1f5368c3ade752dbb]
class gov.nasa.jpl.output.csv.CSVWriter--><a href="CSVWriter.html" target="_top" title="CSVWriter.html" xlink:actuate="onRequest" xlink:href="CSVWriter.html" xlink:show="new" xlink:title="CSVWriter.html" xlink:type="simple"><rect fill="#FEFECE" filter="url(#f1j7metx3puymp)" height="59.2207" id="gov.nasa.jpl.output.csv.CSVWriter" style="stroke: #A80036; stroke-width: 1.5;" width="526" x="6" y="126.78"/><ellipse cx="209.25" cy="145.9128" fill="#ADD1B2" rx="11" ry="11" style="stroke: #A80036; stroke-width: 1.0;"/><path d="M211.7231,152.0559 Q211.1421,152.3547 210.5029,152.5041 Q209.8638,152.6535 209.1582,152.6535 Q206.6514,152.6535 205.3315,151.0017 Q204.0117,149.3498 204.0117,146.2287 Q204.0117,143.0993 205.3315,141.4475 Q206.6514,139.7956 209.1582,139.7956 Q209.8638,139.7956 210.5112,139.945 Q211.1587,140.0945 211.7231,140.3933 L211.7231,143.1159 Q211.0923,142.5349 210.4988,142.2651 Q209.9053,141.9953 209.2744,141.9953 Q207.9297,141.9953 207.2449,143.062 Q206.5601,144.1286 206.5601,146.2287 Q206.5601,148.3205 207.2449,149.3872 Q207.9297,150.4538 209.2744,150.4538 Q209.9053,150.4538 210.4988,150.1841 Q211.0923,149.9143 211.7231,149.3332 Z "/><text fill="#000000" font-family="sans-serif" font-size="14" lengthAdjust="spacingAndGlyphs" textLength="68" x="251.25" y="145.3152">CSVWriter</text><text fill="#000000" font-family="sans-serif" font-size="10" lengthAdjust="spacingAndGlyphs" textLength="111" x="229.75" y="157.9363">gov.nasa.jpl.output.csv</text><line style="stroke: #A80036; stroke-width: 1.5;" x1="7" x2="531" y1="165.0456" y2="165.0456"/><ellipse cx="17" cy="176.0456" fill="#84BE84" rx="3" ry="3" style="stroke: #038048; stroke-width: 1.0;"/><text fill="#000000" font-family="sans-serif" font-size="11" lengthAdjust="spacingAndGlyphs" textLength="500" x="26" y="179.6804">writeFileContents(ActivityInstanceList, ResourceList, ConstraintInstanceList, Time, Time): void</text></a><!--MD5=[b6cc7f9733b3bb21e0572bab9cf3c83b]
class gov.nasa.jpl.output.TOLWriter--><a href="../TOLWriter.html" target="_top" title="../TOLWriter.html" xlink:actuate="onRequest" xlink:href="../TOLWriter.html" xlink:show="new" xlink:title="../TOLWriter.html" xlink:type="simple"><rect fill="#FEFECE" filter="url(#f1j7metx3puymp)" height="59.2207" id="gov.nasa.jpl.output.TOLWriter" style="stroke: #A80036; stroke-width: 1.5;" width="526" x="6" y="7.56"/><ellipse cx="218.25" cy="26.6928" fill="#A9DCDF" rx="11" ry="11" style="stroke: #A80036; stroke-width: 1.0;"/><path d="M218.1133,22.041 L216.9595,27.1127 L219.2754,27.1127 Z M216.6191,19.7997 L219.6157,19.7997 L222.9609,32.1928 L220.5122,32.1928 L219.7485,29.1298 L216.4697,29.1298 L215.7227,32.1928 L213.2739,32.1928 Z "/><text fill="#000000" font-family="sans-serif" font-size="14" font-style="italic" lengthAdjust="spacingAndGlyphs" textLength="68" x="251.25" y="26.0952">TOLWriter</text><text fill="#000000" font-family="sans-serif" font-size="10" font-style="italic" lengthAdjust="spacingAndGlyphs" textLength="93" x="238.75" y="38.7163">gov.nasa.jpl.output</text><line style="stroke: #A80036; stroke-width: 1.5;" x1="7" x2="531" y1="45.8256" y2="45.8256"/><ellipse cx="17" cy="56.8256" fill="#84BE84" rx="3" ry="3" style="stroke: #038048; stroke-width: 1.0;"/><text fill="#000000" font-family="sans-serif" font-size="11" font-style="italic" lengthAdjust="spacingAndGlyphs" textLength="500" x="26" y="60.4604">writeFileContents(ActivityInstanceList, ResourceList, ConstraintInstanceList, Time, Time): void</text></a><!--MD5=[98d6b40dd3b89c925d08d4f4a63ab0d9]
reverse link gov.nasa.jpl.output.TOLWriter to gov.nasa.jpl.output.csv.CSVWriter--><path d="M269,88.56 C269,101.47 269,114.92 269,126.34 " fill="none" id="gov.nasa.jpl.output.TOLWriter&lt;-gov.nasa.jpl.output.csv.CSVWriter" style="stroke: #A80036; stroke-width: 1.0;"/><polygon fill="none" points="262,88.66,269,68.66,276,88.66,262,88.66" style="stroke: #A80036; stroke-width: 1.0;"/><text fill="#888888" font-family="sans-serif" font-size="10" lengthAdjust="spacingAndGlyphs" textLength="182" x="184" y="205.668">UMLDoclet 2.0.8, PlantUML 1.2020.01</text><!--MD5=[a8ce7d779db0b799f8d98c93f9ee38d3]
@startuml
    set namespaceSeparator none
    hide empty fields
    hide empty methods

    class "<size:14>CSVWriter\n<size:10>gov.nasa.jpl.output.csv" as gov.nasa.jpl.output.csv.CSVWriter [[CSVWriter.html]] {
        +writeFileContents(ActivityInstanceList, ResourceList, ConstraintInstanceList, Time, Time): void
    }

    abstract class "<size:14>TOLWriter\n<size:10>gov.nasa.jpl.output" as gov.nasa.jpl.output.TOLWriter [[../TOLWriter.html]] {
        {abstract} +writeFileContents(ActivityInstanceList, ResourceList, ConstraintInstanceList, Time, Time): void
    }

    gov.nasa.jpl.output.TOLWriter <|- - gov.nasa.jpl.output.csv.CSVWriter

    center footer UMLDoclet 2.0.8, PlantUML 1.2020.01
@enduml

PlantUML version 1.2020.01(Sun Feb 16 09:40:32 PST 2020)
(APACHE source distribution)
Java Runtime: OpenJDK Runtime Environment
JVM: OpenJDK 64-Bit Server VM
Java Version: 17.0.6+10
Operating System: Mac OS X
Default Encoding: UTF-8
Language: en
Country: US
--></g></svg>