<?xml version="1.0" encoding="UTF-8" standalone="no"?><svg xmlns="http://www.w3.org/2000/svg" xmlns:xlink="http://www.w3.org/1999/xlink" contentScriptType="application/ecmascript" contentStyleType="text/css" height="334px" preserveAspectRatio="none" style="width:602px;height:334px;" version="1.1" viewBox="0 0 602 334" width="602px" zoomAndPan="magnify"><defs><filter height="300%" id="fcqenzz8g9f8p" width="300%" x="-1" y="-1"><feGaussianBlur result="blurOut" stdDeviation="2.0"/><feColorMatrix in="blurOut" result="blurOut2" type="matrix" values="0 0 0 0 0 0 0 0 0 0 0 0 0 0 0 0 0 0 .4 0"/><feOffset dx="4.0" dy="4.0" in="blurOut2" result="blurOut3"/><feBlend in="SourceGraphic" in2="blurOut3" mode="normal"/></filter></defs><g><!--MD5=[ce6d7180b6cd3c1a214b319aabbecd43]
cluster gov.nasa.jpl.output.csv--><polygon fill="#FFFFFF" filter="url(#fcqenzz8g9f8p)" points="22,173.04,189,173.04,196,195.5283,580,195.5283,580,285,22,285,22,173.04" style="stroke: #000000; stroke-width: 1.5;"/><line style="stroke: #000000; stroke-width: 1.5;" x1="22" x2="196" y1="195.5283" y2="195.5283"/><text fill="#000000" font-family="sans-serif" font-size="14" font-weight="bold" lengthAdjust="spacingAndGlyphs" textLength="161" x="26" y="188.5752">gov.nasa.jpl.output.csv</text><!--MD5=[cb5a179ecf6a11d0f02d866f599a72d1]
cluster gov.nasa.jpl.output--><polygon fill="#FFFFFF" filter="url(#fcqenzz8g9f8p)" points="22,24.13,163,24.13,170,46.6183,580,46.6183,580,149.04,22,149.04,22,24.13" style="stroke: #000000; stroke-width: 1.5;"/><line style="stroke: #000000; stroke-width: 1.5;" x1="22" x2="170" y1="46.6183" y2="46.6183"/><text fill="#000000" font-family="sans-serif" font-size="14" font-weight="bold" lengthAdjust="spacingAndGlyphs" textLength="135" x="26" y="39.6652">gov.nasa.jpl.output</text><!--MD5=[d36c200e2e0804c1f5368c3ade752dbb]
class gov.nasa.jpl.output.csv.CSVWriter--><a href="CSVWriter.html" target="_top" title="CSVWriter.html" xlink:actuate="onRequest" xlink:href="CSVWriter.html" xlink:show="new" xlink:title="CSVWriter.html" xlink:type="simple"><rect fill="#FEFECE" filter="url(#fcqenzz8g9f8p)" height="60.9551" id="gov.nasa.jpl.output.csv.CSVWriter" style="stroke: #A80036; stroke-width: 1.5;" width="526" x="38" y="208.04"/><ellipse cx="268.75" cy="224.04" fill="#ADD1B2" rx="11" ry="11" style="stroke: #A80036; stroke-width: 1.0;"/><path d="M271.2231,230.1831 Q270.6421,230.4819 270.0029,230.6313 Q269.3638,230.7807 268.6582,230.7807 Q266.1514,230.7807 264.8315,229.1289 Q263.5117,227.477 263.5117,224.3559 Q263.5117,221.2265 264.8315,219.5747 Q266.1514,217.9228 268.6582,217.9228 Q269.3638,217.9228 270.0112,218.0722 Q270.6587,218.2216 271.2231,218.5205 L271.2231,221.2431 Q270.5923,220.6621 269.9988,220.3923 Q269.4053,220.1225 268.7744,220.1225 Q267.4297,220.1225 266.7449,221.1892 Q266.0601,222.2558 266.0601,224.3559 Q266.0601,226.4477 266.7449,227.5144 Q267.4297,228.581 268.7744,228.581 Q269.4053,228.581 269.9988,228.3112 Q270.5923,228.0415 271.2231,227.4604 Z "/><text fill="#000000" font-family="sans-serif" font-size="12" lengthAdjust="spacingAndGlyphs" textLength="56" x="289.25" y="228.5752">CSVWriter</text><line style="stroke: #A80036; stroke-width: 1.5;" x1="39" x2="563" y1="240.04" y2="240.04"/><line style="stroke: #A80036; stroke-width: 1.5;" x1="39" x2="563" y1="248.04" y2="248.04"/><ellipse cx="49" cy="259.04" fill="#84BE84" rx="3" ry="3" style="stroke: #038048; stroke-width: 1.0;"/><text fill="#000000" font-family="sans-serif" font-size="11" lengthAdjust="spacingAndGlyphs" textLength="500" x="58" y="262.6748">writeFileContents(ActivityInstanceList, ResourceList, ConstraintInstanceList, Time, Time): void</text></a><!--MD5=[b6cc7f9733b3bb21e0572bab9cf3c83b]
class gov.nasa.jpl.output.TOLWriter--><a href="../TOLWriter.html" target="_top" title="../TOLWriter.html" xlink:actuate="onRequest" xlink:href="../TOLWriter.html" xlink:show="new" xlink:title="../TOLWriter.html" xlink:type="simple"><rect fill="#FEFECE" filter="url(#fcqenzz8g9f8p)" height="73.9102" id="gov.nasa.jpl.output.TOLWriter" style="stroke: #A80036; stroke-width: 1.5;" width="526" x="38" y="59.13"/><ellipse cx="268.25" cy="75.13" fill="#A9DCDF" rx="11" ry="11" style="stroke: #A80036; stroke-width: 1.0;"/><path d="M268.1133,70.4781 L266.9595,75.5499 L269.2754,75.5499 Z M266.6191,68.2369 L269.6157,68.2369 L272.9609,80.63 L270.5122,80.63 L269.7485,77.567 L266.4697,77.567 L265.7227,80.63 L263.2739,80.63 Z "/><text fill="#000000" font-family="sans-serif" font-size="12" font-style="italic" lengthAdjust="spacingAndGlyphs" textLength="57" x="288.75" y="79.6652">TOLWriter</text><line style="stroke: #A80036; stroke-width: 1.5;" x1="39" x2="563" y1="91.13" y2="91.13"/><polygon fill="none" points="49,97.13,53,101.13,49,105.13,45,101.13" style="stroke: #B38D22; stroke-width: 1.0;"/><text fill="#000000" font-family="sans-serif" font-size="11" lengthAdjust="spacingAndGlyphs" textLength="94" x="58" y="105.7648">writer: PrintWriter</text><line style="stroke: #A80036; stroke-width: 1.5;" x1="39" x2="563" y1="112.0851" y2="112.0851"/><ellipse cx="49" cy="123.0851" fill="#84BE84" rx="3" ry="3" style="stroke: #038048; stroke-width: 1.0;"/><text fill="#000000" font-family="sans-serif" font-size="11" font-style="italic" lengthAdjust="spacingAndGlyphs" textLength="500" x="58" y="126.7198">writeFileContents(ActivityInstanceList, ResourceList, ConstraintInstanceList, Time, Time): void</text></a><!--MD5=[98d6b40dd3b89c925d08d4f4a63ab0d9]
reverse link gov.nasa.jpl.output.TOLWriter to gov.nasa.jpl.output.csv.CSVWriter--><path d="M301,154.55 C301,172.77 301,192.18 301,207.64 " fill="none" id="gov.nasa.jpl.output.TOLWriter&lt;-gov.nasa.jpl.output.csv.CSVWriter" style="stroke: #A80036; stroke-width: 1.0;"/><polygon fill="none" points="294,154.77,301,134.77,308,154.77,294,154.77" style="stroke: #A80036; stroke-width: 1.0;"/><text fill="#888888" font-family="sans-serif" font-size="10" lengthAdjust="spacingAndGlyphs" textLength="182" x="216" y="320.668">UMLDoclet 2.0.8, PlantUML 1.2020.01</text><!--MD5=[021c699d591105e6ea7998840f7ec195]
@startuml
    namespace gov.nasa.jpl.output.csv {

        class CSVWriter [[CSVWriter.html]] {
            +writeFileContents(ActivityInstanceList, ResourceList, ConstraintInstanceList, Time, Time): void
        }

        gov.nasa.jpl.output.TOLWriter <|- - CSVWriter
    }

    namespace gov.nasa.jpl.output {
        abstract class TOLWriter [[../TOLWriter.html]] {
            #writer: PrintWriter
            {abstract} +writeFileContents(ActivityInstanceList, ResourceList, ConstraintInstanceList, Time, Time): void
        }
    }

    center footer UMLDoclet 2.0.8, PlantUML 1.2020.01
@enduml

PlantUML version 1.2020.01(Sun Feb 16 09:40:32 PST 2020)
(APACHE source distribution)
Java Runtime: OpenJDK Runtime Environment
JVM: OpenJDK 64-Bit Server VM
Java Version: 17.0.6+10
Operating System: Mac OS X
Default Encoding: UTF-8
Language: en
Country: US
--></g></svg>