<?xml version="1.0" encoding="UTF-8" standalone="no"?><svg xmlns="http://www.w3.org/2000/svg" xmlns:xlink="http://www.w3.org/1999/xlink" contentScriptType="application/ecmascript" contentStyleType="text/css" height="1220px" preserveAspectRatio="none" style="width:1924px;height:1220px;" version="1.1" viewBox="0 0 1924 1220" width="1924px" zoomAndPan="magnify"><defs><filter height="300%" id="frougydig3b1w" width="300%" x="-1" y="-1"><feGaussianBlur result="blurOut" stdDeviation="2.0"/><feColorMatrix in="blurOut" result="blurOut2" type="matrix" values="0 0 0 0 0 0 0 0 0 0 0 0 0 0 0 0 0 0 .4 0"/><feOffset dx="4.0" dy="4.0" in="blurOut2" result="blurOut3"/><feBlend in="SourceGraphic" in2="blurOut3" mode="normal"/></filter></defs><g><!--MD5=[50e7ce2d696d903121fc0d72863c7982]
cluster gov.nasa.jpl.activity--><polygon fill="#FFFFFF" filter="url(#frougydig3b1w)" points="22,169.22,168,169.22,175,191.7083,1902,191.7083,1902,1171,22,1171,22,169.22" style="stroke: #000000; stroke-width: 1.5;"/><line style="stroke: #000000; stroke-width: 1.5;" x1="22" x2="175" y1="191.7083" y2="191.7083"/><text fill="#000000" font-family="sans-serif" font-size="14" font-weight="bold" lengthAdjust="spacingAndGlyphs" textLength="140" x="26" y="184.7552">gov.nasa.jpl.activity</text><!--MD5=[aa8f7b917213fcc1c2766e2d59b49067]
cluster java.lang--><polygon fill="#FFFFFF" filter="url(#frougydig3b1w)" points="110,24.27,179,24.27,186,46.7583,264,46.7583,264,136.22,110,136.22,110,24.27" style="stroke: #000000; stroke-width: 1.5;"/><line style="stroke: #000000; stroke-width: 1.5;" x1="110" x2="186" y1="46.7583" y2="46.7583"/><text fill="#000000" font-family="sans-serif" font-size="14" font-weight="bold" lengthAdjust="spacingAndGlyphs" textLength="63" x="114" y="39.8052">java.lang</text><!--MD5=[6a39a39c47fb706f08052322cf4a8af1]
cluster java.beans--><polygon fill="#FFFFFF" filter="url(#frougydig3b1w)" points="288,24.27,368,24.27,375,46.7583,586,46.7583,586,136.22,288,136.22,288,24.27" style="stroke: #000000; stroke-width: 1.5;"/><line style="stroke: #000000; stroke-width: 1.5;" x1="288" x2="375" y1="46.7583" y2="46.7583"/><text fill="#000000" font-family="sans-serif" font-size="14" font-weight="bold" lengthAdjust="spacingAndGlyphs" textLength="74" x="292" y="39.8052">java.beans</text><!--MD5=[9fb577203c08bfd183ae1eb5c832aad4]
class gov.nasa.jpl.activity.Activity--><a href="Activity.html" target="_top" title="Activity.html" xlink:actuate="onRequest" xlink:href="Activity.html" xlink:show="new" xlink:title="Activity.html" xlink:type="simple"><rect fill="#FEFECE" filter="url(#frougydig3b1w)" height="721.6641" id="gov.nasa.jpl.activity.Activity" style="stroke: #A80036; stroke-width: 1.5;" width="515" x="62.5" y="224.22"/><ellipse cx="295.75" cy="240.22" fill="#ADD1B2" rx="11" ry="11" style="stroke: #A80036; stroke-width: 1.0;"/><path d="M298.2231,246.3631 Q297.6421,246.6619 297.0029,246.8113 Q296.3638,246.9607 295.6582,246.9607 Q293.1514,246.9607 291.8315,245.3089 Q290.5117,243.657 290.5117,240.5359 Q290.5117,237.4065 291.8315,235.7547 Q293.1514,234.1028 295.6582,234.1028 Q296.3638,234.1028 297.0112,234.2522 Q297.6587,234.4016 298.2231,234.7005 L298.2231,237.4231 Q297.5923,236.8421 296.9988,236.5723 Q296.4053,236.3025 295.7744,236.3025 Q294.4297,236.3025 293.7449,237.3692 Q293.0601,238.4358 293.0601,240.5359 Q293.0601,242.6277 293.7449,243.6944 Q294.4297,244.761 295.7744,244.761 Q296.4053,244.761 296.9988,244.4912 Q297.5923,244.2215 298.2231,243.6404 Z "/><text fill="#000000" font-family="sans-serif" font-size="12" lengthAdjust="spacingAndGlyphs" textLength="40" x="316.25" y="244.7552">Activity</text><line style="stroke: #A80036; stroke-width: 1.5;" x1="63.5" x2="576.5" y1="256.22" y2="256.22"/><line style="stroke: #A80036; stroke-width: 1.5;" x1="63.5" x2="576.5" y1="264.22" y2="264.22"/><ellipse cx="73.5" cy="275.22" fill="#84BE84" rx="3" ry="3" style="stroke: #038048; stroke-width: 1.0;"/><text fill="#000000" font-family="sans-serif" font-size="11" lengthAdjust="spacingAndGlyphs" textLength="124" x="82.5" y="278.8548">Activity(Time, Object...)</text><ellipse cx="73.5" cy="288.1751" fill="#84BE84" rx="3" ry="3" style="stroke: #038048; stroke-width: 1.0;"/><text fill="#000000" font-family="sans-serif" font-size="11" lengthAdjust="spacingAndGlyphs" textLength="99" x="82.5" y="291.8098">decompose(): void</text><ellipse cx="73.5" cy="301.1302" fill="#84BE84" rx="3" ry="3" style="stroke: #038048; stroke-width: 1.0;"/><text fill="#000000" font-family="sans-serif" font-size="11" lengthAdjust="spacingAndGlyphs" textLength="106" x="82.5" y="304.7649">modelFunc(): Waiter</text><ellipse cx="73.5" cy="314.0852" fill="#84BE84" rx="3" ry="3" style="stroke: #038048; stroke-width: 1.0;"/><text fill="#000000" font-family="sans-serif" font-size="11" lengthAdjust="spacingAndGlyphs" textLength="70" x="82.5" y="317.72">model(): void</text><ellipse cx="73.5" cy="327.0403" fill="#84BE84" rx="3" ry="3" style="stroke: #038048; stroke-width: 1.0;"/><text fill="#000000" font-family="sans-serif" font-size="11" lengthAdjust="spacingAndGlyphs" textLength="88" x="82.5" y="330.6751">sequence(): void</text><ellipse cx="73.5" cy="339.9954" fill="#84BE84" rx="3" ry="3" style="stroke: #038048; stroke-width: 1.0;"/><text fill="#000000" font-family="sans-serif" font-size="11" lengthAdjust="spacingAndGlyphs" textLength="136" x="82.5" y="343.6302">setCondition(): Condition</text><ellipse cx="73.5" cy="352.9505" fill="#84BE84" rx="3" ry="3" style="stroke: #038048; stroke-width: 1.0;"/><text fill="#000000" font-family="sans-serif" font-size="11" lengthAdjust="spacingAndGlyphs" textLength="135" x="82.5" y="356.5852">setInitialCondition(): void</text><ellipse cx="73.5" cy="365.9055" fill="#84BE84" rx="3" ry="3" style="stroke: #038048; stroke-width: 1.0;"/><text fill="#000000" font-family="sans-serif" font-size="11" lengthAdjust="spacingAndGlyphs" textLength="111" x="82.5" y="369.5403">spawn(Activity): void</text><ellipse cx="73.5" cy="378.8606" fill="#84BE84" rx="3" ry="3" style="stroke: #038048; stroke-width: 1.0;"/><text fill="#000000" font-family="sans-serif" font-size="11" lengthAdjust="spacingAndGlyphs" textLength="203" x="82.5" y="382.4954">spawnWithNotes(Activity, String): void</text><ellipse cx="73.5" cy="391.8157" fill="#84BE84" rx="3" ry="3" style="stroke: #038048; stroke-width: 1.0;"/><text fill="#000000" font-family="sans-serif" font-size="11" lengthAdjust="spacingAndGlyphs" textLength="115" x="82.5" y="395.4505">deleteChildren(): void</text><ellipse cx="73.5" cy="404.7708" fill="#84BE84" rx="3" ry="3" style="stroke: #038048; stroke-width: 1.0;"/><text fill="#000000" font-family="sans-serif" font-size="11" lengthAdjust="spacingAndGlyphs" textLength="215" x="82.5" y="408.4055">removeChildrenFromInstanceList(): void</text><ellipse cx="73.5" cy="417.7259" fill="#84BE84" rx="3" ry="3" style="stroke: #038048; stroke-width: 1.0;"/><text fill="#000000" font-family="sans-serif" font-size="11" lengthAdjust="spacingAndGlyphs" textLength="181" x="82.5" y="421.3606">addChildrenToInstanceList(): void</text><ellipse cx="73.5" cy="430.6809" fill="#84BE84" rx="3" ry="3" style="stroke: #038048; stroke-width: 1.0;"/><text fill="#000000" font-family="sans-serif" font-size="11" lengthAdjust="spacingAndGlyphs" textLength="254" x="82.5" y="434.3157">clearChildrenArrayWithoutDeletingThem(): void</text><ellipse cx="73.5" cy="443.636" fill="#84BE84" rx="3" ry="3" style="stroke: #038048; stroke-width: 1.0;"/><text fill="#000000" font-family="sans-serif" font-size="11" lengthAdjust="spacingAndGlyphs" textLength="154" x="82.5" y="447.2708">isTopLevelActivity(): boolean</text><ellipse cx="73.5" cy="456.5911" fill="#84BE84" rx="3" ry="3" style="stroke: #038048; stroke-width: 1.0;"/><text fill="#000000" font-family="sans-serif" font-size="11" lengthAdjust="spacingAndGlyphs" textLength="109" x="82.5" y="460.2259">waitUntil(Time): void</text><ellipse cx="73.5" cy="469.5462" fill="#84BE84" rx="3" ry="3" style="stroke: #038048; stroke-width: 1.0;"/><text fill="#000000" font-family="sans-serif" font-size="11" lengthAdjust="spacingAndGlyphs" textLength="123" x="82.5" y="473.1809">waitFor(Duration): void</text><ellipse cx="73.5" cy="482.5013" fill="#84BE84" rx="3" ry="3" style="stroke: #038048; stroke-width: 1.0;"/><text fill="#000000" font-family="sans-serif" font-size="11" lengthAdjust="spacingAndGlyphs" textLength="139" x="82.5" y="486.136">waitForSignal(String): Map</text><ellipse cx="73.5" cy="495.4563" fill="#84BE84" rx="3" ry="3" style="stroke: #038048; stroke-width: 1.0;"/><text fill="#000000" font-family="sans-serif" font-size="11" lengthAdjust="spacingAndGlyphs" textLength="220" x="82.5" y="499.0911">waitUntil(Time, Supplier&lt;Waiter&gt;): Waiter</text><ellipse cx="73.5" cy="508.4114" fill="#84BE84" rx="3" ry="3" style="stroke: #038048; stroke-width: 1.0;"/><text fill="#000000" font-family="sans-serif" font-size="11" lengthAdjust="spacingAndGlyphs" textLength="175" x="82.5" y="512.0462">waitUntil(Time, Runnable): Waiter</text><ellipse cx="73.5" cy="521.3665" fill="#84BE84" rx="3" ry="3" style="stroke: #038048; stroke-width: 1.0;"/><text fill="#000000" font-family="sans-serif" font-size="11" lengthAdjust="spacingAndGlyphs" textLength="489" x="82.5" y="525.0013">waitLoop(Time, Time, Duration, BiConsumer&lt;Time, Time&gt;, Function&lt;Time, Waiter&gt;): Waiter</text><ellipse cx="73.5" cy="534.3216" fill="#84BE84" rx="3" ry="3" style="stroke: #038048; stroke-width: 1.0;"/><text fill="#000000" font-family="sans-serif" font-size="11" lengthAdjust="spacingAndGlyphs" textLength="459" x="82.5" y="537.9563">waitLoop(Time, Time, Duration, BiConsumer&lt;Time, Time&gt;, Consumer&lt;Time&gt;): Waiter</text><ellipse cx="73.5" cy="547.2766" fill="#84BE84" rx="3" ry="3" style="stroke: #038048; stroke-width: 1.0;"/><text fill="#000000" font-family="sans-serif" font-size="11" lengthAdjust="spacingAndGlyphs" textLength="418" x="82.5" y="550.9114">waitLoop(Time, Time, Duration, Consumer&lt;Time&gt;, Consumer&lt;Time&gt;): Waiter</text><ellipse cx="73.5" cy="560.2317" fill="#84BE84" rx="3" ry="3" style="stroke: #038048; stroke-width: 1.0;"/><text fill="#000000" font-family="sans-serif" font-size="11" lengthAdjust="spacingAndGlyphs" textLength="312" x="82.5" y="563.8665">waitLoop(Time, Time, Duration, Consumer&lt;Time&gt;): Waiter</text><ellipse cx="73.5" cy="573.1868" fill="#84BE84" rx="3" ry="3" style="stroke: #038048; stroke-width: 1.0;"/><text fill="#000000" font-family="sans-serif" font-size="11" lengthAdjust="spacingAndGlyphs" textLength="353" x="82.5" y="576.8216">waitLoop(Time, Time, Duration, BiConsumer&lt;Time, Time&gt;): Waiter</text><ellipse cx="73.5" cy="586.1419" fill="#84BE84" rx="3" ry="3" style="stroke: #038048; stroke-width: 1.0;"/><text fill="#000000" font-family="sans-serif" font-size="11" lengthAdjust="spacingAndGlyphs" textLength="234" x="82.5" y="589.7766">waitFor(Duration, Supplier&lt;Waiter&gt;): Waiter</text><ellipse cx="73.5" cy="599.097" fill="#84BE84" rx="3" ry="3" style="stroke: #038048; stroke-width: 1.0;"/><text fill="#000000" font-family="sans-serif" font-size="11" lengthAdjust="spacingAndGlyphs" textLength="189" x="82.5" y="602.7317">waitFor(Duration, Runnable): Waiter</text><ellipse cx="73.5" cy="612.052" fill="#84BE84" rx="3" ry="3" style="stroke: #038048; stroke-width: 1.0;"/><text fill="#000000" font-family="sans-serif" font-size="11" lengthAdjust="spacingAndGlyphs" textLength="252" x="82.5" y="615.6868">waitForSignal(String, Consumer&lt;Map&gt;): Waiter</text><ellipse cx="73.5" cy="625.0071" fill="#84BE84" rx="3" ry="3" style="stroke: #038048; stroke-width: 1.0;"/><text fill="#000000" font-family="sans-serif" font-size="11" lengthAdjust="spacingAndGlyphs" textLength="282" x="82.5" y="628.6419">waitForSignal(String, Function&lt;Map, Waiter&gt;): Waiter</text><ellipse cx="73.5" cy="637.9622" fill="#84BE84" rx="3" ry="3" style="stroke: #038048; stroke-width: 1.0;"/><text fill="#000000" font-family="sans-serif" font-size="11" lengthAdjust="spacingAndGlyphs" textLength="85" x="82.5" y="641.597">schedule(): void</text><ellipse cx="73.5" cy="650.9173" fill="#84BE84" rx="3" ry="3" style="stroke: #038048; stroke-width: 1.0;"/><text fill="#000000" font-family="sans-serif" font-size="11" lengthAdjust="spacingAndGlyphs" textLength="120" x="82.5" y="654.552">stopScheduling(): void</text><ellipse cx="73.5" cy="663.8723" fill="#84BE84" rx="3" ry="3" style="stroke: #038048; stroke-width: 1.0;"/><text fill="#000000" font-family="sans-serif" font-size="11" lengthAdjust="spacingAndGlyphs" textLength="147" x="82.5" y="667.5071">setDuration(Duration): void</text><ellipse cx="73.5" cy="676.8274" fill="#84BE84" rx="3" ry="3" style="stroke: #038048; stroke-width: 1.0;"/><text fill="#000000" font-family="sans-serif" font-size="11" lengthAdjust="spacingAndGlyphs" textLength="210" x="82.5" y="680.4622">setEndByChangingDuration(Time): void</text><ellipse cx="73.5" cy="689.7825" fill="#84BE84" rx="3" ry="3" style="stroke: #038048; stroke-width: 1.0;"/><text fill="#000000" font-family="sans-serif" font-size="11" lengthAdjust="spacingAndGlyphs" textLength="115" x="82.5" y="693.4173">setName(String): void</text><ellipse cx="73.5" cy="702.7376" fill="#84BE84" rx="3" ry="3" style="stroke: #038048; stroke-width: 1.0;"/><text fill="#000000" font-family="sans-serif" font-size="11" lengthAdjust="spacingAndGlyphs" textLength="82" x="82.5" y="706.3723">getStart(): Time</text><ellipse cx="73.5" cy="715.6927" fill="#84BE84" rx="3" ry="3" style="stroke: #038048; stroke-width: 1.0;"/><text fill="#000000" font-family="sans-serif" font-size="11" lengthAdjust="spacingAndGlyphs" textLength="77" x="82.5" y="719.3274">getEnd(): Time</text><ellipse cx="73.5" cy="728.6477" fill="#84BE84" rx="3" ry="3" style="stroke: #038048; stroke-width: 1.0;"/><text fill="#000000" font-family="sans-serif" font-size="11" lengthAdjust="spacingAndGlyphs" textLength="113" x="82.5" y="732.2825">getWindow(): Window</text><ellipse cx="73.5" cy="741.6028" fill="#84BE84" rx="3" ry="3" style="stroke: #038048; stroke-width: 1.0;"/><text fill="#000000" font-family="sans-serif" font-size="11" lengthAdjust="spacingAndGlyphs" textLength="125" x="82.5" y="745.2376">getDuration(): Duration</text><ellipse cx="73.5" cy="754.5579" fill="#84BE84" rx="3" ry="3" style="stroke: #038048; stroke-width: 1.0;"/><text fill="#000000" font-family="sans-serif" font-size="11" lengthAdjust="spacingAndGlyphs" textLength="93" x="82.5" y="758.1927">getName(): String</text><ellipse cx="73.5" cy="767.513" fill="#84BE84" rx="3" ry="3" style="stroke: #038048; stroke-width: 1.0;"/><text fill="#000000" font-family="sans-serif" font-size="11" lengthAdjust="spacingAndGlyphs" textLength="97" x="82.5" y="771.1477">getGroup(): String</text><ellipse cx="73.5" cy="780.468" fill="#84BE84" rx="3" ry="3" style="stroke: #038048; stroke-width: 1.0;"/><text fill="#000000" font-family="sans-serif" font-size="11" lengthAdjust="spacingAndGlyphs" textLength="119" x="82.5" y="784.1028">setGroup(String): void</text><ellipse cx="73.5" cy="793.4231" fill="#84BE84" rx="3" ry="3" style="stroke: #038048; stroke-width: 1.0;"/><text fill="#000000" font-family="sans-serif" font-size="11" lengthAdjust="spacingAndGlyphs" textLength="94" x="82.5" y="797.0579">getNotes(): String</text><ellipse cx="73.5" cy="806.3782" fill="#84BE84" rx="3" ry="3" style="stroke: #038048; stroke-width: 1.0;"/><text fill="#000000" font-family="sans-serif" font-size="11" lengthAdjust="spacingAndGlyphs" textLength="116" x="82.5" y="810.013">setNotes(String): void</text><ellipse cx="73.5" cy="819.3333" fill="#84BE84" rx="3" ry="3" style="stroke: #038048; stroke-width: 1.0;"/><text fill="#000000" font-family="sans-serif" font-size="11" lengthAdjust="spacingAndGlyphs" text-decoration="underline" textLength="62" x="82.5" y="822.968">now(): Time</text><ellipse cx="73.5" cy="832.2884" fill="#84BE84" rx="3" ry="3" style="stroke: #038048; stroke-width: 1.0;"/><text fill="#000000" font-family="sans-serif" font-size="11" lengthAdjust="spacingAndGlyphs" textLength="89" x="82.5" y="835.9231">getType(): String</text><ellipse cx="73.5" cy="845.2434" fill="#84BE84" rx="3" ry="3" style="stroke: #038048; stroke-width: 1.0;"/><text fill="#000000" font-family="sans-serif" font-size="11" lengthAdjust="spacingAndGlyphs" textLength="129" x="82.5" y="848.8782">compareTo(Activity): int</text><ellipse cx="73.5" cy="858.1985" fill="#84BE84" rx="3" ry="3" style="stroke: #038048; stroke-width: 1.0;"/><text fill="#000000" font-family="sans-serif" font-size="11" lengthAdjust="spacingAndGlyphs" textLength="111" x="82.5" y="861.8333">detachThread(): void</text><ellipse cx="73.5" cy="871.1536" fill="#84BE84" rx="3" ry="3" style="stroke: #038048; stroke-width: 1.0;"/><text fill="#000000" font-family="sans-serif" font-size="11" lengthAdjust="spacingAndGlyphs" textLength="169" x="82.5" y="874.7884">getParameterObjects(): Object[]</text><ellipse cx="73.5" cy="884.1087" fill="#84BE84" rx="3" ry="3" style="stroke: #038048; stroke-width: 1.0;"/><text fill="#000000" font-family="sans-serif" font-size="11" lengthAdjust="spacingAndGlyphs" textLength="91" x="82.5" y="887.7434">setID(UUID): void</text><ellipse cx="73.5" cy="897.0638" fill="#84BE84" rx="3" ry="3" style="stroke: #038048; stroke-width: 1.0;"/><text fill="#000000" font-family="sans-serif" font-size="11" lengthAdjust="spacingAndGlyphs" textLength="69" x="82.5" y="900.6985">getID(): UUID</text><ellipse cx="73.5" cy="910.0188" fill="#84BE84" rx="3" ry="3" style="stroke: #038048; stroke-width: 1.0;"/><text fill="#000000" font-family="sans-serif" font-size="11" lengthAdjust="spacingAndGlyphs" textLength="106" x="82.5" y="913.6536">getIDString(): String</text><ellipse cx="73.5" cy="922.9739" fill="#84BE84" rx="3" ry="3" style="stroke: #038048; stroke-width: 1.0;"/><text fill="#000000" font-family="sans-serif" font-size="11" lengthAdjust="spacingAndGlyphs" textLength="166" x="82.5" y="926.6087">getCondition(Class): Condition</text><ellipse cx="73.5" cy="935.929" fill="#84BE84" rx="3" ry="3" style="stroke: #038048; stroke-width: 1.0;"/><text fill="#000000" font-family="sans-serif" font-size="11" lengthAdjust="spacingAndGlyphs" textLength="241" x="82.5" y="939.5638">propertyChange(PropertyChangeEvent): void</text></a><!--MD5=[30b293e214542359276a3b07d9360c0c]
class gov.nasa.jpl.activity.InitialConditionActivity--><a href="InitialConditionActivity.html" target="_top" title="InitialConditionActivity.html" xlink:actuate="onRequest" xlink:href="InitialConditionActivity.html" xlink:show="new" xlink:title="InitialConditionActivity.html" xlink:type="simple"><rect fill="#FEFECE" filter="url(#frougydig3b1w)" height="73.9102" id="gov.nasa.jpl.activity.InitialConditionActivity" style="stroke: #A80036; stroke-width: 1.5;" width="331" x="75.5" y="1061.66"/><ellipse cx="174.75" cy="1077.66" fill="#ADD1B2" rx="11" ry="11" style="stroke: #A80036; stroke-width: 1.0;"/><path d="M177.2231,1083.8031 Q176.6421,1084.1019 176.0029,1084.2513 Q175.3638,1084.4007 174.6582,1084.4007 Q172.1514,1084.4007 170.8315,1082.7489 Q169.5117,1081.097 169.5117,1077.9759 Q169.5117,1074.8465 170.8315,1073.1947 Q172.1514,1071.5428 174.6582,1071.5428 Q175.3638,1071.5428 176.0112,1071.6922 Q176.6587,1071.8416 177.2231,1072.1405 L177.2231,1074.8631 Q176.5923,1074.2821 175.9988,1074.0123 Q175.4053,1073.7425 174.7744,1073.7425 Q173.4297,1073.7425 172.7449,1074.8092 Q172.0601,1075.8758 172.0601,1077.9759 Q172.0601,1080.0677 172.7449,1081.1344 Q173.4297,1082.201 174.7744,1082.201 Q175.4053,1082.201 175.9988,1081.9312 Q176.5923,1081.6615 177.2231,1081.0804 Z "/><text fill="#000000" font-family="sans-serif" font-size="12" lengthAdjust="spacingAndGlyphs" textLength="124" x="195.25" y="1082.1952">InitialConditionActivity</text><line style="stroke: #A80036; stroke-width: 1.5;" x1="76.5" x2="405.5" y1="1093.66" y2="1093.66"/><line style="stroke: #A80036; stroke-width: 1.5;" x1="76.5" x2="405.5" y1="1101.66" y2="1101.66"/><ellipse cx="86.5" cy="1112.66" fill="#84BE84" rx="3" ry="3" style="stroke: #038048; stroke-width: 1.0;"/><text fill="#000000" font-family="sans-serif" font-size="11" lengthAdjust="spacingAndGlyphs" textLength="305" x="95.5" y="1116.2948">InitialConditionActivity(Time, Map&lt;String, Comparable&gt;)</text><ellipse cx="86.5" cy="1125.6151" fill="#84BE84" rx="3" ry="3" style="stroke: #038048; stroke-width: 1.0;"/><text fill="#000000" font-family="sans-serif" font-size="11" lengthAdjust="spacingAndGlyphs" textLength="70" x="95.5" y="1129.2498">model(): void</text></a><!--MD5=[b7acf32120c8307289b35b6480ae6867]
class gov.nasa.jpl.activity.ActivityTypeList--><a href="ActivityTypeList.html" target="_top" title="ActivityTypeList.html" xlink:actuate="onRequest" xlink:href="ActivityTypeList.html" xlink:show="new" xlink:title="ActivityTypeList.html" xlink:type="simple"><rect fill="#FEFECE" filter="url(#frougydig3b1w)" height="177.5508" id="gov.nasa.jpl.activity.ActivityTypeList" style="stroke: #A80036; stroke-width: 1.5;" width="368" x="787" y="495.95"/><ellipse cx="922.75" cy="511.95" fill="#ADD1B2" rx="11" ry="11" style="stroke: #A80036; stroke-width: 1.0;"/><path d="M925.2231,518.0931 Q924.6421,518.3919 924.0029,518.5413 Q923.3638,518.6907 922.6582,518.6907 Q920.1514,518.6907 918.8315,517.0389 Q917.5117,515.387 917.5117,512.2659 Q917.5117,509.1365 918.8315,507.4847 Q920.1514,505.8328 922.6582,505.8328 Q923.3638,505.8328 924.0112,505.9822 Q924.6587,506.1316 925.2231,506.4305 L925.2231,509.1531 Q924.5923,508.5721 923.9988,508.3023 Q923.4053,508.0325 922.7744,508.0325 Q921.4297,508.0325 920.7449,509.0992 Q920.0601,510.1658 920.0601,512.2659 Q920.0601,514.3577 920.7449,515.4244 Q921.4297,516.491 922.7744,516.491 Q923.4053,516.491 923.9988,516.2212 Q924.5923,515.9515 925.2231,515.3704 Z "/><text fill="#000000" font-family="sans-serif" font-size="12" lengthAdjust="spacingAndGlyphs" textLength="88" x="943.25" y="516.4852">ActivityTypeList</text><line style="stroke: #A80036; stroke-width: 1.5;" x1="788" x2="1154" y1="527.95" y2="527.95"/><line style="stroke: #A80036; stroke-width: 1.5;" x1="788" x2="1154" y1="535.95" y2="535.95"/><ellipse cx="798" cy="546.95" fill="#84BE84" rx="3" ry="3" style="stroke: #038048; stroke-width: 1.0;"/><text fill="#000000" font-family="sans-serif" font-size="11" lengthAdjust="spacingAndGlyphs" textLength="161" x="807" y="550.5848">getActivityClass(String): Class</text><ellipse cx="798" cy="559.9051" fill="#84BE84" rx="3" ry="3" style="stroke: #038048; stroke-width: 1.0;"/><text fill="#000000" font-family="sans-serif" font-size="11" lengthAdjust="spacingAndGlyphs" textLength="236" x="807" y="563.5398">getNamesOfAllDefinedTypes(): List&lt;String&gt;</text><ellipse cx="798" cy="572.8602" fill="#84BE84" rx="3" ry="3" style="stroke: #038048; stroke-width: 1.0;"/><text fill="#000000" font-family="sans-serif" font-size="11" lengthAdjust="spacingAndGlyphs" textLength="308" x="807" y="576.4949">getNamesOfAllTypesWithSubsystem(String): List&lt;String&gt;</text><ellipse cx="798" cy="585.8152" fill="#84BE84" rx="3" ry="3" style="stroke: #038048; stroke-width: 1.0;"/><text fill="#000000" font-family="sans-serif" font-size="11" lengthAdjust="spacingAndGlyphs" textLength="157" x="807" y="589.45">getDescription(String): String</text><ellipse cx="798" cy="598.7703" fill="#84BE84" rx="3" ry="3" style="stroke: #038048; stroke-width: 1.0;"/><text fill="#000000" font-family="sans-serif" font-size="11" lengthAdjust="spacingAndGlyphs" textLength="153" x="807" y="602.4051">getSubsystem(String): String</text><ellipse cx="798" cy="611.7254" fill="#84BE84" rx="3" ry="3" style="stroke: #038048; stroke-width: 1.0;"/><text fill="#000000" font-family="sans-serif" font-size="11" lengthAdjust="spacingAndGlyphs" textLength="193" x="807" y="615.3602">getParameterNames(String): String[]</text><ellipse cx="798" cy="624.6805" fill="#84BE84" rx="3" ry="3" style="stroke: #038048; stroke-width: 1.0;"/><text fill="#000000" font-family="sans-serif" font-size="11" lengthAdjust="spacingAndGlyphs" textLength="270" x="807" y="628.3152">getParameters(String): List&lt;Map&lt;String, String&gt;&gt;</text><ellipse cx="798" cy="637.6355" fill="#84BE84" rx="3" ry="3" style="stroke: #038048; stroke-width: 1.0;"/><text fill="#000000" font-family="sans-serif" font-size="11" lengthAdjust="spacingAndGlyphs" textLength="308" x="807" y="641.2703">addToObserverList(String, PropertyChangeListener): void</text><ellipse cx="798" cy="650.5906" fill="#84BE84" rx="3" ry="3" style="stroke: #038048; stroke-width: 1.0;"/><text fill="#000000" font-family="sans-serif" font-size="11" lengthAdjust="spacingAndGlyphs" textLength="342" x="807" y="654.2254">removeFromObserverList(String, PropertyChangeListener): void</text><ellipse cx="798" cy="663.5457" fill="#84BE84" rx="3" ry="3" style="stroke: #038048; stroke-width: 1.0;"/><text fill="#000000" font-family="sans-serif" font-size="11" lengthAdjust="spacingAndGlyphs" textLength="287" x="807" y="667.1805">propertyChangeForActivityType(String, Activity): void</text></a><!--MD5=[5947065d21a7528980cd39bde35604ef]
class gov.nasa.jpl.activity.ActivityInstanceList--><a href="ActivityInstanceList.html" target="_top" title="ActivityInstanceList.html" xlink:actuate="onRequest" xlink:href="ActivityInstanceList.html" xlink:show="new" xlink:title="ActivityInstanceList.html" xlink:type="simple"><rect fill="#FEFECE" filter="url(#frougydig3b1w)" height="294.1465" id="gov.nasa.jpl.activity.ActivityInstanceList" style="stroke: #A80036; stroke-width: 1.5;" width="497" x="1289.5" y="437.65"/><ellipse cx="1480.75" cy="453.65" fill="#ADD1B2" rx="11" ry="11" style="stroke: #A80036; stroke-width: 1.0;"/><path d="M1483.2231,459.7931 Q1482.6421,460.0919 1482.0029,460.2413 Q1481.3638,460.3907 1480.6582,460.3907 Q1478.1514,460.3907 1476.8315,458.7389 Q1475.5117,457.087 1475.5117,453.9659 Q1475.5117,450.8365 1476.8315,449.1847 Q1478.1514,447.5328 1480.6582,447.5328 Q1481.3638,447.5328 1482.0112,447.6822 Q1482.6587,447.8316 1483.2231,448.1305 L1483.2231,450.8531 Q1482.5923,450.2721 1481.9988,450.0023 Q1481.4053,449.7325 1480.7744,449.7325 Q1479.4297,449.7325 1478.7449,450.7992 Q1478.0601,451.8658 1478.0601,453.9659 Q1478.0601,456.0577 1478.7449,457.1244 Q1479.4297,458.191 1480.7744,458.191 Q1481.4053,458.191 1481.9988,457.9212 Q1482.5923,457.6515 1483.2231,457.0704 Z "/><text fill="#000000" font-family="sans-serif" font-size="12" lengthAdjust="spacingAndGlyphs" textLength="106" x="1501.25" y="458.1852">ActivityInstanceList</text><line style="stroke: #A80036; stroke-width: 1.5;" x1="1290.5" x2="1785.5" y1="469.65" y2="469.65"/><line style="stroke: #A80036; stroke-width: 1.5;" x1="1290.5" x2="1785.5" y1="477.65" y2="477.65"/><ellipse cx="1300.5" cy="488.65" fill="#84BE84" rx="3" ry="3" style="stroke: #038048; stroke-width: 1.0;"/><text fill="#000000" font-family="sans-serif" font-size="11" lengthAdjust="spacingAndGlyphs" textLength="195" x="1309.5" y="492.2848">prepareActivitiesForModeling(): void</text><ellipse cx="1300.5" cy="501.6051" fill="#84BE84" rx="3" ry="3" style="stroke: #038048; stroke-width: 1.0;"/><text fill="#000000" font-family="sans-serif" font-size="11" lengthAdjust="spacingAndGlyphs" textLength="208" x="1309.5" y="505.2398">prepareActivitiesForSequencing(): void</text><ellipse cx="1300.5" cy="514.5602" fill="#84BE84" rx="3" ry="3" style="stroke: #038048; stroke-width: 1.0;"/><text fill="#000000" font-family="sans-serif" font-size="11" lengthAdjust="spacingAndGlyphs" textLength="134" x="1309.5" y="518.1949">stopAllSchedulers(): void</text><ellipse cx="1300.5" cy="527.5152" fill="#84BE84" rx="3" ry="3" style="stroke: #038048; stroke-width: 1.0;"/><text fill="#000000" font-family="sans-serif" font-size="11" lengthAdjust="spacingAndGlyphs" textLength="97" x="1309.5" y="531.15">add(Activity): void</text><ellipse cx="1300.5" cy="540.4703" fill="#84BE84" rx="3" ry="3" style="stroke: #038048; stroke-width: 1.0;"/><text fill="#000000" font-family="sans-serif" font-size="11" lengthAdjust="spacingAndGlyphs" textLength="117" x="1309.5" y="544.1051">remove(Activity): void</text><ellipse cx="1300.5" cy="553.4254" fill="#84BE84" rx="3" ry="3" style="stroke: #038048; stroke-width: 1.0;"/><text fill="#000000" font-family="sans-serif" font-size="11" lengthAdjust="spacingAndGlyphs" textLength="104" x="1309.5" y="557.0602">remove(UUID): void</text><ellipse cx="1300.5" cy="566.3805" fill="#84BE84" rx="3" ry="3" style="stroke: #038048; stroke-width: 1.0;"/><text fill="#000000" font-family="sans-serif" font-size="11" lengthAdjust="spacingAndGlyphs" textLength="62" x="1309.5" y="570.0152">length(): int</text><ellipse cx="1300.5" cy="579.3355" fill="#84BE84" rx="3" ry="3" style="stroke: #038048; stroke-width: 1.0;"/><text fill="#000000" font-family="sans-serif" font-size="11" lengthAdjust="spacingAndGlyphs" textLength="63" x="1309.5" y="582.9703">clear(): void</text><ellipse cx="1300.5" cy="592.2906" fill="#84BE84" rx="3" ry="3" style="stroke: #038048; stroke-width: 1.0;"/><text fill="#000000" font-family="sans-serif" font-size="11" lengthAdjust="spacingAndGlyphs" textLength="85" x="1309.5" y="595.9254">get(int): Activity</text><ellipse cx="1300.5" cy="605.2457" fill="#84BE84" rx="3" ry="3" style="stroke: #038048; stroke-width: 1.0;"/><text fill="#000000" font-family="sans-serif" font-size="11" lengthAdjust="spacingAndGlyphs" textLength="248" x="1309.5" y="608.8805">getAllActivitiesOfType(Class...): List&lt;Activity&gt;</text><ellipse cx="1300.5" cy="618.2008" fill="#84BE84" rx="3" ry="3" style="stroke: #038048; stroke-width: 1.0;"/><text fill="#000000" font-family="sans-serif" font-size="11" lengthAdjust="spacingAndGlyphs" textLength="337" x="1309.5" y="621.8355">getInstanceCountForEachType(): List&lt;Entry&lt;String, Integer&gt;&gt;</text><ellipse cx="1300.5" cy="631.1559" fill="#84BE84" rx="3" ry="3" style="stroke: #038048; stroke-width: 1.0;"/><text fill="#000000" font-family="sans-serif" font-size="11" lengthAdjust="spacingAndGlyphs" textLength="390" x="1309.5" y="634.7906">getActivitiesOfTypeBetween(Time, Time, boolean, Class...): List&lt;Activity&gt;</text><ellipse cx="1300.5" cy="644.1109" fill="#84BE84" rx="3" ry="3" style="stroke: #038048; stroke-width: 1.0;"/><text fill="#000000" font-family="sans-serif" font-size="11" lengthAdjust="spacingAndGlyphs" textLength="425" x="1309.5" y="647.7457">getActivityInstancesWithSubsystem(String, Time, Time, boolean): List&lt;Activity&gt;</text><ellipse cx="1300.5" cy="657.066" fill="#84BE84" rx="3" ry="3" style="stroke: #038048; stroke-width: 1.0;"/><text fill="#000000" font-family="sans-serif" font-size="11" lengthAdjust="spacingAndGlyphs" textLength="165" x="1309.5" y="660.7008">findActivityByID(UUID): Activity</text><ellipse cx="1300.5" cy="670.0211" fill="#84BE84" rx="3" ry="3" style="stroke: #038048; stroke-width: 1.0;"/><text fill="#000000" font-family="sans-serif" font-size="11" lengthAdjust="spacingAndGlyphs" textLength="141" x="1309.5" y="673.6559">containsID(UUID): boolean</text><ellipse cx="1300.5" cy="682.9762" fill="#84BE84" rx="3" ry="3" style="stroke: #038048; stroke-width: 1.0;"/><text fill="#000000" font-family="sans-serif" font-size="11" lengthAdjust="spacingAndGlyphs" textLength="172" x="1309.5" y="686.6109">getFirstActivityStartTime(): Time</text><ellipse cx="1300.5" cy="695.9313" fill="#84BE84" rx="3" ry="3" style="stroke: #038048; stroke-width: 1.0;"/><text fill="#000000" font-family="sans-serif" font-size="11" lengthAdjust="spacingAndGlyphs" textLength="165" x="1309.5" y="699.566">getLastActivityEndTime(): Time</text><ellipse cx="1300.5" cy="708.8863" fill="#84BE84" rx="3" ry="3" style="stroke: #038048; stroke-width: 1.0;"/><text fill="#000000" font-family="sans-serif" font-size="11" lengthAdjust="spacingAndGlyphs" textLength="471" x="1309.5" y="712.5211">createListOfActivityBeginAndEndTimes(): List&lt;Entry&lt;Time, Entry&lt;Boolean, Activity&gt;&gt;&gt;</text><ellipse cx="1300.5" cy="721.8414" fill="#84BE84" rx="3" ry="3" style="stroke: #038048; stroke-width: 1.0;"/><text fill="#000000" font-family="sans-serif" font-size="11" lengthAdjust="spacingAndGlyphs" textLength="429" x="1309.5" y="725.4762">createListOfActivityBeginTimes(): List&lt;Entry&lt;Time, Entry&lt;Boolean, Activity&gt;&gt;&gt;</text></a><!--MD5=[c8f89ded572d3649367516361c41414d]
class gov.nasa.jpl.activity.WaitProvider--><a href="WaitProvider.html" target="_top" title="WaitProvider.html" xlink:actuate="onRequest" xlink:href="WaitProvider.html" xlink:show="new" xlink:title="WaitProvider.html" xlink:type="simple"><rect fill="#FEFECE" filter="url(#frougydig3b1w)" height="112.7754" id="gov.nasa.jpl.activity.WaitProvider" style="stroke: #A80036; stroke-width: 1.5;" width="308" x="442" y="1042.22"/><ellipse cx="555.75" cy="1058.22" fill="#B4A7E5" rx="11" ry="11" style="stroke: #A80036; stroke-width: 1.0;"/><path d="M552.1777,1054.4851 L552.1777,1052.3269 L559.5571,1052.3269 L559.5571,1054.4851 L557.0918,1054.4851 L557.0918,1062.5618 L559.5571,1062.5618 L559.5571,1064.72 L552.1777,1064.72 L552.1777,1062.5618 L554.6431,1062.5618 L554.6431,1054.4851 Z "/><text fill="#000000" font-family="sans-serif" font-size="12" font-style="italic" lengthAdjust="spacingAndGlyphs" textLength="72" x="576.25" y="1062.7552">WaitProvider</text><line style="stroke: #A80036; stroke-width: 1.5;" x1="443" x2="749" y1="1074.22" y2="1074.22"/><line style="stroke: #A80036; stroke-width: 1.5;" x1="443" x2="749" y1="1082.22" y2="1082.22"/><ellipse cx="453" cy="1093.22" fill="#84BE84" rx="3" ry="3" style="stroke: #038048; stroke-width: 1.0;"/><text fill="#000000" font-family="sans-serif" font-size="11" font-style="italic" lengthAdjust="spacingAndGlyphs" textLength="109" x="462" y="1096.8548">waitUntil(Time): void</text><ellipse cx="453" cy="1106.1751" fill="#84BE84" rx="3" ry="3" style="stroke: #038048; stroke-width: 1.0;"/><text fill="#000000" font-family="sans-serif" font-size="11" font-style="italic" lengthAdjust="spacingAndGlyphs" textLength="139" x="462" y="1109.8098">waitForSignal(String): Map</text><ellipse cx="453" cy="1119.1302" fill="#84BE84" rx="3" ry="3" style="stroke: #038048; stroke-width: 1.0;"/><text fill="#000000" font-family="sans-serif" font-size="11" font-style="italic" lengthAdjust="spacingAndGlyphs" textLength="220" x="462" y="1122.7649">waitUntil(Time, Supplier&lt;Waiter&gt;): Waiter</text><ellipse cx="453" cy="1132.0852" fill="#84BE84" rx="3" ry="3" style="stroke: #038048; stroke-width: 1.0;"/><text fill="#000000" font-family="sans-serif" font-size="11" font-style="italic" lengthAdjust="spacingAndGlyphs" textLength="282" x="462" y="1135.72">waitForSignal(String, Function&lt;Map, Waiter&gt;): Waiter</text><ellipse cx="453" cy="1145.0403" fill="#84BE84" rx="3" ry="3" style="stroke: #038048; stroke-width: 1.0;"/><text fill="#000000" font-family="sans-serif" font-size="11" font-style="italic" lengthAdjust="spacingAndGlyphs" textLength="125" x="462" y="1148.6751">getCurrentTime(): Time</text></a><!--MD5=[008d82c49f85b4d489e041917c99c847]
class java.lang.Comparable--><a href="https://docs.oracle.com/en/java/javase/13/docs/api/java.base/java/lang/Comparable.html?is-external=true" target="_top" title="https://docs.oracle.com/en/java/javase/13/docs/api/java.base/java/lang/Comparable.html?is-external=true" xlink:actuate="onRequest" xlink:href="https://docs.oracle.com/en/java/javase/13/docs/api/java.base/java/lang/Comparable.html?is-external=true" xlink:show="new" xlink:title="https://docs.oracle.com/en/java/javase/13/docs/api/java.base/java/lang/Comparable.html?is-external=true" xlink:type="simple"><rect fill="#FEFECE" filter="url(#frougydig3b1w)" height="60.9551" id="java.lang.Comparable" style="stroke: #A80036; stroke-width: 1.5;" width="122" x="126" y="59.27"/><ellipse cx="144.15" cy="75.27" fill="#B4A7E5" rx="11" ry="11" style="stroke: #A80036; stroke-width: 1.0;"/><path d="M140.5777,71.5351 L140.5777,69.3769 L147.9571,69.3769 L147.9571,71.5351 L145.4918,71.5351 L145.4918,79.6118 L147.9571,79.6118 L147.9571,81.77 L140.5777,81.77 L140.5777,79.6118 L143.0431,79.6118 L143.0431,71.5351 Z "/><text fill="#000000" font-family="sans-serif" font-size="12" font-style="italic" lengthAdjust="spacingAndGlyphs" textLength="71" x="158.85" y="79.8052">Comparable</text><rect fill="#FFFFFF" height="16.1328" style="stroke: #000000; stroke-width: 1.0; stroke-dasharray: 2.0,2.0;" width="10" x="241" y="56.27"/><text fill="#000000" font-family="sans-serif" font-size="12" font-style="italic" lengthAdjust="spacingAndGlyphs" textLength="8" x="242" y="68.8716">T</text><line style="stroke: #A80036; stroke-width: 1.5;" x1="127" x2="247" y1="91.27" y2="91.27"/><line style="stroke: #A80036; stroke-width: 1.5;" x1="127" x2="247" y1="99.27" y2="99.27"/><ellipse cx="137" cy="110.27" fill="#84BE84" rx="3" ry="3" style="stroke: #038048; stroke-width: 1.0;"/><text fill="#000000" font-family="sans-serif" font-size="11" font-style="italic" lengthAdjust="spacingAndGlyphs" textLength="96" x="146" y="113.9048">compareTo(T): int</text></a><!--MD5=[0d154d630b9a073463cbcbf880061a38]
class java.beans.PropertyChangeListener--><a href="https://docs.oracle.com/en/java/javase/13/docs/api/java.desktop/java/beans/PropertyChangeListener.html?is-external=true" target="_top" title="https://docs.oracle.com/en/java/javase/13/docs/api/java.desktop/java/beans/PropertyChangeListener.html?is-external=true" xlink:actuate="onRequest" xlink:href="https://docs.oracle.com/en/java/javase/13/docs/api/java.desktop/java/beans/PropertyChangeListener.html?is-external=true" xlink:show="new" xlink:title="https://docs.oracle.com/en/java/javase/13/docs/api/java.desktop/java/beans/PropertyChangeListener.html?is-external=true" xlink:type="simple"><rect fill="#FEFECE" filter="url(#frougydig3b1w)" height="60.9551" id="java.beans.PropertyChangeListener" style="stroke: #A80036; stroke-width: 1.5;" width="267" x="303.5" y="59.27"/><ellipse cx="364.25" cy="75.27" fill="#B4A7E5" rx="11" ry="11" style="stroke: #A80036; stroke-width: 1.0;"/><path d="M360.6777,71.5351 L360.6777,69.3769 L368.0571,69.3769 L368.0571,71.5351 L365.5918,71.5351 L365.5918,79.6118 L368.0571,79.6118 L368.0571,81.77 L360.6777,81.77 L360.6777,79.6118 L363.1431,79.6118 L363.1431,71.5351 Z "/><text fill="#000000" font-family="sans-serif" font-size="12" font-style="italic" lengthAdjust="spacingAndGlyphs" textLength="137" x="384.75" y="79.8052">PropertyChangeListener</text><line style="stroke: #A80036; stroke-width: 1.5;" x1="304.5" x2="569.5" y1="91.27" y2="91.27"/><line style="stroke: #A80036; stroke-width: 1.5;" x1="304.5" x2="569.5" y1="99.27" y2="99.27"/><ellipse cx="314.5" cy="110.27" fill="#84BE84" rx="3" ry="3" style="stroke: #038048; stroke-width: 1.0;"/><text fill="#000000" font-family="sans-serif" font-size="11" font-style="italic" lengthAdjust="spacingAndGlyphs" textLength="241" x="323.5" y="113.9048">propertyChange(PropertyChangeEvent): void</text></a><!--MD5=[c3b3593bb4d22d5aaa4e9eacd7d7d1c8]
reverse link java.lang.Comparable to gov.nasa.jpl.activity.Activity--><path d="M200.62,141.24 C206.7,163.78 214.44,192.47 223.05,224.37 " fill="none" id="java.lang.Comparable&lt;-gov.nasa.jpl.activity.Activity" style="stroke: #A80036; stroke-width: 1.0; stroke-dasharray: 7.0,7.0;"/><polygon fill="none" points="193.87,143.07,195.41,121.94,207.38,139.42,193.87,143.07" style="stroke: #A80036; stroke-width: 1.0;"/><!--MD5=[a79cc5428e148d140228f377e72ea597]
reverse link java.beans.PropertyChangeListener to gov.nasa.jpl.activity.Activity--><path d="M425.02,141.24 C419.67,163.78 412.86,192.47 405.29,224.37 " fill="none" id="java.beans.PropertyChangeListener&lt;-gov.nasa.jpl.activity.Activity" style="stroke: #A80036; stroke-width: 1.0; stroke-dasharray: 7.0,7.0;"/><polygon fill="none" points="418.17,139.79,429.6,121.95,431.79,143.02,418.17,139.79" style="stroke: #A80036; stroke-width: 1.0;"/><!--MD5=[8615a1993a6655f27aa859a461bbd21c]
link gov.nasa.jpl.activity.Activity to gov.nasa.jpl.activity.Activity--><path d="M577.37,549.72 C612.83,555.51 636.5,567.18 636.5,584.72 C636.5,601.24 615.52,612.55 583.48,618.65 " fill="none" id="gov.nasa.jpl.activity.Activity-&gt;gov.nasa.jpl.activity.Activity" style="stroke: #A80036; stroke-width: 1.0;"/><polygon fill="#A80036" points="578.86,619.46,588.419,621.8319,583.7836,618.5894,587.0261,613.9541,578.86,619.46" style="stroke: #A80036; stroke-width: 1.0;"/><text fill="#000000" font-family="sans-serif" font-size="13" lengthAdjust="spacingAndGlyphs" textLength="40" x="642.5" y="589.7884">parent</text><!--MD5=[8615a1993a6655f27aa859a461bbd21c]
link gov.nasa.jpl.activity.Activity to gov.nasa.jpl.activity.Activity--><path d="M577.32,507.47 C640.82,513.35 688.5,539.1 688.5,584.72 C688.5,628.83 643.94,654.37 583.59,661.33 " fill="none" id="gov.nasa.jpl.activity.Activity-&gt;gov.nasa.jpl.activity.Activity-1" style="stroke: #A80036; stroke-width: 1.0;"/><polygon fill="#A80036" points="578.82,661.83,588.1925,664.856,583.792,661.3014,587.3467,656.9009,578.82,661.83" style="stroke: #A80036; stroke-width: 1.0;"/><text fill="#000000" font-family="sans-serif" font-size="13" lengthAdjust="spacingAndGlyphs" textLength="51" x="694.5" y="589.7884">children</text><text fill="#000000" font-family="sans-serif" font-size="13" lengthAdjust="spacingAndGlyphs" textLength="6" x="585.2281" y="663.3537">*</text><!--MD5=[92ab81f5224f24a8d60015916fe8ef4c]
link gov.nasa.jpl.activity.Activity to gov.nasa.jpl.activity.WaitProvider--><path d="M513.75,945.07 C532.34,979.55 549.31,1011.02 562.94,1036.3 " fill="none" id="gov.nasa.jpl.activity.Activity-&gt;gov.nasa.jpl.activity.WaitProvider" style="stroke: #A80036; stroke-width: 1.0;"/><polygon fill="#A80036" points="565.26,1040.6,564.4998,1030.7805,562.8827,1036.2013,557.4619,1034.5842,565.26,1040.6" style="stroke: #A80036; stroke-width: 1.0;"/><text fill="#000000" font-family="sans-serif" font-size="13" lengthAdjust="spacingAndGlyphs" textLength="40" x="550.73" y="1008.7884">thread</text><!--MD5=[1aa7d65541a34000febef9794ae25fe5]
reverse link gov.nasa.jpl.activity.Activity to gov.nasa.jpl.activity.InitialConditionActivity--><path d="M261.28,966.18 C255.37,1004.5 250.22,1037.9 246.58,1061.44 " fill="none" id="gov.nasa.jpl.activity.Activity&lt;-gov.nasa.jpl.activity.InitialConditionActivity" style="stroke: #A80036; stroke-width: 1.0;"/><polygon fill="none" points="254.34,965.26,264.31,946.56,268.18,967.4,254.34,965.26" style="stroke: #A80036; stroke-width: 1.0;"/><!--MD5=[133fbc577be58ecb2dcff1b82a87869c]
link gov.nasa.jpl.activity.ActivityTypeList to gov.nasa.jpl.activity.ActivityTypeList--><path d="M1155.13,517.91 C1176.27,530.33 1190,552.6 1190,584.72 C1190,614.08 1178.53,635.22 1160.41,648.12 " fill="none" id="gov.nasa.jpl.activity.ActivityTypeList-&gt;gov.nasa.jpl.activity.ActivityTypeList" style="stroke: #A80036; stroke-width: 1.0;"/><polygon fill="#A80036" points="1156.4,650.72,1166.13,649.1945,1160.5994,648.0061,1161.7878,642.4755,1156.4,650.72" style="stroke: #A80036; stroke-width: 1.0;"/><text fill="#000000" font-family="sans-serif" font-size="13" lengthAdjust="spacingAndGlyphs" textLength="69" x="1196" y="589.7884">activityList</text><!--MD5=[e6b2318745c6d2aa4853209bf6ed83d0]
link gov.nasa.jpl.activity.ActivityInstanceList to gov.nasa.jpl.activity.ActivityInstanceList--><path d="M1786.81,523.42 C1808.16,536.47 1821.5,556.9 1821.5,584.72 C1821.5,610.16 1810.36,629.42 1792.13,642.5 " fill="none" id="gov.nasa.jpl.activity.ActivityInstanceList-&gt;gov.nasa.jpl.activity.ActivityInstanceList" style="stroke: #A80036; stroke-width: 1.0;"/><polygon fill="#A80036" points="1788.07,645.19,1797.7838,643.5644,1792.2412,642.433,1793.3726,636.8904,1788.07,645.19" style="stroke: #A80036; stroke-width: 1.0;"/><text fill="#000000" font-family="sans-serif" font-size="13" lengthAdjust="spacingAndGlyphs" textLength="69" x="1827.5" y="589.7884">activityList</text><text fill="#888888" font-family="sans-serif" font-size="10" lengthAdjust="spacingAndGlyphs" textLength="182" x="877" y="1206.668">UMLDoclet 2.0.8, PlantUML 1.2020.01</text><!--MD5=[bc9a5a8c8bd9c4f2419019c26b7e0189]
@startuml
    namespace gov.nasa.jpl.activity {

        class Activity [[Activity.html]] {
            +Activity(Time, Object...)
            +decompose(): void
            +modelFunc(): Waiter
            +model(): void
            +sequence(): void
            +setCondition(): Condition
            +setInitialCondition(): void
            +spawn(Activity): void
            +spawnWithNotes(Activity, String): void
            +deleteChildren(): void
            +removeChildrenFromInstanceList(): void
            +addChildrenToInstanceList(): void
            +clearChildrenArrayWithoutDeletingThem(): void
            +isTopLevelActivity(): boolean
            +waitUntil(Time): void
            +waitFor(Duration): void
            +waitForSignal(String): Map
            +waitUntil(Time, Supplier<Waiter>): Waiter
            +waitUntil(Time, Runnable): Waiter
            +waitLoop(Time, Time, Duration, BiConsumer<Time, Time>, Function<Time, Waiter>): Waiter
            +waitLoop(Time, Time, Duration, BiConsumer<Time, Time>, Consumer<Time>): Waiter
            +waitLoop(Time, Time, Duration, Consumer<Time>, Consumer<Time>): Waiter
            +waitLoop(Time, Time, Duration, Consumer<Time>): Waiter
            +waitLoop(Time, Time, Duration, BiConsumer<Time, Time>): Waiter
            +waitFor(Duration, Supplier<Waiter>): Waiter
            +waitFor(Duration, Runnable): Waiter
            +waitForSignal(String, Consumer<Map>): Waiter
            +waitForSignal(String, Function<Map, Waiter>): Waiter
            +schedule(): void
            +stopScheduling(): void
            +setDuration(Duration): void
            +setEndByChangingDuration(Time): void
            +setName(String): void
            +getStart(): Time
            +getEnd(): Time
            +getWindow(): Window
            +getDuration(): Duration
            +getName(): String
            +getGroup(): String
            +setGroup(String): void
            +getNotes(): String
            +setNotes(String): void
            {static} +now(): Time
            +getType(): String
            +compareTo(Activity): int
            +detachThread(): void
            +getParameterObjects(): Object[]
            +setID(UUID): void
            +getID(): UUID
            +getIDString(): String
            +getCondition(Class): Condition
            +propertyChange(PropertyChangeEvent): void
        }

        class InitialConditionActivity [[InitialConditionActivity.html]] {
            +InitialConditionActivity(Time, Map<String, Comparable>)
            +model(): void
        }

        class ActivityTypeList [[ActivityTypeList.html]] {
            +getActivityClass(String): Class
            +getNamesOfAllDefinedTypes(): List<String>
            +getNamesOfAllTypesWithSubsystem(String): List<String>
            +getDescription(String): String
            +getSubsystem(String): String
            +getParameterNames(String): String[]
            +getParameters(String): List<Map<String, String>>
            +addToObserverList(String, PropertyChangeListener): void
            +removeFromObserverList(String, PropertyChangeListener): void
            +propertyChangeForActivityType(String, Activity): void
        }

        class ActivityInstanceList [[ActivityInstanceList.html]] {
            +prepareActivitiesForModeling(): void
            +prepareActivitiesForSequencing(): void
            +stopAllSchedulers(): void
            +add(Activity): void
            +remove(Activity): void
            +remove(UUID): void
            +length(): int
            +clear(): void
            +get(int): Activity
            +getAllActivitiesOfType(Class...): List<Activity>
            +getInstanceCountForEachType(): List<Entry<String, Integer>>
            +getActivitiesOfTypeBetween(Time, Time, boolean, Class...): List<Activity>
            +getActivityInstancesWithSubsystem(String, Time, Time, boolean): List<Activity>
            +findActivityByID(UUID): Activity
            +containsID(UUID): boolean
            +getFirstActivityStartTime(): Time
            +getLastActivityEndTime(): Time
            +createListOfActivityBeginAndEndTimes(): List<Entry<Time, Entry<Boolean, Activity>>>
            +createListOfActivityBeginTimes(): List<Entry<Time, Entry<Boolean, Activity>>>
        }

        interface WaitProvider [[WaitProvider.html]] {
            {abstract} +waitUntil(Time): void
            {abstract} +waitForSignal(String): Map
            {abstract} +waitUntil(Time, Supplier<Waiter>): Waiter
            {abstract} +waitForSignal(String, Function<Map, Waiter>): Waiter
            {abstract} +getCurrentTime(): Time
        }

        java.lang.Comparable <|.. Activity
        java.beans.PropertyChangeListener <|.. Activity
        Activity - -> Activity: parent
        Activity - -> "*" Activity: children
        Activity - -> WaitProvider: thread
        Activity <|- - InitialConditionActivity
        ActivityTypeList - -> ActivityTypeList: activityList
        ActivityInstanceList - -> ActivityInstanceList: activityList
    }

    namespace java.lang {
        interface Comparable<T> [[https://docs.oracle.com/en/java/javase/13/docs/api/java.base/java/lang/Comparable.html?is-external=true]] {
            {abstract} +compareTo(T): int
        }
    }

    namespace java.beans {
        interface PropertyChangeListener [[https://docs.oracle.com/en/java/javase/13/docs/api/java.desktop/java/beans/PropertyChangeListener.html?is-external=true]] {
            {abstract} +propertyChange(PropertyChangeEvent): void
        }
    }

    center footer UMLDoclet 2.0.8, PlantUML 1.2020.01
@enduml

PlantUML version 1.2020.01(Sun Feb 16 09:40:32 PST 2020)
(APACHE source distribution)
Java Runtime: OpenJDK Runtime Environment
JVM: OpenJDK 64-Bit Server VM
Java Version: 17.0.6+10
Operating System: Mac OS X
Default Encoding: UTF-8
Language: en
Country: US
--></g></svg>