<?xml version="1.0" encoding="UTF-8" standalone="no"?><svg xmlns="http://www.w3.org/2000/svg" xmlns:xlink="http://www.w3.org/1999/xlink" contentScriptType="application/ecmascript" contentStyleType="text/css" height="224px" preserveAspectRatio="none" style="width:523px;height:224px;" version="1.1" viewBox="0 0 523 224" width="523px" zoomAndPan="magnify"><defs><filter height="300%" id="fk8ce5wsrl25t" width="300%" x="-1" y="-1"><feGaussianBlur result="blurOut" stdDeviation="2.0"/><feColorMatrix in="blurOut" result="blurOut2" type="matrix" values="0 0 0 0 0 0 0 0 0 0 0 0 0 0 0 0 0 0 .4 0"/><feOffset dx="4.0" dy="4.0" in="blurOut2" result="blurOut3"/><feBlend in="SourceGraphic" in2="blurOut3" mode="normal"/></filter></defs><g><!--MD5=[2bd82b9246237a8f9d945f35dd2cdc04]
class gov.nasa.jpl.constraint.PrerequisiteConditionConstraint--><a href="PrerequisiteConditionConstraint.html" target="_top" title="PrerequisiteConditionConstraint.html" xlink:actuate="onRequest" xlink:href="PrerequisiteConditionConstraint.html" xlink:show="new" xlink:title="PrerequisiteConditionConstraint.html" xlink:type="simple"><rect fill="#FEFECE" filter="url(#fk8ce5wsrl25t)" height="85.1309" id="gov.nasa.jpl.constraint.PrerequisiteConditionConstraint" style="stroke: #A80036; stroke-width: 1.5;" width="506" x="6" y="105.87"/><ellipse cx="143.75" cy="125.0028" fill="#ADD1B2" rx="11" ry="11" style="stroke: #A80036; stroke-width: 1.0;"/><path d="M146.2231,131.1459 Q145.6421,131.4447 145.0029,131.5941 Q144.3638,131.7435 143.6582,131.7435 Q141.1514,131.7435 139.8315,130.0917 Q138.5117,128.4398 138.5117,125.3187 Q138.5117,122.1893 139.8315,120.5375 Q141.1514,118.8856 143.6582,118.8856 Q144.3638,118.8856 145.0112,119.035 Q145.6587,119.1845 146.2231,119.4833 L146.2231,122.2059 Q145.5923,121.6249 144.9988,121.3551 Q144.4053,121.0853 143.7744,121.0853 Q142.4297,121.0853 141.7449,122.152 Q141.0601,123.2186 141.0601,125.3187 Q141.0601,127.4105 141.7449,128.4772 Q142.4297,129.5438 143.7744,129.5438 Q144.4053,129.5438 144.9988,129.2741 Q145.5923,129.0043 146.2231,128.4232 Z "/><text fill="#000000" font-family="sans-serif" font-size="14" lengthAdjust="spacingAndGlyphs" textLength="222" x="164.25" y="124.4052">PrerequisiteConditionConstraint</text><text fill="#000000" font-family="sans-serif" font-size="10" lengthAdjust="spacingAndGlyphs" textLength="110" x="220.25" y="137.0263">gov.nasa.jpl.constraint</text><line style="stroke: #A80036; stroke-width: 1.5;" x1="7" x2="511" y1="144.1356" y2="144.1356"/><ellipse cx="17" cy="155.1356" fill="#84BE84" rx="3" ry="3" style="stroke: #038048; stroke-width: 1.0;"/><text fill="#000000" font-family="sans-serif" font-size="11" lengthAdjust="spacingAndGlyphs" textLength="480" x="26" y="158.7704">PrerequisiteConditionConstraint(Condition, Condition, Duration, String, ViolationSeverity)</text><ellipse cx="17" cy="168.0907" fill="#84BE84" rx="3" ry="3" style="stroke: #038048; stroke-width: 1.0;"/><text fill="#000000" font-family="sans-serif" font-size="11" lengthAdjust="spacingAndGlyphs" textLength="241" x="26" y="171.7255">propertyChange(PropertyChangeEvent): void</text><ellipse cx="17" cy="181.0458" fill="#84BE84" rx="3" ry="3" style="stroke: #038048; stroke-width: 1.0;"/><text fill="#000000" font-family="sans-serif" font-size="11" lengthAdjust="spacingAndGlyphs" textLength="208" x="26" y="184.6805">finalizeConstraintAfterModeling(): void</text></a><!--MD5=[dea5b593040d675373ad1fa7b4d4116e]
class gov.nasa.jpl.constraint.ResourceConstraint--><a href="ResourceConstraint.html" target="_top" title="ResourceConstraint.html" xlink:actuate="onRequest" xlink:href="ResourceConstraint.html" xlink:show="new" xlink:title="ResourceConstraint.html" xlink:type="simple"><rect fill="#FEFECE" filter="url(#fk8ce5wsrl25t)" height="38.2656" id="gov.nasa.jpl.constraint.ResourceConstraint" style="stroke: #A80036; stroke-width: 1.5;" width="167" x="175.5" y="7.6"/><ellipse cx="190.5" cy="26.7328" fill="#A9DCDF" rx="11" ry="11" style="stroke: #A80036; stroke-width: 1.0;"/><path d="M190.3633,22.081 L189.2095,27.1527 L191.5254,27.1527 Z M188.8691,19.8397 L191.8657,19.8397 L195.2109,32.2328 L192.7622,32.2328 L191.9985,29.1698 L188.7197,29.1698 L187.9727,32.2328 L185.5239,32.2328 Z "/><text fill="#000000" font-family="sans-serif" font-size="14" font-style="italic" lengthAdjust="spacingAndGlyphs" textLength="135" x="204.5" y="26.1352">ResourceConstraint</text><text fill="#000000" font-family="sans-serif" font-size="10" font-style="italic" lengthAdjust="spacingAndGlyphs" textLength="110" x="217" y="38.7562">gov.nasa.jpl.constraint</text></a><!--MD5=[b3d2d6bd5721a749c1711b0272b69ad6]
reverse link gov.nasa.jpl.constraint.ResourceConstraint to gov.nasa.jpl.constraint.PrerequisiteConditionConstraint--><path d="M259,67.43 C259,79.61 259,93.06 259,105.39 " fill="none" id="gov.nasa.jpl.constraint.ResourceConstraint&lt;-gov.nasa.jpl.constraint.PrerequisiteConditionConstraint" style="stroke: #A80036; stroke-width: 1.0;"/><polygon fill="none" points="252,67.69,259,47.69,266,67.69,252,67.69" style="stroke: #A80036; stroke-width: 1.0;"/><text fill="#888888" font-family="sans-serif" font-size="10" lengthAdjust="spacingAndGlyphs" textLength="182" x="174" y="210.668">UMLDoclet 2.0.8, PlantUML 1.2020.01</text><!--MD5=[2b15d9cbfee4e1ef63f2428449427cf4]
@startuml
    set namespaceSeparator none
    hide empty fields
    hide empty methods

    class "<size:14>PrerequisiteConditionConstraint\n<size:10>gov.nasa.jpl.constraint" as gov.nasa.jpl.constraint.PrerequisiteConditionConstraint [[PrerequisiteConditionConstraint.html]] {
        +PrerequisiteConditionConstraint(Condition, Condition, Duration, String, ViolationSeverity)
        +propertyChange(PropertyChangeEvent): void
        +finalizeConstraintAfterModeling(): void
    }

    abstract class "<size:14>ResourceConstraint\n<size:10>gov.nasa.jpl.constraint" as gov.nasa.jpl.constraint.ResourceConstraint [[ResourceConstraint.html]]

    gov.nasa.jpl.constraint.ResourceConstraint <|- - gov.nasa.jpl.constraint.PrerequisiteConditionConstraint

    center footer UMLDoclet 2.0.8, PlantUML 1.2020.01
@enduml

PlantUML version 1.2020.01(Sun Feb 16 09:40:32 PST 2020)
(APACHE source distribution)
Java Runtime: OpenJDK Runtime Environment
JVM: OpenJDK 64-Bit Server VM
Java Version: 17.0.6+10
Operating System: Mac OS X
Default Encoding: UTF-8
Language: en
Country: US
--></g></svg>