<?xml version="1.0" encoding="UTF-8" standalone="no"?><svg xmlns="http://www.w3.org/2000/svg" xmlns:xlink="http://www.w3.org/1999/xlink" contentScriptType="application/ecmascript" contentStyleType="text/css" height="463px" preserveAspectRatio="none" style="width:1859px;height:463px;" version="1.1" viewBox="0 0 1859 463" width="1859px" zoomAndPan="magnify"><defs><filter height="300%" id="f9lqgipdr6tqx" width="300%" x="-1" y="-1"><feGaussianBlur result="blurOut" stdDeviation="2.0"/><feColorMatrix in="blurOut" result="blurOut2" type="matrix" values="0 0 0 0 0 0 0 0 0 0 0 0 0 0 0 0 0 0 .4 0"/><feOffset dx="4.0" dy="4.0" in="blurOut2" result="blurOut3"/><feBlend in="SourceGraphic" in2="blurOut3" mode="normal"/></filter></defs><g><!--MD5=[d8a6d55482a04e3787585d40818c37fa]
cluster gov.nasa.jpl.sequencing.satfSequencing--><polygon fill="#FFFFFF" filter="url(#f9lqgipdr6tqx)" points="22,237.27,308,237.27,315,259.7583,1837,259.7583,1837,414,22,414,22,237.27" style="stroke: #000000; stroke-width: 1.5;"/><line style="stroke: #000000; stroke-width: 1.5;" x1="22" x2="315" y1="259.7583" y2="259.7583"/><text fill="#000000" font-family="sans-serif" font-size="14" font-weight="bold" lengthAdjust="spacingAndGlyphs" textLength="280" x="26" y="252.8052">gov.nasa.jpl.sequencing.satfSequencing</text><!--MD5=[300fc444106e7512e8d150a68bdf4b1d]
cluster gov.nasa.jpl.sequencing--><polygon fill="#FFFFFF" filter="url(#f9lqgipdr6tqx)" points="678,23.58,852,23.58,859,46.0683,1179,46.0683,1179,213.27,678,213.27,678,23.58" style="stroke: #000000; stroke-width: 1.5;"/><line style="stroke: #000000; stroke-width: 1.5;" x1="678" x2="859" y1="46.0683" y2="46.0683"/><text fill="#000000" font-family="sans-serif" font-size="14" font-weight="bold" lengthAdjust="spacingAndGlyphs" textLength="168" x="682" y="39.1152">gov.nasa.jpl.sequencing</text><!--MD5=[94965dd8eba90b66ae302df321bd6039]
class gov.nasa.jpl.sequencing.satfSequencing.SATFAbsoluteStep--><a href="SATFAbsoluteStep.html" target="_top" title="SATFAbsoluteStep.html" xlink:actuate="onRequest" xlink:href="SATFAbsoluteStep.html" xlink:show="new" xlink:title="SATFAbsoluteStep.html" xlink:type="simple"><rect fill="#FEFECE" filter="url(#f9lqgipdr6tqx)" height="125.7305" id="gov.nasa.jpl.sequencing.satfSequencing.SATFAbsoluteStep" style="stroke: #A80036; stroke-width: 1.5;" width="466" x="38" y="272.27"/><ellipse cx="215.25" cy="288.27" fill="#ADD1B2" rx="11" ry="11" style="stroke: #A80036; stroke-width: 1.0;"/><path d="M217.7231,294.4131 Q217.1421,294.7119 216.5029,294.8613 Q215.8638,295.0107 215.1582,295.0107 Q212.6514,295.0107 211.3315,293.3589 Q210.0117,291.707 210.0117,288.5859 Q210.0117,285.4565 211.3315,283.8047 Q212.6514,282.1528 215.1582,282.1528 Q215.8638,282.1528 216.5112,282.3022 Q217.1587,282.4516 217.7231,282.7505 L217.7231,285.4731 Q217.0923,284.8921 216.4988,284.6223 Q215.9053,284.3525 215.2744,284.3525 Q213.9297,284.3525 213.2449,285.4192 Q212.5601,286.4858 212.5601,288.5859 Q212.5601,290.6777 213.2449,291.7444 Q213.9297,292.811 215.2744,292.811 Q215.9053,292.811 216.4988,292.5412 Q217.0923,292.2715 217.7231,291.6904 Z "/><text fill="#000000" font-family="sans-serif" font-size="12" lengthAdjust="spacingAndGlyphs" textLength="103" x="235.75" y="292.8052">SATFAbsoluteStep</text><line style="stroke: #A80036; stroke-width: 1.5;" x1="39" x2="503" y1="304.27" y2="304.27"/><line style="stroke: #A80036; stroke-width: 1.5;" x1="39" x2="503" y1="312.27" y2="312.27"/><ellipse cx="49" cy="323.27" fill="#84BE84" rx="3" ry="3" style="stroke: #038048; stroke-width: 1.0;"/><text fill="#000000" font-family="sans-serif" font-size="11" lengthAdjust="spacingAndGlyphs" textLength="403" x="58" y="326.9048">SATFAbsoluteStep(String, Time, String, String, String, List&lt;String&gt;, Integer)</text><ellipse cx="49" cy="336.2251" fill="#84BE84" rx="3" ry="3" style="stroke: #038048; stroke-width: 1.0;"/><text fill="#000000" font-family="sans-serif" font-size="11" lengthAdjust="spacingAndGlyphs" textLength="440" x="58" y="339.8598">SATFAbsoluteStep(String, Time, String, String, List&lt;String&gt;, List&lt;String&gt;, Integer)</text><ellipse cx="49" cy="349.1802" fill="#84BE84" rx="3" ry="3" style="stroke: #038048; stroke-width: 1.0;"/><text fill="#000000" font-family="sans-serif" font-size="11" lengthAdjust="spacingAndGlyphs" textLength="359" x="58" y="352.8149">SATFAbsoluteStep(String, Time, String, String, String, List&lt;String&gt;)</text><ellipse cx="49" cy="362.1352" fill="#84BE84" rx="3" ry="3" style="stroke: #038048; stroke-width: 1.0;"/><text fill="#000000" font-family="sans-serif" font-size="11" lengthAdjust="spacingAndGlyphs" textLength="396" x="58" y="365.77">SATFAbsoluteStep(String, Time, String, String, List&lt;String&gt;, List&lt;String&gt;)</text><ellipse cx="49" cy="375.0903" fill="#84BE84" rx="3" ry="3" style="stroke: #038048; stroke-width: 1.0;"/><text fill="#000000" font-family="sans-serif" font-size="11" lengthAdjust="spacingAndGlyphs" textLength="178" x="58" y="378.7251">toSequenceString(Integer): String</text><ellipse cx="49" cy="388.0454" fill="#84BE84" rx="3" ry="3" style="stroke: #038048; stroke-width: 1.0;"/><text fill="#000000" font-family="sans-serif" font-size="11" lengthAdjust="spacingAndGlyphs" textLength="182" x="58" y="391.6802">getAbsoluteStartTime(Time): Time</text></a><!--MD5=[ea7a7d4746efba6f8ced854d84d07a91]
class gov.nasa.jpl.sequencing.satfSequencing.SATFRelativeStep--><a href="SATFRelativeStep.html" target="_top" title="SATFRelativeStep.html" xlink:actuate="onRequest" xlink:href="SATFRelativeStep.html" xlink:show="new" xlink:title="SATFRelativeStep.html" xlink:type="simple"><rect fill="#FEFECE" filter="url(#f9lqgipdr6tqx)" height="125.7305" id="gov.nasa.jpl.sequencing.satfSequencing.SATFRelativeStep" style="stroke: #A80036; stroke-width: 1.5;" width="518" x="539" y="272.27"/><ellipse cx="744.75" cy="288.27" fill="#ADD1B2" rx="11" ry="11" style="stroke: #A80036; stroke-width: 1.0;"/><path d="M747.2231,294.4131 Q746.6421,294.7119 746.0029,294.8613 Q745.3638,295.0107 744.6582,295.0107 Q742.1514,295.0107 740.8315,293.3589 Q739.5117,291.707 739.5117,288.5859 Q739.5117,285.4565 740.8315,283.8047 Q742.1514,282.1528 744.6582,282.1528 Q745.3638,282.1528 746.0112,282.3022 Q746.6587,282.4516 747.2231,282.7505 L747.2231,285.4731 Q746.5923,284.8921 745.9988,284.6223 Q745.4053,284.3525 744.7744,284.3525 Q743.4297,284.3525 742.7449,285.4192 Q742.0601,286.4858 742.0601,288.5859 Q742.0601,290.6777 742.7449,291.7444 Q743.4297,292.811 744.7744,292.811 Q745.4053,292.811 745.9988,292.5412 Q746.5923,292.2715 747.2231,291.6904 Z "/><text fill="#000000" font-family="sans-serif" font-size="12" lengthAdjust="spacingAndGlyphs" textLength="98" x="765.25" y="292.8052">SATFRelativeStep</text><line style="stroke: #A80036; stroke-width: 1.5;" x1="540" x2="1056" y1="304.27" y2="304.27"/><line style="stroke: #A80036; stroke-width: 1.5;" x1="540" x2="1056" y1="312.27" y2="312.27"/><ellipse cx="550" cy="323.27" fill="#84BE84" rx="3" ry="3" style="stroke: #038048; stroke-width: 1.0;"/><text fill="#000000" font-family="sans-serif" font-size="11" lengthAdjust="spacingAndGlyphs" textLength="455" x="559" y="326.9048">SATFRelativeStep(String, String, Duration, String, String, String, List&lt;String&gt;, Integer)</text><ellipse cx="550" cy="336.2251" fill="#84BE84" rx="3" ry="3" style="stroke: #038048; stroke-width: 1.0;"/><text fill="#000000" font-family="sans-serif" font-size="11" lengthAdjust="spacingAndGlyphs" textLength="492" x="559" y="339.8598">SATFRelativeStep(String, String, Duration, String, String, List&lt;String&gt;, List&lt;String&gt;, Integer)</text><ellipse cx="550" cy="349.1802" fill="#84BE84" rx="3" ry="3" style="stroke: #038048; stroke-width: 1.0;"/><text fill="#000000" font-family="sans-serif" font-size="11" lengthAdjust="spacingAndGlyphs" textLength="411" x="559" y="352.8149">SATFRelativeStep(String, String, Duration, String, String, String, List&lt;String&gt;)</text><ellipse cx="550" cy="362.1352" fill="#84BE84" rx="3" ry="3" style="stroke: #038048; stroke-width: 1.0;"/><text fill="#000000" font-family="sans-serif" font-size="11" lengthAdjust="spacingAndGlyphs" textLength="448" x="559" y="365.77">SATFRelativeStep(String, String, Duration, String, String, List&lt;String&gt;, List&lt;String&gt;)</text><ellipse cx="550" cy="375.0903" fill="#84BE84" rx="3" ry="3" style="stroke: #038048; stroke-width: 1.0;"/><text fill="#000000" font-family="sans-serif" font-size="11" lengthAdjust="spacingAndGlyphs" textLength="178" x="559" y="378.7251">toSequenceString(Integer): String</text><ellipse cx="550" cy="388.0454" fill="#84BE84" rx="3" ry="3" style="stroke: #038048; stroke-width: 1.0;"/><text fill="#000000" font-family="sans-serif" font-size="11" lengthAdjust="spacingAndGlyphs" textLength="182" x="559" y="391.6802">getAbsoluteStartTime(Time): Time</text></a><!--MD5=[66c8ac1ea9136480f5b4c7cb41ae7ed2]
class gov.nasa.jpl.sequencing.satfSequencing.SATFStepWriter--><a href="SATFStepWriter.html" target="_top" title="SATFStepWriter.html" xlink:actuate="onRequest" xlink:href="SATFStepWriter.html" xlink:show="new" xlink:title="SATFStepWriter.html" xlink:type="simple"><rect fill="#FEFECE" filter="url(#f9lqgipdr6tqx)" height="99.8203" id="gov.nasa.jpl.sequencing.satfSequencing.SATFStepWriter" style="stroke: #A80036; stroke-width: 1.5;" width="367" x="1091.5" y="285.22"/><ellipse cx="1227.25" cy="301.22" fill="#ADD1B2" rx="11" ry="11" style="stroke: #A80036; stroke-width: 1.0;"/><path d="M1229.7231,307.3631 Q1229.1421,307.6619 1228.5029,307.8113 Q1227.8638,307.9607 1227.1582,307.9607 Q1224.6514,307.9607 1223.3315,306.3089 Q1222.0117,304.657 1222.0117,301.5359 Q1222.0117,298.4065 1223.3315,296.7547 Q1224.6514,295.1028 1227.1582,295.1028 Q1227.8638,295.1028 1228.5112,295.2522 Q1229.1587,295.4016 1229.7231,295.7005 L1229.7231,298.4231 Q1229.0923,297.8421 1228.4988,297.5723 Q1227.9053,297.3025 1227.2744,297.3025 Q1225.9297,297.3025 1225.2449,298.3692 Q1224.5601,299.4358 1224.5601,301.5359 Q1224.5601,303.6277 1225.2449,304.6944 Q1225.9297,305.761 1227.2744,305.761 Q1227.9053,305.761 1228.4988,305.4912 Q1229.0923,305.2215 1229.7231,304.6404 Z "/><text fill="#000000" font-family="sans-serif" font-size="12" lengthAdjust="spacingAndGlyphs" textLength="87" x="1247.75" y="305.7552">SATFStepWriter</text><line style="stroke: #A80036; stroke-width: 1.5;" x1="1092.5" x2="1457.5" y1="317.22" y2="317.22"/><line style="stroke: #A80036; stroke-width: 1.5;" x1="1092.5" x2="1457.5" y1="325.22" y2="325.22"/><polygon fill="#FFFF44" points="1102.5,331.22,1106.5,335.22,1102.5,339.22,1098.5,335.22" style="stroke: #B38D22; stroke-width: 1.0;"/><text fill="#000000" font-family="sans-serif" font-size="11" lengthAdjust="spacingAndGlyphs" text-decoration="underline" textLength="199" x="1111.5" y="339.8548">writeComments(List&lt;String&gt;): String</text><polygon fill="#FFFF44" points="1102.5,344.1751,1106.5,348.1751,1102.5,352.1751,1098.5,348.1751" style="stroke: #B38D22; stroke-width: 1.0;"/><text fill="#000000" font-family="sans-serif" font-size="11" lengthAdjust="spacingAndGlyphs" text-decoration="underline" textLength="289" x="1111.5" y="352.8098">writeAbsoluteStepHeader(String, Integer, Time): String</text><polygon fill="#FFFF44" points="1102.5,357.1302,1106.5,361.1302,1102.5,365.1302,1098.5,361.1302" style="stroke: #B38D22; stroke-width: 1.0;"/><text fill="#000000" font-family="sans-serif" font-size="11" lengthAdjust="spacingAndGlyphs" text-decoration="underline" textLength="341" x="1111.5" y="365.7649">writeRelativeStepHeader(String, Integer, Duration, String): String</text><polygon fill="#FFFF44" points="1102.5,370.0852,1106.5,374.0852,1102.5,378.0852,1098.5,374.0852" style="stroke: #B38D22; stroke-width: 1.0;"/><text fill="#000000" font-family="sans-serif" font-size="11" lengthAdjust="spacingAndGlyphs" text-decoration="underline" textLength="322" x="1111.5" y="378.72">writeStep(String, String, String, Integer, List&lt;String&gt;): String</text></a><!--MD5=[1e33fe5c75445b010f5a2d6e6290fe73]
class gov.nasa.jpl.sequencing.satfSequencing.SATFSequence--><a href="SATFSequence.html" target="_top" title="SATFSequence.html" xlink:actuate="onRequest" xlink:href="SATFSequence.html" xlink:show="new" xlink:title="SATFSequence.html" xlink:type="simple"><rect fill="#FEFECE" filter="url(#f9lqgipdr6tqx)" height="125.7305" id="gov.nasa.jpl.sequencing.satfSequencing.SATFSequence" style="stroke: #A80036; stroke-width: 1.5;" width="327" x="1493.5" y="272.27"/><ellipse cx="1611.25" cy="288.27" fill="#ADD1B2" rx="11" ry="11" style="stroke: #A80036; stroke-width: 1.0;"/><path d="M1613.7231,294.4131 Q1613.1421,294.7119 1612.5029,294.8613 Q1611.8638,295.0107 1611.1582,295.0107 Q1608.6514,295.0107 1607.3315,293.3589 Q1606.0117,291.707 1606.0117,288.5859 Q1606.0117,285.4565 1607.3315,283.8047 Q1608.6514,282.1528 1611.1582,282.1528 Q1611.8638,282.1528 1612.5112,282.3022 Q1613.1587,282.4516 1613.7231,282.7505 L1613.7231,285.4731 Q1613.0923,284.8921 1612.4988,284.6223 Q1611.9053,284.3525 1611.2744,284.3525 Q1609.9297,284.3525 1609.2449,285.4192 Q1608.5601,286.4858 1608.5601,288.5859 Q1608.5601,290.6777 1609.2449,291.7444 Q1609.9297,292.811 1611.2744,292.811 Q1611.9053,292.811 1612.4988,292.5412 Q1613.0923,292.2715 1613.7231,291.6904 Z "/><text fill="#000000" font-family="sans-serif" font-size="12" lengthAdjust="spacingAndGlyphs" textLength="83" x="1631.75" y="292.8052">SATFSequence</text><line style="stroke: #A80036; stroke-width: 1.5;" x1="1494.5" x2="1819.5" y1="304.27" y2="304.27"/><line style="stroke: #A80036; stroke-width: 1.5;" x1="1494.5" x2="1819.5" y1="312.27" y2="312.27"/><ellipse cx="1504.5" cy="323.27" fill="#84BE84" rx="3" ry="3" style="stroke: #038048; stroke-width: 1.0;"/><text fill="#000000" font-family="sans-serif" font-size="11" lengthAdjust="spacingAndGlyphs" textLength="301" x="1513.5" y="326.9048">SATFSequence(String, Time, String, List&lt;String&gt;, String)</text><ellipse cx="1504.5" cy="336.2251" fill="#84BE84" rx="3" ry="3" style="stroke: #038048; stroke-width: 1.0;"/><text fill="#000000" font-family="sans-serif" font-size="11" lengthAdjust="spacingAndGlyphs" textLength="226" x="1513.5" y="339.8598">SATFSequence(String, Time, String, String)</text><ellipse cx="1504.5" cy="349.1802" fill="#84BE84" rx="3" ry="3" style="stroke: #038048; stroke-width: 1.0;"/><text fill="#000000" font-family="sans-serif" font-size="11" lengthAdjust="spacingAndGlyphs" textLength="77" x="1513.5" y="352.8149">getEnd(): Time</text><polygon fill="#FFFF44" points="1504.5,357.1352,1508.5,361.1352,1504.5,365.1352,1500.5,361.1352" style="stroke: #B38D22; stroke-width: 1.0;"/><text fill="#000000" font-family="sans-serif" font-size="11" lengthAdjust="spacingAndGlyphs" textLength="161" x="1513.5" y="365.77">writeSequenceHeader(): String</text><polygon fill="#FFFF44" points="1504.5,370.0903,1508.5,374.0903,1504.5,378.0903,1500.5,374.0903" style="stroke: #B38D22; stroke-width: 1.0;"/><text fill="#000000" font-family="sans-serif" font-size="11" lengthAdjust="spacingAndGlyphs" textLength="158" x="1513.5" y="378.7251">writeSequenceFooter(): String</text><ellipse cx="1504.5" cy="388.0454" fill="#84BE84" rx="3" ry="3" style="stroke: #038048; stroke-width: 1.0;"/><text fill="#000000" font-family="sans-serif" font-size="11" lengthAdjust="spacingAndGlyphs" textLength="144" x="1513.5" y="391.6802">getSequenceName(): String</text></a><!--MD5=[2f3ac6fd4240b393a90fa74c9cc87862]
class gov.nasa.jpl.sequencing.SequenceFragment--><a href="../SequenceFragment.html" target="_top" title="../SequenceFragment.html" xlink:actuate="onRequest" xlink:href="../SequenceFragment.html" xlink:show="new" xlink:title="../SequenceFragment.html" xlink:type="simple"><rect fill="#FEFECE" filter="url(#f9lqgipdr6tqx)" height="73.9102" id="gov.nasa.jpl.sequencing.SequenceFragment" style="stroke: #A80036; stroke-width: 1.5;" width="208" x="694" y="90.97"/><ellipse cx="739.25" cy="106.97" fill="#B4A7E5" rx="11" ry="11" style="stroke: #A80036; stroke-width: 1.0;"/><path d="M735.6777,103.2351 L735.6777,101.0769 L743.0571,101.0769 L743.0571,103.2351 L740.5918,103.2351 L740.5918,111.3118 L743.0571,111.3118 L743.0571,113.47 L735.6777,113.47 L735.6777,111.3118 L738.1431,111.3118 L738.1431,103.2351 Z "/><text fill="#000000" font-family="sans-serif" font-size="12" font-style="italic" lengthAdjust="spacingAndGlyphs" textLength="109" x="759.75" y="111.5052">SequenceFragment</text><line style="stroke: #A80036; stroke-width: 1.5;" x1="695" x2="901" y1="122.97" y2="122.97"/><line style="stroke: #A80036; stroke-width: 1.5;" x1="695" x2="901" y1="130.97" y2="130.97"/><ellipse cx="705" cy="141.97" fill="#84BE84" rx="3" ry="3" style="stroke: #038048; stroke-width: 1.0;"/><text fill="#000000" font-family="sans-serif" font-size="11" font-style="italic" lengthAdjust="spacingAndGlyphs" textLength="178" x="714" y="145.6048">toSequenceString(Integer): String</text><ellipse cx="705" cy="154.9251" fill="#84BE84" rx="3" ry="3" style="stroke: #038048; stroke-width: 1.0;"/><text fill="#000000" font-family="sans-serif" font-size="11" font-style="italic" lengthAdjust="spacingAndGlyphs" textLength="182" x="714" y="158.5598">getAbsoluteStartTime(Time): Time</text></a><!--MD5=[bcb6f485c9cbecd007ebd29171b363db]
class gov.nasa.jpl.sequencing.Sequence--><a href="../Sequence.html" target="_top" title="../Sequence.html" xlink:actuate="onRequest" xlink:href="../Sequence.html" xlink:show="new" xlink:title="../Sequence.html" xlink:type="simple"><rect fill="#FEFECE" filter="url(#f9lqgipdr6tqx)" height="138.6855" id="gov.nasa.jpl.sequencing.Sequence" style="stroke: #A80036; stroke-width: 1.5;" width="226" x="937" y="58.58"/><ellipse cx="1018.25" cy="74.58" fill="#A9DCDF" rx="11" ry="11" style="stroke: #A80036; stroke-width: 1.0;"/><path d="M1018.1133,69.9281 L1016.9595,74.9999 L1019.2754,74.9999 Z M1016.6191,67.6869 L1019.6157,67.6869 L1022.9609,80.08 L1020.5122,80.08 L1019.7485,77.017 L1016.4697,77.017 L1015.7227,80.08 L1013.2739,80.08 Z "/><text fill="#000000" font-family="sans-serif" font-size="12" font-style="italic" lengthAdjust="spacingAndGlyphs" textLength="55" x="1038.75" y="79.1152">Sequence</text><line style="stroke: #A80036; stroke-width: 1.5;" x1="938" x2="1162" y1="90.58" y2="90.58"/><polygon fill="none" points="948,96.58,952,100.58,948,104.58,944,100.58" style="stroke: #B38D22; stroke-width: 1.0;"/><text fill="#000000" font-family="sans-serif" font-size="11" lengthAdjust="spacingAndGlyphs" textLength="67" x="957" y="105.2148">seqid: String</text><polygon fill="none" points="948,109.5351,952,113.5351,948,117.5351,944,113.5351" style="stroke: #B38D22; stroke-width: 1.0;"/><text fill="#000000" font-family="sans-serif" font-size="11" lengthAdjust="spacingAndGlyphs" textLength="134" x="957" y="118.1698">sequenceStartTime: Time</text><polygon fill="none" points="948,122.4902,952,126.4902,948,130.4902,944,126.4902" style="stroke: #B38D22; stroke-width: 1.0;"/><text fill="#000000" font-family="sans-serif" font-size="11" lengthAdjust="spacingAndGlyphs" textLength="200" x="957" y="131.1249">fragments: List&lt;SequenceFragment&gt;</text><line style="stroke: #A80036; stroke-width: 1.5;" x1="938" x2="1162" y1="137.4452" y2="137.4452"/><ellipse cx="948" cy="148.4452" fill="#84BE84" rx="3" ry="3" style="stroke: #038048; stroke-width: 1.0;"/><text fill="#000000" font-family="sans-serif" font-size="11" font-style="italic" lengthAdjust="spacingAndGlyphs" textLength="144" x="957" y="152.08">getSequenceName(): String</text><ellipse cx="948" cy="161.4003" fill="#84BE84" rx="3" ry="3" style="stroke: #038048; stroke-width: 1.0;"/><text fill="#000000" font-family="sans-serif" font-size="11" font-style="italic" lengthAdjust="spacingAndGlyphs" textLength="77" x="957" y="165.0351">getEnd(): Time</text><polygon fill="#FFFF44" points="948,169.3554,952,173.3554,948,177.3554,944,173.3554" style="stroke: #B38D22; stroke-width: 1.0;"/><text fill="#000000" font-family="sans-serif" font-size="11" font-style="italic" lengthAdjust="spacingAndGlyphs" textLength="161" x="957" y="177.9902">writeSequenceHeader(): String</text><polygon fill="#FFFF44" points="948,182.3105,952,186.3105,948,190.3105,944,186.3105" style="stroke: #B38D22; stroke-width: 1.0;"/><text fill="#000000" font-family="sans-serif" font-size="11" font-style="italic" lengthAdjust="spacingAndGlyphs" textLength="158" x="957" y="190.9452">writeSequenceFooter(): String</text></a><!--MD5=[86457e0191930c5184c59802d5a7d488]
reverse link gov.nasa.jpl.sequencing.SequenceFragment to gov.nasa.jpl.sequencing.satfSequencing.SATFAbsoluteStep--><path d="M674.35,172.48 C626.57,189.68 571.56,209.92 522,229.27 C487.8,242.62 451.22,257.54 416.86,271.84 " fill="none" id="gov.nasa.jpl.sequencing.SequenceFragment&lt;-gov.nasa.jpl.sequencing.satfSequencing.SATFAbsoluteStep" style="stroke: #A80036; stroke-width: 1.0; stroke-dasharray: 7.0,7.0;"/><polygon fill="none" points="671.74,165.98,692.93,165.82,676.47,179.16,671.74,165.98" style="stroke: #A80036; stroke-width: 1.0;"/><!--MD5=[c210f3026da571f60ea1127adb02f6d2]
reverse link gov.nasa.jpl.sequencing.SequenceFragment to gov.nasa.jpl.sequencing.satfSequencing.SATFRelativeStep--><path d="M798,186.59 C798,213.25 798,244.96 798,272.14 " fill="none" id="gov.nasa.jpl.sequencing.SequenceFragment&lt;-gov.nasa.jpl.sequencing.satfSequencing.SATFRelativeStep" style="stroke: #A80036; stroke-width: 1.0; stroke-dasharray: 7.0,7.0;"/><polygon fill="none" points="791,186.66,798,166.65,805,186.65,791,186.66" style="stroke: #A80036; stroke-width: 1.0;"/><!--MD5=[26b88ef00a3140817aa5443fd209a036]
reverse link gov.nasa.jpl.sequencing.Sequence to gov.nasa.jpl.sequencing.satfSequencing.SATFSequence--><path d="M1184.2,150.07 C1269.65,166.07 1381.61,191.76 1476,229.27 C1504.86,240.74 1534.63,256.24 1561.48,271.81 " fill="none" id="gov.nasa.jpl.sequencing.Sequence&lt;-gov.nasa.jpl.sequencing.satfSequencing.SATFSequence" style="stroke: #A80036; stroke-width: 1.0;"/><polygon fill="none" points="1182.97,156.97,1164.56,146.49,1185.49,143.19,1182.97,156.97" style="stroke: #A80036; stroke-width: 1.0;"/><text fill="#888888" font-family="sans-serif" font-size="10" lengthAdjust="spacingAndGlyphs" textLength="182" x="844.5" y="449.668">UMLDoclet 2.0.8, PlantUML 1.2020.01</text><!--MD5=[f3703ea9ffd0ad5271de2089fcf0e1dd]
@startuml
    namespace gov.nasa.jpl.sequencing.satfSequencing {

        class SATFAbsoluteStep [[SATFAbsoluteStep.html]] {
            +SATFAbsoluteStep(String, Time, String, String, String, List<String>, Integer)
            +SATFAbsoluteStep(String, Time, String, String, List<String>, List<String>, Integer)
            +SATFAbsoluteStep(String, Time, String, String, String, List<String>)
            +SATFAbsoluteStep(String, Time, String, String, List<String>, List<String>)
            +toSequenceString(Integer): String
            +getAbsoluteStartTime(Time): Time
        }

        class SATFRelativeStep [[SATFRelativeStep.html]] {
            +SATFRelativeStep(String, String, Duration, String, String, String, List<String>, Integer)
            +SATFRelativeStep(String, String, Duration, String, String, List<String>, List<String>, Integer)
            +SATFRelativeStep(String, String, Duration, String, String, String, List<String>)
            +SATFRelativeStep(String, String, Duration, String, String, List<String>, List<String>)
            +toSequenceString(Integer): String
            +getAbsoluteStartTime(Time): Time
        }

        class SATFStepWriter [[SATFStepWriter.html]] {
            {static} #writeComments(List<String>): String
            {static} #writeAbsoluteStepHeader(String, Integer, Time): String
            {static} #writeRelativeStepHeader(String, Integer, Duration, String): String
            {static} #writeStep(String, String, String, Integer, List<String>): String
        }

        class SATFSequence [[SATFSequence.html]] {
            +SATFSequence(String, Time, String, List<String>, String)
            +SATFSequence(String, Time, String, String)
            +getEnd(): Time
            #writeSequenceHeader(): String
            #writeSequenceFooter(): String
            +getSequenceName(): String
        }

        gov.nasa.jpl.sequencing.SequenceFragment <|.. SATFAbsoluteStep
        gov.nasa.jpl.sequencing.SequenceFragment <|.. SATFRelativeStep
        gov.nasa.jpl.sequencing.Sequence <|- - SATFSequence
    }

    namespace gov.nasa.jpl.sequencing {
        interface SequenceFragment [[../SequenceFragment.html]] {
            {abstract} +toSequenceString(Integer): String
            {abstract} +getAbsoluteStartTime(Time): Time
        }
        abstract class Sequence [[../Sequence.html]] {
            #seqid: String
            #sequenceStartTime: Time
            #fragments: List<SequenceFragment>
            {abstract} +getSequenceName(): String
            {abstract} +getEnd(): Time
            {abstract} #writeSequenceHeader(): String
            {abstract} #writeSequenceFooter(): String
        }
    }

    center footer UMLDoclet 2.0.8, PlantUML 1.2020.01
@enduml

PlantUML version 1.2020.01(Sun Feb 16 09:40:32 PST 2020)
(APACHE source distribution)
Java Runtime: OpenJDK Runtime Environment
JVM: OpenJDK 64-Bit Server VM
Java Version: 17.0.6+10
Operating System: Mac OS X
Default Encoding: UTF-8
Language: en
Country: US
--></g></svg>