<?xml version="1.0" encoding="UTF-8" standalone="no"?><svg xmlns="http://www.w3.org/2000/svg" xmlns:xlink="http://www.w3.org/1999/xlink" contentScriptType="application/ecmascript" contentStyleType="text/css" height="323px" preserveAspectRatio="none" style="width:344px;height:323px;" version="1.1" viewBox="0 0 344 323" width="344px" zoomAndPan="magnify"><defs><filter height="300%" id="f1hsu1xwjg2qzg" width="300%" x="-1" y="-1"><feGaussianBlur result="blurOut" stdDeviation="2.0"/><feColorMatrix in="blurOut" result="blurOut2" type="matrix" values="0 0 0 0 0 0 0 0 0 0 0 0 0 0 0 0 0 0 .4 0"/><feOffset dx="4.0" dy="4.0" in="blurOut2" result="blurOut3"/><feBlend in="SourceGraphic" in2="blurOut3" mode="normal"/></filter></defs><g><!--MD5=[1e33fe5c75445b010f5a2d6e6290fe73]
class gov.nasa.jpl.sequencing.satfSequencing.SATFSequence--><a href="SATFSequence.html" target="_top" title="SATFSequence.html" xlink:actuate="onRequest" xlink:href="SATFSequence.html" xlink:show="new" xlink:title="SATFSequence.html" xlink:type="simple"><rect fill="#FEFECE" filter="url(#f1hsu1xwjg2qzg)" height="123.9961" id="gov.nasa.jpl.sequencing.satfSequencing.SATFSequence" style="stroke: #A80036; stroke-width: 1.5;" width="327" x="6" y="166"/><ellipse cx="68.75" cy="185.1328" fill="#ADD1B2" rx="11" ry="11" style="stroke: #A80036; stroke-width: 1.0;"/><path d="M71.2231,191.2759 Q70.6421,191.5747 70.0029,191.7241 Q69.3638,191.8735 68.6582,191.8735 Q66.1514,191.8735 64.8315,190.2217 Q63.5117,188.5698 63.5117,185.4487 Q63.5117,182.3193 64.8315,180.6675 Q66.1514,179.0156 68.6582,179.0156 Q69.3638,179.0156 70.0112,179.165 Q70.6587,179.3145 71.2231,179.6133 L71.2231,182.3359 Q70.5923,181.7549 69.9988,181.4851 Q69.4053,181.2153 68.7744,181.2153 Q67.4297,181.2153 66.7449,182.282 Q66.0601,183.3486 66.0601,185.4487 Q66.0601,187.5405 66.7449,188.6072 Q67.4297,189.6738 68.7744,189.6738 Q69.4053,189.6738 69.9988,189.4041 Q70.5923,189.1343 71.2231,188.5532 Z "/><text fill="#000000" font-family="sans-serif" font-size="14" lengthAdjust="spacingAndGlyphs" textLength="101" x="135.25" y="184.5352">SATFSequence</text><text fill="#000000" font-family="sans-serif" font-size="10" lengthAdjust="spacingAndGlyphs" textLength="193" x="89.25" y="197.1563">gov.nasa.jpl.sequencing.satfSequencing</text><line style="stroke: #A80036; stroke-width: 1.5;" x1="7" x2="332" y1="204.2656" y2="204.2656"/><ellipse cx="17" cy="215.2656" fill="#84BE84" rx="3" ry="3" style="stroke: #038048; stroke-width: 1.0;"/><text fill="#000000" font-family="sans-serif" font-size="11" lengthAdjust="spacingAndGlyphs" textLength="301" x="26" y="218.9004">SATFSequence(String, Time, String, List&lt;String&gt;, String)</text><ellipse cx="17" cy="228.2207" fill="#84BE84" rx="3" ry="3" style="stroke: #038048; stroke-width: 1.0;"/><text fill="#000000" font-family="sans-serif" font-size="11" lengthAdjust="spacingAndGlyphs" textLength="226" x="26" y="231.8555">SATFSequence(String, Time, String, String)</text><ellipse cx="17" cy="241.1758" fill="#84BE84" rx="3" ry="3" style="stroke: #038048; stroke-width: 1.0;"/><text fill="#000000" font-family="sans-serif" font-size="11" lengthAdjust="spacingAndGlyphs" textLength="77" x="26" y="244.8105">getEnd(): Time</text><polygon fill="#FFFF44" points="17,249.1309,21,253.1309,17,257.1309,13,253.1309" style="stroke: #B38D22; stroke-width: 1.0;"/><text fill="#000000" font-family="sans-serif" font-size="11" lengthAdjust="spacingAndGlyphs" textLength="161" x="26" y="257.7656">writeSequenceHeader(): String</text><polygon fill="#FFFF44" points="17,262.0859,21,266.0859,17,270.0859,13,266.0859" style="stroke: #B38D22; stroke-width: 1.0;"/><text fill="#000000" font-family="sans-serif" font-size="11" lengthAdjust="spacingAndGlyphs" textLength="158" x="26" y="270.7207">writeSequenceFooter(): String</text><ellipse cx="17" cy="280.041" fill="#84BE84" rx="3" ry="3" style="stroke: #038048; stroke-width: 1.0;"/><text fill="#000000" font-family="sans-serif" font-size="11" lengthAdjust="spacingAndGlyphs" textLength="144" x="26" y="283.6758">getSequenceName(): String</text></a><!--MD5=[bcb6f485c9cbecd007ebd29171b363db]
class gov.nasa.jpl.sequencing.Sequence--><a href="../Sequence.html" target="_top" title="../Sequence.html" xlink:actuate="onRequest" xlink:href="../Sequence.html" xlink:show="new" xlink:title="../Sequence.html" xlink:type="simple"><rect fill="#FEFECE" filter="url(#f1hsu1xwjg2qzg)" height="98.0859" id="gov.nasa.jpl.sequencing.Sequence" style="stroke: #A80036; stroke-width: 1.5;" width="187" x="76" y="7.92"/><ellipse cx="108.55" cy="27.0528" fill="#A9DCDF" rx="11" ry="11" style="stroke: #A80036; stroke-width: 1.0;"/><path d="M108.4133,22.401 L107.2595,27.4727 L109.5754,27.4727 Z M106.9191,20.1597 L109.9157,20.1597 L113.2609,32.5528 L110.8122,32.5528 L110.0485,29.4898 L106.7697,29.4898 L106.0227,32.5528 L103.5739,32.5528 Z "/><text fill="#000000" font-family="sans-serif" font-size="14" font-style="italic" lengthAdjust="spacingAndGlyphs" textLength="66" x="151.45" y="26.4552">Sequence</text><text fill="#000000" font-family="sans-serif" font-size="10" font-style="italic" lengthAdjust="spacingAndGlyphs" textLength="116" x="126.45" y="39.0763">gov.nasa.jpl.sequencing</text><line style="stroke: #A80036; stroke-width: 1.5;" x1="77" x2="262" y1="46.1856" y2="46.1856"/><ellipse cx="87" cy="57.1856" fill="#84BE84" rx="3" ry="3" style="stroke: #038048; stroke-width: 1.0;"/><text fill="#000000" font-family="sans-serif" font-size="11" font-style="italic" lengthAdjust="spacingAndGlyphs" textLength="144" x="96" y="60.8204">getSequenceName(): String</text><ellipse cx="87" cy="70.1407" fill="#84BE84" rx="3" ry="3" style="stroke: #038048; stroke-width: 1.0;"/><text fill="#000000" font-family="sans-serif" font-size="11" font-style="italic" lengthAdjust="spacingAndGlyphs" textLength="77" x="96" y="73.7755">getEnd(): Time</text><polygon fill="#FFFF44" points="87,78.0958,91,82.0958,87,86.0958,83,82.0958" style="stroke: #B38D22; stroke-width: 1.0;"/><text fill="#000000" font-family="sans-serif" font-size="11" font-style="italic" lengthAdjust="spacingAndGlyphs" textLength="161" x="96" y="86.7305">writeSequenceHeader(): String</text><polygon fill="#FFFF44" points="87,91.0509,91,95.0509,87,99.0509,83,95.0509" style="stroke: #B38D22; stroke-width: 1.0;"/><text fill="#000000" font-family="sans-serif" font-size="11" font-style="italic" lengthAdjust="spacingAndGlyphs" textLength="158" x="96" y="99.6856">writeSequenceFooter(): String</text></a><!--MD5=[26b88ef00a3140817aa5443fd209a036]
reverse link gov.nasa.jpl.sequencing.Sequence to gov.nasa.jpl.sequencing.satfSequencing.SATFSequence--><path d="M169.5,127.63 C169.5,140.21 169.5,153.25 169.5,165.58 " fill="none" id="gov.nasa.jpl.sequencing.Sequence&lt;-gov.nasa.jpl.sequencing.satfSequencing.SATFSequence" style="stroke: #A80036; stroke-width: 1.0;"/><polygon fill="none" points="162.5,127.91,169.5,107.91,176.5,127.91,162.5,127.91" style="stroke: #A80036; stroke-width: 1.0;"/><text fill="#888888" font-family="sans-serif" font-size="10" lengthAdjust="spacingAndGlyphs" textLength="182" x="84.5" y="309.668">UMLDoclet 2.0.8, PlantUML 1.2020.01</text><!--MD5=[98dbe50b69834a699169cb069d5d1ee9]
@startuml
    set namespaceSeparator none
    hide empty fields
    hide empty methods

    class "<size:14>SATFSequence\n<size:10>gov.nasa.jpl.sequencing.satfSequencing" as gov.nasa.jpl.sequencing.satfSequencing.SATFSequence [[SATFSequence.html]] {
        +SATFSequence(String, Time, String, List<String>, String)
        +SATFSequence(String, Time, String, String)
        +getEnd(): Time
        #writeSequenceHeader(): String
        #writeSequenceFooter(): String
        +getSequenceName(): String
    }

    abstract class "<size:14>Sequence\n<size:10>gov.nasa.jpl.sequencing" as gov.nasa.jpl.sequencing.Sequence [[../Sequence.html]] {
        {abstract} +getSequenceName(): String
        {abstract} +getEnd(): Time
        {abstract} #writeSequenceHeader(): String
        {abstract} #writeSequenceFooter(): String
    }

    gov.nasa.jpl.sequencing.Sequence <|- - gov.nasa.jpl.sequencing.satfSequencing.SATFSequence

    center footer UMLDoclet 2.0.8, PlantUML 1.2020.01
@enduml

PlantUML version 1.2020.01(Sun Feb 16 09:40:32 PST 2020)
(APACHE source distribution)
Java Runtime: OpenJDK Runtime Environment
JVM: OpenJDK 64-Bit Server VM
Java Version: 17.0.6+10
Operating System: Mac OS X
Default Encoding: UTF-8
Language: en
Country: US
--></g></svg>