<?xml version="1.0" encoding="UTF-8" standalone="no"?><svg xmlns="http://www.w3.org/2000/svg" xmlns:xlink="http://www.w3.org/1999/xlink" contentScriptType="application/ecmascript" contentStyleType="text/css" height="135px" preserveAspectRatio="none" style="width:385px;height:135px;" version="1.1" viewBox="0 0 385 135" width="385px" zoomAndPan="magnify"><defs><filter height="300%" id="fljjj29j96c3r" width="300%" x="-1" y="-1"><feGaussianBlur result="blurOut" stdDeviation="2.0"/><feColorMatrix in="blurOut" result="blurOut2" type="matrix" values="0 0 0 0 0 0 0 0 0 0 0 0 0 0 0 0 0 0 .4 0"/><feOffset dx="4.0" dy="4.0" in="blurOut2" result="blurOut3"/><feBlend in="SourceGraphic" in2="blurOut3" mode="normal"/></filter></defs><g><!--MD5=[66c8ac1ea9136480f5b4c7cb41ae7ed2]
class gov.nasa.jpl.sequencing.satfSequencing.SATFStepWriter--><a href="SATFStepWriter.html" target="_top" title="SATFStepWriter.html" xlink:actuate="onRequest" xlink:href="SATFStepWriter.html" xlink:show="new" xlink:title="SATFStepWriter.html" xlink:type="simple"><rect fill="#FEFECE" filter="url(#fljjj29j96c3r)" height="98.0859" id="gov.nasa.jpl.sequencing.satfSequencing.SATFStepWriter" style="stroke: #A80036; stroke-width: 1.5;" width="367" x="7" y="7"/><ellipse cx="89.75" cy="26.1328" fill="#ADD1B2" rx="11" ry="11" style="stroke: #A80036; stroke-width: 1.0;"/><path d="M92.2231,32.2759 Q91.6421,32.5747 91.0029,32.7241 Q90.3638,32.8735 89.6582,32.8735 Q87.1514,32.8735 85.8315,31.2217 Q84.5117,29.5698 84.5117,26.4487 Q84.5117,23.3193 85.8315,21.6675 Q87.1514,20.0156 89.6582,20.0156 Q90.3638,20.0156 91.0112,20.165 Q91.6587,20.3145 92.2231,20.6133 L92.2231,23.3359 Q91.5923,22.7549 90.9988,22.4851 Q90.4053,22.2153 89.7744,22.2153 Q88.4297,22.2153 87.7449,23.282 Q87.0601,24.3486 87.0601,26.4487 Q87.0601,28.5405 87.7449,29.6072 Q88.4297,30.6738 89.7744,30.6738 Q90.4053,30.6738 90.9988,30.4041 Q91.5923,30.1343 92.2231,29.5532 Z "/><text fill="#000000" font-family="sans-serif" font-size="14" lengthAdjust="spacingAndGlyphs" textLength="106" x="153.75" y="25.5352">SATFStepWriter</text><text fill="#000000" font-family="sans-serif" font-size="10" lengthAdjust="spacingAndGlyphs" textLength="193" x="110.25" y="38.1563">gov.nasa.jpl.sequencing.satfSequencing</text><line style="stroke: #A80036; stroke-width: 1.5;" x1="8" x2="373" y1="45.2656" y2="45.2656"/><polygon fill="#FFFF44" points="18,51.2656,22,55.2656,18,59.2656,14,55.2656" style="stroke: #B38D22; stroke-width: 1.0;"/><text fill="#000000" font-family="sans-serif" font-size="11" lengthAdjust="spacingAndGlyphs" text-decoration="underline" textLength="199" x="27" y="59.9004">writeComments(List&lt;String&gt;): String</text><polygon fill="#FFFF44" points="18,64.2207,22,68.2207,18,72.2207,14,68.2207" style="stroke: #B38D22; stroke-width: 1.0;"/><text fill="#000000" font-family="sans-serif" font-size="11" lengthAdjust="spacingAndGlyphs" text-decoration="underline" textLength="289" x="27" y="72.8555">writeAbsoluteStepHeader(String, Integer, Time): String</text><polygon fill="#FFFF44" points="18,77.1758,22,81.1758,18,85.1758,14,81.1758" style="stroke: #B38D22; stroke-width: 1.0;"/><text fill="#000000" font-family="sans-serif" font-size="11" lengthAdjust="spacingAndGlyphs" text-decoration="underline" textLength="341" x="27" y="85.8105">writeRelativeStepHeader(String, Integer, Duration, String): String</text><polygon fill="#FFFF44" points="18,90.1309,22,94.1309,18,98.1309,14,94.1309" style="stroke: #B38D22; stroke-width: 1.0;"/><text fill="#000000" font-family="sans-serif" font-size="11" lengthAdjust="spacingAndGlyphs" text-decoration="underline" textLength="322" x="27" y="98.7656">writeStep(String, String, String, Integer, List&lt;String&gt;): String</text></a><text fill="#888888" font-family="sans-serif" font-size="10" lengthAdjust="spacingAndGlyphs" textLength="182" x="99.5" y="121.7539">UMLDoclet 2.0.8, PlantUML 1.2020.01</text><!--MD5=[96d9e7551a93b9b1aebc7eaf13eba0c2]
@startuml
    set namespaceSeparator none
    hide empty fields
    hide empty methods

    class "<size:14>SATFStepWriter\n<size:10>gov.nasa.jpl.sequencing.satfSequencing" as gov.nasa.jpl.sequencing.satfSequencing.SATFStepWriter [[SATFStepWriter.html]] {
        {static} #writeComments(List<String>): String
        {static} #writeAbsoluteStepHeader(String, Integer, Time): String
        {static} #writeRelativeStepHeader(String, Integer, Duration, String): String
        {static} #writeStep(String, String, String, Integer, List<String>): String
    }

    center footer UMLDoclet 2.0.8, PlantUML 1.2020.01
@enduml

PlantUML version 1.2020.01(Sun Feb 16 09:40:32 PST 2020)
(APACHE source distribution)
Java Runtime: OpenJDK Runtime Environment
JVM: OpenJDK 64-Bit Server VM
Java Version: 17.0.6+10
Operating System: Mac OS X
Default Encoding: UTF-8
Language: en
Country: US
--></g></svg>