<?xml version="1.0" encoding="UTF-8" standalone="no"?><svg xmlns="http://www.w3.org/2000/svg" xmlns:xlink="http://www.w3.org/1999/xlink" contentScriptType="application/ecmascript" contentStyleType="text/css" height="219px" preserveAspectRatio="none" style="width:543px;height:219px;" version="1.1" viewBox="0 0 543 219" width="543px" zoomAndPan="magnify"><defs><filter height="300%" id="f1zy6zf87j2wy" width="300%" x="-1" y="-1"><feGaussianBlur result="blurOut" stdDeviation="2.0"/><feColorMatrix in="blurOut" result="blurOut2" type="matrix" values="0 0 0 0 0 0 0 0 0 0 0 0 0 0 0 0 0 0 .4 0"/><feOffset dx="4.0" dy="4.0" in="blurOut2" result="blurOut3"/><feBlend in="SourceGraphic" in2="blurOut3" mode="normal"/></filter></defs><g><!--MD5=[4a060fc0f7e2f8ce3a63593da6aa97b7]
class gov.nasa.jpl.output.tol.JSONTOLWriter--><a href="JSONTOLWriter.html" target="_top" title="JSONTOLWriter.html" xlink:actuate="onRequest" xlink:href="JSONTOLWriter.html" xlink:show="new" xlink:title="JSONTOLWriter.html" xlink:type="simple"><rect fill="#FEFECE" filter="url(#f1zy6zf87j2wy)" height="59.2207" id="gov.nasa.jpl.output.tol.JSONTOLWriter" style="stroke: #A80036; stroke-width: 1.5;" width="526" x="6" y="126.78"/><ellipse cx="210.25" cy="145.9128" fill="#ADD1B2" rx="11" ry="11" style="stroke: #A80036; stroke-width: 1.0;"/><path d="M212.7231,152.0559 Q212.1421,152.3547 211.5029,152.5041 Q210.8638,152.6535 210.1582,152.6535 Q207.6514,152.6535 206.3315,151.0017 Q205.0117,149.3498 205.0117,146.2287 Q205.0117,143.0993 206.3315,141.4475 Q207.6514,139.7956 210.1582,139.7956 Q210.8638,139.7956 211.5112,139.945 Q212.1587,140.0945 212.7231,140.3933 L212.7231,143.1159 Q212.0923,142.5349 211.4988,142.2651 Q210.9053,141.9953 210.2744,141.9953 Q208.9297,141.9953 208.2449,143.062 Q207.5601,144.1286 207.5601,146.2287 Q207.5601,148.3205 208.2449,149.3872 Q208.9297,150.4538 210.2744,150.4538 Q210.9053,150.4538 211.4988,150.1841 Q212.0923,149.9143 212.7231,149.3332 Z "/><text fill="#000000" font-family="sans-serif" font-size="14" lengthAdjust="spacingAndGlyphs" textLength="101" x="234.75" y="145.3152">JSONTOLWriter</text><text fill="#000000" font-family="sans-serif" font-size="10" lengthAdjust="spacingAndGlyphs" textLength="109" x="230.75" y="157.9363">gov.nasa.jpl.output.tol</text><line style="stroke: #A80036; stroke-width: 1.5;" x1="7" x2="531" y1="165.0456" y2="165.0456"/><ellipse cx="17" cy="176.0456" fill="#84BE84" rx="3" ry="3" style="stroke: #038048; stroke-width: 1.0;"/><text fill="#000000" font-family="sans-serif" font-size="11" lengthAdjust="spacingAndGlyphs" textLength="500" x="26" y="179.6804">writeFileContents(ActivityInstanceList, ResourceList, ConstraintInstanceList, Time, Time): void</text></a><!--MD5=[b6cc7f9733b3bb21e0572bab9cf3c83b]
class gov.nasa.jpl.output.TOLWriter--><a href="../TOLWriter.html" target="_top" title="../TOLWriter.html" xlink:actuate="onRequest" xlink:href="../TOLWriter.html" xlink:show="new" xlink:title="../TOLWriter.html" xlink:type="simple"><rect fill="#FEFECE" filter="url(#f1zy6zf87j2wy)" height="59.2207" id="gov.nasa.jpl.output.TOLWriter" style="stroke: #A80036; stroke-width: 1.5;" width="526" x="6" y="7.56"/><ellipse cx="218.25" cy="26.6928" fill="#A9DCDF" rx="11" ry="11" style="stroke: #A80036; stroke-width: 1.0;"/><path d="M218.1133,22.041 L216.9595,27.1127 L219.2754,27.1127 Z M216.6191,19.7997 L219.6157,19.7997 L222.9609,32.1928 L220.5122,32.1928 L219.7485,29.1298 L216.4697,29.1298 L215.7227,32.1928 L213.2739,32.1928 Z "/><text fill="#000000" font-family="sans-serif" font-size="14" font-style="italic" lengthAdjust="spacingAndGlyphs" textLength="68" x="251.25" y="26.0952">TOLWriter</text><text fill="#000000" font-family="sans-serif" font-size="10" font-style="italic" lengthAdjust="spacingAndGlyphs" textLength="93" x="238.75" y="38.7163">gov.nasa.jpl.output</text><line style="stroke: #A80036; stroke-width: 1.5;" x1="7" x2="531" y1="45.8256" y2="45.8256"/><ellipse cx="17" cy="56.8256" fill="#84BE84" rx="3" ry="3" style="stroke: #038048; stroke-width: 1.0;"/><text fill="#000000" font-family="sans-serif" font-size="11" font-style="italic" lengthAdjust="spacingAndGlyphs" textLength="500" x="26" y="60.4604">writeFileContents(ActivityInstanceList, ResourceList, ConstraintInstanceList, Time, Time): void</text></a><!--MD5=[0a0636c095dd6528219b5091de394275]
reverse link gov.nasa.jpl.output.TOLWriter to gov.nasa.jpl.output.tol.JSONTOLWriter--><path d="M269,88.56 C269,101.47 269,114.92 269,126.34 " fill="none" id="gov.nasa.jpl.output.TOLWriter&lt;-gov.nasa.jpl.output.tol.JSONTOLWriter" style="stroke: #A80036; stroke-width: 1.0;"/><polygon fill="none" points="262,88.66,269,68.66,276,88.66,262,88.66" style="stroke: #A80036; stroke-width: 1.0;"/><text fill="#888888" font-family="sans-serif" font-size="10" lengthAdjust="spacingAndGlyphs" textLength="182" x="184" y="205.668">UMLDoclet 2.0.8, PlantUML 1.2020.01</text><!--MD5=[7e2b8a5599054b0babf108ed199034af]
@startuml
    set namespaceSeparator none
    hide empty fields
    hide empty methods

    class "<size:14>JSONTOLWriter\n<size:10>gov.nasa.jpl.output.tol" as gov.nasa.jpl.output.tol.JSONTOLWriter [[JSONTOLWriter.html]] {
        +writeFileContents(ActivityInstanceList, ResourceList, ConstraintInstanceList, Time, Time): void
    }

    abstract class "<size:14>TOLWriter\n<size:10>gov.nasa.jpl.output" as gov.nasa.jpl.output.TOLWriter [[../TOLWriter.html]] {
        {abstract} +writeFileContents(ActivityInstanceList, ResourceList, ConstraintInstanceList, Time, Time): void
    }

    gov.nasa.jpl.output.TOLWriter <|- - gov.nasa.jpl.output.tol.JSONTOLWriter

    center footer UMLDoclet 2.0.8, PlantUML 1.2020.01
@enduml

PlantUML version 1.2020.01(Sun Feb 16 09:40:32 PST 2020)
(APACHE source distribution)
Java Runtime: OpenJDK Runtime Environment
JVM: OpenJDK 64-Bit Server VM
Java Version: 17.0.6+10
Operating System: Mac OS X
Default Encoding: UTF-8
Language: en
Country: US
--></g></svg>