<?xml version="1.0" encoding="UTF-8" standalone="no"?><svg xmlns="http://www.w3.org/2000/svg" xmlns:xlink="http://www.w3.org/1999/xlink" contentScriptType="application/ecmascript" contentStyleType="text/css" height="349px" preserveAspectRatio="none" style="width:203px;height:349px;" version="1.1" viewBox="0 0 203 349" width="203px" zoomAndPan="magnify"><defs><filter height="300%" id="f1r3tbahwf8yvo" width="300%" x="-1" y="-1"><feGaussianBlur result="blurOut" stdDeviation="2.0"/><feColorMatrix in="blurOut" result="blurOut2" type="matrix" values="0 0 0 0 0 0 0 0 0 0 0 0 0 0 0 0 0 0 .4 0"/><feOffset dx="4.0" dy="4.0" in="blurOut2" result="blurOut3"/><feBlend in="SourceGraphic" in2="blurOut3" mode="normal"/></filter></defs><g><!--MD5=[f2f58dde93483d8121ec76b03a19643e]
class gov.nasa.jpl.output.tol.TOLActivityMetadata--><a href="TOLActivityMetadata.html" target="_top" title="TOLActivityMetadata.html" xlink:actuate="onRequest" xlink:href="TOLActivityMetadata.html" xlink:show="new" xlink:title="TOLActivityMetadata.html" xlink:type="simple"><rect fill="#FEFECE" filter="url(#f1r3tbahwf8yvo)" height="136.9512" id="gov.nasa.jpl.output.tol.TOLActivityMetadata" style="stroke: #A80036; stroke-width: 1.5;" width="176" x="6" y="179.05"/><ellipse cx="23.25" cy="198.1828" fill="#ADD1B2" rx="11" ry="11" style="stroke: #A80036; stroke-width: 1.0;"/><path d="M25.7231,204.3259 Q25.1421,204.6247 24.5029,204.7741 Q23.8638,204.9235 23.1582,204.9235 Q20.6514,204.9235 19.3315,203.2717 Q18.0117,201.6198 18.0117,198.4987 Q18.0117,195.3693 19.3315,193.7175 Q20.6514,192.0656 23.1582,192.0656 Q23.8638,192.0656 24.5112,192.215 Q25.1587,192.3645 25.7231,192.6633 L25.7231,195.3859 Q25.0923,194.8049 24.4988,194.5351 Q23.9053,194.2653 23.2744,194.2653 Q21.9297,194.2653 21.2449,195.332 Q20.5601,196.3986 20.5601,198.4987 Q20.5601,200.5905 21.2449,201.6572 Q21.9297,202.7238 23.2744,202.7238 Q23.9053,202.7238 24.4988,202.4541 Q25.0923,202.1843 25.7231,201.6032 Z "/><text fill="#000000" font-family="sans-serif" font-size="14" lengthAdjust="spacingAndGlyphs" textLength="139" x="37.75" y="197.5852">TOLActivityMetadata</text><text fill="#000000" font-family="sans-serif" font-size="10" lengthAdjust="spacingAndGlyphs" textLength="109" x="52.75" y="210.2063">gov.nasa.jpl.output.tol</text><line style="stroke: #A80036; stroke-width: 1.5;" x1="7" x2="181" y1="217.3156" y2="217.3156"/><ellipse cx="17" cy="228.3156" fill="#84BE84" rx="3" ry="3" style="stroke: #038048; stroke-width: 1.0;"/><text fill="#000000" font-family="sans-serif" font-size="11" lengthAdjust="spacingAndGlyphs" textLength="150" x="26" y="231.9504">TOLActivityMetadata(String)</text><ellipse cx="17" cy="241.2707" fill="#84BE84" rx="3" ry="3" style="stroke: #038048; stroke-width: 1.0;"/><text fill="#000000" font-family="sans-serif" font-size="11" lengthAdjust="spacingAndGlyphs" textLength="98" x="26" y="244.9055">toFlatTOL(): String</text><ellipse cx="17" cy="254.2258" fill="#84BE84" rx="3" ry="3" style="stroke: #038048; stroke-width: 1.0;"/><text fill="#000000" font-family="sans-serif" font-size="11" lengthAdjust="spacingAndGlyphs" textLength="79" x="26" y="257.8605">toXML(): String</text><ellipse cx="17" cy="267.1809" fill="#84BE84" rx="3" ry="3" style="stroke: #038048; stroke-width: 1.0;"/><text fill="#000000" font-family="sans-serif" font-size="11" lengthAdjust="spacingAndGlyphs" textLength="95" x="26" y="270.8156">toESJSON(): String</text><ellipse cx="17" cy="280.1359" fill="#84BE84" rx="3" ry="3" style="stroke: #038048; stroke-width: 1.0;"/><text fill="#000000" font-family="sans-serif" font-size="11" lengthAdjust="spacingAndGlyphs" textLength="105" x="26" y="283.7707">toPlanJSON(): String</text><ellipse cx="17" cy="293.091" fill="#84BE84" rx="3" ry="3" style="stroke: #038048; stroke-width: 1.0;"/><text fill="#000000" font-family="sans-serif" font-size="11" lengthAdjust="spacingAndGlyphs" textLength="83" x="26" y="296.7258">getTime(): Time</text><ellipse cx="17" cy="306.0461" fill="#84BE84" rx="3" ry="3" style="stroke: #038048; stroke-width: 1.0;"/><text fill="#000000" font-family="sans-serif" font-size="11" lengthAdjust="spacingAndGlyphs" textLength="149" x="26" y="309.6809">compareTo(TOLRecord): int</text></a><!--MD5=[5621ed44e9a83c213c1fdffffe171dea]
class gov.nasa.jpl.output.tol.TOLRecord--><a href="TOLRecord.html" target="_top" title="TOLRecord.html" xlink:actuate="onRequest" xlink:href="TOLRecord.html" xlink:show="new" xlink:title="TOLRecord.html" xlink:type="simple"><rect fill="#FEFECE" filter="url(#f1r3tbahwf8yvo)" height="111.041" id="gov.nasa.jpl.output.tol.TOLRecord" style="stroke: #A80036; stroke-width: 1.5;" width="141" x="23.5" y="8.01"/><ellipse cx="38.5" cy="27.1428" fill="#B4A7E5" rx="11" ry="11" style="stroke: #A80036; stroke-width: 1.0;"/><path d="M34.9277,23.4079 L34.9277,21.2497 L42.3071,21.2497 L42.3071,23.4079 L39.8418,23.4079 L39.8418,31.4846 L42.3071,31.4846 L42.3071,33.6428 L34.9277,33.6428 L34.9277,31.4846 L37.3931,31.4846 L37.3931,23.4079 Z "/><text fill="#000000" font-family="sans-serif" font-size="14" font-style="italic" lengthAdjust="spacingAndGlyphs" textLength="75" x="69.5" y="26.5452">TOLRecord</text><text fill="#000000" font-family="sans-serif" font-size="10" font-style="italic" lengthAdjust="spacingAndGlyphs" textLength="109" x="52.5" y="39.1662">gov.nasa.jpl.output.tol</text><line style="stroke: #A80036; stroke-width: 1.5;" x1="24.5" x2="163.5" y1="46.2756" y2="46.2756"/><ellipse cx="34.5" cy="57.2756" fill="#84BE84" rx="3" ry="3" style="stroke: #038048; stroke-width: 1.0;"/><text fill="#000000" font-family="sans-serif" font-size="11" font-style="italic" lengthAdjust="spacingAndGlyphs" textLength="98" x="43.5" y="60.9104">toFlatTOL(): String</text><ellipse cx="34.5" cy="70.2307" fill="#84BE84" rx="3" ry="3" style="stroke: #038048; stroke-width: 1.0;"/><text fill="#000000" font-family="sans-serif" font-size="11" font-style="italic" lengthAdjust="spacingAndGlyphs" textLength="79" x="43.5" y="73.8655">toXML(): String</text><ellipse cx="34.5" cy="83.1858" fill="#84BE84" rx="3" ry="3" style="stroke: #038048; stroke-width: 1.0;"/><text fill="#000000" font-family="sans-serif" font-size="11" font-style="italic" lengthAdjust="spacingAndGlyphs" textLength="95" x="43.5" y="86.8205">toESJSON(): String</text><ellipse cx="34.5" cy="96.1409" fill="#84BE84" rx="3" ry="3" style="stroke: #038048; stroke-width: 1.0;"/><text fill="#000000" font-family="sans-serif" font-size="11" font-style="italic" lengthAdjust="spacingAndGlyphs" textLength="105" x="43.5" y="99.7756">toPlanJSON(): String</text><ellipse cx="34.5" cy="109.0959" fill="#84BE84" rx="3" ry="3" style="stroke: #038048; stroke-width: 1.0;"/><text fill="#000000" font-family="sans-serif" font-size="11" font-style="italic" lengthAdjust="spacingAndGlyphs" textLength="83" x="43.5" y="112.7307">getTime(): Time</text></a><!--MD5=[a824a6a906252ead8b5578272a51dc01]
reverse link gov.nasa.jpl.output.tol.TOLRecord to gov.nasa.jpl.output.tol.TOLActivityMetadata--><path d="M94,140.58 C94,153.24 94,166.3 94,178.74 " fill="none" id="gov.nasa.jpl.output.tol.TOLRecord&lt;-gov.nasa.jpl.output.tol.TOLActivityMetadata" style="stroke: #A80036; stroke-width: 1.0; stroke-dasharray: 7.0,7.0;"/><polygon fill="none" points="87,140.65,94,120.65,101,140.65,87,140.65" style="stroke: #A80036; stroke-width: 1.0;"/><text fill="#888888" font-family="sans-serif" font-size="10" lengthAdjust="spacingAndGlyphs" textLength="182" x="9" y="335.668">UMLDoclet 2.0.8, PlantUML 1.2020.01</text><!--MD5=[8c563a2e81a0e9c6661920ee1f2b0f2b]
@startuml
    set namespaceSeparator none
    hide empty fields
    hide empty methods

    class "<size:14>TOLActivityMetadata\n<size:10>gov.nasa.jpl.output.tol" as gov.nasa.jpl.output.tol.TOLActivityMetadata [[TOLActivityMetadata.html]] {
        +TOLActivityMetadata(String)
        +toFlatTOL(): String
        +toXML(): String
        +toESJSON(): String
        +toPlanJSON(): String
        +getTime(): Time
        +compareTo(TOLRecord): int
    }

    interface "<size:14>TOLRecord\n<size:10>gov.nasa.jpl.output.tol" as gov.nasa.jpl.output.tol.TOLRecord [[TOLRecord.html]] {
        {abstract} +toFlatTOL(): String
        {abstract} +toXML(): String
        {abstract} +toESJSON(): String
        {abstract} +toPlanJSON(): String
        {abstract} +getTime(): Time
    }

    gov.nasa.jpl.output.tol.TOLRecord <|.. gov.nasa.jpl.output.tol.TOLActivityMetadata

    center footer UMLDoclet 2.0.8, PlantUML 1.2020.01
@enduml

PlantUML version 1.2020.01(Sun Feb 16 09:40:32 PST 2020)
(APACHE source distribution)
Java Runtime: OpenJDK Runtime Environment
JVM: OpenJDK 64-Bit Server VM
Java Version: 17.0.6+10
Operating System: Mac OS X
Default Encoding: UTF-8
Language: en
Country: US
--></g></svg>