<?xml version="1.0" encoding="UTF-8" standalone="no"?><svg xmlns="http://www.w3.org/2000/svg" xmlns:xlink="http://www.w3.org/1999/xlink" contentScriptType="application/ecmascript" contentStyleType="text/css" height="349px" preserveAspectRatio="none" style="width:202px;height:349px;" version="1.1" viewBox="0 0 202 349" width="202px" zoomAndPan="magnify"><defs><filter height="300%" id="f1k1psq2ywqohm" width="300%" x="-1" y="-1"><feGaussianBlur result="blurOut" stdDeviation="2.0"/><feColorMatrix in="blurOut" result="blurOut2" type="matrix" values="0 0 0 0 0 0 0 0 0 0 0 0 0 0 0 0 0 0 .4 0"/><feOffset dx="4.0" dy="4.0" in="blurOut2" result="blurOut3"/><feBlend in="SourceGraphic" in2="blurOut3" mode="normal"/></filter></defs><g><!--MD5=[f8bbe43bd1562749f0724fe77b66862c]
class gov.nasa.jpl.output.tol.TOLActivityEnd--><a href="TOLActivityEnd.html" target="_top" title="TOLActivityEnd.html" xlink:actuate="onRequest" xlink:href="TOLActivityEnd.html" xlink:show="new" xlink:title="TOLActivityEnd.html" xlink:type="simple"><rect fill="#FEFECE" filter="url(#f1k1psq2ywqohm)" height="136.9512" id="gov.nasa.jpl.output.tol.TOLActivityEnd" style="stroke: #A80036; stroke-width: 1.5;" width="175" x="6" y="179.05"/><ellipse cx="36.3" cy="198.1828" fill="#ADD1B2" rx="11" ry="11" style="stroke: #A80036; stroke-width: 1.0;"/><path d="M38.7731,204.3259 Q38.1921,204.6247 37.5529,204.7741 Q36.9138,204.9235 36.2082,204.9235 Q33.7014,204.9235 32.3815,203.2717 Q31.0617,201.6198 31.0617,198.4987 Q31.0617,195.3693 32.3815,193.7175 Q33.7014,192.0656 36.2082,192.0656 Q36.9138,192.0656 37.5612,192.215 Q38.2087,192.3645 38.7731,192.6633 L38.7731,195.3859 Q38.1423,194.8049 37.5488,194.5351 Q36.9553,194.2653 36.3244,194.2653 Q34.9797,194.2653 34.2949,195.332 Q33.6101,196.3986 33.6101,198.4987 Q33.6101,200.5905 34.2949,201.6572 Q34.9797,202.7238 36.3244,202.7238 Q36.9553,202.7238 37.5488,202.4541 Q38.1423,202.1843 38.7731,201.6032 Z "/><text fill="#000000" font-family="sans-serif" font-size="14" lengthAdjust="spacingAndGlyphs" textLength="102" x="57.2" y="197.5852">TOLActivityEnd</text><text fill="#000000" font-family="sans-serif" font-size="10" lengthAdjust="spacingAndGlyphs" textLength="109" x="53.7" y="210.2063">gov.nasa.jpl.output.tol</text><line style="stroke: #A80036; stroke-width: 1.5;" x1="7" x2="180" y1="217.3156" y2="217.3156"/><ellipse cx="17" cy="228.3156" fill="#84BE84" rx="3" ry="3" style="stroke: #038048; stroke-width: 1.0;"/><text fill="#000000" font-family="sans-serif" font-size="11" lengthAdjust="spacingAndGlyphs" textLength="130" x="26" y="231.9504">TOLActivityEnd(Activity)</text><ellipse cx="17" cy="241.2707" fill="#84BE84" rx="3" ry="3" style="stroke: #038048; stroke-width: 1.0;"/><text fill="#000000" font-family="sans-serif" font-size="11" lengthAdjust="spacingAndGlyphs" textLength="98" x="26" y="244.9055">toFlatTOL(): String</text><ellipse cx="17" cy="254.2258" fill="#84BE84" rx="3" ry="3" style="stroke: #038048; stroke-width: 1.0;"/><text fill="#000000" font-family="sans-serif" font-size="11" lengthAdjust="spacingAndGlyphs" textLength="79" x="26" y="257.8605">toXML(): String</text><ellipse cx="17" cy="267.1809" fill="#84BE84" rx="3" ry="3" style="stroke: #038048; stroke-width: 1.0;"/><text fill="#000000" font-family="sans-serif" font-size="11" lengthAdjust="spacingAndGlyphs" textLength="95" x="26" y="270.8156">toESJSON(): String</text><ellipse cx="17" cy="280.1359" fill="#84BE84" rx="3" ry="3" style="stroke: #038048; stroke-width: 1.0;"/><text fill="#000000" font-family="sans-serif" font-size="11" lengthAdjust="spacingAndGlyphs" textLength="105" x="26" y="283.7707">toPlanJSON(): String</text><ellipse cx="17" cy="293.091" fill="#84BE84" rx="3" ry="3" style="stroke: #038048; stroke-width: 1.0;"/><text fill="#000000" font-family="sans-serif" font-size="11" lengthAdjust="spacingAndGlyphs" textLength="83" x="26" y="296.7258">getTime(): Time</text><ellipse cx="17" cy="306.0461" fill="#84BE84" rx="3" ry="3" style="stroke: #038048; stroke-width: 1.0;"/><text fill="#000000" font-family="sans-serif" font-size="11" lengthAdjust="spacingAndGlyphs" textLength="149" x="26" y="309.6809">compareTo(TOLRecord): int</text></a><!--MD5=[5621ed44e9a83c213c1fdffffe171dea]
class gov.nasa.jpl.output.tol.TOLRecord--><a href="TOLRecord.html" target="_top" title="TOLRecord.html" xlink:actuate="onRequest" xlink:href="TOLRecord.html" xlink:show="new" xlink:title="TOLRecord.html" xlink:type="simple"><rect fill="#FEFECE" filter="url(#f1k1psq2ywqohm)" height="111.041" id="gov.nasa.jpl.output.tol.TOLRecord" style="stroke: #A80036; stroke-width: 1.5;" width="141" x="23" y="8.01"/><ellipse cx="38" cy="27.1428" fill="#B4A7E5" rx="11" ry="11" style="stroke: #A80036; stroke-width: 1.0;"/><path d="M34.4277,23.4079 L34.4277,21.2497 L41.8071,21.2497 L41.8071,23.4079 L39.3418,23.4079 L39.3418,31.4846 L41.8071,31.4846 L41.8071,33.6428 L34.4277,33.6428 L34.4277,31.4846 L36.8931,31.4846 L36.8931,23.4079 Z "/><text fill="#000000" font-family="sans-serif" font-size="14" font-style="italic" lengthAdjust="spacingAndGlyphs" textLength="75" x="69" y="26.5452">TOLRecord</text><text fill="#000000" font-family="sans-serif" font-size="10" font-style="italic" lengthAdjust="spacingAndGlyphs" textLength="109" x="52" y="39.1662">gov.nasa.jpl.output.tol</text><line style="stroke: #A80036; stroke-width: 1.5;" x1="24" x2="163" y1="46.2756" y2="46.2756"/><ellipse cx="34" cy="57.2756" fill="#84BE84" rx="3" ry="3" style="stroke: #038048; stroke-width: 1.0;"/><text fill="#000000" font-family="sans-serif" font-size="11" font-style="italic" lengthAdjust="spacingAndGlyphs" textLength="98" x="43" y="60.9104">toFlatTOL(): String</text><ellipse cx="34" cy="70.2307" fill="#84BE84" rx="3" ry="3" style="stroke: #038048; stroke-width: 1.0;"/><text fill="#000000" font-family="sans-serif" font-size="11" font-style="italic" lengthAdjust="spacingAndGlyphs" textLength="79" x="43" y="73.8655">toXML(): String</text><ellipse cx="34" cy="83.1858" fill="#84BE84" rx="3" ry="3" style="stroke: #038048; stroke-width: 1.0;"/><text fill="#000000" font-family="sans-serif" font-size="11" font-style="italic" lengthAdjust="spacingAndGlyphs" textLength="95" x="43" y="86.8205">toESJSON(): String</text><ellipse cx="34" cy="96.1409" fill="#84BE84" rx="3" ry="3" style="stroke: #038048; stroke-width: 1.0;"/><text fill="#000000" font-family="sans-serif" font-size="11" font-style="italic" lengthAdjust="spacingAndGlyphs" textLength="105" x="43" y="99.7756">toPlanJSON(): String</text><ellipse cx="34" cy="109.0959" fill="#84BE84" rx="3" ry="3" style="stroke: #038048; stroke-width: 1.0;"/><text fill="#000000" font-family="sans-serif" font-size="11" font-style="italic" lengthAdjust="spacingAndGlyphs" textLength="83" x="43" y="112.7307">getTime(): Time</text></a><!--MD5=[0df3135a093acd52567d5bcee286c1ce]
reverse link gov.nasa.jpl.output.tol.TOLRecord to gov.nasa.jpl.output.tol.TOLActivityEnd--><path d="M93.5,140.58 C93.5,153.24 93.5,166.3 93.5,178.74 " fill="none" id="gov.nasa.jpl.output.tol.TOLRecord&lt;-gov.nasa.jpl.output.tol.TOLActivityEnd" style="stroke: #A80036; stroke-width: 1.0; stroke-dasharray: 7.0,7.0;"/><polygon fill="none" points="86.5,140.65,93.5,120.65,100.5,140.65,86.5,140.65" style="stroke: #A80036; stroke-width: 1.0;"/><text fill="#888888" font-family="sans-serif" font-size="10" lengthAdjust="spacingAndGlyphs" textLength="182" x="8.5" y="335.668">UMLDoclet 2.0.8, PlantUML 1.2020.01</text><!--MD5=[2ccfcb1aa1fb2f9b21b0cd5c6cabfe18]
@startuml
    set namespaceSeparator none
    hide empty fields
    hide empty methods

    class "<size:14>TOLActivityEnd\n<size:10>gov.nasa.jpl.output.tol" as gov.nasa.jpl.output.tol.TOLActivityEnd [[TOLActivityEnd.html]] {
        +TOLActivityEnd(Activity)
        +toFlatTOL(): String
        +toXML(): String
        +toESJSON(): String
        +toPlanJSON(): String
        +getTime(): Time
        +compareTo(TOLRecord): int
    }

    interface "<size:14>TOLRecord\n<size:10>gov.nasa.jpl.output.tol" as gov.nasa.jpl.output.tol.TOLRecord [[TOLRecord.html]] {
        {abstract} +toFlatTOL(): String
        {abstract} +toXML(): String
        {abstract} +toESJSON(): String
        {abstract} +toPlanJSON(): String
        {abstract} +getTime(): Time
    }

    gov.nasa.jpl.output.tol.TOLRecord <|.. gov.nasa.jpl.output.tol.TOLActivityEnd

    center footer UMLDoclet 2.0.8, PlantUML 1.2020.01
@enduml

PlantUML version 1.2020.01(Sun Feb 16 09:40:32 PST 2020)
(APACHE source distribution)
Java Runtime: OpenJDK Runtime Environment
JVM: OpenJDK 64-Bit Server VM
Java Version: 17.0.6+10
Operating System: Mac OS X
Default Encoding: UTF-8
Language: en
Country: US
--></g></svg>