<?xml version="1.0" encoding="UTF-8" standalone="no"?><svg xmlns="http://www.w3.org/2000/svg" xmlns:xlink="http://www.w3.org/1999/xlink" contentScriptType="application/ecmascript" contentStyleType="text/css" height="258px" preserveAspectRatio="none" style="width:259px;height:258px;" version="1.1" viewBox="0 0 259 258" width="259px" zoomAndPan="magnify"><defs><filter height="300%" id="f3bket43qxil1" width="300%" x="-1" y="-1"><feGaussianBlur result="blurOut" stdDeviation="2.0"/><feColorMatrix in="blurOut" result="blurOut2" type="matrix" values="0 0 0 0 0 0 0 0 0 0 0 0 0 0 0 0 0 0 .4 0"/><feOffset dx="4.0" dy="4.0" in="blurOut2" result="blurOut3"/><feBlend in="SourceGraphic" in2="blurOut3" mode="normal"/></filter></defs><g><!--MD5=[989fb9b98de2f52b484ef1c9bb626040]
class gov.nasa.jpl.output.tol.TOLResourceIterator--><a href="TOLResourceIterator.html" target="_top" title="TOLResourceIterator.html" xlink:actuate="onRequest" xlink:href="TOLResourceIterator.html" xlink:show="new" xlink:title="TOLResourceIterator.html" xlink:type="simple"><rect fill="#FEFECE" filter="url(#f3bket43qxil1)" height="85.1309" id="gov.nasa.jpl.output.tol.TOLResourceIterator" style="stroke: #A80036; stroke-width: 1.5;" width="242" x="6" y="139.87"/><ellipse cx="52.25" cy="159.0028" fill="#ADD1B2" rx="11" ry="11" style="stroke: #A80036; stroke-width: 1.0;"/><path d="M54.7231,165.1459 Q54.1421,165.4447 53.5029,165.5941 Q52.8638,165.7435 52.1582,165.7435 Q49.6514,165.7435 48.3315,164.0917 Q47.0117,162.4398 47.0117,159.3187 Q47.0117,156.1893 48.3315,154.5375 Q49.6514,152.8856 52.1582,152.8856 Q52.8638,152.8856 53.5112,153.035 Q54.1587,153.1845 54.7231,153.4833 L54.7231,156.2059 Q54.0923,155.6249 53.4988,155.3551 Q52.9053,155.0853 52.2744,155.0853 Q50.9297,155.0853 50.2449,156.152 Q49.5601,157.2186 49.5601,159.3187 Q49.5601,161.4105 50.2449,162.4772 Q50.9297,163.5438 52.2744,163.5438 Q52.9053,163.5438 53.4988,163.2741 Q54.0923,163.0043 54.7231,162.4232 Z "/><text fill="#000000" font-family="sans-serif" font-size="14" lengthAdjust="spacingAndGlyphs" textLength="141" x="72.75" y="158.4052">TOLResourceIterator</text><text fill="#000000" font-family="sans-serif" font-size="10" lengthAdjust="spacingAndGlyphs" textLength="109" x="88.75" y="171.0263">gov.nasa.jpl.output.tol</text><line style="stroke: #A80036; stroke-width: 1.5;" x1="7" x2="247" y1="178.1356" y2="178.1356"/><ellipse cx="17" cy="189.1356" fill="#84BE84" rx="3" ry="3" style="stroke: #038048; stroke-width: 1.0;"/><text fill="#000000" font-family="sans-serif" font-size="11" lengthAdjust="spacingAndGlyphs" textLength="216" x="26" y="192.7704">TOLResourceIterator(ResourcesIterator)</text><ellipse cx="17" cy="202.0907" fill="#84BE84" rx="3" ry="3" style="stroke: #038048; stroke-width: 1.0;"/><text fill="#000000" font-family="sans-serif" font-size="11" lengthAdjust="spacingAndGlyphs" textLength="101" x="26" y="205.7255">hasNext(): boolean</text><ellipse cx="17" cy="215.0458" fill="#84BE84" rx="3" ry="3" style="stroke: #038048; stroke-width: 1.0;"/><text fill="#000000" font-family="sans-serif" font-size="11" lengthAdjust="spacingAndGlyphs" textLength="98" x="26" y="218.6805">next(): TOLRecord</text></a><!--MD5=[af67028c7c879a354eef1ccc049398d0]
class java.util.Iterator--><a href="https://docs.oracle.com/en/java/javase/13/docs/api/java.base/java/util/Iterator.html?is-external=true" target="_top" title="https://docs.oracle.com/en/java/javase/13/docs/api/java.base/java/util/Iterator.html?is-external=true" xlink:actuate="onRequest" xlink:href="https://docs.oracle.com/en/java/javase/13/docs/api/java.base/java/util/Iterator.html?is-external=true" xlink:show="new" xlink:title="https://docs.oracle.com/en/java/javase/13/docs/api/java.base/java/util/Iterator.html?is-external=true" xlink:type="simple"><rect fill="#FEFECE" filter="url(#f3bket43qxil1)" height="72.1758" id="java.util.Iterator" style="stroke: #A80036; stroke-width: 1.5;" width="151" x="51.5" y="7.69"/><ellipse cx="66.5" cy="26.8228" fill="#B4A7E5" rx="11" ry="11" style="stroke: #A80036; stroke-width: 1.0;"/><path d="M62.9277,23.0879 L62.9277,20.9297 L70.3071,20.9297 L70.3071,23.0879 L67.8418,23.0879 L67.8418,31.1646 L70.3071,31.1646 L70.3071,33.3228 L62.9277,33.3228 L62.9277,31.1646 L65.3931,31.1646 L65.3931,23.0879 Z "/><text fill="#000000" font-family="sans-serif" font-size="14" font-style="italic" lengthAdjust="spacingAndGlyphs" textLength="51" x="80.5" y="26.2252">Iterator</text><text fill="#000000" font-family="sans-serif" font-size="10" font-style="italic" lengthAdjust="spacingAndGlyphs" textLength="39" x="86.5" y="38.8463">java.util</text><rect fill="#FFFFFF" height="16.1328" style="stroke: #000000; stroke-width: 1.0; stroke-dasharray: 2.0,2.0;" width="66" x="139.5" y="4.69"/><text fill="#000000" font-family="sans-serif" font-size="12" font-style="italic" lengthAdjust="spacingAndGlyphs" textLength="64" x="140.5" y="17.2916">TOLRecord</text><line style="stroke: #A80036; stroke-width: 1.5;" x1="52.5" x2="201.5" y1="45.9556" y2="45.9556"/><ellipse cx="62.5" cy="56.9556" fill="#84BE84" rx="3" ry="3" style="stroke: #038048; stroke-width: 1.0;"/><text fill="#000000" font-family="sans-serif" font-size="11" font-style="italic" lengthAdjust="spacingAndGlyphs" textLength="101" x="71.5" y="60.5904">hasNext(): boolean</text><ellipse cx="62.5" cy="69.9107" fill="#84BE84" rx="3" ry="3" style="stroke: #038048; stroke-width: 1.0;"/><text fill="#000000" font-family="sans-serif" font-size="11" font-style="italic" lengthAdjust="spacingAndGlyphs" textLength="98" x="71.5" y="73.5455">next(): TOLRecord</text></a><!--MD5=[042c8f1a1ff56b2e9c69142d9ee39ed5]
reverse link java.util.Iterator to gov.nasa.jpl.output.tol.TOLResourceIterator--><path d="M127,101.65 C127,114.42 127,127.74 127,139.76 " fill="none" id="java.util.Iterator&lt;-gov.nasa.jpl.output.tol.TOLResourceIterator" style="stroke: #A80036; stroke-width: 1.0; stroke-dasharray: 7.0,7.0;"/><polygon fill="none" points="120,101.84,127,81.84,134,101.84,120,101.84" style="stroke: #A80036; stroke-width: 1.0;"/><text fill="#888888" font-family="sans-serif" font-size="10" lengthAdjust="spacingAndGlyphs" textLength="182" x="42" y="244.668">UMLDoclet 2.0.8, PlantUML 1.2020.01</text><!--MD5=[65b5a9cdf204ad947cbfd5ab22b9003c]
@startuml
    set namespaceSeparator none
    hide empty fields
    hide empty methods

    class "<size:14>TOLResourceIterator\n<size:10>gov.nasa.jpl.output.tol" as gov.nasa.jpl.output.tol.TOLResourceIterator [[TOLResourceIterator.html]] {
        +TOLResourceIterator(ResourcesIterator)
        +hasNext(): boolean
        +next(): TOLRecord
    }

    interface "<size:14>Iterator\n<size:10>java.util" as java.util.Iterator<TOLRecord> [[https://docs.oracle.com/en/java/javase/13/docs/api/java.base/java/util/Iterator.html?is-external=true]] {
        {abstract} +hasNext(): boolean
        {abstract} +next(): TOLRecord
    }

    java.util.Iterator <|.. gov.nasa.jpl.output.tol.TOLResourceIterator

    center footer UMLDoclet 2.0.8, PlantUML 1.2020.01
@enduml

PlantUML version 1.2020.01(Sun Feb 16 09:40:32 PST 2020)
(APACHE source distribution)
Java Runtime: OpenJDK Runtime Environment
JVM: OpenJDK 64-Bit Server VM
Java Version: 17.0.6+10
Operating System: Mac OS X
Default Encoding: UTF-8
Language: en
Country: US
--></g></svg>