<?xml version="1.0" encoding="UTF-8" standalone="no"?><svg xmlns="http://www.w3.org/2000/svg" xmlns:xlink="http://www.w3.org/1999/xlink" contentScriptType="application/ecmascript" contentStyleType="text/css" height="349px" preserveAspectRatio="none" style="width:221px;height:349px;" version="1.1" viewBox="0 0 221 349" width="221px" zoomAndPan="magnify"><defs><filter height="300%" id="fqj3qqd7eoet6" width="300%" x="-1" y="-1"><feGaussianBlur result="blurOut" stdDeviation="2.0"/><feColorMatrix in="blurOut" result="blurOut2" type="matrix" values="0 0 0 0 0 0 0 0 0 0 0 0 0 0 0 0 0 0 .4 0"/><feOffset dx="4.0" dy="4.0" in="blurOut2" result="blurOut3"/><feBlend in="SourceGraphic" in2="blurOut3" mode="normal"/></filter></defs><g><!--MD5=[eb04ce073cf68ef62f309025b7abeb9f]
class gov.nasa.jpl.output.tol.TOLResourceMetadata--><a href="TOLResourceMetadata.html" target="_top" title="TOLResourceMetadata.html" xlink:actuate="onRequest" xlink:href="TOLResourceMetadata.html" xlink:show="new" xlink:title="TOLResourceMetadata.html" xlink:type="simple"><rect fill="#FEFECE" filter="url(#fqj3qqd7eoet6)" height="136.9512" id="gov.nasa.jpl.output.tol.TOLResourceMetadata" style="stroke: #A80036; stroke-width: 1.5;" width="204" x="6" y="179.05"/><ellipse cx="29.55" cy="198.1828" fill="#ADD1B2" rx="11" ry="11" style="stroke: #A80036; stroke-width: 1.0;"/><path d="M32.0231,204.3259 Q31.4421,204.6247 30.8029,204.7741 Q30.1638,204.9235 29.4582,204.9235 Q26.9514,204.9235 25.6315,203.2717 Q24.3117,201.6198 24.3117,198.4987 Q24.3117,195.3693 25.6315,193.7175 Q26.9514,192.0656 29.4582,192.0656 Q30.1638,192.0656 30.8112,192.215 Q31.4587,192.3645 32.0231,192.6633 L32.0231,195.3859 Q31.3923,194.8049 30.7988,194.5351 Q30.2053,194.2653 29.5744,194.2653 Q28.2297,194.2653 27.5449,195.332 Q26.8601,196.3986 26.8601,198.4987 Q26.8601,200.5905 27.5449,201.6572 Q28.2297,202.7238 29.5744,202.7238 Q30.2053,202.7238 30.7988,202.4541 Q31.3923,202.1843 32.0231,201.6032 Z "/><text fill="#000000" font-family="sans-serif" font-size="14" lengthAdjust="spacingAndGlyphs" textLength="153" x="45.45" y="197.5852">TOLResourceMetadata</text><text fill="#000000" font-family="sans-serif" font-size="10" lengthAdjust="spacingAndGlyphs" textLength="109" x="67.45" y="210.2063">gov.nasa.jpl.output.tol</text><line style="stroke: #A80036; stroke-width: 1.5;" x1="7" x2="209" y1="217.3156" y2="217.3156"/><ellipse cx="17" cy="228.3156" fill="#84BE84" rx="3" ry="3" style="stroke: #038048; stroke-width: 1.0;"/><text fill="#000000" font-family="sans-serif" font-size="11" lengthAdjust="spacingAndGlyphs" textLength="178" x="26" y="231.9504">TOLResourceMetadata(Resource)</text><ellipse cx="17" cy="241.2707" fill="#84BE84" rx="3" ry="3" style="stroke: #038048; stroke-width: 1.0;"/><text fill="#000000" font-family="sans-serif" font-size="11" lengthAdjust="spacingAndGlyphs" textLength="98" x="26" y="244.9055">toFlatTOL(): String</text><ellipse cx="17" cy="254.2258" fill="#84BE84" rx="3" ry="3" style="stroke: #038048; stroke-width: 1.0;"/><text fill="#000000" font-family="sans-serif" font-size="11" lengthAdjust="spacingAndGlyphs" textLength="79" x="26" y="257.8605">toXML(): String</text><ellipse cx="17" cy="267.1809" fill="#84BE84" rx="3" ry="3" style="stroke: #038048; stroke-width: 1.0;"/><text fill="#000000" font-family="sans-serif" font-size="11" lengthAdjust="spacingAndGlyphs" textLength="95" x="26" y="270.8156">toESJSON(): String</text><ellipse cx="17" cy="280.1359" fill="#84BE84" rx="3" ry="3" style="stroke: #038048; stroke-width: 1.0;"/><text fill="#000000" font-family="sans-serif" font-size="11" lengthAdjust="spacingAndGlyphs" textLength="105" x="26" y="283.7707">toPlanJSON(): String</text><ellipse cx="17" cy="293.091" fill="#84BE84" rx="3" ry="3" style="stroke: #038048; stroke-width: 1.0;"/><text fill="#000000" font-family="sans-serif" font-size="11" lengthAdjust="spacingAndGlyphs" textLength="83" x="26" y="296.7258">getTime(): Time</text><ellipse cx="17" cy="306.0461" fill="#84BE84" rx="3" ry="3" style="stroke: #038048; stroke-width: 1.0;"/><text fill="#000000" font-family="sans-serif" font-size="11" lengthAdjust="spacingAndGlyphs" textLength="149" x="26" y="309.6809">compareTo(TOLRecord): int</text></a><!--MD5=[5621ed44e9a83c213c1fdffffe171dea]
class gov.nasa.jpl.output.tol.TOLRecord--><a href="TOLRecord.html" target="_top" title="TOLRecord.html" xlink:actuate="onRequest" xlink:href="TOLRecord.html" xlink:show="new" xlink:title="TOLRecord.html" xlink:type="simple"><rect fill="#FEFECE" filter="url(#fqj3qqd7eoet6)" height="111.041" id="gov.nasa.jpl.output.tol.TOLRecord" style="stroke: #A80036; stroke-width: 1.5;" width="141" x="37.5" y="8.01"/><ellipse cx="52.5" cy="27.1428" fill="#B4A7E5" rx="11" ry="11" style="stroke: #A80036; stroke-width: 1.0;"/><path d="M48.9277,23.4079 L48.9277,21.2497 L56.3071,21.2497 L56.3071,23.4079 L53.8418,23.4079 L53.8418,31.4846 L56.3071,31.4846 L56.3071,33.6428 L48.9277,33.6428 L48.9277,31.4846 L51.3931,31.4846 L51.3931,23.4079 Z "/><text fill="#000000" font-family="sans-serif" font-size="14" font-style="italic" lengthAdjust="spacingAndGlyphs" textLength="75" x="83.5" y="26.5452">TOLRecord</text><text fill="#000000" font-family="sans-serif" font-size="10" font-style="italic" lengthAdjust="spacingAndGlyphs" textLength="109" x="66.5" y="39.1662">gov.nasa.jpl.output.tol</text><line style="stroke: #A80036; stroke-width: 1.5;" x1="38.5" x2="177.5" y1="46.2756" y2="46.2756"/><ellipse cx="48.5" cy="57.2756" fill="#84BE84" rx="3" ry="3" style="stroke: #038048; stroke-width: 1.0;"/><text fill="#000000" font-family="sans-serif" font-size="11" font-style="italic" lengthAdjust="spacingAndGlyphs" textLength="98" x="57.5" y="60.9104">toFlatTOL(): String</text><ellipse cx="48.5" cy="70.2307" fill="#84BE84" rx="3" ry="3" style="stroke: #038048; stroke-width: 1.0;"/><text fill="#000000" font-family="sans-serif" font-size="11" font-style="italic" lengthAdjust="spacingAndGlyphs" textLength="79" x="57.5" y="73.8655">toXML(): String</text><ellipse cx="48.5" cy="83.1858" fill="#84BE84" rx="3" ry="3" style="stroke: #038048; stroke-width: 1.0;"/><text fill="#000000" font-family="sans-serif" font-size="11" font-style="italic" lengthAdjust="spacingAndGlyphs" textLength="95" x="57.5" y="86.8205">toESJSON(): String</text><ellipse cx="48.5" cy="96.1409" fill="#84BE84" rx="3" ry="3" style="stroke: #038048; stroke-width: 1.0;"/><text fill="#000000" font-family="sans-serif" font-size="11" font-style="italic" lengthAdjust="spacingAndGlyphs" textLength="105" x="57.5" y="99.7756">toPlanJSON(): String</text><ellipse cx="48.5" cy="109.0959" fill="#84BE84" rx="3" ry="3" style="stroke: #038048; stroke-width: 1.0;"/><text fill="#000000" font-family="sans-serif" font-size="11" font-style="italic" lengthAdjust="spacingAndGlyphs" textLength="83" x="57.5" y="112.7307">getTime(): Time</text></a><!--MD5=[2693e3be681477cfd899e9e5da61c3f9]
reverse link gov.nasa.jpl.output.tol.TOLRecord to gov.nasa.jpl.output.tol.TOLResourceMetadata--><path d="M108,140.58 C108,153.24 108,166.3 108,178.74 " fill="none" id="gov.nasa.jpl.output.tol.TOLRecord&lt;-gov.nasa.jpl.output.tol.TOLResourceMetadata" style="stroke: #A80036; stroke-width: 1.0; stroke-dasharray: 7.0,7.0;"/><polygon fill="none" points="101,140.65,108,120.65,115,140.65,101,140.65" style="stroke: #A80036; stroke-width: 1.0;"/><text fill="#888888" font-family="sans-serif" font-size="10" lengthAdjust="spacingAndGlyphs" textLength="182" x="23" y="335.668">UMLDoclet 2.0.8, PlantUML 1.2020.01</text><!--MD5=[6232da85cac2235492c2bb5ac35a6f1a]
@startuml
    set namespaceSeparator none
    hide empty fields
    hide empty methods

    class "<size:14>TOLResourceMetadata\n<size:10>gov.nasa.jpl.output.tol" as gov.nasa.jpl.output.tol.TOLResourceMetadata [[TOLResourceMetadata.html]] {
        +TOLResourceMetadata(Resource)
        +toFlatTOL(): String
        +toXML(): String
        +toESJSON(): String
        +toPlanJSON(): String
        +getTime(): Time
        +compareTo(TOLRecord): int
    }

    interface "<size:14>TOLRecord\n<size:10>gov.nasa.jpl.output.tol" as gov.nasa.jpl.output.tol.TOLRecord [[TOLRecord.html]] {
        {abstract} +toFlatTOL(): String
        {abstract} +toXML(): String
        {abstract} +toESJSON(): String
        {abstract} +toPlanJSON(): String
        {abstract} +getTime(): Time
    }

    gov.nasa.jpl.output.tol.TOLRecord <|.. gov.nasa.jpl.output.tol.TOLResourceMetadata

    center footer UMLDoclet 2.0.8, PlantUML 1.2020.01
@enduml

PlantUML version 1.2020.01(Sun Feb 16 09:40:32 PST 2020)
(APACHE source distribution)
Java Runtime: OpenJDK Runtime Environment
JVM: OpenJDK 64-Bit Server VM
Java Version: 17.0.6+10
Operating System: Mac OS X
Default Encoding: UTF-8
Language: en
Country: US
--></g></svg>