<?xml version="1.0" encoding="UTF-8" standalone="no"?><svg xmlns="http://www.w3.org/2000/svg" xmlns:xlink="http://www.w3.org/1999/xlink" contentScriptType="application/ecmascript" contentStyleType="text/css" height="232px" preserveAspectRatio="none" style="width:270px;height:232px;" version="1.1" viewBox="0 0 270 232" width="270px" zoomAndPan="magnify"><defs><filter height="300%" id="fawczg4e3jnit" width="300%" x="-1" y="-1"><feGaussianBlur result="blurOut" stdDeviation="2.0"/><feColorMatrix in="blurOut" result="blurOut2" type="matrix" values="0 0 0 0 0 0 0 0 0 0 0 0 0 0 0 0 0 0 .4 0"/><feOffset dx="4.0" dy="4.0" in="blurOut2" result="blurOut3"/><feBlend in="SourceGraphic" in2="blurOut3" mode="normal"/></filter></defs><g><!--MD5=[cf68bea8c0ca4c9d24182ae25452a22d]
class gov.nasa.jpl.output.tol.XMLTOLSnippetThread--><a href="XMLTOLSnippetThread.html" target="_top" title="XMLTOLSnippetThread.html" xlink:actuate="onRequest" xlink:href="XMLTOLSnippetThread.html" xlink:show="new" xlink:title="XMLTOLSnippetThread.html" xlink:type="simple"><rect fill="#FEFECE" filter="url(#fawczg4e3jnit)" height="72.1758" id="gov.nasa.jpl.output.tol.XMLTOLSnippetThread" style="stroke: #A80036; stroke-width: 1.5;" width="253" x="6" y="126.82"/><ellipse cx="50.25" cy="145.9528" fill="#ADD1B2" rx="11" ry="11" style="stroke: #A80036; stroke-width: 1.0;"/><path d="M52.7231,152.0959 Q52.1421,152.3947 51.5029,152.5441 Q50.8638,152.6935 50.1582,152.6935 Q47.6514,152.6935 46.3315,151.0417 Q45.0117,149.3898 45.0117,146.2687 Q45.0117,143.1393 46.3315,141.4875 Q47.6514,139.8356 50.1582,139.8356 Q50.8638,139.8356 51.5112,139.985 Q52.1587,140.1345 52.7231,140.4333 L52.7231,143.1559 Q52.0923,142.5749 51.4988,142.3051 Q50.9053,142.0353 50.2744,142.0353 Q48.9297,142.0353 48.2449,143.102 Q47.5601,144.1686 47.5601,146.2687 Q47.5601,148.3605 48.2449,149.4272 Q48.9297,150.4938 50.2744,150.4938 Q50.9053,150.4938 51.4988,150.2241 Q52.0923,149.9543 52.7231,149.3732 Z "/><text fill="#000000" font-family="sans-serif" font-size="14" lengthAdjust="spacingAndGlyphs" textLength="156" x="70.75" y="145.3552">XMLTOLSnippetThread</text><text fill="#000000" font-family="sans-serif" font-size="10" lengthAdjust="spacingAndGlyphs" textLength="109" x="94.25" y="157.9763">gov.nasa.jpl.output.tol</text><line style="stroke: #A80036; stroke-width: 1.5;" x1="7" x2="258" y1="165.0856" y2="165.0856"/><ellipse cx="17" cy="176.0856" fill="#84BE84" rx="3" ry="3" style="stroke: #038048; stroke-width: 1.0;"/><text fill="#000000" font-family="sans-serif" font-size="11" lengthAdjust="spacingAndGlyphs" textLength="227" x="26" y="179.7204">XMLTOLSnippetThread(List&lt;TOLRecord&gt;)</text><ellipse cx="17" cy="189.0407" fill="#84BE84" rx="3" ry="3" style="stroke: #038048; stroke-width: 1.0;"/><text fill="#000000" font-family="sans-serif" font-size="11" lengthAdjust="spacingAndGlyphs" textLength="101" x="26" y="192.6755">call(): StringBuilder</text></a><!--MD5=[09f930f2ae61031702f77372eea215b2]
class java.util.concurrent.Callable--><a href="https://docs.oracle.com/en/java/javase/13/docs/api/java.base/java/util/concurrent/Callable.html?is-external=true" target="_top" title="https://docs.oracle.com/en/java/javase/13/docs/api/java.base/java/util/concurrent/Callable.html?is-external=true" xlink:actuate="onRequest" xlink:href="https://docs.oracle.com/en/java/javase/13/docs/api/java.base/java/util/concurrent/Callable.html?is-external=true" xlink:show="new" xlink:title="https://docs.oracle.com/en/java/javase/13/docs/api/java.base/java/util/concurrent/Callable.html?is-external=true" xlink:type="simple"><rect fill="#FEFECE" filter="url(#fawczg4e3jnit)" height="59.2207" id="java.util.concurrent.Callable" style="stroke: #A80036; stroke-width: 1.5;" width="202" x="31.5" y="7.6"/><ellipse cx="46.5" cy="26.7328" fill="#B4A7E5" rx="11" ry="11" style="stroke: #A80036; stroke-width: 1.0;"/><path d="M42.9277,22.9979 L42.9277,20.8397 L50.3071,20.8397 L50.3071,22.9979 L47.8418,22.9979 L47.8418,31.0746 L50.3071,31.0746 L50.3071,33.2328 L42.9277,33.2328 L42.9277,31.0746 L45.3931,31.0746 L45.3931,22.9979 Z "/><text fill="#000000" font-family="sans-serif" font-size="14" font-style="italic" lengthAdjust="spacingAndGlyphs" textLength="55" x="80" y="26.1352">Callable</text><text fill="#000000" font-family="sans-serif" font-size="10" font-style="italic" lengthAdjust="spacingAndGlyphs" textLength="94" x="60.5" y="38.7562">java.util.concurrent</text><rect fill="#FFFFFF" height="16.1328" style="stroke: #000000; stroke-width: 1.0; stroke-dasharray: 2.0,2.0;" width="74" x="162.5" y="4.6"/><text fill="#000000" font-family="sans-serif" font-size="12" font-style="italic" lengthAdjust="spacingAndGlyphs" textLength="72" x="163.5" y="17.2016">StringBuilder</text><line style="stroke: #A80036; stroke-width: 1.5;" x1="32.5" x2="232.5" y1="45.8656" y2="45.8656"/><ellipse cx="42.5" cy="56.8656" fill="#84BE84" rx="3" ry="3" style="stroke: #038048; stroke-width: 1.0;"/><text fill="#000000" font-family="sans-serif" font-size="11" font-style="italic" lengthAdjust="spacingAndGlyphs" textLength="101" x="51.5" y="60.5004">call(): StringBuilder</text></a><!--MD5=[21a97fe37939a828d5efbf944f24f46e]
reverse link java.util.concurrent.Callable to gov.nasa.jpl.output.tol.XMLTOLSnippetThread--><path d="M132.5,88.32 C132.5,101.11 132.5,114.59 132.5,126.47 " fill="none" id="java.util.concurrent.Callable&lt;-gov.nasa.jpl.output.tol.XMLTOLSnippetThread" style="stroke: #A80036; stroke-width: 1.0; stroke-dasharray: 7.0,7.0;"/><polygon fill="none" points="125.5,88.73,132.5,68.73,139.5,88.73,125.5,88.73" style="stroke: #A80036; stroke-width: 1.0;"/><text fill="#888888" font-family="sans-serif" font-size="10" lengthAdjust="spacingAndGlyphs" textLength="182" x="47.5" y="218.668">UMLDoclet 2.0.8, PlantUML 1.2020.01</text><!--MD5=[ebb365449be3d3656377e37aae5dbe22]
@startuml
    set namespaceSeparator none
    hide empty fields
    hide empty methods

    class "<size:14>XMLTOLSnippetThread\n<size:10>gov.nasa.jpl.output.tol" as gov.nasa.jpl.output.tol.XMLTOLSnippetThread [[XMLTOLSnippetThread.html]] {
        +XMLTOLSnippetThread(List<TOLRecord>)
        +call(): StringBuilder
    }

    interface "<size:14>Callable\n<size:10>java.util.concurrent" as java.util.concurrent.Callable<StringBuilder> [[https://docs.oracle.com/en/java/javase/13/docs/api/java.base/java/util/concurrent/Callable.html?is-external=true]] {
        {abstract} +call(): StringBuilder
    }

    java.util.concurrent.Callable <|.. gov.nasa.jpl.output.tol.XMLTOLSnippetThread

    center footer UMLDoclet 2.0.8, PlantUML 1.2020.01
@enduml

PlantUML version 1.2020.01(Sun Feb 16 09:40:32 PST 2020)
(APACHE source distribution)
Java Runtime: OpenJDK Runtime Environment
JVM: OpenJDK 64-Bit Server VM
Java Version: 17.0.6+10
Operating System: Mac OS X
Default Encoding: UTF-8
Language: en
Country: US
--></g></svg>