<?xml version="1.0" encoding="UTF-8" standalone="no"?><svg xmlns="http://www.w3.org/2000/svg" xmlns:xlink="http://www.w3.org/1999/xlink" contentScriptType="application/ecmascript" contentStyleType="text/css" height="232px" preserveAspectRatio="none" style="width:586px;height:232px;" version="1.1" viewBox="0 0 586 232" width="586px" zoomAndPan="magnify"><defs><filter height="300%" id="ft133f3gwwn28" width="300%" x="-1" y="-1"><feGaussianBlur result="blurOut" stdDeviation="2.0"/><feColorMatrix in="blurOut" result="blurOut2" type="matrix" values="0 0 0 0 0 0 0 0 0 0 0 0 0 0 0 0 0 0 .4 0"/><feOffset dx="4.0" dy="4.0" in="blurOut2" result="blurOut3"/><feBlend in="SourceGraphic" in2="blurOut3" mode="normal"/></filter></defs><g><!--MD5=[1e42a278d4292ae3570e22c29e17c234]
class gov.nasa.jpl.output.tol.XMLTOLWriter--><a href="XMLTOLWriter.html" target="_top" title="XMLTOLWriter.html" xlink:actuate="onRequest" xlink:href="XMLTOLWriter.html" xlink:show="new" xlink:title="XMLTOLWriter.html" xlink:type="simple"><rect fill="#FEFECE" filter="url(#ft133f3gwwn28)" height="72.1758" id="gov.nasa.jpl.output.tol.XMLTOLWriter" style="stroke: #A80036; stroke-width: 1.5;" width="569" x="6" y="126.82"/><ellipse cx="231.75" cy="145.9528" fill="#ADD1B2" rx="11" ry="11" style="stroke: #A80036; stroke-width: 1.0;"/><path d="M234.2231,152.0959 Q233.6421,152.3947 233.0029,152.5441 Q232.3638,152.6935 231.6582,152.6935 Q229.1514,152.6935 227.8315,151.0417 Q226.5117,149.3898 226.5117,146.2687 Q226.5117,143.1393 227.8315,141.4875 Q229.1514,139.8356 231.6582,139.8356 Q232.3638,139.8356 233.0112,139.985 Q233.6587,140.1345 234.2231,140.4333 L234.2231,143.1559 Q233.5923,142.5749 232.9988,142.3051 Q232.4053,142.0353 231.7744,142.0353 Q230.4297,142.0353 229.7449,143.102 Q229.0601,144.1686 229.0601,146.2687 Q229.0601,148.3605 229.7449,149.4272 Q230.4297,150.4938 231.7744,150.4938 Q232.4053,150.4938 232.9988,150.2241 Q233.5923,149.9543 234.2231,149.3732 Z "/><text fill="#000000" font-family="sans-serif" font-size="14" lengthAdjust="spacingAndGlyphs" textLength="96" x="258.75" y="145.3552">XMLTOLWriter</text><text fill="#000000" font-family="sans-serif" font-size="10" lengthAdjust="spacingAndGlyphs" textLength="109" x="252.25" y="157.9763">gov.nasa.jpl.output.tol</text><line style="stroke: #A80036; stroke-width: 1.5;" x1="7" x2="574" y1="165.0856" y2="165.0856"/><ellipse cx="17" cy="176.0856" fill="#84BE84" rx="3" ry="3" style="stroke: #038048; stroke-width: 1.0;"/><text fill="#000000" font-family="sans-serif" font-size="11" lengthAdjust="spacingAndGlyphs" textLength="500" x="26" y="179.7204">writeFileContents(ActivityInstanceList, ResourceList, ConstraintInstanceList, Time, Time): void</text><ellipse cx="17" cy="189.0407" fill="#84BE84" rx="3" ry="3" style="stroke: #038048; stroke-width: 1.0;"/><text fill="#000000" font-family="sans-serif" font-size="11" lengthAdjust="spacingAndGlyphs" text-decoration="underline" textLength="543" x="26" y="192.6755">breakLongListIntoStartEndSublistsByBatchAndCore(int, int, int): List&lt;List&lt;Entry&lt;Integer, Integer&gt;&gt;&gt;</text></a><!--MD5=[b6cc7f9733b3bb21e0572bab9cf3c83b]
class gov.nasa.jpl.output.TOLWriter--><a href="../TOLWriter.html" target="_top" title="../TOLWriter.html" xlink:actuate="onRequest" xlink:href="../TOLWriter.html" xlink:show="new" xlink:title="../TOLWriter.html" xlink:type="simple"><rect fill="#FEFECE" filter="url(#ft133f3gwwn28)" height="59.2207" id="gov.nasa.jpl.output.TOLWriter" style="stroke: #A80036; stroke-width: 1.5;" width="526" x="27.5" y="7.6"/><ellipse cx="239.75" cy="26.7328" fill="#A9DCDF" rx="11" ry="11" style="stroke: #A80036; stroke-width: 1.0;"/><path d="M239.6133,22.081 L238.4595,27.1527 L240.7754,27.1527 Z M238.1191,19.8397 L241.1157,19.8397 L244.4609,32.2328 L242.0122,32.2328 L241.2485,29.1698 L237.9697,29.1698 L237.2227,32.2328 L234.7739,32.2328 Z "/><text fill="#000000" font-family="sans-serif" font-size="14" font-style="italic" lengthAdjust="spacingAndGlyphs" textLength="68" x="272.75" y="26.1352">TOLWriter</text><text fill="#000000" font-family="sans-serif" font-size="10" font-style="italic" lengthAdjust="spacingAndGlyphs" textLength="93" x="260.25" y="38.7562">gov.nasa.jpl.output</text><line style="stroke: #A80036; stroke-width: 1.5;" x1="28.5" x2="552.5" y1="45.8656" y2="45.8656"/><ellipse cx="38.5" cy="56.8656" fill="#84BE84" rx="3" ry="3" style="stroke: #038048; stroke-width: 1.0;"/><text fill="#000000" font-family="sans-serif" font-size="11" font-style="italic" lengthAdjust="spacingAndGlyphs" textLength="500" x="47.5" y="60.5004">writeFileContents(ActivityInstanceList, ResourceList, ConstraintInstanceList, Time, Time): void</text></a><!--MD5=[1679b653ebe05ba5923bb1831fd33dba]
reverse link gov.nasa.jpl.output.TOLWriter to gov.nasa.jpl.output.tol.XMLTOLWriter--><path d="M290.5,88.32 C290.5,101.11 290.5,114.59 290.5,126.47 " fill="none" id="gov.nasa.jpl.output.TOLWriter&lt;-gov.nasa.jpl.output.tol.XMLTOLWriter" style="stroke: #A80036; stroke-width: 1.0;"/><polygon fill="none" points="283.5,88.73,290.5,68.73,297.5,88.73,283.5,88.73" style="stroke: #A80036; stroke-width: 1.0;"/><text fill="#888888" font-family="sans-serif" font-size="10" lengthAdjust="spacingAndGlyphs" textLength="182" x="205.5" y="218.668">UMLDoclet 2.0.8, PlantUML 1.2020.01</text><!--MD5=[0fd4c4ffb125ae8208cf66b6ec21583c]
@startuml
    set namespaceSeparator none
    hide empty fields
    hide empty methods

    class "<size:14>XMLTOLWriter\n<size:10>gov.nasa.jpl.output.tol" as gov.nasa.jpl.output.tol.XMLTOLWriter [[XMLTOLWriter.html]] {
        +writeFileContents(ActivityInstanceList, ResourceList, ConstraintInstanceList, Time, Time): void
        {static} +breakLongListIntoStartEndSublistsByBatchAndCore(int, int, int): List<List<Entry<Integer, Integer>>>
    }

    abstract class "<size:14>TOLWriter\n<size:10>gov.nasa.jpl.output" as gov.nasa.jpl.output.TOLWriter [[../TOLWriter.html]] {
        {abstract} +writeFileContents(ActivityInstanceList, ResourceList, ConstraintInstanceList, Time, Time): void
    }

    gov.nasa.jpl.output.TOLWriter <|- - gov.nasa.jpl.output.tol.XMLTOLWriter

    center footer UMLDoclet 2.0.8, PlantUML 1.2020.01
@enduml

PlantUML version 1.2020.01(Sun Feb 16 09:40:32 PST 2020)
(APACHE source distribution)
Java Runtime: OpenJDK Runtime Environment
JVM: OpenJDK 64-Bit Server VM
Java Version: 17.0.6+10
Operating System: Mac OS X
Default Encoding: UTF-8
Language: en
Country: US
--></g></svg>