<?xml version="1.0" encoding="UTF-8" standalone="no"?><svg xmlns="http://www.w3.org/2000/svg" xmlns:xlink="http://www.w3.org/1999/xlink" contentScriptType="application/ecmascript" contentStyleType="text/css" height="284px" preserveAspectRatio="none" style="width:299px;height:284px;" version="1.1" viewBox="0 0 299 284" width="299px" zoomAndPan="magnify"><defs><filter height="300%" id="fepcnc69khrlo" width="300%" x="-1" y="-1"><feGaussianBlur result="blurOut" stdDeviation="2.0"/><feColorMatrix in="blurOut" result="blurOut2" type="matrix" values="0 0 0 0 0 0 0 0 0 0 0 0 0 0 0 0 0 0 .4 0"/><feOffset dx="4.0" dy="4.0" in="blurOut2" result="blurOut3"/><feBlend in="SourceGraphic" in2="blurOut3" mode="normal"/></filter></defs><g><!--MD5=[4438bb022b7af2b644f5b40e62ff2509]
class gov.nasa.jpl.resource.BooleanResource--><a href="BooleanResource.html" target="_top" title="BooleanResource.html" xlink:actuate="onRequest" xlink:href="BooleanResource.html" xlink:show="new" xlink:title="BooleanResource.html" xlink:type="simple"><rect fill="#FEFECE" filter="url(#fepcnc69khrlo)" height="123.9961" id="gov.nasa.jpl.resource.BooleanResource" style="stroke: #A80036; stroke-width: 1.5;" width="282" x="6" y="127"/><ellipse cx="83.75" cy="146.1328" fill="#ADD1B2" rx="11" ry="11" style="stroke: #A80036; stroke-width: 1.0;"/><path d="M86.2231,152.2759 Q85.6421,152.5747 85.0029,152.7241 Q84.3638,152.8735 83.6582,152.8735 Q81.1514,152.8735 79.8315,151.2217 Q78.5117,149.5698 78.5117,146.4487 Q78.5117,143.3193 79.8315,141.6675 Q81.1514,140.0156 83.6582,140.0156 Q84.3638,140.0156 85.0112,140.165 Q85.6587,140.3145 86.2231,140.6133 L86.2231,143.3359 Q85.5923,142.7549 84.9988,142.4851 Q84.4053,142.2153 83.7744,142.2153 Q82.4297,142.2153 81.7449,143.282 Q81.0601,144.3486 81.0601,146.4487 Q81.0601,148.5405 81.7449,149.6072 Q82.4297,150.6738 83.7744,150.6738 Q84.4053,150.6738 84.9988,150.4041 Q85.5923,150.1343 86.2231,149.5532 Z "/><text fill="#000000" font-family="sans-serif" font-size="14" lengthAdjust="spacingAndGlyphs" textLength="118" x="104.25" y="145.5352">BooleanResource</text><text fill="#000000" font-family="sans-serif" font-size="10" lengthAdjust="spacingAndGlyphs" textLength="103" x="111.75" y="158.1563">gov.nasa.jpl.resource</text><line style="stroke: #A80036; stroke-width: 1.5;" x1="7" x2="287" y1="165.2656" y2="165.2656"/><ellipse cx="17" cy="176.2656" fill="#84BE84" rx="3" ry="3" style="stroke: #038048; stroke-width: 1.0;"/><text fill="#000000" font-family="sans-serif" font-size="11" lengthAdjust="spacingAndGlyphs" textLength="256" x="26" y="179.9004">BooleanResource(Boolean, String, String, String)</text><ellipse cx="17" cy="189.2207" fill="#84BE84" rx="3" ry="3" style="stroke: #038048; stroke-width: 1.0;"/><text fill="#000000" font-family="sans-serif" font-size="11" lengthAdjust="spacingAndGlyphs" textLength="218" x="26" y="192.8555">BooleanResource(Boolean, String, String)</text><ellipse cx="17" cy="202.1758" fill="#84BE84" rx="3" ry="3" style="stroke: #038048; stroke-width: 1.0;"/><text fill="#000000" font-family="sans-serif" font-size="11" lengthAdjust="spacingAndGlyphs" textLength="180" x="26" y="205.8105">BooleanResource(Boolean, String)</text><ellipse cx="17" cy="215.1309" fill="#84BE84" rx="3" ry="3" style="stroke: #038048; stroke-width: 1.0;"/><text fill="#000000" font-family="sans-serif" font-size="11" lengthAdjust="spacingAndGlyphs" textLength="100" x="26" y="218.7656">BooleanResource()</text><ellipse cx="17" cy="228.0859" fill="#84BE84" rx="3" ry="3" style="stroke: #038048; stroke-width: 1.0;"/><text fill="#000000" font-family="sans-serif" font-size="11" lengthAdjust="spacingAndGlyphs" textLength="117" x="26" y="231.7207">profile(Time): Boolean</text><ellipse cx="17" cy="241.041" fill="#84BE84" rx="3" ry="3" style="stroke: #038048; stroke-width: 1.0;"/><text fill="#000000" font-family="sans-serif" font-size="11" lengthAdjust="spacingAndGlyphs" textLength="74" x="26" y="244.6758">update(): void</text></a><!--MD5=[b18a17eef09647c609c16abbc0db11ab]
class gov.nasa.jpl.resource.Resource--><a href="Resource.html" target="_top" title="Resource.html" xlink:actuate="onRequest" xlink:href="Resource.html" xlink:show="new" xlink:title="Resource.html" xlink:type="simple"><rect fill="#FEFECE" filter="url(#fepcnc69khrlo)" height="59.2207" id="gov.nasa.jpl.resource.Resource" style="stroke: #A80036; stroke-width: 1.5;" width="184" x="55" y="7.78"/><ellipse cx="70" cy="26.9128" fill="#A9DCDF" rx="11" ry="11" style="stroke: #A80036; stroke-width: 1.0;"/><path d="M69.8633,22.261 L68.7095,27.3327 L71.0254,27.3327 Z M68.3691,20.0197 L71.3657,20.0197 L74.7109,32.4128 L72.2622,32.4128 L71.4985,29.3498 L68.2197,29.3498 L67.4727,32.4128 L65.0239,32.4128 Z "/><text fill="#000000" font-family="sans-serif" font-size="14" font-style="italic" lengthAdjust="spacingAndGlyphs" textLength="63" x="104" y="26.3152">Resource</text><text fill="#000000" font-family="sans-serif" font-size="10" font-style="italic" lengthAdjust="spacingAndGlyphs" textLength="103" x="84" y="38.9363">gov.nasa.jpl.resource</text><rect fill="#FFFFFF" height="16.1328" style="stroke: #000000; stroke-width: 1.0; stroke-dasharray: 2.0,2.0;" width="47" x="195" y="4.78"/><text fill="#000000" font-family="sans-serif" font-size="12" font-style="italic" lengthAdjust="spacingAndGlyphs" textLength="45" x="196" y="17.3816">Boolean</text><line style="stroke: #A80036; stroke-width: 1.5;" x1="56" x2="238" y1="46.0456" y2="46.0456"/><ellipse cx="66" cy="57.0456" fill="#84BE84" rx="3" ry="3" style="stroke: #038048; stroke-width: 1.0;"/><text fill="#000000" font-family="sans-serif" font-size="11" font-style="italic" lengthAdjust="spacingAndGlyphs" textLength="117" x="75" y="60.6804">profile(Time): Boolean</text></a><!--MD5=[02f434d70f1ff6a696e7b45b80828f8d]
reverse link gov.nasa.jpl.resource.Resource to gov.nasa.jpl.resource.BooleanResource--><path d="M147,88.52 C147,100.78 147,114.02 147,126.73 " fill="none" id="gov.nasa.jpl.resource.Resource&lt;-gov.nasa.jpl.resource.BooleanResource" style="stroke: #A80036; stroke-width: 1.0;"/><polygon fill="none" points="140,88.75,147,68.75,154,88.75,140,88.75" style="stroke: #A80036; stroke-width: 1.0;"/><text fill="#888888" font-family="sans-serif" font-size="10" lengthAdjust="spacingAndGlyphs" textLength="182" x="62" y="270.668">UMLDoclet 2.0.8, PlantUML 1.2020.01</text><!--MD5=[687732a6c94ef5447f6077b562bf47bf]
@startuml
    set namespaceSeparator none
    hide empty fields
    hide empty methods

    class "<size:14>BooleanResource\n<size:10>gov.nasa.jpl.resource" as gov.nasa.jpl.resource.BooleanResource [[BooleanResource.html]] {
        +BooleanResource(Boolean, String, String, String)
        +BooleanResource(Boolean, String, String)
        +BooleanResource(Boolean, String)
        +BooleanResource()
        +profile(Time): Boolean
        +update(): void
    }

    abstract class "<size:14>Resource\n<size:10>gov.nasa.jpl.resource" as gov.nasa.jpl.resource.Resource<Boolean> [[Resource.html]] {
        {abstract} +profile(Time): Boolean
    }

    gov.nasa.jpl.resource.Resource <|- - gov.nasa.jpl.resource.BooleanResource

    center footer UMLDoclet 2.0.8, PlantUML 1.2020.01
@enduml

PlantUML version 1.2020.01(Sun Feb 16 09:40:32 PST 2020)
(APACHE source distribution)
Java Runtime: OpenJDK Runtime Environment
JVM: OpenJDK 64-Bit Server VM
Java Version: 17.0.6+10
Operating System: Mac OS X
Default Encoding: UTF-8
Language: en
Country: US
--></g></svg>