<?xml version="1.0" encoding="UTF-8" standalone="no"?><svg xmlns="http://www.w3.org/2000/svg" xmlns:xlink="http://www.w3.org/1999/xlink" contentScriptType="application/ecmascript" contentStyleType="text/css" height="297px" preserveAspectRatio="none" style="width:331px;height:297px;" version="1.1" viewBox="0 0 331 297" width="331px" zoomAndPan="magnify"><defs><filter height="300%" id="f1hkjxtmarprmk" width="300%" x="-1" y="-1"><feGaussianBlur result="blurOut" stdDeviation="2.0"/><feColorMatrix in="blurOut" result="blurOut2" type="matrix" values="0 0 0 0 0 0 0 0 0 0 0 0 0 0 0 0 0 0 .4 0"/><feOffset dx="4.0" dy="4.0" in="blurOut2" result="blurOut3"/><feBlend in="SourceGraphic" in2="blurOut3" mode="normal"/></filter></defs><g><!--MD5=[5691e8ac7c87edc4ec85140f14af12ae]
class gov.nasa.jpl.resource.TimeResource--><a href="TimeResource.html" target="_top" title="TimeResource.html" xlink:actuate="onRequest" xlink:href="TimeResource.html" xlink:show="new" xlink:title="TimeResource.html" xlink:type="simple"><rect fill="#FEFECE" filter="url(#f1hkjxtmarprmk)" height="136.9512" id="gov.nasa.jpl.resource.TimeResource" style="stroke: #A80036; stroke-width: 1.5;" width="314" x="6" y="127.05"/><ellipse cx="107.25" cy="146.1828" fill="#ADD1B2" rx="11" ry="11" style="stroke: #A80036; stroke-width: 1.0;"/><path d="M109.7231,152.3259 Q109.1421,152.6247 108.5029,152.7741 Q107.8638,152.9235 107.1582,152.9235 Q104.6514,152.9235 103.3315,151.2717 Q102.0117,149.6198 102.0117,146.4987 Q102.0117,143.3693 103.3315,141.7175 Q104.6514,140.0656 107.1582,140.0656 Q107.8638,140.0656 108.5112,140.215 Q109.1587,140.3645 109.7231,140.6633 L109.7231,143.3859 Q109.0923,142.8049 108.4988,142.5351 Q107.9053,142.2653 107.2744,142.2653 Q105.9297,142.2653 105.2449,143.332 Q104.5601,144.3986 104.5601,146.4987 Q104.5601,148.5905 105.2449,149.6572 Q105.9297,150.7238 107.2744,150.7238 Q107.9053,150.7238 108.4988,150.4541 Q109.0923,150.1843 109.7231,149.6032 Z "/><text fill="#000000" font-family="sans-serif" font-size="14" lengthAdjust="spacingAndGlyphs" textLength="97" x="130.75" y="145.5852">TimeResource</text><text fill="#000000" font-family="sans-serif" font-size="10" lengthAdjust="spacingAndGlyphs" textLength="103" x="127.75" y="158.2063">gov.nasa.jpl.resource</text><line style="stroke: #A80036; stroke-width: 1.5;" x1="7" x2="319" y1="165.3156" y2="165.3156"/><ellipse cx="17" cy="176.3156" fill="#84BE84" rx="3" ry="3" style="stroke: #038048; stroke-width: 1.0;"/><text fill="#000000" font-family="sans-serif" font-size="11" lengthAdjust="spacingAndGlyphs" textLength="288" x="26" y="179.9504">TimeResource(Time, String, String, String, Time, Time)</text><ellipse cx="17" cy="189.2707" fill="#84BE84" rx="3" ry="3" style="stroke: #038048; stroke-width: 1.0;"/><text fill="#000000" font-family="sans-serif" font-size="11" lengthAdjust="spacingAndGlyphs" textLength="186" x="26" y="192.9055">TimeResource(Time, String, String)</text><ellipse cx="17" cy="202.2258" fill="#84BE84" rx="3" ry="3" style="stroke: #038048; stroke-width: 1.0;"/><text fill="#000000" font-family="sans-serif" font-size="11" lengthAdjust="spacingAndGlyphs" textLength="224" x="26" y="205.8605">TimeResource(Time, String, String, String)</text><ellipse cx="17" cy="215.1809" fill="#84BE84" rx="3" ry="3" style="stroke: #038048; stroke-width: 1.0;"/><text fill="#000000" font-family="sans-serif" font-size="11" lengthAdjust="spacingAndGlyphs" textLength="148" x="26" y="218.8156">TimeResource(Time, String)</text><ellipse cx="17" cy="228.1359" fill="#84BE84" rx="3" ry="3" style="stroke: #038048; stroke-width: 1.0;"/><text fill="#000000" font-family="sans-serif" font-size="11" lengthAdjust="spacingAndGlyphs" textLength="84" x="26" y="231.7707">TimeResource()</text><ellipse cx="17" cy="241.091" fill="#84BE84" rx="3" ry="3" style="stroke: #038048; stroke-width: 1.0;"/><text fill="#000000" font-family="sans-serif" font-size="11" lengthAdjust="spacingAndGlyphs" textLength="101" x="26" y="244.7258">profile(Time): Time</text><ellipse cx="17" cy="254.0461" fill="#84BE84" rx="3" ry="3" style="stroke: #038048; stroke-width: 1.0;"/><text fill="#000000" font-family="sans-serif" font-size="11" lengthAdjust="spacingAndGlyphs" textLength="74" x="26" y="257.6809">update(): void</text></a><!--MD5=[b18a17eef09647c609c16abbc0db11ab]
class gov.nasa.jpl.resource.Resource--><a href="Resource.html" target="_top" title="Resource.html" xlink:actuate="onRequest" xlink:href="Resource.html" xlink:show="new" xlink:title="Resource.html" xlink:type="simple"><rect fill="#FEFECE" filter="url(#f1hkjxtmarprmk)" height="59.2207" id="gov.nasa.jpl.resource.Resource" style="stroke: #A80036; stroke-width: 1.5;" width="168" x="79" y="7.83"/><ellipse cx="94" cy="26.9628" fill="#A9DCDF" rx="11" ry="11" style="stroke: #A80036; stroke-width: 1.0;"/><path d="M93.8633,22.311 L92.7095,27.3827 L95.0254,27.3827 Z M92.3691,20.0697 L95.3657,20.0697 L98.7109,32.4628 L96.2622,32.4628 L95.4985,29.3998 L92.2197,29.3998 L91.4727,32.4628 L89.0239,32.4628 Z "/><text fill="#000000" font-family="sans-serif" font-size="14" font-style="italic" lengthAdjust="spacingAndGlyphs" textLength="63" x="128" y="26.3652">Resource</text><text fill="#000000" font-family="sans-serif" font-size="10" font-style="italic" lengthAdjust="spacingAndGlyphs" textLength="103" x="108" y="38.9862">gov.nasa.jpl.resource</text><rect fill="#FFFFFF" height="16.1328" style="stroke: #000000; stroke-width: 1.0; stroke-dasharray: 2.0,2.0;" width="31" x="219" y="4.83"/><text fill="#000000" font-family="sans-serif" font-size="12" font-style="italic" lengthAdjust="spacingAndGlyphs" textLength="29" x="220" y="17.4316">Time</text><line style="stroke: #A80036; stroke-width: 1.5;" x1="80" x2="246" y1="46.0956" y2="46.0956"/><ellipse cx="90" cy="57.0956" fill="#84BE84" rx="3" ry="3" style="stroke: #038048; stroke-width: 1.0;"/><text fill="#000000" font-family="sans-serif" font-size="11" font-style="italic" lengthAdjust="spacingAndGlyphs" textLength="101" x="99" y="60.7304">profile(Time): Time</text></a><!--MD5=[59877f79aa5c0716cec2bd22841d6d71]
reverse link gov.nasa.jpl.resource.Resource to gov.nasa.jpl.resource.TimeResource--><path d="M163,88.56 C163,100.74 163,113.97 163,126.82 " fill="none" id="gov.nasa.jpl.resource.Resource&lt;-gov.nasa.jpl.resource.TimeResource" style="stroke: #A80036; stroke-width: 1.0;"/><polygon fill="none" points="156,88.94,163,68.94,170,88.94,156,88.94" style="stroke: #A80036; stroke-width: 1.0;"/><text fill="#888888" font-family="sans-serif" font-size="10" lengthAdjust="spacingAndGlyphs" textLength="182" x="78" y="283.668">UMLDoclet 2.0.8, PlantUML 1.2020.01</text><!--MD5=[1a1bce8d6f05ce21e6adc4b49c06247c]
@startuml
    set namespaceSeparator none
    hide empty fields
    hide empty methods

    class "<size:14>TimeResource\n<size:10>gov.nasa.jpl.resource" as gov.nasa.jpl.resource.TimeResource [[TimeResource.html]] {
        +TimeResource(Time, String, String, String, Time, Time)
        +TimeResource(Time, String, String)
        +TimeResource(Time, String, String, String)
        +TimeResource(Time, String)
        +TimeResource()
        +profile(Time): Time
        +update(): void
    }

    abstract class "<size:14>Resource\n<size:10>gov.nasa.jpl.resource" as gov.nasa.jpl.resource.Resource<Time> [[Resource.html]] {
        {abstract} +profile(Time): Time
    }

    gov.nasa.jpl.resource.Resource <|- - gov.nasa.jpl.resource.TimeResource

    center footer UMLDoclet 2.0.8, PlantUML 1.2020.01
@enduml

PlantUML version 1.2020.01(Sun Feb 16 09:40:32 PST 2020)
(APACHE source distribution)
Java Runtime: OpenJDK Runtime Environment
JVM: OpenJDK 64-Bit Server VM
Java Version: 17.0.6+10
Operating System: Mac OS X
Default Encoding: UTF-8
Language: en
Country: US
--></g></svg>