<?xml version="1.0" encoding="UTF-8" standalone="no"?><svg xmlns="http://www.w3.org/2000/svg" xmlns:xlink="http://www.w3.org/1999/xlink" contentScriptType="application/ecmascript" contentStyleType="text/css" height="334px" preserveAspectRatio="none" style="width:1198px;height:334px;" version="1.1" viewBox="0 0 1198 334" width="1198px" zoomAndPan="magnify"><defs><filter height="300%" id="fufqvxw3z9o6j" width="300%" x="-1" y="-1"><feGaussianBlur result="blurOut" stdDeviation="2.0"/><feColorMatrix in="blurOut" result="blurOut2" type="matrix" values="0 0 0 0 0 0 0 0 0 0 0 0 0 0 0 0 0 0 .4 0"/><feOffset dx="4.0" dy="4.0" in="blurOut2" result="blurOut3"/><feBlend in="SourceGraphic" in2="blurOut3" mode="normal"/></filter></defs><g><!--MD5=[7c96a449f1a8fee12491b713b1d40a02]
cluster gov.nasa.jpl.input.parallel--><polygon fill="#FFFFFF" filter="url(#fufqvxw3z9o6j)" points="22,160.09,210,160.09,217,182.5783,1176,182.5783,1176,285,22,285,22,160.09" style="stroke: #000000; stroke-width: 1.5;"/><line style="stroke: #000000; stroke-width: 1.5;" x1="22" x2="217" y1="182.5783" y2="182.5783"/><text fill="#000000" font-family="sans-serif" font-size="14" font-weight="bold" lengthAdjust="spacingAndGlyphs" textLength="182" x="26" y="175.6252">gov.nasa.jpl.input.parallel</text><!--MD5=[aa8f7b917213fcc1c2766e2d59b49067]
cluster java.lang--><polygon fill="#FFFFFF" filter="url(#fufqvxw3z9o6j)" points="282,24.13,351,24.13,358,46.6183,400,46.6183,400,136.09,282,136.09,282,24.13" style="stroke: #000000; stroke-width: 1.5;"/><line style="stroke: #000000; stroke-width: 1.5;" x1="282" x2="358" y1="46.6183" y2="46.6183"/><text fill="#000000" font-family="sans-serif" font-size="14" font-weight="bold" lengthAdjust="spacingAndGlyphs" textLength="63" x="286" y="39.6652">java.lang</text><!--MD5=[66fea489c76e4562abcee897a20af0a8]
cluster gov.nasa.jpl.input--><polygon fill="#FFFFFF" filter="url(#fufqvxw3z9o6j)" points="782,24.13,913,24.13,920,46.6183,1176,46.6183,1176,136.09,782,136.09,782,24.13" style="stroke: #000000; stroke-width: 1.5;"/><line style="stroke: #000000; stroke-width: 1.5;" x1="782" x2="920" y1="46.6183" y2="46.6183"/><text fill="#000000" font-family="sans-serif" font-size="14" font-weight="bold" lengthAdjust="spacingAndGlyphs" textLength="125" x="786" y="39.6652">gov.nasa.jpl.input</text><!--MD5=[4d1cf1132bd90db52411b557dc0e6c1a]
class gov.nasa.jpl.input.parallel.ReaderThreadResource--><a href="ReaderThreadResource.html" target="_top" title="ReaderThreadResource.html" xlink:actuate="onRequest" xlink:href="ReaderThreadResource.html" xlink:show="new" xlink:title="ReaderThreadResource.html" xlink:type="simple"><rect fill="#FEFECE" filter="url(#fufqvxw3z9o6j)" height="73.9102" id="gov.nasa.jpl.input.parallel.ReaderThreadResource" style="stroke: #A80036; stroke-width: 1.5;" width="226" x="38" y="195.09"/><ellipse cx="78.65" cy="211.09" fill="#ADD1B2" rx="11" ry="11" style="stroke: #A80036; stroke-width: 1.0;"/><path d="M81.1231,217.2331 Q80.5421,217.5319 79.9029,217.6813 Q79.2638,217.8307 78.5582,217.8307 Q76.0514,217.8307 74.7315,216.1789 Q73.4117,214.527 73.4117,211.4059 Q73.4117,208.2765 74.7315,206.6247 Q76.0514,204.9728 78.5582,204.9728 Q79.2638,204.9728 79.9112,205.1222 Q80.5587,205.2716 81.1231,205.5705 L81.1231,208.2931 Q80.4923,207.7121 79.8988,207.4423 Q79.3053,207.1725 78.6744,207.1725 Q77.3297,207.1725 76.6449,208.2392 Q75.9601,209.3058 75.9601,211.4059 Q75.9601,213.4977 76.6449,214.5644 Q77.3297,215.631 78.6744,215.631 Q79.3053,215.631 79.8988,215.3612 Q80.4923,215.0915 81.1231,214.5104 Z "/><text fill="#000000" font-family="sans-serif" font-size="12" lengthAdjust="spacingAndGlyphs" textLength="137" x="98.35" y="215.6252">ReaderThreadResource</text><line style="stroke: #A80036; stroke-width: 1.5;" x1="39" x2="263" y1="227.09" y2="227.09"/><line style="stroke: #A80036; stroke-width: 1.5;" x1="39" x2="263" y1="235.09" y2="235.09"/><ellipse cx="49" cy="246.09" fill="#84BE84" rx="3" ry="3" style="stroke: #038048; stroke-width: 1.0;"/><text fill="#000000" font-family="sans-serif" font-size="11" lengthAdjust="spacingAndGlyphs" textLength="200" x="58" y="249.7248">ReaderThreadResource(File, boolean)</text><ellipse cx="49" cy="259.0451" fill="#84BE84" rx="3" ry="3" style="stroke: #038048; stroke-width: 1.0;"/><text fill="#000000" font-family="sans-serif" font-size="11" lengthAdjust="spacingAndGlyphs" textLength="56" x="58" y="262.6798">run(): void</text></a><!--MD5=[d1370945696cdf239cd1f892bc9091b6]
class gov.nasa.jpl.input.parallel.ParallelDirectoryReader--><a href="ParallelDirectoryReader.html" target="_top" title="ParallelDirectoryReader.html" xlink:actuate="onRequest" xlink:href="ParallelDirectoryReader.html" xlink:show="new" xlink:title="ParallelDirectoryReader.html" xlink:type="simple"><rect fill="#FEFECE" filter="url(#fufqvxw3z9o6j)" height="73.9102" id="gov.nasa.jpl.input.parallel.ParallelDirectoryReader" style="stroke: #A80036; stroke-width: 1.5;" width="362" x="798" y="195.09"/><ellipse cx="906.75" cy="211.09" fill="#ADD1B2" rx="11" ry="11" style="stroke: #A80036; stroke-width: 1.0;"/><path d="M909.2231,217.2331 Q908.6421,217.5319 908.0029,217.6813 Q907.3638,217.8307 906.6582,217.8307 Q904.1514,217.8307 902.8315,216.1789 Q901.5117,214.527 901.5117,211.4059 Q901.5117,208.2765 902.8315,206.6247 Q904.1514,204.9728 906.6582,204.9728 Q907.3638,204.9728 908.0112,205.1222 Q908.6587,205.2716 909.2231,205.5705 L909.2231,208.2931 Q908.5923,207.7121 907.9988,207.4423 Q907.4053,207.1725 906.7744,207.1725 Q905.4297,207.1725 904.7449,208.2392 Q904.0601,209.3058 904.0601,211.4059 Q904.0601,213.4977 904.7449,214.5644 Q905.4297,215.631 906.7744,215.631 Q907.4053,215.631 907.9988,215.3612 Q908.5923,215.0915 909.2231,214.5104 Z "/><text fill="#000000" font-family="sans-serif" font-size="12" lengthAdjust="spacingAndGlyphs" textLength="136" x="927.25" y="215.6252">ParallelDirectoryReader</text><line style="stroke: #A80036; stroke-width: 1.5;" x1="799" x2="1159" y1="227.09" y2="227.09"/><line style="stroke: #A80036; stroke-width: 1.5;" x1="799" x2="1159" y1="235.09" y2="235.09"/><ellipse cx="809" cy="246.09" fill="#84BE84" rx="3" ry="3" style="stroke: #038048; stroke-width: 1.0;"/><text fill="#000000" font-family="sans-serif" font-size="11" lengthAdjust="spacingAndGlyphs" textLength="165" x="818" y="249.7248">ParallelDirectoryReader(String)</text><ellipse cx="809" cy="259.0451" fill="#84BE84" rx="3" ry="3" style="stroke: #038048; stroke-width: 1.0;"/><text fill="#000000" font-family="sans-serif" font-size="11" lengthAdjust="spacingAndGlyphs" textLength="336" x="818" y="262.6798">readInHistoryOfActivitiesAndResource(boolean, boolean): void</text></a><!--MD5=[c0da98e4c48824c12b4c5169ee49068e]
class gov.nasa.jpl.input.parallel.ReaderThreadActivity--><a href="ReaderThreadActivity.html" target="_top" title="ReaderThreadActivity.html" xlink:actuate="onRequest" xlink:href="ReaderThreadActivity.html" xlink:show="new" xlink:title="ReaderThreadActivity.html" xlink:type="simple"><rect fill="#FEFECE" filter="url(#fufqvxw3z9o6j)" height="73.9102" id="gov.nasa.jpl.input.parallel.ReaderThreadActivity" style="stroke: #A80036; stroke-width: 1.5;" width="464" x="299" y="195.09"/><ellipse cx="464.75" cy="211.09" fill="#ADD1B2" rx="11" ry="11" style="stroke: #A80036; stroke-width: 1.0;"/><path d="M467.2231,217.2331 Q466.6421,217.5319 466.0029,217.6813 Q465.3638,217.8307 464.6582,217.8307 Q462.1514,217.8307 460.8315,216.1789 Q459.5117,214.527 459.5117,211.4059 Q459.5117,208.2765 460.8315,206.6247 Q462.1514,204.9728 464.6582,204.9728 Q465.3638,204.9728 466.0112,205.1222 Q466.6587,205.2716 467.2231,205.5705 L467.2231,208.2931 Q466.5923,207.7121 465.9988,207.4423 Q465.4053,207.1725 464.7744,207.1725 Q463.4297,207.1725 462.7449,208.2392 Q462.0601,209.3058 462.0601,211.4059 Q462.0601,213.4977 462.7449,214.5644 Q463.4297,215.631 464.7744,215.631 Q465.4053,215.631 465.9988,215.3612 Q466.5923,215.0915 467.2231,214.5104 Z "/><text fill="#000000" font-family="sans-serif" font-size="12" lengthAdjust="spacingAndGlyphs" textLength="124" x="485.25" y="215.6252">ReaderThreadActivity</text><line style="stroke: #A80036; stroke-width: 1.5;" x1="300" x2="762" y1="227.09" y2="227.09"/><line style="stroke: #A80036; stroke-width: 1.5;" x1="300" x2="762" y1="235.09" y2="235.09"/><ellipse cx="310" cy="246.09" fill="#84BE84" rx="3" ry="3" style="stroke: #038048; stroke-width: 1.0;"/><text fill="#000000" font-family="sans-serif" font-size="11" lengthAdjust="spacingAndGlyphs" textLength="438" x="319" y="249.7248">ReaderThreadActivity(File, ConcurrentHashMap&lt;String, Entry&lt;Activity, String&gt;&gt;)</text><ellipse cx="310" cy="259.0451" fill="#84BE84" rx="3" ry="3" style="stroke: #038048; stroke-width: 1.0;"/><text fill="#000000" font-family="sans-serif" font-size="11" lengthAdjust="spacingAndGlyphs" textLength="56" x="319" y="262.6798">run(): void</text></a><!--MD5=[8dac795f9edbf65a524ac462449c98fb]
class java.lang.Runnable--><a href="https://docs.oracle.com/en/java/javase/13/docs/api/java.base/java/lang/Runnable.html?is-external=true" target="_top" title="https://docs.oracle.com/en/java/javase/13/docs/api/java.base/java/lang/Runnable.html?is-external=true" xlink:actuate="onRequest" xlink:href="https://docs.oracle.com/en/java/javase/13/docs/api/java.base/java/lang/Runnable.html?is-external=true" xlink:show="new" xlink:title="https://docs.oracle.com/en/java/javase/13/docs/api/java.base/java/lang/Runnable.html?is-external=true" xlink:type="simple"><rect fill="#FEFECE" filter="url(#fufqvxw3z9o6j)" height="60.9551" id="java.lang.Runnable" style="stroke: #A80036; stroke-width: 1.5;" width="86" x="298" y="59.13"/><ellipse cx="313" cy="75.13" fill="#B4A7E5" rx="11" ry="11" style="stroke: #A80036; stroke-width: 1.0;"/><path d="M309.4277,71.3951 L309.4277,69.2369 L316.8071,69.2369 L316.8071,71.3951 L314.3418,71.3951 L314.3418,79.4718 L316.8071,79.4718 L316.8071,81.63 L309.4277,81.63 L309.4277,79.4718 L311.8931,79.4718 L311.8931,71.3951 Z "/><text fill="#000000" font-family="sans-serif" font-size="12" font-style="italic" lengthAdjust="spacingAndGlyphs" textLength="54" x="327" y="79.6652">Runnable</text><line style="stroke: #A80036; stroke-width: 1.5;" x1="299" x2="383" y1="91.13" y2="91.13"/><line style="stroke: #A80036; stroke-width: 1.5;" x1="299" x2="383" y1="99.13" y2="99.13"/><ellipse cx="309" cy="110.13" fill="#84BE84" rx="3" ry="3" style="stroke: #038048; stroke-width: 1.0;"/><text fill="#000000" font-family="sans-serif" font-size="11" font-style="italic" lengthAdjust="spacingAndGlyphs" textLength="56" x="318" y="113.7648">run(): void</text></a><!--MD5=[77925f11b74d0d496fb7c39b922ce28e]
class gov.nasa.jpl.input.HistoryReader--><a href="../HistoryReader.html" target="_top" title="../HistoryReader.html" xlink:actuate="onRequest" xlink:href="../HistoryReader.html" xlink:show="new" xlink:title="../HistoryReader.html" xlink:type="simple"><rect fill="#FEFECE" filter="url(#fufqvxw3z9o6j)" height="60.9551" id="gov.nasa.jpl.input.HistoryReader" style="stroke: #A80036; stroke-width: 1.5;" width="362" x="798" y="59.13"/><ellipse cx="933.75" cy="75.13" fill="#B4A7E5" rx="11" ry="11" style="stroke: #A80036; stroke-width: 1.0;"/><path d="M930.1777,71.3951 L930.1777,69.2369 L937.5571,69.2369 L937.5571,71.3951 L935.0918,71.3951 L935.0918,79.4718 L937.5571,79.4718 L937.5571,81.63 L930.1777,81.63 L930.1777,79.4718 L932.6431,79.4718 L932.6431,71.3951 Z "/><text fill="#000000" font-family="sans-serif" font-size="12" font-style="italic" lengthAdjust="spacingAndGlyphs" textLength="82" x="954.25" y="79.6652">HistoryReader</text><line style="stroke: #A80036; stroke-width: 1.5;" x1="799" x2="1159" y1="91.13" y2="91.13"/><line style="stroke: #A80036; stroke-width: 1.5;" x1="799" x2="1159" y1="99.13" y2="99.13"/><ellipse cx="809" cy="110.13" fill="#84BE84" rx="3" ry="3" style="stroke: #038048; stroke-width: 1.0;"/><text fill="#000000" font-family="sans-serif" font-size="11" font-style="italic" lengthAdjust="spacingAndGlyphs" textLength="336" x="818" y="113.7648">readInHistoryOfActivitiesAndResource(boolean, boolean): void</text></a><!--MD5=[6d41cffce9a91c514be577ecabac25f0]
reverse link java.lang.Runnable to gov.nasa.jpl.input.parallel.ReaderThreadResource--><path d="M283.55,133.07 C256.89,152.78 225.53,175.96 200.01,194.82 " fill="none" id="java.lang.Runnable&lt;-gov.nasa.jpl.input.parallel.ReaderThreadResource" style="stroke: #A80036; stroke-width: 1.0; stroke-dasharray: 7.0,7.0;"/><polygon fill="none" points="279.24,127.55,299.49,121.29,287.57,138.81,279.24,127.55" style="stroke: #A80036; stroke-width: 1.0;"/><!--MD5=[b3cfff18fe081d500ebf2a51cbd11815]
reverse link gov.nasa.jpl.input.HistoryReader to gov.nasa.jpl.input.parallel.ParallelDirectoryReader--><path d="M979,141.75 C979,159.34 979,178.67 979,194.82 " fill="none" id="gov.nasa.jpl.input.HistoryReader&lt;-gov.nasa.jpl.input.parallel.ParallelDirectoryReader" style="stroke: #A80036; stroke-width: 1.0; stroke-dasharray: 7.0,7.0;"/><polygon fill="none" points="972,141.91,979,121.91,986,141.91,972,141.91" style="stroke: #A80036; stroke-width: 1.0;"/><!--MD5=[bfc280169c8bdf5000c6508e0b366d25]
reverse link java.lang.Runnable to gov.nasa.jpl.input.parallel.ReaderThreadActivity--><path d="M398.45,133.07 C425.11,152.78 456.47,175.96 481.99,194.82 " fill="none" id="java.lang.Runnable&lt;-gov.nasa.jpl.input.parallel.ReaderThreadActivity" style="stroke: #A80036; stroke-width: 1.0; stroke-dasharray: 7.0,7.0;"/><polygon fill="none" points="394.43,138.81,382.51,121.29,402.76,127.55,394.43,138.81" style="stroke: #A80036; stroke-width: 1.0;"/><text fill="#888888" font-family="sans-serif" font-size="10" lengthAdjust="spacingAndGlyphs" textLength="182" x="514" y="320.668">UMLDoclet 2.0.8, PlantUML 1.2020.01</text><!--MD5=[9fbfa6f295eec729af070d30b71e9cbb]
@startuml
    namespace gov.nasa.jpl.input.parallel {

        class ReaderThreadResource [[ReaderThreadResource.html]] {
            +ReaderThreadResource(File, boolean)
            +run(): void
        }

        class ParallelDirectoryReader [[ParallelDirectoryReader.html]] {
            +ParallelDirectoryReader(String)
            +readInHistoryOfActivitiesAndResource(boolean, boolean): void
        }

        class ReaderThreadActivity [[ReaderThreadActivity.html]] {
            +ReaderThreadActivity(File, ConcurrentHashMap<String, Entry<Activity, String>>)
            +run(): void
        }

        java.lang.Runnable <|.. ReaderThreadResource
        gov.nasa.jpl.input.HistoryReader <|.. ParallelDirectoryReader
        java.lang.Runnable <|.. ReaderThreadActivity
    }

    namespace java.lang {
        interface Runnable [[https://docs.oracle.com/en/java/javase/13/docs/api/java.base/java/lang/Runnable.html?is-external=true]] {
            {abstract} +run(): void
        }
    }

    namespace gov.nasa.jpl.input {
        interface HistoryReader [[../HistoryReader.html]] {
            {abstract} +readInHistoryOfActivitiesAndResource(boolean, boolean): void
        }
    }

    center footer UMLDoclet 2.0.8, PlantUML 1.2020.01
@enduml

PlantUML version 1.2020.01(Sun Feb 16 09:40:32 PST 2020)
(APACHE source distribution)
Java Runtime: OpenJDK Runtime Environment
JVM: OpenJDK 64-Bit Server VM
Java Version: 17.0.6+10
Operating System: Mac OS X
Default Encoding: UTF-8
Language: en
Country: US
--></g></svg>