<?xml version="1.0" encoding="UTF-8" standalone="no"?><svg xmlns="http://www.w3.org/2000/svg" xmlns:xlink="http://www.w3.org/1999/xlink" contentScriptType="application/ecmascript" contentStyleType="text/css" height="232px" preserveAspectRatio="none" style="width:481px;height:232px;" version="1.1" viewBox="0 0 481 232" width="481px" zoomAndPan="magnify"><defs><filter height="300%" id="f59auz9yeun2w" width="300%" x="-1" y="-1"><feGaussianBlur result="blurOut" stdDeviation="2.0"/><feColorMatrix in="blurOut" result="blurOut2" type="matrix" values="0 0 0 0 0 0 0 0 0 0 0 0 0 0 0 0 0 0 .4 0"/><feOffset dx="4.0" dy="4.0" in="blurOut2" result="blurOut3"/><feBlend in="SourceGraphic" in2="blurOut3" mode="normal"/></filter></defs><g><!--MD5=[c0da98e4c48824c12b4c5169ee49068e]
class gov.nasa.jpl.input.parallel.ReaderThreadActivity--><a href="ReaderThreadActivity.html" target="_top" title="ReaderThreadActivity.html" xlink:actuate="onRequest" xlink:href="ReaderThreadActivity.html" xlink:show="new" xlink:title="ReaderThreadActivity.html" xlink:type="simple"><rect fill="#FEFECE" filter="url(#f59auz9yeun2w)" height="72.1758" id="gov.nasa.jpl.input.parallel.ReaderThreadActivity" style="stroke: #A80036; stroke-width: 1.5;" width="464" x="6" y="126.82"/><ellipse cx="160.75" cy="145.9528" fill="#ADD1B2" rx="11" ry="11" style="stroke: #A80036; stroke-width: 1.0;"/><path d="M163.2231,152.0959 Q162.6421,152.3947 162.0029,152.5441 Q161.3638,152.6935 160.6582,152.6935 Q158.1514,152.6935 156.8315,151.0417 Q155.5117,149.3898 155.5117,146.2687 Q155.5117,143.1393 156.8315,141.4875 Q158.1514,139.8356 160.6582,139.8356 Q161.3638,139.8356 162.0112,139.985 Q162.6587,140.1345 163.2231,140.4333 L163.2231,143.1559 Q162.5923,142.5749 161.9988,142.3051 Q161.4053,142.0353 160.7744,142.0353 Q159.4297,142.0353 158.7449,143.102 Q158.0601,144.1686 158.0601,146.2687 Q158.0601,148.3605 158.7449,149.4272 Q159.4297,150.4938 160.7744,150.4938 Q161.4053,150.4938 161.9988,150.2241 Q162.5923,149.9543 163.2231,149.3732 Z "/><text fill="#000000" font-family="sans-serif" font-size="14" lengthAdjust="spacingAndGlyphs" textLength="146" x="181.25" y="145.3552">ReaderThreadActivity</text><text fill="#000000" font-family="sans-serif" font-size="10" lengthAdjust="spacingAndGlyphs" textLength="126" x="191.25" y="157.9763">gov.nasa.jpl.input.parallel</text><line style="stroke: #A80036; stroke-width: 1.5;" x1="7" x2="469" y1="165.0856" y2="165.0856"/><ellipse cx="17" cy="176.0856" fill="#84BE84" rx="3" ry="3" style="stroke: #038048; stroke-width: 1.0;"/><text fill="#000000" font-family="sans-serif" font-size="11" lengthAdjust="spacingAndGlyphs" textLength="438" x="26" y="179.7204">ReaderThreadActivity(File, ConcurrentHashMap&lt;String, Entry&lt;Activity, String&gt;&gt;)</text><ellipse cx="17" cy="189.0407" fill="#84BE84" rx="3" ry="3" style="stroke: #038048; stroke-width: 1.0;"/><text fill="#000000" font-family="sans-serif" font-size="11" lengthAdjust="spacingAndGlyphs" textLength="56" x="26" y="192.6755">run(): void</text></a><!--MD5=[8dac795f9edbf65a524ac462449c98fb]
class java.lang.Runnable--><a href="https://docs.oracle.com/en/java/javase/13/docs/api/java.base/java/lang/Runnable.html?is-external=true" target="_top" title="https://docs.oracle.com/en/java/javase/13/docs/api/java.base/java/lang/Runnable.html?is-external=true" xlink:actuate="onRequest" xlink:href="https://docs.oracle.com/en/java/javase/13/docs/api/java.base/java/lang/Runnable.html?is-external=true" xlink:show="new" xlink:title="https://docs.oracle.com/en/java/javase/13/docs/api/java.base/java/lang/Runnable.html?is-external=true" xlink:type="simple"><rect fill="#FEFECE" filter="url(#f59auz9yeun2w)" height="59.2207" id="java.lang.Runnable" style="stroke: #A80036; stroke-width: 1.5;" width="97" x="189.5" y="7.6"/><ellipse cx="204.5" cy="26.7328" fill="#B4A7E5" rx="11" ry="11" style="stroke: #A80036; stroke-width: 1.0;"/><path d="M200.9277,22.9979 L200.9277,20.8397 L208.3071,20.8397 L208.3071,22.9979 L205.8418,22.9979 L205.8418,31.0746 L208.3071,31.0746 L208.3071,33.2328 L200.9277,33.2328 L200.9277,31.0746 L203.3931,31.0746 L203.3931,22.9979 Z "/><text fill="#000000" font-family="sans-serif" font-size="14" font-style="italic" lengthAdjust="spacingAndGlyphs" textLength="65" x="218.5" y="26.1352">Runnable</text><text fill="#000000" font-family="sans-serif" font-size="10" font-style="italic" lengthAdjust="spacingAndGlyphs" textLength="44" x="229" y="38.7562">java.lang</text><line style="stroke: #A80036; stroke-width: 1.5;" x1="190.5" x2="285.5" y1="45.8656" y2="45.8656"/><ellipse cx="200.5" cy="56.8656" fill="#84BE84" rx="3" ry="3" style="stroke: #038048; stroke-width: 1.0;"/><text fill="#000000" font-family="sans-serif" font-size="11" font-style="italic" lengthAdjust="spacingAndGlyphs" textLength="56" x="209.5" y="60.5004">run(): void</text></a><!--MD5=[bfc280169c8bdf5000c6508e0b366d25]
reverse link java.lang.Runnable to gov.nasa.jpl.input.parallel.ReaderThreadActivity--><path d="M238,88.32 C238,101.11 238,114.59 238,126.47 " fill="none" id="java.lang.Runnable&lt;-gov.nasa.jpl.input.parallel.ReaderThreadActivity" style="stroke: #A80036; stroke-width: 1.0; stroke-dasharray: 7.0,7.0;"/><polygon fill="none" points="231,88.73,238,68.73,245,88.73,231,88.73" style="stroke: #A80036; stroke-width: 1.0;"/><text fill="#888888" font-family="sans-serif" font-size="10" lengthAdjust="spacingAndGlyphs" textLength="182" x="153" y="218.668">UMLDoclet 2.0.8, PlantUML 1.2020.01</text><!--MD5=[4cf4bf2ccd5f4d33baec893fe17db860]
@startuml
    set namespaceSeparator none
    hide empty fields
    hide empty methods

    class "<size:14>ReaderThreadActivity\n<size:10>gov.nasa.jpl.input.parallel" as gov.nasa.jpl.input.parallel.ReaderThreadActivity [[ReaderThreadActivity.html]] {
        +ReaderThreadActivity(File, ConcurrentHashMap<String, Entry<Activity, String>>)
        +run(): void
    }

    interface "<size:14>Runnable\n<size:10>java.lang" as java.lang.Runnable [[https://docs.oracle.com/en/java/javase/13/docs/api/java.base/java/lang/Runnable.html?is-external=true]] {
        {abstract} +run(): void
    }

    java.lang.Runnable <|.. gov.nasa.jpl.input.parallel.ReaderThreadActivity

    center footer UMLDoclet 2.0.8, PlantUML 1.2020.01
@enduml

PlantUML version 1.2020.01(Sun Feb 16 09:40:32 PST 2020)
(APACHE source distribution)
Java Runtime: OpenJDK Runtime Environment
JVM: OpenJDK 64-Bit Server VM
Java Version: 17.0.6+10
Operating System: Mac OS X
Default Encoding: UTF-8
Language: en
Country: US
--></g></svg>