<?xml version="1.0" encoding="UTF-8" standalone="no"?><svg xmlns="http://www.w3.org/2000/svg" xmlns:xlink="http://www.w3.org/1999/xlink" contentScriptType="application/ecmascript" contentStyleType="text/css" height="494px" preserveAspectRatio="none" style="width:1289px;height:494px;" version="1.1" viewBox="0 0 1289 494" width="1289px" zoomAndPan="magnify"><defs><filter height="300%" id="fisp1fy921ond" width="300%" x="-1" y="-1"><feGaussianBlur result="blurOut" stdDeviation="2.0"/><feColorMatrix in="blurOut" result="blurOut2" type="matrix" values="0 0 0 0 0 0 0 0 0 0 0 0 0 0 0 0 0 0 .4 0"/><feOffset dx="4.0" dy="4.0" in="blurOut2" result="blurOut3"/><feBlend in="SourceGraphic" in2="blurOut3" mode="normal"/></filter></defs><g><!--MD5=[b26311e09fe0585616ed0e011a6e7063]
cluster gov.nasa.jpl.output.parallel--><polygon fill="#FFFFFF" filter="url(#fisp1fy921ond)" points="22,173.22,220,173.22,227,195.7083,1267,195.7083,1267,445,22,445,22,173.22" style="stroke: #000000; stroke-width: 1.5;"/><line style="stroke: #000000; stroke-width: 1.5;" x1="22" x2="227" y1="195.7083" y2="195.7083"/><text fill="#000000" font-family="sans-serif" font-size="14" font-weight="bold" lengthAdjust="spacingAndGlyphs" textLength="192" x="26" y="188.7552">gov.nasa.jpl.output.parallel</text><!--MD5=[cb5a179ecf6a11d0f02d866f599a72d1]
cluster gov.nasa.jpl.output--><polygon fill="#FFFFFF" filter="url(#fisp1fy921ond)" points="709,24.31,850,24.31,857,46.7983,1267,46.7983,1267,149.22,709,149.22,709,24.31" style="stroke: #000000; stroke-width: 1.5;"/><line style="stroke: #000000; stroke-width: 1.5;" x1="709" x2="857" y1="46.7983" y2="46.7983"/><text fill="#000000" font-family="sans-serif" font-size="14" font-weight="bold" lengthAdjust="spacingAndGlyphs" textLength="135" x="713" y="39.8452">gov.nasa.jpl.output</text><!--MD5=[8d00876fa62156122836e6740ce9c705]
class gov.nasa.jpl.output.parallel.WriterThreadConstraint--><a href="WriterThreadConstraint.html" target="_top" title="WriterThreadConstraint.html" xlink:actuate="onRequest" xlink:href="WriterThreadConstraint.html" xlink:show="new" xlink:title="WriterThreadConstraint.html" xlink:type="simple"><rect fill="#FEFECE" filter="url(#fisp1fy921ond)" height="73.9102" id="gov.nasa.jpl.output.parallel.WriterThreadConstraint" style="stroke: #A80036; stroke-width: 1.5;" width="320" x="38" y="214.7"/><ellipse cx="126.75" cy="230.7" fill="#ADD1B2" rx="11" ry="11" style="stroke: #A80036; stroke-width: 1.0;"/><path d="M129.2231,236.8431 Q128.6421,237.1419 128.0029,237.2913 Q127.3638,237.4407 126.6582,237.4407 Q124.1514,237.4407 122.8315,235.7889 Q121.5117,234.137 121.5117,231.0159 Q121.5117,227.8865 122.8315,226.2347 Q124.1514,224.5828 126.6582,224.5828 Q127.3638,224.5828 128.0112,224.7322 Q128.6587,224.8816 129.2231,225.1805 L129.2231,227.9031 Q128.5923,227.3221 127.9988,227.0523 Q127.4053,226.7825 126.7744,226.7825 Q125.4297,226.7825 124.7449,227.8492 Q124.0601,228.9158 124.0601,231.0159 Q124.0601,233.1077 124.7449,234.1744 Q125.4297,235.241 126.7744,235.241 Q127.4053,235.241 127.9988,234.9712 Q128.5923,234.7015 129.2231,234.1204 Z "/><text fill="#000000" font-family="sans-serif" font-size="12" lengthAdjust="spacingAndGlyphs" textLength="134" x="147.25" y="235.2352">WriterThreadConstraint</text><line style="stroke: #A80036; stroke-width: 1.5;" x1="39" x2="357" y1="246.7" y2="246.7"/><line style="stroke: #A80036; stroke-width: 1.5;" x1="39" x2="357" y1="254.7" y2="254.7"/><ellipse cx="49" cy="265.7" fill="#84BE84" rx="3" ry="3" style="stroke: #038048; stroke-width: 1.0;"/><text fill="#000000" font-family="sans-serif" font-size="11" lengthAdjust="spacingAndGlyphs" textLength="294" x="58" y="269.3348">WriterThreadConstraint(Constraint, String, Time, Time)</text><ellipse cx="49" cy="278.6551" fill="#84BE84" rx="3" ry="3" style="stroke: #038048; stroke-width: 1.0;"/><text fill="#000000" font-family="sans-serif" font-size="11" lengthAdjust="spacingAndGlyphs" textLength="56" x="58" y="282.2898">run(): void</text></a><!--MD5=[74e43c22bcc8e8f39bb541e0dadf3b05]
class gov.nasa.jpl.output.parallel.WriterThreadActivity--><a href="WriterThreadActivity.html" target="_top" title="WriterThreadActivity.html" xlink:actuate="onRequest" xlink:href="WriterThreadActivity.html" xlink:show="new" xlink:title="WriterThreadActivity.html" xlink:type="simple"><rect fill="#FEFECE" filter="url(#fisp1fy921ond)" height="73.9102" id="gov.nasa.jpl.output.parallel.WriterThreadActivity" style="stroke: #A80036; stroke-width: 1.5;" width="297" x="392.5" y="214.7"/><ellipse cx="478.75" cy="230.7" fill="#ADD1B2" rx="11" ry="11" style="stroke: #A80036; stroke-width: 1.0;"/><path d="M481.2231,236.8431 Q480.6421,237.1419 480.0029,237.2913 Q479.3638,237.4407 478.6582,237.4407 Q476.1514,237.4407 474.8315,235.7889 Q473.5117,234.137 473.5117,231.0159 Q473.5117,227.8865 474.8315,226.2347 Q476.1514,224.5828 478.6582,224.5828 Q479.3638,224.5828 480.0112,224.7322 Q480.6587,224.8816 481.2231,225.1805 L481.2231,227.9031 Q480.5923,227.3221 479.9988,227.0523 Q479.4053,226.7825 478.7744,226.7825 Q477.4297,226.7825 476.7449,227.8492 Q476.0601,228.9158 476.0601,231.0159 Q476.0601,233.1077 476.7449,234.1744 Q477.4297,235.241 478.7744,235.241 Q479.4053,235.241 479.9988,234.9712 Q480.5923,234.7015 481.2231,234.1204 Z "/><text fill="#000000" font-family="sans-serif" font-size="12" lengthAdjust="spacingAndGlyphs" textLength="116" x="499.25" y="235.2352">WriterThreadActivity</text><line style="stroke: #A80036; stroke-width: 1.5;" x1="393.5" x2="688.5" y1="246.7" y2="246.7"/><line style="stroke: #A80036; stroke-width: 1.5;" x1="393.5" x2="688.5" y1="254.7" y2="254.7"/><ellipse cx="403.5" cy="265.7" fill="#84BE84" rx="3" ry="3" style="stroke: #038048; stroke-width: 1.0;"/><text fill="#000000" font-family="sans-serif" font-size="11" lengthAdjust="spacingAndGlyphs" textLength="271" x="412.5" y="269.3348">WriterThreadActivity(String, List&lt;Activity&gt;, String)</text><ellipse cx="403.5" cy="278.6551" fill="#84BE84" rx="3" ry="3" style="stroke: #038048; stroke-width: 1.0;"/><text fill="#000000" font-family="sans-serif" font-size="11" lengthAdjust="spacingAndGlyphs" textLength="56" x="412.5" y="282.2898">run(): void</text></a><!--MD5=[f41b6637c7faf9841eb7309c605e9de1]
class gov.nasa.jpl.output.parallel.WriterThreadResource--><a href="WriterThreadResource.html" target="_top" title="WriterThreadResource.html" xlink:actuate="onRequest" xlink:href="WriterThreadResource.html" xlink:show="new" xlink:title="WriterThreadResource.html" xlink:type="simple"><rect fill="#FEFECE" filter="url(#fisp1fy921ond)" height="73.9102" id="gov.nasa.jpl.output.parallel.WriterThreadResource" style="stroke: #A80036; stroke-width: 1.5;" width="389" x="38.5" y="355.09"/><ellipse cx="164.25" cy="371.09" fill="#ADD1B2" rx="11" ry="11" style="stroke: #A80036; stroke-width: 1.0;"/><path d="M166.7231,377.2331 Q166.1421,377.5319 165.5029,377.6813 Q164.8638,377.8307 164.1582,377.8307 Q161.6514,377.8307 160.3315,376.1789 Q159.0117,374.527 159.0117,371.4059 Q159.0117,368.2765 160.3315,366.6247 Q161.6514,364.9728 164.1582,364.9728 Q164.8638,364.9728 165.5112,365.1222 Q166.1587,365.2716 166.7231,365.5705 L166.7231,368.2931 Q166.0923,367.7121 165.4988,367.4423 Q164.9053,367.1725 164.2744,367.1725 Q162.9297,367.1725 162.2449,368.2392 Q161.5601,369.3058 161.5601,371.4059 Q161.5601,373.4977 162.2449,374.5644 Q162.9297,375.631 164.2744,375.631 Q164.9053,375.631 165.4988,375.3612 Q166.0923,375.0915 166.7231,374.5104 Z "/><text fill="#000000" font-family="sans-serif" font-size="12" lengthAdjust="spacingAndGlyphs" textLength="129" x="184.75" y="375.6252">WriterThreadResource</text><line style="stroke: #A80036; stroke-width: 1.5;" x1="39.5" x2="426.5" y1="387.09" y2="387.09"/><line style="stroke: #A80036; stroke-width: 1.5;" x1="39.5" x2="426.5" y1="395.09" y2="395.09"/><ellipse cx="49.5" cy="406.09" fill="#84BE84" rx="3" ry="3" style="stroke: #038048; stroke-width: 1.0;"/><text fill="#000000" font-family="sans-serif" font-size="11" lengthAdjust="spacingAndGlyphs" textLength="363" x="58.5" y="409.7248">WriterThreadResource(Resource&lt;Comparable&gt;, String, Time, Time)</text><ellipse cx="49.5" cy="419.0451" fill="#84BE84" rx="3" ry="3" style="stroke: #038048; stroke-width: 1.0;"/><text fill="#000000" font-family="sans-serif" font-size="11" lengthAdjust="spacingAndGlyphs" textLength="56" x="58.5" y="422.6798">run(): void</text></a><!--MD5=[6495cecfab5df2439e18a58744d04ef5]
class gov.nasa.jpl.output.parallel.ParallelDirectoryWriter--><a href="ParallelDirectoryWriter.html" target="_top" title="ParallelDirectoryWriter.html" xlink:actuate="onRequest" xlink:href="ParallelDirectoryWriter.html" xlink:show="new" xlink:title="ParallelDirectoryWriter.html" xlink:type="simple"><rect fill="#FEFECE" filter="url(#fisp1fy921ond)" height="86.8652" id="gov.nasa.jpl.output.parallel.ParallelDirectoryWriter" style="stroke: #A80036; stroke-width: 1.5;" width="526" x="725" y="208.22"/><ellipse cx="919.75" cy="224.22" fill="#ADD1B2" rx="11" ry="11" style="stroke: #A80036; stroke-width: 1.0;"/><path d="M922.2231,230.3631 Q921.6421,230.6619 921.0029,230.8113 Q920.3638,230.9607 919.6582,230.9607 Q917.1514,230.9607 915.8315,229.3089 Q914.5117,227.657 914.5117,224.5359 Q914.5117,221.4065 915.8315,219.7547 Q917.1514,218.1028 919.6582,218.1028 Q920.3638,218.1028 921.0112,218.2522 Q921.6587,218.4016 922.2231,218.7005 L922.2231,221.4231 Q921.5923,220.8421 920.9988,220.5723 Q920.4053,220.3025 919.7744,220.3025 Q918.4297,220.3025 917.7449,221.3692 Q917.0601,222.4358 917.0601,224.5359 Q917.0601,226.6277 917.7449,227.6944 Q918.4297,228.761 919.7744,228.761 Q920.4053,228.761 920.9988,228.4912 Q921.5923,228.2215 922.2231,227.6404 Z "/><text fill="#000000" font-family="sans-serif" font-size="12" lengthAdjust="spacingAndGlyphs" textLength="128" x="940.25" y="228.7552">ParallelDirectoryWriter</text><line style="stroke: #A80036; stroke-width: 1.5;" x1="726" x2="1250" y1="240.22" y2="240.22"/><line style="stroke: #A80036; stroke-width: 1.5;" x1="726" x2="1250" y1="248.22" y2="248.22"/><ellipse cx="736" cy="259.22" fill="#84BE84" rx="3" ry="3" style="stroke: #038048; stroke-width: 1.0;"/><text fill="#000000" font-family="sans-serif" font-size="11" lengthAdjust="spacingAndGlyphs" textLength="120" x="745" y="262.8548">createFile(String): void</text><ellipse cx="736" cy="272.1751" fill="#84BE84" rx="3" ry="3" style="stroke: #038048; stroke-width: 1.0;"/><text fill="#000000" font-family="sans-serif" font-size="11" lengthAdjust="spacingAndGlyphs" textLength="83" x="745" y="275.8098">closeFile(): void</text><ellipse cx="736" cy="285.1302" fill="#84BE84" rx="3" ry="3" style="stroke: #038048; stroke-width: 1.0;"/><text fill="#000000" font-family="sans-serif" font-size="11" lengthAdjust="spacingAndGlyphs" textLength="500" x="745" y="288.7649">writeFileContents(ActivityInstanceList, ResourceList, ConstraintInstanceList, Time, Time): void</text></a><!--MD5=[b6cc7f9733b3bb21e0572bab9cf3c83b]
class gov.nasa.jpl.output.TOLWriter--><a href="../TOLWriter.html" target="_top" title="../TOLWriter.html" xlink:actuate="onRequest" xlink:href="../TOLWriter.html" xlink:show="new" xlink:title="../TOLWriter.html" xlink:type="simple"><rect fill="#FEFECE" filter="url(#fisp1fy921ond)" height="73.9102" id="gov.nasa.jpl.output.TOLWriter" style="stroke: #A80036; stroke-width: 1.5;" width="526" x="725" y="59.31"/><ellipse cx="955.25" cy="75.31" fill="#A9DCDF" rx="11" ry="11" style="stroke: #A80036; stroke-width: 1.0;"/><path d="M955.1133,70.6581 L953.9595,75.7299 L956.2754,75.7299 Z M953.6191,68.4169 L956.6157,68.4169 L959.9609,80.81 L957.5122,80.81 L956.7485,77.747 L953.4697,77.747 L952.7227,80.81 L950.2739,80.81 Z "/><text fill="#000000" font-family="sans-serif" font-size="12" font-style="italic" lengthAdjust="spacingAndGlyphs" textLength="57" x="975.75" y="79.8452">TOLWriter</text><line style="stroke: #A80036; stroke-width: 1.5;" x1="726" x2="1250" y1="91.31" y2="91.31"/><polygon fill="none" points="736,97.31,740,101.31,736,105.31,732,101.31" style="stroke: #B38D22; stroke-width: 1.0;"/><text fill="#000000" font-family="sans-serif" font-size="11" lengthAdjust="spacingAndGlyphs" textLength="94" x="745" y="105.9448">writer: PrintWriter</text><line style="stroke: #A80036; stroke-width: 1.5;" x1="726" x2="1250" y1="112.2651" y2="112.2651"/><ellipse cx="736" cy="123.2651" fill="#84BE84" rx="3" ry="3" style="stroke: #038048; stroke-width: 1.0;"/><text fill="#000000" font-family="sans-serif" font-size="11" font-style="italic" lengthAdjust="spacingAndGlyphs" textLength="500" x="745" y="126.8998">writeFileContents(ActivityInstanceList, ResourceList, ConstraintInstanceList, Time, Time): void</text></a><!--MD5=[1ed6437d02faa3448fd7c697ff88bdad]
reverse link gov.nasa.jpl.output.TOLWriter to gov.nasa.jpl.output.parallel.ParallelDirectoryWriter--><path d="M988,155.09 C988,172.57 988,191.44 988,207.76 " fill="none" id="gov.nasa.jpl.output.TOLWriter&lt;-gov.nasa.jpl.output.parallel.ParallelDirectoryWriter" style="stroke: #A80036; stroke-width: 1.0;"/><polygon fill="none" points="981,155.13,988,135.13,995,155.13,981,155.13" style="stroke: #A80036; stroke-width: 1.0;"/><!--MD5=[4c787015a280ad045f9cb465ac464ed2]
link gov.nasa.jpl.output.parallel.WriterThreadConstraint to gov.nasa.jpl.output.parallel.WriterThreadActivity--><!--MD5=[1a4f70197d1e3467640f4486f3fb6c41]
link gov.nasa.jpl.output.parallel.WriterThreadConstraint to gov.nasa.jpl.output.parallel.WriterThreadResource--><text fill="#888888" font-family="sans-serif" font-size="10" lengthAdjust="spacingAndGlyphs" textLength="182" x="559.5" y="480.668">UMLDoclet 2.0.8, PlantUML 1.2020.01</text><!--MD5=[7869ed200e79c5deab30be91f74d9a45]
@startuml
    namespace gov.nasa.jpl.output.parallel {

        class WriterThreadConstraint [[WriterThreadConstraint.html]] {
            +WriterThreadConstraint(Constraint, String, Time, Time)
            +run(): void
        }

        class WriterThreadActivity [[WriterThreadActivity.html]] {
            +WriterThreadActivity(String, List<Activity>, String)
            +run(): void
        }

        class WriterThreadResource [[WriterThreadResource.html]] {
            +WriterThreadResource(Resource<Comparable>, String, Time, Time)
            +run(): void
        }

        class ParallelDirectoryWriter [[ParallelDirectoryWriter.html]] {
            +createFile(String): void
            +closeFile(): void
            +writeFileContents(ActivityInstanceList, ResourceList, ConstraintInstanceList, Time, Time): void
        }

        gov.nasa.jpl.output.TOLWriter <|- - ParallelDirectoryWriter
    }

    namespace gov.nasa.jpl.output {
        abstract class TOLWriter [[../TOLWriter.html]] {
            #writer: PrintWriter
            {abstract} +writeFileContents(ActivityInstanceList, ResourceList, ConstraintInstanceList, Time, Time): void
        }
    }

    center footer UMLDoclet 2.0.8, PlantUML 1.2020.01
@enduml

PlantUML version 1.2020.01(Sun Feb 16 09:40:32 PST 2020)
(APACHE source distribution)
Java Runtime: OpenJDK Runtime Environment
JVM: OpenJDK 64-Bit Server VM
Java Version: 17.0.6+10
Operating System: Mac OS X
Default Encoding: UTF-8
Language: en
Country: US
--></g></svg>