<?xml version="1.0" encoding="UTF-8" standalone="no"?><svg xmlns="http://www.w3.org/2000/svg" xmlns:xlink="http://www.w3.org/1999/xlink" contentScriptType="application/ecmascript" contentStyleType="text/css" height="245px" preserveAspectRatio="none" style="width:543px;height:245px;" version="1.1" viewBox="0 0 543 245" width="543px" zoomAndPan="magnify"><defs><filter height="300%" id="f1jy2z6th6k72j" width="300%" x="-1" y="-1"><feGaussianBlur result="blurOut" stdDeviation="2.0"/><feColorMatrix in="blurOut" result="blurOut2" type="matrix" values="0 0 0 0 0 0 0 0 0 0 0 0 0 0 0 0 0 0 .4 0"/><feOffset dx="4.0" dy="4.0" in="blurOut2" result="blurOut3"/><feBlend in="SourceGraphic" in2="blurOut3" mode="normal"/></filter></defs><g><!--MD5=[6495cecfab5df2439e18a58744d04ef5]
class gov.nasa.jpl.output.parallel.ParallelDirectoryWriter--><a href="ParallelDirectoryWriter.html" target="_top" title="ParallelDirectoryWriter.html" xlink:actuate="onRequest" xlink:href="ParallelDirectoryWriter.html" xlink:show="new" xlink:title="ParallelDirectoryWriter.html" xlink:type="simple"><rect fill="#FEFECE" filter="url(#f1jy2z6th6k72j)" height="85.1309" id="gov.nasa.jpl.output.parallel.ParallelDirectoryWriter" style="stroke: #A80036; stroke-width: 1.5;" width="526" x="6" y="126.87"/><ellipse cx="188.25" cy="146.0028" fill="#ADD1B2" rx="11" ry="11" style="stroke: #A80036; stroke-width: 1.0;"/><path d="M190.7231,152.1459 Q190.1421,152.4447 189.5029,152.5941 Q188.8638,152.7435 188.1582,152.7435 Q185.6514,152.7435 184.3315,151.0917 Q183.0117,149.4398 183.0117,146.3187 Q183.0117,143.1893 184.3315,141.5375 Q185.6514,139.8856 188.1582,139.8856 Q188.8638,139.8856 189.5112,140.035 Q190.1587,140.1845 190.7231,140.4833 L190.7231,143.2059 Q190.0923,142.6249 189.4988,142.3551 Q188.9053,142.0853 188.2744,142.0853 Q186.9297,142.0853 186.2449,143.152 Q185.5601,144.2186 185.5601,146.3187 Q185.5601,148.4105 186.2449,149.4772 Q186.9297,150.5438 188.2744,150.5438 Q188.9053,150.5438 189.4988,150.2741 Q190.0923,150.0043 190.7231,149.4232 Z "/><text fill="#000000" font-family="sans-serif" font-size="14" lengthAdjust="spacingAndGlyphs" textLength="153" x="208.75" y="145.4052">ParallelDirectoryWriter</text><text fill="#000000" font-family="sans-serif" font-size="10" lengthAdjust="spacingAndGlyphs" textLength="133" x="218.75" y="158.0263">gov.nasa.jpl.output.parallel</text><line style="stroke: #A80036; stroke-width: 1.5;" x1="7" x2="531" y1="165.1356" y2="165.1356"/><ellipse cx="17" cy="176.1356" fill="#84BE84" rx="3" ry="3" style="stroke: #038048; stroke-width: 1.0;"/><text fill="#000000" font-family="sans-serif" font-size="11" lengthAdjust="spacingAndGlyphs" textLength="120" x="26" y="179.7704">createFile(String): void</text><ellipse cx="17" cy="189.0907" fill="#84BE84" rx="3" ry="3" style="stroke: #038048; stroke-width: 1.0;"/><text fill="#000000" font-family="sans-serif" font-size="11" lengthAdjust="spacingAndGlyphs" textLength="83" x="26" y="192.7255">closeFile(): void</text><ellipse cx="17" cy="202.0458" fill="#84BE84" rx="3" ry="3" style="stroke: #038048; stroke-width: 1.0;"/><text fill="#000000" font-family="sans-serif" font-size="11" lengthAdjust="spacingAndGlyphs" textLength="500" x="26" y="205.6805">writeFileContents(ActivityInstanceList, ResourceList, ConstraintInstanceList, Time, Time): void</text></a><!--MD5=[b6cc7f9733b3bb21e0572bab9cf3c83b]
class gov.nasa.jpl.output.TOLWriter--><a href="../TOLWriter.html" target="_top" title="../TOLWriter.html" xlink:actuate="onRequest" xlink:href="../TOLWriter.html" xlink:show="new" xlink:title="../TOLWriter.html" xlink:type="simple"><rect fill="#FEFECE" filter="url(#f1jy2z6th6k72j)" height="59.2207" id="gov.nasa.jpl.output.TOLWriter" style="stroke: #A80036; stroke-width: 1.5;" width="526" x="6" y="7.65"/><ellipse cx="218.25" cy="26.7828" fill="#A9DCDF" rx="11" ry="11" style="stroke: #A80036; stroke-width: 1.0;"/><path d="M218.1133,22.131 L216.9595,27.2027 L219.2754,27.2027 Z M216.6191,19.8897 L219.6157,19.8897 L222.9609,32.2828 L220.5122,32.2828 L219.7485,29.2198 L216.4697,29.2198 L215.7227,32.2828 L213.2739,32.2828 Z "/><text fill="#000000" font-family="sans-serif" font-size="14" font-style="italic" lengthAdjust="spacingAndGlyphs" textLength="68" x="251.25" y="26.1852">TOLWriter</text><text fill="#000000" font-family="sans-serif" font-size="10" font-style="italic" lengthAdjust="spacingAndGlyphs" textLength="93" x="238.75" y="38.8063">gov.nasa.jpl.output</text><line style="stroke: #A80036; stroke-width: 1.5;" x1="7" x2="531" y1="45.9156" y2="45.9156"/><ellipse cx="17" cy="56.9156" fill="#84BE84" rx="3" ry="3" style="stroke: #038048; stroke-width: 1.0;"/><text fill="#000000" font-family="sans-serif" font-size="11" font-style="italic" lengthAdjust="spacingAndGlyphs" textLength="500" x="26" y="60.5504">writeFileContents(ActivityInstanceList, ResourceList, ConstraintInstanceList, Time, Time): void</text></a><!--MD5=[1ed6437d02faa3448fd7c697ff88bdad]
reverse link gov.nasa.jpl.output.TOLWriter to gov.nasa.jpl.output.parallel.ParallelDirectoryWriter--><path d="M269,88.59 C269,101.22 269,114.63 269,126.78 " fill="none" id="gov.nasa.jpl.output.TOLWriter&lt;-gov.nasa.jpl.output.parallel.ParallelDirectoryWriter" style="stroke: #A80036; stroke-width: 1.0;"/><polygon fill="none" points="262,88.66,269,68.66,276,88.66,262,88.66" style="stroke: #A80036; stroke-width: 1.0;"/><text fill="#888888" font-family="sans-serif" font-size="10" lengthAdjust="spacingAndGlyphs" textLength="182" x="184" y="231.668">UMLDoclet 2.0.8, PlantUML 1.2020.01</text><!--MD5=[1b459a8ab0be0b08582385d54d257d61]
@startuml
    set namespaceSeparator none
    hide empty fields
    hide empty methods

    class "<size:14>ParallelDirectoryWriter\n<size:10>gov.nasa.jpl.output.parallel" as gov.nasa.jpl.output.parallel.ParallelDirectoryWriter [[ParallelDirectoryWriter.html]] {
        +createFile(String): void
        +closeFile(): void
        +writeFileContents(ActivityInstanceList, ResourceList, ConstraintInstanceList, Time, Time): void
    }

    abstract class "<size:14>TOLWriter\n<size:10>gov.nasa.jpl.output" as gov.nasa.jpl.output.TOLWriter [[../TOLWriter.html]] {
        {abstract} +writeFileContents(ActivityInstanceList, ResourceList, ConstraintInstanceList, Time, Time): void
    }

    gov.nasa.jpl.output.TOLWriter <|- - gov.nasa.jpl.output.parallel.ParallelDirectoryWriter

    center footer UMLDoclet 2.0.8, PlantUML 1.2020.01
@enduml

PlantUML version 1.2020.01(Sun Feb 16 09:40:32 PST 2020)
(APACHE source distribution)
Java Runtime: OpenJDK Runtime Environment
JVM: OpenJDK 64-Bit Server VM
Java Version: 17.0.6+10
Operating System: Mac OS X
Default Encoding: UTF-8
Language: en
Country: US
--></g></svg>