<?xml version="1.0" encoding="UTF-8" standalone="no"?><svg xmlns="http://www.w3.org/2000/svg" xmlns:xlink="http://www.w3.org/1999/xlink" contentScriptType="application/ecmascript" contentStyleType="text/css" height="232px" preserveAspectRatio="none" style="width:406px;height:232px;" version="1.1" viewBox="0 0 406 232" width="406px" zoomAndPan="magnify"><defs><filter height="300%" id="f1hnts9rp5u5fh" width="300%" x="-1" y="-1"><feGaussianBlur result="blurOut" stdDeviation="2.0"/><feColorMatrix in="blurOut" result="blurOut2" type="matrix" values="0 0 0 0 0 0 0 0 0 0 0 0 0 0 0 0 0 0 .4 0"/><feOffset dx="4.0" dy="4.0" in="blurOut2" result="blurOut3"/><feBlend in="SourceGraphic" in2="blurOut3" mode="normal"/></filter></defs><g><!--MD5=[f41b6637c7faf9841eb7309c605e9de1]
class gov.nasa.jpl.output.parallel.WriterThreadResource--><a href="WriterThreadResource.html" target="_top" title="WriterThreadResource.html" xlink:actuate="onRequest" xlink:href="WriterThreadResource.html" xlink:show="new" xlink:title="WriterThreadResource.html" xlink:type="simple"><rect fill="#FEFECE" filter="url(#f1hnts9rp5u5fh)" height="72.1758" id="gov.nasa.jpl.output.parallel.WriterThreadResource" style="stroke: #A80036; stroke-width: 1.5;" width="389" x="6" y="126.82"/><ellipse cx="119.75" cy="145.9528" fill="#ADD1B2" rx="11" ry="11" style="stroke: #A80036; stroke-width: 1.0;"/><path d="M122.2231,152.0959 Q121.6421,152.3947 121.0029,152.5441 Q120.3638,152.6935 119.6582,152.6935 Q117.1514,152.6935 115.8315,151.0417 Q114.5117,149.3898 114.5117,146.2687 Q114.5117,143.1393 115.8315,141.4875 Q117.1514,139.8356 119.6582,139.8356 Q120.3638,139.8356 121.0112,139.985 Q121.6587,140.1345 122.2231,140.4333 L122.2231,143.1559 Q121.5923,142.5749 120.9988,142.3051 Q120.4053,142.0353 119.7744,142.0353 Q118.4297,142.0353 117.7449,143.102 Q117.0601,144.1686 117.0601,146.2687 Q117.0601,148.3605 117.7449,149.4272 Q118.4297,150.4938 119.7744,150.4938 Q120.4053,150.4938 120.9988,150.2241 Q121.5923,149.9543 122.2231,149.3732 Z "/><text fill="#000000" font-family="sans-serif" font-size="14" lengthAdjust="spacingAndGlyphs" textLength="153" x="140.25" y="145.3552">WriterThreadResource</text><text fill="#000000" font-family="sans-serif" font-size="10" lengthAdjust="spacingAndGlyphs" textLength="133" x="150.25" y="157.9763">gov.nasa.jpl.output.parallel</text><line style="stroke: #A80036; stroke-width: 1.5;" x1="7" x2="394" y1="165.0856" y2="165.0856"/><ellipse cx="17" cy="176.0856" fill="#84BE84" rx="3" ry="3" style="stroke: #038048; stroke-width: 1.0;"/><text fill="#000000" font-family="sans-serif" font-size="11" lengthAdjust="spacingAndGlyphs" textLength="363" x="26" y="179.7204">WriterThreadResource(Resource&lt;Comparable&gt;, String, Time, Time)</text><ellipse cx="17" cy="189.0407" fill="#84BE84" rx="3" ry="3" style="stroke: #038048; stroke-width: 1.0;"/><text fill="#000000" font-family="sans-serif" font-size="11" lengthAdjust="spacingAndGlyphs" textLength="56" x="26" y="192.6755">run(): void</text></a><!--MD5=[8dac795f9edbf65a524ac462449c98fb]
class java.lang.Runnable--><a href="https://docs.oracle.com/en/java/javase/13/docs/api/java.base/java/lang/Runnable.html?is-external=true" target="_top" title="https://docs.oracle.com/en/java/javase/13/docs/api/java.base/java/lang/Runnable.html?is-external=true" xlink:actuate="onRequest" xlink:href="https://docs.oracle.com/en/java/javase/13/docs/api/java.base/java/lang/Runnable.html?is-external=true" xlink:show="new" xlink:title="https://docs.oracle.com/en/java/javase/13/docs/api/java.base/java/lang/Runnable.html?is-external=true" xlink:type="simple"><rect fill="#FEFECE" filter="url(#f1hnts9rp5u5fh)" height="59.2207" id="java.lang.Runnable" style="stroke: #A80036; stroke-width: 1.5;" width="97" x="152" y="7.6"/><ellipse cx="167" cy="26.7328" fill="#B4A7E5" rx="11" ry="11" style="stroke: #A80036; stroke-width: 1.0;"/><path d="M163.4277,22.9979 L163.4277,20.8397 L170.8071,20.8397 L170.8071,22.9979 L168.3418,22.9979 L168.3418,31.0746 L170.8071,31.0746 L170.8071,33.2328 L163.4277,33.2328 L163.4277,31.0746 L165.8931,31.0746 L165.8931,22.9979 Z "/><text fill="#000000" font-family="sans-serif" font-size="14" font-style="italic" lengthAdjust="spacingAndGlyphs" textLength="65" x="181" y="26.1352">Runnable</text><text fill="#000000" font-family="sans-serif" font-size="10" font-style="italic" lengthAdjust="spacingAndGlyphs" textLength="44" x="191.5" y="38.7562">java.lang</text><line style="stroke: #A80036; stroke-width: 1.5;" x1="153" x2="248" y1="45.8656" y2="45.8656"/><ellipse cx="163" cy="56.8656" fill="#84BE84" rx="3" ry="3" style="stroke: #038048; stroke-width: 1.0;"/><text fill="#000000" font-family="sans-serif" font-size="11" font-style="italic" lengthAdjust="spacingAndGlyphs" textLength="56" x="172" y="60.5004">run(): void</text></a><!--MD5=[6de72b6e9addd5ecce9d5ab5496b7de1]
reverse link java.lang.Runnable to gov.nasa.jpl.output.parallel.WriterThreadResource--><path d="M200.5,88.32 C200.5,101.11 200.5,114.59 200.5,126.47 " fill="none" id="java.lang.Runnable&lt;-gov.nasa.jpl.output.parallel.WriterThreadResource" style="stroke: #A80036; stroke-width: 1.0; stroke-dasharray: 7.0,7.0;"/><polygon fill="none" points="193.5,88.73,200.5,68.73,207.5,88.73,193.5,88.73" style="stroke: #A80036; stroke-width: 1.0;"/><text fill="#888888" font-family="sans-serif" font-size="10" lengthAdjust="spacingAndGlyphs" textLength="182" x="115.5" y="218.668">UMLDoclet 2.0.8, PlantUML 1.2020.01</text><!--MD5=[411e48f219087b8c602185289a8fa3a6]
@startuml
    set namespaceSeparator none
    hide empty fields
    hide empty methods

    class "<size:14>WriterThreadResource\n<size:10>gov.nasa.jpl.output.parallel" as gov.nasa.jpl.output.parallel.WriterThreadResource [[WriterThreadResource.html]] {
        +WriterThreadResource(Resource<Comparable>, String, Time, Time)
        +run(): void
    }

    interface "<size:14>Runnable\n<size:10>java.lang" as java.lang.Runnable [[https://docs.oracle.com/en/java/javase/13/docs/api/java.base/java/lang/Runnable.html?is-external=true]] {
        {abstract} +run(): void
    }

    java.lang.Runnable <|.. gov.nasa.jpl.output.parallel.WriterThreadResource

    center footer UMLDoclet 2.0.8, PlantUML 1.2020.01
@enduml

PlantUML version 1.2020.01(Sun Feb 16 09:40:32 PST 2020)
(APACHE source distribution)
Java Runtime: OpenJDK Runtime Environment
JVM: OpenJDK 64-Bit Server VM
Java Version: 17.0.6+10
Operating System: Mac OS X
Default Encoding: UTF-8
Language: en
Country: US
--></g></svg>