<?xml version="1.0" encoding="UTF-8" standalone="no"?><svg xmlns="http://www.w3.org/2000/svg" xmlns:xlink="http://www.w3.org/1999/xlink" contentScriptType="application/ecmascript" contentStyleType="text/css" height="232px" preserveAspectRatio="none" style="width:337px;height:232px;" version="1.1" viewBox="0 0 337 232" width="337px" zoomAndPan="magnify"><defs><filter height="300%" id="fkyh33sflfzbp" width="300%" x="-1" y="-1"><feGaussianBlur result="blurOut" stdDeviation="2.0"/><feColorMatrix in="blurOut" result="blurOut2" type="matrix" values="0 0 0 0 0 0 0 0 0 0 0 0 0 0 0 0 0 0 .4 0"/><feOffset dx="4.0" dy="4.0" in="blurOut2" result="blurOut3"/><feBlend in="SourceGraphic" in2="blurOut3" mode="normal"/></filter></defs><g><!--MD5=[8d00876fa62156122836e6740ce9c705]
class gov.nasa.jpl.output.parallel.WriterThreadConstraint--><a href="WriterThreadConstraint.html" target="_top" title="WriterThreadConstraint.html" xlink:actuate="onRequest" xlink:href="WriterThreadConstraint.html" xlink:show="new" xlink:title="WriterThreadConstraint.html" xlink:type="simple"><rect fill="#FEFECE" filter="url(#fkyh33sflfzbp)" height="72.1758" id="gov.nasa.jpl.output.parallel.WriterThreadConstraint" style="stroke: #A80036; stroke-width: 1.5;" width="320" x="6" y="126.82"/><ellipse cx="80.75" cy="145.9528" fill="#ADD1B2" rx="11" ry="11" style="stroke: #A80036; stroke-width: 1.0;"/><path d="M83.2231,152.0959 Q82.6421,152.3947 82.0029,152.5441 Q81.3638,152.6935 80.6582,152.6935 Q78.1514,152.6935 76.8315,151.0417 Q75.5117,149.3898 75.5117,146.2687 Q75.5117,143.1393 76.8315,141.4875 Q78.1514,139.8356 80.6582,139.8356 Q81.3638,139.8356 82.0112,139.985 Q82.6587,140.1345 83.2231,140.4333 L83.2231,143.1559 Q82.5923,142.5749 81.9988,142.3051 Q81.4053,142.0353 80.7744,142.0353 Q79.4297,142.0353 78.7449,143.102 Q78.0601,144.1686 78.0601,146.2687 Q78.0601,148.3605 78.7449,149.4272 Q79.4297,150.4938 80.7744,150.4938 Q81.4053,150.4938 81.9988,150.2241 Q82.5923,149.9543 83.2231,149.3732 Z "/><text fill="#000000" font-family="sans-serif" font-size="14" lengthAdjust="spacingAndGlyphs" textLength="162" x="101.25" y="145.3552">WriterThreadConstraint</text><text fill="#000000" font-family="sans-serif" font-size="10" lengthAdjust="spacingAndGlyphs" textLength="133" x="115.75" y="157.9763">gov.nasa.jpl.output.parallel</text><line style="stroke: #A80036; stroke-width: 1.5;" x1="7" x2="325" y1="165.0856" y2="165.0856"/><ellipse cx="17" cy="176.0856" fill="#84BE84" rx="3" ry="3" style="stroke: #038048; stroke-width: 1.0;"/><text fill="#000000" font-family="sans-serif" font-size="11" lengthAdjust="spacingAndGlyphs" textLength="294" x="26" y="179.7204">WriterThreadConstraint(Constraint, String, Time, Time)</text><ellipse cx="17" cy="189.0407" fill="#84BE84" rx="3" ry="3" style="stroke: #038048; stroke-width: 1.0;"/><text fill="#000000" font-family="sans-serif" font-size="11" lengthAdjust="spacingAndGlyphs" textLength="56" x="26" y="192.6755">run(): void</text></a><!--MD5=[8dac795f9edbf65a524ac462449c98fb]
class java.lang.Runnable--><a href="https://docs.oracle.com/en/java/javase/13/docs/api/java.base/java/lang/Runnable.html?is-external=true" target="_top" title="https://docs.oracle.com/en/java/javase/13/docs/api/java.base/java/lang/Runnable.html?is-external=true" xlink:actuate="onRequest" xlink:href="https://docs.oracle.com/en/java/javase/13/docs/api/java.base/java/lang/Runnable.html?is-external=true" xlink:show="new" xlink:title="https://docs.oracle.com/en/java/javase/13/docs/api/java.base/java/lang/Runnable.html?is-external=true" xlink:type="simple"><rect fill="#FEFECE" filter="url(#fkyh33sflfzbp)" height="59.2207" id="java.lang.Runnable" style="stroke: #A80036; stroke-width: 1.5;" width="97" x="117.5" y="7.6"/><ellipse cx="132.5" cy="26.7328" fill="#B4A7E5" rx="11" ry="11" style="stroke: #A80036; stroke-width: 1.0;"/><path d="M128.9277,22.9979 L128.9277,20.8397 L136.3071,20.8397 L136.3071,22.9979 L133.8418,22.9979 L133.8418,31.0746 L136.3071,31.0746 L136.3071,33.2328 L128.9277,33.2328 L128.9277,31.0746 L131.3931,31.0746 L131.3931,22.9979 Z "/><text fill="#000000" font-family="sans-serif" font-size="14" font-style="italic" lengthAdjust="spacingAndGlyphs" textLength="65" x="146.5" y="26.1352">Runnable</text><text fill="#000000" font-family="sans-serif" font-size="10" font-style="italic" lengthAdjust="spacingAndGlyphs" textLength="44" x="157" y="38.7562">java.lang</text><line style="stroke: #A80036; stroke-width: 1.5;" x1="118.5" x2="213.5" y1="45.8656" y2="45.8656"/><ellipse cx="128.5" cy="56.8656" fill="#84BE84" rx="3" ry="3" style="stroke: #038048; stroke-width: 1.0;"/><text fill="#000000" font-family="sans-serif" font-size="11" font-style="italic" lengthAdjust="spacingAndGlyphs" textLength="56" x="137.5" y="60.5004">run(): void</text></a><!--MD5=[fc029de573c23b6ba89f9ee07b0d992f]
reverse link java.lang.Runnable to gov.nasa.jpl.output.parallel.WriterThreadConstraint--><path d="M166,88.32 C166,101.11 166,114.59 166,126.47 " fill="none" id="java.lang.Runnable&lt;-gov.nasa.jpl.output.parallel.WriterThreadConstraint" style="stroke: #A80036; stroke-width: 1.0; stroke-dasharray: 7.0,7.0;"/><polygon fill="none" points="159,88.73,166,68.73,173,88.73,159,88.73" style="stroke: #A80036; stroke-width: 1.0;"/><text fill="#888888" font-family="sans-serif" font-size="10" lengthAdjust="spacingAndGlyphs" textLength="182" x="81" y="218.668">UMLDoclet 2.0.8, PlantUML 1.2020.01</text><!--MD5=[ff1b7362008fa076a5a2538e62cb2341]
@startuml
    set namespaceSeparator none
    hide empty fields
    hide empty methods

    class "<size:14>WriterThreadConstraint\n<size:10>gov.nasa.jpl.output.parallel" as gov.nasa.jpl.output.parallel.WriterThreadConstraint [[WriterThreadConstraint.html]] {
        +WriterThreadConstraint(Constraint, String, Time, Time)
        +run(): void
    }

    interface "<size:14>Runnable\n<size:10>java.lang" as java.lang.Runnable [[https://docs.oracle.com/en/java/javase/13/docs/api/java.base/java/lang/Runnable.html?is-external=true]] {
        {abstract} +run(): void
    }

    java.lang.Runnable <|.. gov.nasa.jpl.output.parallel.WriterThreadConstraint

    center footer UMLDoclet 2.0.8, PlantUML 1.2020.01
@enduml

PlantUML version 1.2020.01(Sun Feb 16 09:40:32 PST 2020)
(APACHE source distribution)
Java Runtime: OpenJDK Runtime Environment
JVM: OpenJDK 64-Bit Server VM
Java Version: 17.0.6+10
Operating System: Mac OS X
Default Encoding: UTF-8
Language: en
Country: US
--></g></svg>