<?xml version="1.0" encoding="UTF-8" standalone="no"?><svg xmlns="http://www.w3.org/2000/svg" xmlns:xlink="http://www.w3.org/1999/xlink" contentScriptType="application/ecmascript" contentStyleType="text/css" height="831px" preserveAspectRatio="none" style="width:821px;height:831px;" version="1.1" viewBox="0 0 821 831" width="821px" zoomAndPan="magnify"><defs><filter height="300%" id="f1b8jlchbj1hoq" width="300%" x="-1" y="-1"><feGaussianBlur result="blurOut" stdDeviation="2.0"/><feColorMatrix in="blurOut" result="blurOut2" type="matrix" values="0 0 0 0 0 0 0 0 0 0 0 0 0 0 0 0 0 0 .4 0"/><feOffset dx="4.0" dy="4.0" in="blurOut2" result="blurOut3"/><feBlend in="SourceGraphic" in2="blurOut3" mode="normal"/></filter></defs><g><!--MD5=[41fc5bd2047e3c0e07e99bf4d3418736]
cluster gov.nasa.jpl.scheduler--><polygon fill="#FFFFFF" filter="url(#f1b8jlchbj1hoq)" points="22,160.44,184,160.44,191,182.9283,799,182.9283,799,782,22,782,22,160.44" style="stroke: #000000; stroke-width: 1.5;"/><line style="stroke: #000000; stroke-width: 1.5;" x1="22" x2="191" y1="182.9283" y2="182.9283"/><text fill="#000000" font-family="sans-serif" font-size="14" font-weight="bold" lengthAdjust="spacingAndGlyphs" textLength="156" x="26" y="175.9752">gov.nasa.jpl.scheduler</text><!--MD5=[aa8f7b917213fcc1c2766e2d59b49067]
cluster java.lang--><polygon fill="#FFFFFF" filter="url(#f1b8jlchbj1hoq)" points="527,24.48,596,24.48,603,46.9683,681,46.9683,681,136.44,527,136.44,527,24.48" style="stroke: #000000; stroke-width: 1.5;"/><line style="stroke: #000000; stroke-width: 1.5;" x1="527" x2="603" y1="46.9683" y2="46.9683"/><text fill="#000000" font-family="sans-serif" font-size="14" font-weight="bold" lengthAdjust="spacingAndGlyphs" textLength="63" x="531" y="40.0152">java.lang</text><!--MD5=[46b5fe99731d600045d67ee9b37fbc14]
class gov.nasa.jpl.scheduler.Window--><a href="Window.html" target="_top" title="Window.html" xlink:actuate="onRequest" xlink:href="Window.html" xlink:show="new" xlink:title="Window.html" xlink:type="simple"><rect fill="#FEFECE" filter="url(#f1b8jlchbj1hoq)" height="333.0117" id="gov.nasa.jpl.scheduler.Window" style="stroke: #A80036; stroke-width: 1.5;" width="359" x="424.5" y="195.44"/><ellipse cx="577.75" cy="211.44" fill="#ADD1B2" rx="11" ry="11" style="stroke: #A80036; stroke-width: 1.0;"/><path d="M580.2231,217.5831 Q579.6421,217.8819 579.0029,218.0313 Q578.3638,218.1807 577.6582,218.1807 Q575.1514,218.1807 573.8315,216.5289 Q572.5117,214.877 572.5117,211.7559 Q572.5117,208.6265 573.8315,206.9747 Q575.1514,205.3228 577.6582,205.3228 Q578.3638,205.3228 579.0112,205.4722 Q579.6587,205.6216 580.2231,205.9205 L580.2231,208.6431 Q579.5923,208.0621 578.9988,207.7923 Q578.4053,207.5225 577.7744,207.5225 Q576.4297,207.5225 575.7449,208.5892 Q575.0601,209.6558 575.0601,211.7559 Q575.0601,213.8477 575.7449,214.9144 Q576.4297,215.981 577.7744,215.981 Q578.4053,215.981 578.9988,215.7112 Q579.5923,215.4415 580.2231,214.8604 Z "/><text fill="#000000" font-family="sans-serif" font-size="12" lengthAdjust="spacingAndGlyphs" textLength="44" x="598.25" y="215.9752">Window</text><line style="stroke: #A80036; stroke-width: 1.5;" x1="425.5" x2="782.5" y1="227.44" y2="227.44"/><line style="stroke: #A80036; stroke-width: 1.5;" x1="425.5" x2="782.5" y1="235.44" y2="235.44"/><ellipse cx="435.5" cy="246.44" fill="#84BE84" rx="3" ry="3" style="stroke: #038048; stroke-width: 1.0;"/><text fill="#000000" font-family="sans-serif" font-size="11" lengthAdjust="spacingAndGlyphs" textLength="107" x="444.5" y="250.0748">Window(Time, Time)</text><ellipse cx="435.5" cy="259.3951" fill="#84BE84" rx="3" ry="3" style="stroke: #038048; stroke-width: 1.0;"/><text fill="#000000" font-family="sans-serif" font-size="11" lengthAdjust="spacingAndGlyphs" textLength="145" x="444.5" y="263.0298">Window(Time, Time, String)</text><ellipse cx="435.5" cy="272.3502" fill="#84BE84" rx="3" ry="3" style="stroke: #038048; stroke-width: 1.0;"/><text fill="#000000" font-family="sans-serif" font-size="11" lengthAdjust="spacingAndGlyphs" textLength="82" x="444.5" y="275.9849">getStart(): Time</text><ellipse cx="435.5" cy="285.3052" fill="#84BE84" rx="3" ry="3" style="stroke: #038048; stroke-width: 1.0;"/><text fill="#000000" font-family="sans-serif" font-size="11" lengthAdjust="spacingAndGlyphs" textLength="77" x="444.5" y="288.94">getEnd(): Time</text><ellipse cx="435.5" cy="298.2603" fill="#84BE84" rx="3" ry="3" style="stroke: #038048; stroke-width: 1.0;"/><text fill="#000000" font-family="sans-serif" font-size="11" lengthAdjust="spacingAndGlyphs" textLength="89" x="444.5" y="301.8951">getType(): String</text><ellipse cx="435.5" cy="311.2154" fill="#84BE84" rx="3" ry="3" style="stroke: #038048; stroke-width: 1.0;"/><text fill="#000000" font-family="sans-serif" font-size="11" lengthAdjust="spacingAndGlyphs" textLength="96" x="444.5" y="314.8502">hasEnd(): boolean</text><ellipse cx="435.5" cy="324.1705" fill="#84BE84" rx="3" ry="3" style="stroke: #038048; stroke-width: 1.0;"/><text fill="#000000" font-family="sans-serif" font-size="11" lengthAdjust="spacingAndGlyphs" textLength="125" x="444.5" y="327.8052">getDuration(): Duration</text><ellipse cx="435.5" cy="337.1255" fill="#84BE84" rx="3" ry="3" style="stroke: #038048; stroke-width: 1.0;"/><text fill="#000000" font-family="sans-serif" font-size="11" lengthAdjust="spacingAndGlyphs" textLength="104" x="444.5" y="340.7603">getMidpoint(): Time</text><ellipse cx="435.5" cy="350.0806" fill="#84BE84" rx="3" ry="3" style="stroke: #038048; stroke-width: 1.0;"/><text fill="#000000" font-family="sans-serif" font-size="11" lengthAdjust="spacingAndGlyphs" textLength="129" x="444.5" y="353.7154">contains(Time): boolean</text><ellipse cx="435.5" cy="363.0357" fill="#84BE84" rx="3" ry="3" style="stroke: #038048; stroke-width: 1.0;"/><text fill="#000000" font-family="sans-serif" font-size="11" lengthAdjust="spacingAndGlyphs" textLength="144" x="444.5" y="366.6705">contains(Window): boolean</text><ellipse cx="435.5" cy="375.9908" fill="#84BE84" rx="3" ry="3" style="stroke: #038048; stroke-width: 1.0;"/><text fill="#000000" font-family="sans-serif" font-size="11" lengthAdjust="spacingAndGlyphs" textLength="151" x="444.5" y="379.6255">intersects(Window): boolean</text><ellipse cx="435.5" cy="388.9459" fill="#84BE84" rx="3" ry="3" style="stroke: #038048; stroke-width: 1.0;"/><text fill="#000000" font-family="sans-serif" font-size="11" lengthAdjust="spacingAndGlyphs" textLength="138" x="444.5" y="392.5806">hasLengthZero(): boolean</text><ellipse cx="435.5" cy="401.9009" fill="#84BE84" rx="3" ry="3" style="stroke: #038048; stroke-width: 1.0;"/><text fill="#000000" font-family="sans-serif" font-size="11" lengthAdjust="spacingAndGlyphs" textLength="130" x="444.5" y="405.5357">compareTo(Window): int</text><ellipse cx="435.5" cy="414.856" fill="#84BE84" rx="3" ry="3" style="stroke: #038048; stroke-width: 1.0;"/><text fill="#000000" font-family="sans-serif" font-size="11" lengthAdjust="spacingAndGlyphs" text-decoration="underline" textLength="133" x="444.5" y="418.4908">sum(Window[]): Duration</text><ellipse cx="435.5" cy="427.8111" fill="#84BE84" rx="3" ry="3" style="stroke: #038048; stroke-width: 1.0;"/><text fill="#000000" font-family="sans-serif" font-size="11" lengthAdjust="spacingAndGlyphs" text-decoration="underline" textLength="244" x="444.5" y="431.4459">getWindows(Condition, Time, Time): Window[]</text><ellipse cx="435.5" cy="440.7662" fill="#84BE84" rx="3" ry="3" style="stroke: #038048; stroke-width: 1.0;"/><text fill="#000000" font-family="sans-serif" font-size="11" lengthAdjust="spacingAndGlyphs" text-decoration="underline" textLength="259" x="444.5" y="444.4009">interpWindows(Condition, Time, Time): Window[]</text><ellipse cx="435.5" cy="453.7213" fill="#84BE84" rx="3" ry="3" style="stroke: #038048; stroke-width: 1.0;"/><text fill="#000000" font-family="sans-serif" font-size="11" lengthAdjust="spacingAndGlyphs" textLength="333" x="444.5" y="457.356">getIntersectingWindowInList(NavigableSet&lt;Window&gt;): Window</text><ellipse cx="435.5" cy="466.6763" fill="#84BE84" rx="3" ry="3" style="stroke: #038048; stroke-width: 1.0;"/><text fill="#000000" font-family="sans-serif" font-size="11" lengthAdjust="spacingAndGlyphs" text-decoration="underline" textLength="187" x="444.5" y="470.3111">and(Window[], Window[]): Window[]</text><ellipse cx="435.5" cy="479.6314" fill="#84BE84" rx="3" ry="3" style="stroke: #038048; stroke-width: 1.0;"/><text fill="#000000" font-family="sans-serif" font-size="11" lengthAdjust="spacingAndGlyphs" text-decoration="underline" textLength="179" x="444.5" y="483.2662">or(Window[], Window[]): Window[]</text><ellipse cx="435.5" cy="492.5865" fill="#84BE84" rx="3" ry="3" style="stroke: #038048; stroke-width: 1.0;"/><text fill="#000000" font-family="sans-serif" font-size="11" lengthAdjust="spacingAndGlyphs" text-decoration="underline" textLength="186" x="444.5" y="496.2213">xor(Window[], Window[]): Window[]</text><ellipse cx="435.5" cy="505.5416" fill="#84BE84" rx="3" ry="3" style="stroke: #038048; stroke-width: 1.0;"/><text fill="#000000" font-family="sans-serif" font-size="11" lengthAdjust="spacingAndGlyphs" text-decoration="underline" textLength="194" x="444.5" y="509.1763">not(Window[], Time, Time): Window[]</text><ellipse cx="435.5" cy="518.4966" fill="#84BE84" rx="3" ry="3" style="stroke: #038048; stroke-width: 1.0;"/><text fill="#000000" font-family="sans-serif" font-size="11" lengthAdjust="spacingAndGlyphs" text-decoration="underline" textLength="199" x="444.5" y="522.1314">merge(Window[], Duration): Window[]</text></a><!--MD5=[55c9f49e9224aabdcd5ea9b15cef29f6]
class gov.nasa.jpl.scheduler.Scheduler--><a href="Scheduler.html" target="_top" title="Scheduler.html" xlink:actuate="onRequest" xlink:href="Scheduler.html" xlink:show="new" xlink:title="Scheduler.html" xlink:type="simple"><rect fill="#FEFECE" filter="url(#f1b8jlchbj1hoq)" height="73.9102" id="gov.nasa.jpl.scheduler.Scheduler" style="stroke: #A80036; stroke-width: 1.5;" width="178" x="38" y="324.99"/><ellipse cx="94.75" cy="340.99" fill="#B4A7E5" rx="11" ry="11" style="stroke: #A80036; stroke-width: 1.0;"/><path d="M91.1777,337.2551 L91.1777,335.0969 L98.5571,335.0969 L98.5571,337.2551 L96.0918,337.2551 L96.0918,345.3318 L98.5571,345.3318 L98.5571,347.49 L91.1777,347.49 L91.1777,345.3318 L93.6431,345.3318 L93.6431,337.2551 Z "/><text fill="#000000" font-family="sans-serif" font-size="12" font-style="italic" lengthAdjust="spacingAndGlyphs" textLength="56" x="115.25" y="345.5252">Scheduler</text><line style="stroke: #A80036; stroke-width: 1.5;" x1="39" x2="215" y1="356.99" y2="356.99"/><line style="stroke: #A80036; stroke-width: 1.5;" x1="39" x2="215" y1="364.99" y2="364.99"/><ellipse cx="49" cy="375.99" fill="#84BE84" rx="3" ry="3" style="stroke: #038048; stroke-width: 1.0;"/><text fill="#000000" font-family="sans-serif" font-size="11" font-style="italic" lengthAdjust="spacingAndGlyphs" textLength="136" x="58" y="379.6248">setCondition(): Condition</text><ellipse cx="49" cy="388.9451" fill="#84BE84" rx="3" ry="3" style="stroke: #038048; stroke-width: 1.0;"/><text fill="#000000" font-family="sans-serif" font-size="11" font-style="italic" lengthAdjust="spacingAndGlyphs" textLength="152" x="58" y="392.5798">dispatchOnCondition(): void</text></a><!--MD5=[fa9f6dce9455dd99abf73c393fc2d154]
class gov.nasa.jpl.scheduler.CompareToValues--><a href="CompareToValues.html" target="_top" title="CompareToValues.html" xlink:actuate="onRequest" xlink:href="CompareToValues.html" xlink:show="new" xlink:title="CompareToValues.html" xlink:type="simple"><rect fill="#FEFECE" filter="url(#f1b8jlchbj1hoq)" height="99.8203" id="gov.nasa.jpl.scheduler.CompareToValues" style="stroke: #A80036; stroke-width: 1.5;" width="138" x="251" y="312.03"/><ellipse cx="266" cy="328.03" fill="#EB937F" rx="11" ry="11" style="stroke: #A80036; stroke-width: 1.0;"/><path d="M269.6143,334.53 L261.8945,334.53 L261.8945,322.1369 L269.6143,322.1369 L269.6143,324.2951 L264.3433,324.2951 L264.3433,326.968 L269.1162,326.968 L269.1162,329.1262 L264.3433,329.1262 L264.3433,332.3718 L269.6143,332.3718 Z "/><text fill="#000000" font-family="sans-serif" font-size="12" lengthAdjust="spacingAndGlyphs" textLength="106" x="280" y="332.5652">CompareToValues</text><line style="stroke: #A80036; stroke-width: 1.5;" x1="252" x2="388" y1="344.03" y2="344.03"/><ellipse cx="262" cy="355.03" fill="none" rx="3" ry="3" style="stroke: #038048; stroke-width: 1.0;"/><text fill="#000000" font-family="sans-serif" font-size="11" lengthAdjust="spacingAndGlyphs" text-decoration="underline" textLength="55" x="271" y="358.6648">LESSTHAN</text><ellipse cx="262" cy="367.9851" fill="none" rx="3" ry="3" style="stroke: #038048; stroke-width: 1.0;"/><text fill="#000000" font-family="sans-serif" font-size="11" lengthAdjust="spacingAndGlyphs" text-decoration="underline" textLength="53" x="271" y="371.6198">EQUALTO</text><ellipse cx="262" cy="380.9402" fill="none" rx="3" ry="3" style="stroke: #038048; stroke-width: 1.0;"/><text fill="#000000" font-family="sans-serif" font-size="11" lengthAdjust="spacingAndGlyphs" text-decoration="underline" textLength="80" x="271" y="384.5749">GREATERTHAN</text><line style="stroke: #A80036; stroke-width: 1.5;" x1="252" x2="388" y1="390.8952" y2="390.8952"/><ellipse cx="262" cy="401.8952" fill="#84BE84" rx="3" ry="3" style="stroke: #038048; stroke-width: 1.0;"/><text fill="#000000" font-family="sans-serif" font-size="11" lengthAdjust="spacingAndGlyphs" textLength="53" x="271" y="405.53">toInt(): int</text></a><!--MD5=[1913f0d59dace7926023b83247344a2b]
class gov.nasa.jpl.scheduler.Condition--><a href="Condition.html" target="_top" title="Condition.html" xlink:actuate="onRequest" xlink:href="Condition.html" xlink:show="new" xlink:title="Condition.html" xlink:type="simple"><rect fill="#FEFECE" filter="url(#f1b8jlchbj1hoq)" height="177.5508" id="gov.nasa.jpl.scheduler.Condition" style="stroke: #A80036; stroke-width: 1.5;" width="312" x="38" y="588.45"/><ellipse cx="162.75" cy="604.45" fill="#ADD1B2" rx="11" ry="11" style="stroke: #A80036; stroke-width: 1.0;"/><path d="M165.2231,610.5931 Q164.6421,610.8919 164.0029,611.0413 Q163.3638,611.1907 162.6582,611.1907 Q160.1514,611.1907 158.8315,609.5389 Q157.5117,607.887 157.5117,604.7659 Q157.5117,601.6365 158.8315,599.9847 Q160.1514,598.3328 162.6582,598.3328 Q163.3638,598.3328 164.0112,598.4822 Q164.6587,598.6316 165.2231,598.9305 L165.2231,601.6531 Q164.5923,601.0721 163.9988,600.8023 Q163.4053,600.5325 162.7744,600.5325 Q161.4297,600.5325 160.7449,601.5992 Q160.0601,602.6658 160.0601,604.7659 Q160.0601,606.8577 160.7449,607.9244 Q161.4297,608.991 162.7744,608.991 Q163.4053,608.991 163.9988,608.7212 Q164.5923,608.4515 165.2231,607.8704 Z "/><text fill="#000000" font-family="sans-serif" font-size="12" lengthAdjust="spacingAndGlyphs" textLength="54" x="183.25" y="608.9852">Condition</text><line style="stroke: #A80036; stroke-width: 1.5;" x1="39" x2="349" y1="620.45" y2="620.45"/><line style="stroke: #A80036; stroke-width: 1.5;" x1="39" x2="349" y1="628.45" y2="628.45"/><ellipse cx="49" cy="639.45" fill="#84BE84" rx="3" ry="3" style="stroke: #038048; stroke-width: 1.0;"/><text fill="#000000" font-family="sans-serif" font-size="11" lengthAdjust="spacingAndGlyphs" textLength="286" x="58" y="643.0848">Condition(Resource, CompareToValues, Comparable)</text><ellipse cx="49" cy="652.4051" fill="#84BE84" rx="3" ry="3" style="stroke: #038048; stroke-width: 1.0;"/><text fill="#000000" font-family="sans-serif" font-size="11" lengthAdjust="spacingAndGlyphs" text-decoration="underline" textLength="141" x="58" y="656.0398">or(Condition...): Condition</text><ellipse cx="49" cy="665.3602" fill="#84BE84" rx="3" ry="3" style="stroke: #038048; stroke-width: 1.0;"/><text fill="#000000" font-family="sans-serif" font-size="11" lengthAdjust="spacingAndGlyphs" text-decoration="underline" textLength="149" x="58" y="668.9949">and(Condition...): Condition</text><ellipse cx="49" cy="678.3152" fill="#84BE84" rx="3" ry="3" style="stroke: #038048; stroke-width: 1.0;"/><text fill="#000000" font-family="sans-serif" font-size="11" lengthAdjust="spacingAndGlyphs" text-decoration="underline" textLength="198" x="58" y="681.95">xor(Condition, Condition): Condition</text><ellipse cx="49" cy="691.2703" fill="#84BE84" rx="3" ry="3" style="stroke: #038048; stroke-width: 1.0;"/><text fill="#000000" font-family="sans-serif" font-size="11" lengthAdjust="spacingAndGlyphs" text-decoration="underline" textLength="138" x="58" y="694.9051">not(Condition): Condition</text><ellipse cx="49" cy="704.2254" fill="#84BE84" rx="3" ry="3" style="stroke: #038048; stroke-width: 1.0;"/><text fill="#000000" font-family="sans-serif" font-size="11" lengthAdjust="spacingAndGlyphs" textLength="91" x="58" y="707.8602">isTrue(): boolean</text><ellipse cx="49" cy="717.1805" fill="#84BE84" rx="3" ry="3" style="stroke: #038048; stroke-width: 1.0;"/><text fill="#000000" font-family="sans-serif" font-size="11" lengthAdjust="spacingAndGlyphs" textLength="127" x="58" y="720.8152">evaluate(Time): boolean</text><ellipse cx="49" cy="730.1355" fill="#84BE84" rx="3" ry="3" style="stroke: #038048; stroke-width: 1.0;"/><text fill="#000000" font-family="sans-serif" font-size="11" lengthAdjust="spacingAndGlyphs" textLength="144" x="58" y="733.7703">setEvaluatedTo(Time): void</text><ellipse cx="49" cy="743.0906" fill="#84BE84" rx="3" ry="3" style="stroke: #038048; stroke-width: 1.0;"/><text fill="#000000" font-family="sans-serif" font-size="11" lengthAdjust="spacingAndGlyphs" textLength="195" x="58" y="746.7254">update(Resource, Comparable): void</text><ellipse cx="49" cy="756.0457" fill="#84BE84" rx="3" ry="3" style="stroke: #038048; stroke-width: 1.0;"/><text fill="#000000" font-family="sans-serif" font-size="11" lengthAdjust="spacingAndGlyphs" textLength="269" x="58" y="759.6805">getAllResourcesRecursively(): Set&lt;Resource&lt;?&gt;&gt;</text></a><!--MD5=[998854226f472d515fafac53b4b44a3b]
class gov.nasa.jpl.scheduler.ConditionNodeType--><a href="ConditionNodeType.html" target="_top" title="ConditionNodeType.html" xlink:actuate="onRequest" xlink:href="ConditionNodeType.html" xlink:show="new" xlink:title="ConditionNodeType.html" xlink:type="simple"><rect fill="#FEFECE" filter="url(#f1b8jlchbj1hoq)" height="112.7754" id="gov.nasa.jpl.scheduler.ConditionNodeType" style="stroke: #A80036; stroke-width: 1.5;" width="146" x="385" y="620.84"/><ellipse cx="400" cy="636.84" fill="#EB937F" rx="11" ry="11" style="stroke: #A80036; stroke-width: 1.0;"/><path d="M403.6143,643.34 L395.8945,643.34 L395.8945,630.9469 L403.6143,630.9469 L403.6143,633.1051 L398.3433,633.1051 L398.3433,635.778 L403.1162,635.778 L403.1162,637.9362 L398.3433,637.9362 L398.3433,641.1818 L403.6143,641.1818 Z "/><text fill="#000000" font-family="sans-serif" font-size="12" lengthAdjust="spacingAndGlyphs" textLength="114" x="414" y="641.3752">ConditionNodeType</text><line style="stroke: #A80036; stroke-width: 1.5;" x1="386" x2="530" y1="652.84" y2="652.84"/><ellipse cx="396" cy="663.84" fill="none" rx="3" ry="3" style="stroke: #038048; stroke-width: 1.0;"/><text fill="#000000" font-family="sans-serif" font-size="11" lengthAdjust="spacingAndGlyphs" text-decoration="underline" textLength="26" x="405" y="667.4748">BASE</text><ellipse cx="396" cy="676.7951" fill="none" rx="3" ry="3" style="stroke: #038048; stroke-width: 1.0;"/><text fill="#000000" font-family="sans-serif" font-size="11" lengthAdjust="spacingAndGlyphs" text-decoration="underline" textLength="24" x="405" y="680.4298">AND</text><ellipse cx="396" cy="689.7502" fill="none" rx="3" ry="3" style="stroke: #038048; stroke-width: 1.0;"/><text fill="#000000" font-family="sans-serif" font-size="11" lengthAdjust="spacingAndGlyphs" text-decoration="underline" textLength="16" x="405" y="693.3849">OR</text><ellipse cx="396" cy="702.7052" fill="none" rx="3" ry="3" style="stroke: #038048; stroke-width: 1.0;"/><text fill="#000000" font-family="sans-serif" font-size="11" lengthAdjust="spacingAndGlyphs" text-decoration="underline" textLength="23" x="405" y="706.34">XOR</text><ellipse cx="396" cy="715.6603" fill="none" rx="3" ry="3" style="stroke: #038048; stroke-width: 1.0;"/><text fill="#000000" font-family="sans-serif" font-size="11" lengthAdjust="spacingAndGlyphs" text-decoration="underline" textLength="24" x="405" y="719.2951">NOT</text><line style="stroke: #A80036; stroke-width: 1.5;" x1="386" x2="530" y1="725.6154" y2="725.6154"/></a><!--MD5=[008d82c49f85b4d489e041917c99c847]
class java.lang.Comparable--><a href="https://docs.oracle.com/en/java/javase/13/docs/api/java.base/java/lang/Comparable.html?is-external=true" target="_top" title="https://docs.oracle.com/en/java/javase/13/docs/api/java.base/java/lang/Comparable.html?is-external=true" xlink:actuate="onRequest" xlink:href="https://docs.oracle.com/en/java/javase/13/docs/api/java.base/java/lang/Comparable.html?is-external=true" xlink:show="new" xlink:title="https://docs.oracle.com/en/java/javase/13/docs/api/java.base/java/lang/Comparable.html?is-external=true" xlink:type="simple"><rect fill="#FEFECE" filter="url(#f1b8jlchbj1hoq)" height="60.9551" id="java.lang.Comparable" style="stroke: #A80036; stroke-width: 1.5;" width="122" x="543" y="59.48"/><ellipse cx="561.15" cy="75.48" fill="#B4A7E5" rx="11" ry="11" style="stroke: #A80036; stroke-width: 1.0;"/><path d="M557.5777,71.7451 L557.5777,69.5869 L564.9571,69.5869 L564.9571,71.7451 L562.4918,71.7451 L562.4918,79.8218 L564.9571,79.8218 L564.9571,81.98 L557.5777,81.98 L557.5777,79.8218 L560.0431,79.8218 L560.0431,71.7451 Z "/><text fill="#000000" font-family="sans-serif" font-size="12" font-style="italic" lengthAdjust="spacingAndGlyphs" textLength="71" x="575.85" y="80.0152">Comparable</text><rect fill="#FFFFFF" height="16.1328" style="stroke: #000000; stroke-width: 1.0; stroke-dasharray: 2.0,2.0;" width="10" x="658" y="56.48"/><text fill="#000000" font-family="sans-serif" font-size="12" font-style="italic" lengthAdjust="spacingAndGlyphs" textLength="8" x="659" y="69.0816">T</text><line style="stroke: #A80036; stroke-width: 1.5;" x1="544" x2="664" y1="91.48" y2="91.48"/><line style="stroke: #A80036; stroke-width: 1.5;" x1="544" x2="664" y1="99.48" y2="99.48"/><ellipse cx="554" cy="110.48" fill="#84BE84" rx="3" ry="3" style="stroke: #038048; stroke-width: 1.0;"/><text fill="#000000" font-family="sans-serif" font-size="11" font-style="italic" lengthAdjust="spacingAndGlyphs" textLength="96" x="563" y="114.1148">compareTo(T): int</text></a><!--MD5=[5459831a26b40e383bf0f1047d28f911]
reverse link java.lang.Comparable to gov.nasa.jpl.scheduler.Window--><path d="M604,142.2 C604,157.87 604,176.03 604,195.05 " fill="none" id="java.lang.Comparable&lt;-gov.nasa.jpl.scheduler.Window" style="stroke: #A80036; stroke-width: 1.0; stroke-dasharray: 7.0,7.0;"/><polygon fill="none" points="597,142.4,604,122.4,611,142.4,597,142.4" style="stroke: #A80036; stroke-width: 1.0;"/><!--MD5=[f2c112920802131427560aa3c5c4b4ab]
link gov.nasa.jpl.scheduler.Scheduler to gov.nasa.jpl.scheduler.CompareToValues--><!--MD5=[e16c4262eb18fe28684991e8f39029c3]
link gov.nasa.jpl.scheduler.Scheduler to gov.nasa.jpl.scheduler.Condition--><!--MD5=[bad1903c05fe11dca39a1643a271a075]
link gov.nasa.jpl.scheduler.Condition to gov.nasa.jpl.scheduler.ConditionNodeType--><text fill="#888888" font-family="sans-serif" font-size="10" lengthAdjust="spacingAndGlyphs" textLength="182" x="325.5" y="817.668">UMLDoclet 2.0.8, PlantUML 1.2020.01</text><!--MD5=[95bc70ce90c64df827991283cf6d6cc0]
@startuml
    namespace gov.nasa.jpl.scheduler {

        class Window [[Window.html]] {
            +Window(Time, Time)
            +Window(Time, Time, String)
            +getStart(): Time
            +getEnd(): Time
            +getType(): String
            +hasEnd(): boolean
            +getDuration(): Duration
            +getMidpoint(): Time
            +contains(Time): boolean
            +contains(Window): boolean
            +intersects(Window): boolean
            +hasLengthZero(): boolean
            +compareTo(Window): int
            {static} +sum(Window[]): Duration
            {static} +getWindows(Condition, Time, Time): Window[]
            {static} +interpWindows(Condition, Time, Time): Window[]
            +getIntersectingWindowInList(NavigableSet<Window>): Window
            {static} +and(Window[], Window[]): Window[]
            {static} +or(Window[], Window[]): Window[]
            {static} +xor(Window[], Window[]): Window[]
            {static} +not(Window[], Time, Time): Window[]
            {static} +merge(Window[], Duration): Window[]
        }

        interface Scheduler [[Scheduler.html]] {
            {abstract} +setCondition(): Condition
            {abstract} +dispatchOnCondition(): void
        }

        enum CompareToValues [[CompareToValues.html]] {
            {static} +LESSTHAN
            {static} +EQUALTO
            {static} +GREATERTHAN
            +toInt(): int
        }

        class Condition [[Condition.html]] {
            +Condition(Resource, CompareToValues, Comparable)
            {static} +or(Condition...): Condition
            {static} +and(Condition...): Condition
            {static} +xor(Condition, Condition): Condition
            {static} +not(Condition): Condition
            +isTrue(): boolean
            +evaluate(Time): boolean
            +setEvaluatedTo(Time): void
            +update(Resource, Comparable): void
            +getAllResourcesRecursively(): Set<Resource<?>>
        }

        enum ConditionNodeType [[ConditionNodeType.html]] {
            {static} +BASE
            {static} +AND
            {static} +OR
            {static} +XOR
            {static} +NOT
        }

        java.lang.Comparable <|.. Window
    }

    namespace java.lang {
        interface Comparable<T> [[https://docs.oracle.com/en/java/javase/13/docs/api/java.base/java/lang/Comparable.html?is-external=true]] {
            {abstract} +compareTo(T): int
        }
    }

    center footer UMLDoclet 2.0.8, PlantUML 1.2020.01
@enduml

PlantUML version 1.2020.01(Sun Feb 16 09:40:32 PST 2020)
(APACHE source distribution)
Java Runtime: OpenJDK Runtime Environment
JVM: OpenJDK 64-Bit Server VM
Java Version: 17.0.6+10
Operating System: Mac OS X
Default Encoding: UTF-8
Language: en
Country: US
--></g></svg>