<?xml version="1.0" encoding="UTF-8" standalone="no"?><svg xmlns="http://www.w3.org/2000/svg" xmlns:xlink="http://www.w3.org/1999/xlink" contentScriptType="application/ecmascript" contentStyleType="text/css" height="721px" preserveAspectRatio="none" style="width:1223px;height:721px;" version="1.1" viewBox="0 0 1223 721" width="1223px" zoomAndPan="magnify"><defs><filter height="300%" id="f14gryxcqezh8j" width="300%" x="-1" y="-1"><feGaussianBlur result="blurOut" stdDeviation="2.0"/><feColorMatrix in="blurOut" result="blurOut2" type="matrix" values="0 0 0 0 0 0 0 0 0 0 0 0 0 0 0 0 0 0 .4 0"/><feOffset dx="4.0" dy="4.0" in="blurOut2" result="blurOut3"/><feBlend in="SourceGraphic" in2="blurOut3" mode="normal"/></filter></defs><g><!--MD5=[300fc444106e7512e8d150a68bdf4b1d]
cluster gov.nasa.jpl.sequencing--><polygon fill="#FFFFFF" filter="url(#f14gryxcqezh8j)" points="22,24.18,196,24.18,203,46.6683,1201,46.6683,1201,672,22,672,22,24.18" style="stroke: #000000; stroke-width: 1.5;"/><line style="stroke: #000000; stroke-width: 1.5;" x1="22" x2="203" y1="46.6683" y2="46.6683"/><text fill="#000000" font-family="sans-serif" font-size="14" font-weight="bold" lengthAdjust="spacingAndGlyphs" textLength="168" x="26" y="39.7152">gov.nasa.jpl.sequencing</text><!--MD5=[bcb6f485c9cbecd007ebd29171b363db]
class gov.nasa.jpl.sequencing.Sequence--><a href="Sequence.html" target="_top" title="Sequence.html" xlink:actuate="onRequest" xlink:href="Sequence.html" xlink:show="new" xlink:title="Sequence.html" xlink:type="simple"><rect fill="#FEFECE" filter="url(#f14gryxcqezh8j)" height="190.5059" id="gov.nasa.jpl.sequencing.Sequence" style="stroke: #A80036; stroke-width: 1.5;" width="287" x="288.5" y="256"/><ellipse cx="400.25" cy="272" fill="#A9DCDF" rx="11" ry="11" style="stroke: #A80036; stroke-width: 1.0;"/><path d="M400.1133,267.3481 L398.9595,272.4199 L401.2754,272.4199 Z M398.6191,265.1069 L401.6157,265.1069 L404.9609,277.5 L402.5122,277.5 L401.7485,274.437 L398.4697,274.437 L397.7227,277.5 L395.2739,277.5 Z "/><text fill="#000000" font-family="sans-serif" font-size="12" font-style="italic" lengthAdjust="spacingAndGlyphs" textLength="55" x="420.75" y="276.5352">Sequence</text><line style="stroke: #A80036; stroke-width: 1.5;" x1="289.5" x2="574.5" y1="288" y2="288"/><polygon fill="none" points="299.5,294,303.5,298,299.5,302,295.5,298" style="stroke: #B38D22; stroke-width: 1.0;"/><text fill="#000000" font-family="sans-serif" font-size="11" lengthAdjust="spacingAndGlyphs" textLength="67" x="308.5" y="302.6348">seqid: String</text><polygon fill="none" points="299.5,306.9551,303.5,310.9551,299.5,314.9551,295.5,310.9551" style="stroke: #B38D22; stroke-width: 1.0;"/><text fill="#000000" font-family="sans-serif" font-size="11" lengthAdjust="spacingAndGlyphs" textLength="134" x="308.5" y="315.5898">sequenceStartTime: Time</text><line style="stroke: #A80036; stroke-width: 1.5;" x1="289.5" x2="574.5" y1="321.9102" y2="321.9102"/><ellipse cx="299.5" cy="332.9102" fill="#84BE84" rx="3" ry="3" style="stroke: #038048; stroke-width: 1.0;"/><text fill="#000000" font-family="sans-serif" font-size="11" lengthAdjust="spacingAndGlyphs" textLength="123" x="308.5" y="336.5449">Sequence(String, Time)</text><ellipse cx="299.5" cy="345.8652" fill="#84BE84" rx="3" ry="3" style="stroke: #038048; stroke-width: 1.0;"/><text fill="#000000" font-family="sans-serif" font-size="11" lengthAdjust="spacingAndGlyphs" textLength="92" x="308.5" y="349.5">getSeqid(): String</text><ellipse cx="299.5" cy="358.8203" fill="#84BE84" rx="3" ry="3" style="stroke: #038048; stroke-width: 1.0;"/><text fill="#000000" font-family="sans-serif" font-size="11" font-style="italic" lengthAdjust="spacingAndGlyphs" textLength="144" x="308.5" y="362.4551">getSequenceName(): String</text><ellipse cx="299.5" cy="371.7754" fill="#84BE84" rx="3" ry="3" style="stroke: #038048; stroke-width: 1.0;"/><text fill="#000000" font-family="sans-serif" font-size="11" lengthAdjust="spacingAndGlyphs" textLength="82" x="308.5" y="375.4102">getStart(): Time</text><ellipse cx="299.5" cy="384.7305" fill="#84BE84" rx="3" ry="3" style="stroke: #038048; stroke-width: 1.0;"/><text fill="#000000" font-family="sans-serif" font-size="11" font-style="italic" lengthAdjust="spacingAndGlyphs" textLength="77" x="308.5" y="388.3652">getEnd(): Time</text><polygon fill="#FFFF44" points="299.5,392.6855,303.5,396.6855,299.5,400.6855,295.5,396.6855" style="stroke: #B38D22; stroke-width: 1.0;"/><text fill="#000000" font-family="sans-serif" font-size="11" font-style="italic" lengthAdjust="spacingAndGlyphs" textLength="161" x="308.5" y="401.3203">writeSequenceHeader(): String</text><polygon fill="#FFFF44" points="299.5,405.6406,303.5,409.6406,299.5,413.6406,295.5,409.6406" style="stroke: #B38D22; stroke-width: 1.0;"/><text fill="#000000" font-family="sans-serif" font-size="11" font-style="italic" lengthAdjust="spacingAndGlyphs" textLength="158" x="308.5" y="414.2754">writeSequenceFooter(): String</text><ellipse cx="299.5" cy="423.5957" fill="#84BE84" rx="3" ry="3" style="stroke: #038048; stroke-width: 1.0;"/><text fill="#000000" font-family="sans-serif" font-size="11" lengthAdjust="spacingAndGlyphs" textLength="149" x="308.5" y="427.2305">writeSequenceBody(): String</text><ellipse cx="299.5" cy="436.5508" fill="#84BE84" rx="3" ry="3" style="stroke: #038048; stroke-width: 1.0;"/><text fill="#000000" font-family="sans-serif" font-size="11" lengthAdjust="spacingAndGlyphs" textLength="261" x="308.5" y="440.1855">addSequenceFragment(SequenceFragment): void</text></a><!--MD5=[a1db57d52d294da80bc07860428d1ae8]
class gov.nasa.jpl.sequencing.SequenceEngine--><a href="SequenceEngine.html" target="_top" title="SequenceEngine.html" xlink:actuate="onRequest" xlink:href="SequenceEngine.html" xlink:show="new" xlink:title="SequenceEngine.html" xlink:type="simple"><rect fill="#FEFECE" filter="url(#f14gryxcqezh8j)" height="60.9551" id="gov.nasa.jpl.sequencing.SequenceEngine" style="stroke: #A80036; stroke-width: 1.5;" width="125" x="37.5" y="78.61"/><ellipse cx="52.5" cy="94.61" fill="#ADD1B2" rx="11" ry="11" style="stroke: #A80036; stroke-width: 1.0;"/><path d="M54.9731,100.7531 Q54.3921,101.0519 53.7529,101.2013 Q53.1138,101.3507 52.4082,101.3507 Q49.9014,101.3507 48.5815,99.6989 Q47.2617,98.047 47.2617,94.9259 Q47.2617,91.7965 48.5815,90.1447 Q49.9014,88.4928 52.4082,88.4928 Q53.1138,88.4928 53.7612,88.6422 Q54.4087,88.7916 54.9731,89.0905 L54.9731,91.8131 Q54.3423,91.2321 53.7488,90.9623 Q53.1553,90.6925 52.5244,90.6925 Q51.1797,90.6925 50.4949,91.7592 Q49.8101,92.8258 49.8101,94.9259 Q49.8101,97.0177 50.4949,98.0844 Q51.1797,99.151 52.5244,99.151 Q53.1553,99.151 53.7488,98.8812 Q54.3423,98.6115 54.9731,98.0304 Z "/><text fill="#000000" font-family="sans-serif" font-size="12" lengthAdjust="spacingAndGlyphs" textLength="93" x="66.5" y="99.1452">SequenceEngine</text><line style="stroke: #A80036; stroke-width: 1.5;" x1="38.5" x2="161.5" y1="110.61" y2="110.61"/><line style="stroke: #A80036; stroke-width: 1.5;" x1="38.5" x2="161.5" y1="118.61" y2="118.61"/><ellipse cx="48.5" cy="129.61" fill="#84BE84" rx="3" ry="3" style="stroke: #038048; stroke-width: 1.0;"/><text fill="#000000" font-family="sans-serif" font-size="11" lengthAdjust="spacingAndGlyphs" textLength="88" x="57.5" y="133.2448">sequence(): void</text></a><!--MD5=[2f3ac6fd4240b393a90fa74c9cc87862]
class gov.nasa.jpl.sequencing.SequenceFragment--><a href="SequenceFragment.html" target="_top" title="SequenceFragment.html" xlink:actuate="onRequest" xlink:href="SequenceFragment.html" xlink:show="new" xlink:title="SequenceFragment.html" xlink:type="simple"><rect fill="#FEFECE" filter="url(#f14gryxcqezh8j)" height="73.9102" id="gov.nasa.jpl.sequencing.SequenceFragment" style="stroke: #A80036; stroke-width: 1.5;" width="208" x="328" y="563"/><ellipse cx="373.25" cy="579" fill="#B4A7E5" rx="11" ry="11" style="stroke: #A80036; stroke-width: 1.0;"/><path d="M369.6777,575.2651 L369.6777,573.1069 L377.0571,573.1069 L377.0571,575.2651 L374.5918,575.2651 L374.5918,583.3418 L377.0571,583.3418 L377.0571,585.5 L369.6777,585.5 L369.6777,583.3418 L372.1431,583.3418 L372.1431,575.2651 Z "/><text fill="#000000" font-family="sans-serif" font-size="12" font-style="italic" lengthAdjust="spacingAndGlyphs" textLength="109" x="393.75" y="583.5352">SequenceFragment</text><line style="stroke: #A80036; stroke-width: 1.5;" x1="329" x2="535" y1="595" y2="595"/><line style="stroke: #A80036; stroke-width: 1.5;" x1="329" x2="535" y1="603" y2="603"/><ellipse cx="339" cy="614" fill="#84BE84" rx="3" ry="3" style="stroke: #038048; stroke-width: 1.0;"/><text fill="#000000" font-family="sans-serif" font-size="11" font-style="italic" lengthAdjust="spacingAndGlyphs" textLength="178" x="348" y="617.6348">toSequenceString(Integer): String</text><ellipse cx="339" cy="626.9551" fill="#84BE84" rx="3" ry="3" style="stroke: #038048; stroke-width: 1.0;"/><text fill="#000000" font-family="sans-serif" font-size="11" font-style="italic" lengthAdjust="spacingAndGlyphs" textLength="182" x="348" y="630.5898">getAbsoluteStartTime(Time): Time</text></a><!--MD5=[98b25b3fbbd8299934bf825a86918d55]
class gov.nasa.jpl.sequencing.SequenceMap--><a href="SequenceMap.html" target="_top" title="SequenceMap.html" xlink:actuate="onRequest" xlink:href="SequenceMap.html" xlink:show="new" xlink:title="SequenceMap.html" xlink:type="simple"><rect fill="#FEFECE" filter="url(#f14gryxcqezh8j)" height="86.8652" id="gov.nasa.jpl.sequencing.SequenceMap" style="stroke: #A80036; stroke-width: 1.5;" width="325" x="269.5" y="65.66"/><ellipse cx="387.75" cy="81.66" fill="#ADD1B2" rx="11" ry="11" style="stroke: #A80036; stroke-width: 1.0;"/><path d="M390.2231,87.8031 Q389.6421,88.1019 389.0029,88.2513 Q388.3638,88.4007 387.6582,88.4007 Q385.1514,88.4007 383.8315,86.7489 Q382.5117,85.097 382.5117,81.9759 Q382.5117,78.8465 383.8315,77.1947 Q385.1514,75.5428 387.6582,75.5428 Q388.3638,75.5428 389.0112,75.6922 Q389.6587,75.8416 390.2231,76.1405 L390.2231,78.8631 Q389.5923,78.2821 388.9988,78.0123 Q388.4053,77.7425 387.7744,77.7425 Q386.4297,77.7425 385.7449,78.8092 Q385.0601,79.8758 385.0601,81.9759 Q385.0601,84.0677 385.7449,85.1344 Q386.4297,86.201 387.7744,86.201 Q388.4053,86.201 388.9988,85.9312 Q389.5923,85.6615 390.2231,85.0804 Z "/><text fill="#000000" font-family="sans-serif" font-size="12" lengthAdjust="spacingAndGlyphs" textLength="80" x="408.25" y="86.1952">SequenceMap</text><line style="stroke: #A80036; stroke-width: 1.5;" x1="270.5" x2="593.5" y1="97.66" y2="97.66"/><line style="stroke: #A80036; stroke-width: 1.5;" x1="270.5" x2="593.5" y1="105.66" y2="105.66"/><ellipse cx="280.5" cy="116.66" fill="#84BE84" rx="3" ry="3" style="stroke: #038048; stroke-width: 1.0;"/><text fill="#000000" font-family="sans-serif" font-size="11" lengthAdjust="spacingAndGlyphs" textLength="299" x="289.5" y="120.2948">addSequenceFragment(SequenceFragment, String): void</text><ellipse cx="280.5" cy="129.6151" fill="#84BE84" rx="3" ry="3" style="stroke: #038048; stroke-width: 1.0;"/><text fill="#000000" font-family="sans-serif" font-size="11" lengthAdjust="spacingAndGlyphs" textLength="159" x="289.5" y="133.2498">addSequence(Sequence): void</text><ellipse cx="280.5" cy="142.5702" fill="#84BE84" rx="3" ry="3" style="stroke: #038048; stroke-width: 1.0;"/><text fill="#000000" font-family="sans-serif" font-size="11" lengthAdjust="spacingAndGlyphs" textLength="121" x="289.5" y="146.2049">resetSequences(): void</text></a><!--MD5=[e280a090fdae781d6683939d23f633d7]
class gov.nasa.jpl.sequencing.SequenceFormattingFunctions--><a href="SequenceFormattingFunctions.html" target="_top" title="SequenceFormattingFunctions.html" xlink:actuate="onRequest" xlink:href="SequenceFormattingFunctions.html" xlink:show="new" xlink:title="SequenceFormattingFunctions.html" xlink:type="simple"><rect fill="#FEFECE" filter="url(#f14gryxcqezh8j)" height="73.9102" id="gov.nasa.jpl.sequencing.SequenceFormattingFunctions" style="stroke: #A80036; stroke-width: 1.5;" width="201" x="744.5" y="72.13"/><ellipse cx="759.5" cy="88.13" fill="#ADD1B2" rx="11" ry="11" style="stroke: #A80036; stroke-width: 1.0;"/><path d="M761.9731,94.2731 Q761.3921,94.5719 760.7529,94.7213 Q760.1138,94.8707 759.4082,94.8707 Q756.9014,94.8707 755.5815,93.2189 Q754.2617,91.567 754.2617,88.4459 Q754.2617,85.3165 755.5815,83.6647 Q756.9014,82.0128 759.4082,82.0128 Q760.1138,82.0128 760.7612,82.1622 Q761.4087,82.3116 761.9731,82.6105 L761.9731,85.3331 Q761.3423,84.7521 760.7488,84.4823 Q760.1553,84.2125 759.5244,84.2125 Q758.1797,84.2125 757.4949,85.2792 Q756.8101,86.3458 756.8101,88.4459 Q756.8101,90.5377 757.4949,91.6044 Q758.1797,92.671 759.5244,92.671 Q760.1553,92.671 760.7488,92.4012 Q761.3423,92.1315 761.9731,91.5504 Z "/><text fill="#000000" font-family="sans-serif" font-size="12" lengthAdjust="spacingAndGlyphs" textLength="169" x="773.5" y="92.6652">SequenceFormattingFunctions</text><line style="stroke: #A80036; stroke-width: 1.5;" x1="745.5" x2="944.5" y1="104.13" y2="104.13"/><line style="stroke: #A80036; stroke-width: 1.5;" x1="745.5" x2="944.5" y1="112.13" y2="112.13"/><ellipse cx="755.5" cy="123.13" fill="#84BE84" rx="3" ry="3" style="stroke: #038048; stroke-width: 1.0;"/><text fill="#000000" font-family="sans-serif" font-size="11" lengthAdjust="spacingAndGlyphs" text-decoration="underline" textLength="167" x="764.5" y="126.7648">multipleIndents(Integer): String</text><ellipse cx="755.5" cy="136.0851" fill="#84BE84" rx="3" ry="3" style="stroke: #038048; stroke-width: 1.0;"/><text fill="#000000" font-family="sans-serif" font-size="11" lengthAdjust="spacingAndGlyphs" text-decoration="underline" textLength="137" x="764.5" y="139.7198">addQuotes(String): String</text></a><!--MD5=[657256795f208d8e083bb68c6d6926ed]
class gov.nasa.jpl.sequencing.SequenceWriter--><a href="SequenceWriter.html" target="_top" title="SequenceWriter.html" xlink:actuate="onRequest" xlink:href="SequenceWriter.html" xlink:show="new" xlink:title="SequenceWriter.html" xlink:type="simple"><rect fill="#FEFECE" filter="url(#f14gryxcqezh8j)" height="99.8203" id="gov.nasa.jpl.sequencing.SequenceWriter" style="stroke: #A80036; stroke-width: 1.5;" width="204" x="981" y="59.18"/><ellipse cx="1034.25" cy="75.18" fill="#ADD1B2" rx="11" ry="11" style="stroke: #A80036; stroke-width: 1.0;"/><path d="M1036.7231,81.3231 Q1036.1421,81.6219 1035.5029,81.7713 Q1034.8638,81.9207 1034.1582,81.9207 Q1031.6514,81.9207 1030.3315,80.2689 Q1029.0117,78.617 1029.0117,75.4959 Q1029.0117,72.3665 1030.3315,70.7147 Q1031.6514,69.0628 1034.1582,69.0628 Q1034.8638,69.0628 1035.5112,69.2122 Q1036.1587,69.3616 1036.7231,69.6605 L1036.7231,72.3831 Q1036.0923,71.8021 1035.4988,71.5323 Q1034.9053,71.2625 1034.2744,71.2625 Q1032.9297,71.2625 1032.2449,72.3292 Q1031.5601,73.3958 1031.5601,75.4959 Q1031.5601,77.5877 1032.2449,78.6544 Q1032.9297,79.721 1034.2744,79.721 Q1034.9053,79.721 1035.4988,79.4512 Q1036.0923,79.1815 1036.7231,78.6004 Z "/><text fill="#000000" font-family="sans-serif" font-size="12" lengthAdjust="spacingAndGlyphs" textLength="89" x="1054.75" y="79.7152">SequenceWriter</text><line style="stroke: #A80036; stroke-width: 1.5;" x1="982" x2="1184" y1="91.18" y2="91.18"/><polygon fill="none" points="992,97.18,996,101.18,992,105.18,988,101.18" style="stroke: #B38D22; stroke-width: 1.0;"/><text fill="#000000" font-family="sans-serif" font-size="11" lengthAdjust="spacingAndGlyphs" text-decoration="underline" textLength="94" x="1001" y="105.8148">writer: PrintWriter</text><line style="stroke: #A80036; stroke-width: 1.5;" x1="982" x2="1184" y1="112.1351" y2="112.1351"/><ellipse cx="992" cy="123.1351" fill="#84BE84" rx="3" ry="3" style="stroke: #038048; stroke-width: 1.0;"/><text fill="#000000" font-family="sans-serif" font-size="11" lengthAdjust="spacingAndGlyphs" text-decoration="underline" textLength="120" x="1001" y="126.7698">createFile(String): void</text><ellipse cx="992" cy="136.0902" fill="#84BE84" rx="3" ry="3" style="stroke: #038048; stroke-width: 1.0;"/><text fill="#000000" font-family="sans-serif" font-size="11" lengthAdjust="spacingAndGlyphs" text-decoration="underline" textLength="83" x="1001" y="139.7249">closeFile(): void</text><ellipse cx="992" cy="149.0452" fill="#84BE84" rx="3" ry="3" style="stroke: #038048; stroke-width: 1.0;"/><text fill="#000000" font-family="sans-serif" font-size="11" lengthAdjust="spacingAndGlyphs" text-decoration="underline" textLength="178" x="1001" y="152.68">writeSequences(Time, Time): void</text></a><!--MD5=[110cb235923acc0aceeff77ba8bf09c1]
link gov.nasa.jpl.sequencing.Sequence to gov.nasa.jpl.sequencing.SequenceFragment--><path d="M432,445.89 C432,484.25 432,526.64 432,556.99 " fill="none" id="gov.nasa.jpl.sequencing.Sequence-&gt;gov.nasa.jpl.sequencing.SequenceFragment" style="stroke: #A80036; stroke-width: 1.0;"/><polygon fill="#A80036" points="432,561.77,436,552.77,432,556.77,428,552.77,432,561.77" style="stroke: #A80036; stroke-width: 1.0;"/><text fill="#000000" font-family="sans-serif" font-size="13" lengthAdjust="spacingAndGlyphs" textLength="64" x="433" y="509.5684">fragments</text><text fill="#000000" font-family="sans-serif" font-size="13" lengthAdjust="spacingAndGlyphs" textLength="6" x="425.4094" y="552.182">*</text><!--MD5=[f6c8a5366e5883fac35fa3e9898f69c6]
link gov.nasa.jpl.sequencing.SequenceEngine to gov.nasa.jpl.sequencing.SequenceEngine--><path d="M162.83,92.53 C182.25,92.86 197.5,98.38 197.5,109.09 C197.5,118.62 185.4,124.05 169.04,125.35 " fill="none" id="gov.nasa.jpl.sequencing.SequenceEngine-&gt;gov.nasa.jpl.sequencing.SequenceEngine" style="stroke: #A80036; stroke-width: 1.0;"/><polygon fill="#A80036" points="164.34,125.58,173.5235,129.1387,169.3341,125.3374,173.1353,121.1481,164.34,125.58" style="stroke: #A80036; stroke-width: 1.0;"/><text fill="#000000" font-family="sans-serif" font-size="13" lengthAdjust="spacingAndGlyphs" textLength="42" x="203.5" y="114.1584">engine</text><!--MD5=[60064e07305834cf6511b756ad8767cd]
link gov.nasa.jpl.sequencing.SequenceMap to gov.nasa.jpl.sequencing.SequenceMap--><path d="M594.71,94.56 C615.66,97.08 629.5,101.92 629.5,109.09 C629.5,115.53 618.33,120.09 600.87,122.78 " fill="none" id="gov.nasa.jpl.sequencing.SequenceMap-&gt;gov.nasa.jpl.sequencing.SequenceMap" style="stroke: #A80036; stroke-width: 1.0;"/><polygon fill="#A80036" points="596.21,123.41,605.6654,126.1658,601.1648,122.7389,604.5917,118.2382,596.21,123.41" style="stroke: #A80036; stroke-width: 1.0;"/><text fill="#000000" font-family="sans-serif" font-size="13" lengthAdjust="spacingAndGlyphs" textLength="85" x="635.5" y="114.1584">sequenceMap</text><!--MD5=[07d26c84120d6cab15c7cf67d1d0c539]
link gov.nasa.jpl.sequencing.SequenceMap to gov.nasa.jpl.sequencing.Sequence--><path d="M432,152.98 C432,179.94 432,215.91 432,249.74 " fill="none" id="gov.nasa.jpl.sequencing.SequenceMap-&gt;gov.nasa.jpl.sequencing.Sequence" style="stroke: #A80036; stroke-width: 1.0;"/><polygon fill="#A80036" points="432,254.51,436,245.51,432,249.51,428,245.51,432,254.51" style="stroke: #A80036; stroke-width: 1.0;"/><text fill="#000000" font-family="sans-serif" font-size="13" lengthAdjust="spacingAndGlyphs" textLength="81" x="433" y="202.5684">allSequences</text><text fill="#000000" font-family="sans-serif" font-size="13" lengthAdjust="spacingAndGlyphs" textLength="6" x="425.7609" y="245.4142">*</text><text fill="#888888" font-family="sans-serif" font-size="10" lengthAdjust="spacingAndGlyphs" textLength="182" x="526.5" y="707.668">UMLDoclet 2.0.8, PlantUML 1.2020.01</text><!--MD5=[d56bf6d6822d4e7d0f7b0258cfffe422]
@startuml
    namespace gov.nasa.jpl.sequencing {

        abstract class Sequence [[Sequence.html]] {
            #seqid: String
            #sequenceStartTime: Time
            +Sequence(String, Time)
            +getSeqid(): String
            {abstract} +getSequenceName(): String
            +getStart(): Time
            {abstract} +getEnd(): Time
            {abstract} #writeSequenceHeader(): String
            {abstract} #writeSequenceFooter(): String
            +writeSequenceBody(): String
            +addSequenceFragment(SequenceFragment): void
        }

        class SequenceEngine [[SequenceEngine.html]] {
            +sequence(): void
        }

        interface SequenceFragment [[SequenceFragment.html]] {
            {abstract} +toSequenceString(Integer): String
            {abstract} +getAbsoluteStartTime(Time): Time
        }

        class SequenceMap [[SequenceMap.html]] {
            +addSequenceFragment(SequenceFragment, String): void
            +addSequence(Sequence): void
            +resetSequences(): void
        }

        class SequenceFormattingFunctions [[SequenceFormattingFunctions.html]] {
            {static} +multipleIndents(Integer): String
            {static} +addQuotes(String): String
        }

        class SequenceWriter [[SequenceWriter.html]] {
            {static} #writer: PrintWriter
            {static} +createFile(String): void
            {static} +closeFile(): void
            {static} +writeSequences(Time, Time): void
        }

        Sequence - -> "*" SequenceFragment: fragments
        SequenceEngine - -> SequenceEngine: engine
        SequenceMap - -> SequenceMap: sequenceMap
        SequenceMap - -> "*" Sequence: allSequences
    }

    center footer UMLDoclet 2.0.8, PlantUML 1.2020.01
@enduml

PlantUML version 1.2020.01(Sun Feb 16 09:40:32 PST 2020)
(APACHE source distribution)
Java Runtime: OpenJDK Runtime Environment
JVM: OpenJDK 64-Bit Server VM
Java Version: 17.0.6+10
Operating System: Mac OS X
Default Encoding: UTF-8
Language: en
Country: US
--></g></svg>