<?xml version="1.0" encoding="UTF-8" standalone="no"?><svg xmlns="http://www.w3.org/2000/svg" xmlns:xlink="http://www.w3.org/1999/xlink" contentScriptType="application/ecmascript" contentStyleType="text/css" height="109px" preserveAspectRatio="none" style="width:200px;height:109px;" version="1.1" viewBox="0 0 200 109" width="200px" zoomAndPan="magnify"><defs><filter height="300%" id="f1bg16ylq8v0y3" width="300%" x="-1" y="-1"><feGaussianBlur result="blurOut" stdDeviation="2.0"/><feColorMatrix in="blurOut" result="blurOut2" type="matrix" values="0 0 0 0 0 0 0 0 0 0 0 0 0 0 0 0 0 0 .4 0"/><feOffset dx="4.0" dy="4.0" in="blurOut2" result="blurOut3"/><feBlend in="SourceGraphic" in2="blurOut3" mode="normal"/></filter></defs><g><!--MD5=[a1db57d52d294da80bc07860428d1ae8]
class gov.nasa.jpl.sequencing.SequenceEngine--><a href="SequenceEngine.html" target="_top" title="SequenceEngine.html" xlink:actuate="onRequest" xlink:href="SequenceEngine.html" xlink:show="new" xlink:title="SequenceEngine.html" xlink:type="simple"><rect fill="#FEFECE" filter="url(#f1bg16ylq8v0y3)" height="72.1758" id="gov.nasa.jpl.sequencing.SequenceEngine" style="stroke: #A80036; stroke-width: 1.5;" width="180" x="7" y="7"/><ellipse cx="36.4" cy="26.1328" fill="#ADD1B2" rx="11" ry="11" style="stroke: #A80036; stroke-width: 1.0;"/><path d="M38.8731,32.2759 Q38.2921,32.5747 37.6529,32.7241 Q37.0138,32.8735 36.3082,32.8735 Q33.8014,32.8735 32.4815,31.2217 Q31.1617,29.5698 31.1617,26.4487 Q31.1617,23.3193 32.4815,21.6675 Q33.8014,20.0156 36.3082,20.0156 Q37.0138,20.0156 37.6612,20.165 Q38.3087,20.3145 38.8731,20.6133 L38.8731,23.3359 Q38.2423,22.7549 37.6488,22.4851 Q37.0553,22.2153 36.4244,22.2153 Q35.0797,22.2153 34.3949,23.282 Q33.7101,24.3486 33.7101,26.4487 Q33.7101,28.5405 34.3949,29.6072 Q35.0797,30.6738 36.4244,30.6738 Q37.0553,30.6738 37.6488,30.4041 Q38.2423,30.1343 38.8731,29.5532 Z "/><text fill="#000000" font-family="sans-serif" font-size="14" lengthAdjust="spacingAndGlyphs" textLength="113" x="55.1" y="25.5352">SequenceEngine</text><text fill="#000000" font-family="sans-serif" font-size="10" lengthAdjust="spacingAndGlyphs" textLength="116" x="53.6" y="38.1563">gov.nasa.jpl.sequencing</text><line style="stroke: #A80036; stroke-width: 1.5;" x1="8" x2="186" y1="45.2656" y2="45.2656"/><ellipse cx="18" cy="56.2656" fill="#84BE84" rx="3" ry="3" style="stroke: #038048; stroke-width: 1.0;"/><text fill="#000000" font-family="sans-serif" font-size="11" lengthAdjust="spacingAndGlyphs" text-decoration="underline" textLength="154" x="27" y="59.9004">getEngine(): SequenceEngine</text><ellipse cx="18" cy="69.2207" fill="#84BE84" rx="3" ry="3" style="stroke: #038048; stroke-width: 1.0;"/><text fill="#000000" font-family="sans-serif" font-size="11" lengthAdjust="spacingAndGlyphs" textLength="88" x="27" y="72.8555">sequence(): void</text></a><text fill="#888888" font-family="sans-serif" font-size="10" lengthAdjust="spacingAndGlyphs" textLength="182" x="6" y="95.8438">UMLDoclet 2.0.8, PlantUML 1.2020.01</text><!--MD5=[91f2b429924ae16b98297f54863eee19]
@startuml
    set namespaceSeparator none
    hide empty fields
    hide empty methods

    class "<size:14>SequenceEngine\n<size:10>gov.nasa.jpl.sequencing" as gov.nasa.jpl.sequencing.SequenceEngine [[SequenceEngine.html]] {
        {static} +getEngine(): SequenceEngine
        +sequence(): void
    }

    center footer UMLDoclet 2.0.8, PlantUML 1.2020.01
@enduml

PlantUML version 1.2020.01(Sun Feb 16 09:40:32 PST 2020)
(APACHE source distribution)
Java Runtime: OpenJDK Runtime Environment
JVM: OpenJDK 64-Bit Server VM
Java Version: 17.0.6+10
Operating System: Mac OS X
Default Encoding: UTF-8
Language: en
Country: US
--></g></svg>