<?xml version="1.0" encoding="UTF-8" standalone="no"?><svg xmlns="http://www.w3.org/2000/svg" xmlns:xlink="http://www.w3.org/1999/xlink" contentScriptType="application/ecmascript" contentStyleType="text/css" height="371px" preserveAspectRatio="none" style="width:588px;height:371px;" version="1.1" viewBox="0 0 588 371" width="588px" zoomAndPan="magnify"><defs><filter height="300%" id="f1mp2ypr33npvj" width="300%" x="-1" y="-1"><feGaussianBlur result="blurOut" stdDeviation="2.0"/><feColorMatrix in="blurOut" result="blurOut2" type="matrix" values="0 0 0 0 0 0 0 0 0 0 0 0 0 0 0 0 0 0 .4 0"/><feOffset dx="4.0" dy="4.0" in="blurOut2" result="blurOut3"/><feBlend in="SourceGraphic" in2="blurOut3" mode="normal"/></filter></defs><g><!--MD5=[ac92364def5ffd0b52275f93df3162db]
cluster gov.nasa.jpl.output.adaptation--><polygon fill="#FFFFFF" filter="url(#f1mp2ypr33npvj)" points="22,24.31,243,24.31,250,46.7983,566,46.7983,566,322,22,322,22,24.31" style="stroke: #000000; stroke-width: 1.5;"/><line style="stroke: #000000; stroke-width: 1.5;" x1="22" x2="250" y1="46.7983" y2="46.7983"/><text fill="#000000" font-family="sans-serif" font-size="14" font-weight="bold" lengthAdjust="spacingAndGlyphs" textLength="215" x="26" y="39.8452">gov.nasa.jpl.output.adaptation</text><!--MD5=[59280e5b14d3330bd8da902a95494c96]
class gov.nasa.jpl.output.adaptation.AdaptationWriter--><a href="AdaptationWriter.html" target="_top" title="AdaptationWriter.html" xlink:actuate="onRequest" xlink:href="AdaptationWriter.html" xlink:show="new" xlink:title="AdaptationWriter.html" xlink:type="simple"><rect fill="#FEFECE" filter="url(#f1mp2ypr33npvj)" height="112.7754" id="gov.nasa.jpl.output.adaptation.AdaptationWriter" style="stroke: #A80036; stroke-width: 1.5;" width="512" x="38" y="59.31"/><ellipse cx="241.25" cy="75.31" fill="#A9DCDF" rx="11" ry="11" style="stroke: #A80036; stroke-width: 1.0;"/><path d="M241.1133,70.6581 L239.9595,75.7299 L242.2754,75.7299 Z M239.6191,68.4169 L242.6157,68.4169 L245.9609,80.81 L243.5122,80.81 L242.7485,77.747 L239.4697,77.747 L238.7227,80.81 L236.2739,80.81 Z "/><text fill="#000000" font-family="sans-serif" font-size="12" font-style="italic" lengthAdjust="spacingAndGlyphs" textLength="97" x="261.75" y="79.8452">AdaptationWriter</text><line style="stroke: #A80036; stroke-width: 1.5;" x1="39" x2="549" y1="91.31" y2="91.31"/><polygon fill="none" points="49,97.31,53,101.31,49,105.31,45,101.31" style="stroke: #B38D22; stroke-width: 1.0;"/><text fill="#000000" font-family="sans-serif" font-size="11" lengthAdjust="spacingAndGlyphs" textLength="94" x="58" y="105.9448">writer: PrintWriter</text><line style="stroke: #A80036; stroke-width: 1.5;" x1="39" x2="549" y1="112.2651" y2="112.2651"/><ellipse cx="49" cy="123.2651" fill="#84BE84" rx="3" ry="3" style="stroke: #038048; stroke-width: 1.0;"/><text fill="#000000" font-family="sans-serif" font-size="11" lengthAdjust="spacingAndGlyphs" textLength="120" x="58" y="126.8998">createFile(String): void</text><ellipse cx="49" cy="136.2202" fill="#84BE84" rx="3" ry="3" style="stroke: #038048; stroke-width: 1.0;"/><text fill="#000000" font-family="sans-serif" font-size="11" font-style="italic" lengthAdjust="spacingAndGlyphs" textLength="401" x="58" y="139.8549">writeFileContents(List&lt;String&gt;, ResourceList, ConstraintInstanceList): void</text><ellipse cx="49" cy="149.1752" fill="#84BE84" rx="3" ry="3" style="stroke: #038048; stroke-width: 1.0;"/><text fill="#000000" font-family="sans-serif" font-size="11" lengthAdjust="spacingAndGlyphs" textLength="83" x="58" y="152.81">closeFile(): void</text><ellipse cx="49" cy="162.1303" fill="#84BE84" rx="3" ry="3" style="stroke: #038048; stroke-width: 1.0;"/><text fill="#000000" font-family="sans-serif" font-size="11" lengthAdjust="spacingAndGlyphs" textLength="486" x="58" y="165.7651">writeAdaptationDictionary(String, List&lt;String&gt;, ResourceList, ConstraintInstanceList): void</text></a><!--MD5=[23d1dd1314c7218e6938320febf221ac]
class gov.nasa.jpl.output.adaptation.JSONDictionaryWriter--><a href="JSONDictionaryWriter.html" target="_top" title="JSONDictionaryWriter.html" xlink:actuate="onRequest" xlink:href="JSONDictionaryWriter.html" xlink:show="new" xlink:title="JSONDictionaryWriter.html" xlink:type="simple"><rect fill="#FEFECE" filter="url(#f1mp2ypr33npvj)" height="73.9102" id="gov.nasa.jpl.output.adaptation.JSONDictionaryWriter" style="stroke: #A80036; stroke-width: 1.5;" width="427" x="80.5" y="232.09"/><ellipse cx="230.25" cy="248.09" fill="#ADD1B2" rx="11" ry="11" style="stroke: #A80036; stroke-width: 1.0;"/><path d="M232.7231,254.2331 Q232.1421,254.5319 231.5029,254.6813 Q230.8638,254.8307 230.1582,254.8307 Q227.6514,254.8307 226.3315,253.1789 Q225.0117,251.527 225.0117,248.4059 Q225.0117,245.2765 226.3315,243.6247 Q227.6514,241.9728 230.1582,241.9728 Q230.8638,241.9728 231.5112,242.1222 Q232.1587,242.2716 232.7231,242.5705 L232.7231,245.2931 Q232.0923,244.7121 231.4988,244.4423 Q230.9053,244.1725 230.2744,244.1725 Q228.9297,244.1725 228.2449,245.2392 Q227.5601,246.3058 227.5601,248.4059 Q227.5601,250.4977 228.2449,251.5644 Q228.9297,252.631 230.2744,252.631 Q230.9053,252.631 231.4988,252.3612 Q232.0923,252.0915 232.7231,251.5104 Z "/><text fill="#000000" font-family="sans-serif" font-size="12" lengthAdjust="spacingAndGlyphs" textLength="119" x="250.75" y="252.6252">JSONDictionaryWriter</text><line style="stroke: #A80036; stroke-width: 1.5;" x1="81.5" x2="506.5" y1="264.09" y2="264.09"/><line style="stroke: #A80036; stroke-width: 1.5;" x1="81.5" x2="506.5" y1="272.09" y2="272.09"/><ellipse cx="91.5" cy="283.09" fill="#84BE84" rx="3" ry="3" style="stroke: #038048; stroke-width: 1.0;"/><text fill="#000000" font-family="sans-serif" font-size="11" lengthAdjust="spacingAndGlyphs" textLength="401" x="100.5" y="286.7248">writeFileContents(List&lt;String&gt;, ResourceList, ConstraintInstanceList): void</text><ellipse cx="91.5" cy="296.0451" fill="#84BE84" rx="3" ry="3" style="stroke: #038048; stroke-width: 1.0;"/><text fill="#000000" font-family="sans-serif" font-size="11" lengthAdjust="spacingAndGlyphs" textLength="179" x="100.5" y="299.6798">activityTypeToJson(String): String</text></a><!--MD5=[7aa69a67fb105c413f2eb0bd026c555f]
reverse link gov.nasa.jpl.output.adaptation.AdaptationWriter to gov.nasa.jpl.output.adaptation.JSONDictionaryWriter--><path d="M294,193.68 C294,207.02 294,220.3 294,231.87 " fill="none" id="gov.nasa.jpl.output.adaptation.AdaptationWriter&lt;-gov.nasa.jpl.output.adaptation.JSONDictionaryWriter" style="stroke: #A80036; stroke-width: 1.0;"/><polygon fill="none" points="287,193.71,294,173.71,301,193.71,287,193.71" style="stroke: #A80036; stroke-width: 1.0;"/><text fill="#888888" font-family="sans-serif" font-size="10" lengthAdjust="spacingAndGlyphs" textLength="182" x="209" y="357.668">UMLDoclet 2.0.8, PlantUML 1.2020.01</text><!--MD5=[d318e85898358aab08d3ee345f34ea3d]
@startuml
    namespace gov.nasa.jpl.output.adaptation {

        abstract class AdaptationWriter [[AdaptationWriter.html]] {
            #writer: PrintWriter
            +createFile(String): void
            {abstract} +writeFileContents(List<String>, ResourceList, ConstraintInstanceList): void
            +closeFile(): void
            +writeAdaptationDictionary(String, List<String>, ResourceList, ConstraintInstanceList): void
        }

        class JSONDictionaryWriter [[JSONDictionaryWriter.html]] {
            +writeFileContents(List<String>, ResourceList, ConstraintInstanceList): void
            +activityTypeToJson(String): String
        }

        AdaptationWriter <|- - JSONDictionaryWriter
    }

    center footer UMLDoclet 2.0.8, PlantUML 1.2020.01
@enduml

PlantUML version 1.2020.01(Sun Feb 16 09:40:32 PST 2020)
(APACHE source distribution)
Java Runtime: OpenJDK Runtime Environment
JVM: OpenJDK 64-Bit Server VM
Java Version: 17.0.6+10
Operating System: Mac OS X
Default Encoding: UTF-8
Language: en
Country: US
--></g></svg>