<?xml version="1.0" encoding="UTF-8" standalone="no"?><svg xmlns="http://www.w3.org/2000/svg" xmlns:xlink="http://www.w3.org/1999/xlink" contentScriptType="application/ecmascript" contentStyleType="text/css" height="96px" preserveAspectRatio="none" style="width:194px;height:96px;" version="1.1" viewBox="0 0 194 96" width="194px" zoomAndPan="magnify"><defs><filter height="300%" id="f1ip6k5v060hpx" width="300%" x="-1" y="-1"><feGaussianBlur result="blurOut" stdDeviation="2.0"/><feColorMatrix in="blurOut" result="blurOut2" type="matrix" values="0 0 0 0 0 0 0 0 0 0 0 0 0 0 0 0 0 0 .4 0"/><feOffset dx="4.0" dy="4.0" in="blurOut2" result="blurOut3"/><feBlend in="SourceGraphic" in2="blurOut3" mode="normal"/></filter></defs><g><!--MD5=[afe87d60c2c25ebf471cf8899c73c047]
class gov.nasa.jpl.Blackbird--><a href="Blackbird.html" target="_top" title="Blackbird.html" xlink:actuate="onRequest" xlink:href="Blackbird.html" xlink:show="new" xlink:title="Blackbird.html" xlink:type="simple"><rect fill="#FEFECE" filter="url(#f1ip6k5v060hpx)" height="59.2207" id="gov.nasa.jpl.Blackbird" style="stroke: #A80036; stroke-width: 1.5;" width="129" x="26.5" y="7"/><ellipse cx="56.8" cy="26.1328" fill="#ADD1B2" rx="11" ry="11" style="stroke: #A80036; stroke-width: 1.0;"/><path d="M59.2731,32.2759 Q58.6921,32.5747 58.0529,32.7241 Q57.4138,32.8735 56.7082,32.8735 Q54.2014,32.8735 52.8815,31.2217 Q51.5617,29.5698 51.5617,26.4487 Q51.5617,23.3193 52.8815,21.6675 Q54.2014,20.0156 56.7082,20.0156 Q57.4138,20.0156 58.0612,20.165 Q58.7087,20.3145 59.2731,20.6133 L59.2731,23.3359 Q58.6423,22.7549 58.0488,22.4851 Q57.4553,22.2153 56.8244,22.2153 Q55.4797,22.2153 54.7949,23.282 Q54.1101,24.3486 54.1101,26.4487 Q54.1101,28.5405 54.7949,29.6072 Q55.4797,30.6738 56.8244,30.6738 Q57.4553,30.6738 58.0488,30.4041 Q58.6423,30.1343 59.2731,29.5532 Z "/><text fill="#000000" font-family="sans-serif" font-size="14" lengthAdjust="spacingAndGlyphs" textLength="63" x="74.2" y="25.5352">Blackbird</text><text fill="#000000" font-family="sans-serif" font-size="10" lengthAdjust="spacingAndGlyphs" textLength="58" x="76.7" y="38.1563">gov.nasa.jpl</text><line style="stroke: #A80036; stroke-width: 1.5;" x1="27.5" x2="154.5" y1="45.2656" y2="45.2656"/><ellipse cx="37.5" cy="56.2656" fill="#84BE84" rx="3" ry="3" style="stroke: #038048; stroke-width: 1.0;"/><text fill="#000000" font-family="sans-serif" font-size="11" lengthAdjust="spacingAndGlyphs" text-decoration="underline" textLength="103" x="46.5" y="59.9004">main(String[]): void</text></a><text fill="#888888" font-family="sans-serif" font-size="10" lengthAdjust="spacingAndGlyphs" textLength="182" x="0" y="82.8887">UMLDoclet 2.0.8, PlantUML 1.2020.01</text><!--MD5=[632e2b67472a119055cf86471fa928e3]
@startuml
    set namespaceSeparator none
    hide empty fields
    hide empty methods

    class "<size:14>Blackbird\n<size:10>gov.nasa.jpl" as gov.nasa.jpl.Blackbird [[Blackbird.html]] {
        {static} +main(String[]): void
    }

    center footer UMLDoclet 2.0.8, PlantUML 1.2020.01
@enduml

PlantUML version 1.2020.01(Sun Feb 16 09:40:32 PST 2020)
(APACHE source distribution)
Java Runtime: OpenJDK Runtime Environment
JVM: OpenJDK 64-Bit Server VM
Java Version: 17.0.6+10
Operating System: Mac OS X
Default Encoding: UTF-8
Language: en
Country: US
--></g></svg>