<?xml version="1.0" encoding="UTF-8" standalone="no"?><svg xmlns="http://www.w3.org/2000/svg" xmlns:xlink="http://www.w3.org/1999/xlink" contentScriptType="application/ecmascript" contentStyleType="text/css" height="96px" preserveAspectRatio="none" style="width:194px;height:96px;" version="1.1" viewBox="0 0 194 96" width="194px" zoomAndPan="magnify"><defs><filter height="300%" id="f1bdcguvb1erl1" width="300%" x="-1" y="-1"><feGaussianBlur result="blurOut" stdDeviation="2.0"/><feColorMatrix in="blurOut" result="blurOut2" type="matrix" values="0 0 0 0 0 0 0 0 0 0 0 0 0 0 0 0 0 0 .4 0"/><feOffset dx="4.0" dy="4.0" in="blurOut2" result="blurOut3"/><feBlend in="SourceGraphic" in2="blurOut3" mode="normal"/></filter></defs><g><!--MD5=[6ecd85d5b837bc594954ef8b2ad49e3a]
class gov.nasa.jpl.Modeler--><a href="Modeler.html" target="_top" title="Modeler.html" xlink:actuate="onRequest" xlink:href="Modeler.html" xlink:show="new" xlink:title="Modeler.html" xlink:type="simple"><rect fill="#FEFECE" filter="url(#f1bdcguvb1erl1)" height="59.2207" id="gov.nasa.jpl.Modeler" style="stroke: #A80036; stroke-width: 1.5;" width="129" x="26.5" y="7"/><ellipse cx="59.05" cy="26.1328" fill="#ADD1B2" rx="11" ry="11" style="stroke: #A80036; stroke-width: 1.0;"/><path d="M61.5231,32.2759 Q60.9421,32.5747 60.3029,32.7241 Q59.6638,32.8735 58.9582,32.8735 Q56.4514,32.8735 55.1315,31.2217 Q53.8117,29.5698 53.8117,26.4487 Q53.8117,23.3193 55.1315,21.6675 Q56.4514,20.0156 58.9582,20.0156 Q59.6638,20.0156 60.3112,20.165 Q60.9587,20.3145 61.5231,20.6133 L61.5231,23.3359 Q60.8923,22.7549 60.2988,22.4851 Q59.7053,22.2153 59.0744,22.2153 Q57.7297,22.2153 57.0449,23.282 Q56.3601,24.3486 56.3601,26.4487 Q56.3601,28.5405 57.0449,29.6072 Q57.7297,30.6738 59.0744,30.6738 Q59.7053,30.6738 60.2988,30.4041 Q60.8923,30.1343 61.5231,29.5532 Z "/><text fill="#000000" font-family="sans-serif" font-size="14" lengthAdjust="spacingAndGlyphs" textLength="56" x="77.95" y="25.5352">Modeler</text><text fill="#000000" font-family="sans-serif" font-size="10" lengthAdjust="spacingAndGlyphs" textLength="58" x="76.95" y="38.1563">gov.nasa.jpl</text><line style="stroke: #A80036; stroke-width: 1.5;" x1="27.5" x2="154.5" y1="45.2656" y2="45.2656"/><ellipse cx="37.5" cy="56.2656" fill="#84BE84" rx="3" ry="3" style="stroke: #038048; stroke-width: 1.0;"/><text fill="#000000" font-family="sans-serif" font-size="11" lengthAdjust="spacingAndGlyphs" text-decoration="underline" textLength="103" x="46.5" y="59.9004">main(String[]): void</text></a><text fill="#888888" font-family="sans-serif" font-size="10" lengthAdjust="spacingAndGlyphs" textLength="182" x="0" y="82.8887">UMLDoclet 2.0.8, PlantUML 1.2020.01</text><!--MD5=[2e251973f0e9b2da977ffa764309e25d]
@startuml
    set namespaceSeparator none
    hide empty fields
    hide empty methods

    class "<size:14>Modeler\n<size:10>gov.nasa.jpl" as gov.nasa.jpl.Modeler [[Modeler.html]] {
        {static} +main(String[]): void
    }

    center footer UMLDoclet 2.0.8, PlantUML 1.2020.01
@enduml

PlantUML version 1.2020.01(Sun Feb 16 09:40:32 PST 2020)
(APACHE source distribution)
Java Runtime: OpenJDK Runtime Environment
JVM: OpenJDK 64-Bit Server VM
Java Version: 17.0.6+10
Operating System: Mac OS X
Default Encoding: UTF-8
Language: en
Country: US
--></g></svg>