<?xml version="1.0" encoding="UTF-8" standalone="no"?><svg xmlns="http://www.w3.org/2000/svg" xmlns:xlink="http://www.w3.org/1999/xlink" contentScriptType="application/ecmascript" contentStyleType="text/css" height="185px" preserveAspectRatio="none" style="width:370px;height:185px;" version="1.1" viewBox="0 0 370 185" width="370px" zoomAndPan="magnify"><defs><filter height="300%" id="f1fdylagp5rirb" width="300%" x="-1" y="-1"><feGaussianBlur result="blurOut" stdDeviation="2.0"/><feColorMatrix in="blurOut" result="blurOut2" type="matrix" values="0 0 0 0 0 0 0 0 0 0 0 0 0 0 0 0 0 0 .4 0"/><feOffset dx="4.0" dy="4.0" in="blurOut2" result="blurOut3"/><feBlend in="SourceGraphic" in2="blurOut3" mode="normal"/></filter></defs><g><!--MD5=[46783a79785862d0cc168cc945fdcbc3]
cluster gov.nasa.jpl--><polygon fill="#FFFFFF" filter="url(#f1fdylagp5rirb)" points="22,24.04,112,24.04,119,46.5283,348,46.5283,348,136,22,136,22,24.04" style="stroke: #000000; stroke-width: 1.5;"/><line style="stroke: #000000; stroke-width: 1.5;" x1="22" x2="119" y1="46.5283" y2="46.5283"/><text fill="#000000" font-family="sans-serif" font-size="14" font-weight="bold" lengthAdjust="spacingAndGlyphs" textLength="84" x="26" y="39.5752">gov.nasa.jpl</text><!--MD5=[afe87d60c2c25ebf471cf8899c73c047]
class gov.nasa.jpl.Blackbird--><a href="Blackbird.html" target="_top" title="Blackbird.html" xlink:actuate="onRequest" xlink:href="Blackbird.html" xlink:show="new" xlink:title="Blackbird.html" xlink:type="simple"><rect fill="#FEFECE" filter="url(#f1fdylagp5rirb)" height="60.9551" id="gov.nasa.jpl.Blackbird" style="stroke: #A80036; stroke-width: 1.5;" width="129" x="38.5" y="59.04"/><ellipse cx="72.85" cy="75.04" fill="#ADD1B2" rx="11" ry="11" style="stroke: #A80036; stroke-width: 1.0;"/><path d="M75.3231,81.1831 Q74.7421,81.4819 74.1029,81.6313 Q73.4638,81.7807 72.7582,81.7807 Q70.2514,81.7807 68.9315,80.1289 Q67.6117,78.477 67.6117,75.3559 Q67.6117,72.2265 68.9315,70.5747 Q70.2514,68.9228 72.7582,68.9228 Q73.4638,68.9228 74.1112,69.0722 Q74.7587,69.2216 75.3231,69.5205 L75.3231,72.2431 Q74.6923,71.6621 74.0988,71.3923 Q73.5053,71.1225 72.8744,71.1225 Q71.5297,71.1225 70.8449,72.1892 Q70.1601,73.2558 70.1601,75.3559 Q70.1601,77.4477 70.8449,78.5144 Q71.5297,79.581 72.8744,79.581 Q73.5053,79.581 74.0988,79.3112 Q74.6923,79.0415 75.3231,78.4604 Z "/><text fill="#000000" font-family="sans-serif" font-size="12" lengthAdjust="spacingAndGlyphs" textLength="54" x="91.15" y="79.5752">Blackbird</text><line style="stroke: #A80036; stroke-width: 1.5;" x1="39.5" x2="166.5" y1="91.04" y2="91.04"/><line style="stroke: #A80036; stroke-width: 1.5;" x1="39.5" x2="166.5" y1="99.04" y2="99.04"/><ellipse cx="49.5" cy="110.04" fill="#84BE84" rx="3" ry="3" style="stroke: #038048; stroke-width: 1.0;"/><text fill="#000000" font-family="sans-serif" font-size="11" lengthAdjust="spacingAndGlyphs" text-decoration="underline" textLength="103" x="58.5" y="113.6748">main(String[]): void</text></a><!--MD5=[6ecd85d5b837bc594954ef8b2ad49e3a]
class gov.nasa.jpl.Modeler--><a href="Modeler.html" target="_top" title="Modeler.html" xlink:actuate="onRequest" xlink:href="Modeler.html" xlink:show="new" xlink:title="Modeler.html" xlink:type="simple"><rect fill="#FEFECE" filter="url(#f1fdylagp5rirb)" height="60.9551" id="gov.nasa.jpl.Modeler" style="stroke: #A80036; stroke-width: 1.5;" width="129" x="202.5" y="59.04"/><ellipse cx="240" cy="75.04" fill="#ADD1B2" rx="11" ry="11" style="stroke: #A80036; stroke-width: 1.0;"/><path d="M242.4731,81.1831 Q241.8921,81.4819 241.2529,81.6313 Q240.6138,81.7807 239.9082,81.7807 Q237.4014,81.7807 236.0815,80.1289 Q234.7617,78.477 234.7617,75.3559 Q234.7617,72.2265 236.0815,70.5747 Q237.4014,68.9228 239.9082,68.9228 Q240.6138,68.9228 241.2612,69.0722 Q241.9087,69.2216 242.4731,69.5205 L242.4731,72.2431 Q241.8423,71.6621 241.2488,71.3923 Q240.6553,71.1225 240.0244,71.1225 Q238.6797,71.1225 237.9949,72.1892 Q237.3101,73.2558 237.3101,75.3559 Q237.3101,77.4477 237.9949,78.5144 Q238.6797,79.581 240.0244,79.581 Q240.6553,79.581 241.2488,79.3112 Q241.8423,79.0415 242.4731,78.4604 Z "/><text fill="#000000" font-family="sans-serif" font-size="12" lengthAdjust="spacingAndGlyphs" textLength="47" x="259" y="79.5752">Modeler</text><line style="stroke: #A80036; stroke-width: 1.5;" x1="203.5" x2="330.5" y1="91.04" y2="91.04"/><line style="stroke: #A80036; stroke-width: 1.5;" x1="203.5" x2="330.5" y1="99.04" y2="99.04"/><ellipse cx="213.5" cy="110.04" fill="#84BE84" rx="3" ry="3" style="stroke: #038048; stroke-width: 1.0;"/><text fill="#000000" font-family="sans-serif" font-size="11" lengthAdjust="spacingAndGlyphs" text-decoration="underline" textLength="103" x="222.5" y="113.6748">main(String[]): void</text></a><text fill="#888888" font-family="sans-serif" font-size="10" lengthAdjust="spacingAndGlyphs" textLength="182" x="100" y="171.668">UMLDoclet 2.0.8, PlantUML 1.2020.01</text><!--MD5=[d362d2abc17d0581570834f857cfe084]
@startuml
    namespace gov.nasa.jpl {

        class Blackbird [[Blackbird.html]] {
            {static} +main(String[]): void
        }

        class Modeler [[Modeler.html]] {
            {static} +main(String[]): void
        }

    }

    center footer UMLDoclet 2.0.8, PlantUML 1.2020.01
@enduml

PlantUML version 1.2020.01(Sun Feb 16 09:40:32 PST 2020)
(APACHE source distribution)
Java Runtime: OpenJDK Runtime Environment
JVM: OpenJDK 64-Bit Server VM
Java Version: 17.0.6+10
Operating System: Mac OS X
Default Encoding: UTF-8
Language: en
Country: US
--></g></svg>