<?xml version="1.0" encoding="UTF-8" standalone="no"?><svg xmlns="http://www.w3.org/2000/svg" xmlns:xlink="http://www.w3.org/1999/xlink" contentScriptType="application/ecmascript" contentStyleType="text/css" height="701px" preserveAspectRatio="none" style="width:1406px;height:701px;" version="1.1" viewBox="0 0 1406 701" width="1406px" zoomAndPan="magnify"><defs><filter height="300%" id="f1qwgi6q6w8nlc" width="300%" x="-1" y="-1"><feGaussianBlur result="blurOut" stdDeviation="2.0"/><feColorMatrix in="blurOut" result="blurOut2" type="matrix" values="0 0 0 0 0 0 0 0 0 0 0 0 0 0 0 0 0 0 .4 0"/><feOffset dx="4.0" dy="4.0" in="blurOut2" result="blurOut3"/><feBlend in="SourceGraphic" in2="blurOut3" mode="normal"/></filter></defs><g><!--MD5=[1053fcc3c9abd2c978bba2354bba8cc9]
cluster gov.nasa.jpl.sequencing.sasfSequencing--><polygon fill="#FFFFFF" filter="url(#f1qwgi6q6w8nlc)" points="22,237.72,310,237.72,317,260.2083,1384,260.2083,1384,652,22,652,22,237.72" style="stroke: #000000; stroke-width: 1.5;"/><line style="stroke: #000000; stroke-width: 1.5;" x1="22" x2="317" y1="260.2083" y2="260.2083"/><text fill="#000000" font-family="sans-serif" font-size="14" font-weight="bold" lengthAdjust="spacingAndGlyphs" textLength="282" x="26" y="253.2552">gov.nasa.jpl.sequencing.sasfSequencing</text><!--MD5=[300fc444106e7512e8d150a68bdf4b1d]
cluster gov.nasa.jpl.sequencing--><polygon fill="#FFFFFF" filter="url(#f1qwgi6q6w8nlc)" points="448,24.03,622,24.03,629,46.5183,949,46.5183,949,213.72,448,213.72,448,24.03" style="stroke: #000000; stroke-width: 1.5;"/><line style="stroke: #000000; stroke-width: 1.5;" x1="448" x2="629" y1="46.5183" y2="46.5183"/><text fill="#000000" font-family="sans-serif" font-size="14" font-weight="bold" lengthAdjust="spacingAndGlyphs" textLength="168" x="452" y="39.5652">gov.nasa.jpl.sequencing</text><!--MD5=[890c0b90971f90ea9616a250ba93ed46]
class gov.nasa.jpl.sequencing.sasfSequencing.SASFRequest--><a href="SASFRequest.html" target="_top" title="SASFRequest.html" xlink:actuate="onRequest" xlink:href="SASFRequest.html" xlink:show="new" xlink:title="SASFRequest.html" xlink:type="simple"><rect fill="#FEFECE" filter="url(#f1qwgi6q6w8nlc)" height="177.5508" id="gov.nasa.jpl.sequencing.sasfSequencing.SASFRequest" style="stroke: #A80036; stroke-width: 1.5;" width="449" x="37.5" y="279.2"/><ellipse cx="221.25" cy="295.2" fill="#ADD1B2" rx="11" ry="11" style="stroke: #A80036; stroke-width: 1.0;"/><path d="M223.7231,301.3431 Q223.1421,301.6419 222.5029,301.7913 Q221.8638,301.9407 221.1582,301.9407 Q218.6514,301.9407 217.3315,300.2889 Q216.0117,298.637 216.0117,295.5159 Q216.0117,292.3865 217.3315,290.7347 Q218.6514,289.0828 221.1582,289.0828 Q221.8638,289.0828 222.5112,289.2322 Q223.1587,289.3816 223.7231,289.6805 L223.7231,292.4031 Q223.0923,291.8221 222.4988,291.5523 Q221.9053,291.2825 221.2744,291.2825 Q219.9297,291.2825 219.2449,292.3492 Q218.5601,293.4158 218.5601,295.5159 Q218.5601,297.6077 219.2449,298.6744 Q219.9297,299.741 221.2744,299.741 Q221.9053,299.741 222.4988,299.4712 Q223.0923,299.2015 223.7231,298.6204 Z "/><text fill="#000000" font-family="sans-serif" font-size="12" lengthAdjust="spacingAndGlyphs" textLength="73" x="241.75" y="299.7352">SASFRequest</text><line style="stroke: #A80036; stroke-width: 1.5;" x1="38.5" x2="485.5" y1="311.2" y2="311.2"/><line style="stroke: #A80036; stroke-width: 1.5;" x1="38.5" x2="485.5" y1="319.2" y2="319.2"/><ellipse cx="48.5" cy="330.2" fill="#84BE84" rx="3" ry="3" style="stroke: #038048; stroke-width: 1.0;"/><text fill="#000000" font-family="sans-serif" font-size="11" lengthAdjust="spacingAndGlyphs" textLength="423" x="57.5" y="333.8348">SASFRequest(String, Time, String, String, String, String, String, List&lt;SASFStep&gt;)</text><ellipse cx="48.5" cy="343.1551" fill="#84BE84" rx="3" ry="3" style="stroke: #038048; stroke-width: 1.0;"/><text fill="#000000" font-family="sans-serif" font-size="11" lengthAdjust="spacingAndGlyphs" textLength="385" x="57.5" y="346.7898">SASFRequest(String, Time, String, String, String, String, List&lt;SASFStep&gt;)</text><ellipse cx="48.5" cy="356.1102" fill="#84BE84" rx="3" ry="3" style="stroke: #038048; stroke-width: 1.0;"/><text fill="#000000" font-family="sans-serif" font-size="11" lengthAdjust="spacingAndGlyphs" textLength="347" x="57.5" y="359.7449">SASFRequest(String, Time, String, String, String, List&lt;SASFStep&gt;)</text><ellipse cx="48.5" cy="369.0652" fill="#84BE84" rx="3" ry="3" style="stroke: #038048; stroke-width: 1.0;"/><text fill="#000000" font-family="sans-serif" font-size="11" lengthAdjust="spacingAndGlyphs" textLength="293" x="57.5" y="372.7">SASFRequest(String, Time, String, String, String, String)</text><ellipse cx="48.5" cy="382.0203" fill="#84BE84" rx="3" ry="3" style="stroke: #038048; stroke-width: 1.0;"/><text fill="#000000" font-family="sans-serif" font-size="11" lengthAdjust="spacingAndGlyphs" textLength="255" x="57.5" y="385.6551">SASFRequest(String, Time, String, String, String)</text><ellipse cx="48.5" cy="394.9754" fill="#84BE84" rx="3" ry="3" style="stroke: #038048; stroke-width: 1.0;"/><text fill="#000000" font-family="sans-serif" font-size="11" lengthAdjust="spacingAndGlyphs" textLength="386" x="57.5" y="398.6102">SASFRequest(String, Time, String, String, String, String, String, SASFStep)</text><ellipse cx="48.5" cy="407.9305" fill="#84BE84" rx="3" ry="3" style="stroke: #038048; stroke-width: 1.0;"/><text fill="#000000" font-family="sans-serif" font-size="11" lengthAdjust="spacingAndGlyphs" textLength="310" x="57.5" y="411.5652">SASFRequest(String, Time, String, String, String, SASFStep)</text><ellipse cx="48.5" cy="420.8855" fill="#84BE84" rx="3" ry="3" style="stroke: #038048; stroke-width: 1.0;"/><text fill="#000000" font-family="sans-serif" font-size="11" lengthAdjust="spacingAndGlyphs" textLength="178" x="57.5" y="424.5203">toSequenceString(Integer): String</text><ellipse cx="48.5" cy="433.8406" fill="#84BE84" rx="3" ry="3" style="stroke: #038048; stroke-width: 1.0;"/><text fill="#000000" font-family="sans-serif" font-size="11" lengthAdjust="spacingAndGlyphs" textLength="182" x="57.5" y="437.4754">getAbsoluteStartTime(Time): Time</text><ellipse cx="48.5" cy="446.7957" fill="#84BE84" rx="3" ry="3" style="stroke: #038048; stroke-width: 1.0;"/><text fill="#000000" font-family="sans-serif" font-size="11" lengthAdjust="spacingAndGlyphs" textLength="155" x="57.5" y="450.4305">addSASFStep(SASFStep): void</text></a><!--MD5=[ebc6d0b9ed7860b6b20f51e84cf9c1e4]
class gov.nasa.jpl.sequencing.sasfSequencing.SASFStep--><a href="SASFStep.html" target="_top" title="SASFStep.html" xlink:actuate="onRequest" xlink:href="SASFStep.html" xlink:show="new" xlink:title="SASFStep.html" xlink:type="simple"><rect fill="#FEFECE" filter="url(#f1qwgi6q6w8nlc)" height="190.5059" id="gov.nasa.jpl.sequencing.sasfSequencing.SASFStep" style="stroke: #A80036; stroke-width: 1.5;" width="229" x="521.5" y="272.72"/><ellipse cx="606.25" cy="288.72" fill="#A9DCDF" rx="11" ry="11" style="stroke: #A80036; stroke-width: 1.0;"/><path d="M606.1133,284.0681 L604.9595,289.1399 L607.2754,289.1399 Z M604.6191,281.8269 L607.6157,281.8269 L610.9609,294.22 L608.5122,294.22 L607.7485,291.157 L604.4697,291.157 L603.7227,294.22 L601.2739,294.22 Z "/><text fill="#000000" font-family="sans-serif" font-size="12" font-style="italic" lengthAdjust="spacingAndGlyphs" textLength="51" x="626.75" y="293.2552">SASFStep</text><line style="stroke: #A80036; stroke-width: 1.5;" x1="522.5" x2="749.5" y1="304.72" y2="304.72"/><polygon fill="none" points="532.5,310.72,536.5,314.72,532.5,318.72,528.5,314.72" style="stroke: #B38D22; stroke-width: 1.0;"/><text fill="#000000" font-family="sans-serif" font-size="11" lengthAdjust="spacingAndGlyphs" textLength="87" x="541.5" y="319.3548">stepType: String</text><polygon fill="none" points="532.5,323.6751,536.5,327.6751,532.5,331.6751,528.5,327.6751" style="stroke: #B38D22; stroke-width: 1.0;"/><text fill="#000000" font-family="sans-serif" font-size="11" lengthAdjust="spacingAndGlyphs" textLength="80" x="541.5" y="332.3098">stepStart: Time</text><polygon fill="none" points="532.5,336.6302,536.5,340.6302,532.5,344.6302,528.5,340.6302" style="stroke: #B38D22; stroke-width: 1.0;"/><text fill="#000000" font-family="sans-serif" font-size="11" lengthAdjust="spacingAndGlyphs" textLength="88" x="541.5" y="345.2649">comment: String</text><polygon fill="none" points="532.5,349.5852,536.5,353.5852,532.5,357.5852,528.5,353.5852" style="stroke: #B38D22; stroke-width: 1.0;"/><text fill="#000000" font-family="sans-serif" font-size="11" lengthAdjust="spacingAndGlyphs" textLength="66" x="541.5" y="358.22">ntext: String</text><line style="stroke: #A80036; stroke-width: 1.5;" x1="522.5" x2="749.5" y1="364.5403" y2="364.5403"/><polygon fill="#FFFF44" points="532.5,370.5403,536.5,374.5403,532.5,378.5403,528.5,374.5403" style="stroke: #B38D22; stroke-width: 1.0;"/><text fill="#000000" font-family="sans-serif" font-size="11" lengthAdjust="spacingAndGlyphs" textLength="121" x="541.5" y="379.1751">SASFStep(String, Time)</text><polygon fill="#FFFF44" points="532.5,383.4954,536.5,387.4954,532.5,391.4954,528.5,387.4954" style="stroke: #B38D22; stroke-width: 1.0;"/><text fill="#000000" font-family="sans-serif" font-size="11" lengthAdjust="spacingAndGlyphs" text-decoration="underline" textLength="200" x="541.5" y="392.1302">formatStepArgs(List&lt;String&gt;): String</text><ellipse cx="532.5" cy="401.4505" fill="#84BE84" rx="3" ry="3" style="stroke: #038048; stroke-width: 1.0;"/><text fill="#000000" font-family="sans-serif" font-size="11" lengthAdjust="spacingAndGlyphs" textLength="203" x="541.5" y="405.0852">writeStepHeader(Integer, Time): String</text><ellipse cx="532.5" cy="414.4055" fill="#84BE84" rx="3" ry="3" style="stroke: #038048; stroke-width: 1.0;"/><text fill="#000000" font-family="sans-serif" font-size="11" font-style="italic" lengthAdjust="spacingAndGlyphs" textLength="121" x="541.5" y="418.0403">writeStepBody(): String</text><ellipse cx="532.5" cy="427.3606" fill="#84BE84" rx="3" ry="3" style="stroke: #038048; stroke-width: 1.0;"/><text fill="#000000" font-family="sans-serif" font-size="11" lengthAdjust="spacingAndGlyphs" textLength="130" x="541.5" y="430.9954">writeStepFooter(): String</text><ellipse cx="532.5" cy="440.3157" fill="#84BE84" rx="3" ry="3" style="stroke: #038048; stroke-width: 1.0;"/><text fill="#000000" font-family="sans-serif" font-size="11" lengthAdjust="spacingAndGlyphs" textLength="141" x="541.5" y="443.9505">addComment(String): void</text><ellipse cx="532.5" cy="453.2708" fill="#84BE84" rx="3" ry="3" style="stroke: #038048; stroke-width: 1.0;"/><text fill="#000000" font-family="sans-serif" font-size="11" lengthAdjust="spacingAndGlyphs" textLength="121" x="541.5" y="456.9055">addNText(String): void</text></a><!--MD5=[5a6946420e7452783f793c7a730be229]
class gov.nasa.jpl.sequencing.sasfSequencing.SASFNote--><a href="SASFNote.html" target="_top" title="SASFNote.html" xlink:actuate="onRequest" xlink:href="SASFNote.html" xlink:show="new" xlink:title="SASFNote.html" xlink:type="simple"><rect fill="#FEFECE" filter="url(#f1qwgi6q6w8nlc)" height="73.9102" id="gov.nasa.jpl.sequencing.sasfSequencing.SASFNote" style="stroke: #A80036; stroke-width: 1.5;" width="149" x="37.5" y="542.66"/><ellipse cx="81.3" cy="558.66" fill="#ADD1B2" rx="11" ry="11" style="stroke: #A80036; stroke-width: 1.0;"/><path d="M83.7731,564.8031 Q83.1921,565.1019 82.5529,565.2513 Q81.9138,565.4007 81.2082,565.4007 Q78.7014,565.4007 77.3815,563.7489 Q76.0617,562.097 76.0617,558.9759 Q76.0617,555.8465 77.3815,554.1947 Q78.7014,552.5428 81.2082,552.5428 Q81.9138,552.5428 82.5612,552.6922 Q83.2087,552.8416 83.7731,553.1405 L83.7731,555.8631 Q83.1423,555.2821 82.5488,555.0123 Q81.9553,554.7425 81.3244,554.7425 Q79.9797,554.7425 79.2949,555.8092 Q78.6101,556.8758 78.6101,558.9759 Q78.6101,561.0677 79.2949,562.1344 Q79.9797,563.201 81.3244,563.201 Q81.9553,563.201 82.5488,562.9312 Q83.1423,562.6615 83.7731,562.0804 Z "/><text fill="#000000" font-family="sans-serif" font-size="12" lengthAdjust="spacingAndGlyphs" textLength="53" x="101.7" y="563.1952">SASFNote</text><line style="stroke: #A80036; stroke-width: 1.5;" x1="38.5" x2="185.5" y1="574.66" y2="574.66"/><line style="stroke: #A80036; stroke-width: 1.5;" x1="38.5" x2="185.5" y1="582.66" y2="582.66"/><ellipse cx="48.5" cy="593.66" fill="#84BE84" rx="3" ry="3" style="stroke: #038048; stroke-width: 1.0;"/><text fill="#000000" font-family="sans-serif" font-size="11" lengthAdjust="spacingAndGlyphs" textLength="123" x="57.5" y="597.2948">SASFNote(Time, String)</text><ellipse cx="48.5" cy="606.6151" fill="#84BE84" rx="3" ry="3" style="stroke: #038048; stroke-width: 1.0;"/><text fill="#000000" font-family="sans-serif" font-size="11" lengthAdjust="spacingAndGlyphs" textLength="121" x="57.5" y="610.2498">writeStepBody(): String</text></a><!--MD5=[ebc8ce424d150b041e9d3fcefbad64b1]
class gov.nasa.jpl.sequencing.sasfSequencing.SASFGround--><a href="SASFGround.html" target="_top" title="SASFGround.html" xlink:actuate="onRequest" xlink:href="SASFGround.html" xlink:show="new" xlink:title="SASFGround.html" xlink:type="simple"><rect fill="#FEFECE" filter="url(#f1qwgi6q6w8nlc)" height="86.8652" id="gov.nasa.jpl.sequencing.sasfSequencing.SASFGround" style="stroke: #A80036; stroke-width: 1.5;" width="240" x="221" y="536.18"/><ellipse cx="302.25" cy="552.18" fill="#ADD1B2" rx="11" ry="11" style="stroke: #A80036; stroke-width: 1.0;"/><path d="M304.7231,558.3231 Q304.1421,558.6219 303.5029,558.7713 Q302.8638,558.9207 302.1582,558.9207 Q299.6514,558.9207 298.3315,557.2689 Q297.0117,555.617 297.0117,552.4959 Q297.0117,549.3665 298.3315,547.7147 Q299.6514,546.0628 302.1582,546.0628 Q302.8638,546.0628 303.5112,546.2122 Q304.1587,546.3616 304.7231,546.6605 L304.7231,549.3831 Q304.0923,548.8021 303.4988,548.5323 Q302.9053,548.2625 302.2744,548.2625 Q300.9297,548.2625 300.2449,549.3292 Q299.5601,550.3958 299.5601,552.4959 Q299.5601,554.5877 300.2449,555.6544 Q300.9297,556.721 302.2744,556.721 Q302.9053,556.721 303.4988,556.4512 Q304.0923,556.1815 304.7231,555.6004 Z "/><text fill="#000000" font-family="sans-serif" font-size="12" lengthAdjust="spacingAndGlyphs" textLength="69" x="322.75" y="556.7152">SASFGround</text><line style="stroke: #A80036; stroke-width: 1.5;" x1="222" x2="460" y1="568.18" y2="568.18"/><line style="stroke: #A80036; stroke-width: 1.5;" x1="222" x2="460" y1="576.18" y2="576.18"/><ellipse cx="232" cy="587.18" fill="#84BE84" rx="3" ry="3" style="stroke: #038048; stroke-width: 1.0;"/><text fill="#000000" font-family="sans-serif" font-size="11" lengthAdjust="spacingAndGlyphs" textLength="177" x="241" y="590.8148">SASFGround(Time, String, String)</text><ellipse cx="232" cy="600.1351" fill="#84BE84" rx="3" ry="3" style="stroke: #038048; stroke-width: 1.0;"/><text fill="#000000" font-family="sans-serif" font-size="11" lengthAdjust="spacingAndGlyphs" textLength="214" x="241" y="603.7698">SASFGround(Time, String, List&lt;String&gt;)</text><ellipse cx="232" cy="613.0902" fill="#84BE84" rx="3" ry="3" style="stroke: #038048; stroke-width: 1.0;"/><text fill="#000000" font-family="sans-serif" font-size="11" lengthAdjust="spacingAndGlyphs" textLength="121" x="241" y="616.7249">writeStepBody(): String</text></a><!--MD5=[70bb9ca1ffb024e9e53ca634e26f61ac]
class gov.nasa.jpl.sequencing.sasfSequencing.SASFCommand--><a href="SASFCommand.html" target="_top" title="SASFCommand.html" xlink:actuate="onRequest" xlink:href="SASFCommand.html" xlink:show="new" xlink:title="SASFCommand.html" xlink:type="simple"><rect fill="#FEFECE" filter="url(#f1qwgi6q6w8nlc)" height="86.8652" id="gov.nasa.jpl.sequencing.sasfSequencing.SASFCommand" style="stroke: #A80036; stroke-width: 1.5;" width="254" x="496" y="536.18"/><ellipse cx="576.25" cy="552.18" fill="#ADD1B2" rx="11" ry="11" style="stroke: #A80036; stroke-width: 1.0;"/><path d="M578.7231,558.3231 Q578.1421,558.6219 577.5029,558.7713 Q576.8638,558.9207 576.1582,558.9207 Q573.6514,558.9207 572.3315,557.2689 Q571.0117,555.617 571.0117,552.4959 Q571.0117,549.3665 572.3315,547.7147 Q573.6514,546.0628 576.1582,546.0628 Q576.8638,546.0628 577.5112,546.2122 Q578.1587,546.3616 578.7231,546.6605 L578.7231,549.3831 Q578.0923,548.8021 577.4988,548.5323 Q576.9053,548.2625 576.2744,548.2625 Q574.9297,548.2625 574.2449,549.3292 Q573.5601,550.3958 573.5601,552.4959 Q573.5601,554.5877 574.2449,555.6544 Q574.9297,556.721 576.2744,556.721 Q576.9053,556.721 577.4988,556.4512 Q578.0923,556.1815 578.7231,555.6004 Z "/><text fill="#000000" font-family="sans-serif" font-size="12" lengthAdjust="spacingAndGlyphs" textLength="85" x="596.75" y="556.7152">SASFCommand</text><line style="stroke: #A80036; stroke-width: 1.5;" x1="497" x2="749" y1="568.18" y2="568.18"/><line style="stroke: #A80036; stroke-width: 1.5;" x1="497" x2="749" y1="576.18" y2="576.18"/><ellipse cx="507" cy="587.18" fill="#84BE84" rx="3" ry="3" style="stroke: #038048; stroke-width: 1.0;"/><text fill="#000000" font-family="sans-serif" font-size="11" lengthAdjust="spacingAndGlyphs" textLength="191" x="516" y="590.8148">SASFCommand(Time, String, String)</text><ellipse cx="507" cy="600.1351" fill="#84BE84" rx="3" ry="3" style="stroke: #038048; stroke-width: 1.0;"/><text fill="#000000" font-family="sans-serif" font-size="11" lengthAdjust="spacingAndGlyphs" textLength="228" x="516" y="603.7698">SASFCommand(Time, String, List&lt;String&gt;)</text><ellipse cx="507" cy="613.0902" fill="#84BE84" rx="3" ry="3" style="stroke: #038048; stroke-width: 1.0;"/><text fill="#000000" font-family="sans-serif" font-size="11" lengthAdjust="spacingAndGlyphs" textLength="121" x="516" y="616.7249">writeStepBody(): String</text></a><!--MD5=[99db29b329b77d7057b41975aa2c3a05]
class gov.nasa.jpl.sequencing.sasfSequencing.SASFSpawn--><a href="SASFSpawn.html" target="_top" title="SASFSpawn.html" xlink:actuate="onRequest" xlink:href="SASFSpawn.html" xlink:show="new" xlink:title="SASFSpawn.html" xlink:type="simple"><rect fill="#FEFECE" filter="url(#f1qwgi6q6w8nlc)" height="112.7754" id="gov.nasa.jpl.sequencing.sasfSequencing.SASFSpawn" style="stroke: #A80036; stroke-width: 1.5;" width="271" x="785.5" y="523.22"/><ellipse cx="885.25" cy="539.22" fill="#ADD1B2" rx="11" ry="11" style="stroke: #A80036; stroke-width: 1.0;"/><path d="M887.7231,545.3631 Q887.1421,545.6619 886.5029,545.8113 Q885.8638,545.9607 885.1582,545.9607 Q882.6514,545.9607 881.3315,544.3089 Q880.0117,542.657 880.0117,539.5359 Q880.0117,536.4065 881.3315,534.7547 Q882.6514,533.1028 885.1582,533.1028 Q885.8638,533.1028 886.5112,533.2522 Q887.1587,533.4016 887.7231,533.7005 L887.7231,536.4231 Q887.0923,535.8421 886.4988,535.5723 Q885.9053,535.3025 885.2744,535.3025 Q883.9297,535.3025 883.2449,536.3692 Q882.5601,537.4358 882.5601,539.5359 Q882.5601,541.6277 883.2449,542.6944 Q883.9297,543.761 885.2744,543.761 Q885.9053,543.761 886.4988,543.4912 Q887.0923,543.2215 887.7231,542.6404 Z "/><text fill="#000000" font-family="sans-serif" font-size="12" lengthAdjust="spacingAndGlyphs" textLength="63" x="905.75" y="543.7552">SASFSpawn</text><line style="stroke: #A80036; stroke-width: 1.5;" x1="786.5" x2="1055.5" y1="555.22" y2="555.22"/><line style="stroke: #A80036; stroke-width: 1.5;" x1="786.5" x2="1055.5" y1="563.22" y2="563.22"/><ellipse cx="796.5" cy="574.22" fill="#84BE84" rx="3" ry="3" style="stroke: #038048; stroke-width: 1.0;"/><text fill="#000000" font-family="sans-serif" font-size="11" lengthAdjust="spacingAndGlyphs" textLength="208" x="805.5" y="577.8548">SASFSpawn(Time, String, String, String)</text><ellipse cx="796.5" cy="587.1751" fill="#84BE84" rx="3" ry="3" style="stroke: #038048; stroke-width: 1.0;"/><text fill="#000000" font-family="sans-serif" font-size="11" lengthAdjust="spacingAndGlyphs" textLength="245" x="805.5" y="590.8098">SASFSpawn(Time, String, List&lt;String&gt;, String)</text><ellipse cx="796.5" cy="600.1302" fill="#84BE84" rx="3" ry="3" style="stroke: #038048; stroke-width: 1.0;"/><text fill="#000000" font-family="sans-serif" font-size="11" lengthAdjust="spacingAndGlyphs" textLength="170" x="805.5" y="603.7649">SASFSpawn(Time, String, String)</text><ellipse cx="796.5" cy="613.0852" fill="#84BE84" rx="3" ry="3" style="stroke: #038048; stroke-width: 1.0;"/><text fill="#000000" font-family="sans-serif" font-size="11" lengthAdjust="spacingAndGlyphs" textLength="207" x="805.5" y="616.72">SASFSpawn(Time, String, List&lt;String&gt;)</text><ellipse cx="796.5" cy="626.0403" fill="#84BE84" rx="3" ry="3" style="stroke: #038048; stroke-width: 1.0;"/><text fill="#000000" font-family="sans-serif" font-size="11" lengthAdjust="spacingAndGlyphs" textLength="121" x="805.5" y="629.6751">writeStepBody(): String</text></a><!--MD5=[f3aec2d56b4f28780a3e7409b7992654]
class gov.nasa.jpl.sequencing.sasfSequencing.SASFFunctions--><a href="SASFFunctions.html" target="_top" title="SASFFunctions.html" xlink:actuate="onRequest" xlink:href="SASFFunctions.html" xlink:show="new" xlink:title="SASFFunctions.html" xlink:type="simple"><rect fill="#FEFECE" filter="url(#f1qwgi6q6w8nlc)" height="60.9551" id="gov.nasa.jpl.sequencing.sasfSequencing.SASFFunctions" style="stroke: #A80036; stroke-width: 1.5;" width="200" x="786" y="337.49"/><ellipse cx="842.25" cy="353.49" fill="#ADD1B2" rx="11" ry="11" style="stroke: #A80036; stroke-width: 1.0;"/><path d="M844.7231,359.6331 Q844.1421,359.9319 843.5029,360.0813 Q842.8638,360.2307 842.1582,360.2307 Q839.6514,360.2307 838.3315,358.5789 Q837.0117,356.927 837.0117,353.8059 Q837.0117,350.6765 838.3315,349.0247 Q839.6514,347.3728 842.1582,347.3728 Q842.8638,347.3728 843.5112,347.5222 Q844.1587,347.6716 844.7231,347.9705 L844.7231,350.6931 Q844.0923,350.1121 843.4988,349.8423 Q842.9053,349.5725 842.2744,349.5725 Q840.9297,349.5725 840.2449,350.6392 Q839.5601,351.7058 839.5601,353.8059 Q839.5601,355.8977 840.2449,356.9644 Q840.9297,358.031 842.2744,358.031 Q842.9053,358.031 843.4988,357.7612 Q844.0923,357.4915 844.7231,356.9104 Z "/><text fill="#000000" font-family="sans-serif" font-size="12" lengthAdjust="spacingAndGlyphs" textLength="79" x="862.75" y="358.0252">SASFFunctions</text><line style="stroke: #A80036; stroke-width: 1.5;" x1="787" x2="985" y1="369.49" y2="369.49"/><line style="stroke: #A80036; stroke-width: 1.5;" x1="787" x2="985" y1="377.49" y2="377.49"/><ellipse cx="797" cy="388.49" fill="#84BE84" rx="3" ry="3" style="stroke: #038048; stroke-width: 1.0;"/><text fill="#000000" font-family="sans-serif" font-size="11" lengthAdjust="spacingAndGlyphs" text-decoration="underline" textLength="174" x="806" y="392.1248">formatArguments(String): String</text></a><!--MD5=[a9133e4d7f8aed467efe04c7a935579e]
class gov.nasa.jpl.sequencing.sasfSequencing.SASFSequence--><a href="SASFSequence.html" target="_top" title="SASFSequence.html" xlink:actuate="onRequest" xlink:href="SASFSequence.html" xlink:show="new" xlink:title="SASFSequence.html" xlink:type="simple"><rect fill="#FEFECE" filter="url(#f1qwgi6q6w8nlc)" height="112.7754" id="gov.nasa.jpl.sequencing.sasfSequencing.SASFSequence" style="stroke: #A80036; stroke-width: 1.5;" width="213" x="1020.5" y="311.58"/><ellipse cx="1082.25" cy="327.58" fill="#ADD1B2" rx="11" ry="11" style="stroke: #A80036; stroke-width: 1.0;"/><path d="M1084.7231,333.7231 Q1084.1421,334.0219 1083.5029,334.1713 Q1082.8638,334.3207 1082.1582,334.3207 Q1079.6514,334.3207 1078.3315,332.6689 Q1077.0117,331.017 1077.0117,327.8959 Q1077.0117,324.7665 1078.3315,323.1147 Q1079.6514,321.4628 1082.1582,321.4628 Q1082.8638,321.4628 1083.5112,321.6122 Q1084.1587,321.7616 1084.7231,322.0605 L1084.7231,324.7831 Q1084.0923,324.2021 1083.4988,323.9323 Q1082.9053,323.6625 1082.2744,323.6625 Q1080.9297,323.6625 1080.2449,324.7292 Q1079.5601,325.7958 1079.5601,327.8959 Q1079.5601,329.9877 1080.2449,331.0544 Q1080.9297,332.121 1082.2744,332.121 Q1082.9053,332.121 1083.4988,331.8512 Q1084.0923,331.5815 1084.7231,331.0004 Z "/><text fill="#000000" font-family="sans-serif" font-size="12" lengthAdjust="spacingAndGlyphs" textLength="81" x="1102.75" y="332.1152">SASFSequence</text><line style="stroke: #A80036; stroke-width: 1.5;" x1="1021.5" x2="1232.5" y1="343.58" y2="343.58"/><line style="stroke: #A80036; stroke-width: 1.5;" x1="1021.5" x2="1232.5" y1="351.58" y2="351.58"/><ellipse cx="1031.5" cy="362.58" fill="#84BE84" rx="3" ry="3" style="stroke: #038048; stroke-width: 1.0;"/><text fill="#000000" font-family="sans-serif" font-size="11" lengthAdjust="spacingAndGlyphs" textLength="187" x="1040.5" y="366.2148">SASFSequence(String, Time, String)</text><ellipse cx="1031.5" cy="375.5351" fill="#84BE84" rx="3" ry="3" style="stroke: #038048; stroke-width: 1.0;"/><text fill="#000000" font-family="sans-serif" font-size="11" lengthAdjust="spacingAndGlyphs" textLength="77" x="1040.5" y="379.1698">getEnd(): Time</text><polygon fill="#FFFF44" points="1031.5,383.4902,1035.5,387.4902,1031.5,391.4902,1027.5,387.4902" style="stroke: #B38D22; stroke-width: 1.0;"/><text fill="#000000" font-family="sans-serif" font-size="11" lengthAdjust="spacingAndGlyphs" textLength="161" x="1040.5" y="392.1249">writeSequenceHeader(): String</text><polygon fill="#FFFF44" points="1031.5,396.4452,1035.5,400.4452,1031.5,404.4452,1027.5,400.4452" style="stroke: #B38D22; stroke-width: 1.0;"/><text fill="#000000" font-family="sans-serif" font-size="11" lengthAdjust="spacingAndGlyphs" textLength="158" x="1040.5" y="405.08">writeSequenceFooter(): String</text><ellipse cx="1031.5" cy="414.4003" fill="#84BE84" rx="3" ry="3" style="stroke: #038048; stroke-width: 1.0;"/><text fill="#000000" font-family="sans-serif" font-size="11" lengthAdjust="spacingAndGlyphs" textLength="144" x="1040.5" y="418.0351">getSequenceName(): String</text></a><!--MD5=[18f9e0069e5ffb05d152a371dd824b86]
class gov.nasa.jpl.sequencing.sasfSequencing.SASFActivity--><a href="SASFActivity.html" target="_top" title="SASFActivity.html" xlink:actuate="onRequest" xlink:href="SASFActivity.html" xlink:show="new" xlink:title="SASFActivity.html" xlink:type="simple"><rect fill="#FEFECE" filter="url(#f1qwgi6q6w8nlc)" height="86.8652" id="gov.nasa.jpl.sequencing.sasfSequencing.SASFActivity" style="stroke: #A80036; stroke-width: 1.5;" width="277" x="1091.5" y="536.18"/><ellipse cx="1192.75" cy="552.18" fill="#ADD1B2" rx="11" ry="11" style="stroke: #A80036; stroke-width: 1.0;"/><path d="M1195.2231,558.3231 Q1194.6421,558.6219 1194.0029,558.7713 Q1193.3638,558.9207 1192.6582,558.9207 Q1190.1514,558.9207 1188.8315,557.2689 Q1187.5117,555.617 1187.5117,552.4959 Q1187.5117,549.3665 1188.8315,547.7147 Q1190.1514,546.0628 1192.6582,546.0628 Q1193.3638,546.0628 1194.0112,546.2122 Q1194.6587,546.3616 1195.2231,546.6605 L1195.2231,549.3831 Q1194.5923,548.8021 1193.9988,548.5323 Q1193.4053,548.2625 1192.7744,548.2625 Q1191.4297,548.2625 1190.7449,549.3292 Q1190.0601,550.3958 1190.0601,552.4959 Q1190.0601,554.5877 1190.7449,555.6544 Q1191.4297,556.721 1192.7744,556.721 Q1193.4053,556.721 1193.9988,556.4512 Q1194.5923,556.1815 1195.2231,555.6004 Z "/><text fill="#000000" font-family="sans-serif" font-size="12" lengthAdjust="spacingAndGlyphs" textLength="66" x="1213.25" y="556.7152">SASFActivity</text><line style="stroke: #A80036; stroke-width: 1.5;" x1="1092.5" x2="1367.5" y1="568.18" y2="568.18"/><line style="stroke: #A80036; stroke-width: 1.5;" x1="1092.5" x2="1367.5" y1="576.18" y2="576.18"/><ellipse cx="1102.5" cy="587.18" fill="#84BE84" rx="3" ry="3" style="stroke: #038048; stroke-width: 1.0;"/><text fill="#000000" font-family="sans-serif" font-size="11" lengthAdjust="spacingAndGlyphs" textLength="214" x="1111.5" y="590.8148">SASFActivity(Time, String, String, String)</text><ellipse cx="1102.5" cy="600.1351" fill="#84BE84" rx="3" ry="3" style="stroke: #038048; stroke-width: 1.0;"/><text fill="#000000" font-family="sans-serif" font-size="11" lengthAdjust="spacingAndGlyphs" textLength="251" x="1111.5" y="603.7698">SASFActivity(Time, String, String, List&lt;String&gt;)</text><ellipse cx="1102.5" cy="613.0902" fill="#84BE84" rx="3" ry="3" style="stroke: #038048; stroke-width: 1.0;"/><text fill="#000000" font-family="sans-serif" font-size="11" lengthAdjust="spacingAndGlyphs" textLength="121" x="1111.5" y="616.7249">writeStepBody(): String</text></a><!--MD5=[2f3ac6fd4240b393a90fa74c9cc87862]
class gov.nasa.jpl.sequencing.SequenceFragment--><a href="../SequenceFragment.html" target="_top" title="../SequenceFragment.html" xlink:actuate="onRequest" xlink:href="../SequenceFragment.html" xlink:show="new" xlink:title="../SequenceFragment.html" xlink:type="simple"><rect fill="#FEFECE" filter="url(#f1qwgi6q6w8nlc)" height="73.9102" id="gov.nasa.jpl.sequencing.SequenceFragment" style="stroke: #A80036; stroke-width: 1.5;" width="208" x="464" y="91.42"/><ellipse cx="509.25" cy="107.42" fill="#B4A7E5" rx="11" ry="11" style="stroke: #A80036; stroke-width: 1.0;"/><path d="M505.6777,103.6851 L505.6777,101.5269 L513.0571,101.5269 L513.0571,103.6851 L510.5918,103.6851 L510.5918,111.7618 L513.0571,111.7618 L513.0571,113.92 L505.6777,113.92 L505.6777,111.7618 L508.1431,111.7618 L508.1431,103.6851 Z "/><text fill="#000000" font-family="sans-serif" font-size="12" font-style="italic" lengthAdjust="spacingAndGlyphs" textLength="109" x="529.75" y="111.9552">SequenceFragment</text><line style="stroke: #A80036; stroke-width: 1.5;" x1="465" x2="671" y1="123.42" y2="123.42"/><line style="stroke: #A80036; stroke-width: 1.5;" x1="465" x2="671" y1="131.42" y2="131.42"/><ellipse cx="475" cy="142.42" fill="#84BE84" rx="3" ry="3" style="stroke: #038048; stroke-width: 1.0;"/><text fill="#000000" font-family="sans-serif" font-size="11" font-style="italic" lengthAdjust="spacingAndGlyphs" textLength="178" x="484" y="146.0548">toSequenceString(Integer): String</text><ellipse cx="475" cy="155.3751" fill="#84BE84" rx="3" ry="3" style="stroke: #038048; stroke-width: 1.0;"/><text fill="#000000" font-family="sans-serif" font-size="11" font-style="italic" lengthAdjust="spacingAndGlyphs" textLength="182" x="484" y="159.0098">getAbsoluteStartTime(Time): Time</text></a><!--MD5=[bcb6f485c9cbecd007ebd29171b363db]
class gov.nasa.jpl.sequencing.Sequence--><a href="../Sequence.html" target="_top" title="../Sequence.html" xlink:actuate="onRequest" xlink:href="../Sequence.html" xlink:show="new" xlink:title="../Sequence.html" xlink:type="simple"><rect fill="#FEFECE" filter="url(#f1qwgi6q6w8nlc)" height="138.6855" id="gov.nasa.jpl.sequencing.Sequence" style="stroke: #A80036; stroke-width: 1.5;" width="226" x="707" y="59.03"/><ellipse cx="788.25" cy="75.03" fill="#A9DCDF" rx="11" ry="11" style="stroke: #A80036; stroke-width: 1.0;"/><path d="M788.1133,70.3781 L786.9595,75.4499 L789.2754,75.4499 Z M786.6191,68.1369 L789.6157,68.1369 L792.9609,80.53 L790.5122,80.53 L789.7485,77.467 L786.4697,77.467 L785.7227,80.53 L783.2739,80.53 Z "/><text fill="#000000" font-family="sans-serif" font-size="12" font-style="italic" lengthAdjust="spacingAndGlyphs" textLength="55" x="808.75" y="79.5652">Sequence</text><line style="stroke: #A80036; stroke-width: 1.5;" x1="708" x2="932" y1="91.03" y2="91.03"/><polygon fill="none" points="718,97.03,722,101.03,718,105.03,714,101.03" style="stroke: #B38D22; stroke-width: 1.0;"/><text fill="#000000" font-family="sans-serif" font-size="11" lengthAdjust="spacingAndGlyphs" textLength="67" x="727" y="105.6648">seqid: String</text><polygon fill="none" points="718,109.9851,722,113.9851,718,117.9851,714,113.9851" style="stroke: #B38D22; stroke-width: 1.0;"/><text fill="#000000" font-family="sans-serif" font-size="11" lengthAdjust="spacingAndGlyphs" textLength="134" x="727" y="118.6198">sequenceStartTime: Time</text><polygon fill="none" points="718,122.9402,722,126.9402,718,130.9402,714,126.9402" style="stroke: #B38D22; stroke-width: 1.0;"/><text fill="#000000" font-family="sans-serif" font-size="11" lengthAdjust="spacingAndGlyphs" textLength="200" x="727" y="131.5749">fragments: List&lt;SequenceFragment&gt;</text><line style="stroke: #A80036; stroke-width: 1.5;" x1="708" x2="932" y1="137.8952" y2="137.8952"/><ellipse cx="718" cy="148.8952" fill="#84BE84" rx="3" ry="3" style="stroke: #038048; stroke-width: 1.0;"/><text fill="#000000" font-family="sans-serif" font-size="11" font-style="italic" lengthAdjust="spacingAndGlyphs" textLength="144" x="727" y="152.53">getSequenceName(): String</text><ellipse cx="718" cy="161.8503" fill="#84BE84" rx="3" ry="3" style="stroke: #038048; stroke-width: 1.0;"/><text fill="#000000" font-family="sans-serif" font-size="11" font-style="italic" lengthAdjust="spacingAndGlyphs" textLength="77" x="727" y="165.4851">getEnd(): Time</text><polygon fill="#FFFF44" points="718,169.8054,722,173.8054,718,177.8054,714,173.8054" style="stroke: #B38D22; stroke-width: 1.0;"/><text fill="#000000" font-family="sans-serif" font-size="11" font-style="italic" lengthAdjust="spacingAndGlyphs" textLength="161" x="727" y="178.4402">writeSequenceHeader(): String</text><polygon fill="#FFFF44" points="718,182.7605,722,186.7605,718,190.7605,714,186.7605" style="stroke: #B38D22; stroke-width: 1.0;"/><text fill="#000000" font-family="sans-serif" font-size="11" font-style="italic" lengthAdjust="spacingAndGlyphs" textLength="158" x="727" y="191.3952">writeSequenceFooter(): String</text></a><!--MD5=[32c0e4358667e9ee4b667fbdd4b5362a]
reverse link gov.nasa.jpl.sequencing.SequenceFragment to gov.nasa.jpl.sequencing.sasfSequencing.SASFRequest--><path d="M504.39,178.77 C467.17,207.66 419.09,245 375.57,278.79 " fill="none" id="gov.nasa.jpl.sequencing.SequenceFragment&lt;-gov.nasa.jpl.sequencing.sasfSequencing.SASFRequest" style="stroke: #A80036; stroke-width: 1.0; stroke-dasharray: 7.0,7.0;"/><polygon fill="none" points="499.91,173.39,520,166.65,508.49,184.44,499.91,173.39" style="stroke: #A80036; stroke-width: 1.0;"/><!--MD5=[39e74036a06490840c7d8b3bbdd8aa8d]
reverse link gov.nasa.jpl.sequencing.sasfSequencing.SASFStep to gov.nasa.jpl.sequencing.sasfSequencing.SASFNote--><path d="M501.28,463.31 C374.41,513.35 324.72,476.45 204,523.22 C190.96,528.28 177.67,535.12 165.38,542.28 " fill="none" id="gov.nasa.jpl.sequencing.sasfSequencing.SASFStep&lt;-gov.nasa.jpl.sequencing.sasfSequencing.SASFNote" style="stroke: #A80036; stroke-width: 1.0;"/><polygon fill="none" points="498.46,456.9,519.61,455.67,503.84,469.82,498.46,456.9" style="stroke: #A80036; stroke-width: 1.0;"/><!--MD5=[93e0f2114009efb6d95254f4199cb650]
reverse link gov.nasa.jpl.sequencing.sasfSequencing.SASFStep to gov.nasa.jpl.sequencing.sasfSequencing.SASFGround--><path d="M503.76,463.39 C461.3,493.56 428.55,516.74 401.42,535.93 " fill="none" id="gov.nasa.jpl.sequencing.sasfSequencing.SASFStep&lt;-gov.nasa.jpl.sequencing.sasfSequencing.SASFGround" style="stroke: #A80036; stroke-width: 1.0;"/><polygon fill="none" points="499.6,457.75,519.96,451.87,507.71,469.16,499.6,457.75" style="stroke: #A80036; stroke-width: 1.0;"/><!--MD5=[15fbd73b343f065012ffde2308a0b95e]
reverse link gov.nasa.jpl.sequencing.sasfSequencing.SASFStep to gov.nasa.jpl.sequencing.sasfSequencing.SASFCommand--><path d="M628.8,485.06 C627.68,503.21 626.58,520.91 625.65,535.94 " fill="none" id="gov.nasa.jpl.sequencing.sasfSequencing.SASFStep&lt;-gov.nasa.jpl.sequencing.sasfSequencing.SASFCommand" style="stroke: #A80036; stroke-width: 1.0;"/><polygon fill="none" points="621.81,484.71,630.03,465.18,635.78,485.58,621.81,484.71" style="stroke: #A80036; stroke-width: 1.0;"/><!--MD5=[62856b26dd60c1abd3cc8003ea923b24]
reverse link gov.nasa.jpl.sequencing.sasfSequencing.SASFStep to gov.nasa.jpl.sequencing.sasfSequencing.SASFSpawn--><path d="M768.01,466.08 C794.54,485.59 821.56,505.46 845.36,522.97 " fill="none" id="gov.nasa.jpl.sequencing.sasfSequencing.SASFStep&lt;-gov.nasa.jpl.sequencing.sasfSequencing.SASFSpawn" style="stroke: #A80036; stroke-width: 1.0;"/><polygon fill="none" points="763.87,471.72,751.91,454.23,772.17,460.44,763.87,471.72" style="stroke: #A80036; stroke-width: 1.0;"/><!--MD5=[884471ca2250dad9125c706efba5fbde]
reverse link gov.nasa.jpl.sequencing.Sequence to gov.nasa.jpl.sequencing.sasfSequencing.SASFSequence--><path d="M951.87,194.06 C970.02,205.01 987.93,217 1004,229.72 C1033.73,253.25 1062.29,284.41 1084.39,311.09 " fill="none" id="gov.nasa.jpl.sequencing.Sequence&lt;-gov.nasa.jpl.sequencing.sasfSequencing.SASFSequence" style="stroke: #A80036; stroke-width: 1.0;"/><polygon fill="none" points="948.37,200.13,934.61,184.01,955.42,188.03,948.37,200.13" style="stroke: #A80036; stroke-width: 1.0;"/><!--MD5=[dab15a8564c05d131c12c605c067774d]
reverse link gov.nasa.jpl.sequencing.sasfSequencing.SASFStep to gov.nasa.jpl.sequencing.sasfSequencing.SASFActivity--><path d="M770.64,463.36 C899.7,515.27 946.6,488.32 1074,523.22 C1087.44,526.91 1101.39,531.18 1115.17,535.69 " fill="none" id="gov.nasa.jpl.sequencing.sasfSequencing.SASFStep&lt;-gov.nasa.jpl.sequencing.sasfSequencing.SASFActivity" style="stroke: #A80036; stroke-width: 1.0;"/><polygon fill="none" points="768.11,469.89,752.38,455.7,773.53,456.98,768.11,469.89" style="stroke: #A80036; stroke-width: 1.0;"/><text fill="#888888" font-family="sans-serif" font-size="10" lengthAdjust="spacingAndGlyphs" textLength="182" x="618" y="687.668">UMLDoclet 2.0.8, PlantUML 1.2020.01</text><!--MD5=[4dabb75a799501b58b83a6ab79a4fe97]
@startuml
    namespace gov.nasa.jpl.sequencing.sasfSequencing {

        class SASFRequest [[SASFRequest.html]] {
            +SASFRequest(String, Time, String, String, String, String, String, List<SASFStep>)
            +SASFRequest(String, Time, String, String, String, String, List<SASFStep>)
            +SASFRequest(String, Time, String, String, String, List<SASFStep>)
            +SASFRequest(String, Time, String, String, String, String)
            +SASFRequest(String, Time, String, String, String)
            +SASFRequest(String, Time, String, String, String, String, String, SASFStep)
            +SASFRequest(String, Time, String, String, String, SASFStep)
            +toSequenceString(Integer): String
            +getAbsoluteStartTime(Time): Time
            +addSASFStep(SASFStep): void
        }

        abstract class SASFStep [[SASFStep.html]] {
            #stepType: String
            #stepStart: Time
            #comment: String
            #ntext: String
            #SASFStep(String, Time)
            {static} #formatStepArgs(List<String>): String
            +writeStepHeader(Integer, Time): String
            {abstract} +writeStepBody(): String
            +writeStepFooter(): String
            +addComment(String): void
            +addNText(String): void
        }

        class SASFNote [[SASFNote.html]] {
            +SASFNote(Time, String)
            +writeStepBody(): String
        }

        class SASFGround [[SASFGround.html]] {
            +SASFGround(Time, String, String)
            +SASFGround(Time, String, List<String>)
            +writeStepBody(): String
        }

        class SASFCommand [[SASFCommand.html]] {
            +SASFCommand(Time, String, String)
            +SASFCommand(Time, String, List<String>)
            +writeStepBody(): String
        }

        class SASFSpawn [[SASFSpawn.html]] {
            +SASFSpawn(Time, String, String, String)
            +SASFSpawn(Time, String, List<String>, String)
            +SASFSpawn(Time, String, String)
            +SASFSpawn(Time, String, List<String>)
            +writeStepBody(): String
        }

        class SASFFunctions [[SASFFunctions.html]] {
            {static} +formatArguments(String): String
        }

        class SASFSequence [[SASFSequence.html]] {
            +SASFSequence(String, Time, String)
            +getEnd(): Time
            #writeSequenceHeader(): String
            #writeSequenceFooter(): String
            +getSequenceName(): String
        }

        class SASFActivity [[SASFActivity.html]] {
            +SASFActivity(Time, String, String, String)
            +SASFActivity(Time, String, String, List<String>)
            +writeStepBody(): String
        }

        gov.nasa.jpl.sequencing.SequenceFragment <|.. SASFRequest
        SASFStep <|- - SASFNote
        SASFStep <|- - SASFGround
        SASFStep <|- - SASFCommand
        SASFStep <|- - SASFSpawn
        gov.nasa.jpl.sequencing.Sequence <|- - SASFSequence
        SASFStep <|- - SASFActivity
    }

    namespace gov.nasa.jpl.sequencing {
        interface SequenceFragment [[../SequenceFragment.html]] {
            {abstract} +toSequenceString(Integer): String
            {abstract} +getAbsoluteStartTime(Time): Time
        }
        abstract class Sequence [[../Sequence.html]] {
            #seqid: String
            #sequenceStartTime: Time
            #fragments: List<SequenceFragment>
            {abstract} +getSequenceName(): String
            {abstract} +getEnd(): Time
            {abstract} #writeSequenceHeader(): String
            {abstract} #writeSequenceFooter(): String
        }
    }

    center footer UMLDoclet 2.0.8, PlantUML 1.2020.01
@enduml

PlantUML version 1.2020.01(Sun Feb 16 09:40:32 PST 2020)
(APACHE source distribution)
Java Runtime: OpenJDK Runtime Environment
JVM: OpenJDK 64-Bit Server VM
Java Version: 17.0.6+10
Operating System: Mac OS X
Default Encoding: UTF-8
Language: en
Country: US
--></g></svg>