<?xml version="1.0" encoding="UTF-8" standalone="no"?><svg xmlns="http://www.w3.org/2000/svg" xmlns:xlink="http://www.w3.org/1999/xlink" contentScriptType="application/ecmascript" contentStyleType="text/css" height="245px" preserveAspectRatio="none" style="width:257px;height:245px;" version="1.1" viewBox="0 0 257 245" width="257px" zoomAndPan="magnify"><defs><filter height="300%" id="f1du4987qbjvga" width="300%" x="-1" y="-1"><feGaussianBlur result="blurOut" stdDeviation="2.0"/><feColorMatrix in="blurOut" result="blurOut2" type="matrix" values="0 0 0 0 0 0 0 0 0 0 0 0 0 0 0 0 0 0 .4 0"/><feOffset dx="4.0" dy="4.0" in="blurOut2" result="blurOut3"/><feBlend in="SourceGraphic" in2="blurOut3" mode="normal"/></filter></defs><g><!--MD5=[ebc8ce424d150b041e9d3fcefbad64b1]
class gov.nasa.jpl.sequencing.sasfSequencing.SASFGround--><a href="SASFGround.html" target="_top" title="SASFGround.html" xlink:actuate="onRequest" xlink:href="SASFGround.html" xlink:show="new" xlink:title="SASFGround.html" xlink:type="simple"><rect fill="#FEFECE" filter="url(#f1du4987qbjvga)" height="85.1309" id="gov.nasa.jpl.sequencing.sasfSequencing.SASFGround" style="stroke: #A80036; stroke-width: 1.5;" width="240" x="6" y="126.87"/><ellipse cx="27.3" cy="146.0028" fill="#ADD1B2" rx="11" ry="11" style="stroke: #A80036; stroke-width: 1.0;"/><path d="M29.7731,152.1459 Q29.1921,152.4447 28.5529,152.5941 Q27.9138,152.7435 27.2082,152.7435 Q24.7014,152.7435 23.3815,151.0917 Q22.0617,149.4398 22.0617,146.3187 Q22.0617,143.1893 23.3815,141.5375 Q24.7014,139.8856 27.2082,139.8856 Q27.9138,139.8856 28.5612,140.035 Q29.2087,140.1845 29.7731,140.4833 L29.7731,143.2059 Q29.1423,142.6249 28.5488,142.3551 Q27.9553,142.0853 27.3244,142.0853 Q25.9797,142.0853 25.2949,143.152 Q24.6101,144.2186 24.6101,146.3187 Q24.6101,148.4105 25.2949,149.4772 Q25.9797,150.5438 27.3244,150.5438 Q27.9553,150.5438 28.5488,150.2741 Q29.1423,150.0043 29.7731,149.4232 Z "/><text fill="#000000" font-family="sans-serif" font-size="14" lengthAdjust="spacingAndGlyphs" textLength="86" x="96.7" y="145.4052">SASFGround</text><text fill="#000000" font-family="sans-serif" font-size="10" lengthAdjust="spacingAndGlyphs" textLength="194" x="42.7" y="158.0263">gov.nasa.jpl.sequencing.sasfSequencing</text><line style="stroke: #A80036; stroke-width: 1.5;" x1="7" x2="245" y1="165.1356" y2="165.1356"/><ellipse cx="17" cy="176.1356" fill="#84BE84" rx="3" ry="3" style="stroke: #038048; stroke-width: 1.0;"/><text fill="#000000" font-family="sans-serif" font-size="11" lengthAdjust="spacingAndGlyphs" textLength="177" x="26" y="179.7704">SASFGround(Time, String, String)</text><ellipse cx="17" cy="189.0907" fill="#84BE84" rx="3" ry="3" style="stroke: #038048; stroke-width: 1.0;"/><text fill="#000000" font-family="sans-serif" font-size="11" lengthAdjust="spacingAndGlyphs" textLength="214" x="26" y="192.7255">SASFGround(Time, String, List&lt;String&gt;)</text><ellipse cx="17" cy="202.0458" fill="#84BE84" rx="3" ry="3" style="stroke: #038048; stroke-width: 1.0;"/><text fill="#000000" font-family="sans-serif" font-size="11" lengthAdjust="spacingAndGlyphs" textLength="121" x="26" y="205.6805">writeStepBody(): String</text></a><!--MD5=[ebc6d0b9ed7860b6b20f51e84cf9c1e4]
class gov.nasa.jpl.sequencing.sasfSequencing.SASFStep--><a href="SASFStep.html" target="_top" title="SASFStep.html" xlink:actuate="onRequest" xlink:href="SASFStep.html" xlink:show="new" xlink:title="SASFStep.html" xlink:type="simple"><rect fill="#FEFECE" filter="url(#f1du4987qbjvga)" height="59.2207" id="gov.nasa.jpl.sequencing.sasfSequencing.SASFStep" style="stroke: #A80036; stroke-width: 1.5;" width="226" x="13" y="7.65"/><ellipse cx="28" cy="26.7828" fill="#A9DCDF" rx="11" ry="11" style="stroke: #A80036; stroke-width: 1.0;"/><path d="M27.8633,22.131 L26.7095,27.2027 L29.0254,27.2027 Z M26.3691,19.8897 L29.3657,19.8897 L32.7109,32.2828 L30.2622,32.2828 L29.4985,29.2198 L26.2197,29.2198 L25.4727,32.2828 L23.0239,32.2828 Z "/><text fill="#000000" font-family="sans-serif" font-size="14" font-style="italic" lengthAdjust="spacingAndGlyphs" textLength="64" x="107" y="26.1852">SASFStep</text><text fill="#000000" font-family="sans-serif" font-size="10" font-style="italic" lengthAdjust="spacingAndGlyphs" textLength="194" x="42" y="38.8063">gov.nasa.jpl.sequencing.sasfSequencing</text><line style="stroke: #A80036; stroke-width: 1.5;" x1="14" x2="238" y1="45.9156" y2="45.9156"/><ellipse cx="24" cy="56.9156" fill="#84BE84" rx="3" ry="3" style="stroke: #038048; stroke-width: 1.0;"/><text fill="#000000" font-family="sans-serif" font-size="11" font-style="italic" lengthAdjust="spacingAndGlyphs" textLength="121" x="33" y="60.5504">writeStepBody(): String</text></a><!--MD5=[93e0f2114009efb6d95254f4199cb650]
reverse link gov.nasa.jpl.sequencing.sasfSequencing.SASFStep to gov.nasa.jpl.sequencing.sasfSequencing.SASFGround--><path d="M126,88.59 C126,101.22 126,114.63 126,126.78 " fill="none" id="gov.nasa.jpl.sequencing.sasfSequencing.SASFStep&lt;-gov.nasa.jpl.sequencing.sasfSequencing.SASFGround" style="stroke: #A80036; stroke-width: 1.0;"/><polygon fill="none" points="119,88.66,126,68.66,133,88.66,119,88.66" style="stroke: #A80036; stroke-width: 1.0;"/><text fill="#888888" font-family="sans-serif" font-size="10" lengthAdjust="spacingAndGlyphs" textLength="182" x="41" y="231.668">UMLDoclet 2.0.8, PlantUML 1.2020.01</text><!--MD5=[e0f57510ce09b5df67390dedbb296d34]
@startuml
    set namespaceSeparator none
    hide empty fields
    hide empty methods

    class "<size:14>SASFGround\n<size:10>gov.nasa.jpl.sequencing.sasfSequencing" as gov.nasa.jpl.sequencing.sasfSequencing.SASFGround [[SASFGround.html]] {
        +SASFGround(Time, String, String)
        +SASFGround(Time, String, List<String>)
        +writeStepBody(): String
    }

    abstract class "<size:14>SASFStep\n<size:10>gov.nasa.jpl.sequencing.sasfSequencing" as gov.nasa.jpl.sequencing.sasfSequencing.SASFStep [[SASFStep.html]] {
        {abstract} +writeStepBody(): String
    }

    gov.nasa.jpl.sequencing.sasfSequencing.SASFStep <|- - gov.nasa.jpl.sequencing.sasfSequencing.SASFGround

    center footer UMLDoclet 2.0.8, PlantUML 1.2020.01
@enduml

PlantUML version 1.2020.01(Sun Feb 16 09:40:32 PST 2020)
(APACHE source distribution)
Java Runtime: OpenJDK Runtime Environment
JVM: OpenJDK 64-Bit Server VM
Java Version: 17.0.6+10
Operating System: Mac OS X
Default Encoding: UTF-8
Language: en
Country: US
--></g></svg>