<?xml version="1.0" encoding="UTF-8" standalone="no"?><svg xmlns="http://www.w3.org/2000/svg" xmlns:xlink="http://www.w3.org/1999/xlink" contentScriptType="application/ecmascript" contentStyleType="text/css" height="271px" preserveAspectRatio="none" style="width:288px;height:271px;" version="1.1" viewBox="0 0 288 271" width="288px" zoomAndPan="magnify"><defs><filter height="300%" id="fvom4vxw4b4vy" width="300%" x="-1" y="-1"><feGaussianBlur result="blurOut" stdDeviation="2.0"/><feColorMatrix in="blurOut" result="blurOut2" type="matrix" values="0 0 0 0 0 0 0 0 0 0 0 0 0 0 0 0 0 0 .4 0"/><feOffset dx="4.0" dy="4.0" in="blurOut2" result="blurOut3"/><feBlend in="SourceGraphic" in2="blurOut3" mode="normal"/></filter></defs><g><!--MD5=[99db29b329b77d7057b41975aa2c3a05]
class gov.nasa.jpl.sequencing.sasfSequencing.SASFSpawn--><a href="SASFSpawn.html" target="_top" title="SASFSpawn.html" xlink:actuate="onRequest" xlink:href="SASFSpawn.html" xlink:show="new" xlink:title="SASFSpawn.html" xlink:type="simple"><rect fill="#FEFECE" filter="url(#fvom4vxw4b4vy)" height="111.041" id="gov.nasa.jpl.sequencing.sasfSequencing.SASFSpawn" style="stroke: #A80036; stroke-width: 1.5;" width="271" x="6" y="126.96"/><ellipse cx="41.25" cy="146.0928" fill="#ADD1B2" rx="11" ry="11" style="stroke: #A80036; stroke-width: 1.0;"/><path d="M43.7231,152.2359 Q43.1421,152.5347 42.5029,152.6841 Q41.8638,152.8335 41.1582,152.8335 Q38.6514,152.8335 37.3315,151.1817 Q36.0117,149.5298 36.0117,146.4087 Q36.0117,143.2793 37.3315,141.6275 Q38.6514,139.9756 41.1582,139.9756 Q41.8638,139.9756 42.5112,140.125 Q43.1587,140.2745 43.7231,140.5733 L43.7231,143.2959 Q43.0923,142.7149 42.4988,142.4451 Q41.9053,142.1753 41.2744,142.1753 Q39.9297,142.1753 39.2449,143.242 Q38.5601,144.3086 38.5601,146.4087 Q38.5601,148.5005 39.2449,149.5672 Q39.9297,150.6338 41.2744,150.6338 Q41.9053,150.6338 42.4988,150.3641 Q43.0923,150.0943 43.7231,149.5132 Z "/><text fill="#000000" font-family="sans-serif" font-size="14" lengthAdjust="spacingAndGlyphs" textLength="79" x="117.25" y="145.4952">SASFSpawn</text><text fill="#000000" font-family="sans-serif" font-size="10" lengthAdjust="spacingAndGlyphs" textLength="194" x="59.75" y="158.1162">gov.nasa.jpl.sequencing.sasfSequencing</text><line style="stroke: #A80036; stroke-width: 1.5;" x1="7" x2="276" y1="165.2256" y2="165.2256"/><ellipse cx="17" cy="176.2256" fill="#84BE84" rx="3" ry="3" style="stroke: #038048; stroke-width: 1.0;"/><text fill="#000000" font-family="sans-serif" font-size="11" lengthAdjust="spacingAndGlyphs" textLength="208" x="26" y="179.8604">SASFSpawn(Time, String, String, String)</text><ellipse cx="17" cy="189.1807" fill="#84BE84" rx="3" ry="3" style="stroke: #038048; stroke-width: 1.0;"/><text fill="#000000" font-family="sans-serif" font-size="11" lengthAdjust="spacingAndGlyphs" textLength="245" x="26" y="192.8155">SASFSpawn(Time, String, List&lt;String&gt;, String)</text><ellipse cx="17" cy="202.1358" fill="#84BE84" rx="3" ry="3" style="stroke: #038048; stroke-width: 1.0;"/><text fill="#000000" font-family="sans-serif" font-size="11" lengthAdjust="spacingAndGlyphs" textLength="170" x="26" y="205.7705">SASFSpawn(Time, String, String)</text><ellipse cx="17" cy="215.0909" fill="#84BE84" rx="3" ry="3" style="stroke: #038048; stroke-width: 1.0;"/><text fill="#000000" font-family="sans-serif" font-size="11" lengthAdjust="spacingAndGlyphs" textLength="207" x="26" y="218.7256">SASFSpawn(Time, String, List&lt;String&gt;)</text><ellipse cx="17" cy="228.0459" fill="#84BE84" rx="3" ry="3" style="stroke: #038048; stroke-width: 1.0;"/><text fill="#000000" font-family="sans-serif" font-size="11" lengthAdjust="spacingAndGlyphs" textLength="121" x="26" y="231.6807">writeStepBody(): String</text></a><!--MD5=[ebc6d0b9ed7860b6b20f51e84cf9c1e4]
class gov.nasa.jpl.sequencing.sasfSequencing.SASFStep--><a href="SASFStep.html" target="_top" title="SASFStep.html" xlink:actuate="onRequest" xlink:href="SASFStep.html" xlink:show="new" xlink:title="SASFStep.html" xlink:type="simple"><rect fill="#FEFECE" filter="url(#fvom4vxw4b4vy)" height="59.2207" id="gov.nasa.jpl.sequencing.sasfSequencing.SASFStep" style="stroke: #A80036; stroke-width: 1.5;" width="226" x="28.5" y="7.74"/><ellipse cx="43.5" cy="26.8728" fill="#A9DCDF" rx="11" ry="11" style="stroke: #A80036; stroke-width: 1.0;"/><path d="M43.3633,22.221 L42.2095,27.2927 L44.5254,27.2927 Z M41.8691,19.9797 L44.8657,19.9797 L48.2109,32.3728 L45.7622,32.3728 L44.9985,29.3098 L41.7197,29.3098 L40.9727,32.3728 L38.5239,32.3728 Z "/><text fill="#000000" font-family="sans-serif" font-size="14" font-style="italic" lengthAdjust="spacingAndGlyphs" textLength="64" x="122.5" y="26.2752">SASFStep</text><text fill="#000000" font-family="sans-serif" font-size="10" font-style="italic" lengthAdjust="spacingAndGlyphs" textLength="194" x="57.5" y="38.8963">gov.nasa.jpl.sequencing.sasfSequencing</text><line style="stroke: #A80036; stroke-width: 1.5;" x1="29.5" x2="253.5" y1="46.0056" y2="46.0056"/><ellipse cx="39.5" cy="57.0056" fill="#84BE84" rx="3" ry="3" style="stroke: #038048; stroke-width: 1.0;"/><text fill="#000000" font-family="sans-serif" font-size="11" font-style="italic" lengthAdjust="spacingAndGlyphs" textLength="121" x="48.5" y="60.6404">writeStepBody(): String</text></a><!--MD5=[62856b26dd60c1abd3cc8003ea923b24]
reverse link gov.nasa.jpl.sequencing.sasfSequencing.SASFStep to gov.nasa.jpl.sequencing.sasfSequencing.SASFSpawn--><path d="M141.5,88.65 C141.5,100.9 141.5,114.05 141.5,126.5 " fill="none" id="gov.nasa.jpl.sequencing.sasfSequencing.SASFStep&lt;-gov.nasa.jpl.sequencing.sasfSequencing.SASFSpawn" style="stroke: #A80036; stroke-width: 1.0;"/><polygon fill="none" points="134.5,88.83,141.5,68.83,148.5,88.83,134.5,88.83" style="stroke: #A80036; stroke-width: 1.0;"/><text fill="#888888" font-family="sans-serif" font-size="10" lengthAdjust="spacingAndGlyphs" textLength="182" x="56.5" y="257.668">UMLDoclet 2.0.8, PlantUML 1.2020.01</text><!--MD5=[4150ac6ad152331daa70097941c4cb1b]
@startuml
    set namespaceSeparator none
    hide empty fields
    hide empty methods

    class "<size:14>SASFSpawn\n<size:10>gov.nasa.jpl.sequencing.sasfSequencing" as gov.nasa.jpl.sequencing.sasfSequencing.SASFSpawn [[SASFSpawn.html]] {
        +SASFSpawn(Time, String, String, String)
        +SASFSpawn(Time, String, List<String>, String)
        +SASFSpawn(Time, String, String)
        +SASFSpawn(Time, String, List<String>)
        +writeStepBody(): String
    }

    abstract class "<size:14>SASFStep\n<size:10>gov.nasa.jpl.sequencing.sasfSequencing" as gov.nasa.jpl.sequencing.sasfSequencing.SASFStep [[SASFStep.html]] {
        {abstract} +writeStepBody(): String
    }

    gov.nasa.jpl.sequencing.sasfSequencing.SASFStep <|- - gov.nasa.jpl.sequencing.sasfSequencing.SASFSpawn

    center footer UMLDoclet 2.0.8, PlantUML 1.2020.01
@enduml

PlantUML version 1.2020.01(Sun Feb 16 09:40:32 PST 2020)
(APACHE source distribution)
Java Runtime: OpenJDK Runtime Environment
JVM: OpenJDK 64-Bit Server VM
Java Version: 17.0.6+10
Operating System: Mac OS X
Default Encoding: UTF-8
Language: en
Country: US
--></g></svg>