<?xml version="1.0" encoding="UTF-8" standalone="no"?><svg xmlns="http://www.w3.org/2000/svg" xmlns:xlink="http://www.w3.org/1999/xlink" contentScriptType="application/ecmascript" contentStyleType="text/css" height="310px" preserveAspectRatio="none" style="width:243px;height:310px;" version="1.1" viewBox="0 0 243 310" width="243px" zoomAndPan="magnify"><defs><filter height="300%" id="f18azir2fm8bs0" width="300%" x="-1" y="-1"><feGaussianBlur result="blurOut" stdDeviation="2.0"/><feColorMatrix in="blurOut" result="blurOut2" type="matrix" values="0 0 0 0 0 0 0 0 0 0 0 0 0 0 0 0 0 0 .4 0"/><feOffset dx="4.0" dy="4.0" in="blurOut2" result="blurOut3"/><feBlend in="SourceGraphic" in2="blurOut3" mode="normal"/></filter></defs><g><!--MD5=[a9133e4d7f8aed467efe04c7a935579e]
class gov.nasa.jpl.sequencing.sasfSequencing.SASFSequence--><a href="SASFSequence.html" target="_top" title="SASFSequence.html" xlink:actuate="onRequest" xlink:href="SASFSequence.html" xlink:show="new" xlink:title="SASFSequence.html" xlink:type="simple"><rect fill="#FEFECE" filter="url(#f18azir2fm8bs0)" height="111.041" id="gov.nasa.jpl.sequencing.sasfSequencing.SASFSequence" style="stroke: #A80036; stroke-width: 1.5;" width="226" x="6" y="165.96"/><ellipse cx="21" cy="185.0928" fill="#ADD1B2" rx="11" ry="11" style="stroke: #A80036; stroke-width: 1.0;"/><path d="M23.4731,191.2359 Q22.8921,191.5347 22.2529,191.6841 Q21.6138,191.8335 20.9082,191.8335 Q18.4014,191.8335 17.0815,190.1817 Q15.7617,188.5298 15.7617,185.4087 Q15.7617,182.2793 17.0815,180.6275 Q18.4014,178.9756 20.9082,178.9756 Q21.6138,178.9756 22.2612,179.125 Q22.9087,179.2745 23.4731,179.5733 L23.4731,182.2959 Q22.8423,181.7149 22.2488,181.4451 Q21.6553,181.1753 21.0244,181.1753 Q19.6797,181.1753 18.9949,182.242 Q18.3101,183.3086 18.3101,185.4087 Q18.3101,187.5005 18.9949,188.5672 Q19.6797,189.6338 21.0244,189.6338 Q21.6553,189.6338 22.2488,189.3641 Q22.8423,189.0943 23.4731,188.5132 Z "/><text fill="#000000" font-family="sans-serif" font-size="14" lengthAdjust="spacingAndGlyphs" textLength="100" x="82" y="184.4952">SASFSequence</text><text fill="#000000" font-family="sans-serif" font-size="10" lengthAdjust="spacingAndGlyphs" textLength="194" x="35" y="197.1162">gov.nasa.jpl.sequencing.sasfSequencing</text><line style="stroke: #A80036; stroke-width: 1.5;" x1="7" x2="231" y1="204.2256" y2="204.2256"/><ellipse cx="17" cy="215.2256" fill="#84BE84" rx="3" ry="3" style="stroke: #038048; stroke-width: 1.0;"/><text fill="#000000" font-family="sans-serif" font-size="11" lengthAdjust="spacingAndGlyphs" textLength="187" x="26" y="218.8604">SASFSequence(String, Time, String)</text><ellipse cx="17" cy="228.1807" fill="#84BE84" rx="3" ry="3" style="stroke: #038048; stroke-width: 1.0;"/><text fill="#000000" font-family="sans-serif" font-size="11" lengthAdjust="spacingAndGlyphs" textLength="77" x="26" y="231.8155">getEnd(): Time</text><polygon fill="#FFFF44" points="17,236.1358,21,240.1358,17,244.1358,13,240.1358" style="stroke: #B38D22; stroke-width: 1.0;"/><text fill="#000000" font-family="sans-serif" font-size="11" lengthAdjust="spacingAndGlyphs" textLength="161" x="26" y="244.7705">writeSequenceHeader(): String</text><polygon fill="#FFFF44" points="17,249.0909,21,253.0909,17,257.0909,13,253.0909" style="stroke: #B38D22; stroke-width: 1.0;"/><text fill="#000000" font-family="sans-serif" font-size="11" lengthAdjust="spacingAndGlyphs" textLength="158" x="26" y="257.7256">writeSequenceFooter(): String</text><ellipse cx="17" cy="267.0459" fill="#84BE84" rx="3" ry="3" style="stroke: #038048; stroke-width: 1.0;"/><text fill="#000000" font-family="sans-serif" font-size="11" lengthAdjust="spacingAndGlyphs" textLength="144" x="26" y="270.6807">getSequenceName(): String</text></a><!--MD5=[bcb6f485c9cbecd007ebd29171b363db]
class gov.nasa.jpl.sequencing.Sequence--><a href="../Sequence.html" target="_top" title="../Sequence.html" xlink:actuate="onRequest" xlink:href="../Sequence.html" xlink:show="new" xlink:title="../Sequence.html" xlink:type="simple"><rect fill="#FEFECE" filter="url(#f18azir2fm8bs0)" height="98.0859" id="gov.nasa.jpl.sequencing.Sequence" style="stroke: #A80036; stroke-width: 1.5;" width="187" x="25.5" y="7.87"/><ellipse cx="58.05" cy="27.0028" fill="#A9DCDF" rx="11" ry="11" style="stroke: #A80036; stroke-width: 1.0;"/><path d="M57.9133,22.351 L56.7595,27.4227 L59.0754,27.4227 Z M56.4191,20.1097 L59.4157,20.1097 L62.7609,32.5028 L60.3122,32.5028 L59.5485,29.4398 L56.2697,29.4398 L55.5227,32.5028 L53.0739,32.5028 Z "/><text fill="#000000" font-family="sans-serif" font-size="14" font-style="italic" lengthAdjust="spacingAndGlyphs" textLength="66" x="100.95" y="26.4052">Sequence</text><text fill="#000000" font-family="sans-serif" font-size="10" font-style="italic" lengthAdjust="spacingAndGlyphs" textLength="116" x="75.95" y="39.0263">gov.nasa.jpl.sequencing</text><line style="stroke: #A80036; stroke-width: 1.5;" x1="26.5" x2="211.5" y1="46.1356" y2="46.1356"/><ellipse cx="36.5" cy="57.1356" fill="#84BE84" rx="3" ry="3" style="stroke: #038048; stroke-width: 1.0;"/><text fill="#000000" font-family="sans-serif" font-size="11" font-style="italic" lengthAdjust="spacingAndGlyphs" textLength="144" x="45.5" y="60.7704">getSequenceName(): String</text><ellipse cx="36.5" cy="70.0907" fill="#84BE84" rx="3" ry="3" style="stroke: #038048; stroke-width: 1.0;"/><text fill="#000000" font-family="sans-serif" font-size="11" font-style="italic" lengthAdjust="spacingAndGlyphs" textLength="77" x="45.5" y="73.7255">getEnd(): Time</text><polygon fill="#FFFF44" points="36.5,78.0458,40.5,82.0458,36.5,86.0458,32.5,82.0458" style="stroke: #B38D22; stroke-width: 1.0;"/><text fill="#000000" font-family="sans-serif" font-size="11" font-style="italic" lengthAdjust="spacingAndGlyphs" textLength="161" x="45.5" y="86.6805">writeSequenceHeader(): String</text><polygon fill="#FFFF44" points="36.5,91.0009,40.5,95.0009,36.5,99.0009,32.5,95.0009" style="stroke: #B38D22; stroke-width: 1.0;"/><text fill="#000000" font-family="sans-serif" font-size="11" font-style="italic" lengthAdjust="spacingAndGlyphs" textLength="158" x="45.5" y="99.6356">writeSequenceFooter(): String</text></a><!--MD5=[884471ca2250dad9125c706efba5fbde]
reverse link gov.nasa.jpl.sequencing.Sequence to gov.nasa.jpl.sequencing.sasfSequencing.SASFSequence--><path d="M119,127.64 C119,140.3 119,153.33 119,165.49 " fill="none" id="gov.nasa.jpl.sequencing.Sequence&lt;-gov.nasa.jpl.sequencing.sasfSequencing.SASFSequence" style="stroke: #A80036; stroke-width: 1.0;"/><polygon fill="none" points="112,127.76,119,107.76,126,127.76,112,127.76" style="stroke: #A80036; stroke-width: 1.0;"/><text fill="#888888" font-family="sans-serif" font-size="10" lengthAdjust="spacingAndGlyphs" textLength="182" x="34" y="296.668">UMLDoclet 2.0.8, PlantUML 1.2020.01</text><!--MD5=[0bf0502d1e7682a1c36e3a59c04003bf]
@startuml
    set namespaceSeparator none
    hide empty fields
    hide empty methods

    class "<size:14>SASFSequence\n<size:10>gov.nasa.jpl.sequencing.sasfSequencing" as gov.nasa.jpl.sequencing.sasfSequencing.SASFSequence [[SASFSequence.html]] {
        +SASFSequence(String, Time, String)
        +getEnd(): Time
        #writeSequenceHeader(): String
        #writeSequenceFooter(): String
        +getSequenceName(): String
    }

    abstract class "<size:14>Sequence\n<size:10>gov.nasa.jpl.sequencing" as gov.nasa.jpl.sequencing.Sequence [[../Sequence.html]] {
        {abstract} +getSequenceName(): String
        {abstract} +getEnd(): Time
        {abstract} #writeSequenceHeader(): String
        {abstract} #writeSequenceFooter(): String
    }

    gov.nasa.jpl.sequencing.Sequence <|- - gov.nasa.jpl.sequencing.sasfSequencing.SASFSequence

    center footer UMLDoclet 2.0.8, PlantUML 1.2020.01
@enduml

PlantUML version 1.2020.01(Sun Feb 16 09:40:32 PST 2020)
(APACHE source distribution)
Java Runtime: OpenJDK Runtime Environment
JVM: OpenJDK 64-Bit Server VM
Java Version: 17.0.6+10
Operating System: Mac OS X
Default Encoding: UTF-8
Language: en
Country: US
--></g></svg>