<?xml version="1.0" encoding="UTF-8" standalone="no"?><svg xmlns="http://www.w3.org/2000/svg" xmlns:xlink="http://www.w3.org/1999/xlink" contentScriptType="application/ecmascript" contentStyleType="text/css" height="245px" preserveAspectRatio="none" style="width:294px;height:245px;" version="1.1" viewBox="0 0 294 245" width="294px" zoomAndPan="magnify"><defs><filter height="300%" id="f1wdff9wqkqjze" width="300%" x="-1" y="-1"><feGaussianBlur result="blurOut" stdDeviation="2.0"/><feColorMatrix in="blurOut" result="blurOut2" type="matrix" values="0 0 0 0 0 0 0 0 0 0 0 0 0 0 0 0 0 0 .4 0"/><feOffset dx="4.0" dy="4.0" in="blurOut2" result="blurOut3"/><feBlend in="SourceGraphic" in2="blurOut3" mode="normal"/></filter></defs><g><!--MD5=[18f9e0069e5ffb05d152a371dd824b86]
class gov.nasa.jpl.sequencing.sasfSequencing.SASFActivity--><a href="SASFActivity.html" target="_top" title="SASFActivity.html" xlink:actuate="onRequest" xlink:href="SASFActivity.html" xlink:show="new" xlink:title="SASFActivity.html" xlink:type="simple"><rect fill="#FEFECE" filter="url(#f1wdff9wqkqjze)" height="85.1309" id="gov.nasa.jpl.sequencing.sasfSequencing.SASFActivity" style="stroke: #A80036; stroke-width: 1.5;" width="277" x="6" y="126.87"/><ellipse cx="43.95" cy="146.0028" fill="#ADD1B2" rx="11" ry="11" style="stroke: #A80036; stroke-width: 1.0;"/><path d="M46.4231,152.1459 Q45.8421,152.4447 45.2029,152.5941 Q44.5638,152.7435 43.8582,152.7435 Q41.3514,152.7435 40.0315,151.0917 Q38.7117,149.4398 38.7117,146.3187 Q38.7117,143.1893 40.0315,141.5375 Q41.3514,139.8856 43.8582,139.8856 Q44.5638,139.8856 45.2112,140.035 Q45.8587,140.1845 46.4231,140.4833 L46.4231,143.2059 Q45.7923,142.6249 45.1988,142.3551 Q44.6053,142.0853 43.9744,142.0853 Q42.6297,142.0853 41.9449,143.152 Q41.2601,144.2186 41.2601,146.3187 Q41.2601,148.4105 41.9449,149.4772 Q42.6297,150.5438 43.9744,150.5438 Q44.6053,150.5438 45.1988,150.2741 Q45.7923,150.0043 46.4231,149.4232 Z "/><text fill="#000000" font-family="sans-serif" font-size="14" lengthAdjust="spacingAndGlyphs" textLength="83" x="118.55" y="145.4052">SASFActivity</text><text fill="#000000" font-family="sans-serif" font-size="10" lengthAdjust="spacingAndGlyphs" textLength="194" x="63.05" y="158.0263">gov.nasa.jpl.sequencing.sasfSequencing</text><line style="stroke: #A80036; stroke-width: 1.5;" x1="7" x2="282" y1="165.1356" y2="165.1356"/><ellipse cx="17" cy="176.1356" fill="#84BE84" rx="3" ry="3" style="stroke: #038048; stroke-width: 1.0;"/><text fill="#000000" font-family="sans-serif" font-size="11" lengthAdjust="spacingAndGlyphs" textLength="214" x="26" y="179.7704">SASFActivity(Time, String, String, String)</text><ellipse cx="17" cy="189.0907" fill="#84BE84" rx="3" ry="3" style="stroke: #038048; stroke-width: 1.0;"/><text fill="#000000" font-family="sans-serif" font-size="11" lengthAdjust="spacingAndGlyphs" textLength="251" x="26" y="192.7255">SASFActivity(Time, String, String, List&lt;String&gt;)</text><ellipse cx="17" cy="202.0458" fill="#84BE84" rx="3" ry="3" style="stroke: #038048; stroke-width: 1.0;"/><text fill="#000000" font-family="sans-serif" font-size="11" lengthAdjust="spacingAndGlyphs" textLength="121" x="26" y="205.6805">writeStepBody(): String</text></a><!--MD5=[ebc6d0b9ed7860b6b20f51e84cf9c1e4]
class gov.nasa.jpl.sequencing.sasfSequencing.SASFStep--><a href="SASFStep.html" target="_top" title="SASFStep.html" xlink:actuate="onRequest" xlink:href="SASFStep.html" xlink:show="new" xlink:title="SASFStep.html" xlink:type="simple"><rect fill="#FEFECE" filter="url(#f1wdff9wqkqjze)" height="59.2207" id="gov.nasa.jpl.sequencing.sasfSequencing.SASFStep" style="stroke: #A80036; stroke-width: 1.5;" width="226" x="31.5" y="7.65"/><ellipse cx="46.5" cy="26.7828" fill="#A9DCDF" rx="11" ry="11" style="stroke: #A80036; stroke-width: 1.0;"/><path d="M46.3633,22.131 L45.2095,27.2027 L47.5254,27.2027 Z M44.8691,19.8897 L47.8657,19.8897 L51.2109,32.2828 L48.7622,32.2828 L47.9985,29.2198 L44.7197,29.2198 L43.9727,32.2828 L41.5239,32.2828 Z "/><text fill="#000000" font-family="sans-serif" font-size="14" font-style="italic" lengthAdjust="spacingAndGlyphs" textLength="64" x="125.5" y="26.1852">SASFStep</text><text fill="#000000" font-family="sans-serif" font-size="10" font-style="italic" lengthAdjust="spacingAndGlyphs" textLength="194" x="60.5" y="38.8063">gov.nasa.jpl.sequencing.sasfSequencing</text><line style="stroke: #A80036; stroke-width: 1.5;" x1="32.5" x2="256.5" y1="45.9156" y2="45.9156"/><ellipse cx="42.5" cy="56.9156" fill="#84BE84" rx="3" ry="3" style="stroke: #038048; stroke-width: 1.0;"/><text fill="#000000" font-family="sans-serif" font-size="11" font-style="italic" lengthAdjust="spacingAndGlyphs" textLength="121" x="51.5" y="60.5504">writeStepBody(): String</text></a><!--MD5=[dab15a8564c05d131c12c605c067774d]
reverse link gov.nasa.jpl.sequencing.sasfSequencing.SASFStep to gov.nasa.jpl.sequencing.sasfSequencing.SASFActivity--><path d="M144.5,88.59 C144.5,101.22 144.5,114.63 144.5,126.78 " fill="none" id="gov.nasa.jpl.sequencing.sasfSequencing.SASFStep&lt;-gov.nasa.jpl.sequencing.sasfSequencing.SASFActivity" style="stroke: #A80036; stroke-width: 1.0;"/><polygon fill="none" points="137.5,88.66,144.5,68.66,151.5,88.66,137.5,88.66" style="stroke: #A80036; stroke-width: 1.0;"/><text fill="#888888" font-family="sans-serif" font-size="10" lengthAdjust="spacingAndGlyphs" textLength="182" x="59.5" y="231.668">UMLDoclet 2.0.8, PlantUML 1.2020.01</text><!--MD5=[2ecc5a6bb17127a86b6140ba7498f284]
@startuml
    set namespaceSeparator none
    hide empty fields
    hide empty methods

    class "<size:14>SASFActivity\n<size:10>gov.nasa.jpl.sequencing.sasfSequencing" as gov.nasa.jpl.sequencing.sasfSequencing.SASFActivity [[SASFActivity.html]] {
        +SASFActivity(Time, String, String, String)
        +SASFActivity(Time, String, String, List<String>)
        +writeStepBody(): String
    }

    abstract class "<size:14>SASFStep\n<size:10>gov.nasa.jpl.sequencing.sasfSequencing" as gov.nasa.jpl.sequencing.sasfSequencing.SASFStep [[SASFStep.html]] {
        {abstract} +writeStepBody(): String
    }

    gov.nasa.jpl.sequencing.sasfSequencing.SASFStep <|- - gov.nasa.jpl.sequencing.sasfSequencing.SASFActivity

    center footer UMLDoclet 2.0.8, PlantUML 1.2020.01
@enduml

PlantUML version 1.2020.01(Sun Feb 16 09:40:32 PST 2020)
(APACHE source distribution)
Java Runtime: OpenJDK Runtime Environment
JVM: OpenJDK 64-Bit Server VM
Java Version: 17.0.6+10
Operating System: Mac OS X
Default Encoding: UTF-8
Language: en
Country: US
--></g></svg>