<?xml version="1.0" encoding="UTF-8" standalone="no"?><svg xmlns="http://www.w3.org/2000/svg" xmlns:xlink="http://www.w3.org/1999/xlink" contentScriptType="application/ecmascript" contentStyleType="text/css" height="245px" preserveAspectRatio="none" style="width:271px;height:245px;" version="1.1" viewBox="0 0 271 245" width="271px" zoomAndPan="magnify"><defs><filter height="300%" id="f4qm35w2eyr1a" width="300%" x="-1" y="-1"><feGaussianBlur result="blurOut" stdDeviation="2.0"/><feColorMatrix in="blurOut" result="blurOut2" type="matrix" values="0 0 0 0 0 0 0 0 0 0 0 0 0 0 0 0 0 0 .4 0"/><feOffset dx="4.0" dy="4.0" in="blurOut2" result="blurOut3"/><feBlend in="SourceGraphic" in2="blurOut3" mode="normal"/></filter></defs><g><!--MD5=[70bb9ca1ffb024e9e53ca634e26f61ac]
class gov.nasa.jpl.sequencing.sasfSequencing.SASFCommand--><a href="SASFCommand.html" target="_top" title="SASFCommand.html" xlink:actuate="onRequest" xlink:href="SASFCommand.html" xlink:show="new" xlink:title="SASFCommand.html" xlink:type="simple"><rect fill="#FEFECE" filter="url(#f4qm35w2eyr1a)" height="85.1309" id="gov.nasa.jpl.sequencing.sasfSequencing.SASFCommand" style="stroke: #A80036; stroke-width: 1.5;" width="254" x="6" y="126.87"/><ellipse cx="33.6" cy="146.0028" fill="#ADD1B2" rx="11" ry="11" style="stroke: #A80036; stroke-width: 1.0;"/><path d="M36.0731,152.1459 Q35.4921,152.4447 34.8529,152.5941 Q34.2138,152.7435 33.5082,152.7435 Q31.0014,152.7435 29.6815,151.0917 Q28.3617,149.4398 28.3617,146.3187 Q28.3617,143.1893 29.6815,141.5375 Q31.0014,139.8856 33.5082,139.8856 Q34.2138,139.8856 34.8612,140.035 Q35.5087,140.1845 36.0731,140.4833 L36.0731,143.2059 Q35.4423,142.6249 34.8488,142.3551 Q34.2553,142.0853 33.6244,142.0853 Q32.2797,142.0853 31.5949,143.152 Q30.9101,144.2186 30.9101,146.3187 Q30.9101,148.4105 31.5949,149.4772 Q32.2797,150.5438 33.6244,150.5438 Q34.2553,150.5438 34.8488,150.2741 Q35.4423,150.0043 36.0731,149.4232 Z "/><text fill="#000000" font-family="sans-serif" font-size="14" lengthAdjust="spacingAndGlyphs" textLength="105" x="94.9" y="145.4052">SASFCommand</text><text fill="#000000" font-family="sans-serif" font-size="10" lengthAdjust="spacingAndGlyphs" textLength="194" x="50.4" y="158.0263">gov.nasa.jpl.sequencing.sasfSequencing</text><line style="stroke: #A80036; stroke-width: 1.5;" x1="7" x2="259" y1="165.1356" y2="165.1356"/><ellipse cx="17" cy="176.1356" fill="#84BE84" rx="3" ry="3" style="stroke: #038048; stroke-width: 1.0;"/><text fill="#000000" font-family="sans-serif" font-size="11" lengthAdjust="spacingAndGlyphs" textLength="191" x="26" y="179.7704">SASFCommand(Time, String, String)</text><ellipse cx="17" cy="189.0907" fill="#84BE84" rx="3" ry="3" style="stroke: #038048; stroke-width: 1.0;"/><text fill="#000000" font-family="sans-serif" font-size="11" lengthAdjust="spacingAndGlyphs" textLength="228" x="26" y="192.7255">SASFCommand(Time, String, List&lt;String&gt;)</text><ellipse cx="17" cy="202.0458" fill="#84BE84" rx="3" ry="3" style="stroke: #038048; stroke-width: 1.0;"/><text fill="#000000" font-family="sans-serif" font-size="11" lengthAdjust="spacingAndGlyphs" textLength="121" x="26" y="205.6805">writeStepBody(): String</text></a><!--MD5=[ebc6d0b9ed7860b6b20f51e84cf9c1e4]
class gov.nasa.jpl.sequencing.sasfSequencing.SASFStep--><a href="SASFStep.html" target="_top" title="SASFStep.html" xlink:actuate="onRequest" xlink:href="SASFStep.html" xlink:show="new" xlink:title="SASFStep.html" xlink:type="simple"><rect fill="#FEFECE" filter="url(#f4qm35w2eyr1a)" height="59.2207" id="gov.nasa.jpl.sequencing.sasfSequencing.SASFStep" style="stroke: #A80036; stroke-width: 1.5;" width="226" x="20" y="7.65"/><ellipse cx="35" cy="26.7828" fill="#A9DCDF" rx="11" ry="11" style="stroke: #A80036; stroke-width: 1.0;"/><path d="M34.8633,22.131 L33.7095,27.2027 L36.0254,27.2027 Z M33.3691,19.8897 L36.3657,19.8897 L39.7109,32.2828 L37.2622,32.2828 L36.4985,29.2198 L33.2197,29.2198 L32.4727,32.2828 L30.0239,32.2828 Z "/><text fill="#000000" font-family="sans-serif" font-size="14" font-style="italic" lengthAdjust="spacingAndGlyphs" textLength="64" x="114" y="26.1852">SASFStep</text><text fill="#000000" font-family="sans-serif" font-size="10" font-style="italic" lengthAdjust="spacingAndGlyphs" textLength="194" x="49" y="38.8063">gov.nasa.jpl.sequencing.sasfSequencing</text><line style="stroke: #A80036; stroke-width: 1.5;" x1="21" x2="245" y1="45.9156" y2="45.9156"/><ellipse cx="31" cy="56.9156" fill="#84BE84" rx="3" ry="3" style="stroke: #038048; stroke-width: 1.0;"/><text fill="#000000" font-family="sans-serif" font-size="11" font-style="italic" lengthAdjust="spacingAndGlyphs" textLength="121" x="40" y="60.5504">writeStepBody(): String</text></a><!--MD5=[15fbd73b343f065012ffde2308a0b95e]
reverse link gov.nasa.jpl.sequencing.sasfSequencing.SASFStep to gov.nasa.jpl.sequencing.sasfSequencing.SASFCommand--><path d="M133,88.59 C133,101.22 133,114.63 133,126.78 " fill="none" id="gov.nasa.jpl.sequencing.sasfSequencing.SASFStep&lt;-gov.nasa.jpl.sequencing.sasfSequencing.SASFCommand" style="stroke: #A80036; stroke-width: 1.0;"/><polygon fill="none" points="126,88.66,133,68.66,140,88.66,126,88.66" style="stroke: #A80036; stroke-width: 1.0;"/><text fill="#888888" font-family="sans-serif" font-size="10" lengthAdjust="spacingAndGlyphs" textLength="182" x="48" y="231.668">UMLDoclet 2.0.8, PlantUML 1.2020.01</text><!--MD5=[908a8b2bc6626dbed2b7f9ee88503702]
@startuml
    set namespaceSeparator none
    hide empty fields
    hide empty methods

    class "<size:14>SASFCommand\n<size:10>gov.nasa.jpl.sequencing.sasfSequencing" as gov.nasa.jpl.sequencing.sasfSequencing.SASFCommand [[SASFCommand.html]] {
        +SASFCommand(Time, String, String)
        +SASFCommand(Time, String, List<String>)
        +writeStepBody(): String
    }

    abstract class "<size:14>SASFStep\n<size:10>gov.nasa.jpl.sequencing.sasfSequencing" as gov.nasa.jpl.sequencing.sasfSequencing.SASFStep [[SASFStep.html]] {
        {abstract} +writeStepBody(): String
    }

    gov.nasa.jpl.sequencing.sasfSequencing.SASFStep <|- - gov.nasa.jpl.sequencing.sasfSequencing.SASFCommand

    center footer UMLDoclet 2.0.8, PlantUML 1.2020.01
@enduml

PlantUML version 1.2020.01(Sun Feb 16 09:40:32 PST 2020)
(APACHE source distribution)
Java Runtime: OpenJDK Runtime Environment
JVM: OpenJDK 64-Bit Server VM
Java Version: 17.0.6+10
Operating System: Mac OS X
Default Encoding: UTF-8
Language: en
Country: US
--></g></svg>