<?xml version="1.0" encoding="UTF-8" standalone="no"?><svg xmlns="http://www.w3.org/2000/svg" xmlns:xlink="http://www.w3.org/1999/xlink" contentScriptType="application/ecmascript" contentStyleType="text/css" height="654px" preserveAspectRatio="none" style="width:1740px;height:654px;" version="1.1" viewBox="0 0 1740 654" width="1740px" zoomAndPan="magnify"><defs><filter height="300%" id="fpkt8faksepdj" width="300%" x="-1" y="-1"><feGaussianBlur result="blurOut" stdDeviation="2.0"/><feColorMatrix in="blurOut" result="blurOut2" type="matrix" values="0 0 0 0 0 0 0 0 0 0 0 0 0 0 0 0 0 0 .4 0"/><feOffset dx="4.0" dy="4.0" in="blurOut2" result="blurOut3"/><feBlend in="SourceGraphic" in2="blurOut3" mode="normal"/></filter></defs><g><!--MD5=[a026ec50a47a3fc052dce04cb5cf2fe4]
class gov.nasa.jpl.sequencing--><a href="gov/nasa/jpl/sequencing/package-summary.html" target="_top" title="gov/nasa/jpl/sequencing/package-summary.html" xlink:actuate="onRequest" xlink:href="gov/nasa/jpl/sequencing/package-summary.html" xlink:show="new" xlink:title="gov/nasa/jpl/sequencing/package-summary.html" xlink:type="simple"><rect fill="#FEFECE" filter="url(#fpkt8faksepdj)" height="24.1328" id="gov.nasa.jpl.sequencing" style="stroke: #A80036; stroke-width: 1.5;" width="145" x="515.5" y="344.47"/><text fill="#000000" font-family="sans-serif" font-size="12" lengthAdjust="spacingAndGlyphs" textLength="139" x="518.5" y="361.0716">gov.nasa.jpl.sequencing</text></a><!--MD5=[26d209019d01f2276e3109128108b401]
class gov.nasa.jpl.time--><a href="https://nasa-jpl.github.io/jplTime/gov/nasa/jpl/time/package-summary.html?is-external=true" target="_top" title="https://nasa-jpl.github.io/jplTime/gov/nasa/jpl/time/package-summary.html?is-external=true" xlink:actuate="onRequest" xlink:href="https://nasa-jpl.github.io/jplTime/gov/nasa/jpl/time/package-summary.html?is-external=true" xlink:show="new" xlink:title="https://nasa-jpl.github.io/jplTime/gov/nasa/jpl/time/package-summary.html?is-external=true" xlink:type="simple"><rect fill="#FEFECE" filter="url(#fpkt8faksepdj)" height="24.1328" id="gov.nasa.jpl.time" style="stroke: #A80036; stroke-width: 1.5;" width="105" x="472.5" y="428.6"/><text fill="#000000" font-family="sans-serif" font-size="12" lengthAdjust="spacingAndGlyphs" textLength="99" x="475.5" y="445.2016">gov.nasa.jpl.time</text></a><!--MD5=[d921a5ade876d9579de48eb067c69b2f]
class gov.nasa.jpl.sequencing.sasfSequencing--><a href="gov/nasa/jpl/sequencing/sasfSequencing/package-summary.html" target="_top" title="gov/nasa/jpl/sequencing/sasfSequencing/package-summary.html" xlink:actuate="onRequest" xlink:href="gov/nasa/jpl/sequencing/sasfSequencing/package-summary.html" xlink:show="new" xlink:title="gov/nasa/jpl/sequencing/sasfSequencing/package-summary.html" xlink:type="simple"><rect fill="#FEFECE" filter="url(#fpkt8faksepdj)" height="24.1328" id="gov.nasa.jpl.sequencing.sasfSequencing" style="stroke: #A80036; stroke-width: 1.5;" width="237" x="343.5" y="260.34"/><text fill="#000000" font-family="sans-serif" font-size="12" lengthAdjust="spacingAndGlyphs" textLength="231" x="346.5" y="276.9416">gov.nasa.jpl.sequencing.sasfSequencing</text></a><!--MD5=[8da66e687c064ec4a07f666e791d8e11]
class gov.nasa.jpl.sequencing.satfSequencing--><a href="gov/nasa/jpl/sequencing/satfSequencing/package-summary.html" target="_top" title="gov/nasa/jpl/sequencing/satfSequencing/package-summary.html" xlink:actuate="onRequest" xlink:href="gov/nasa/jpl/sequencing/satfSequencing/package-summary.html" xlink:show="new" xlink:title="gov/nasa/jpl/sequencing/satfSequencing/package-summary.html" xlink:type="simple"><rect fill="#FEFECE" filter="url(#fpkt8faksepdj)" height="24.1328" id="gov.nasa.jpl.sequencing.satfSequencing" style="stroke: #A80036; stroke-width: 1.5;" width="235" x="615.5" y="260.34"/><text fill="#000000" font-family="sans-serif" font-size="12" lengthAdjust="spacingAndGlyphs" textLength="229" x="618.5" y="276.9416">gov.nasa.jpl.sequencing.satfSequencing</text></a><!--MD5=[aad390246689a656e569196ccc7cda59]
class gov.nasa.jpl.input--><a href="gov/nasa/jpl/input/package-summary.html" target="_top" title="gov/nasa/jpl/input/package-summary.html" xlink:actuate="onRequest" xlink:href="gov/nasa/jpl/input/package-summary.html" xlink:show="new" xlink:title="gov/nasa/jpl/input/package-summary.html" xlink:type="simple"><rect fill="#FEFECE" filter="url(#fpkt8faksepdj)" height="24.1328" id="gov.nasa.jpl.input" style="stroke: #A80036; stroke-width: 1.5;" width="109" x="1510.5" y="512.73"/><text fill="#000000" font-family="sans-serif" font-size="12" lengthAdjust="spacingAndGlyphs" textLength="103" x="1513.5" y="529.3316">gov.nasa.jpl.input</text></a><!--MD5=[5a3d6abf07d819de1955896bd9e20821]
class com.google.gson--><rect fill="#FEFECE" filter="url(#fpkt8faksepdj)" height="24.1328" id="com.google.gson" style="stroke: #A80036; stroke-width: 1.5;" width="103" x="1513.5" y="596.87"/><text fill="#000000" font-family="sans-serif" font-size="12" lengthAdjust="spacingAndGlyphs" textLength="97" x="1516.5" y="613.4716">com.google.gson</text><!--MD5=[23aab39b85e11c323394c4f8c9e5e498]
class gov.nasa.jpl.engine--><a href="gov/nasa/jpl/engine/package-summary.html" target="_top" title="gov/nasa/jpl/engine/package-summary.html" xlink:actuate="onRequest" xlink:href="gov/nasa/jpl/engine/package-summary.html" xlink:show="new" xlink:title="gov/nasa/jpl/engine/package-summary.html" xlink:type="simple"><rect fill="#FEFECE" filter="url(#fpkt8faksepdj)" height="24.1328" id="gov.nasa.jpl.engine" style="stroke: #A80036; stroke-width: 1.5;" width="118" x="1415" y="92.07"/><text fill="#000000" font-family="sans-serif" font-size="12" lengthAdjust="spacingAndGlyphs" textLength="112" x="1418" y="108.6716">gov.nasa.jpl.engine</text></a><!--MD5=[0c49137d2587b6bfdcb6bd059e85ba32]
class gov.nasa.jpl.input.parallel--><a href="gov/nasa/jpl/input/parallel/package-summary.html" target="_top" title="gov/nasa/jpl/input/parallel/package-summary.html" xlink:actuate="onRequest" xlink:href="gov/nasa/jpl/input/parallel/package-summary.html" xlink:show="new" xlink:title="gov/nasa/jpl/input/parallel/package-summary.html" xlink:type="simple"><rect fill="#FEFECE" filter="url(#fpkt8faksepdj)" height="24.1328" id="gov.nasa.jpl.input.parallel" style="stroke: #A80036; stroke-width: 1.5;" width="156" x="1068" y="428.6"/><text fill="#000000" font-family="sans-serif" font-size="12" lengthAdjust="spacingAndGlyphs" textLength="150" x="1071" y="445.2016">gov.nasa.jpl.input.parallel</text></a><!--MD5=[66aff31be84f72381d1626bfb6a25128]
class gov.nasa.jpl.resource--><a href="gov/nasa/jpl/resource/package-summary.html" target="_top" title="gov/nasa/jpl/resource/package-summary.html" xlink:actuate="onRequest" xlink:href="gov/nasa/jpl/resource/package-summary.html" xlink:show="new" xlink:title="gov/nasa/jpl/resource/package-summary.html" xlink:type="simple"><rect fill="#FEFECE" filter="url(#fpkt8faksepdj)" height="24.1328" id="gov.nasa.jpl.resource" style="stroke: #A80036; stroke-width: 1.5;" width="130" x="1081" y="344.47"/><text fill="#000000" font-family="sans-serif" font-size="12" lengthAdjust="spacingAndGlyphs" textLength="124" x="1084" y="361.0716">gov.nasa.jpl.resource</text></a><!--MD5=[56de083adf6a8ee867a42596e7deda2d]
class gov.nasa.jpl.activity--><a href="gov/nasa/jpl/activity/package-summary.html" target="_top" title="gov/nasa/jpl/activity/package-summary.html" xlink:actuate="onRequest" xlink:href="gov/nasa/jpl/activity/package-summary.html" xlink:show="new" xlink:title="gov/nasa/jpl/activity/package-summary.html" xlink:type="simple"><rect fill="#FEFECE" filter="url(#fpkt8faksepdj)" height="24.1328" id="gov.nasa.jpl.activity" style="stroke: #A80036; stroke-width: 1.5;" width="119" x="1012.5" y="176.2"/><text fill="#000000" font-family="sans-serif" font-size="12" lengthAdjust="spacingAndGlyphs" textLength="113" x="1015.5" y="192.8016">gov.nasa.jpl.activity</text></a><!--MD5=[6055a4aafd662719196b401012044078]
class gov.nasa.jpl.scheduler--><a href="gov/nasa/jpl/scheduler/package-summary.html" target="_top" title="gov/nasa/jpl/scheduler/package-summary.html" xlink:actuate="onRequest" xlink:href="gov/nasa/jpl/scheduler/package-summary.html" xlink:show="new" xlink:title="gov/nasa/jpl/scheduler/package-summary.html" xlink:type="simple"><rect fill="#FEFECE" filter="url(#fpkt8faksepdj)" height="24.1328" id="gov.nasa.jpl.scheduler" style="stroke: #A80036; stroke-width: 1.5;" width="136" x="957" y="260.34"/><text fill="#000000" font-family="sans-serif" font-size="12" lengthAdjust="spacingAndGlyphs" textLength="130" x="960" y="276.9416">gov.nasa.jpl.scheduler</text></a><!--MD5=[2f0f268d3c5a4114c16c940a020822f3]
class gov.nasa.jpl.output--><a href="gov/nasa/jpl/output/package-summary.html" target="_top" title="gov/nasa/jpl/output/package-summary.html" xlink:actuate="onRequest" xlink:href="gov/nasa/jpl/output/package-summary.html" xlink:show="new" xlink:title="gov/nasa/jpl/output/package-summary.html" xlink:type="simple"><rect fill="#FEFECE" filter="url(#fpkt8faksepdj)" height="24.1328" id="gov.nasa.jpl.output" style="stroke: #A80036; stroke-width: 1.5;" width="117" x="688.5" y="92.07"/><text fill="#000000" font-family="sans-serif" font-size="12" lengthAdjust="spacingAndGlyphs" textLength="111" x="691.5" y="108.6716">gov.nasa.jpl.output</text></a><!--MD5=[b1bef607984ac6a80f5aa90ef3b47514]
class gov.nasa.jpl.constraint--><a href="gov/nasa/jpl/constraint/package-summary.html" target="_top" title="gov/nasa/jpl/constraint/package-summary.html" xlink:actuate="onRequest" xlink:href="gov/nasa/jpl/constraint/package-summary.html" xlink:show="new" xlink:title="gov/nasa/jpl/constraint/package-summary.html" xlink:type="simple"><rect fill="#FEFECE" filter="url(#fpkt8faksepdj)" height="24.1328" id="gov.nasa.jpl.constraint" style="stroke: #A80036; stroke-width: 1.5;" width="136" x="679" y="176.2"/><text fill="#000000" font-family="sans-serif" font-size="12" lengthAdjust="spacingAndGlyphs" textLength="130" x="682" y="192.8016">gov.nasa.jpl.constraint</text></a><!--MD5=[41456c6224231aebee5a551002667946]
class gov.nasa.jpl.output.tol--><a href="gov/nasa/jpl/output/tol/package-summary.html" target="_top" title="gov/nasa/jpl/output/tol/package-summary.html" xlink:actuate="onRequest" xlink:href="gov/nasa/jpl/output/tol/package-summary.html" xlink:show="new" xlink:title="gov/nasa/jpl/output/tol/package-summary.html" xlink:type="simple"><rect fill="#FEFECE" filter="url(#fpkt8faksepdj)" height="24.1328" id="gov.nasa.jpl.output.tol" style="stroke: #A80036; stroke-width: 1.5;" width="135" x="495.5" y="7.94"/><text fill="#000000" font-family="sans-serif" font-size="12" lengthAdjust="spacingAndGlyphs" textLength="129" x="498.5" y="24.5416">gov.nasa.jpl.output.tol</text></a><!--MD5=[75907c74b6e6d1198bc06da86f054956]
class gov.nasa.jpl.output.parallel--><a href="gov/nasa/jpl/output/parallel/package-summary.html" target="_top" title="gov/nasa/jpl/output/parallel/package-summary.html" xlink:actuate="onRequest" xlink:href="gov/nasa/jpl/output/parallel/package-summary.html" xlink:show="new" xlink:title="gov/nasa/jpl/output/parallel/package-summary.html" xlink:type="simple"><rect fill="#FEFECE" filter="url(#fpkt8faksepdj)" height="24.1328" id="gov.nasa.jpl.output.parallel" style="stroke: #A80036; stroke-width: 1.5;" width="164" x="666" y="7.94"/><text fill="#000000" font-family="sans-serif" font-size="12" lengthAdjust="spacingAndGlyphs" textLength="158" x="669" y="24.5416">gov.nasa.jpl.output.parallel</text></a><!--MD5=[544154c8288626d6d79b85b07e30cb28]
class gov.nasa.jpl.output.adaptation--><a href="gov/nasa/jpl/output/adaptation/package-summary.html" target="_top" title="gov/nasa/jpl/output/adaptation/package-summary.html" xlink:actuate="onRequest" xlink:href="gov/nasa/jpl/output/adaptation/package-summary.html" xlink:show="new" xlink:title="gov/nasa/jpl/output/adaptation/package-summary.html" xlink:type="simple"><rect fill="#FEFECE" filter="url(#fpkt8faksepdj)" height="24.1328" id="gov.nasa.jpl.output.adaptation" style="stroke: #A80036; stroke-width: 1.5;" width="183" x="1196.5" y="92.07"/><text fill="#000000" font-family="sans-serif" font-size="12" lengthAdjust="spacingAndGlyphs" textLength="177" x="1199.5" y="108.6716">gov.nasa.jpl.output.adaptation</text></a><!--MD5=[db9051ae6de90197b1554037f9455503]
class gov.nasa.jpl.command--><a href="gov/nasa/jpl/command/package-summary.html" target="_top" title="gov/nasa/jpl/command/package-summary.html" xlink:actuate="onRequest" xlink:href="gov/nasa/jpl/command/package-summary.html" xlink:show="new" xlink:title="gov/nasa/jpl/command/package-summary.html" xlink:type="simple"><rect fill="#FEFECE" filter="url(#fpkt8faksepdj)" height="24.1328" id="gov.nasa.jpl.command" style="stroke: #A80036; stroke-width: 1.5;" width="137" x="1312.5" y="7.94"/><text fill="#000000" font-family="sans-serif" font-size="12" lengthAdjust="spacingAndGlyphs" textLength="131" x="1315.5" y="24.5416">gov.nasa.jpl.command</text></a><!--MD5=[cd5c5c32571e310518506555e670ff03]
link gov.nasa.jpl.sequencing to gov.nasa.jpl.time--><path d="M579.24,368.96 C568.43,383.05 549.96,407.13 537.62,423.22 " fill="none" id="gov.nasa.jpl.sequencing-&gt;gov.nasa.jpl.time" style="stroke: #A80036; stroke-width: 1.0;"/><polygon fill="#A80036" points="534.61,427.14,543.2589,422.4287,537.651,423.171,536.9086,417.5631,534.61,427.14" style="stroke: #A80036; stroke-width: 1.0;"/><!--MD5=[5082452b0d7a450de5cb111cbb004181]
link gov.nasa.jpl.sequencing.sasfSequencing to gov.nasa.jpl.sequencing--><path d="M479.52,284.82 C501.9,299.41 540.68,324.69 565.3,340.74 " fill="none" id="gov.nasa.jpl.sequencing.sasfSequencing-&gt;gov.nasa.jpl.sequencing" style="stroke: #A80036; stroke-width: 1.0;"/><polygon fill="#A80036" points="569.36,343.39,564.0049,335.1243,565.1714,340.6595,559.6361,341.8261,569.36,343.39" style="stroke: #A80036; stroke-width: 1.0;"/><!--MD5=[9a643ffc5de21a16eb0afd07f9609f7c]
link gov.nasa.jpl.sequencing.sasfSequencing to gov.nasa.jpl.time--><path d="M466.32,284.83 C473.07,302.71 486.54,338.36 498,368.6 C505.04,387.18 513.13,408.47 518.61,422.87 " fill="none" id="gov.nasa.jpl.sequencing.sasfSequencing-&gt;gov.nasa.jpl.time" style="stroke: #A80036; stroke-width: 1.0;"/><polygon fill="#A80036" points="520.25,427.18,520.7827,417.3456,518.4694,422.5078,513.3072,420.1945,520.25,427.18" style="stroke: #A80036; stroke-width: 1.0;"/><!--MD5=[602c1252c4bcc0b817fd22dd2b6e3167]
link gov.nasa.jpl.sequencing.satfSequencing to gov.nasa.jpl.sequencing--><path d="M712.84,284.82 C686.87,299.53 641.71,325.11 613.41,341.14 " fill="none" id="gov.nasa.jpl.sequencing.satfSequencing-&gt;gov.nasa.jpl.sequencing" style="stroke: #A80036; stroke-width: 1.0;"/><polygon fill="#A80036" points="609.31,343.47,619.1129,342.5195,613.6617,341.0078,615.1734,335.5567,609.31,343.47" style="stroke: #A80036; stroke-width: 1.0;"/><!--MD5=[aa7851f97da0359698214b202413e237]
link gov.nasa.jpl.sequencing.satfSequencing to gov.nasa.jpl.time--><path d="M729.02,284.86 C721.73,304.39 704.48,344.38 678,368.6 C647.79,396.24 604.95,414.88 572.28,426.12 " fill="none" id="gov.nasa.jpl.sequencing.satfSequencing-&gt;gov.nasa.jpl.time" style="stroke: #A80036; stroke-width: 1.0;"/><polygon fill="#A80036" points="567.74,427.64,577.5439,428.5798,572.482,426.0546,575.0072,420.9926,567.74,427.64" style="stroke: #A80036; stroke-width: 1.0;"/><!--MD5=[b9346ddce8190289726d635700dc68f1]
link gov.nasa.jpl.input to com.google.gson--><path d="M1565,537.22 C1565,550.95 1565,574.15 1565,590.21 " fill="none" id="gov.nasa.jpl.input-&gt;com.google.gson" style="stroke: #A80036; stroke-width: 1.0;"/><polygon fill="#A80036" points="1565,595.1,1569,586.1,1565,590.1,1561,586.1,1565,595.1" style="stroke: #A80036; stroke-width: 1.0;"/><!--MD5=[e9bd7c2a7c921e0f2043fdf27403072a]
link gov.nasa.jpl.input to gov.nasa.jpl.engine--><path d="M1565,512.51 C1565,485.65 1565,415.84 1565,357.54 C412,621 412,621 1565,271.4 C1565,209.5 1515.86,148.79 1489.8,120.95 " fill="none" id="gov.nasa.jpl.input-&gt;gov.nasa.jpl.engine" style="stroke: #A80036; stroke-width: 1.0;"/><polygon fill="#A80036" points="1486.57,117.55,1489.8813,126.8255,1490.0186,121.1703,1495.6738,121.3077,1486.57,117.55" style="stroke: #A80036; stroke-width: 1.0;"/><!--MD5=[37cc50a2432fc4c658395d5b0593bc45]
link gov.nasa.jpl.input.parallel to gov.nasa.jpl.resource--><path d="M1155.39,428.34 C1159.78,414.54 1160.3,391.05 1156.96,374.94 " fill="none" id="gov.nasa.jpl.input.parallel-&gt;gov.nasa.jpl.resource" style="stroke: #A80036; stroke-width: 1.0;"/><polygon fill="#A80036" points="1155.8,370.42,1154.1628,380.1318,1157.0429,375.2631,1161.9117,378.1432,1155.8,370.42" style="stroke: #A80036; stroke-width: 1.0;"/><!--MD5=[98c69d4eba865c7adbc2e1e1f9e2f3b5]
link gov.nasa.jpl.resource to gov.nasa.jpl.input.parallel--><path d="M1136.58,368.96 C1132.21,382.81 1131.71,406.3 1135.07,422.37 " fill="none" id="gov.nasa.jpl.resource-&gt;gov.nasa.jpl.input.parallel" style="stroke: #A80036; stroke-width: 1.0;"/><polygon fill="#A80036" points="1136.23,426.88,1137.8334,417.1625,1134.9702,422.0413,1130.0914,419.1782,1136.23,426.88" style="stroke: #A80036; stroke-width: 1.0;"/><!--MD5=[17bd5ce61cb083fc2855f0c60ec9a454]
link gov.nasa.jpl.input.parallel to gov.nasa.jpl.input--><path d="M1204.7,453.17 C1283.72,468.66 1423.64,496.09 1503.88,511.82 " fill="none" id="gov.nasa.jpl.input.parallel-&gt;gov.nasa.jpl.input" style="stroke: #A80036; stroke-width: 1.0;"/><polygon fill="#A80036" points="1508.54,512.73,1500.4707,507.0832,1503.6322,511.7741,1498.9413,514.9356,1508.54,512.73" style="stroke: #A80036; stroke-width: 1.0;"/><!--MD5=[bccd642aa46816fccb069d43cc8864ea]
link gov.nasa.jpl.activity to gov.nasa.jpl.time--><path d="M1012.17,192.79 C839.15,203.25 349.04,234.99 326,260.34 C264.68,327.78 413.89,397.06 487.21,425.84 " fill="none" id="gov.nasa.jpl.activity-&gt;gov.nasa.jpl.time" style="stroke: #A80036; stroke-width: 1.0;"/><polygon fill="#A80036" points="491.8,427.62,484.8401,420.6515,487.1344,425.8222,481.9637,428.1165,491.8,427.62" style="stroke: #A80036; stroke-width: 1.0;"/><!--MD5=[6bd999ddf359112a027395877c3f2fc5]
link gov.nasa.jpl.activity to gov.nasa.jpl.scheduler--><path d="M1065.46,200.69 C1057.47,214.67 1043.86,238.45 1034.65,254.53 " fill="none" id="gov.nasa.jpl.activity-&gt;gov.nasa.jpl.scheduler" style="stroke: #A80036; stroke-width: 1.0;"/><polygon fill="#A80036" points="1032.23,258.77,1040.1662,252.9375,1034.7092,254.4279,1033.2188,248.9709,1032.23,258.77" style="stroke: #A80036; stroke-width: 1.0;"/><!--MD5=[1393bd42e81eec6937888e825c85b5f1]
link gov.nasa.jpl.activity to gov.nasa.jpl.engine--><path d="M1131.94,176.88 C1210.41,161.89 1346.04,134.23 1420.96,117.99 " fill="none" id="gov.nasa.jpl.activity-&gt;gov.nasa.jpl.engine" style="stroke: #A80036; stroke-width: 1.0;"/><polygon fill="#A80036" points="1425.65,116.97,1416.0021,114.9907,1420.7661,118.041,1417.7157,122.805,1425.65,116.97" style="stroke: #A80036; stroke-width: 1.0;"/><!--MD5=[203da42e28ffab703c873a2e4931420d]
link gov.nasa.jpl.engine to gov.nasa.jpl.activity--><path d="M1414.87,115.37 C1336.62,130.3 1200.53,158.05 1125.3,174.36 " fill="none" id="gov.nasa.jpl.engine-&gt;gov.nasa.jpl.activity" style="stroke: #A80036; stroke-width: 1.0;"/><polygon fill="#A80036" points="1120.58,175.39,1130.2224,177.3962,1125.4669,174.3326,1128.5305,169.5771,1120.58,175.39" style="stroke: #A80036; stroke-width: 1.0;"/><!--MD5=[116c6a27a3ad5e6cf8678b120716787d]
link gov.nasa.jpl.output to gov.nasa.jpl.activity--><path d="M792.53,116.64 C852.44,131.78 957.47,158.33 1020.31,174.21 " fill="none" id="gov.nasa.jpl.output-&gt;gov.nasa.jpl.activity" style="stroke: #A80036; stroke-width: 1.0;"/><polygon fill="#A80036" points="1024.78,175.34,1017.0399,169.2497,1019.9335,174.1105,1015.0727,177.0041,1024.78,175.34" style="stroke: #A80036; stroke-width: 1.0;"/><!--MD5=[82f551ee2a612c33cfe48e84ff5fbafe]
link gov.nasa.jpl.output to gov.nasa.jpl.resource--><path d="M777.7,116.62 C860.93,147.96 1086.36,234.41 1111,260.34 C1131.58,281.99 1140.25,316.75 1143.76,337.74 " fill="none" id="gov.nasa.jpl.output-&gt;gov.nasa.jpl.resource" style="stroke: #A80036; stroke-width: 1.0;"/><polygon fill="#A80036" points="1144.5,342.54,1147.0912,333.0381,1143.7429,337.5976,1139.1834,334.2494,1144.5,342.54" style="stroke: #A80036; stroke-width: 1.0;"/><!--MD5=[fa287b1c7eb24e9a21c9ea85ab297cb5]
link gov.nasa.jpl.output to gov.nasa.jpl.constraint--><path d="M747,116.56 C747,130.29 747,153.48 747,169.55 " fill="none" id="gov.nasa.jpl.output-&gt;gov.nasa.jpl.constraint" style="stroke: #A80036; stroke-width: 1.0;"/><polygon fill="#A80036" points="747,174.43,751,165.43,747,169.43,743,165.43,747,174.43" style="stroke: #A80036; stroke-width: 1.0;"/><!--MD5=[ad6d29da03221da960c4524813ae00f4]
link gov.nasa.jpl.output to gov.nasa.jpl.time--><path d="M688.14,114.3 C566.47,134.56 294.06,187.25 240,260.34 C226.68,278.34 196.04,311.7 241,368.6 C268.59,403.51 391.27,423.91 466.08,433.32 " fill="none" id="gov.nasa.jpl.output-&gt;gov.nasa.jpl.time" style="stroke: #A80036; stroke-width: 1.0;"/><polygon fill="#A80036" points="470.77,433.9,462.3302,428.8236,465.808,433.2851,461.3464,436.7628,470.77,433.9" style="stroke: #A80036; stroke-width: 1.0;"/><!--MD5=[d77d8f8918216f170771abd9e6833c55]
link gov.nasa.jpl.output.tol to gov.nasa.jpl.resource--><path d="M565.85,32.22 C574.45,63.76 603.17,153.92 661,200.34 C735.7,260.3 776.66,231.48 868,260.34 C879.77,264.05 1032.67,316.57 1106.55,341.97 " fill="none" id="gov.nasa.jpl.output.tol-&gt;gov.nasa.jpl.resource" style="stroke: #A80036; stroke-width: 1.0;"/><polygon fill="#A80036" points="1111.16,343.55,1103.9531,336.8373,1106.4325,341.9218,1101.348,344.4012,1111.16,343.55" style="stroke: #A80036; stroke-width: 1.0;"/><!--MD5=[3f218cb6f9356e7cd95acdd59659a13c]
link gov.nasa.jpl.output.tol to gov.nasa.jpl.time--><path d="M495.26,26.85 C346.82,41.53 6,86.23 6,187.27 C412,621 412,621 6,273.4 C6,320.2 13.44,340.69 51,368.6 C115.73,416.7 354.19,432.7 466.18,437.64 " fill="none" id="gov.nasa.jpl.output.tol-&gt;gov.nasa.jpl.time" style="stroke: #A80036; stroke-width: 1.0;"/><polygon fill="#A80036" points="470.88,437.84,462.0595,433.4583,465.8846,437.6259,461.717,441.451,470.88,437.84" style="stroke: #A80036; stroke-width: 1.0;"/><!--MD5=[42f8d81b84a62e905f21ddb6aad9c3ef]
link gov.nasa.jpl.output.tol to gov.nasa.jpl.output--><path d="M588.58,32.42 C621.86,47.28 679.95,73.21 715.78,89.2 " fill="none" id="gov.nasa.jpl.output.tol-&gt;gov.nasa.jpl.output" style="stroke: #A80036; stroke-width: 1.0;"/><polygon fill="#A80036" points="719.95,91.06,713.3545,83.7457,715.3821,89.0267,710.1011,91.0543,719.95,91.06" style="stroke: #A80036; stroke-width: 1.0;"/><!--MD5=[89cbc96e1db18570217769575d415a25]
link gov.nasa.jpl.output.tol to gov.nasa.jpl.activity--><path d="M611.42,32.46 C664.02,45.31 750.26,67.59 823,92.07 C850.24,101.24 856.21,105.78 883,116.2 C935.56,136.65 996.71,159.47 1034.89,173.6 " fill="none" id="gov.nasa.jpl.output.tol-&gt;gov.nasa.jpl.activity" style="stroke: #A80036; stroke-width: 1.0;"/><polygon fill="#A80036" points="1039.39,175.27,1032.3306,168.4023,1034.699,173.5395,1029.5618,175.9079,1039.39,175.27" style="stroke: #A80036; stroke-width: 1.0;"/><!--MD5=[8404e9504686120ddd1ac1a3e1c5a026]
link gov.nasa.jpl.output.tol to gov.nasa.jpl.constraint--><path d="M574.03,32.48 C591.7,50.73 627.66,87.23 660,116.2 C682.44,136.3 709.48,158.02 727.39,172.09 " fill="none" id="gov.nasa.jpl.output.tol-&gt;gov.nasa.jpl.constraint" style="stroke: #A80036; stroke-width: 1.0;"/><polygon fill="#A80036" points="731,174.91,726.3777,166.2132,727.0625,171.8285,721.4472,172.5132,731,174.91" style="stroke: #A80036; stroke-width: 1.0;"/><!--MD5=[93bb8e1351babcce2b1e17724b12b95b]
link gov.nasa.jpl.output.parallel to gov.nasa.jpl.constraint--><path d="M728.21,32.47 C709.5,44.58 682.6,65.57 671,92.07 C656.84,124.4 693.44,155.03 720.63,172.44 " fill="none" id="gov.nasa.jpl.output.parallel-&gt;gov.nasa.jpl.constraint" style="stroke: #A80036; stroke-width: 1.0;"/><polygon fill="#A80036" points="724.64,174.94,719.1354,166.773,720.4024,172.2862,714.8893,173.5532,724.64,174.94" style="stroke: #A80036; stroke-width: 1.0;"/><!--MD5=[6e258dc4fddc5a5f565b879785cedc66]
link gov.nasa.jpl.output.parallel to gov.nasa.jpl.time--><path d="M706.47,32.46 C589.73,65.68 264.01,165.73 216,260.34 C204.94,282.13 182.36,324.85 218,368.6 C248.81,406.43 385.7,426.04 465.91,434.46 " fill="none" id="gov.nasa.jpl.output.parallel-&gt;gov.nasa.jpl.time" style="stroke: #A80036; stroke-width: 1.0;"/><polygon fill="#A80036" points="470.55,434.94,462.0094,430.0351,465.5765,434.4255,461.1862,437.9927,470.55,434.94" style="stroke: #A80036; stroke-width: 1.0;"/><!--MD5=[a48370a22171826fa1cbfa9943540010]
link gov.nasa.jpl.output.parallel to gov.nasa.jpl.resource--><path d="M830.45,26.4 C925.57,37.56 1077.94,71.73 1149,176.2 C1183.13,226.38 1163.56,304.08 1152.27,338.33 " fill="none" id="gov.nasa.jpl.output.parallel-&gt;gov.nasa.jpl.resource" style="stroke: #A80036; stroke-width: 1.0;"/><polygon fill="#A80036" points="1150.76,342.76,1157.427,335.5108,1152.3583,338.0223,1149.8467,332.9536,1150.76,342.76" style="stroke: #A80036; stroke-width: 1.0;"/><!--MD5=[3c67cbe8a9ba47876c4e6c4340ea2ff3]
link gov.nasa.jpl.output.parallel to gov.nasa.jpl.output--><path d="M747.86,32.42 C747.69,46.15 747.41,69.35 747.22,85.41 " fill="none" id="gov.nasa.jpl.output.parallel-&gt;gov.nasa.jpl.output" style="stroke: #A80036; stroke-width: 1.0;"/><polygon fill="#A80036" points="747.16,90.3,751.2626,81.3463,747.2171,85.3003,743.2631,81.2549,747.16,90.3" style="stroke: #A80036; stroke-width: 1.0;"/><!--MD5=[eb81b9e3d93d885c4b26c913e6fff3d6]
link gov.nasa.jpl.output.parallel to gov.nasa.jpl.activity--><path d="M770.53,32.56 C828.2,62.16 981.07,140.61 1044.16,172.98 " fill="none" id="gov.nasa.jpl.output.parallel-&gt;gov.nasa.jpl.activity" style="stroke: #A80036; stroke-width: 1.0;"/><polygon fill="#A80036" points="1048.28,175.1,1042.1069,167.4258,1043.8339,172.8126,1038.4471,174.5396,1048.28,175.1" style="stroke: #A80036; stroke-width: 1.0;"/><!--MD5=[9143a37104cbacc87db81e49f7aec4fb]
link gov.nasa.jpl.output.adaptation to gov.nasa.jpl.resource--><path d="M1287.76,116.27 C1286.62,146.11 1280.09,229.34 1243,284.47 C1226.21,309.43 1197.58,328.81 1175.76,340.98 " fill="none" id="gov.nasa.jpl.output.adaptation-&gt;gov.nasa.jpl.resource" style="stroke: #A80036; stroke-width: 1.0;"/><polygon fill="#A80036" points="1171.42,343.35,1181.2354,342.5385,1175.8062,340.9497,1177.3949,335.5206,1171.42,343.35" style="stroke: #A80036; stroke-width: 1.0;"/><!--MD5=[c73f2518c762a6087a573d444c11307d]
link gov.nasa.jpl.output.adaptation to gov.nasa.jpl.constraint--><path d="M1211.92,116.69 C1108.44,132.4 924.47,160.33 821.71,175.93 " fill="none" id="gov.nasa.jpl.output.adaptation-&gt;gov.nasa.jpl.constraint" style="stroke: #A80036; stroke-width: 1.0;"/><polygon fill="#A80036" points="816.86,176.66,826.3619,179.2512,821.8024,175.9029,825.1506,171.3434,816.86,176.66" style="stroke: #A80036; stroke-width: 1.0;"/><!--MD5=[eb37faf68ca54dfd53b77629e39cf68e]
link gov.nasa.jpl.scheduler to gov.nasa.jpl.time--><path d="M990.24,284.96 C900.52,314.8 661.52,394.27 565.64,426.15 " fill="none" id="gov.nasa.jpl.scheduler-&gt;gov.nasa.jpl.time" style="stroke: #A80036; stroke-width: 1.0;"/><polygon fill="#A80036" points="560.97,427.71,570.7713,428.6764,565.7163,426.1374,568.2552,421.0824,560.97,427.71" style="stroke: #A80036; stroke-width: 1.0;"/><!--MD5=[dcdbdb25bd49dcd85e32c303f4d4bff7]
link gov.nasa.jpl.scheduler to gov.nasa.jpl.resource--><path d="M1032.4,284.82 C1049.44,299.53 1086.84,325.11 1114.53,341.14 " fill="none" id="gov.nasa.jpl.scheduler-&gt;gov.nasa.jpl.resource" style="stroke: #A80036; stroke-width: 1.0;"/><polygon fill="#A80036" points="1118.61,343.46,1112.7663,335.5321,1114.2644,340.987,1108.8095,342.4851,1118.61,343.46" style="stroke: #A80036; stroke-width: 1.0;"/><!--MD5=[2451de6d249437e881d2bff1b7df4afe]
link gov.nasa.jpl.resource to gov.nasa.jpl.scheduler--><path d="M1138.71,344.21 C1121.77,329.55 1084.39,303.97 1056.65,287.9 " fill="none" id="gov.nasa.jpl.resource-&gt;gov.nasa.jpl.scheduler" style="stroke: #A80036; stroke-width: 1.0;"/><polygon fill="#A80036" points="1052.56,285.57,1058.4037,293.4979,1056.9056,288.043,1062.3605,286.5449,1052.56,285.57" style="stroke: #A80036; stroke-width: 1.0;"/><!--MD5=[758ac0551583f68482e48c7bb8790097]
link gov.nasa.jpl.command to gov.nasa.jpl.activity--><path d="M1331.76,32.56 C1289.36,43.83 1227.52,63.47 1179,92.07 C1141.72,114.05 1105.67,150.15 1086.41,171 " fill="none" id="gov.nasa.jpl.command-&gt;gov.nasa.jpl.activity" style="stroke: #A80036; stroke-width: 1.0;"/><polygon fill="#A80036" points="1083.14,174.59,1092.166,170.649,1086.5147,170.9007,1086.2631,165.2494,1083.14,174.59" style="stroke: #A80036; stroke-width: 1.0;"/><!--MD5=[d8c62e222700e88231efb4078bd080c1]
link gov.nasa.jpl.command to gov.nasa.jpl.resource--><path d="M1449.83,32.05 C1507.62,44.74 1576.92,70.04 1551,116.2 C1475.65,250.38 1291.82,316.7 1200.02,342.36 " fill="none" id="gov.nasa.jpl.command-&gt;gov.nasa.jpl.resource" style="stroke: #A80036; stroke-width: 1.0;"/><polygon fill="#A80036" points="1195.3,343.66,1205.0387,345.1291,1200.1208,342.3336,1202.9164,337.4157,1195.3,343.66" style="stroke: #A80036; stroke-width: 1.0;"/><!--MD5=[b18c4b1faf42ba1f7948a69540e8960c]
link gov.nasa.jpl.command to gov.nasa.jpl.constraint--><path d="M1336.92,32.56 C1222.71,62.52 917.69,142.51 797.08,174.14 " fill="none" id="gov.nasa.jpl.command-&gt;gov.nasa.jpl.constraint" style="stroke: #A80036; stroke-width: 1.0;"/><polygon fill="#A80036" points="792.25,175.4,801.9707,176.9835,797.0861,174.1303,799.9393,169.2457,792.25,175.4" style="stroke: #A80036; stroke-width: 1.0;"/><!--MD5=[ccf4cb702b07c04410cd909f820ac4e3]
link gov.nasa.jpl.command to gov.nasa.jpl.output.adaptation--><path d="M1368.07,32.42 C1351.83,46.77 1323.89,71.44 1305.68,87.52 " fill="none" id="gov.nasa.jpl.command-&gt;gov.nasa.jpl.output.adaptation" style="stroke: #A80036; stroke-width: 1.0;"/><polygon fill="#A80036" points="1301.96,90.81,1311.3561,87.8583,1305.7104,87.5033,1306.0654,81.8576,1301.96,90.81" style="stroke: #A80036; stroke-width: 1.0;"/><!--MD5=[e765877c2caab86cd9a5d355542999b8]
link gov.nasa.jpl.command to gov.nasa.jpl.input--><path d="M1449.97,24.07 C1551.17,32.68 1728,65.19 1728,187.27 C412,621 412,621 1728,357.54 C1728,432.12 1643.34,485.56 1596.04,509.59 " fill="none" id="gov.nasa.jpl.command-&gt;gov.nasa.jpl.input" style="stroke: #A80036; stroke-width: 1.0;"/><polygon fill="#A80036" points="1591.82,511.7,1601.6581,511.2402,1596.2893,509.4582,1598.0713,504.0894,1591.82,511.7" style="stroke: #A80036; stroke-width: 1.0;"/><!--MD5=[c73fce07fecce27bd2054d350fed5d96]
link gov.nasa.jpl.command to gov.nasa.jpl.time--><path d="M1449.93,31.73 C1531.68,48.83 1657,90.77 1657,187.27 C412,621 412,621 1657,273.4 C1657,382.93 816.73,427.15 584.08,437.29 " fill="none" id="gov.nasa.jpl.command-&gt;gov.nasa.jpl.time" style="stroke: #A80036; stroke-width: 1.0;"/><polygon fill="#A80036" points="579.22,437.5,588.383,441.111,584.2154,437.2859,588.0405,433.1183,579.22,437.5" style="stroke: #A80036; stroke-width: 1.0;"/><!--MD5=[27b8ecd0c266298cc9d3856e1193a193]
link gov.nasa.jpl.command to gov.nasa.jpl.engine--><path d="M1393.93,32.42 C1410.17,46.77 1438.11,71.44 1456.32,87.52 " fill="none" id="gov.nasa.jpl.command-&gt;gov.nasa.jpl.engine" style="stroke: #A80036; stroke-width: 1.0;"/><polygon fill="#A80036" points="1460.04,90.81,1455.9346,81.8576,1456.2896,87.5033,1450.6439,87.8583,1460.04,90.81" style="stroke: #A80036; stroke-width: 1.0;"/><!--MD5=[c13ffb316de8dc172004d6785552307f]
link gov.nasa.jpl.command to gov.nasa.jpl.output--><path d="M1312.25,29.91 C1189.11,45.86 932.58,79.1 812.12,94.7 " fill="none" id="gov.nasa.jpl.command-&gt;gov.nasa.jpl.output" style="stroke: #A80036; stroke-width: 1.0;"/><polygon fill="#A80036" points="807.29,95.33,816.7297,98.1393,812.2485,94.687,815.7008,90.2058,807.29,95.33" style="stroke: #A80036; stroke-width: 1.0;"/><!--MD5=[f6cef64455cfa0e694d99c72dd865e94]
link gov.nasa.jpl.resource to gov.nasa.jpl.time--><path d="M1080.72,366.17 C959.26,382.23 700.37,416.47 583.91,431.88 " fill="none" id="gov.nasa.jpl.resource-&gt;gov.nasa.jpl.time" style="stroke: #A80036; stroke-width: 1.0;"/><polygon fill="#A80036" points="579.3,432.49,588.7476,435.2726,584.2566,431.8329,587.6963,427.342,579.3,432.49" style="stroke: #A80036; stroke-width: 1.0;"/><!--MD5=[57430536837eeda57b2e21448e428998]
link gov.nasa.jpl.engine to gov.nasa.jpl.time--><path d="M1467.64,116.53 C1443.29,158.88 1351.22,307.87 1229,368.6 C1116.26,424.62 732.81,436.49 584.36,439 " fill="none" id="gov.nasa.jpl.engine-&gt;gov.nasa.jpl.time" style="stroke: #A80036; stroke-width: 1.0;"/><polygon fill="#A80036" points="579.42,439.08,588.4762,442.951,584.4195,439.0086,588.3619,434.9518,579.42,439.08" style="stroke: #A80036; stroke-width: 1.0;"/><!--MD5=[33a15947c30f767aaacd97f5877c8402]
link gov.nasa.jpl.constraint to gov.nasa.jpl.scheduler--><path d="M785.95,200.78 C836.88,215.82 925.95,242.14 979.8,258.05 " fill="none" id="gov.nasa.jpl.constraint-&gt;gov.nasa.jpl.scheduler" style="stroke: #A80036; stroke-width: 1.0;"/><polygon fill="#A80036" points="984.42,259.41,976.9226,253.0233,979.625,257.993,974.6554,260.6953,984.42,259.41" style="stroke: #A80036; stroke-width: 1.0;"/><!--MD5=[41e6fe7146416508f6d0810f23e4959a]
link gov.nasa.jpl.constraint to gov.nasa.jpl.time--><path d="M678.69,188.85 C558.46,189.72 316.77,199.24 264,260.34 C232.55,296.75 234.78,330.37 264,368.6 C288.39,400.52 396.75,421.52 465.95,431.93 " fill="none" id="gov.nasa.jpl.constraint-&gt;gov.nasa.jpl.time" style="stroke: #A80036; stroke-width: 1.0;"/><polygon fill="#A80036" points="470.61,432.63,462.2895,427.3603,465.6634,431.9009,461.1229,435.2748,470.61,432.63" style="stroke: #A80036; stroke-width: 1.0;"/><text fill="#888888" font-family="sans-serif" font-size="10" lengthAdjust="spacingAndGlyphs" textLength="182" x="782" y="640.668">UMLDoclet 2.0.8, PlantUML 1.2020.01</text><!--MD5=[c29e7ca94e529c33c2be640fcc19d6b9]
@startuml
    set namespaceSeparator none
    hide circle
    hide empty fields
    hide empty methods

    gov.nasa.jpl.sequencing - -> gov.nasa.jpl.time
    gov.nasa.jpl.sequencing.sasfSequencing - -> gov.nasa.jpl.sequencing
    gov.nasa.jpl.sequencing.sasfSequencing - -> gov.nasa.jpl.time
    gov.nasa.jpl.sequencing.satfSequencing - -> gov.nasa.jpl.sequencing
    gov.nasa.jpl.sequencing.satfSequencing - -> gov.nasa.jpl.time
    gov.nasa.jpl.input - -> com.google.gson
    gov.nasa.jpl.input - -> gov.nasa.jpl.engine
    gov.nasa.jpl.input.parallel - -> gov.nasa.jpl.resource
    gov.nasa.jpl.input.parallel - -> gov.nasa.jpl.input
    gov.nasa.jpl.activity - -> gov.nasa.jpl.time
    gov.nasa.jpl.activity - -> gov.nasa.jpl.scheduler
    gov.nasa.jpl.activity - -> gov.nasa.jpl.engine
    gov.nasa.jpl.output - -> gov.nasa.jpl.activity
    gov.nasa.jpl.output - -> gov.nasa.jpl.resource
    gov.nasa.jpl.output - -> gov.nasa.jpl.constraint
    gov.nasa.jpl.output - -> gov.nasa.jpl.time
    gov.nasa.jpl.output.tol - -> gov.nasa.jpl.resource
    gov.nasa.jpl.output.tol - -> gov.nasa.jpl.time
    gov.nasa.jpl.output.tol - -> gov.nasa.jpl.output
    gov.nasa.jpl.output.tol - -> gov.nasa.jpl.activity
    gov.nasa.jpl.output.tol - -> gov.nasa.jpl.constraint
    gov.nasa.jpl.output.parallel - -> gov.nasa.jpl.constraint
    gov.nasa.jpl.output.parallel - -> gov.nasa.jpl.time
    gov.nasa.jpl.output.parallel - -> gov.nasa.jpl.resource
    gov.nasa.jpl.output.parallel - -> gov.nasa.jpl.output
    gov.nasa.jpl.output.parallel - -> gov.nasa.jpl.activity
    gov.nasa.jpl.output.adaptation - -> gov.nasa.jpl.resource
    gov.nasa.jpl.output.adaptation - -> gov.nasa.jpl.constraint
    gov.nasa.jpl.scheduler - -> gov.nasa.jpl.time
    gov.nasa.jpl.scheduler - -> gov.nasa.jpl.resource
    gov.nasa.jpl.command - -> gov.nasa.jpl.activity
    gov.nasa.jpl.command - -> gov.nasa.jpl.resource
    gov.nasa.jpl.command - -> gov.nasa.jpl.constraint
    gov.nasa.jpl.command - -> gov.nasa.jpl.output.adaptation
    gov.nasa.jpl.command - -> gov.nasa.jpl.input
    gov.nasa.jpl.command - -> gov.nasa.jpl.time
    gov.nasa.jpl.command - -> gov.nasa.jpl.engine
    gov.nasa.jpl.command - -> gov.nasa.jpl.output
    gov.nasa.jpl.resource - -> gov.nasa.jpl.time
    gov.nasa.jpl.resource - -> gov.nasa.jpl.input.parallel
    gov.nasa.jpl.resource - -> gov.nasa.jpl.scheduler
    gov.nasa.jpl.engine - -> gov.nasa.jpl.time
    gov.nasa.jpl.engine - -> gov.nasa.jpl.activity
    gov.nasa.jpl.constraint - -> gov.nasa.jpl.scheduler
    gov.nasa.jpl.constraint - -> gov.nasa.jpl.time

    class "gov.nasa.jpl.sequencing" [[gov/nasa/jpl/sequencing/package-summary.html]] {
    }
    class "gov.nasa.jpl.time" [[https://nasa-jpl.github.io/jplTime/gov/nasa/jpl/time/package-summary.html?is-external=true]] {
    }
    class "gov.nasa.jpl.sequencing.sasfSequencing" [[gov/nasa/jpl/sequencing/sasfSequencing/package-summary.html]] {
    }
    class "gov.nasa.jpl.sequencing.satfSequencing" [[gov/nasa/jpl/sequencing/satfSequencing/package-summary.html]] {
    }
    class "gov.nasa.jpl.input" [[gov/nasa/jpl/input/package-summary.html]] {
    }
    class "gov.nasa.jpl.engine" [[gov/nasa/jpl/engine/package-summary.html]] {
    }
    class "gov.nasa.jpl.input.parallel" [[gov/nasa/jpl/input/parallel/package-summary.html]] {
    }
    class "gov.nasa.jpl.resource" [[gov/nasa/jpl/resource/package-summary.html]] {
    }
    class "gov.nasa.jpl.activity" [[gov/nasa/jpl/activity/package-summary.html]] {
    }
    class "gov.nasa.jpl.scheduler" [[gov/nasa/jpl/scheduler/package-summary.html]] {
    }
    class "gov.nasa.jpl.output" [[gov/nasa/jpl/output/package-summary.html]] {
    }
    class "gov.nasa.jpl.constraint" [[gov/nasa/jpl/constraint/package-summary.html]] {
    }
    class "gov.nasa.jpl.output.tol" [[gov/nasa/jpl/output/tol/package-summary.html]] {
    }
    class "gov.nasa.jpl.output.parallel" [[gov/nasa/jpl/output/parallel/package-summary.html]] {
    }
    class "gov.nasa.jpl.output.adaptation" [[gov/nasa/jpl/output/adaptation/package-summary.html]] {
    }
    class "gov.nasa.jpl.command" [[gov/nasa/jpl/command/package-summary.html]] {
    }

    center footer UMLDoclet 2.0.8, PlantUML 1.2020.01
@enduml

PlantUML version 1.2020.01(Sun Feb 16 09:40:32 PST 2020)
(APACHE source distribution)
Java Runtime: OpenJDK Runtime Environment
JVM: OpenJDK 64-Bit Server VM
Java Version: 17.0.6+10
Operating System: Mac OS X
Default Encoding: UTF-8
Language: en
Country: US
--></g></svg>