<?xml version="1.0" encoding="UTF-8" standalone="no"?><svg xmlns="http://www.w3.org/2000/svg" xmlns:xlink="http://www.w3.org/1999/xlink" contentScriptType="application/ecmascript" contentStyleType="text/css" height="211px" preserveAspectRatio="none" style="width:253px;height:211px;" version="1.1" viewBox="0 0 253 211" width="253px" zoomAndPan="magnify"><defs><filter height="300%" id="fl8vw0rq2du69" width="300%" x="-1" y="-1"><feGaussianBlur result="blurOut" stdDeviation="2.0"/><feColorMatrix in="blurOut" result="blurOut2" type="matrix" values="0 0 0 0 0 0 0 0 0 0 0 0 0 0 0 0 0 0 .4 0"/><feOffset dx="4.0" dy="4.0" in="blurOut2" result="blurOut3"/><feBlend in="SourceGraphic" in2="blurOut3" mode="normal"/></filter></defs><g><!--MD5=[7322f55fd5e7d351ca559b0b2de9e02f]
class gov.nasa.jpl.command.CommandException--><a href="CommandException.html" target="_top" title="CommandException.html" xlink:actuate="onRequest" xlink:href="CommandException.html" xlink:show="new" xlink:title="CommandException.html" xlink:type="simple"><rect fill="#FEFECE" filter="url(#fl8vw0rq2du69)" height="72.1758" id="gov.nasa.jpl.command.CommandException" style="stroke: #A80036; stroke-width: 1.5;" width="236" x="6" y="105.82"/><ellipse cx="50.25" cy="124.9528" fill="#ADD1B2" rx="11" ry="11" style="stroke: #A80036; stroke-width: 1.0;"/><path d="M52.7231,131.0959 Q52.1421,131.3947 51.5029,131.5441 Q50.8638,131.6935 50.1582,131.6935 Q47.6514,131.6935 46.3315,130.0417 Q45.0117,128.3898 45.0117,125.2687 Q45.0117,122.1393 46.3315,120.4875 Q47.6514,118.8356 50.1582,118.8356 Q50.8638,118.8356 51.5112,118.985 Q52.1587,119.1345 52.7231,119.4333 L52.7231,122.1559 Q52.0923,121.5749 51.4988,121.3051 Q50.9053,121.0353 50.2744,121.0353 Q48.9297,121.0353 48.2449,122.102 Q47.5601,123.1686 47.5601,125.2687 Q47.5601,127.3605 48.2449,128.4272 Q48.9297,129.4938 50.2744,129.4938 Q50.9053,129.4938 51.4988,129.2241 Q52.0923,128.9543 52.7231,128.3732 Z "/><text fill="#000000" font-family="sans-serif" font-size="14" lengthAdjust="spacingAndGlyphs" textLength="139" x="70.75" y="124.3552">CommandException</text><text fill="#000000" font-family="sans-serif" font-size="10" lengthAdjust="spacingAndGlyphs" textLength="108" x="86.25" y="136.9763">gov.nasa.jpl.command</text><line style="stroke: #A80036; stroke-width: 1.5;" x1="7" x2="241" y1="144.0856" y2="144.0856"/><ellipse cx="17" cy="155.0856" fill="#84BE84" rx="3" ry="3" style="stroke: #038048; stroke-width: 1.0;"/><text fill="#000000" font-family="sans-serif" font-size="11" lengthAdjust="spacingAndGlyphs" textLength="148" x="26" y="158.7204">CommandException(String)</text><ellipse cx="17" cy="168.0407" fill="#84BE84" rx="3" ry="3" style="stroke: #038048; stroke-width: 1.0;"/><text fill="#000000" font-family="sans-serif" font-size="11" lengthAdjust="spacingAndGlyphs" textLength="210" x="26" y="171.6755">CommandException(String, Throwable)</text></a><!--MD5=[a4d8c85934e7c2286da27481ca2471bd]
class java.lang.RuntimeException--><a href="https://docs.oracle.com/en/java/javase/13/docs/api/java.base/java/lang/RuntimeException.html?is-external=true" target="_top" title="https://docs.oracle.com/en/java/javase/13/docs/api/java.base/java/lang/RuntimeException.html?is-external=true" xlink:actuate="onRequest" xlink:href="https://docs.oracle.com/en/java/javase/13/docs/api/java.base/java/lang/RuntimeException.html?is-external=true" xlink:show="new" xlink:title="https://docs.oracle.com/en/java/javase/13/docs/api/java.base/java/lang/RuntimeException.html?is-external=true" xlink:type="simple"><rect fill="#FEFECE" filter="url(#fl8vw0rq2du69)" height="38.2656" id="java.lang.RuntimeException" style="stroke: #A80036; stroke-width: 1.5;" width="157" x="45.5" y="7.56"/><ellipse cx="60.5" cy="26.6928" fill="#ADD1B2" rx="11" ry="11" style="stroke: #A80036; stroke-width: 1.0;"/><path d="M62.9731,32.8359 Q62.3921,33.1347 61.7529,33.2841 Q61.1138,33.4335 60.4082,33.4335 Q57.9014,33.4335 56.5815,31.7817 Q55.2617,30.1298 55.2617,27.0087 Q55.2617,23.8793 56.5815,22.2275 Q57.9014,20.5756 60.4082,20.5756 Q61.1138,20.5756 61.7612,20.725 Q62.4087,20.8745 62.9731,21.1733 L62.9731,23.8959 Q62.3423,23.3149 61.7488,23.0451 Q61.1553,22.7753 60.5244,22.7753 Q59.1797,22.7753 58.4949,23.842 Q57.8101,24.9086 57.8101,27.0087 Q57.8101,29.1005 58.4949,30.1672 Q59.1797,31.2338 60.5244,31.2338 Q61.1553,31.2338 61.7488,30.9641 Q62.3423,30.6943 62.9731,30.1132 Z "/><text fill="#000000" font-family="sans-serif" font-size="14" lengthAdjust="spacingAndGlyphs" textLength="125" x="74.5" y="26.0952">RuntimeException</text><text fill="#000000" font-family="sans-serif" font-size="10" lengthAdjust="spacingAndGlyphs" textLength="44" x="115" y="38.7163">java.lang</text></a><!--MD5=[34ccd7e50d3fbf8c48d71b4d68260422]
reverse link java.lang.RuntimeException to gov.nasa.jpl.command.CommandException--><path d="M124,67.27 C124,79.73 124,93.41 124,105.55 " fill="none" id="java.lang.RuntimeException&lt;-gov.nasa.jpl.command.CommandException" style="stroke: #A80036; stroke-width: 1.0;"/><polygon fill="none" points="117,67.65,124,47.65,131,67.65,117,67.65" style="stroke: #A80036; stroke-width: 1.0;"/><text fill="#888888" font-family="sans-serif" font-size="10" lengthAdjust="spacingAndGlyphs" textLength="182" x="39" y="197.668">UMLDoclet 2.0.8, PlantUML 1.2020.01</text><!--MD5=[3f013a0b0569f1aec4e947e0dd82a19b]
@startuml
    set namespaceSeparator none
    hide empty fields
    hide empty methods

    class "<size:14>CommandException\n<size:10>gov.nasa.jpl.command" as gov.nasa.jpl.command.CommandException [[CommandException.html]] {
        +CommandException(String)
        +CommandException(String, Throwable)
    }

    class "<size:14>RuntimeException\n<size:10>java.lang" as java.lang.RuntimeException [[https://docs.oracle.com/en/java/javase/13/docs/api/java.base/java/lang/RuntimeException.html?is-external=true]]

    java.lang.RuntimeException <|- - gov.nasa.jpl.command.CommandException

    center footer UMLDoclet 2.0.8, PlantUML 1.2020.01
@enduml

PlantUML version 1.2020.01(Sun Feb 16 09:40:32 PST 2020)
(APACHE source distribution)
Java Runtime: OpenJDK Runtime Environment
JVM: OpenJDK 64-Bit Server VM
Java Version: 17.0.6+10
Operating System: Mac OS X
Default Encoding: UTF-8
Language: en
Country: US
--></g></svg>