<?xml version="1.0" encoding="UTF-8" standalone="no"?><svg xmlns="http://www.w3.org/2000/svg" xmlns:xlink="http://www.w3.org/1999/xlink" contentScriptType="application/ecmascript" contentStyleType="text/css" height="96px" preserveAspectRatio="none" style="width:254px;height:96px;" version="1.1" viewBox="0 0 254 96" width="254px" zoomAndPan="magnify"><defs><filter height="300%" id="fc8e7gt6m0eqc" width="300%" x="-1" y="-1"><feGaussianBlur result="blurOut" stdDeviation="2.0"/><feColorMatrix in="blurOut" result="blurOut2" type="matrix" values="0 0 0 0 0 0 0 0 0 0 0 0 0 0 0 0 0 0 .4 0"/><feOffset dx="4.0" dy="4.0" in="blurOut2" result="blurOut3"/><feBlend in="SourceGraphic" in2="blurOut3" mode="normal"/></filter></defs><g><!--MD5=[48e0ffd76c8a5cae11cdf856b70425b8]
class gov.nasa.jpl.command.CommandController--><a href="CommandController.html" target="_top" title="CommandController.html" xlink:actuate="onRequest" xlink:href="CommandController.html" xlink:show="new" xlink:title="CommandController.html" xlink:type="simple"><rect fill="#FEFECE" filter="url(#fc8e7gt6m0eqc)" height="59.2207" id="gov.nasa.jpl.command.CommandController" style="stroke: #A80036; stroke-width: 1.5;" width="236" x="7" y="7"/><ellipse cx="50.35" cy="26.1328" fill="#ADD1B2" rx="11" ry="11" style="stroke: #A80036; stroke-width: 1.0;"/><path d="M52.8231,32.2759 Q52.2421,32.5747 51.6029,32.7241 Q50.9638,32.8735 50.2582,32.8735 Q47.7514,32.8735 46.4315,31.2217 Q45.1117,29.5698 45.1117,26.4487 Q45.1117,23.3193 46.4315,21.6675 Q47.7514,20.0156 50.2582,20.0156 Q50.9638,20.0156 51.6112,20.165 Q52.2587,20.3145 52.8231,20.6133 L52.8231,23.3359 Q52.1923,22.7549 51.5988,22.4851 Q51.0053,22.2153 50.3744,22.2153 Q49.0297,22.2153 48.3449,23.282 Q47.6601,24.3486 47.6601,26.4487 Q47.6601,28.5405 48.3449,29.6072 Q49.0297,30.6738 50.3744,30.6738 Q51.0053,30.6738 51.5988,30.4041 Q52.1923,30.1343 52.8231,29.5532 Z "/><text fill="#000000" font-family="sans-serif" font-size="14" lengthAdjust="spacingAndGlyphs" textLength="141" x="70.65" y="25.5352">CommandController</text><text fill="#000000" font-family="sans-serif" font-size="10" lengthAdjust="spacingAndGlyphs" textLength="108" x="87.15" y="38.1563">gov.nasa.jpl.command</text><line style="stroke: #A80036; stroke-width: 1.5;" x1="8" x2="242" y1="45.2656" y2="45.2656"/><ellipse cx="18" cy="56.2656" fill="#84BE84" rx="3" ry="3" style="stroke: #038048; stroke-width: 1.0;"/><text fill="#000000" font-family="sans-serif" font-size="11" lengthAdjust="spacingAndGlyphs" text-decoration="underline" textLength="210" x="27" y="59.9004">issueCommand(String, String): boolean</text></a><text fill="#888888" font-family="sans-serif" font-size="10" lengthAdjust="spacingAndGlyphs" textLength="182" x="34" y="82.8887">UMLDoclet 2.0.8, PlantUML 1.2020.01</text><!--MD5=[3d9584a6803f4723838ea4743316d156]
@startuml
    set namespaceSeparator none
    hide empty fields
    hide empty methods

    class "<size:14>CommandController\n<size:10>gov.nasa.jpl.command" as gov.nasa.jpl.command.CommandController [[CommandController.html]] {
        {static} +issueCommand(String, String): boolean
    }

    center footer UMLDoclet 2.0.8, PlantUML 1.2020.01
@enduml

PlantUML version 1.2020.01(Sun Feb 16 09:40:32 PST 2020)
(APACHE source distribution)
Java Runtime: OpenJDK Runtime Environment
JVM: OpenJDK 64-Bit Server VM
Java Version: 17.0.6+10
Operating System: Mac OS X
Default Encoding: UTF-8
Language: en
Country: US
--></g></svg>