<?xml version="1.0" encoding="UTF-8" standalone="no"?><svg xmlns="http://www.w3.org/2000/svg" xmlns:xlink="http://www.w3.org/1999/xlink" contentScriptType="application/ecmascript" contentStyleType="text/css" height="258px" preserveAspectRatio="none" style="width:194px;height:258px;" version="1.1" viewBox="0 0 194 258" width="194px" zoomAndPan="magnify"><defs><filter height="300%" id="ffqudmw4xn6e5" width="300%" x="-1" y="-1"><feGaussianBlur result="blurOut" stdDeviation="2.0"/><feColorMatrix in="blurOut" result="blurOut2" type="matrix" values="0 0 0 0 0 0 0 0 0 0 0 0 0 0 0 0 0 0 .4 0"/><feOffset dx="4.0" dy="4.0" in="blurOut2" result="blurOut3"/><feBlend in="SourceGraphic" in2="blurOut3" mode="normal"/></filter></defs><g><!--MD5=[7f842783e0f96374b8ebfab46e1ad1e0]
class gov.nasa.jpl.command.InconCommand--><a href="InconCommand.html" target="_top" title="InconCommand.html" xlink:actuate="onRequest" xlink:href="InconCommand.html" xlink:show="new" xlink:title="InconCommand.html" xlink:type="simple"><rect fill="#FEFECE" filter="url(#ffqudmw4xn6e5)" height="85.1309" id="gov.nasa.jpl.command.InconCommand" style="stroke: #A80036; stroke-width: 1.5;" width="151" x="9.5" y="139.87"/><ellipse cx="29" cy="159.0028" fill="#ADD1B2" rx="11" ry="11" style="stroke: #A80036; stroke-width: 1.0;"/><path d="M31.4731,165.1459 Q30.8921,165.4447 30.2529,165.5941 Q29.6138,165.7435 28.9082,165.7435 Q26.4014,165.7435 25.0815,164.0917 Q23.7617,162.4398 23.7617,159.3187 Q23.7617,156.1893 25.0815,154.5375 Q26.4014,152.8856 28.9082,152.8856 Q29.6138,152.8856 30.2612,153.035 Q30.9087,153.1845 31.4731,153.4833 L31.4731,156.2059 Q30.8423,155.6249 30.2488,155.3551 Q29.6553,155.0853 29.0244,155.0853 Q27.6797,155.0853 26.9949,156.152 Q26.3101,157.2186 26.3101,159.3187 Q26.3101,161.4105 26.9949,162.4772 Q27.6797,163.5438 29.0244,163.5438 Q29.6553,163.5438 30.2488,163.2741 Q30.8423,163.0043 31.4731,162.4232 Z "/><text fill="#000000" font-family="sans-serif" font-size="14" lengthAdjust="spacingAndGlyphs" textLength="109" x="44" y="158.4052">InconCommand</text><text fill="#000000" font-family="sans-serif" font-size="10" lengthAdjust="spacingAndGlyphs" textLength="108" x="44.5" y="171.0263">gov.nasa.jpl.command</text><line style="stroke: #A80036; stroke-width: 1.5;" x1="10.5" x2="159.5" y1="178.1356" y2="178.1356"/><ellipse cx="20.5" cy="189.1356" fill="#84BE84" rx="3" ry="3" style="stroke: #038048; stroke-width: 1.0;"/><text fill="#000000" font-family="sans-serif" font-size="11" lengthAdjust="spacingAndGlyphs" textLength="125" x="29.5" y="192.7704">InconCommand(String)</text><ellipse cx="20.5" cy="202.0907" fill="#84BE84" rx="3" ry="3" style="stroke: #038048; stroke-width: 1.0;"/><text fill="#000000" font-family="sans-serif" font-size="11" lengthAdjust="spacingAndGlyphs" textLength="79" x="29.5" y="205.7255">execute(): void</text><ellipse cx="20.5" cy="215.0458" fill="#84BE84" rx="3" ry="3" style="stroke: #038048; stroke-width: 1.0;"/><text fill="#000000" font-family="sans-serif" font-size="11" lengthAdjust="spacingAndGlyphs" textLength="93" x="29.5" y="218.6805">unExecute(): void</text></a><!--MD5=[9a77bcc6d87e42cdf3e2bd8d24f5a402]
class gov.nasa.jpl.command.Command--><a href="Command.html" target="_top" title="Command.html" xlink:actuate="onRequest" xlink:href="Command.html" xlink:show="new" xlink:title="Command.html" xlink:type="simple"><rect fill="#FEFECE" filter="url(#ffqudmw4xn6e5)" height="72.1758" id="gov.nasa.jpl.command.Command" style="stroke: #A80036; stroke-width: 1.5;" width="140" x="15" y="7.69"/><ellipse cx="30" cy="26.8228" fill="#B4A7E5" rx="11" ry="11" style="stroke: #A80036; stroke-width: 1.0;"/><path d="M26.4277,23.0879 L26.4277,20.9297 L33.8071,20.9297 L33.8071,23.0879 L31.3418,23.0879 L31.3418,31.1646 L33.8071,31.1646 L33.8071,33.3228 L26.4277,33.3228 L26.4277,31.1646 L28.8931,31.1646 L28.8931,23.0879 Z "/><text fill="#000000" font-family="sans-serif" font-size="14" font-style="italic" lengthAdjust="spacingAndGlyphs" textLength="71" x="62.5" y="26.2252">Command</text><text fill="#000000" font-family="sans-serif" font-size="10" font-style="italic" lengthAdjust="spacingAndGlyphs" textLength="108" x="44" y="38.8463">gov.nasa.jpl.command</text><line style="stroke: #A80036; stroke-width: 1.5;" x1="16" x2="154" y1="45.9556" y2="45.9556"/><ellipse cx="26" cy="56.9556" fill="#84BE84" rx="3" ry="3" style="stroke: #038048; stroke-width: 1.0;"/><text fill="#000000" font-family="sans-serif" font-size="11" font-style="italic" lengthAdjust="spacingAndGlyphs" textLength="79" x="35" y="60.5904">execute(): void</text><ellipse cx="26" cy="69.9107" fill="#84BE84" rx="3" ry="3" style="stroke: #038048; stroke-width: 1.0;"/><text fill="#000000" font-family="sans-serif" font-size="11" font-style="italic" lengthAdjust="spacingAndGlyphs" textLength="93" x="35" y="73.5455">unExecute(): void</text></a><!--MD5=[2337bba93fa4d3c571fd52e1936b3ab0]
reverse link gov.nasa.jpl.command.Command to gov.nasa.jpl.command.InconCommand--><path d="M85,101.65 C85,114.42 85,127.74 85,139.76 " fill="none" id="gov.nasa.jpl.command.Command&lt;-gov.nasa.jpl.command.InconCommand" style="stroke: #A80036; stroke-width: 1.0; stroke-dasharray: 7.0,7.0;"/><polygon fill="none" points="78,101.84,85,81.84,92,101.84,78,101.84" style="stroke: #A80036; stroke-width: 1.0;"/><text fill="#888888" font-family="sans-serif" font-size="10" lengthAdjust="spacingAndGlyphs" textLength="182" x="0" y="244.668">UMLDoclet 2.0.8, PlantUML 1.2020.01</text><!--MD5=[552be3aa96f836f884ab92eedbf2cf59]
@startuml
    set namespaceSeparator none
    hide empty fields
    hide empty methods

    class "<size:14>InconCommand\n<size:10>gov.nasa.jpl.command" as gov.nasa.jpl.command.InconCommand [[InconCommand.html]] {
        +InconCommand(String)
        +execute(): void
        +unExecute(): void
    }

    interface "<size:14>Command\n<size:10>gov.nasa.jpl.command" as gov.nasa.jpl.command.Command [[Command.html]] {
        {abstract} +execute(): void
        {abstract} +unExecute(): void
    }

    gov.nasa.jpl.command.Command <|.. gov.nasa.jpl.command.InconCommand

    center footer UMLDoclet 2.0.8, PlantUML 1.2020.01
@enduml

PlantUML version 1.2020.01(Sun Feb 16 09:40:32 PST 2020)
(APACHE source distribution)
Java Runtime: OpenJDK Runtime Environment
JVM: OpenJDK 64-Bit Server VM
Java Version: 17.0.6+10
Operating System: Mac OS X
Default Encoding: UTF-8
Language: en
Country: US
--></g></svg>