<?xml version="1.0" encoding="UTF-8" standalone="no"?><svg xmlns="http://www.w3.org/2000/svg" xmlns:xlink="http://www.w3.org/1999/xlink" contentScriptType="application/ecmascript" contentStyleType="text/css" height="271px" preserveAspectRatio="none" style="width:267px;height:271px;" version="1.1" viewBox="0 0 267 271" width="267px" zoomAndPan="magnify"><defs><filter height="300%" id="f1isf78mdad3oq" width="300%" x="-1" y="-1"><feGaussianBlur result="blurOut" stdDeviation="2.0"/><feColorMatrix in="blurOut" result="blurOut2" type="matrix" values="0 0 0 0 0 0 0 0 0 0 0 0 0 0 0 0 0 0 .4 0"/><feOffset dx="4.0" dy="4.0" in="blurOut2" result="blurOut3"/><feBlend in="SourceGraphic" in2="blurOut3" mode="normal"/></filter></defs><g><!--MD5=[9107f91b04af6ca33ee1b78073a73524]
class gov.nasa.jpl.command.LoadKernelsCommand--><a href="LoadKernelsCommand.html" target="_top" title="LoadKernelsCommand.html" xlink:actuate="onRequest" xlink:href="LoadKernelsCommand.html" xlink:show="new" xlink:title="LoadKernelsCommand.html" xlink:type="simple"><rect fill="#FEFECE" filter="url(#f1isf78mdad3oq)" height="98.0859" id="gov.nasa.jpl.command.LoadKernelsCommand" style="stroke: #A80036; stroke-width: 1.5;" width="250" x="6" y="139.91"/><ellipse cx="49.35" cy="159.0428" fill="#ADD1B2" rx="11" ry="11" style="stroke: #A80036; stroke-width: 1.0;"/><path d="M51.8231,165.1859 Q51.2421,165.4847 50.6029,165.6341 Q49.9638,165.7835 49.2582,165.7835 Q46.7514,165.7835 45.4315,164.1317 Q44.1117,162.4798 44.1117,159.3587 Q44.1117,156.2293 45.4315,154.5775 Q46.7514,152.9256 49.2582,152.9256 Q49.9638,152.9256 50.6112,153.075 Q51.2587,153.2245 51.8231,153.5233 L51.8231,156.2459 Q51.1923,155.6649 50.5988,155.3951 Q50.0053,155.1253 49.3744,155.1253 Q48.0297,155.1253 47.3449,156.192 Q46.6601,157.2586 46.6601,159.3587 Q46.6601,161.4505 47.3449,162.5172 Q48.0297,163.5838 49.3744,163.5838 Q50.0053,163.5838 50.5988,163.3141 Q51.1923,163.0443 51.8231,162.4632 Z "/><text fill="#000000" font-family="sans-serif" font-size="14" lengthAdjust="spacingAndGlyphs" textLength="155" x="69.65" y="158.4452">LoadKernelsCommand</text><text fill="#000000" font-family="sans-serif" font-size="10" lengthAdjust="spacingAndGlyphs" textLength="108" x="93.15" y="171.0663">gov.nasa.jpl.command</text><line style="stroke: #A80036; stroke-width: 1.5;" x1="7" x2="255" y1="178.1756" y2="178.1756"/><ellipse cx="17" cy="189.1756" fill="#84BE84" rx="3" ry="3" style="stroke: #038048; stroke-width: 1.0;"/><text fill="#000000" font-family="sans-serif" font-size="11" lengthAdjust="spacingAndGlyphs" textLength="161" x="26" y="192.8104">LoadKernelsCommand(String)</text><ellipse cx="17" cy="202.1307" fill="#84BE84" rx="3" ry="3" style="stroke: #038048; stroke-width: 1.0;"/><text fill="#000000" font-family="sans-serif" font-size="11" lengthAdjust="spacingAndGlyphs" textLength="224" x="26" y="205.7655">loadKernelsFromConventionFolder(): void</text><ellipse cx="17" cy="215.0858" fill="#84BE84" rx="3" ry="3" style="stroke: #038048; stroke-width: 1.0;"/><text fill="#000000" font-family="sans-serif" font-size="11" lengthAdjust="spacingAndGlyphs" textLength="79" x="26" y="218.7205">execute(): void</text><ellipse cx="17" cy="228.0409" fill="#84BE84" rx="3" ry="3" style="stroke: #038048; stroke-width: 1.0;"/><text fill="#000000" font-family="sans-serif" font-size="11" lengthAdjust="spacingAndGlyphs" textLength="93" x="26" y="231.6756">unExecute(): void</text></a><!--MD5=[9a77bcc6d87e42cdf3e2bd8d24f5a402]
class gov.nasa.jpl.command.Command--><a href="Command.html" target="_top" title="Command.html" xlink:actuate="onRequest" xlink:href="Command.html" xlink:show="new" xlink:title="Command.html" xlink:type="simple"><rect fill="#FEFECE" filter="url(#f1isf78mdad3oq)" height="72.1758" id="gov.nasa.jpl.command.Command" style="stroke: #A80036; stroke-width: 1.5;" width="140" x="61" y="7.74"/><ellipse cx="76" cy="26.8728" fill="#B4A7E5" rx="11" ry="11" style="stroke: #A80036; stroke-width: 1.0;"/><path d="M72.4277,23.1379 L72.4277,20.9797 L79.8071,20.9797 L79.8071,23.1379 L77.3418,23.1379 L77.3418,31.2146 L79.8071,31.2146 L79.8071,33.3728 L72.4277,33.3728 L72.4277,31.2146 L74.8931,31.2146 L74.8931,23.1379 Z "/><text fill="#000000" font-family="sans-serif" font-size="14" font-style="italic" lengthAdjust="spacingAndGlyphs" textLength="71" x="108.5" y="26.2752">Command</text><text fill="#000000" font-family="sans-serif" font-size="10" font-style="italic" lengthAdjust="spacingAndGlyphs" textLength="108" x="90" y="38.8963">gov.nasa.jpl.command</text><line style="stroke: #A80036; stroke-width: 1.5;" x1="62" x2="200" y1="46.0056" y2="46.0056"/><ellipse cx="72" cy="57.0056" fill="#84BE84" rx="3" ry="3" style="stroke: #038048; stroke-width: 1.0;"/><text fill="#000000" font-family="sans-serif" font-size="11" font-style="italic" lengthAdjust="spacingAndGlyphs" textLength="79" x="81" y="60.6404">execute(): void</text><ellipse cx="72" cy="69.9607" fill="#84BE84" rx="3" ry="3" style="stroke: #038048; stroke-width: 1.0;"/><text fill="#000000" font-family="sans-serif" font-size="11" font-style="italic" lengthAdjust="spacingAndGlyphs" textLength="93" x="81" y="73.5955">unExecute(): void</text></a><!--MD5=[8b940c9bf1ee441ced2245bfe2242f38]
reverse link gov.nasa.jpl.command.Command to gov.nasa.jpl.command.LoadKernelsCommand--><path d="M131,101.7 C131,114.21 131,127.34 131,139.49 " fill="none" id="gov.nasa.jpl.command.Command&lt;-gov.nasa.jpl.command.LoadKernelsCommand" style="stroke: #A80036; stroke-width: 1.0; stroke-dasharray: 7.0,7.0;"/><polygon fill="none" points="124,101.72,131,81.72,138,101.72,124,101.72" style="stroke: #A80036; stroke-width: 1.0;"/><text fill="#888888" font-family="sans-serif" font-size="10" lengthAdjust="spacingAndGlyphs" textLength="182" x="46" y="257.668">UMLDoclet 2.0.8, PlantUML 1.2020.01</text><!--MD5=[02f62e2db5d39a168ad4285802484e4c]
@startuml
    set namespaceSeparator none
    hide empty fields
    hide empty methods

    class "<size:14>LoadKernelsCommand\n<size:10>gov.nasa.jpl.command" as gov.nasa.jpl.command.LoadKernelsCommand [[LoadKernelsCommand.html]] {
        +LoadKernelsCommand(String)
        +loadKernelsFromConventionFolder(): void
        +execute(): void
        +unExecute(): void
    }

    interface "<size:14>Command\n<size:10>gov.nasa.jpl.command" as gov.nasa.jpl.command.Command [[Command.html]] {
        {abstract} +execute(): void
        {abstract} +unExecute(): void
    }

    gov.nasa.jpl.command.Command <|.. gov.nasa.jpl.command.LoadKernelsCommand

    center footer UMLDoclet 2.0.8, PlantUML 1.2020.01
@enduml

PlantUML version 1.2020.01(Sun Feb 16 09:40:32 PST 2020)
(APACHE source distribution)
Java Runtime: OpenJDK Runtime Environment
JVM: OpenJDK 64-Bit Server VM
Java Version: 17.0.6+10
Operating System: Mac OS X
Default Encoding: UTF-8
Language: en
Country: US
--></g></svg>