<?xml version="1.0" encoding="UTF-8" standalone="no"?><svg xmlns="http://www.w3.org/2000/svg" xmlns:xlink="http://www.w3.org/1999/xlink" contentScriptType="application/ecmascript" contentStyleType="text/css" height="258px" preserveAspectRatio="none" style="width:206px;height:258px;" version="1.1" viewBox="0 0 206 258" width="206px" zoomAndPan="magnify"><defs><filter height="300%" id="fvt9mzcfhlq35" width="300%" x="-1" y="-1"><feGaussianBlur result="blurOut" stdDeviation="2.0"/><feColorMatrix in="blurOut" result="blurOut2" type="matrix" values="0 0 0 0 0 0 0 0 0 0 0 0 0 0 0 0 0 0 .4 0"/><feOffset dx="4.0" dy="4.0" in="blurOut2" result="blurOut3"/><feBlend in="SourceGraphic" in2="blurOut3" mode="normal"/></filter></defs><g><!--MD5=[f10a7aac19c7bb34c7a2391653e6c08b]
class gov.nasa.jpl.command.NewActivityCommand--><a href="NewActivityCommand.html" target="_top" title="NewActivityCommand.html" xlink:actuate="onRequest" xlink:href="NewActivityCommand.html" xlink:show="new" xlink:title="NewActivityCommand.html" xlink:type="simple"><rect fill="#FEFECE" filter="url(#fvt9mzcfhlq35)" height="85.1309" id="gov.nasa.jpl.command.NewActivityCommand" style="stroke: #A80036; stroke-width: 1.5;" width="183" x="6" y="139.87"/><ellipse cx="21.9" cy="159.0028" fill="#ADD1B2" rx="11" ry="11" style="stroke: #A80036; stroke-width: 1.0;"/><path d="M24.3731,165.1459 Q23.7921,165.4447 23.1529,165.5941 Q22.5138,165.7435 21.8082,165.7435 Q19.3014,165.7435 17.9815,164.0917 Q16.6617,162.4398 16.6617,159.3187 Q16.6617,156.1893 17.9815,154.5375 Q19.3014,152.8856 21.8082,152.8856 Q22.5138,152.8856 23.1612,153.035 Q23.8087,153.1845 24.3731,153.4833 L24.3731,156.2059 Q23.7423,155.6249 23.1488,155.3551 Q22.5553,155.0853 21.9244,155.0853 Q20.5797,155.0853 19.8949,156.152 Q19.2101,157.2186 19.2101,159.3187 Q19.2101,161.4105 19.8949,162.4772 Q20.5797,163.5438 21.9244,163.5438 Q22.5553,163.5438 23.1488,163.2741 Q23.7423,163.0043 24.3731,162.4232 Z "/><text fill="#000000" font-family="sans-serif" font-size="14" lengthAdjust="spacingAndGlyphs" textLength="149" x="36.1" y="158.4052">NewActivityCommand</text><text fill="#000000" font-family="sans-serif" font-size="10" lengthAdjust="spacingAndGlyphs" textLength="108" x="56.6" y="171.0263">gov.nasa.jpl.command</text><line style="stroke: #A80036; stroke-width: 1.5;" x1="7" x2="188" y1="178.1356" y2="178.1356"/><ellipse cx="17" cy="189.1356" fill="#84BE84" rx="3" ry="3" style="stroke: #038048; stroke-width: 1.0;"/><text fill="#000000" font-family="sans-serif" font-size="11" lengthAdjust="spacingAndGlyphs" textLength="157" x="26" y="192.7704">NewActivityCommand(String)</text><ellipse cx="17" cy="202.0907" fill="#84BE84" rx="3" ry="3" style="stroke: #038048; stroke-width: 1.0;"/><text fill="#000000" font-family="sans-serif" font-size="11" lengthAdjust="spacingAndGlyphs" textLength="79" x="26" y="205.7255">execute(): void</text><ellipse cx="17" cy="215.0458" fill="#84BE84" rx="3" ry="3" style="stroke: #038048; stroke-width: 1.0;"/><text fill="#000000" font-family="sans-serif" font-size="11" lengthAdjust="spacingAndGlyphs" textLength="93" x="26" y="218.6805">unExecute(): void</text></a><!--MD5=[9a77bcc6d87e42cdf3e2bd8d24f5a402]
class gov.nasa.jpl.command.Command--><a href="Command.html" target="_top" title="Command.html" xlink:actuate="onRequest" xlink:href="Command.html" xlink:show="new" xlink:title="Command.html" xlink:type="simple"><rect fill="#FEFECE" filter="url(#fvt9mzcfhlq35)" height="72.1758" id="gov.nasa.jpl.command.Command" style="stroke: #A80036; stroke-width: 1.5;" width="140" x="27.5" y="7.69"/><ellipse cx="42.5" cy="26.8228" fill="#B4A7E5" rx="11" ry="11" style="stroke: #A80036; stroke-width: 1.0;"/><path d="M38.9277,23.0879 L38.9277,20.9297 L46.3071,20.9297 L46.3071,23.0879 L43.8418,23.0879 L43.8418,31.1646 L46.3071,31.1646 L46.3071,33.3228 L38.9277,33.3228 L38.9277,31.1646 L41.3931,31.1646 L41.3931,23.0879 Z "/><text fill="#000000" font-family="sans-serif" font-size="14" font-style="italic" lengthAdjust="spacingAndGlyphs" textLength="71" x="75" y="26.2252">Command</text><text fill="#000000" font-family="sans-serif" font-size="10" font-style="italic" lengthAdjust="spacingAndGlyphs" textLength="108" x="56.5" y="38.8463">gov.nasa.jpl.command</text><line style="stroke: #A80036; stroke-width: 1.5;" x1="28.5" x2="166.5" y1="45.9556" y2="45.9556"/><ellipse cx="38.5" cy="56.9556" fill="#84BE84" rx="3" ry="3" style="stroke: #038048; stroke-width: 1.0;"/><text fill="#000000" font-family="sans-serif" font-size="11" font-style="italic" lengthAdjust="spacingAndGlyphs" textLength="79" x="47.5" y="60.5904">execute(): void</text><ellipse cx="38.5" cy="69.9107" fill="#84BE84" rx="3" ry="3" style="stroke: #038048; stroke-width: 1.0;"/><text fill="#000000" font-family="sans-serif" font-size="11" font-style="italic" lengthAdjust="spacingAndGlyphs" textLength="93" x="47.5" y="73.5455">unExecute(): void</text></a><!--MD5=[cfa5cc9ba96f6b7342e05cfc2c812cf5]
reverse link gov.nasa.jpl.command.Command to gov.nasa.jpl.command.NewActivityCommand--><path d="M97.5,101.65 C97.5,114.42 97.5,127.74 97.5,139.76 " fill="none" id="gov.nasa.jpl.command.Command&lt;-gov.nasa.jpl.command.NewActivityCommand" style="stroke: #A80036; stroke-width: 1.0; stroke-dasharray: 7.0,7.0;"/><polygon fill="none" points="90.5,101.84,97.5,81.84,104.5,101.84,90.5,101.84" style="stroke: #A80036; stroke-width: 1.0;"/><text fill="#888888" font-family="sans-serif" font-size="10" lengthAdjust="spacingAndGlyphs" textLength="182" x="12.5" y="244.668">UMLDoclet 2.0.8, PlantUML 1.2020.01</text><!--MD5=[02f35ae18fb8f8ef2d0c820557269e22]
@startuml
    set namespaceSeparator none
    hide empty fields
    hide empty methods

    class "<size:14>NewActivityCommand\n<size:10>gov.nasa.jpl.command" as gov.nasa.jpl.command.NewActivityCommand [[NewActivityCommand.html]] {
        +NewActivityCommand(String)
        +execute(): void
        +unExecute(): void
    }

    interface "<size:14>Command\n<size:10>gov.nasa.jpl.command" as gov.nasa.jpl.command.Command [[Command.html]] {
        {abstract} +execute(): void
        {abstract} +unExecute(): void
    }

    gov.nasa.jpl.command.Command <|.. gov.nasa.jpl.command.NewActivityCommand

    center footer UMLDoclet 2.0.8, PlantUML 1.2020.01
@enduml

PlantUML version 1.2020.01(Sun Feb 16 09:40:32 PST 2020)
(APACHE source distribution)
Java Runtime: OpenJDK Runtime Environment
JVM: OpenJDK 64-Bit Server VM
Java Version: 17.0.6+10
Operating System: Mac OS X
Default Encoding: UTF-8
Language: en
Country: US
--></g></svg>