<?xml version="1.0" encoding="UTF-8" standalone="no"?><svg xmlns="http://www.w3.org/2000/svg" xmlns:xlink="http://www.w3.org/1999/xlink" contentScriptType="application/ecmascript" contentStyleType="text/css" height="245px" preserveAspectRatio="none" style="width:194px;height:245px;" version="1.1" viewBox="0 0 194 245" width="194px" zoomAndPan="magnify"><defs><filter height="300%" id="f1tzdgfysv5wiz" width="300%" x="-1" y="-1"><feGaussianBlur result="blurOut" stdDeviation="2.0"/><feColorMatrix in="blurOut" result="blurOut2" type="matrix" values="0 0 0 0 0 0 0 0 0 0 0 0 0 0 0 0 0 0 .4 0"/><feOffset dx="4.0" dy="4.0" in="blurOut2" result="blurOut3"/><feBlend in="SourceGraphic" in2="blurOut3" mode="normal"/></filter></defs><g><!--MD5=[c94b19e4bbb083281e195ddc810fd643]
class gov.nasa.jpl.command.RedoCommand--><a href="RedoCommand.html" target="_top" title="RedoCommand.html" xlink:actuate="onRequest" xlink:href="RedoCommand.html" xlink:show="new" xlink:title="RedoCommand.html" xlink:type="simple"><rect fill="#FEFECE" filter="url(#f1tzdgfysv5wiz)" height="72.1758" id="gov.nasa.jpl.command.RedoCommand" style="stroke: #A80036; stroke-width: 1.5;" width="140" x="15" y="139.82"/><ellipse cx="30" cy="158.9528" fill="#ADD1B2" rx="11" ry="11" style="stroke: #A80036; stroke-width: 1.0;"/><path d="M32.4731,165.0959 Q31.8921,165.3947 31.2529,165.5441 Q30.6138,165.6935 29.9082,165.6935 Q27.4014,165.6935 26.0815,164.0417 Q24.7617,162.3898 24.7617,159.2687 Q24.7617,156.1393 26.0815,154.4875 Q27.4014,152.8356 29.9082,152.8356 Q30.6138,152.8356 31.2612,152.985 Q31.9087,153.1345 32.4731,153.4333 L32.4731,156.1559 Q31.8423,155.5749 31.2488,155.3051 Q30.6553,155.0353 30.0244,155.0353 Q28.6797,155.0353 27.9949,156.102 Q27.3101,157.1686 27.3101,159.2687 Q27.3101,161.3605 27.9949,162.4272 Q28.6797,163.4938 30.0244,163.4938 Q30.6553,163.4938 31.2488,163.2241 Q31.8423,162.9543 32.4731,162.3732 Z "/><text fill="#000000" font-family="sans-serif" font-size="14" lengthAdjust="spacingAndGlyphs" textLength="106" x="45" y="158.3552">RedoCommand</text><text fill="#000000" font-family="sans-serif" font-size="10" lengthAdjust="spacingAndGlyphs" textLength="108" x="44" y="170.9763">gov.nasa.jpl.command</text><line style="stroke: #A80036; stroke-width: 1.5;" x1="16" x2="154" y1="178.0856" y2="178.0856"/><ellipse cx="26" cy="189.0856" fill="#84BE84" rx="3" ry="3" style="stroke: #038048; stroke-width: 1.0;"/><text fill="#000000" font-family="sans-serif" font-size="11" lengthAdjust="spacingAndGlyphs" textLength="79" x="35" y="192.7204">execute(): void</text><ellipse cx="26" cy="202.0407" fill="#84BE84" rx="3" ry="3" style="stroke: #038048; stroke-width: 1.0;"/><text fill="#000000" font-family="sans-serif" font-size="11" lengthAdjust="spacingAndGlyphs" textLength="93" x="35" y="205.6755">unExecute(): void</text></a><!--MD5=[9a77bcc6d87e42cdf3e2bd8d24f5a402]
class gov.nasa.jpl.command.Command--><a href="Command.html" target="_top" title="Command.html" xlink:actuate="onRequest" xlink:href="Command.html" xlink:show="new" xlink:title="Command.html" xlink:type="simple"><rect fill="#FEFECE" filter="url(#f1tzdgfysv5wiz)" height="72.1758" id="gov.nasa.jpl.command.Command" style="stroke: #A80036; stroke-width: 1.5;" width="140" x="15" y="7.65"/><ellipse cx="30" cy="26.7828" fill="#B4A7E5" rx="11" ry="11" style="stroke: #A80036; stroke-width: 1.0;"/><path d="M26.4277,23.0479 L26.4277,20.8897 L33.8071,20.8897 L33.8071,23.0479 L31.3418,23.0479 L31.3418,31.1246 L33.8071,31.1246 L33.8071,33.2828 L26.4277,33.2828 L26.4277,31.1246 L28.8931,31.1246 L28.8931,23.0479 Z "/><text fill="#000000" font-family="sans-serif" font-size="14" font-style="italic" lengthAdjust="spacingAndGlyphs" textLength="71" x="62.5" y="26.1852">Command</text><text fill="#000000" font-family="sans-serif" font-size="10" font-style="italic" lengthAdjust="spacingAndGlyphs" textLength="108" x="44" y="38.8063">gov.nasa.jpl.command</text><line style="stroke: #A80036; stroke-width: 1.5;" x1="16" x2="154" y1="45.9156" y2="45.9156"/><ellipse cx="26" cy="56.9156" fill="#84BE84" rx="3" ry="3" style="stroke: #038048; stroke-width: 1.0;"/><text fill="#000000" font-family="sans-serif" font-size="11" font-style="italic" lengthAdjust="spacingAndGlyphs" textLength="79" x="35" y="60.5504">execute(): void</text><ellipse cx="26" cy="69.8707" fill="#84BE84" rx="3" ry="3" style="stroke: #038048; stroke-width: 1.0;"/><text fill="#000000" font-family="sans-serif" font-size="11" font-style="italic" lengthAdjust="spacingAndGlyphs" textLength="93" x="35" y="73.5055">unExecute(): void</text></a><!--MD5=[2d2cbbe9ffeffa81030a9b6160689a82]
reverse link gov.nasa.jpl.command.Command to gov.nasa.jpl.command.RedoCommand--><path d="M85,101.76 C85,114.55 85,127.76 85,139.38 " fill="none" id="gov.nasa.jpl.command.Command&lt;-gov.nasa.jpl.command.RedoCommand" style="stroke: #A80036; stroke-width: 1.0; stroke-dasharray: 7.0,7.0;"/><polygon fill="none" points="78,101.82,85,81.82,92,101.82,78,101.82" style="stroke: #A80036; stroke-width: 1.0;"/><text fill="#888888" font-family="sans-serif" font-size="10" lengthAdjust="spacingAndGlyphs" textLength="182" x="0" y="231.668">UMLDoclet 2.0.8, PlantUML 1.2020.01</text><!--MD5=[a157828c3c48a8bcf1b18c72cf0a6260]
@startuml
    set namespaceSeparator none
    hide empty fields
    hide empty methods

    class "<size:14>RedoCommand\n<size:10>gov.nasa.jpl.command" as gov.nasa.jpl.command.RedoCommand [[RedoCommand.html]] {
        +execute(): void
        +unExecute(): void
    }

    interface "<size:14>Command\n<size:10>gov.nasa.jpl.command" as gov.nasa.jpl.command.Command [[Command.html]] {
        {abstract} +execute(): void
        {abstract} +unExecute(): void
    }

    gov.nasa.jpl.command.Command <|.. gov.nasa.jpl.command.RedoCommand

    center footer UMLDoclet 2.0.8, PlantUML 1.2020.01
@enduml

PlantUML version 1.2020.01(Sun Feb 16 09:40:32 PST 2020)
(APACHE source distribution)
Java Runtime: OpenJDK Runtime Environment
JVM: OpenJDK 64-Bit Server VM
Java Version: 17.0.6+10
Operating System: Mac OS X
Default Encoding: UTF-8
Language: en
Country: US
--></g></svg>