<?xml version="1.0" encoding="UTF-8" standalone="no"?><svg xmlns="http://www.w3.org/2000/svg" xmlns:xlink="http://www.w3.org/1999/xlink" contentScriptType="application/ecmascript" contentStyleType="text/css" height="245px" preserveAspectRatio="none" style="width:196px;height:245px;" version="1.1" viewBox="0 0 196 245" width="196px" zoomAndPan="magnify"><defs><filter height="300%" id="f10bpgu5rnjgdn" width="300%" x="-1" y="-1"><feGaussianBlur result="blurOut" stdDeviation="2.0"/><feColorMatrix in="blurOut" result="blurOut2" type="matrix" values="0 0 0 0 0 0 0 0 0 0 0 0 0 0 0 0 0 0 .4 0"/><feOffset dx="4.0" dy="4.0" in="blurOut2" result="blurOut3"/><feBlend in="SourceGraphic" in2="blurOut3" mode="normal"/></filter></defs><g><!--MD5=[6168d2d1b9b214a87fac615af9f08d25]
class gov.nasa.jpl.command.RemodelCommand--><a href="RemodelCommand.html" target="_top" title="RemodelCommand.html" xlink:actuate="onRequest" xlink:href="RemodelCommand.html" xlink:show="new" xlink:title="RemodelCommand.html" xlink:type="simple"><rect fill="#FEFECE" filter="url(#f10bpgu5rnjgdn)" height="72.1758" id="gov.nasa.jpl.command.RemodelCommand" style="stroke: #A80036; stroke-width: 1.5;" width="163" x="6" y="139.82"/><ellipse cx="21" cy="158.9528" fill="#ADD1B2" rx="11" ry="11" style="stroke: #A80036; stroke-width: 1.0;"/><path d="M23.4731,165.0959 Q22.8921,165.3947 22.2529,165.5441 Q21.6138,165.6935 20.9082,165.6935 Q18.4014,165.6935 17.0815,164.0417 Q15.7617,162.3898 15.7617,159.2687 Q15.7617,156.1393 17.0815,154.4875 Q18.4014,152.8356 20.9082,152.8356 Q21.6138,152.8356 22.2612,152.985 Q22.9087,153.1345 23.4731,153.4333 L23.4731,156.1559 Q22.8423,155.5749 22.2488,155.3051 Q21.6553,155.0353 21.0244,155.0353 Q19.6797,155.0353 18.9949,156.102 Q18.3101,157.1686 18.3101,159.2687 Q18.3101,161.3605 18.9949,162.4272 Q19.6797,163.4938 21.0244,163.4938 Q21.6553,163.4938 22.2488,163.2241 Q22.8423,162.9543 23.4731,162.3732 Z "/><text fill="#000000" font-family="sans-serif" font-size="14" lengthAdjust="spacingAndGlyphs" textLength="131" x="35" y="158.3552">RemodelCommand</text><text fill="#000000" font-family="sans-serif" font-size="10" lengthAdjust="spacingAndGlyphs" textLength="108" x="46.5" y="170.9763">gov.nasa.jpl.command</text><line style="stroke: #A80036; stroke-width: 1.5;" x1="7" x2="168" y1="178.0856" y2="178.0856"/><ellipse cx="17" cy="189.0856" fill="#84BE84" rx="3" ry="3" style="stroke: #038048; stroke-width: 1.0;"/><text fill="#000000" font-family="sans-serif" font-size="11" lengthAdjust="spacingAndGlyphs" textLength="79" x="26" y="192.7204">execute(): void</text><ellipse cx="17" cy="202.0407" fill="#84BE84" rx="3" ry="3" style="stroke: #038048; stroke-width: 1.0;"/><text fill="#000000" font-family="sans-serif" font-size="11" lengthAdjust="spacingAndGlyphs" textLength="93" x="26" y="205.6755">unExecute(): void</text></a><!--MD5=[9a77bcc6d87e42cdf3e2bd8d24f5a402]
class gov.nasa.jpl.command.Command--><a href="Command.html" target="_top" title="Command.html" xlink:actuate="onRequest" xlink:href="Command.html" xlink:show="new" xlink:title="Command.html" xlink:type="simple"><rect fill="#FEFECE" filter="url(#f10bpgu5rnjgdn)" height="72.1758" id="gov.nasa.jpl.command.Command" style="stroke: #A80036; stroke-width: 1.5;" width="140" x="17.5" y="7.65"/><ellipse cx="32.5" cy="26.7828" fill="#B4A7E5" rx="11" ry="11" style="stroke: #A80036; stroke-width: 1.0;"/><path d="M28.9277,23.0479 L28.9277,20.8897 L36.3071,20.8897 L36.3071,23.0479 L33.8418,23.0479 L33.8418,31.1246 L36.3071,31.1246 L36.3071,33.2828 L28.9277,33.2828 L28.9277,31.1246 L31.3931,31.1246 L31.3931,23.0479 Z "/><text fill="#000000" font-family="sans-serif" font-size="14" font-style="italic" lengthAdjust="spacingAndGlyphs" textLength="71" x="65" y="26.1852">Command</text><text fill="#000000" font-family="sans-serif" font-size="10" font-style="italic" lengthAdjust="spacingAndGlyphs" textLength="108" x="46.5" y="38.8063">gov.nasa.jpl.command</text><line style="stroke: #A80036; stroke-width: 1.5;" x1="18.5" x2="156.5" y1="45.9156" y2="45.9156"/><ellipse cx="28.5" cy="56.9156" fill="#84BE84" rx="3" ry="3" style="stroke: #038048; stroke-width: 1.0;"/><text fill="#000000" font-family="sans-serif" font-size="11" font-style="italic" lengthAdjust="spacingAndGlyphs" textLength="79" x="37.5" y="60.5504">execute(): void</text><ellipse cx="28.5" cy="69.8707" fill="#84BE84" rx="3" ry="3" style="stroke: #038048; stroke-width: 1.0;"/><text fill="#000000" font-family="sans-serif" font-size="11" font-style="italic" lengthAdjust="spacingAndGlyphs" textLength="93" x="37.5" y="73.5055">unExecute(): void</text></a><!--MD5=[18b4651fa8a48f611042c6651a594d1c]
reverse link gov.nasa.jpl.command.Command to gov.nasa.jpl.command.RemodelCommand--><path d="M87.5,101.76 C87.5,114.55 87.5,127.76 87.5,139.38 " fill="none" id="gov.nasa.jpl.command.Command&lt;-gov.nasa.jpl.command.RemodelCommand" style="stroke: #A80036; stroke-width: 1.0; stroke-dasharray: 7.0,7.0;"/><polygon fill="none" points="80.5,101.82,87.5,81.82,94.5,101.82,80.5,101.82" style="stroke: #A80036; stroke-width: 1.0;"/><text fill="#888888" font-family="sans-serif" font-size="10" lengthAdjust="spacingAndGlyphs" textLength="182" x="2.5" y="231.668">UMLDoclet 2.0.8, PlantUML 1.2020.01</text><!--MD5=[239cd912d589ba9e8c569fd596285c2a]
@startuml
    set namespaceSeparator none
    hide empty fields
    hide empty methods

    class "<size:14>RemodelCommand\n<size:10>gov.nasa.jpl.command" as gov.nasa.jpl.command.RemodelCommand [[RemodelCommand.html]] {
        +execute(): void
        +unExecute(): void
    }

    interface "<size:14>Command\n<size:10>gov.nasa.jpl.command" as gov.nasa.jpl.command.Command [[Command.html]] {
        {abstract} +execute(): void
        {abstract} +unExecute(): void
    }

    gov.nasa.jpl.command.Command <|.. gov.nasa.jpl.command.RemodelCommand

    center footer UMLDoclet 2.0.8, PlantUML 1.2020.01
@enduml

PlantUML version 1.2020.01(Sun Feb 16 09:40:32 PST 2020)
(APACHE source distribution)
Java Runtime: OpenJDK Runtime Environment
JVM: OpenJDK 64-Bit Server VM
Java Version: 17.0.6+10
Operating System: Mac OS X
Default Encoding: UTF-8
Language: en
Country: US
--></g></svg>