<?xml version="1.0" encoding="UTF-8" standalone="no"?><svg xmlns="http://www.w3.org/2000/svg" xmlns:xlink="http://www.w3.org/1999/xlink" contentScriptType="application/ecmascript" contentStyleType="text/css" height="258px" preserveAspectRatio="none" style="width:223px;height:258px;" version="1.1" viewBox="0 0 223 258" width="223px" zoomAndPan="magnify"><defs><filter height="300%" id="f9io4nr9gyt8x" width="300%" x="-1" y="-1"><feGaussianBlur result="blurOut" stdDeviation="2.0"/><feColorMatrix in="blurOut" result="blurOut2" type="matrix" values="0 0 0 0 0 0 0 0 0 0 0 0 0 0 0 0 0 0 .4 0"/><feOffset dx="4.0" dy="4.0" in="blurOut2" result="blurOut3"/><feBlend in="SourceGraphic" in2="blurOut3" mode="normal"/></filter></defs><g><!--MD5=[ab6c0dec8cfc4c58c091c273726b865a]
class gov.nasa.jpl.command.RemoveActivityCommand--><a href="RemoveActivityCommand.html" target="_top" title="RemoveActivityCommand.html" xlink:actuate="onRequest" xlink:href="RemoveActivityCommand.html" xlink:show="new" xlink:title="RemoveActivityCommand.html" xlink:type="simple"><rect fill="#FEFECE" filter="url(#f9io4nr9gyt8x)" height="85.1309" id="gov.nasa.jpl.command.RemoveActivityCommand" style="stroke: #A80036; stroke-width: 1.5;" width="206" x="6" y="139.87"/><ellipse cx="21" cy="159.0028" fill="#ADD1B2" rx="11" ry="11" style="stroke: #A80036; stroke-width: 1.0;"/><path d="M23.4731,165.1459 Q22.8921,165.4447 22.2529,165.5941 Q21.6138,165.7435 20.9082,165.7435 Q18.4014,165.7435 17.0815,164.0917 Q15.7617,162.4398 15.7617,159.3187 Q15.7617,156.1893 17.0815,154.5375 Q18.4014,152.8856 20.9082,152.8856 Q21.6138,152.8856 22.2612,153.035 Q22.9087,153.1845 23.4731,153.4833 L23.4731,156.2059 Q22.8423,155.6249 22.2488,155.3551 Q21.6553,155.0853 21.0244,155.0853 Q19.6797,155.0853 18.9949,156.152 Q18.3101,157.2186 18.3101,159.3187 Q18.3101,161.4105 18.9949,162.4772 Q19.6797,163.5438 21.0244,163.5438 Q21.6553,163.5438 22.2488,163.2741 Q22.8423,163.0043 23.4731,162.4232 Z "/><text fill="#000000" font-family="sans-serif" font-size="14" lengthAdjust="spacingAndGlyphs" textLength="174" x="35" y="158.4052">RemoveActivityCommand</text><text fill="#000000" font-family="sans-serif" font-size="10" lengthAdjust="spacingAndGlyphs" textLength="108" x="68" y="171.0263">gov.nasa.jpl.command</text><line style="stroke: #A80036; stroke-width: 1.5;" x1="7" x2="211" y1="178.1356" y2="178.1356"/><ellipse cx="17" cy="189.1356" fill="#84BE84" rx="3" ry="3" style="stroke: #038048; stroke-width: 1.0;"/><text fill="#000000" font-family="sans-serif" font-size="11" lengthAdjust="spacingAndGlyphs" textLength="177" x="26" y="192.7704">RemoveActivityCommand(String)</text><ellipse cx="17" cy="202.0907" fill="#84BE84" rx="3" ry="3" style="stroke: #038048; stroke-width: 1.0;"/><text fill="#000000" font-family="sans-serif" font-size="11" lengthAdjust="spacingAndGlyphs" textLength="79" x="26" y="205.7255">execute(): void</text><ellipse cx="17" cy="215.0458" fill="#84BE84" rx="3" ry="3" style="stroke: #038048; stroke-width: 1.0;"/><text fill="#000000" font-family="sans-serif" font-size="11" lengthAdjust="spacingAndGlyphs" textLength="93" x="26" y="218.6805">unExecute(): void</text></a><!--MD5=[9a77bcc6d87e42cdf3e2bd8d24f5a402]
class gov.nasa.jpl.command.Command--><a href="Command.html" target="_top" title="Command.html" xlink:actuate="onRequest" xlink:href="Command.html" xlink:show="new" xlink:title="Command.html" xlink:type="simple"><rect fill="#FEFECE" filter="url(#f9io4nr9gyt8x)" height="72.1758" id="gov.nasa.jpl.command.Command" style="stroke: #A80036; stroke-width: 1.5;" width="140" x="39" y="7.69"/><ellipse cx="54" cy="26.8228" fill="#B4A7E5" rx="11" ry="11" style="stroke: #A80036; stroke-width: 1.0;"/><path d="M50.4277,23.0879 L50.4277,20.9297 L57.8071,20.9297 L57.8071,23.0879 L55.3418,23.0879 L55.3418,31.1646 L57.8071,31.1646 L57.8071,33.3228 L50.4277,33.3228 L50.4277,31.1646 L52.8931,31.1646 L52.8931,23.0879 Z "/><text fill="#000000" font-family="sans-serif" font-size="14" font-style="italic" lengthAdjust="spacingAndGlyphs" textLength="71" x="86.5" y="26.2252">Command</text><text fill="#000000" font-family="sans-serif" font-size="10" font-style="italic" lengthAdjust="spacingAndGlyphs" textLength="108" x="68" y="38.8463">gov.nasa.jpl.command</text><line style="stroke: #A80036; stroke-width: 1.5;" x1="40" x2="178" y1="45.9556" y2="45.9556"/><ellipse cx="50" cy="56.9556" fill="#84BE84" rx="3" ry="3" style="stroke: #038048; stroke-width: 1.0;"/><text fill="#000000" font-family="sans-serif" font-size="11" font-style="italic" lengthAdjust="spacingAndGlyphs" textLength="79" x="59" y="60.5904">execute(): void</text><ellipse cx="50" cy="69.9107" fill="#84BE84" rx="3" ry="3" style="stroke: #038048; stroke-width: 1.0;"/><text fill="#000000" font-family="sans-serif" font-size="11" font-style="italic" lengthAdjust="spacingAndGlyphs" textLength="93" x="59" y="73.5455">unExecute(): void</text></a><!--MD5=[1a14060a34f894432b065c6d100d0e45]
reverse link gov.nasa.jpl.command.Command to gov.nasa.jpl.command.RemoveActivityCommand--><path d="M109,101.65 C109,114.42 109,127.74 109,139.76 " fill="none" id="gov.nasa.jpl.command.Command&lt;-gov.nasa.jpl.command.RemoveActivityCommand" style="stroke: #A80036; stroke-width: 1.0; stroke-dasharray: 7.0,7.0;"/><polygon fill="none" points="102,101.84,109,81.84,116,101.84,102,101.84" style="stroke: #A80036; stroke-width: 1.0;"/><text fill="#888888" font-family="sans-serif" font-size="10" lengthAdjust="spacingAndGlyphs" textLength="182" x="24" y="244.668">UMLDoclet 2.0.8, PlantUML 1.2020.01</text><!--MD5=[97354e84fb655bdd153f2e94d77391c6]
@startuml
    set namespaceSeparator none
    hide empty fields
    hide empty methods

    class "<size:14>RemoveActivityCommand\n<size:10>gov.nasa.jpl.command" as gov.nasa.jpl.command.RemoveActivityCommand [[RemoveActivityCommand.html]] {
        +RemoveActivityCommand(String)
        +execute(): void
        +unExecute(): void
    }

    interface "<size:14>Command\n<size:10>gov.nasa.jpl.command" as gov.nasa.jpl.command.Command [[Command.html]] {
        {abstract} +execute(): void
        {abstract} +unExecute(): void
    }

    gov.nasa.jpl.command.Command <|.. gov.nasa.jpl.command.RemoveActivityCommand

    center footer UMLDoclet 2.0.8, PlantUML 1.2020.01
@enduml

PlantUML version 1.2020.01(Sun Feb 16 09:40:32 PST 2020)
(APACHE source distribution)
Java Runtime: OpenJDK Runtime Environment
JVM: OpenJDK 64-Bit Server VM
Java Version: 17.0.6+10
Operating System: Mac OS X
Default Encoding: UTF-8
Language: en
Country: US
--></g></svg>