<?xml version="1.0" encoding="UTF-8" standalone="no"?><svg xmlns="http://www.w3.org/2000/svg" xmlns:xlink="http://www.w3.org/1999/xlink" contentScriptType="application/ecmascript" contentStyleType="text/css" height="258px" preserveAspectRatio="none" style="width:199px;height:258px;" version="1.1" viewBox="0 0 199 258" width="199px" zoomAndPan="magnify"><defs><filter height="300%" id="f1vys9md2lul2l" width="300%" x="-1" y="-1"><feGaussianBlur result="blurOut" stdDeviation="2.0"/><feColorMatrix in="blurOut" result="blurOut2" type="matrix" values="0 0 0 0 0 0 0 0 0 0 0 0 0 0 0 0 0 0 .4 0"/><feOffset dx="4.0" dy="4.0" in="blurOut2" result="blurOut3"/><feBlend in="SourceGraphic" in2="blurOut3" mode="normal"/></filter></defs><g><!--MD5=[e0a51ed53d10cfb8082473f58fdd0ac8]
class gov.nasa.jpl.command.ScheduleCommand--><a href="ScheduleCommand.html" target="_top" title="ScheduleCommand.html" xlink:actuate="onRequest" xlink:href="ScheduleCommand.html" xlink:show="new" xlink:title="ScheduleCommand.html" xlink:type="simple"><rect fill="#FEFECE" filter="url(#f1vys9md2lul2l)" height="85.1309" id="gov.nasa.jpl.command.ScheduleCommand" style="stroke: #A80036; stroke-width: 1.5;" width="169" x="6" y="139.87"/><ellipse cx="22.8" cy="159.0028" fill="#ADD1B2" rx="11" ry="11" style="stroke: #A80036; stroke-width: 1.0;"/><path d="M25.2731,165.1459 Q24.6921,165.4447 24.0529,165.5941 Q23.4138,165.7435 22.7082,165.7435 Q20.2014,165.7435 18.8815,164.0917 Q17.5617,162.4398 17.5617,159.3187 Q17.5617,156.1893 18.8815,154.5375 Q20.2014,152.8856 22.7082,152.8856 Q23.4138,152.8856 24.0612,153.035 Q24.7087,153.1845 25.2731,153.4833 L25.2731,156.2059 Q24.6423,155.6249 24.0488,155.3551 Q23.4553,155.0853 22.8244,155.0853 Q21.4797,155.0853 20.7949,156.152 Q20.1101,157.2186 20.1101,159.3187 Q20.1101,161.4105 20.7949,162.4772 Q21.4797,163.5438 22.8244,163.5438 Q23.4553,163.5438 24.0488,163.2741 Q24.6423,163.0043 25.2731,162.4232 Z "/><text fill="#000000" font-family="sans-serif" font-size="14" lengthAdjust="spacingAndGlyphs" textLength="133" x="37.2" y="158.4052">ScheduleCommand</text><text fill="#000000" font-family="sans-serif" font-size="10" lengthAdjust="spacingAndGlyphs" textLength="108" x="49.7" y="171.0263">gov.nasa.jpl.command</text><line style="stroke: #A80036; stroke-width: 1.5;" x1="7" x2="174" y1="178.1356" y2="178.1356"/><ellipse cx="17" cy="189.1356" fill="#84BE84" rx="3" ry="3" style="stroke: #038048; stroke-width: 1.0;"/><text fill="#000000" font-family="sans-serif" font-size="11" lengthAdjust="spacingAndGlyphs" textLength="143" x="26" y="192.7704">ScheduleCommand(String)</text><ellipse cx="17" cy="202.0907" fill="#84BE84" rx="3" ry="3" style="stroke: #038048; stroke-width: 1.0;"/><text fill="#000000" font-family="sans-serif" font-size="11" lengthAdjust="spacingAndGlyphs" textLength="79" x="26" y="205.7255">execute(): void</text><ellipse cx="17" cy="215.0458" fill="#84BE84" rx="3" ry="3" style="stroke: #038048; stroke-width: 1.0;"/><text fill="#000000" font-family="sans-serif" font-size="11" lengthAdjust="spacingAndGlyphs" textLength="93" x="26" y="218.6805">unExecute(): void</text></a><!--MD5=[9a77bcc6d87e42cdf3e2bd8d24f5a402]
class gov.nasa.jpl.command.Command--><a href="Command.html" target="_top" title="Command.html" xlink:actuate="onRequest" xlink:href="Command.html" xlink:show="new" xlink:title="Command.html" xlink:type="simple"><rect fill="#FEFECE" filter="url(#f1vys9md2lul2l)" height="72.1758" id="gov.nasa.jpl.command.Command" style="stroke: #A80036; stroke-width: 1.5;" width="140" x="20.5" y="7.69"/><ellipse cx="35.5" cy="26.8228" fill="#B4A7E5" rx="11" ry="11" style="stroke: #A80036; stroke-width: 1.0;"/><path d="M31.9277,23.0879 L31.9277,20.9297 L39.3071,20.9297 L39.3071,23.0879 L36.8418,23.0879 L36.8418,31.1646 L39.3071,31.1646 L39.3071,33.3228 L31.9277,33.3228 L31.9277,31.1646 L34.3931,31.1646 L34.3931,23.0879 Z "/><text fill="#000000" font-family="sans-serif" font-size="14" font-style="italic" lengthAdjust="spacingAndGlyphs" textLength="71" x="68" y="26.2252">Command</text><text fill="#000000" font-family="sans-serif" font-size="10" font-style="italic" lengthAdjust="spacingAndGlyphs" textLength="108" x="49.5" y="38.8463">gov.nasa.jpl.command</text><line style="stroke: #A80036; stroke-width: 1.5;" x1="21.5" x2="159.5" y1="45.9556" y2="45.9556"/><ellipse cx="31.5" cy="56.9556" fill="#84BE84" rx="3" ry="3" style="stroke: #038048; stroke-width: 1.0;"/><text fill="#000000" font-family="sans-serif" font-size="11" font-style="italic" lengthAdjust="spacingAndGlyphs" textLength="79" x="40.5" y="60.5904">execute(): void</text><ellipse cx="31.5" cy="69.9107" fill="#84BE84" rx="3" ry="3" style="stroke: #038048; stroke-width: 1.0;"/><text fill="#000000" font-family="sans-serif" font-size="11" font-style="italic" lengthAdjust="spacingAndGlyphs" textLength="93" x="40.5" y="73.5455">unExecute(): void</text></a><!--MD5=[d143489427e1bdfc058aacf8c1ed69ea]
reverse link gov.nasa.jpl.command.Command to gov.nasa.jpl.command.ScheduleCommand--><path d="M90.5,101.65 C90.5,114.42 90.5,127.74 90.5,139.76 " fill="none" id="gov.nasa.jpl.command.Command&lt;-gov.nasa.jpl.command.ScheduleCommand" style="stroke: #A80036; stroke-width: 1.0; stroke-dasharray: 7.0,7.0;"/><polygon fill="none" points="83.5,101.84,90.5,81.84,97.5,101.84,83.5,101.84" style="stroke: #A80036; stroke-width: 1.0;"/><text fill="#888888" font-family="sans-serif" font-size="10" lengthAdjust="spacingAndGlyphs" textLength="182" x="5.5" y="244.668">UMLDoclet 2.0.8, PlantUML 1.2020.01</text><!--MD5=[5289db5d973bb734c70ca2010991d2e5]
@startuml
    set namespaceSeparator none
    hide empty fields
    hide empty methods

    class "<size:14>ScheduleCommand\n<size:10>gov.nasa.jpl.command" as gov.nasa.jpl.command.ScheduleCommand [[ScheduleCommand.html]] {
        +ScheduleCommand(String)
        +execute(): void
        +unExecute(): void
    }

    interface "<size:14>Command\n<size:10>gov.nasa.jpl.command" as gov.nasa.jpl.command.Command [[Command.html]] {
        {abstract} +execute(): void
        {abstract} +unExecute(): void
    }

    gov.nasa.jpl.command.Command <|.. gov.nasa.jpl.command.ScheduleCommand

    center footer UMLDoclet 2.0.8, PlantUML 1.2020.01
@enduml

PlantUML version 1.2020.01(Sun Feb 16 09:40:32 PST 2020)
(APACHE source distribution)
Java Runtime: OpenJDK Runtime Environment
JVM: OpenJDK 64-Bit Server VM
Java Version: 17.0.6+10
Operating System: Mac OS X
Default Encoding: UTF-8
Language: en
Country: US
--></g></svg>