<?xml version="1.0" encoding="UTF-8" standalone="no"?><svg xmlns="http://www.w3.org/2000/svg" xmlns:xlink="http://www.w3.org/1999/xlink" contentScriptType="application/ecmascript" contentStyleType="text/css" height="258px" preserveAspectRatio="none" style="width:201px;height:258px;" version="1.1" viewBox="0 0 201 258" width="201px" zoomAndPan="magnify"><defs><filter height="300%" id="f9a2awjv1fmd9" width="300%" x="-1" y="-1"><feGaussianBlur result="blurOut" stdDeviation="2.0"/><feColorMatrix in="blurOut" result="blurOut2" type="matrix" values="0 0 0 0 0 0 0 0 0 0 0 0 0 0 0 0 0 0 .4 0"/><feOffset dx="4.0" dy="4.0" in="blurOut2" result="blurOut3"/><feBlend in="SourceGraphic" in2="blurOut3" mode="normal"/></filter></defs><g><!--MD5=[e230743c1978138046513ba20a195432]
class gov.nasa.jpl.command.SequenceCommand--><a href="SequenceCommand.html" target="_top" title="SequenceCommand.html" xlink:actuate="onRequest" xlink:href="SequenceCommand.html" xlink:show="new" xlink:title="SequenceCommand.html" xlink:type="simple"><rect fill="#FEFECE" filter="url(#f9a2awjv1fmd9)" height="85.1309" id="gov.nasa.jpl.command.SequenceCommand" style="stroke: #A80036; stroke-width: 1.5;" width="172" x="6" y="139.87"/><ellipse cx="22.35" cy="159.0028" fill="#ADD1B2" rx="11" ry="11" style="stroke: #A80036; stroke-width: 1.0;"/><path d="M24.8231,165.1459 Q24.2421,165.4447 23.6029,165.5941 Q22.9638,165.7435 22.2582,165.7435 Q19.7514,165.7435 18.4315,164.0917 Q17.1117,162.4398 17.1117,159.3187 Q17.1117,156.1893 18.4315,154.5375 Q19.7514,152.8856 22.2582,152.8856 Q22.9638,152.8856 23.6112,153.035 Q24.2587,153.1845 24.8231,153.4833 L24.8231,156.2059 Q24.1923,155.6249 23.5988,155.3551 Q23.0053,155.0853 22.3744,155.0853 Q21.0297,155.0853 20.3449,156.152 Q19.6601,157.2186 19.6601,159.3187 Q19.6601,161.4105 20.3449,162.4772 Q21.0297,163.5438 22.3744,163.5438 Q23.0053,163.5438 23.5988,163.2741 Q24.1923,163.0043 24.8231,162.4232 Z "/><text fill="#000000" font-family="sans-serif" font-size="14" lengthAdjust="spacingAndGlyphs" textLength="137" x="36.65" y="158.4052">SequenceCommand</text><text fill="#000000" font-family="sans-serif" font-size="10" lengthAdjust="spacingAndGlyphs" textLength="108" x="51.15" y="171.0263">gov.nasa.jpl.command</text><line style="stroke: #A80036; stroke-width: 1.5;" x1="7" x2="177" y1="178.1356" y2="178.1356"/><ellipse cx="17" cy="189.1356" fill="#84BE84" rx="3" ry="3" style="stroke: #038048; stroke-width: 1.0;"/><text fill="#000000" font-family="sans-serif" font-size="11" lengthAdjust="spacingAndGlyphs" textLength="146" x="26" y="192.7704">SequenceCommand(String)</text><ellipse cx="17" cy="202.0907" fill="#84BE84" rx="3" ry="3" style="stroke: #038048; stroke-width: 1.0;"/><text fill="#000000" font-family="sans-serif" font-size="11" lengthAdjust="spacingAndGlyphs" textLength="79" x="26" y="205.7255">execute(): void</text><ellipse cx="17" cy="215.0458" fill="#84BE84" rx="3" ry="3" style="stroke: #038048; stroke-width: 1.0;"/><text fill="#000000" font-family="sans-serif" font-size="11" lengthAdjust="spacingAndGlyphs" textLength="93" x="26" y="218.6805">unExecute(): void</text></a><!--MD5=[9a77bcc6d87e42cdf3e2bd8d24f5a402]
class gov.nasa.jpl.command.Command--><a href="Command.html" target="_top" title="Command.html" xlink:actuate="onRequest" xlink:href="Command.html" xlink:show="new" xlink:title="Command.html" xlink:type="simple"><rect fill="#FEFECE" filter="url(#f9a2awjv1fmd9)" height="72.1758" id="gov.nasa.jpl.command.Command" style="stroke: #A80036; stroke-width: 1.5;" width="140" x="22" y="7.69"/><ellipse cx="37" cy="26.8228" fill="#B4A7E5" rx="11" ry="11" style="stroke: #A80036; stroke-width: 1.0;"/><path d="M33.4277,23.0879 L33.4277,20.9297 L40.8071,20.9297 L40.8071,23.0879 L38.3418,23.0879 L38.3418,31.1646 L40.8071,31.1646 L40.8071,33.3228 L33.4277,33.3228 L33.4277,31.1646 L35.8931,31.1646 L35.8931,23.0879 Z "/><text fill="#000000" font-family="sans-serif" font-size="14" font-style="italic" lengthAdjust="spacingAndGlyphs" textLength="71" x="69.5" y="26.2252">Command</text><text fill="#000000" font-family="sans-serif" font-size="10" font-style="italic" lengthAdjust="spacingAndGlyphs" textLength="108" x="51" y="38.8463">gov.nasa.jpl.command</text><line style="stroke: #A80036; stroke-width: 1.5;" x1="23" x2="161" y1="45.9556" y2="45.9556"/><ellipse cx="33" cy="56.9556" fill="#84BE84" rx="3" ry="3" style="stroke: #038048; stroke-width: 1.0;"/><text fill="#000000" font-family="sans-serif" font-size="11" font-style="italic" lengthAdjust="spacingAndGlyphs" textLength="79" x="42" y="60.5904">execute(): void</text><ellipse cx="33" cy="69.9107" fill="#84BE84" rx="3" ry="3" style="stroke: #038048; stroke-width: 1.0;"/><text fill="#000000" font-family="sans-serif" font-size="11" font-style="italic" lengthAdjust="spacingAndGlyphs" textLength="93" x="42" y="73.5455">unExecute(): void</text></a><!--MD5=[6856045a38da58819df6a9fd446e0383]
reverse link gov.nasa.jpl.command.Command to gov.nasa.jpl.command.SequenceCommand--><path d="M92,101.65 C92,114.42 92,127.74 92,139.76 " fill="none" id="gov.nasa.jpl.command.Command&lt;-gov.nasa.jpl.command.SequenceCommand" style="stroke: #A80036; stroke-width: 1.0; stroke-dasharray: 7.0,7.0;"/><polygon fill="none" points="85,101.84,92,81.84,99,101.84,85,101.84" style="stroke: #A80036; stroke-width: 1.0;"/><text fill="#888888" font-family="sans-serif" font-size="10" lengthAdjust="spacingAndGlyphs" textLength="182" x="7" y="244.668">UMLDoclet 2.0.8, PlantUML 1.2020.01</text><!--MD5=[5e07801159f532003a78e3d00b12c640]
@startuml
    set namespaceSeparator none
    hide empty fields
    hide empty methods

    class "<size:14>SequenceCommand\n<size:10>gov.nasa.jpl.command" as gov.nasa.jpl.command.SequenceCommand [[SequenceCommand.html]] {
        +SequenceCommand(String)
        +execute(): void
        +unExecute(): void
    }

    interface "<size:14>Command\n<size:10>gov.nasa.jpl.command" as gov.nasa.jpl.command.Command [[Command.html]] {
        {abstract} +execute(): void
        {abstract} +unExecute(): void
    }

    gov.nasa.jpl.command.Command <|.. gov.nasa.jpl.command.SequenceCommand

    center footer UMLDoclet 2.0.8, PlantUML 1.2020.01
@enduml

PlantUML version 1.2020.01(Sun Feb 16 09:40:32 PST 2020)
(APACHE source distribution)
Java Runtime: OpenJDK Runtime Environment
JVM: OpenJDK 64-Bit Server VM
Java Version: 17.0.6+10
Operating System: Mac OS X
Default Encoding: UTF-8
Language: en
Country: US
--></g></svg>