<?xml version="1.0" encoding="UTF-8" standalone="no"?><svg xmlns="http://www.w3.org/2000/svg" xmlns:xlink="http://www.w3.org/1999/xlink" contentScriptType="application/ecmascript" contentStyleType="text/css" height="148px" preserveAspectRatio="none" style="width:227px;height:148px;" version="1.1" viewBox="0 0 227 148" width="227px" zoomAndPan="magnify"><defs><filter height="300%" id="fyexw1kyn1g3h" width="300%" x="-1" y="-1"><feGaussianBlur result="blurOut" stdDeviation="2.0"/><feColorMatrix in="blurOut" result="blurOut2" type="matrix" values="0 0 0 0 0 0 0 0 0 0 0 0 0 0 0 0 0 0 .4 0"/><feOffset dx="4.0" dy="4.0" in="blurOut2" result="blurOut3"/><feBlend in="SourceGraphic" in2="blurOut3" mode="normal"/></filter></defs><g><!--MD5=[a70cd98135b48a509d648ae80617cef4]
class gov.nasa.jpl.command.UndoRedoManager--><a href="UndoRedoManager.html" target="_top" title="UndoRedoManager.html" xlink:actuate="onRequest" xlink:href="UndoRedoManager.html" xlink:show="new" xlink:title="UndoRedoManager.html" xlink:type="simple"><rect fill="#FEFECE" filter="url(#fyexw1kyn1g3h)" height="111.041" id="gov.nasa.jpl.command.UndoRedoManager" style="stroke: #A80036; stroke-width: 1.5;" width="209" x="7" y="7"/><ellipse cx="42.25" cy="26.1328" fill="#ADD1B2" rx="11" ry="11" style="stroke: #A80036; stroke-width: 1.0;"/><path d="M44.7231,32.2759 Q44.1421,32.5747 43.5029,32.7241 Q42.8638,32.8735 42.1582,32.8735 Q39.6514,32.8735 38.3315,31.2217 Q37.0117,29.5698 37.0117,26.4487 Q37.0117,23.3193 38.3315,21.6675 Q39.6514,20.0156 42.1582,20.0156 Q42.8638,20.0156 43.5112,20.165 Q44.1587,20.3145 44.7231,20.6133 L44.7231,23.3359 Q44.0923,22.7549 43.4988,22.4851 Q42.9053,22.2153 42.2744,22.2153 Q40.9297,22.2153 40.2449,23.282 Q39.5601,24.3486 39.5601,26.4487 Q39.5601,28.5405 40.2449,29.6072 Q40.9297,30.6738 42.2744,30.6738 Q42.9053,30.6738 43.4988,30.4041 Q44.0923,30.1343 44.7231,29.5532 Z "/><text fill="#000000" font-family="sans-serif" font-size="14" lengthAdjust="spacingAndGlyphs" textLength="132" x="60.75" y="25.5352">UndoRedoManager</text><text fill="#000000" font-family="sans-serif" font-size="10" lengthAdjust="spacingAndGlyphs" textLength="108" x="72.75" y="38.1563">gov.nasa.jpl.command</text><line style="stroke: #A80036; stroke-width: 1.5;" x1="8" x2="215" y1="45.2656" y2="45.2656"/><ellipse cx="18" cy="56.2656" fill="#84BE84" rx="3" ry="3" style="stroke: #038048; stroke-width: 1.0;"/><text fill="#000000" font-family="sans-serif" font-size="11" lengthAdjust="spacingAndGlyphs" text-decoration="underline" textLength="65" x="27" y="59.9004">undo(): void</text><ellipse cx="18" cy="69.2207" fill="#84BE84" rx="3" ry="3" style="stroke: #038048; stroke-width: 1.0;"/><text fill="#000000" font-family="sans-serif" font-size="11" lengthAdjust="spacingAndGlyphs" text-decoration="underline" textLength="62" x="27" y="72.8555">redo(): void</text><ellipse cx="18" cy="82.1758" fill="#84BE84" rx="3" ry="3" style="stroke: #038048; stroke-width: 1.0;"/><text fill="#000000" font-family="sans-serif" font-size="11" lengthAdjust="spacingAndGlyphs" text-decoration="underline" textLength="183" x="27" y="85.8105">addToUndoStack(Command): void</text><ellipse cx="18" cy="95.1309" fill="#84BE84" rx="3" ry="3" style="stroke: #038048; stroke-width: 1.0;"/><text fill="#000000" font-family="sans-serif" font-size="11" lengthAdjust="spacingAndGlyphs" text-decoration="underline" textLength="181" x="27" y="98.7656">addToRedoStack(Command): void</text><ellipse cx="18" cy="108.0859" fill="#84BE84" rx="3" ry="3" style="stroke: #038048; stroke-width: 1.0;"/><text fill="#000000" font-family="sans-serif" font-size="11" lengthAdjust="spacingAndGlyphs" text-decoration="underline" textLength="118" x="27" y="111.7207">clearRedoStack(): void</text></a><text fill="#888888" font-family="sans-serif" font-size="10" lengthAdjust="spacingAndGlyphs" textLength="182" x="20.5" y="134.709">UMLDoclet 2.0.8, PlantUML 1.2020.01</text><!--MD5=[3b5bc4685e18f2db3f5099f49de5a4b2]
@startuml
    set namespaceSeparator none
    hide empty fields
    hide empty methods

    class "<size:14>UndoRedoManager\n<size:10>gov.nasa.jpl.command" as gov.nasa.jpl.command.UndoRedoManager [[UndoRedoManager.html]] {
        {static} +undo(): void
        {static} +redo(): void
        {static} +addToUndoStack(Command): void
        {static} +addToRedoStack(Command): void
        {static} +clearRedoStack(): void
    }

    center footer UMLDoclet 2.0.8, PlantUML 1.2020.01
@enduml

PlantUML version 1.2020.01(Sun Feb 16 09:40:32 PST 2020)
(APACHE source distribution)
Java Runtime: OpenJDK Runtime Environment
JVM: OpenJDK 64-Bit Server VM
Java Version: 17.0.6+10
Operating System: Mac OS X
Default Encoding: UTF-8
Language: en
Country: US
--></g></svg>