<?xml version="1.0" encoding="UTF-8" standalone="no"?><svg xmlns="http://www.w3.org/2000/svg" xmlns:xlink="http://www.w3.org/1999/xlink" contentScriptType="application/ecmascript" contentStyleType="text/css" height="211px" preserveAspectRatio="none" style="width:257px;height:211px;" version="1.1" viewBox="0 0 257 211" width="257px" zoomAndPan="magnify"><defs><filter height="300%" id="f1c8kr52z0m6r0" width="300%" x="-1" y="-1"><feGaussianBlur result="blurOut" stdDeviation="2.0"/><feColorMatrix in="blurOut" result="blurOut2" type="matrix" values="0 0 0 0 0 0 0 0 0 0 0 0 0 0 0 0 0 0 .4 0"/><feOffset dx="4.0" dy="4.0" in="blurOut2" result="blurOut3"/><feBlend in="SourceGraphic" in2="blurOut3" mode="normal"/></filter></defs><g><!--MD5=[5dcd41c53041b4e69347f86ce90093cc]
class gov.nasa.jpl.engine.AdaptationException--><a href="AdaptationException.html" target="_top" title="AdaptationException.html" xlink:actuate="onRequest" xlink:href="AdaptationException.html" xlink:show="new" xlink:title="AdaptationException.html" xlink:type="simple"><rect fill="#FEFECE" filter="url(#f1c8kr52z0m6r0)" height="72.1758" id="gov.nasa.jpl.engine.AdaptationException" style="stroke: #A80036; stroke-width: 1.5;" width="240" x="6" y="105.82"/><ellipse cx="49.8" cy="124.9528" fill="#ADD1B2" rx="11" ry="11" style="stroke: #A80036; stroke-width: 1.0;"/><path d="M52.2731,131.0959 Q51.6921,131.3947 51.0529,131.5441 Q50.4138,131.6935 49.7082,131.6935 Q47.2014,131.6935 45.8815,130.0417 Q44.5617,128.3898 44.5617,125.2687 Q44.5617,122.1393 45.8815,120.4875 Q47.2014,118.8356 49.7082,118.8356 Q50.4138,118.8356 51.0612,118.985 Q51.7087,119.1345 52.2731,119.4333 L52.2731,122.1559 Q51.6423,121.5749 51.0488,121.3051 Q50.4553,121.0353 49.8244,121.0353 Q48.4797,121.0353 47.7949,122.102 Q47.1101,123.1686 47.1101,125.2687 Q47.1101,127.3605 47.7949,128.4272 Q48.4797,129.4938 49.8244,129.4938 Q50.4553,129.4938 51.0488,129.2241 Q51.6423,128.9543 52.2731,128.3732 Z "/><text fill="#000000" font-family="sans-serif" font-size="14" lengthAdjust="spacingAndGlyphs" textLength="144" x="70.2" y="124.3552">AdaptationException</text><text fill="#000000" font-family="sans-serif" font-size="10" lengthAdjust="spacingAndGlyphs" textLength="94" x="95.2" y="136.9763">gov.nasa.jpl.engine</text><line style="stroke: #A80036; stroke-width: 1.5;" x1="7" x2="245" y1="144.0856" y2="144.0856"/><ellipse cx="17" cy="155.0856" fill="#84BE84" rx="3" ry="3" style="stroke: #038048; stroke-width: 1.0;"/><text fill="#000000" font-family="sans-serif" font-size="11" lengthAdjust="spacingAndGlyphs" textLength="152" x="26" y="158.7204">AdaptationException(String)</text><ellipse cx="17" cy="168.0407" fill="#84BE84" rx="3" ry="3" style="stroke: #038048; stroke-width: 1.0;"/><text fill="#000000" font-family="sans-serif" font-size="11" lengthAdjust="spacingAndGlyphs" textLength="214" x="26" y="171.6755">AdaptationException(String, Throwable)</text></a><!--MD5=[a4d8c85934e7c2286da27481ca2471bd]
class java.lang.RuntimeException--><a href="https://docs.oracle.com/en/java/javase/13/docs/api/java.base/java/lang/RuntimeException.html?is-external=true" target="_top" title="https://docs.oracle.com/en/java/javase/13/docs/api/java.base/java/lang/RuntimeException.html?is-external=true" xlink:actuate="onRequest" xlink:href="https://docs.oracle.com/en/java/javase/13/docs/api/java.base/java/lang/RuntimeException.html?is-external=true" xlink:show="new" xlink:title="https://docs.oracle.com/en/java/javase/13/docs/api/java.base/java/lang/RuntimeException.html?is-external=true" xlink:type="simple"><rect fill="#FEFECE" filter="url(#f1c8kr52z0m6r0)" height="38.2656" id="java.lang.RuntimeException" style="stroke: #A80036; stroke-width: 1.5;" width="157" x="47.5" y="7.56"/><ellipse cx="62.5" cy="26.6928" fill="#ADD1B2" rx="11" ry="11" style="stroke: #A80036; stroke-width: 1.0;"/><path d="M64.9731,32.8359 Q64.3921,33.1347 63.7529,33.2841 Q63.1138,33.4335 62.4082,33.4335 Q59.9014,33.4335 58.5815,31.7817 Q57.2617,30.1298 57.2617,27.0087 Q57.2617,23.8793 58.5815,22.2275 Q59.9014,20.5756 62.4082,20.5756 Q63.1138,20.5756 63.7612,20.725 Q64.4087,20.8745 64.9731,21.1733 L64.9731,23.8959 Q64.3423,23.3149 63.7488,23.0451 Q63.1553,22.7753 62.5244,22.7753 Q61.1797,22.7753 60.4949,23.842 Q59.8101,24.9086 59.8101,27.0087 Q59.8101,29.1005 60.4949,30.1672 Q61.1797,31.2338 62.5244,31.2338 Q63.1553,31.2338 63.7488,30.9641 Q64.3423,30.6943 64.9731,30.1132 Z "/><text fill="#000000" font-family="sans-serif" font-size="14" lengthAdjust="spacingAndGlyphs" textLength="125" x="76.5" y="26.0952">RuntimeException</text><text fill="#000000" font-family="sans-serif" font-size="10" lengthAdjust="spacingAndGlyphs" textLength="44" x="117" y="38.7163">java.lang</text></a><!--MD5=[aebdc6fac7d8a9f8f19d04b03562f99f]
reverse link java.lang.RuntimeException to gov.nasa.jpl.engine.AdaptationException--><path d="M126,67.27 C126,79.73 126,93.41 126,105.55 " fill="none" id="java.lang.RuntimeException&lt;-gov.nasa.jpl.engine.AdaptationException" style="stroke: #A80036; stroke-width: 1.0;"/><polygon fill="none" points="119,67.65,126,47.65,133,67.65,119,67.65" style="stroke: #A80036; stroke-width: 1.0;"/><text fill="#888888" font-family="sans-serif" font-size="10" lengthAdjust="spacingAndGlyphs" textLength="182" x="41" y="197.668">UMLDoclet 2.0.8, PlantUML 1.2020.01</text><!--MD5=[1050c9dab4ef86cc7333b0f4f39760b7]
@startuml
    set namespaceSeparator none
    hide empty fields
    hide empty methods

    class "<size:14>AdaptationException\n<size:10>gov.nasa.jpl.engine" as gov.nasa.jpl.engine.AdaptationException [[AdaptationException.html]] {
        +AdaptationException(String)
        +AdaptationException(String, Throwable)
    }

    class "<size:14>RuntimeException\n<size:10>java.lang" as java.lang.RuntimeException [[https://docs.oracle.com/en/java/javase/13/docs/api/java.base/java/lang/RuntimeException.html?is-external=true]]

    java.lang.RuntimeException <|- - gov.nasa.jpl.engine.AdaptationException

    center footer UMLDoclet 2.0.8, PlantUML 1.2020.01
@enduml

PlantUML version 1.2020.01(Sun Feb 16 09:40:32 PST 2020)
(APACHE source distribution)
Java Runtime: OpenJDK Runtime Environment
JVM: OpenJDK 64-Bit Server VM
Java Version: 17.0.6+10
Operating System: Mac OS X
Default Encoding: UTF-8
Language: en
Country: US
--></g></svg>