<?xml version="1.0" encoding="UTF-8" standalone="no"?><svg xmlns="http://www.w3.org/2000/svg" xmlns:xlink="http://www.w3.org/1999/xlink" contentScriptType="application/ecmascript" contentStyleType="text/css" height="148px" preserveAspectRatio="none" style="width:267px;height:148px;" version="1.1" viewBox="0 0 267 148" width="267px" zoomAndPan="magnify"><defs><filter height="300%" id="fu4rqht4ncq79" width="300%" x="-1" y="-1"><feGaussianBlur result="blurOut" stdDeviation="2.0"/><feColorMatrix in="blurOut" result="blurOut2" type="matrix" values="0 0 0 0 0 0 0 0 0 0 0 0 0 0 0 0 0 0 .4 0"/><feOffset dx="4.0" dy="4.0" in="blurOut2" result="blurOut3"/><feBlend in="SourceGraphic" in2="blurOut3" mode="normal"/></filter></defs><g><!--MD5=[bfd5dec79543f21733a7745a1ddb16a0]
class gov.nasa.jpl.engine.InitialConditionList--><a href="InitialConditionList.html" target="_top" title="InitialConditionList.html" xlink:actuate="onRequest" xlink:href="InitialConditionList.html" xlink:show="new" xlink:title="InitialConditionList.html" xlink:type="simple"><rect fill="#FEFECE" filter="url(#fu4rqht4ncq79)" height="111.041" id="gov.nasa.jpl.engine.InitialConditionList" style="stroke: #A80036; stroke-width: 1.5;" width="249" x="7" y="7"/><ellipse cx="62.75" cy="26.1328" fill="#ADD1B2" rx="11" ry="11" style="stroke: #A80036; stroke-width: 1.0;"/><path d="M65.2231,32.2759 Q64.6421,32.5747 64.0029,32.7241 Q63.3638,32.8735 62.6582,32.8735 Q60.1514,32.8735 58.8315,31.2217 Q57.5117,29.5698 57.5117,26.4487 Q57.5117,23.3193 58.8315,21.6675 Q60.1514,20.0156 62.6582,20.0156 Q63.3638,20.0156 64.0112,20.165 Q64.6587,20.3145 65.2231,20.6133 L65.2231,23.3359 Q64.5923,22.7549 63.9988,22.4851 Q63.4053,22.2153 62.7744,22.2153 Q61.4297,22.2153 60.7449,23.282 Q60.0601,24.3486 60.0601,26.4487 Q60.0601,28.5405 60.7449,29.6072 Q61.4297,30.6738 62.7744,30.6738 Q63.4053,30.6738 63.9988,30.4041 Q64.5923,30.1343 65.2231,29.5532 Z "/><text fill="#000000" font-family="sans-serif" font-size="14" lengthAdjust="spacingAndGlyphs" textLength="129" x="83.25" y="25.5352">InitialConditionList</text><text fill="#000000" font-family="sans-serif" font-size="10" lengthAdjust="spacingAndGlyphs" textLength="94" x="100.75" y="38.1563">gov.nasa.jpl.engine</text><line style="stroke: #A80036; stroke-width: 1.5;" x1="8" x2="255" y1="45.2656" y2="45.2656"/><ellipse cx="18" cy="56.2656" fill="#84BE84" rx="3" ry="3" style="stroke: #038048; stroke-width: 1.0;"/><text fill="#000000" font-family="sans-serif" font-size="11" lengthAdjust="spacingAndGlyphs" textLength="223" x="27" y="59.9004">addToInconList(String, Comparable): void</text><ellipse cx="18" cy="69.2207" fill="#84BE84" rx="3" ry="3" style="stroke: #038048; stroke-width: 1.0;"/><text fill="#000000" font-family="sans-serif" font-size="11" lengthAdjust="spacingAndGlyphs" textLength="113" x="27" y="72.8555">getInconTime(): Time</text><ellipse cx="18" cy="82.1758" fill="#84BE84" rx="3" ry="3" style="stroke: #038048; stroke-width: 1.0;"/><text fill="#000000" font-family="sans-serif" font-size="11" lengthAdjust="spacingAndGlyphs" textLength="135" x="27" y="85.8105">setInconTime(Time): void</text><ellipse cx="18" cy="95.1309" fill="#84BE84" rx="3" ry="3" style="stroke: #038048; stroke-width: 1.0;"/><text fill="#000000" font-family="sans-serif" font-size="11" lengthAdjust="spacingAndGlyphs" textLength="202" x="27" y="98.7656">valueOfResource(String): Comparable</text><ellipse cx="18" cy="108.0859" fill="#84BE84" rx="3" ry="3" style="stroke: #038048; stroke-width: 1.0;"/><text fill="#000000" font-family="sans-serif" font-size="11" lengthAdjust="spacingAndGlyphs" textLength="136" x="27" y="111.7207">getEntireInconMap(): Map</text></a><text fill="#888888" font-family="sans-serif" font-size="10" lengthAdjust="spacingAndGlyphs" textLength="182" x="40.5" y="134.709">UMLDoclet 2.0.8, PlantUML 1.2020.01</text><!--MD5=[ab088b7f06d1043d69ff7fc7e9a90494]
@startuml
    set namespaceSeparator none
    hide empty fields
    hide empty methods

    class "<size:14>InitialConditionList\n<size:10>gov.nasa.jpl.engine" as gov.nasa.jpl.engine.InitialConditionList [[InitialConditionList.html]] {
        +addToInconList(String, Comparable): void
        +getInconTime(): Time
        +setInconTime(Time): void
        +valueOfResource(String): Comparable
        +getEntireInconMap(): Map
    }

    center footer UMLDoclet 2.0.8, PlantUML 1.2020.01
@enduml

PlantUML version 1.2020.01(Sun Feb 16 09:40:32 PST 2020)
(APACHE source distribution)
Java Runtime: OpenJDK Runtime Environment
JVM: OpenJDK 64-Bit Server VM
Java Version: 17.0.6+10
Operating System: Mac OS X
Default Encoding: UTF-8
Language: en
Country: US
--></g></svg>