<?xml version="1.0" encoding="UTF-8" standalone="no"?><svg xmlns="http://www.w3.org/2000/svg" xmlns:xlink="http://www.w3.org/1999/xlink" contentScriptType="application/ecmascript" contentStyleType="text/css" height="633px" preserveAspectRatio="none" style="width:1922px;height:633px;" version="1.1" viewBox="0 0 1922 633" width="1922px" zoomAndPan="magnify"><defs><filter height="300%" id="fz0yzxgom0nks" width="300%" x="-1" y="-1"><feGaussianBlur result="blurOut" stdDeviation="2.0"/><feColorMatrix in="blurOut" result="blurOut2" type="matrix" values="0 0 0 0 0 0 0 0 0 0 0 0 0 0 0 0 0 0 .4 0"/><feOffset dx="4.0" dy="4.0" in="blurOut2" result="blurOut3"/><feBlend in="SourceGraphic" in2="blurOut3" mode="normal"/></filter></defs><g><!--MD5=[1f7666214df604311aef82058560f712]
cluster gov.nasa.jpl.engine--><polygon fill="#FFFFFF" filter="url(#fz0yzxgom0nks)" points="386,168.72,527,168.72,534,191.2083,1900,191.2083,1900,584,386,584,386,168.72" style="stroke: #000000; stroke-width: 1.5;"/><line style="stroke: #000000; stroke-width: 1.5;" x1="386" x2="534" y1="191.2083" y2="191.2083"/><text fill="#000000" font-family="sans-serif" font-size="14" font-weight="bold" lengthAdjust="spacingAndGlyphs" textLength="135" x="390" y="184.2552">gov.nasa.jpl.engine</text><!--MD5=[aa8f7b917213fcc1c2766e2d59b49067]
cluster java.lang--><polygon fill="#FFFFFF" filter="url(#fz0yzxgom0nks)" points="1203,23.76,1272,23.76,1279,46.2483,1527,46.2483,1527,135.72,1203,135.72,1203,23.76" style="stroke: #000000; stroke-width: 1.5;"/><line style="stroke: #000000; stroke-width: 1.5;" x1="1203" x2="1279" y1="46.2483" y2="46.2483"/><text fill="#000000" font-family="sans-serif" font-size="14" font-weight="bold" lengthAdjust="spacingAndGlyphs" textLength="63" x="1207" y="39.2952">java.lang</text><!--MD5=[50e7ce2d696d903121fc0d72863c7982]
cluster gov.nasa.jpl.activity--><polygon fill="#FFFFFF" filter="url(#fz0yzxgom0nks)" points="22,201.11,168,201.11,175,223.5983,362,223.5983,362,364.88,22,364.88,22,201.11" style="stroke: #000000; stroke-width: 1.5;"/><line style="stroke: #000000; stroke-width: 1.5;" x1="22" x2="175" y1="223.5983" y2="223.5983"/><text fill="#000000" font-family="sans-serif" font-size="14" font-weight="bold" lengthAdjust="spacingAndGlyphs" textLength="140" x="26" y="216.6452">gov.nasa.jpl.activity</text><!--MD5=[89da18835e960f5db18405f8038357c1]
class gov.nasa.jpl.engine.Waiter--><a href="Waiter.html" target="_top" title="Waiter.html" xlink:actuate="onRequest" xlink:href="Waiter.html" xlink:show="new" xlink:title="Waiter.html" xlink:type="simple"><rect fill="#FEFECE" filter="url(#fz0yzxgom0nks)" height="86.8652" id="gov.nasa.jpl.engine.Waiter" style="stroke: #A80036; stroke-width: 1.5;" width="214" x="1112" y="249.06"/><ellipse cx="1196.75" cy="265.06" fill="#ADD1B2" rx="11" ry="11" style="stroke: #A80036; stroke-width: 1.0;"/><path d="M1199.2231,271.2031 Q1198.6421,271.5019 1198.0029,271.6513 Q1197.3638,271.8007 1196.6582,271.8007 Q1194.1514,271.8007 1192.8315,270.1489 Q1191.5117,268.497 1191.5117,265.3759 Q1191.5117,262.2465 1192.8315,260.5947 Q1194.1514,258.9428 1196.6582,258.9428 Q1197.3638,258.9428 1198.0112,259.0922 Q1198.6587,259.2416 1199.2231,259.5405 L1199.2231,262.2631 Q1198.5923,261.6821 1197.9988,261.4123 Q1197.4053,261.1425 1196.7744,261.1425 Q1195.4297,261.1425 1194.7449,262.2092 Q1194.0601,263.2758 1194.0601,265.3759 Q1194.0601,267.4677 1194.7449,268.5344 Q1195.4297,269.601 1196.7744,269.601 Q1197.4053,269.601 1197.9988,269.3312 Q1198.5923,269.0615 1199.2231,268.4804 Z "/><text fill="#000000" font-family="sans-serif" font-size="12" lengthAdjust="spacingAndGlyphs" textLength="36" x="1217.25" y="269.5952">Waiter</text><line style="stroke: #A80036; stroke-width: 1.5;" x1="1113" x2="1325" y1="281.06" y2="281.06"/><line style="stroke: #A80036; stroke-width: 1.5;" x1="1113" x2="1325" y1="289.06" y2="289.06"/><ellipse cx="1123" cy="300.06" fill="#84BE84" rx="3" ry="3" style="stroke: #038048; stroke-width: 1.0;"/><text fill="#000000" font-family="sans-serif" font-size="11" lengthAdjust="spacingAndGlyphs" textLength="188" x="1132" y="303.6948">Waiter(Time, int, Supplier&lt;Waiter&gt;)</text><ellipse cx="1123" cy="313.0151" fill="#84BE84" rx="3" ry="3" style="stroke: #038048; stroke-width: 1.0;"/><text fill="#000000" font-family="sans-serif" font-size="11" lengthAdjust="spacingAndGlyphs" textLength="83" x="1132" y="316.6498">getTime(): Time</text><ellipse cx="1123" cy="325.9702" fill="#84BE84" rx="3" ry="3" style="stroke: #038048; stroke-width: 1.0;"/><text fill="#000000" font-family="sans-serif" font-size="11" lengthAdjust="spacingAndGlyphs" textLength="122" x="1132" y="329.6049">compareTo(Waiter): int</text></a><!--MD5=[1eb8c507bc794a07bd84d71aada73af0]
class gov.nasa.jpl.engine.ParameterDeclaration--><a href="ParameterDeclaration.html" target="_top" title="ParameterDeclaration.html" xlink:actuate="onRequest" xlink:href="ParameterDeclaration.html" xlink:show="new" xlink:title="ParameterDeclaration.html" xlink:type="simple"><rect fill="#FEFECE" filter="url(#fz0yzxgom0nks)" height="99.8203" id="gov.nasa.jpl.engine.ParameterDeclaration" style="stroke: #A80036; stroke-width: 1.5;" width="324" x="753" y="242.58"/><ellipse cx="848.25" cy="258.58" fill="#ADD1B2" rx="11" ry="11" style="stroke: #A80036; stroke-width: 1.0;"/><path d="M850.7231,264.7231 Q850.1421,265.0219 849.5029,265.1713 Q848.8638,265.3207 848.1582,265.3207 Q845.6514,265.3207 844.3315,263.6689 Q843.0117,262.017 843.0117,258.8959 Q843.0117,255.7665 844.3315,254.1147 Q845.6514,252.4628 848.1582,252.4628 Q848.8638,252.4628 849.5112,252.6122 Q850.1587,252.7616 850.7231,253.0605 L850.7231,255.7831 Q850.0923,255.2021 849.4988,254.9323 Q848.9053,254.6625 848.2744,254.6625 Q846.9297,254.6625 846.2449,255.7292 Q845.5601,256.7958 845.5601,258.8959 Q845.5601,260.9877 846.2449,262.0544 Q846.9297,263.121 848.2744,263.121 Q848.9053,263.121 849.4988,262.8512 Q850.0923,262.5815 850.7231,262.0004 Z "/><text fill="#000000" font-family="sans-serif" font-size="12" lengthAdjust="spacingAndGlyphs" textLength="125" x="868.75" y="263.1152">ParameterDeclaration</text><line style="stroke: #A80036; stroke-width: 1.5;" x1="754" x2="1076" y1="274.58" y2="274.58"/><line style="stroke: #A80036; stroke-width: 1.5;" x1="754" x2="1076" y1="282.58" y2="282.58"/><ellipse cx="764" cy="293.58" fill="#84BE84" rx="3" ry="3" style="stroke: #038048; stroke-width: 1.0;"/><text fill="#000000" font-family="sans-serif" font-size="11" lengthAdjust="spacingAndGlyphs" text-decoration="underline" textLength="226" x="773" y="297.2148">getTypeOfParameter(String, String): String</text><ellipse cx="764" cy="306.5351" fill="#84BE84" rx="3" ry="3" style="stroke: #038048; stroke-width: 1.0;"/><text fill="#000000" font-family="sans-serif" font-size="11" lengthAdjust="spacingAndGlyphs" text-decoration="underline" textLength="219" x="773" y="310.1698">getParameterValue(String, String): Object</text><ellipse cx="764" cy="319.4902" fill="#84BE84" rx="3" ry="3" style="stroke: #038048; stroke-width: 1.0;"/><text fill="#000000" font-family="sans-serif" font-size="11" lengthAdjust="spacingAndGlyphs" text-decoration="underline" textLength="298" x="773" y="323.1249">modifyAdaptationParameter(String, String, Object): void</text><ellipse cx="764" cy="332.4452" fill="#84BE84" rx="3" ry="3" style="stroke: #038048; stroke-width: 1.0;"/><text fill="#000000" font-family="sans-serif" font-size="11" lengthAdjust="spacingAndGlyphs" text-decoration="underline" textLength="195" x="773" y="336.08">collectNamesOfAllParameters(): void</text></a><!--MD5=[5dcd41c53041b4e69347f86ce90093cc]
class gov.nasa.jpl.engine.AdaptationException--><a href="AdaptationException.html" target="_top" title="AdaptationException.html" xlink:actuate="onRequest" xlink:href="AdaptationException.html" xlink:show="new" xlink:title="AdaptationException.html" xlink:type="simple"><rect fill="#FEFECE" filter="url(#fz0yzxgom0nks)" height="73.9102" id="gov.nasa.jpl.engine.AdaptationException" style="stroke: #A80036; stroke-width: 1.5;" width="240" x="1361" y="255.54"/><ellipse cx="1417.25" cy="271.54" fill="#ADD1B2" rx="11" ry="11" style="stroke: #A80036; stroke-width: 1.0;"/><path d="M1419.7231,277.6831 Q1419.1421,277.9819 1418.5029,278.1313 Q1417.8638,278.2807 1417.1582,278.2807 Q1414.6514,278.2807 1413.3315,276.6289 Q1412.0117,274.977 1412.0117,271.8559 Q1412.0117,268.7265 1413.3315,267.0747 Q1414.6514,265.4228 1417.1582,265.4228 Q1417.8638,265.4228 1418.5112,265.5722 Q1419.1587,265.7216 1419.7231,266.0205 L1419.7231,268.7431 Q1419.0923,268.1621 1418.4988,267.8923 Q1417.9053,267.6225 1417.2744,267.6225 Q1415.9297,267.6225 1415.2449,268.6892 Q1414.5601,269.7558 1414.5601,271.8559 Q1414.5601,273.9477 1415.2449,275.0144 Q1415.9297,276.081 1417.2744,276.081 Q1417.9053,276.081 1418.4988,275.8112 Q1419.0923,275.5415 1419.7231,274.9604 Z "/><text fill="#000000" font-family="sans-serif" font-size="12" lengthAdjust="spacingAndGlyphs" textLength="119" x="1437.75" y="276.0752">AdaptationException</text><line style="stroke: #A80036; stroke-width: 1.5;" x1="1362" x2="1600" y1="287.54" y2="287.54"/><line style="stroke: #A80036; stroke-width: 1.5;" x1="1362" x2="1600" y1="295.54" y2="295.54"/><ellipse cx="1372" cy="306.54" fill="#84BE84" rx="3" ry="3" style="stroke: #038048; stroke-width: 1.0;"/><text fill="#000000" font-family="sans-serif" font-size="11" lengthAdjust="spacingAndGlyphs" textLength="152" x="1381" y="310.1748">AdaptationException(String)</text><ellipse cx="1372" cy="319.4951" fill="#84BE84" rx="3" ry="3" style="stroke: #038048; stroke-width: 1.0;"/><text fill="#000000" font-family="sans-serif" font-size="11" lengthAdjust="spacingAndGlyphs" textLength="214" x="1381" y="323.1298">AdaptationException(String, Throwable)</text></a><!--MD5=[bfd5dec79543f21733a7745a1ddb16a0]
class gov.nasa.jpl.engine.InitialConditionList--><a href="InitialConditionList.html" target="_top" title="InitialConditionList.html" xlink:actuate="onRequest" xlink:href="InitialConditionList.html" xlink:show="new" xlink:title="InitialConditionList.html" xlink:type="simple"><rect fill="#FEFECE" filter="url(#fz0yzxgom0nks)" height="112.7754" id="gov.nasa.jpl.engine.InitialConditionList" style="stroke: #A80036; stroke-width: 1.5;" width="249" x="1635.5" y="236.11"/><ellipse cx="1704.25" cy="252.11" fill="#ADD1B2" rx="11" ry="11" style="stroke: #A80036; stroke-width: 1.0;"/><path d="M1706.7231,258.2531 Q1706.1421,258.5519 1705.5029,258.7013 Q1704.8638,258.8507 1704.1582,258.8507 Q1701.6514,258.8507 1700.3315,257.1989 Q1699.0117,255.547 1699.0117,252.4259 Q1699.0117,249.2965 1700.3315,247.6447 Q1701.6514,245.9928 1704.1582,245.9928 Q1704.8638,245.9928 1705.5112,246.1422 Q1706.1587,246.2916 1706.7231,246.5905 L1706.7231,249.3131 Q1706.0923,248.7321 1705.4988,248.4623 Q1704.9053,248.1925 1704.2744,248.1925 Q1702.9297,248.1925 1702.2449,249.2592 Q1701.5601,250.3258 1701.5601,252.4259 Q1701.5601,254.5177 1702.2449,255.5844 Q1702.9297,256.651 1704.2744,256.651 Q1704.9053,256.651 1705.4988,256.3812 Q1706.0923,256.1115 1706.7231,255.5304 Z "/><text fill="#000000" font-family="sans-serif" font-size="12" lengthAdjust="spacingAndGlyphs" textLength="103" x="1724.75" y="256.6452">InitialConditionList</text><line style="stroke: #A80036; stroke-width: 1.5;" x1="1636.5" x2="1883.5" y1="268.11" y2="268.11"/><line style="stroke: #A80036; stroke-width: 1.5;" x1="1636.5" x2="1883.5" y1="276.11" y2="276.11"/><ellipse cx="1646.5" cy="287.11" fill="#84BE84" rx="3" ry="3" style="stroke: #038048; stroke-width: 1.0;"/><text fill="#000000" font-family="sans-serif" font-size="11" lengthAdjust="spacingAndGlyphs" textLength="223" x="1655.5" y="290.7448">addToInconList(String, Comparable): void</text><ellipse cx="1646.5" cy="300.0651" fill="#84BE84" rx="3" ry="3" style="stroke: #038048; stroke-width: 1.0;"/><text fill="#000000" font-family="sans-serif" font-size="11" lengthAdjust="spacingAndGlyphs" textLength="113" x="1655.5" y="303.6998">getInconTime(): Time</text><ellipse cx="1646.5" cy="313.0202" fill="#84BE84" rx="3" ry="3" style="stroke: #038048; stroke-width: 1.0;"/><text fill="#000000" font-family="sans-serif" font-size="11" lengthAdjust="spacingAndGlyphs" textLength="135" x="1655.5" y="316.6549">setInconTime(Time): void</text><ellipse cx="1646.5" cy="325.9752" fill="#84BE84" rx="3" ry="3" style="stroke: #038048; stroke-width: 1.0;"/><text fill="#000000" font-family="sans-serif" font-size="11" lengthAdjust="spacingAndGlyphs" textLength="202" x="1655.5" y="329.61">valueOfResource(String): Comparable</text><ellipse cx="1646.5" cy="338.9303" fill="#84BE84" rx="3" ry="3" style="stroke: #038048; stroke-width: 1.0;"/><text fill="#000000" font-family="sans-serif" font-size="11" lengthAdjust="spacingAndGlyphs" textLength="136" x="1655.5" y="342.5651">getEntireInconMap(): Map</text></a><!--MD5=[58c205b508589ac4a68185efac939e76]
class gov.nasa.jpl.engine.FunctionalWaitModelingEngine--><a href="FunctionalWaitModelingEngine.html" target="_top" title="FunctionalWaitModelingEngine.html" xlink:actuate="onRequest" xlink:href="FunctionalWaitModelingEngine.html" xlink:show="new" xlink:title="FunctionalWaitModelingEngine.html" xlink:type="simple"><rect fill="#FEFECE" filter="url(#fz0yzxgom0nks)" height="125.7305" id="gov.nasa.jpl.engine.FunctionalWaitModelingEngine" style="stroke: #A80036; stroke-width: 1.5;" width="308" x="402" y="442.27"/><ellipse cx="466.25" cy="458.27" fill="#ADD1B2" rx="11" ry="11" style="stroke: #A80036; stroke-width: 1.0;"/><path d="M468.7231,464.4131 Q468.1421,464.7119 467.5029,464.8613 Q466.8638,465.0107 466.1582,465.0107 Q463.6514,465.0107 462.3315,463.3589 Q461.0117,461.707 461.0117,458.5859 Q461.0117,455.4565 462.3315,453.8047 Q463.6514,452.1528 466.1582,452.1528 Q466.8638,452.1528 467.5112,452.3022 Q468.1587,452.4516 468.7231,452.7505 L468.7231,455.4731 Q468.0923,454.8921 467.4988,454.6223 Q466.9053,454.3525 466.2744,454.3525 Q464.9297,454.3525 464.2449,455.4192 Q463.5601,456.4858 463.5601,458.5859 Q463.5601,460.6777 464.2449,461.7444 Q464.9297,462.811 466.2744,462.811 Q466.9053,462.811 467.4988,462.5412 Q468.0923,462.2715 468.7231,461.6904 Z "/><text fill="#000000" font-family="sans-serif" font-size="12" lengthAdjust="spacingAndGlyphs" textLength="171" x="486.75" y="462.8052">FunctionalWaitModelingEngine</text><line style="stroke: #A80036; stroke-width: 1.5;" x1="403" x2="709" y1="474.27" y2="474.27"/><line style="stroke: #A80036; stroke-width: 1.5;" x1="403" x2="709" y1="482.27" y2="482.27"/><polygon fill="#FFFF44" points="413,488.27,417,492.27,413,496.27,409,492.27" style="stroke: #B38D22; stroke-width: 1.0;"/><text fill="#000000" font-family="sans-serif" font-size="11" lengthAdjust="spacingAndGlyphs" textLength="105" x="422" y="496.9048">runModeling(): void</text><ellipse cx="413" cy="506.2251" fill="#84BE84" rx="3" ry="3" style="stroke: #038048; stroke-width: 1.0;"/><text fill="#000000" font-family="sans-serif" font-size="11" lengthAdjust="spacingAndGlyphs" textLength="205" x="422" y="509.8598">insertActivityIntoEngine(Activity): void</text><ellipse cx="413" cy="519.1802" fill="#84BE84" rx="3" ry="3" style="stroke: #038048; stroke-width: 1.0;"/><text fill="#000000" font-family="sans-serif" font-size="11" lengthAdjust="spacingAndGlyphs" textLength="109" x="422" y="522.8149">waitUntil(Time): void</text><ellipse cx="413" cy="532.1352" fill="#84BE84" rx="3" ry="3" style="stroke: #038048; stroke-width: 1.0;"/><text fill="#000000" font-family="sans-serif" font-size="11" lengthAdjust="spacingAndGlyphs" textLength="139" x="422" y="535.77">waitForSignal(String): Map</text><ellipse cx="413" cy="545.0903" fill="#84BE84" rx="3" ry="3" style="stroke: #038048; stroke-width: 1.0;"/><text fill="#000000" font-family="sans-serif" font-size="11" lengthAdjust="spacingAndGlyphs" textLength="220" x="422" y="548.7251">waitUntil(Time, Supplier&lt;Waiter&gt;): Waiter</text><ellipse cx="413" cy="558.0454" fill="#84BE84" rx="3" ry="3" style="stroke: #038048; stroke-width: 1.0;"/><text fill="#000000" font-family="sans-serif" font-size="11" lengthAdjust="spacingAndGlyphs" textLength="282" x="422" y="561.6802">waitForSignal(String, Function&lt;Map, Waiter&gt;): Waiter</text></a><!--MD5=[66ca0e7fc2bb0e45431be5291a19ecf0]
class gov.nasa.jpl.engine.ModelingEngine--><a href="ModelingEngine.html" target="_top" title="ModelingEngine.html" xlink:actuate="onRequest" xlink:href="ModelingEngine.html" xlink:show="new" xlink:title="ModelingEngine.html" xlink:type="simple"><rect fill="#FEFECE" filter="url(#fz0yzxgom0nks)" height="177.5508" id="gov.nasa.jpl.engine.ModelingEngine" style="stroke: #A80036; stroke-width: 1.5;" width="244" x="402" y="203.72"/><ellipse cx="474.75" cy="219.72" fill="#A9DCDF" rx="11" ry="11" style="stroke: #A80036; stroke-width: 1.0;"/><path d="M474.6133,215.0681 L473.4595,220.1399 L475.7754,220.1399 Z M473.1191,212.8269 L476.1157,212.8269 L479.4609,225.22 L477.0122,225.22 L476.2485,222.157 L472.9697,222.157 L472.2227,225.22 L469.7739,225.22 Z "/><text fill="#000000" font-family="sans-serif" font-size="12" font-style="italic" lengthAdjust="spacingAndGlyphs" textLength="90" x="495.25" y="224.2552">ModelingEngine</text><line style="stroke: #A80036; stroke-width: 1.5;" x1="403" x2="645" y1="235.72" y2="235.72"/><line style="stroke: #A80036; stroke-width: 1.5;" x1="403" x2="645" y1="243.72" y2="243.72"/><ellipse cx="413" cy="254.72" fill="#84BE84" rx="3" ry="3" style="stroke: #038048; stroke-width: 1.0;"/><text fill="#000000" font-family="sans-serif" font-size="11" lengthAdjust="spacingAndGlyphs" textLength="70" x="422" y="258.3548">model(): void</text><polygon fill="#FFFF44" points="413,262.6751,417,266.6751,413,270.6751,409,266.6751" style="stroke: #B38D22; stroke-width: 1.0;"/><text fill="#000000" font-family="sans-serif" font-size="11" lengthAdjust="spacingAndGlyphs" textLength="106" x="422" y="271.3098">initTime(Time): void</text><ellipse cx="413" cy="280.6302" fill="#84BE84" rx="3" ry="3" style="stroke: #038048; stroke-width: 1.0;"/><text fill="#000000" font-family="sans-serif" font-size="11" lengthAdjust="spacingAndGlyphs" textLength="125" x="422" y="284.2649">getCurrentTime(): Time</text><ellipse cx="413" cy="293.5852" fill="#84BE84" rx="3" ry="3" style="stroke: #038048; stroke-width: 1.0;"/><text fill="#000000" font-family="sans-serif" font-size="11" lengthAdjust="spacingAndGlyphs" textLength="105" x="422" y="297.22">setTime(Time): void</text><ellipse cx="413" cy="306.5403" fill="#84BE84" rx="3" ry="3" style="stroke: #038048; stroke-width: 1.0;"/><text fill="#000000" font-family="sans-serif" font-size="11" lengthAdjust="spacingAndGlyphs" textLength="115" x="422" y="310.1751">isModeling(): boolean</text><ellipse cx="413" cy="319.4954" fill="#84BE84" rx="3" ry="3" style="stroke: #038048; stroke-width: 1.0;"/><text fill="#000000" font-family="sans-serif" font-size="11" lengthAdjust="spacingAndGlyphs" textLength="100" x="422" y="323.1302">resetEngine(): void</text><ellipse cx="413" cy="332.4505" fill="#84BE84" rx="3" ry="3" style="stroke: #038048; stroke-width: 1.0;"/><text fill="#000000" font-family="sans-serif" font-size="11" lengthAdjust="spacingAndGlyphs" textLength="188" x="422" y="336.0852">isCurrentlyReadingInFile(): boolean</text><ellipse cx="413" cy="345.4055" fill="#84BE84" rx="3" ry="3" style="stroke: #038048; stroke-width: 1.0;"/><text fill="#000000" font-family="sans-serif" font-size="11" lengthAdjust="spacingAndGlyphs" textLength="218" x="422" y="349.0403">setCurrentlyReadingInFile(boolean): void</text><polygon fill="#FFFF44" points="413,353.3606,417,357.3606,413,361.3606,409,357.3606" style="stroke: #B38D22; stroke-width: 1.0;"/><text fill="#000000" font-family="sans-serif" font-size="11" font-style="italic" lengthAdjust="spacingAndGlyphs" textLength="105" x="422" y="361.9954">runModeling(): void</text><ellipse cx="413" cy="371.3157" fill="#84BE84" rx="3" ry="3" style="stroke: #038048; stroke-width: 1.0;"/><text fill="#000000" font-family="sans-serif" font-size="11" font-style="italic" lengthAdjust="spacingAndGlyphs" textLength="205" x="422" y="374.9505">insertActivityIntoEngine(Activity): void</text></a><!--MD5=[b612d01f3caee321a937bb440cf45a65]
class gov.nasa.jpl.engine.Setup--><a href="Setup.html" target="_top" title="Setup.html" xlink:actuate="onRequest" xlink:href="Setup.html" xlink:show="new" xlink:title="Setup.html" xlink:type="simple"><rect fill="#FEFECE" filter="url(#fz0yzxgom0nks)" height="60.9551" id="gov.nasa.jpl.engine.Setup" style="stroke: #A80036; stroke-width: 1.5;" width="143" x="843.5" y="474.66"/><ellipse cx="894.75" cy="490.66" fill="#ADD1B2" rx="11" ry="11" style="stroke: #A80036; stroke-width: 1.0;"/><path d="M897.2231,496.8031 Q896.6421,497.1019 896.0029,497.2513 Q895.3638,497.4007 894.6582,497.4007 Q892.1514,497.4007 890.8315,495.7489 Q889.5117,494.097 889.5117,490.9759 Q889.5117,487.8465 890.8315,486.1947 Q892.1514,484.5428 894.6582,484.5428 Q895.3638,484.5428 896.0112,484.6922 Q896.6587,484.8416 897.2231,485.1405 L897.2231,487.8631 Q896.5923,487.2821 895.9988,487.0123 Q895.4053,486.7425 894.7744,486.7425 Q893.4297,486.7425 892.7449,487.8092 Q892.0601,488.8758 892.0601,490.9759 Q892.0601,493.0677 892.7449,494.1344 Q893.4297,495.201 894.7744,495.201 Q895.4053,495.201 895.9988,494.9312 Q896.5923,494.6615 897.2231,494.0804 Z "/><text fill="#000000" font-family="sans-serif" font-size="12" lengthAdjust="spacingAndGlyphs" textLength="32" x="915.25" y="495.1952">Setup</text><line style="stroke: #A80036; stroke-width: 1.5;" x1="844.5" x2="985.5" y1="506.66" y2="506.66"/><line style="stroke: #A80036; stroke-width: 1.5;" x1="844.5" x2="985.5" y1="514.66" y2="514.66"/><ellipse cx="854.5" cy="525.66" fill="#84BE84" rx="3" ry="3" style="stroke: #038048; stroke-width: 1.0;"/><text fill="#000000" font-family="sans-serif" font-size="11" lengthAdjust="spacingAndGlyphs" text-decoration="underline" textLength="117" x="863.5" y="529.2948">initializeEngine(): void</text></a><!--MD5=[b1ae4f3e0b5bb87546d8b4bec00359f3]
class gov.nasa.jpl.engine.Signal--><a href="Signal.html" target="_top" title="Signal.html" xlink:actuate="onRequest" xlink:href="Signal.html" xlink:show="new" xlink:title="Signal.html" xlink:type="simple"><rect fill="#FEFECE" filter="url(#fz0yzxgom0nks)" height="73.9102" id="gov.nasa.jpl.engine.Signal" style="stroke: #A80036; stroke-width: 1.5;" width="149" x="1021.5" y="468.18"/><ellipse cx="1075.25" cy="484.18" fill="#ADD1B2" rx="11" ry="11" style="stroke: #A80036; stroke-width: 1.0;"/><path d="M1077.7231,490.3231 Q1077.1421,490.6219 1076.5029,490.7713 Q1075.8638,490.9207 1075.1582,490.9207 Q1072.6514,490.9207 1071.3315,489.2689 Q1070.0117,487.617 1070.0117,484.4959 Q1070.0117,481.3665 1071.3315,479.7147 Q1072.6514,478.0628 1075.1582,478.0628 Q1075.8638,478.0628 1076.5112,478.2122 Q1077.1587,478.3616 1077.7231,478.6605 L1077.7231,481.3831 Q1077.0923,480.8021 1076.4988,480.5323 Q1075.9053,480.2625 1075.2744,480.2625 Q1073.9297,480.2625 1073.2449,481.3292 Q1072.5601,482.3958 1072.5601,484.4959 Q1072.5601,486.5877 1073.2449,487.6544 Q1073.9297,488.721 1075.2744,488.721 Q1075.9053,488.721 1076.4988,488.4512 Q1077.0923,488.1815 1077.7231,487.6004 Z "/><text fill="#000000" font-family="sans-serif" font-size="12" lengthAdjust="spacingAndGlyphs" textLength="33" x="1095.75" y="488.7152">Signal</text><line style="stroke: #A80036; stroke-width: 1.5;" x1="1022.5" x2="1169.5" y1="500.18" y2="500.18"/><line style="stroke: #A80036; stroke-width: 1.5;" x1="1022.5" x2="1169.5" y1="508.18" y2="508.18"/><polygon fill="#FFFF44" points="1032.5,514.18,1036.5,518.18,1032.5,522.18,1028.5,518.18" style="stroke: #B38D22; stroke-width: 1.0;"/><text fill="#000000" font-family="sans-serif" font-size="11" lengthAdjust="spacingAndGlyphs" textLength="72" x="1041.5" y="522.8148">Signal(String)</text><ellipse cx="1032.5" cy="532.1351" fill="#84BE84" rx="3" ry="3" style="stroke: #038048; stroke-width: 1.0;"/><text fill="#000000" font-family="sans-serif" font-size="11" lengthAdjust="spacingAndGlyphs" text-decoration="underline" textLength="123" x="1041.5" y="535.7698">send(String, Map): void</text></a><!--MD5=[008d82c49f85b4d489e041917c99c847]
class java.lang.Comparable--><a href="https://docs.oracle.com/en/java/javase/13/docs/api/java.base/java/lang/Comparable.html?is-external=true" target="_top" title="https://docs.oracle.com/en/java/javase/13/docs/api/java.base/java/lang/Comparable.html?is-external=true" xlink:actuate="onRequest" xlink:href="https://docs.oracle.com/en/java/javase/13/docs/api/java.base/java/lang/Comparable.html?is-external=true" xlink:show="new" xlink:title="https://docs.oracle.com/en/java/javase/13/docs/api/java.base/java/lang/Comparable.html?is-external=true" xlink:type="simple"><rect fill="#FEFECE" filter="url(#fz0yzxgom0nks)" height="60.9551" id="java.lang.Comparable" style="stroke: #A80036; stroke-width: 1.5;" width="122" x="1219" y="58.76"/><ellipse cx="1237.15" cy="74.76" fill="#B4A7E5" rx="11" ry="11" style="stroke: #A80036; stroke-width: 1.0;"/><path d="M1233.5777,71.0251 L1233.5777,68.8669 L1240.9571,68.8669 L1240.9571,71.0251 L1238.4918,71.0251 L1238.4918,79.1018 L1240.9571,79.1018 L1240.9571,81.26 L1233.5777,81.26 L1233.5777,79.1018 L1236.0431,79.1018 L1236.0431,71.0251 Z "/><text fill="#000000" font-family="sans-serif" font-size="12" font-style="italic" lengthAdjust="spacingAndGlyphs" textLength="71" x="1251.85" y="79.2952">Comparable</text><rect fill="#FFFFFF" height="16.1328" style="stroke: #000000; stroke-width: 1.0; stroke-dasharray: 2.0,2.0;" width="10" x="1334" y="55.76"/><text fill="#000000" font-family="sans-serif" font-size="12" font-style="italic" lengthAdjust="spacingAndGlyphs" textLength="8" x="1335" y="68.3616">T</text><line style="stroke: #A80036; stroke-width: 1.5;" x1="1220" x2="1340" y1="90.76" y2="90.76"/><line style="stroke: #A80036; stroke-width: 1.5;" x1="1220" x2="1340" y1="98.76" y2="98.76"/><ellipse cx="1230" cy="109.76" fill="#84BE84" rx="3" ry="3" style="stroke: #038048; stroke-width: 1.0;"/><text fill="#000000" font-family="sans-serif" font-size="11" font-style="italic" lengthAdjust="spacingAndGlyphs" textLength="96" x="1239" y="113.3948">compareTo(T): int</text></a><!--MD5=[a4d8c85934e7c2286da27481ca2471bd]
class java.lang.RuntimeException--><a href="https://docs.oracle.com/en/java/javase/13/docs/api/java.base/java/lang/RuntimeException.html?is-external=true" target="_top" title="https://docs.oracle.com/en/java/javase/13/docs/api/java.base/java/lang/RuntimeException.html?is-external=true" xlink:actuate="onRequest" xlink:href="https://docs.oracle.com/en/java/javase/13/docs/api/java.base/java/lang/RuntimeException.html?is-external=true" xlink:show="new" xlink:title="https://docs.oracle.com/en/java/javase/13/docs/api/java.base/java/lang/RuntimeException.html?is-external=true" xlink:type="simple"><rect fill="#FEFECE" filter="url(#fz0yzxgom0nks)" height="48" id="java.lang.RuntimeException" style="stroke: #A80036; stroke-width: 1.5;" width="135" x="1375.5" y="65.24"/><ellipse cx="1390.5" cy="81.24" fill="#ADD1B2" rx="11" ry="11" style="stroke: #A80036; stroke-width: 1.0;"/><path d="M1392.9731,87.3831 Q1392.3921,87.6819 1391.7529,87.8313 Q1391.1138,87.9807 1390.4082,87.9807 Q1387.9014,87.9807 1386.5815,86.3289 Q1385.2617,84.677 1385.2617,81.5559 Q1385.2617,78.4265 1386.5815,76.7747 Q1387.9014,75.1228 1390.4082,75.1228 Q1391.1138,75.1228 1391.7612,75.2722 Q1392.4087,75.4216 1392.9731,75.7205 L1392.9731,78.4431 Q1392.3423,77.8621 1391.7488,77.5923 Q1391.1553,77.3225 1390.5244,77.3225 Q1389.1797,77.3225 1388.4949,78.3892 Q1387.8101,79.4558 1387.8101,81.5559 Q1387.8101,83.6477 1388.4949,84.7144 Q1389.1797,85.781 1390.5244,85.781 Q1391.1553,85.781 1391.7488,85.5112 Q1392.3423,85.2415 1392.9731,84.6604 Z "/><text fill="#000000" font-family="sans-serif" font-size="12" lengthAdjust="spacingAndGlyphs" textLength="103" x="1404.5" y="85.7752">RuntimeException</text><line style="stroke: #A80036; stroke-width: 1.5;" x1="1376.5" x2="1509.5" y1="97.24" y2="97.24"/><line style="stroke: #A80036; stroke-width: 1.5;" x1="1376.5" x2="1509.5" y1="105.24" y2="105.24"/></a><!--MD5=[c8f89ded572d3649367516361c41414d]
class gov.nasa.jpl.activity.WaitProvider--><a href="../activity/WaitProvider.html" target="_top" title="../activity/WaitProvider.html" xlink:actuate="onRequest" xlink:href="../activity/WaitProvider.html" xlink:show="new" xlink:title="../activity/WaitProvider.html" xlink:type="simple"><rect fill="#FEFECE" filter="url(#fz0yzxgom0nks)" height="112.7754" id="gov.nasa.jpl.activity.WaitProvider" style="stroke: #A80036; stroke-width: 1.5;" width="308" x="38" y="236.11"/><ellipse cx="151.75" cy="252.11" fill="#B4A7E5" rx="11" ry="11" style="stroke: #A80036; stroke-width: 1.0;"/><path d="M148.1777,248.3751 L148.1777,246.2169 L155.5571,246.2169 L155.5571,248.3751 L153.0918,248.3751 L153.0918,256.4518 L155.5571,256.4518 L155.5571,258.61 L148.1777,258.61 L148.1777,256.4518 L150.6431,256.4518 L150.6431,248.3751 Z "/><text fill="#000000" font-family="sans-serif" font-size="12" font-style="italic" lengthAdjust="spacingAndGlyphs" textLength="72" x="172.25" y="256.6452">WaitProvider</text><line style="stroke: #A80036; stroke-width: 1.5;" x1="39" x2="345" y1="268.11" y2="268.11"/><line style="stroke: #A80036; stroke-width: 1.5;" x1="39" x2="345" y1="276.11" y2="276.11"/><ellipse cx="49" cy="287.11" fill="#84BE84" rx="3" ry="3" style="stroke: #038048; stroke-width: 1.0;"/><text fill="#000000" font-family="sans-serif" font-size="11" font-style="italic" lengthAdjust="spacingAndGlyphs" textLength="109" x="58" y="290.7448">waitUntil(Time): void</text><ellipse cx="49" cy="300.0651" fill="#84BE84" rx="3" ry="3" style="stroke: #038048; stroke-width: 1.0;"/><text fill="#000000" font-family="sans-serif" font-size="11" font-style="italic" lengthAdjust="spacingAndGlyphs" textLength="139" x="58" y="303.6998">waitForSignal(String): Map</text><ellipse cx="49" cy="313.0202" fill="#84BE84" rx="3" ry="3" style="stroke: #038048; stroke-width: 1.0;"/><text fill="#000000" font-family="sans-serif" font-size="11" font-style="italic" lengthAdjust="spacingAndGlyphs" textLength="220" x="58" y="316.6549">waitUntil(Time, Supplier&lt;Waiter&gt;): Waiter</text><ellipse cx="49" cy="325.9752" fill="#84BE84" rx="3" ry="3" style="stroke: #038048; stroke-width: 1.0;"/><text fill="#000000" font-family="sans-serif" font-size="11" font-style="italic" lengthAdjust="spacingAndGlyphs" textLength="282" x="58" y="329.61">waitForSignal(String, Function&lt;Map, Waiter&gt;): Waiter</text><ellipse cx="49" cy="338.9303" fill="#84BE84" rx="3" ry="3" style="stroke: #038048; stroke-width: 1.0;"/><text fill="#000000" font-family="sans-serif" font-size="11" font-style="italic" lengthAdjust="spacingAndGlyphs" textLength="125" x="58" y="342.5651">getCurrentTime(): Time</text></a><!--MD5=[80d33d75fc74e51dfe3b0ed417e94a08]
reverse link java.lang.Comparable to gov.nasa.jpl.engine.Waiter--><path d="M1264.87,140.17 C1254.76,173.51 1241.61,216.89 1231.98,248.66 " fill="none" id="java.lang.Comparable&lt;-gov.nasa.jpl.engine.Waiter" style="stroke: #A80036; stroke-width: 1.0; stroke-dasharray: 7.0,7.0;"/><polygon fill="none" points="1258.06,138.49,1270.56,121.39,1271.46,142.56,1258.06,138.49" style="stroke: #A80036; stroke-width: 1.0;"/><!--MD5=[aebdc6fac7d8a9f8f19d04b03562f99f]
reverse link java.lang.RuntimeException to gov.nasa.jpl.engine.AdaptationException--><path d="M1451.39,134.65 C1458.23,170.89 1467.77,221.45 1474.16,255.27 " fill="none" id="java.lang.RuntimeException&lt;-gov.nasa.jpl.engine.AdaptationException" style="stroke: #A80036; stroke-width: 1.0;"/><polygon fill="none" points="1444.55,136.16,1447.71,115.21,1458.3,133.56,1444.55,136.16" style="stroke: #A80036; stroke-width: 1.0;"/><!--MD5=[4553e11706fcc37b26cd74a500b766aa]
reverse link gov.nasa.jpl.engine.ModelingEngine to gov.nasa.jpl.engine.FunctionalWaitModelingEngine--><path d="M540.59,402.71 C542.64,416.18 544.67,429.57 546.56,441.99 " fill="none" id="gov.nasa.jpl.engine.ModelingEngine&lt;-gov.nasa.jpl.engine.FunctionalWaitModelingEngine" style="stroke: #A80036; stroke-width: 1.0;"/><polygon fill="none" points="533.7,403.93,537.61,383.1,547.54,401.82,533.7,403.93" style="stroke: #A80036; stroke-width: 1.0;"/><!--MD5=[f668d890e35ddfb70790f4bab2f9ae9b]
reverse link gov.nasa.jpl.activity.WaitProvider to gov.nasa.jpl.engine.FunctionalWaitModelingEngine--><path d="M306.46,359.73 C351.84,385.99 403.75,416.03 448.42,441.88 " fill="none" id="gov.nasa.jpl.activity.WaitProvider&lt;-gov.nasa.jpl.engine.FunctionalWaitModelingEngine" style="stroke: #A80036; stroke-width: 1.0; stroke-dasharray: 7.0,7.0;"/><polygon fill="none" points="303.23,365.95,289.42,349.87,310.24,353.83,303.23,365.95" style="stroke: #A80036; stroke-width: 1.0;"/><!--MD5=[5d7dd65f39acf17821653c551ae6c3ff]
link gov.nasa.jpl.engine.ModelingEngine to gov.nasa.jpl.engine.ModelingEngine--><path d="M646.44,271.71 C666.89,274.62 681,281.55 681,292.49 C681,302.33 669.61,308.92 652.46,312.27 " fill="none" id="gov.nasa.jpl.engine.ModelingEngine-&gt;gov.nasa.jpl.engine.ModelingEngine" style="stroke: #A80036; stroke-width: 1.0;"/><polygon fill="#A80036" points="647.93,313.03,657.4686,315.4825,652.8608,312.2011,656.1423,307.5933,647.93,313.03" style="stroke: #A80036; stroke-width: 1.0;"/><text fill="#000000" font-family="sans-serif" font-size="13" lengthAdjust="spacingAndGlyphs" textLength="42" x="687" y="297.5584">engine</text><!--MD5=[362d5275114783a514d2cee7f7bfea6a]
link gov.nasa.jpl.engine.ParameterDeclaration to gov.nasa.jpl.engine.InitialConditionList--><!--MD5=[7334714e9815d1cccc6a67deb7855a43]
link gov.nasa.jpl.engine.ParameterDeclaration to gov.nasa.jpl.engine.Setup--><!--MD5=[f60699cd8fc919d980399ad5542de060]
link gov.nasa.jpl.engine.Setup to gov.nasa.jpl.engine.Signal--><text fill="#888888" font-family="sans-serif" font-size="10" lengthAdjust="spacingAndGlyphs" textLength="182" x="876" y="619.668">UMLDoclet 2.0.8, PlantUML 1.2020.01</text><!--MD5=[0eaa057782d3526dca1839f32d8b754b]
@startuml
    namespace gov.nasa.jpl.engine {

        class Waiter [[Waiter.html]] {
            +Waiter(Time, int, Supplier<Waiter>)
            +getTime(): Time
            +compareTo(Waiter): int
        }

        class ParameterDeclaration [[ParameterDeclaration.html]] {
            {static} +getTypeOfParameter(String, String): String
            {static} +getParameterValue(String, String): Object
            {static} +modifyAdaptationParameter(String, String, Object): void
            {static} +collectNamesOfAllParameters(): void
        }

        class AdaptationException [[AdaptationException.html]] {
            +AdaptationException(String)
            +AdaptationException(String, Throwable)
        }

        class InitialConditionList [[InitialConditionList.html]] {
            +addToInconList(String, Comparable): void
            +getInconTime(): Time
            +setInconTime(Time): void
            +valueOfResource(String): Comparable
            +getEntireInconMap(): Map
        }

        class FunctionalWaitModelingEngine [[FunctionalWaitModelingEngine.html]] {
            #runModeling(): void
            +insertActivityIntoEngine(Activity): void
            +waitUntil(Time): void
            +waitForSignal(String): Map
            +waitUntil(Time, Supplier<Waiter>): Waiter
            +waitForSignal(String, Function<Map, Waiter>): Waiter
        }

        abstract class ModelingEngine [[ModelingEngine.html]] {
            +model(): void
            #initTime(Time): void
            +getCurrentTime(): Time
            +setTime(Time): void
            +isModeling(): boolean
            +resetEngine(): void
            +isCurrentlyReadingInFile(): boolean
            +setCurrentlyReadingInFile(boolean): void
            {abstract} #runModeling(): void
            {abstract} +insertActivityIntoEngine(Activity): void
        }

        class Setup [[Setup.html]] {
            {static} +initializeEngine(): void
        }

        class Signal [[Signal.html]] {
            #Signal(String)
            {static} +send(String, Map): void
        }

        java.lang.Comparable <|.. Waiter
        java.lang.RuntimeException <|- - AdaptationException
        ModelingEngine <|- - FunctionalWaitModelingEngine
        gov.nasa.jpl.activity.WaitProvider <|.. FunctionalWaitModelingEngine
        ModelingEngine - -> ModelingEngine: engine
    }

    namespace java.lang {
        interface Comparable<T> [[https://docs.oracle.com/en/java/javase/13/docs/api/java.base/java/lang/Comparable.html?is-external=true]] {
            {abstract} +compareTo(T): int
        }
        class RuntimeException [[https://docs.oracle.com/en/java/javase/13/docs/api/java.base/java/lang/RuntimeException.html?is-external=true]] {
        }
    }

    namespace gov.nasa.jpl.activity {
        interface WaitProvider [[../activity/WaitProvider.html]] {
            {abstract} +waitUntil(Time): void
            {abstract} +waitForSignal(String): Map
            {abstract} +waitUntil(Time, Supplier<Waiter>): Waiter
            {abstract} +waitForSignal(String, Function<Map, Waiter>): Waiter
            {abstract} +getCurrentTime(): Time
        }
    }

    center footer UMLDoclet 2.0.8, PlantUML 1.2020.01
@enduml

PlantUML version 1.2020.01(Sun Feb 16 09:40:32 PST 2020)
(APACHE source distribution)
Java Runtime: OpenJDK Runtime Environment
JVM: OpenJDK 64-Bit Server VM
Java Version: 17.0.6+10
Operating System: Mac OS X
Default Encoding: UTF-8
Language: en
Country: US
--></g></svg>