<?xml version="1.0" encoding="UTF-8" standalone="no"?><svg xmlns="http://www.w3.org/2000/svg" xmlns:xlink="http://www.w3.org/1999/xlink" contentScriptType="application/ecmascript" contentStyleType="text/css" height="135px" preserveAspectRatio="none" style="width:342px;height:135px;" version="1.1" viewBox="0 0 342 135" width="342px" zoomAndPan="magnify"><defs><filter height="300%" id="fq6gh1oybvfkg" width="300%" x="-1" y="-1"><feGaussianBlur result="blurOut" stdDeviation="2.0"/><feColorMatrix in="blurOut" result="blurOut2" type="matrix" values="0 0 0 0 0 0 0 0 0 0 0 0 0 0 0 0 0 0 .4 0"/><feOffset dx="4.0" dy="4.0" in="blurOut2" result="blurOut3"/><feBlend in="SourceGraphic" in2="blurOut3" mode="normal"/></filter></defs><g><!--MD5=[1eb8c507bc794a07bd84d71aada73af0]
class gov.nasa.jpl.engine.ParameterDeclaration--><a href="ParameterDeclaration.html" target="_top" title="ParameterDeclaration.html" xlink:actuate="onRequest" xlink:href="ParameterDeclaration.html" xlink:show="new" xlink:title="ParameterDeclaration.html" xlink:type="simple"><rect fill="#FEFECE" filter="url(#fq6gh1oybvfkg)" height="98.0859" id="gov.nasa.jpl.engine.ParameterDeclaration" style="stroke: #A80036; stroke-width: 1.5;" width="324" x="7" y="7"/><ellipse cx="90.75" cy="26.1328" fill="#ADD1B2" rx="11" ry="11" style="stroke: #A80036; stroke-width: 1.0;"/><path d="M93.2231,32.2759 Q92.6421,32.5747 92.0029,32.7241 Q91.3638,32.8735 90.6582,32.8735 Q88.1514,32.8735 86.8315,31.2217 Q85.5117,29.5698 85.5117,26.4487 Q85.5117,23.3193 86.8315,21.6675 Q88.1514,20.0156 90.6582,20.0156 Q91.3638,20.0156 92.0112,20.165 Q92.6587,20.3145 93.2231,20.6133 L93.2231,23.3359 Q92.5923,22.7549 91.9988,22.4851 Q91.4053,22.2153 90.7744,22.2153 Q89.4297,22.2153 88.7449,23.282 Q88.0601,24.3486 88.0601,26.4487 Q88.0601,28.5405 88.7449,29.6072 Q89.4297,30.6738 90.7744,30.6738 Q91.4053,30.6738 91.9988,30.4041 Q92.5923,30.1343 93.2231,29.5532 Z "/><text fill="#000000" font-family="sans-serif" font-size="14" lengthAdjust="spacingAndGlyphs" textLength="148" x="111.25" y="25.5352">ParameterDeclaration</text><text fill="#000000" font-family="sans-serif" font-size="10" lengthAdjust="spacingAndGlyphs" textLength="94" x="138.25" y="38.1563">gov.nasa.jpl.engine</text><line style="stroke: #A80036; stroke-width: 1.5;" x1="8" x2="330" y1="45.2656" y2="45.2656"/><ellipse cx="18" cy="56.2656" fill="#84BE84" rx="3" ry="3" style="stroke: #038048; stroke-width: 1.0;"/><text fill="#000000" font-family="sans-serif" font-size="11" lengthAdjust="spacingAndGlyphs" text-decoration="underline" textLength="226" x="27" y="59.9004">getTypeOfParameter(String, String): String</text><ellipse cx="18" cy="69.2207" fill="#84BE84" rx="3" ry="3" style="stroke: #038048; stroke-width: 1.0;"/><text fill="#000000" font-family="sans-serif" font-size="11" lengthAdjust="spacingAndGlyphs" text-decoration="underline" textLength="219" x="27" y="72.8555">getParameterValue(String, String): Object</text><ellipse cx="18" cy="82.1758" fill="#84BE84" rx="3" ry="3" style="stroke: #038048; stroke-width: 1.0;"/><text fill="#000000" font-family="sans-serif" font-size="11" lengthAdjust="spacingAndGlyphs" text-decoration="underline" textLength="298" x="27" y="85.8105">modifyAdaptationParameter(String, String, Object): void</text><ellipse cx="18" cy="95.1309" fill="#84BE84" rx="3" ry="3" style="stroke: #038048; stroke-width: 1.0;"/><text fill="#000000" font-family="sans-serif" font-size="11" lengthAdjust="spacingAndGlyphs" text-decoration="underline" textLength="195" x="27" y="98.7656">collectNamesOfAllParameters(): void</text></a><text fill="#888888" font-family="sans-serif" font-size="10" lengthAdjust="spacingAndGlyphs" textLength="182" x="78" y="121.7539">UMLDoclet 2.0.8, PlantUML 1.2020.01</text><!--MD5=[38a4d4ba51941eab1ddcd837a50159ae]
@startuml
    set namespaceSeparator none
    hide empty fields
    hide empty methods

    class "<size:14>ParameterDeclaration\n<size:10>gov.nasa.jpl.engine" as gov.nasa.jpl.engine.ParameterDeclaration [[ParameterDeclaration.html]] {
        {static} +getTypeOfParameter(String, String): String
        {static} +getParameterValue(String, String): Object
        {static} +modifyAdaptationParameter(String, String, Object): void
        {static} +collectNamesOfAllParameters(): void
    }

    center footer UMLDoclet 2.0.8, PlantUML 1.2020.01
@enduml

PlantUML version 1.2020.01(Sun Feb 16 09:40:32 PST 2020)
(APACHE source distribution)
Java Runtime: OpenJDK Runtime Environment
JVM: OpenJDK 64-Bit Server VM
Java Version: 17.0.6+10
Operating System: Mac OS X
Default Encoding: UTF-8
Language: en
Country: US
--></g></svg>