<?xml version="1.0" encoding="UTF-8" standalone="no"?><svg xmlns="http://www.w3.org/2000/svg" xmlns:xlink="http://www.w3.org/1999/xlink" contentScriptType="application/ecmascript" contentStyleType="text/css" height="109px" preserveAspectRatio="none" style="width:194px;height:109px;" version="1.1" viewBox="0 0 194 109" width="194px" zoomAndPan="magnify"><defs><filter height="300%" id="f165vyqfz6xt2i" width="300%" x="-1" y="-1"><feGaussianBlur result="blurOut" stdDeviation="2.0"/><feColorMatrix in="blurOut" result="blurOut2" type="matrix" values="0 0 0 0 0 0 0 0 0 0 0 0 0 0 0 0 0 0 .4 0"/><feOffset dx="4.0" dy="4.0" in="blurOut2" result="blurOut3"/><feBlend in="SourceGraphic" in2="blurOut3" mode="normal"/></filter></defs><g><!--MD5=[b1ae4f3e0b5bb87546d8b4bec00359f3]
class gov.nasa.jpl.engine.Signal--><a href="Signal.html" target="_top" title="Signal.html" xlink:actuate="onRequest" xlink:href="Signal.html" xlink:show="new" xlink:title="Signal.html" xlink:type="simple"><rect fill="#FEFECE" filter="url(#f165vyqfz6xt2i)" height="72.1758" id="gov.nasa.jpl.engine.Signal" style="stroke: #A80036; stroke-width: 1.5;" width="149" x="16.5" y="7"/><ellipse cx="41.85" cy="26.1328" fill="#ADD1B2" rx="11" ry="11" style="stroke: #A80036; stroke-width: 1.0;"/><path d="M44.3231,32.2759 Q43.7421,32.5747 43.1029,32.7241 Q42.4638,32.8735 41.7582,32.8735 Q39.2514,32.8735 37.9315,31.2217 Q36.6117,29.5698 36.6117,26.4487 Q36.6117,23.3193 37.9315,21.6675 Q39.2514,20.0156 41.7582,20.0156 Q42.4638,20.0156 43.1112,20.165 Q43.7587,20.3145 44.3231,20.6133 L44.3231,23.3359 Q43.6923,22.7549 43.0988,22.4851 Q42.5053,22.2153 41.8744,22.2153 Q40.5297,22.2153 39.8449,23.282 Q39.1601,24.3486 39.1601,26.4487 Q39.1601,28.5405 39.8449,29.6072 Q40.5297,30.6738 41.8744,30.6738 Q42.5053,30.6738 43.0988,30.4041 Q43.6923,30.1343 44.3231,29.5532 Z "/><text fill="#000000" font-family="sans-serif" font-size="14" lengthAdjust="spacingAndGlyphs" textLength="42" x="84.15" y="25.5352">Signal</text><text fill="#000000" font-family="sans-serif" font-size="10" lengthAdjust="spacingAndGlyphs" textLength="94" x="58.15" y="38.1563">gov.nasa.jpl.engine</text><line style="stroke: #A80036; stroke-width: 1.5;" x1="17.5" x2="164.5" y1="45.2656" y2="45.2656"/><polygon fill="#FFFF44" points="27.5,51.2656,31.5,55.2656,27.5,59.2656,23.5,55.2656" style="stroke: #B38D22; stroke-width: 1.0;"/><text fill="#000000" font-family="sans-serif" font-size="11" lengthAdjust="spacingAndGlyphs" textLength="72" x="36.5" y="59.9004">Signal(String)</text><ellipse cx="27.5" cy="69.2207" fill="#84BE84" rx="3" ry="3" style="stroke: #038048; stroke-width: 1.0;"/><text fill="#000000" font-family="sans-serif" font-size="11" lengthAdjust="spacingAndGlyphs" text-decoration="underline" textLength="123" x="36.5" y="72.8555">send(String, Map): void</text></a><text fill="#888888" font-family="sans-serif" font-size="10" lengthAdjust="spacingAndGlyphs" textLength="182" x="0" y="95.8438">UMLDoclet 2.0.8, PlantUML 1.2020.01</text><!--MD5=[84a5b5a5e1c623987f72b6eef37c6776]
@startuml
    set namespaceSeparator none
    hide empty fields
    hide empty methods

    class "<size:14>Signal\n<size:10>gov.nasa.jpl.engine" as gov.nasa.jpl.engine.Signal [[Signal.html]] {
        #Signal(String)
        {static} +send(String, Map): void
    }

    center footer UMLDoclet 2.0.8, PlantUML 1.2020.01
@enduml

PlantUML version 1.2020.01(Sun Feb 16 09:40:32 PST 2020)
(APACHE source distribution)
Java Runtime: OpenJDK Runtime Environment
JVM: OpenJDK 64-Bit Server VM
Java Version: 17.0.6+10
Operating System: Mac OS X
Default Encoding: UTF-8
Language: en
Country: US
--></g></svg>