<?xml version="1.0" encoding="UTF-8" standalone="no"?><svg xmlns="http://www.w3.org/2000/svg" xmlns:xlink="http://www.w3.org/1999/xlink" contentScriptType="application/ecmascript" contentStyleType="text/css" height="245px" preserveAspectRatio="none" style="width:231px;height:245px;" version="1.1" viewBox="0 0 231 245" width="231px" zoomAndPan="magnify"><defs><filter height="300%" id="f13zlmwd7vwkgm" width="300%" x="-1" y="-1"><feGaussianBlur result="blurOut" stdDeviation="2.0"/><feColorMatrix in="blurOut" result="blurOut2" type="matrix" values="0 0 0 0 0 0 0 0 0 0 0 0 0 0 0 0 0 0 .4 0"/><feOffset dx="4.0" dy="4.0" in="blurOut2" result="blurOut3"/><feBlend in="SourceGraphic" in2="blurOut3" mode="normal"/></filter></defs><g><!--MD5=[89da18835e960f5db18405f8038357c1]
class gov.nasa.jpl.engine.Waiter--><a href="Waiter.html" target="_top" title="Waiter.html" xlink:actuate="onRequest" xlink:href="Waiter.html" xlink:show="new" xlink:title="Waiter.html" xlink:type="simple"><rect fill="#FEFECE" filter="url(#f13zlmwd7vwkgm)" height="85.1309" id="gov.nasa.jpl.engine.Waiter" style="stroke: #A80036; stroke-width: 1.5;" width="214" x="6" y="126.87"/><ellipse cx="61.75" cy="146.0028" fill="#ADD1B2" rx="11" ry="11" style="stroke: #A80036; stroke-width: 1.0;"/><path d="M64.2231,152.1459 Q63.6421,152.4447 63.0029,152.5941 Q62.3638,152.7435 61.6582,152.7435 Q59.1514,152.7435 57.8315,151.0917 Q56.5117,149.4398 56.5117,146.3187 Q56.5117,143.1893 57.8315,141.5375 Q59.1514,139.8856 61.6582,139.8856 Q62.3638,139.8856 63.0112,140.035 Q63.6587,140.1845 64.2231,140.4833 L64.2231,143.2059 Q63.5923,142.6249 62.9988,142.3551 Q62.4053,142.0853 61.7744,142.0853 Q60.4297,142.0853 59.7449,143.152 Q59.0601,144.2186 59.0601,146.3187 Q59.0601,148.4105 59.7449,149.4772 Q60.4297,150.5438 61.7744,150.5438 Q62.4053,150.5438 62.9988,150.2741 Q63.5923,150.0043 64.2231,149.4232 Z "/><text fill="#000000" font-family="sans-serif" font-size="14" lengthAdjust="spacingAndGlyphs" textLength="43" x="107.75" y="145.4052">Waiter</text><text fill="#000000" font-family="sans-serif" font-size="10" lengthAdjust="spacingAndGlyphs" textLength="94" x="82.25" y="158.0263">gov.nasa.jpl.engine</text><line style="stroke: #A80036; stroke-width: 1.5;" x1="7" x2="219" y1="165.1356" y2="165.1356"/><ellipse cx="17" cy="176.1356" fill="#84BE84" rx="3" ry="3" style="stroke: #038048; stroke-width: 1.0;"/><text fill="#000000" font-family="sans-serif" font-size="11" lengthAdjust="spacingAndGlyphs" textLength="188" x="26" y="179.7704">Waiter(Time, int, Supplier&lt;Waiter&gt;)</text><ellipse cx="17" cy="189.0907" fill="#84BE84" rx="3" ry="3" style="stroke: #038048; stroke-width: 1.0;"/><text fill="#000000" font-family="sans-serif" font-size="11" lengthAdjust="spacingAndGlyphs" textLength="83" x="26" y="192.7255">getTime(): Time</text><ellipse cx="17" cy="202.0458" fill="#84BE84" rx="3" ry="3" style="stroke: #038048; stroke-width: 1.0;"/><text fill="#000000" font-family="sans-serif" font-size="11" lengthAdjust="spacingAndGlyphs" textLength="122" x="26" y="205.6805">compareTo(Waiter): int</text></a><!--MD5=[008d82c49f85b4d489e041917c99c847]
class java.lang.Comparable--><a href="https://docs.oracle.com/en/java/javase/13/docs/api/java.base/java/lang/Comparable.html?is-external=true" target="_top" title="https://docs.oracle.com/en/java/javase/13/docs/api/java.base/java/lang/Comparable.html?is-external=true" xlink:actuate="onRequest" xlink:href="https://docs.oracle.com/en/java/javase/13/docs/api/java.base/java/lang/Comparable.html?is-external=true" xlink:show="new" xlink:title="https://docs.oracle.com/en/java/javase/13/docs/api/java.base/java/lang/Comparable.html?is-external=true" xlink:type="simple"><rect fill="#FEFECE" filter="url(#f13zlmwd7vwkgm)" height="59.2207" id="java.lang.Comparable" style="stroke: #A80036; stroke-width: 1.5;" width="156" x="35" y="7.65"/><ellipse cx="50" cy="26.7828" fill="#B4A7E5" rx="11" ry="11" style="stroke: #A80036; stroke-width: 1.0;"/><path d="M46.4277,23.0479 L46.4277,20.8897 L53.8071,20.8897 L53.8071,23.0479 L51.3418,23.0479 L51.3418,31.1246 L53.8071,31.1246 L53.8071,33.2828 L46.4277,33.2828 L46.4277,31.1246 L48.8931,31.1246 L48.8931,23.0479 Z "/><text fill="#000000" font-family="sans-serif" font-size="14" font-style="italic" lengthAdjust="spacingAndGlyphs" textLength="84" x="64" y="26.1852">Comparable</text><text fill="#000000" font-family="sans-serif" font-size="10" font-style="italic" lengthAdjust="spacingAndGlyphs" textLength="44" x="84" y="38.8063">java.lang</text><rect fill="#FFFFFF" height="16.1328" style="stroke: #000000; stroke-width: 1.0; stroke-dasharray: 2.0,2.0;" width="38" x="156" y="4.65"/><text fill="#000000" font-family="sans-serif" font-size="12" font-style="italic" lengthAdjust="spacingAndGlyphs" textLength="36" x="157" y="17.2516">Waiter</text><line style="stroke: #A80036; stroke-width: 1.5;" x1="36" x2="190" y1="45.9156" y2="45.9156"/><ellipse cx="46" cy="56.9156" fill="#84BE84" rx="3" ry="3" style="stroke: #038048; stroke-width: 1.0;"/><text fill="#000000" font-family="sans-serif" font-size="11" font-style="italic" lengthAdjust="spacingAndGlyphs" textLength="122" x="55" y="60.5504">compareTo(Waiter): int</text></a><!--MD5=[80d33d75fc74e51dfe3b0ed417e94a08]
reverse link java.lang.Comparable to gov.nasa.jpl.engine.Waiter--><path d="M113,88.59 C113,101.22 113,114.63 113,126.78 " fill="none" id="java.lang.Comparable&lt;-gov.nasa.jpl.engine.Waiter" style="stroke: #A80036; stroke-width: 1.0; stroke-dasharray: 7.0,7.0;"/><polygon fill="none" points="106,88.66,113,68.66,120,88.66,106,88.66" style="stroke: #A80036; stroke-width: 1.0;"/><text fill="#888888" font-family="sans-serif" font-size="10" lengthAdjust="spacingAndGlyphs" textLength="182" x="28" y="231.668">UMLDoclet 2.0.8, PlantUML 1.2020.01</text><!--MD5=[6321d2f85849d531bb13811542af00f4]
@startuml
    set namespaceSeparator none
    hide empty fields
    hide empty methods

    class "<size:14>Waiter\n<size:10>gov.nasa.jpl.engine" as gov.nasa.jpl.engine.Waiter [[Waiter.html]] {
        +Waiter(Time, int, Supplier<Waiter>)
        +getTime(): Time
        +compareTo(Waiter): int
    }

    interface "<size:14>Comparable\n<size:10>java.lang" as java.lang.Comparable<Waiter> [[https://docs.oracle.com/en/java/javase/13/docs/api/java.base/java/lang/Comparable.html?is-external=true]] {
        {abstract} +compareTo(Waiter): int
    }

    java.lang.Comparable <|.. gov.nasa.jpl.engine.Waiter

    center footer UMLDoclet 2.0.8, PlantUML 1.2020.01
@enduml

PlantUML version 1.2020.01(Sun Feb 16 09:40:32 PST 2020)
(APACHE source distribution)
Java Runtime: OpenJDK Runtime Environment
JVM: OpenJDK 64-Bit Server VM
Java Version: 17.0.6+10
Operating System: Mac OS X
Default Encoding: UTF-8
Language: en
Country: US
--></g></svg>